G04 #@! TF.GenerationSoftware,KiCad,Pcbnew,(5.1.6-0-10_14)*
G04 #@! TF.CreationDate,2021-01-24T09:19:22+01:00*
G04 #@! TF.ProjectId,GW,47572e6b-6963-4616-945f-706362585858,rev?*
G04 #@! TF.SameCoordinates,Original*
G04 #@! TF.FileFunction,Legend,Bot*
G04 #@! TF.FilePolarity,Positive*
%FSLAX46Y46*%
G04 Gerber Fmt 4.6, Leading zero omitted, Abs format (unit mm)*
G04 Created by KiCad (PCBNEW (5.1.6-0-10_14)) date 2021-01-24 09:19:22*
%MOMM*%
%LPD*%
G01*
G04 APERTURE LIST*
%ADD10C,0.300000*%
%ADD11C,0.250000*%
%ADD12C,0.150000*%
%ADD13C,0.450000*%
%ADD14C,0.200000*%
G04 APERTURE END LIST*
D10*
X146751428Y-101643571D02*
X146751428Y-100143571D01*
X146180000Y-100143571D01*
X146037142Y-100215000D01*
X145965714Y-100286428D01*
X145894285Y-100429285D01*
X145894285Y-100643571D01*
X145965714Y-100786428D01*
X146037142Y-100857857D01*
X146180000Y-100929285D01*
X146751428Y-100929285D01*
X144394285Y-101500714D02*
X144465714Y-101572142D01*
X144680000Y-101643571D01*
X144822857Y-101643571D01*
X145037142Y-101572142D01*
X145180000Y-101429285D01*
X145251428Y-101286428D01*
X145322857Y-101000714D01*
X145322857Y-100786428D01*
X145251428Y-100500714D01*
X145180000Y-100357857D01*
X145037142Y-100215000D01*
X144822857Y-100143571D01*
X144680000Y-100143571D01*
X144465714Y-100215000D01*
X144394285Y-100286428D01*
X142608571Y-101643571D02*
X142608571Y-100143571D01*
X142251428Y-100143571D01*
X142037142Y-100215000D01*
X141894285Y-100357857D01*
X141822857Y-100500714D01*
X141751428Y-100786428D01*
X141751428Y-101000714D01*
X141822857Y-101286428D01*
X141894285Y-101429285D01*
X142037142Y-101572142D01*
X142251428Y-101643571D01*
X142608571Y-101643571D01*
X141108571Y-101643571D02*
X141108571Y-100643571D01*
X141108571Y-100929285D02*
X141037142Y-100786428D01*
X140965714Y-100715000D01*
X140822857Y-100643571D01*
X140680000Y-100643571D01*
X140180000Y-101643571D02*
X140180000Y-100643571D01*
X140180000Y-100143571D02*
X140251428Y-100215000D01*
X140180000Y-100286428D01*
X140108571Y-100215000D01*
X140180000Y-100143571D01*
X140180000Y-100286428D01*
X139608571Y-100643571D02*
X139251428Y-101643571D01*
X138894285Y-100643571D01*
X137751428Y-101572142D02*
X137894285Y-101643571D01*
X138180000Y-101643571D01*
X138322857Y-101572142D01*
X138394285Y-101429285D01*
X138394285Y-100857857D01*
X138322857Y-100715000D01*
X138180000Y-100643571D01*
X137894285Y-100643571D01*
X137751428Y-100715000D01*
X137680000Y-100857857D01*
X137680000Y-101000714D01*
X138394285Y-101143571D01*
X135037142Y-101643571D02*
X135537142Y-100929285D01*
X135894285Y-101643571D02*
X135894285Y-100143571D01*
X135322857Y-100143571D01*
X135180000Y-100215000D01*
X135108571Y-100286428D01*
X135037142Y-100429285D01*
X135037142Y-100643571D01*
X135108571Y-100786428D01*
X135180000Y-100857857D01*
X135322857Y-100929285D01*
X135894285Y-100929285D01*
X133822857Y-101572142D02*
X133965714Y-101643571D01*
X134251428Y-101643571D01*
X134394285Y-101572142D01*
X134465714Y-101429285D01*
X134465714Y-100857857D01*
X134394285Y-100715000D01*
X134251428Y-100643571D01*
X133965714Y-100643571D01*
X133822857Y-100715000D01*
X133751428Y-100857857D01*
X133751428Y-101000714D01*
X134465714Y-101143571D01*
X133251428Y-100643571D02*
X132894285Y-101643571D01*
X132537142Y-100643571D01*
X130037142Y-101643571D02*
X130894285Y-101643571D01*
X130465714Y-101643571D02*
X130465714Y-100143571D01*
X130608571Y-100357857D01*
X130751428Y-100500714D01*
X130894285Y-100572142D01*
D11*
X164796157Y-115871557D02*
X164796157Y-114671557D01*
X164281871Y-115871557D02*
X164281871Y-115242985D01*
X164339014Y-115128700D01*
X164453300Y-115071557D01*
X164624728Y-115071557D01*
X164739014Y-115128700D01*
X164796157Y-115185842D01*
X163881871Y-115071557D02*
X163424728Y-115071557D01*
X163710442Y-114671557D02*
X163710442Y-115700128D01*
X163653300Y-115814414D01*
X163539014Y-115871557D01*
X163424728Y-115871557D01*
X163196157Y-115071557D02*
X162739014Y-115071557D01*
X163024728Y-114671557D02*
X163024728Y-115700128D01*
X162967585Y-115814414D01*
X162853300Y-115871557D01*
X162739014Y-115871557D01*
X162339014Y-115071557D02*
X162339014Y-116271557D01*
X162339014Y-115128700D02*
X162224728Y-115071557D01*
X161996157Y-115071557D01*
X161881871Y-115128700D01*
X161824728Y-115185842D01*
X161767585Y-115300128D01*
X161767585Y-115642985D01*
X161824728Y-115757271D01*
X161881871Y-115814414D01*
X161996157Y-115871557D01*
X162224728Y-115871557D01*
X162339014Y-115814414D01*
X161310442Y-115814414D02*
X161196157Y-115871557D01*
X160967585Y-115871557D01*
X160853300Y-115814414D01*
X160796157Y-115700128D01*
X160796157Y-115642985D01*
X160853300Y-115528700D01*
X160967585Y-115471557D01*
X161139014Y-115471557D01*
X161253300Y-115414414D01*
X161310442Y-115300128D01*
X161310442Y-115242985D01*
X161253300Y-115128700D01*
X161139014Y-115071557D01*
X160967585Y-115071557D01*
X160853300Y-115128700D01*
X160281871Y-115757271D02*
X160224728Y-115814414D01*
X160281871Y-115871557D01*
X160339014Y-115814414D01*
X160281871Y-115757271D01*
X160281871Y-115871557D01*
X160281871Y-115128700D02*
X160224728Y-115185842D01*
X160281871Y-115242985D01*
X160339014Y-115185842D01*
X160281871Y-115128700D01*
X160281871Y-115242985D01*
X158853300Y-114614414D02*
X159881871Y-116157271D01*
X157596157Y-114614414D02*
X158624728Y-116157271D01*
X156681871Y-115071557D02*
X156681871Y-116042985D01*
X156739014Y-116157271D01*
X156796157Y-116214414D01*
X156910442Y-116271557D01*
X157081871Y-116271557D01*
X157196157Y-116214414D01*
X156681871Y-115814414D02*
X156796157Y-115871557D01*
X157024728Y-115871557D01*
X157139014Y-115814414D01*
X157196157Y-115757271D01*
X157253300Y-115642985D01*
X157253300Y-115300128D01*
X157196157Y-115185842D01*
X157139014Y-115128700D01*
X157024728Y-115071557D01*
X156796157Y-115071557D01*
X156681871Y-115128700D01*
X156110442Y-115871557D02*
X156110442Y-115071557D01*
X156110442Y-114671557D02*
X156167585Y-114728700D01*
X156110442Y-114785842D01*
X156053300Y-114728700D01*
X156110442Y-114671557D01*
X156110442Y-114785842D01*
X155710442Y-115071557D02*
X155253300Y-115071557D01*
X155539014Y-114671557D02*
X155539014Y-115700128D01*
X155481871Y-115814414D01*
X155367585Y-115871557D01*
X155253300Y-115871557D01*
X154853300Y-115871557D02*
X154853300Y-114671557D01*
X154339014Y-115871557D02*
X154339014Y-115242985D01*
X154396157Y-115128700D01*
X154510442Y-115071557D01*
X154681871Y-115071557D01*
X154796157Y-115128700D01*
X154853300Y-115185842D01*
X153253300Y-115071557D02*
X153253300Y-115871557D01*
X153767585Y-115071557D02*
X153767585Y-115700128D01*
X153710442Y-115814414D01*
X153596157Y-115871557D01*
X153424728Y-115871557D01*
X153310442Y-115814414D01*
X153253300Y-115757271D01*
X152681871Y-115871557D02*
X152681871Y-114671557D01*
X152681871Y-115128700D02*
X152567585Y-115071557D01*
X152339014Y-115071557D01*
X152224728Y-115128700D01*
X152167585Y-115185842D01*
X152110442Y-115300128D01*
X152110442Y-115642985D01*
X152167585Y-115757271D01*
X152224728Y-115814414D01*
X152339014Y-115871557D01*
X152567585Y-115871557D01*
X152681871Y-115814414D01*
X151596157Y-115757271D02*
X151539014Y-115814414D01*
X151596157Y-115871557D01*
X151653300Y-115814414D01*
X151596157Y-115757271D01*
X151596157Y-115871557D01*
X150510442Y-115814414D02*
X150624728Y-115871557D01*
X150853300Y-115871557D01*
X150967585Y-115814414D01*
X151024728Y-115757271D01*
X151081871Y-115642985D01*
X151081871Y-115300128D01*
X151024728Y-115185842D01*
X150967585Y-115128700D01*
X150853300Y-115071557D01*
X150624728Y-115071557D01*
X150510442Y-115128700D01*
X149824728Y-115871557D02*
X149939014Y-115814414D01*
X149996157Y-115757271D01*
X150053300Y-115642985D01*
X150053300Y-115300128D01*
X149996157Y-115185842D01*
X149939014Y-115128700D01*
X149824728Y-115071557D01*
X149653300Y-115071557D01*
X149539014Y-115128700D01*
X149481871Y-115185842D01*
X149424728Y-115300128D01*
X149424728Y-115642985D01*
X149481871Y-115757271D01*
X149539014Y-115814414D01*
X149653300Y-115871557D01*
X149824728Y-115871557D01*
X148910442Y-115871557D02*
X148910442Y-115071557D01*
X148910442Y-115185842D02*
X148853300Y-115128700D01*
X148739014Y-115071557D01*
X148567585Y-115071557D01*
X148453300Y-115128700D01*
X148396157Y-115242985D01*
X148396157Y-115871557D01*
X148396157Y-115242985D02*
X148339014Y-115128700D01*
X148224728Y-115071557D01*
X148053300Y-115071557D01*
X147939014Y-115128700D01*
X147881871Y-115242985D01*
X147881871Y-115871557D01*
X146453300Y-114614414D02*
X147481871Y-116157271D01*
X146053300Y-115871557D02*
X146053300Y-114671557D01*
X145939014Y-115414414D02*
X145596157Y-115871557D01*
X145596157Y-115071557D02*
X146053300Y-115528700D01*
X144624728Y-115814414D02*
X144739014Y-115871557D01*
X144967585Y-115871557D01*
X145081871Y-115814414D01*
X145139014Y-115700128D01*
X145139014Y-115242985D01*
X145081871Y-115128700D01*
X144967585Y-115071557D01*
X144739014Y-115071557D01*
X144624728Y-115128700D01*
X144567585Y-115242985D01*
X144567585Y-115357271D01*
X145139014Y-115471557D01*
X144053300Y-115871557D02*
X144053300Y-115071557D01*
X144053300Y-114671557D02*
X144110442Y-114728700D01*
X144053300Y-114785842D01*
X143996157Y-114728700D01*
X144053300Y-114671557D01*
X144053300Y-114785842D01*
X143481871Y-115871557D02*
X143481871Y-115071557D01*
X143481871Y-115300128D02*
X143424728Y-115185842D01*
X143367585Y-115128700D01*
X143253300Y-115071557D01*
X143139014Y-115071557D01*
X142910442Y-115071557D02*
X142453300Y-115071557D01*
X142739014Y-115871557D02*
X142739014Y-114842985D01*
X142681871Y-114728700D01*
X142567585Y-114671557D01*
X142453300Y-114671557D01*
X141196157Y-114614414D02*
X142224728Y-116157271D01*
X140167585Y-114728700D02*
X140281871Y-114671557D01*
X140453300Y-114671557D01*
X140624728Y-114728700D01*
X140739014Y-114842985D01*
X140796157Y-114957271D01*
X140853300Y-115185842D01*
X140853300Y-115357271D01*
X140796157Y-115585842D01*
X140739014Y-115700128D01*
X140624728Y-115814414D01*
X140453300Y-115871557D01*
X140339014Y-115871557D01*
X140167585Y-115814414D01*
X140110442Y-115757271D01*
X140110442Y-115357271D01*
X140339014Y-115357271D01*
X139596157Y-115871557D02*
X139596157Y-115071557D01*
X139596157Y-115300128D02*
X139539014Y-115185842D01*
X139481871Y-115128700D01*
X139367585Y-115071557D01*
X139253300Y-115071557D01*
X138396157Y-115814414D02*
X138510442Y-115871557D01*
X138739014Y-115871557D01*
X138853300Y-115814414D01*
X138910442Y-115700128D01*
X138910442Y-115242985D01*
X138853300Y-115128700D01*
X138739014Y-115071557D01*
X138510442Y-115071557D01*
X138396157Y-115128700D01*
X138339014Y-115242985D01*
X138339014Y-115357271D01*
X138910442Y-115471557D01*
X137310442Y-115871557D02*
X137310442Y-115242985D01*
X137367585Y-115128700D01*
X137481871Y-115071557D01*
X137710442Y-115071557D01*
X137824728Y-115128700D01*
X137310442Y-115814414D02*
X137424728Y-115871557D01*
X137710442Y-115871557D01*
X137824728Y-115814414D01*
X137881871Y-115700128D01*
X137881871Y-115585842D01*
X137824728Y-115471557D01*
X137710442Y-115414414D01*
X137424728Y-115414414D01*
X137310442Y-115357271D01*
X136796157Y-115814414D02*
X136681871Y-115871557D01*
X136453300Y-115871557D01*
X136339014Y-115814414D01*
X136281871Y-115700128D01*
X136281871Y-115642985D01*
X136339014Y-115528700D01*
X136453300Y-115471557D01*
X136624728Y-115471557D01*
X136739014Y-115414414D01*
X136796157Y-115300128D01*
X136796157Y-115242985D01*
X136739014Y-115128700D01*
X136624728Y-115071557D01*
X136453300Y-115071557D01*
X136339014Y-115128700D01*
X135310442Y-115814414D02*
X135424728Y-115871557D01*
X135653300Y-115871557D01*
X135767585Y-115814414D01*
X135824728Y-115700128D01*
X135824728Y-115242985D01*
X135767585Y-115128700D01*
X135653300Y-115071557D01*
X135424728Y-115071557D01*
X135310442Y-115128700D01*
X135253300Y-115242985D01*
X135253300Y-115357271D01*
X135824728Y-115471557D01*
X134853300Y-115071557D02*
X134624728Y-115871557D01*
X134396157Y-115300128D01*
X134167585Y-115871557D01*
X133939014Y-115071557D01*
X133024728Y-115814414D02*
X133139014Y-115871557D01*
X133367585Y-115871557D01*
X133481871Y-115814414D01*
X133539014Y-115700128D01*
X133539014Y-115242985D01*
X133481871Y-115128700D01*
X133367585Y-115071557D01*
X133139014Y-115071557D01*
X133024728Y-115128700D01*
X132967585Y-115242985D01*
X132967585Y-115357271D01*
X133539014Y-115471557D01*
X131939014Y-115871557D02*
X131939014Y-115242985D01*
X131996157Y-115128700D01*
X132110442Y-115071557D01*
X132339014Y-115071557D01*
X132453300Y-115128700D01*
X131939014Y-115814414D02*
X132053300Y-115871557D01*
X132339014Y-115871557D01*
X132453300Y-115814414D01*
X132510442Y-115700128D01*
X132510442Y-115585842D01*
X132453300Y-115471557D01*
X132339014Y-115414414D01*
X132053300Y-115414414D01*
X131939014Y-115357271D01*
X131481871Y-115071557D02*
X130853300Y-115071557D01*
X131481871Y-115871557D01*
X130853300Y-115871557D01*
X130224728Y-115871557D02*
X130339014Y-115814414D01*
X130396157Y-115700128D01*
X130396157Y-114671557D01*
X129310442Y-115814414D02*
X129424728Y-115871557D01*
X129653300Y-115871557D01*
X129767585Y-115814414D01*
X129824728Y-115700128D01*
X129824728Y-115242985D01*
X129767585Y-115128700D01*
X129653300Y-115071557D01*
X129424728Y-115071557D01*
X129310442Y-115128700D01*
X129253300Y-115242985D01*
X129253300Y-115357271D01*
X129824728Y-115471557D01*
D12*
X121935714Y-98496428D02*
X121173809Y-98496428D01*
X121554761Y-98877380D02*
X121554761Y-98115476D01*
X120221428Y-97877380D02*
X120697619Y-97877380D01*
X120745238Y-98353571D01*
X120697619Y-98305952D01*
X120602380Y-98258333D01*
X120364285Y-98258333D01*
X120269047Y-98305952D01*
X120221428Y-98353571D01*
X120173809Y-98448809D01*
X120173809Y-98686904D01*
X120221428Y-98782142D01*
X120269047Y-98829761D01*
X120364285Y-98877380D01*
X120602380Y-98877380D01*
X120697619Y-98829761D01*
X120745238Y-98782142D01*
X119888095Y-97877380D02*
X119554761Y-98877380D01*
X119221428Y-97877380D01*
D13*
X169481309Y-99865000D02*
X169690833Y-99760238D01*
X170005119Y-99760238D01*
X170319404Y-99865000D01*
X170528928Y-100074523D01*
X170633690Y-100284047D01*
X170738452Y-100703095D01*
X170738452Y-101017380D01*
X170633690Y-101436428D01*
X170528928Y-101645952D01*
X170319404Y-101855476D01*
X170005119Y-101960238D01*
X169795595Y-101960238D01*
X169481309Y-101855476D01*
X169376547Y-101750714D01*
X169376547Y-101017380D01*
X169795595Y-101017380D01*
X168433690Y-101960238D02*
X168433690Y-100493571D01*
X168433690Y-100912619D02*
X168328928Y-100703095D01*
X168224166Y-100598333D01*
X168014642Y-100493571D01*
X167805119Y-100493571D01*
X166233690Y-101855476D02*
X166443214Y-101960238D01*
X166862261Y-101960238D01*
X167071785Y-101855476D01*
X167176547Y-101645952D01*
X167176547Y-100807857D01*
X167071785Y-100598333D01*
X166862261Y-100493571D01*
X166443214Y-100493571D01*
X166233690Y-100598333D01*
X166128928Y-100807857D01*
X166128928Y-101017380D01*
X167176547Y-101226904D01*
X164243214Y-101960238D02*
X164243214Y-100807857D01*
X164347976Y-100598333D01*
X164557500Y-100493571D01*
X164976547Y-100493571D01*
X165186071Y-100598333D01*
X164243214Y-101855476D02*
X164452738Y-101960238D01*
X164976547Y-101960238D01*
X165186071Y-101855476D01*
X165290833Y-101645952D01*
X165290833Y-101436428D01*
X165186071Y-101226904D01*
X164976547Y-101122142D01*
X164452738Y-101122142D01*
X164243214Y-101017380D01*
X163300357Y-101855476D02*
X163090833Y-101960238D01*
X162671785Y-101960238D01*
X162462261Y-101855476D01*
X162357500Y-101645952D01*
X162357500Y-101541190D01*
X162462261Y-101331666D01*
X162671785Y-101226904D01*
X162986071Y-101226904D01*
X163195595Y-101122142D01*
X163300357Y-100912619D01*
X163300357Y-100807857D01*
X163195595Y-100598333D01*
X162986071Y-100493571D01*
X162671785Y-100493571D01*
X162462261Y-100598333D01*
X160576547Y-101855476D02*
X160786071Y-101960238D01*
X161205119Y-101960238D01*
X161414642Y-101855476D01*
X161519404Y-101645952D01*
X161519404Y-100807857D01*
X161414642Y-100598333D01*
X161205119Y-100493571D01*
X160786071Y-100493571D01*
X160576547Y-100598333D01*
X160471785Y-100807857D01*
X160471785Y-101017380D01*
X161519404Y-101226904D01*
X159738452Y-100493571D02*
X159319404Y-101960238D01*
X158900357Y-100912619D01*
X158481309Y-101960238D01*
X158062261Y-100493571D01*
X156386071Y-101855476D02*
X156595595Y-101960238D01*
X157014642Y-101960238D01*
X157224166Y-101855476D01*
X157328928Y-101645952D01*
X157328928Y-100807857D01*
X157224166Y-100598333D01*
X157014642Y-100493571D01*
X156595595Y-100493571D01*
X156386071Y-100598333D01*
X156281309Y-100807857D01*
X156281309Y-101017380D01*
X157328928Y-101226904D01*
X154395595Y-101960238D02*
X154395595Y-100807857D01*
X154500357Y-100598333D01*
X154709880Y-100493571D01*
X155128928Y-100493571D01*
X155338452Y-100598333D01*
X154395595Y-101855476D02*
X154605119Y-101960238D01*
X155128928Y-101960238D01*
X155338452Y-101855476D01*
X155443214Y-101645952D01*
X155443214Y-101436428D01*
X155338452Y-101226904D01*
X155128928Y-101122142D01*
X154605119Y-101122142D01*
X154395595Y-101017380D01*
X153557500Y-100493571D02*
X152405119Y-100493571D01*
X153557500Y-101960238D01*
X152405119Y-101960238D01*
X151252738Y-101960238D02*
X151462261Y-101855476D01*
X151567023Y-101645952D01*
X151567023Y-99760238D01*
X149576547Y-101855476D02*
X149786071Y-101960238D01*
X150205119Y-101960238D01*
X150414642Y-101855476D01*
X150519404Y-101645952D01*
X150519404Y-100807857D01*
X150414642Y-100598333D01*
X150205119Y-100493571D01*
X149786071Y-100493571D01*
X149576547Y-100598333D01*
X149471785Y-100807857D01*
X149471785Y-101017380D01*
X150519404Y-101226904D01*
D14*
X171625428Y-107371411D02*
X172482571Y-107371411D01*
X172054000Y-107371411D02*
X172054000Y-105871411D01*
X172196857Y-106085697D01*
X172339714Y-106228554D01*
X172482571Y-106299982D01*
D12*
X119417500Y-110452500D02*
X122517500Y-110452500D01*
X119417500Y-108902500D02*
X119417500Y-110452500D01*
X122237500Y-107632500D02*
X119697500Y-107632500D01*
X119697500Y-100012500D02*
X122237500Y-100012500D01*
X122517500Y-110452500D02*
X122517500Y-108902500D01*
X122237500Y-107632500D02*
X122237500Y-100012500D01*
X119697500Y-107632500D02*
X119697500Y-100012500D01*
X171064000Y-108242840D02*
X169514000Y-108242840D01*
X168244000Y-105422840D02*
X168244000Y-107962840D01*
X170784000Y-105422840D02*
X168244000Y-105422840D01*
X171064000Y-106692840D02*
X171064000Y-108242840D01*
X170784000Y-102882840D02*
X170784000Y-105422840D01*
X127604000Y-102882840D02*
X127604000Y-107962840D01*
X168244000Y-107962840D02*
X127604000Y-107962840D01*
X127604000Y-102882840D02*
X170784000Y-102882840D01*
X118879880Y-107529404D02*
X117879880Y-107529404D01*
X117879880Y-107910357D01*
X117927500Y-108005595D01*
X117975119Y-108053214D01*
X118070357Y-108100833D01*
X118213214Y-108100833D01*
X118308452Y-108053214D01*
X118356071Y-108005595D01*
X118403690Y-107910357D01*
X118403690Y-107529404D01*
X117879880Y-109005595D02*
X117879880Y-108529404D01*
X118356071Y-108481785D01*
X118308452Y-108529404D01*
X118260833Y-108624642D01*
X118260833Y-108862738D01*
X118308452Y-108957976D01*
X118356071Y-109005595D01*
X118451309Y-109053214D01*
X118689404Y-109053214D01*
X118784642Y-109005595D01*
X118832261Y-108957976D01*
X118879880Y-108862738D01*
X118879880Y-108624642D01*
X118832261Y-108529404D01*
X118784642Y-108481785D01*
X118879880Y-100242976D02*
X117879880Y-100242976D01*
X117879880Y-100623928D01*
X117927500Y-100719166D01*
X117975119Y-100766785D01*
X118070357Y-100814404D01*
X118213214Y-100814404D01*
X118308452Y-100766785D01*
X118356071Y-100719166D01*
X118403690Y-100623928D01*
X118403690Y-100242976D01*
X117879880Y-101433452D02*
X117879880Y-101623928D01*
X117927500Y-101719166D01*
X118022738Y-101814404D01*
X118213214Y-101862023D01*
X118546547Y-101862023D01*
X118737023Y-101814404D01*
X118832261Y-101719166D01*
X118879880Y-101623928D01*
X118879880Y-101433452D01*
X118832261Y-101338214D01*
X118737023Y-101242976D01*
X118546547Y-101195357D01*
X118213214Y-101195357D01*
X118022738Y-101242976D01*
X117927500Y-101338214D01*
X117879880Y-101433452D01*
X117879880Y-102195357D02*
X118879880Y-102433452D01*
X118165595Y-102623928D01*
X118879880Y-102814404D01*
X117879880Y-103052500D01*
X118356071Y-103433452D02*
X118356071Y-103766785D01*
X118879880Y-103909642D02*
X118879880Y-103433452D01*
X117879880Y-103433452D01*
X117879880Y-103909642D01*
X118879880Y-104909642D02*
X118403690Y-104576309D01*
X118879880Y-104338214D02*
X117879880Y-104338214D01*
X117879880Y-104719166D01*
X117927500Y-104814404D01*
X117975119Y-104862023D01*
X118070357Y-104909642D01*
X118213214Y-104909642D01*
X118308452Y-104862023D01*
X118356071Y-104814404D01*
X118403690Y-104719166D01*
X118403690Y-104338214D01*
X173427095Y-103970220D02*
X173427095Y-102970220D01*
X173046142Y-102970220D01*
X172950904Y-103017840D01*
X172903285Y-103065459D01*
X172855666Y-103160697D01*
X172855666Y-103303554D01*
X172903285Y-103398792D01*
X172950904Y-103446411D01*
X173046142Y-103494030D01*
X173427095Y-103494030D01*
X172522333Y-102970220D02*
X171855666Y-102970220D01*
X172284238Y-103970220D01*
X152747385Y-108653271D02*
X153080719Y-108653271D01*
X153080719Y-109177080D02*
X153080719Y-108177080D01*
X152604528Y-108177080D01*
X151747385Y-109177080D02*
X152223576Y-109177080D01*
X152223576Y-108177080D01*
X151223576Y-108177080D02*
X151033100Y-108177080D01*
X150937861Y-108224700D01*
X150842623Y-108319938D01*
X150795004Y-108510414D01*
X150795004Y-108843747D01*
X150842623Y-109034223D01*
X150937861Y-109129461D01*
X151033100Y-109177080D01*
X151223576Y-109177080D01*
X151318814Y-109129461D01*
X151414052Y-109034223D01*
X151461671Y-108843747D01*
X151461671Y-108510414D01*
X151414052Y-108319938D01*
X151318814Y-108224700D01*
X151223576Y-108177080D01*
X150366433Y-109177080D02*
X150366433Y-108177080D01*
X149985480Y-108177080D01*
X149890242Y-108224700D01*
X149842623Y-108272319D01*
X149795004Y-108367557D01*
X149795004Y-108510414D01*
X149842623Y-108605652D01*
X149890242Y-108653271D01*
X149985480Y-108700890D01*
X150366433Y-108700890D01*
X149366433Y-109177080D02*
X149366433Y-108177080D01*
X148985480Y-108177080D01*
X148890242Y-108224700D01*
X148842623Y-108272319D01*
X148795004Y-108367557D01*
X148795004Y-108510414D01*
X148842623Y-108605652D01*
X148890242Y-108653271D01*
X148985480Y-108700890D01*
X149366433Y-108700890D01*
X148175957Y-108700890D02*
X148175957Y-109177080D01*
X148509290Y-108177080D02*
X148175957Y-108700890D01*
X147842623Y-108177080D01*
M02*
