G04 #@! TF.GenerationSoftware,KiCad,Pcbnew,(5.1.6-0-10_14)*
G04 #@! TF.CreationDate,2021-01-24T08:44:23+01:00*
G04 #@! TF.ProjectId,GW,47572e6b-6963-4616-945f-706362585858,rev?*
G04 #@! TF.SameCoordinates,Original*
G04 #@! TF.FileFunction,Legend,Bot*
G04 #@! TF.FilePolarity,Positive*
%FSLAX46Y46*%
G04 Gerber Fmt 4.6, Leading zero omitted, Abs format (unit mm)*
G04 Created by KiCad (PCBNEW (5.1.6-0-10_14)) date 2021-01-24 08:44:23*
%MOMM*%
%LPD*%
G01*
G04 APERTURE LIST*
%ADD10C,0.300000*%
%ADD11C,0.250000*%
%ADD12C,0.150000*%
%ADD13C,0.450000*%
%ADD14C,0.200000*%
G04 APERTURE END LIST*
D10*
X146751428Y-101643571D02*
X146751428Y-100143571D01*
X146180000Y-100143571D01*
X146037142Y-100215000D01*
X145965714Y-100286428D01*
X145894285Y-100429285D01*
X145894285Y-100643571D01*
X145965714Y-100786428D01*
X146037142Y-100857857D01*
X146180000Y-100929285D01*
X146751428Y-100929285D01*
X144394285Y-101500714D02*
X144465714Y-101572142D01*
X144680000Y-101643571D01*
X144822857Y-101643571D01*
X145037142Y-101572142D01*
X145180000Y-101429285D01*
X145251428Y-101286428D01*
X145322857Y-101000714D01*
X145322857Y-100786428D01*
X145251428Y-100500714D01*
X145180000Y-100357857D01*
X145037142Y-100215000D01*
X144822857Y-100143571D01*
X144680000Y-100143571D01*
X144465714Y-100215000D01*
X144394285Y-100286428D01*
X142608571Y-101643571D02*
X142608571Y-100143571D01*
X142251428Y-100143571D01*
X142037142Y-100215000D01*
X141894285Y-100357857D01*
X141822857Y-100500714D01*
X141751428Y-100786428D01*
X141751428Y-101000714D01*
X141822857Y-101286428D01*
X141894285Y-101429285D01*
X142037142Y-101572142D01*
X142251428Y-101643571D01*
X142608571Y-101643571D01*
X141108571Y-101643571D02*
X141108571Y-100643571D01*
X141108571Y-100929285D02*
X141037142Y-100786428D01*
X140965714Y-100715000D01*
X140822857Y-100643571D01*
X140680000Y-100643571D01*
X140180000Y-101643571D02*
X140180000Y-100643571D01*
X140180000Y-100143571D02*
X140251428Y-100215000D01*
X140180000Y-100286428D01*
X140108571Y-100215000D01*
X140180000Y-100143571D01*
X140180000Y-100286428D01*
X139608571Y-100643571D02*
X139251428Y-101643571D01*
X138894285Y-100643571D01*
X137751428Y-101572142D02*
X137894285Y-101643571D01*
X138180000Y-101643571D01*
X138322857Y-101572142D01*
X138394285Y-101429285D01*
X138394285Y-100857857D01*
X138322857Y-100715000D01*
X138180000Y-100643571D01*
X137894285Y-100643571D01*
X137751428Y-100715000D01*
X137680000Y-100857857D01*
X137680000Y-101000714D01*
X138394285Y-101143571D01*
X135037142Y-101643571D02*
X135537142Y-100929285D01*
X135894285Y-101643571D02*
X135894285Y-100143571D01*
X135322857Y-100143571D01*
X135180000Y-100215000D01*
X135108571Y-100286428D01*
X135037142Y-100429285D01*
X135037142Y-100643571D01*
X135108571Y-100786428D01*
X135180000Y-100857857D01*
X135322857Y-100929285D01*
X135894285Y-100929285D01*
X133822857Y-101572142D02*
X133965714Y-101643571D01*
X134251428Y-101643571D01*
X134394285Y-101572142D01*
X134465714Y-101429285D01*
X134465714Y-100857857D01*
X134394285Y-100715000D01*
X134251428Y-100643571D01*
X133965714Y-100643571D01*
X133822857Y-100715000D01*
X133751428Y-100857857D01*
X133751428Y-101000714D01*
X134465714Y-101143571D01*
X133251428Y-100643571D02*
X132894285Y-101643571D01*
X132537142Y-100643571D01*
X130037142Y-101643571D02*
X130894285Y-101643571D01*
X130465714Y-101643571D02*
X130465714Y-100143571D01*
X130608571Y-100357857D01*
X130751428Y-100500714D01*
X130894285Y-100572142D01*
D11*
X165951857Y-111413857D02*
X165951857Y-110213857D01*
X165437571Y-111413857D02*
X165437571Y-110785285D01*
X165494714Y-110671000D01*
X165609000Y-110613857D01*
X165780428Y-110613857D01*
X165894714Y-110671000D01*
X165951857Y-110728142D01*
X165037571Y-110613857D02*
X164580428Y-110613857D01*
X164866142Y-110213857D02*
X164866142Y-111242428D01*
X164809000Y-111356714D01*
X164694714Y-111413857D01*
X164580428Y-111413857D01*
X164351857Y-110613857D02*
X163894714Y-110613857D01*
X164180428Y-110213857D02*
X164180428Y-111242428D01*
X164123285Y-111356714D01*
X164009000Y-111413857D01*
X163894714Y-111413857D01*
X163494714Y-110613857D02*
X163494714Y-111813857D01*
X163494714Y-110671000D02*
X163380428Y-110613857D01*
X163151857Y-110613857D01*
X163037571Y-110671000D01*
X162980428Y-110728142D01*
X162923285Y-110842428D01*
X162923285Y-111185285D01*
X162980428Y-111299571D01*
X163037571Y-111356714D01*
X163151857Y-111413857D01*
X163380428Y-111413857D01*
X163494714Y-111356714D01*
X162466142Y-111356714D02*
X162351857Y-111413857D01*
X162123285Y-111413857D01*
X162009000Y-111356714D01*
X161951857Y-111242428D01*
X161951857Y-111185285D01*
X162009000Y-111071000D01*
X162123285Y-111013857D01*
X162294714Y-111013857D01*
X162409000Y-110956714D01*
X162466142Y-110842428D01*
X162466142Y-110785285D01*
X162409000Y-110671000D01*
X162294714Y-110613857D01*
X162123285Y-110613857D01*
X162009000Y-110671000D01*
X161437571Y-111299571D02*
X161380428Y-111356714D01*
X161437571Y-111413857D01*
X161494714Y-111356714D01*
X161437571Y-111299571D01*
X161437571Y-111413857D01*
X161437571Y-110671000D02*
X161380428Y-110728142D01*
X161437571Y-110785285D01*
X161494714Y-110728142D01*
X161437571Y-110671000D01*
X161437571Y-110785285D01*
X160009000Y-110156714D02*
X161037571Y-111699571D01*
X158751857Y-110156714D02*
X159780428Y-111699571D01*
X157837571Y-110613857D02*
X157837571Y-111585285D01*
X157894714Y-111699571D01*
X157951857Y-111756714D01*
X158066142Y-111813857D01*
X158237571Y-111813857D01*
X158351857Y-111756714D01*
X157837571Y-111356714D02*
X157951857Y-111413857D01*
X158180428Y-111413857D01*
X158294714Y-111356714D01*
X158351857Y-111299571D01*
X158409000Y-111185285D01*
X158409000Y-110842428D01*
X158351857Y-110728142D01*
X158294714Y-110671000D01*
X158180428Y-110613857D01*
X157951857Y-110613857D01*
X157837571Y-110671000D01*
X157266142Y-111413857D02*
X157266142Y-110613857D01*
X157266142Y-110213857D02*
X157323285Y-110271000D01*
X157266142Y-110328142D01*
X157209000Y-110271000D01*
X157266142Y-110213857D01*
X157266142Y-110328142D01*
X156866142Y-110613857D02*
X156409000Y-110613857D01*
X156694714Y-110213857D02*
X156694714Y-111242428D01*
X156637571Y-111356714D01*
X156523285Y-111413857D01*
X156409000Y-111413857D01*
X156009000Y-111413857D02*
X156009000Y-110213857D01*
X155494714Y-111413857D02*
X155494714Y-110785285D01*
X155551857Y-110671000D01*
X155666142Y-110613857D01*
X155837571Y-110613857D01*
X155951857Y-110671000D01*
X156009000Y-110728142D01*
X154409000Y-110613857D02*
X154409000Y-111413857D01*
X154923285Y-110613857D02*
X154923285Y-111242428D01*
X154866142Y-111356714D01*
X154751857Y-111413857D01*
X154580428Y-111413857D01*
X154466142Y-111356714D01*
X154409000Y-111299571D01*
X153837571Y-111413857D02*
X153837571Y-110213857D01*
X153837571Y-110671000D02*
X153723285Y-110613857D01*
X153494714Y-110613857D01*
X153380428Y-110671000D01*
X153323285Y-110728142D01*
X153266142Y-110842428D01*
X153266142Y-111185285D01*
X153323285Y-111299571D01*
X153380428Y-111356714D01*
X153494714Y-111413857D01*
X153723285Y-111413857D01*
X153837571Y-111356714D01*
X152751857Y-111299571D02*
X152694714Y-111356714D01*
X152751857Y-111413857D01*
X152809000Y-111356714D01*
X152751857Y-111299571D01*
X152751857Y-111413857D01*
X151666142Y-111356714D02*
X151780428Y-111413857D01*
X152009000Y-111413857D01*
X152123285Y-111356714D01*
X152180428Y-111299571D01*
X152237571Y-111185285D01*
X152237571Y-110842428D01*
X152180428Y-110728142D01*
X152123285Y-110671000D01*
X152009000Y-110613857D01*
X151780428Y-110613857D01*
X151666142Y-110671000D01*
X150980428Y-111413857D02*
X151094714Y-111356714D01*
X151151857Y-111299571D01*
X151209000Y-111185285D01*
X151209000Y-110842428D01*
X151151857Y-110728142D01*
X151094714Y-110671000D01*
X150980428Y-110613857D01*
X150809000Y-110613857D01*
X150694714Y-110671000D01*
X150637571Y-110728142D01*
X150580428Y-110842428D01*
X150580428Y-111185285D01*
X150637571Y-111299571D01*
X150694714Y-111356714D01*
X150809000Y-111413857D01*
X150980428Y-111413857D01*
X150066142Y-111413857D02*
X150066142Y-110613857D01*
X150066142Y-110728142D02*
X150009000Y-110671000D01*
X149894714Y-110613857D01*
X149723285Y-110613857D01*
X149609000Y-110671000D01*
X149551857Y-110785285D01*
X149551857Y-111413857D01*
X149551857Y-110785285D02*
X149494714Y-110671000D01*
X149380428Y-110613857D01*
X149209000Y-110613857D01*
X149094714Y-110671000D01*
X149037571Y-110785285D01*
X149037571Y-111413857D01*
X147609000Y-110156714D02*
X148637571Y-111699571D01*
X147209000Y-111413857D02*
X147209000Y-110213857D01*
X147094714Y-110956714D02*
X146751857Y-111413857D01*
X146751857Y-110613857D02*
X147209000Y-111071000D01*
X145780428Y-111356714D02*
X145894714Y-111413857D01*
X146123285Y-111413857D01*
X146237571Y-111356714D01*
X146294714Y-111242428D01*
X146294714Y-110785285D01*
X146237571Y-110671000D01*
X146123285Y-110613857D01*
X145894714Y-110613857D01*
X145780428Y-110671000D01*
X145723285Y-110785285D01*
X145723285Y-110899571D01*
X146294714Y-111013857D01*
X145209000Y-111413857D02*
X145209000Y-110613857D01*
X145209000Y-110213857D02*
X145266142Y-110271000D01*
X145209000Y-110328142D01*
X145151857Y-110271000D01*
X145209000Y-110213857D01*
X145209000Y-110328142D01*
X144637571Y-111413857D02*
X144637571Y-110613857D01*
X144637571Y-110842428D02*
X144580428Y-110728142D01*
X144523285Y-110671000D01*
X144409000Y-110613857D01*
X144294714Y-110613857D01*
X144066142Y-110613857D02*
X143609000Y-110613857D01*
X143894714Y-111413857D02*
X143894714Y-110385285D01*
X143837571Y-110271000D01*
X143723285Y-110213857D01*
X143609000Y-110213857D01*
X142351857Y-110156714D02*
X143380428Y-111699571D01*
X141323285Y-110271000D02*
X141437571Y-110213857D01*
X141609000Y-110213857D01*
X141780428Y-110271000D01*
X141894714Y-110385285D01*
X141951857Y-110499571D01*
X142009000Y-110728142D01*
X142009000Y-110899571D01*
X141951857Y-111128142D01*
X141894714Y-111242428D01*
X141780428Y-111356714D01*
X141609000Y-111413857D01*
X141494714Y-111413857D01*
X141323285Y-111356714D01*
X141266142Y-111299571D01*
X141266142Y-110899571D01*
X141494714Y-110899571D01*
X140751857Y-111413857D02*
X140751857Y-110613857D01*
X140751857Y-110842428D02*
X140694714Y-110728142D01*
X140637571Y-110671000D01*
X140523285Y-110613857D01*
X140409000Y-110613857D01*
X139551857Y-111356714D02*
X139666142Y-111413857D01*
X139894714Y-111413857D01*
X140009000Y-111356714D01*
X140066142Y-111242428D01*
X140066142Y-110785285D01*
X140009000Y-110671000D01*
X139894714Y-110613857D01*
X139666142Y-110613857D01*
X139551857Y-110671000D01*
X139494714Y-110785285D01*
X139494714Y-110899571D01*
X140066142Y-111013857D01*
X138466142Y-111413857D02*
X138466142Y-110785285D01*
X138523285Y-110671000D01*
X138637571Y-110613857D01*
X138866142Y-110613857D01*
X138980428Y-110671000D01*
X138466142Y-111356714D02*
X138580428Y-111413857D01*
X138866142Y-111413857D01*
X138980428Y-111356714D01*
X139037571Y-111242428D01*
X139037571Y-111128142D01*
X138980428Y-111013857D01*
X138866142Y-110956714D01*
X138580428Y-110956714D01*
X138466142Y-110899571D01*
X137951857Y-111356714D02*
X137837571Y-111413857D01*
X137609000Y-111413857D01*
X137494714Y-111356714D01*
X137437571Y-111242428D01*
X137437571Y-111185285D01*
X137494714Y-111071000D01*
X137609000Y-111013857D01*
X137780428Y-111013857D01*
X137894714Y-110956714D01*
X137951857Y-110842428D01*
X137951857Y-110785285D01*
X137894714Y-110671000D01*
X137780428Y-110613857D01*
X137609000Y-110613857D01*
X137494714Y-110671000D01*
X136466142Y-111356714D02*
X136580428Y-111413857D01*
X136809000Y-111413857D01*
X136923285Y-111356714D01*
X136980428Y-111242428D01*
X136980428Y-110785285D01*
X136923285Y-110671000D01*
X136809000Y-110613857D01*
X136580428Y-110613857D01*
X136466142Y-110671000D01*
X136409000Y-110785285D01*
X136409000Y-110899571D01*
X136980428Y-111013857D01*
X136009000Y-110613857D02*
X135780428Y-111413857D01*
X135551857Y-110842428D01*
X135323285Y-111413857D01*
X135094714Y-110613857D01*
X134180428Y-111356714D02*
X134294714Y-111413857D01*
X134523285Y-111413857D01*
X134637571Y-111356714D01*
X134694714Y-111242428D01*
X134694714Y-110785285D01*
X134637571Y-110671000D01*
X134523285Y-110613857D01*
X134294714Y-110613857D01*
X134180428Y-110671000D01*
X134123285Y-110785285D01*
X134123285Y-110899571D01*
X134694714Y-111013857D01*
X133094714Y-111413857D02*
X133094714Y-110785285D01*
X133151857Y-110671000D01*
X133266142Y-110613857D01*
X133494714Y-110613857D01*
X133609000Y-110671000D01*
X133094714Y-111356714D02*
X133209000Y-111413857D01*
X133494714Y-111413857D01*
X133609000Y-111356714D01*
X133666142Y-111242428D01*
X133666142Y-111128142D01*
X133609000Y-111013857D01*
X133494714Y-110956714D01*
X133209000Y-110956714D01*
X133094714Y-110899571D01*
X132637571Y-110613857D02*
X132009000Y-110613857D01*
X132637571Y-111413857D01*
X132009000Y-111413857D01*
X131380428Y-111413857D02*
X131494714Y-111356714D01*
X131551857Y-111242428D01*
X131551857Y-110213857D01*
X130466142Y-111356714D02*
X130580428Y-111413857D01*
X130809000Y-111413857D01*
X130923285Y-111356714D01*
X130980428Y-111242428D01*
X130980428Y-110785285D01*
X130923285Y-110671000D01*
X130809000Y-110613857D01*
X130580428Y-110613857D01*
X130466142Y-110671000D01*
X130409000Y-110785285D01*
X130409000Y-110899571D01*
X130980428Y-111013857D01*
D12*
X121935714Y-98496428D02*
X121173809Y-98496428D01*
X121554761Y-98877380D02*
X121554761Y-98115476D01*
X120221428Y-97877380D02*
X120697619Y-97877380D01*
X120745238Y-98353571D01*
X120697619Y-98305952D01*
X120602380Y-98258333D01*
X120364285Y-98258333D01*
X120269047Y-98305952D01*
X120221428Y-98353571D01*
X120173809Y-98448809D01*
X120173809Y-98686904D01*
X120221428Y-98782142D01*
X120269047Y-98829761D01*
X120364285Y-98877380D01*
X120602380Y-98877380D01*
X120697619Y-98829761D01*
X120745238Y-98782142D01*
X119888095Y-97877380D02*
X119554761Y-98877380D01*
X119221428Y-97877380D01*
D13*
X169481309Y-99865000D02*
X169690833Y-99760238D01*
X170005119Y-99760238D01*
X170319404Y-99865000D01*
X170528928Y-100074523D01*
X170633690Y-100284047D01*
X170738452Y-100703095D01*
X170738452Y-101017380D01*
X170633690Y-101436428D01*
X170528928Y-101645952D01*
X170319404Y-101855476D01*
X170005119Y-101960238D01*
X169795595Y-101960238D01*
X169481309Y-101855476D01*
X169376547Y-101750714D01*
X169376547Y-101017380D01*
X169795595Y-101017380D01*
X168433690Y-101960238D02*
X168433690Y-100493571D01*
X168433690Y-100912619D02*
X168328928Y-100703095D01*
X168224166Y-100598333D01*
X168014642Y-100493571D01*
X167805119Y-100493571D01*
X166233690Y-101855476D02*
X166443214Y-101960238D01*
X166862261Y-101960238D01*
X167071785Y-101855476D01*
X167176547Y-101645952D01*
X167176547Y-100807857D01*
X167071785Y-100598333D01*
X166862261Y-100493571D01*
X166443214Y-100493571D01*
X166233690Y-100598333D01*
X166128928Y-100807857D01*
X166128928Y-101017380D01*
X167176547Y-101226904D01*
X164243214Y-101960238D02*
X164243214Y-100807857D01*
X164347976Y-100598333D01*
X164557500Y-100493571D01*
X164976547Y-100493571D01*
X165186071Y-100598333D01*
X164243214Y-101855476D02*
X164452738Y-101960238D01*
X164976547Y-101960238D01*
X165186071Y-101855476D01*
X165290833Y-101645952D01*
X165290833Y-101436428D01*
X165186071Y-101226904D01*
X164976547Y-101122142D01*
X164452738Y-101122142D01*
X164243214Y-101017380D01*
X163300357Y-101855476D02*
X163090833Y-101960238D01*
X162671785Y-101960238D01*
X162462261Y-101855476D01*
X162357500Y-101645952D01*
X162357500Y-101541190D01*
X162462261Y-101331666D01*
X162671785Y-101226904D01*
X162986071Y-101226904D01*
X163195595Y-101122142D01*
X163300357Y-100912619D01*
X163300357Y-100807857D01*
X163195595Y-100598333D01*
X162986071Y-100493571D01*
X162671785Y-100493571D01*
X162462261Y-100598333D01*
X160576547Y-101855476D02*
X160786071Y-101960238D01*
X161205119Y-101960238D01*
X161414642Y-101855476D01*
X161519404Y-101645952D01*
X161519404Y-100807857D01*
X161414642Y-100598333D01*
X161205119Y-100493571D01*
X160786071Y-100493571D01*
X160576547Y-100598333D01*
X160471785Y-100807857D01*
X160471785Y-101017380D01*
X161519404Y-101226904D01*
X159738452Y-100493571D02*
X159319404Y-101960238D01*
X158900357Y-100912619D01*
X158481309Y-101960238D01*
X158062261Y-100493571D01*
X156386071Y-101855476D02*
X156595595Y-101960238D01*
X157014642Y-101960238D01*
X157224166Y-101855476D01*
X157328928Y-101645952D01*
X157328928Y-100807857D01*
X157224166Y-100598333D01*
X157014642Y-100493571D01*
X156595595Y-100493571D01*
X156386071Y-100598333D01*
X156281309Y-100807857D01*
X156281309Y-101017380D01*
X157328928Y-101226904D01*
X154395595Y-101960238D02*
X154395595Y-100807857D01*
X154500357Y-100598333D01*
X154709880Y-100493571D01*
X155128928Y-100493571D01*
X155338452Y-100598333D01*
X154395595Y-101855476D02*
X154605119Y-101960238D01*
X155128928Y-101960238D01*
X155338452Y-101855476D01*
X155443214Y-101645952D01*
X155443214Y-101436428D01*
X155338452Y-101226904D01*
X155128928Y-101122142D01*
X154605119Y-101122142D01*
X154395595Y-101017380D01*
X153557500Y-100493571D02*
X152405119Y-100493571D01*
X153557500Y-101960238D01*
X152405119Y-101960238D01*
X151252738Y-101960238D02*
X151462261Y-101855476D01*
X151567023Y-101645952D01*
X151567023Y-99760238D01*
X149576547Y-101855476D02*
X149786071Y-101960238D01*
X150205119Y-101960238D01*
X150414642Y-101855476D01*
X150519404Y-101645952D01*
X150519404Y-100807857D01*
X150414642Y-100598333D01*
X150205119Y-100493571D01*
X149786071Y-100493571D01*
X149576547Y-100598333D01*
X149471785Y-100807857D01*
X149471785Y-101017380D01*
X150519404Y-101226904D01*
D14*
X171625428Y-107371411D02*
X172482571Y-107371411D01*
X172054000Y-107371411D02*
X172054000Y-105871411D01*
X172196857Y-106085697D01*
X172339714Y-106228554D01*
X172482571Y-106299982D01*
D12*
X119697500Y-107632500D02*
X119697500Y-100012500D01*
X122237500Y-107632500D02*
X122237500Y-100012500D01*
X122517500Y-110452500D02*
X122517500Y-108902500D01*
X119697500Y-100012500D02*
X122237500Y-100012500D01*
X122237500Y-107632500D02*
X119697500Y-107632500D01*
X119417500Y-108902500D02*
X119417500Y-110452500D01*
X119417500Y-110452500D02*
X122517500Y-110452500D01*
X127604000Y-102882840D02*
X170784000Y-102882840D01*
X168244000Y-107962840D02*
X127604000Y-107962840D01*
X127604000Y-102882840D02*
X127604000Y-107962840D01*
X170784000Y-102882840D02*
X170784000Y-105422840D01*
X171064000Y-106692840D02*
X171064000Y-108242840D01*
X170784000Y-105422840D02*
X168244000Y-105422840D01*
X168244000Y-105422840D02*
X168244000Y-107962840D01*
X171064000Y-108242840D02*
X169514000Y-108242840D01*
X118879880Y-107529404D02*
X117879880Y-107529404D01*
X117879880Y-107910357D01*
X117927500Y-108005595D01*
X117975119Y-108053214D01*
X118070357Y-108100833D01*
X118213214Y-108100833D01*
X118308452Y-108053214D01*
X118356071Y-108005595D01*
X118403690Y-107910357D01*
X118403690Y-107529404D01*
X117879880Y-109005595D02*
X117879880Y-108529404D01*
X118356071Y-108481785D01*
X118308452Y-108529404D01*
X118260833Y-108624642D01*
X118260833Y-108862738D01*
X118308452Y-108957976D01*
X118356071Y-109005595D01*
X118451309Y-109053214D01*
X118689404Y-109053214D01*
X118784642Y-109005595D01*
X118832261Y-108957976D01*
X118879880Y-108862738D01*
X118879880Y-108624642D01*
X118832261Y-108529404D01*
X118784642Y-108481785D01*
X118879880Y-100242976D02*
X117879880Y-100242976D01*
X117879880Y-100623928D01*
X117927500Y-100719166D01*
X117975119Y-100766785D01*
X118070357Y-100814404D01*
X118213214Y-100814404D01*
X118308452Y-100766785D01*
X118356071Y-100719166D01*
X118403690Y-100623928D01*
X118403690Y-100242976D01*
X117879880Y-101433452D02*
X117879880Y-101623928D01*
X117927500Y-101719166D01*
X118022738Y-101814404D01*
X118213214Y-101862023D01*
X118546547Y-101862023D01*
X118737023Y-101814404D01*
X118832261Y-101719166D01*
X118879880Y-101623928D01*
X118879880Y-101433452D01*
X118832261Y-101338214D01*
X118737023Y-101242976D01*
X118546547Y-101195357D01*
X118213214Y-101195357D01*
X118022738Y-101242976D01*
X117927500Y-101338214D01*
X117879880Y-101433452D01*
X117879880Y-102195357D02*
X118879880Y-102433452D01*
X118165595Y-102623928D01*
X118879880Y-102814404D01*
X117879880Y-103052500D01*
X118356071Y-103433452D02*
X118356071Y-103766785D01*
X118879880Y-103909642D02*
X118879880Y-103433452D01*
X117879880Y-103433452D01*
X117879880Y-103909642D01*
X118879880Y-104909642D02*
X118403690Y-104576309D01*
X118879880Y-104338214D02*
X117879880Y-104338214D01*
X117879880Y-104719166D01*
X117927500Y-104814404D01*
X117975119Y-104862023D01*
X118070357Y-104909642D01*
X118213214Y-104909642D01*
X118308452Y-104862023D01*
X118356071Y-104814404D01*
X118403690Y-104719166D01*
X118403690Y-104338214D01*
X173427095Y-103970220D02*
X173427095Y-102970220D01*
X173046142Y-102970220D01*
X172950904Y-103017840D01*
X172903285Y-103065459D01*
X172855666Y-103160697D01*
X172855666Y-103303554D01*
X172903285Y-103398792D01*
X172950904Y-103446411D01*
X173046142Y-103494030D01*
X173427095Y-103494030D01*
X172522333Y-102970220D02*
X171855666Y-102970220D01*
X172284238Y-103970220D01*
X151408285Y-109161411D02*
X151741619Y-109161411D01*
X151741619Y-109685220D02*
X151741619Y-108685220D01*
X151265428Y-108685220D01*
X150408285Y-109685220D02*
X150884476Y-109685220D01*
X150884476Y-108685220D01*
X149884476Y-108685220D02*
X149694000Y-108685220D01*
X149598761Y-108732840D01*
X149503523Y-108828078D01*
X149455904Y-109018554D01*
X149455904Y-109351887D01*
X149503523Y-109542363D01*
X149598761Y-109637601D01*
X149694000Y-109685220D01*
X149884476Y-109685220D01*
X149979714Y-109637601D01*
X150074952Y-109542363D01*
X150122571Y-109351887D01*
X150122571Y-109018554D01*
X150074952Y-108828078D01*
X149979714Y-108732840D01*
X149884476Y-108685220D01*
X149027333Y-109685220D02*
X149027333Y-108685220D01*
X148646380Y-108685220D01*
X148551142Y-108732840D01*
X148503523Y-108780459D01*
X148455904Y-108875697D01*
X148455904Y-109018554D01*
X148503523Y-109113792D01*
X148551142Y-109161411D01*
X148646380Y-109209030D01*
X149027333Y-109209030D01*
X148027333Y-109685220D02*
X148027333Y-108685220D01*
X147646380Y-108685220D01*
X147551142Y-108732840D01*
X147503523Y-108780459D01*
X147455904Y-108875697D01*
X147455904Y-109018554D01*
X147503523Y-109113792D01*
X147551142Y-109161411D01*
X147646380Y-109209030D01*
X148027333Y-109209030D01*
X146836857Y-109209030D02*
X146836857Y-109685220D01*
X147170190Y-108685220D02*
X146836857Y-109209030D01*
X146503523Y-108685220D01*
M02*
