G04 #@! TF.GenerationSoftware,KiCad,Pcbnew,(5.1.6-0-10_14)*
G04 #@! TF.CreationDate,2021-01-24T08:44:23+01:00*
G04 #@! TF.ProjectId,GW,47572e6b-6963-4616-945f-706362585858,rev?*
G04 #@! TF.SameCoordinates,Original*
G04 #@! TF.FileFunction,Legend,Top*
G04 #@! TF.FilePolarity,Positive*
%FSLAX46Y46*%
G04 Gerber Fmt 4.6, Leading zero omitted, Abs format (unit mm)*
G04 Created by KiCad (PCBNEW (5.1.6-0-10_14)) date 2021-01-24 08:44:23*
%MOMM*%
%LPD*%
G01*
G04 APERTURE LIST*
%ADD10C,0.300000*%
%ADD11C,0.150000*%
%ADD12C,0.120000*%
G04 APERTURE END LIST*
D10*
X142321828Y-100118171D02*
X142321828Y-101189600D01*
X142250400Y-101403885D01*
X142107542Y-101546742D01*
X141893257Y-101618171D01*
X141750400Y-101618171D01*
X143750400Y-101618171D02*
X143036114Y-101618171D01*
X143036114Y-100118171D01*
X145107542Y-101475314D02*
X145036114Y-101546742D01*
X144821828Y-101618171D01*
X144678971Y-101618171D01*
X144464685Y-101546742D01*
X144321828Y-101403885D01*
X144250400Y-101261028D01*
X144178971Y-100975314D01*
X144178971Y-100761028D01*
X144250400Y-100475314D01*
X144321828Y-100332457D01*
X144464685Y-100189600D01*
X144678971Y-100118171D01*
X144821828Y-100118171D01*
X145036114Y-100189600D01*
X145107542Y-100261028D01*
X146178971Y-100118171D02*
X146178971Y-101189600D01*
X146107542Y-101403885D01*
X145964685Y-101546742D01*
X145750400Y-101618171D01*
X145607542Y-101618171D01*
X147607542Y-101618171D02*
X146893257Y-101618171D01*
X146893257Y-100118171D01*
X148964685Y-101475314D02*
X148893257Y-101546742D01*
X148678971Y-101618171D01*
X148536114Y-101618171D01*
X148321828Y-101546742D01*
X148178971Y-101403885D01*
X148107542Y-101261028D01*
X148036114Y-100975314D01*
X148036114Y-100761028D01*
X148107542Y-100475314D01*
X148178971Y-100332457D01*
X148321828Y-100189600D01*
X148536114Y-100118171D01*
X148678971Y-100118171D01*
X148893257Y-100189600D01*
X148964685Y-100261028D01*
X150036114Y-100118171D02*
X150036114Y-101189600D01*
X149964685Y-101403885D01*
X149821828Y-101546742D01*
X149607542Y-101618171D01*
X149464685Y-101618171D01*
X151464685Y-101618171D02*
X150750400Y-101618171D01*
X150750400Y-100118171D01*
X152821828Y-101475314D02*
X152750400Y-101546742D01*
X152536114Y-101618171D01*
X152393257Y-101618171D01*
X152178971Y-101546742D01*
X152036114Y-101403885D01*
X151964685Y-101261028D01*
X151893257Y-100975314D01*
X151893257Y-100761028D01*
X151964685Y-100475314D01*
X152036114Y-100332457D01*
X152178971Y-100189600D01*
X152393257Y-100118171D01*
X152536114Y-100118171D01*
X152750400Y-100189600D01*
X152821828Y-100261028D01*
X153893257Y-100118171D02*
X153893257Y-101189600D01*
X153821828Y-101403885D01*
X153678971Y-101546742D01*
X153464685Y-101618171D01*
X153321828Y-101618171D01*
X155321828Y-101618171D02*
X154607542Y-101618171D01*
X154607542Y-100118171D01*
X156678971Y-101475314D02*
X156607542Y-101546742D01*
X156393257Y-101618171D01*
X156250400Y-101618171D01*
X156036114Y-101546742D01*
X155893257Y-101403885D01*
X155821828Y-101261028D01*
X155750400Y-100975314D01*
X155750400Y-100761028D01*
X155821828Y-100475314D01*
X155893257Y-100332457D01*
X156036114Y-100189600D01*
X156250400Y-100118171D01*
X156393257Y-100118171D01*
X156607542Y-100189600D01*
X156678971Y-100261028D01*
X173168571Y-107302857D02*
X174382857Y-107302857D01*
X174525714Y-107231428D01*
X174597142Y-107160000D01*
X174668571Y-107017142D01*
X174668571Y-106731428D01*
X174597142Y-106588571D01*
X174525714Y-106517142D01*
X174382857Y-106445714D01*
X173168571Y-106445714D01*
X174597142Y-105802857D02*
X174668571Y-105588571D01*
X174668571Y-105231428D01*
X174597142Y-105088571D01*
X174525714Y-105017142D01*
X174382857Y-104945714D01*
X174240000Y-104945714D01*
X174097142Y-105017142D01*
X174025714Y-105088571D01*
X173954285Y-105231428D01*
X173882857Y-105517142D01*
X173811428Y-105660000D01*
X173740000Y-105731428D01*
X173597142Y-105802857D01*
X173454285Y-105802857D01*
X173311428Y-105731428D01*
X173240000Y-105660000D01*
X173168571Y-105517142D01*
X173168571Y-105160000D01*
X173240000Y-104945714D01*
X173882857Y-103802857D02*
X173954285Y-103588571D01*
X174025714Y-103517142D01*
X174168571Y-103445714D01*
X174382857Y-103445714D01*
X174525714Y-103517142D01*
X174597142Y-103588571D01*
X174668571Y-103731428D01*
X174668571Y-104302857D01*
X173168571Y-104302857D01*
X173168571Y-103802857D01*
X173240000Y-103660000D01*
X173311428Y-103588571D01*
X173454285Y-103517142D01*
X173597142Y-103517142D01*
X173740000Y-103588571D01*
X173811428Y-103660000D01*
X173882857Y-103802857D01*
X173882857Y-104302857D01*
D11*
X175650000Y-97925000D02*
X174380000Y-97925000D01*
X175650000Y-112895000D02*
X174380000Y-112895000D01*
X122800000Y-112895000D02*
X124070000Y-112895000D01*
X122800000Y-97925000D02*
X124070000Y-97925000D01*
X175650000Y-97925000D02*
X175650000Y-112895000D01*
X122800000Y-97925000D02*
X122800000Y-112895000D01*
X174380000Y-97925000D02*
X174380000Y-96990000D01*
D12*
X147199600Y-109196000D02*
X147199600Y-108866000D01*
X147199600Y-108866000D02*
X153739600Y-108866000D01*
X153739600Y-108866000D02*
X153739600Y-109196000D01*
X147199600Y-111276000D02*
X147199600Y-111606000D01*
X147199600Y-111606000D02*
X153739600Y-111606000D01*
X153739600Y-111606000D02*
X153739600Y-111276000D01*
X167011600Y-109196000D02*
X167011600Y-108866000D01*
X167011600Y-108866000D02*
X173551600Y-108866000D01*
X173551600Y-108866000D02*
X173551600Y-109196000D01*
X167011600Y-111276000D02*
X167011600Y-111606000D01*
X167011600Y-111606000D02*
X173551600Y-111606000D01*
X173551600Y-111606000D02*
X173551600Y-111276000D01*
X137293600Y-108866000D02*
X137293600Y-109196000D01*
X143833600Y-108866000D02*
X137293600Y-108866000D01*
X143833600Y-109196000D02*
X143833600Y-108866000D01*
X137293600Y-111606000D02*
X137293600Y-111276000D01*
X143833600Y-111606000D02*
X137293600Y-111606000D01*
X143833600Y-111276000D02*
X143833600Y-111606000D01*
X127387600Y-109196000D02*
X127387600Y-108866000D01*
X127387600Y-108866000D02*
X133927600Y-108866000D01*
X133927600Y-108866000D02*
X133927600Y-109196000D01*
X127387600Y-111276000D02*
X127387600Y-111606000D01*
X127387600Y-111606000D02*
X133927600Y-111606000D01*
X133927600Y-111606000D02*
X133927600Y-111276000D01*
X157105600Y-108866000D02*
X157105600Y-109196000D01*
X163645600Y-108866000D02*
X157105600Y-108866000D01*
X163645600Y-109196000D02*
X163645600Y-108866000D01*
X157105600Y-111606000D02*
X157105600Y-111276000D01*
X163645600Y-111606000D02*
X157105600Y-111606000D01*
X163645600Y-111276000D02*
X163645600Y-111606000D01*
D11*
X150353733Y-108656380D02*
X150020400Y-108180190D01*
X149782304Y-108656380D02*
X149782304Y-107656380D01*
X150163257Y-107656380D01*
X150258495Y-107704000D01*
X150306114Y-107751619D01*
X150353733Y-107846857D01*
X150353733Y-107989714D01*
X150306114Y-108084952D01*
X150258495Y-108132571D01*
X150163257Y-108180190D01*
X149782304Y-108180190D01*
X151306114Y-108656380D02*
X150734685Y-108656380D01*
X151020400Y-108656380D02*
X151020400Y-107656380D01*
X150925161Y-107799238D01*
X150829923Y-107894476D01*
X150734685Y-107942095D01*
X172172333Y-108681780D02*
X171839000Y-108205590D01*
X171600904Y-108681780D02*
X171600904Y-107681780D01*
X171981857Y-107681780D01*
X172077095Y-107729400D01*
X172124714Y-107777019D01*
X172172333Y-107872257D01*
X172172333Y-108015114D01*
X172124714Y-108110352D01*
X172077095Y-108157971D01*
X171981857Y-108205590D01*
X171600904Y-108205590D01*
X172553285Y-107777019D02*
X172600904Y-107729400D01*
X172696142Y-107681780D01*
X172934238Y-107681780D01*
X173029476Y-107729400D01*
X173077095Y-107777019D01*
X173124714Y-107872257D01*
X173124714Y-107967495D01*
X173077095Y-108110352D01*
X172505666Y-108681780D01*
X173124714Y-108681780D01*
X140117533Y-108669080D02*
X139784200Y-108192890D01*
X139546104Y-108669080D02*
X139546104Y-107669080D01*
X139927057Y-107669080D01*
X140022295Y-107716700D01*
X140069914Y-107764319D01*
X140117533Y-107859557D01*
X140117533Y-108002414D01*
X140069914Y-108097652D01*
X140022295Y-108145271D01*
X139927057Y-108192890D01*
X139546104Y-108192890D01*
X140450866Y-107669080D02*
X141069914Y-107669080D01*
X140736580Y-108050033D01*
X140879438Y-108050033D01*
X140974676Y-108097652D01*
X141022295Y-108145271D01*
X141069914Y-108240509D01*
X141069914Y-108478604D01*
X141022295Y-108573842D01*
X140974676Y-108621461D01*
X140879438Y-108669080D01*
X140593723Y-108669080D01*
X140498485Y-108621461D01*
X140450866Y-108573842D01*
X130071833Y-108707180D02*
X129738500Y-108230990D01*
X129500404Y-108707180D02*
X129500404Y-107707180D01*
X129881357Y-107707180D01*
X129976595Y-107754800D01*
X130024214Y-107802419D01*
X130071833Y-107897657D01*
X130071833Y-108040514D01*
X130024214Y-108135752D01*
X129976595Y-108183371D01*
X129881357Y-108230990D01*
X129500404Y-108230990D01*
X130928976Y-108040514D02*
X130928976Y-108707180D01*
X130690880Y-107659561D02*
X130452785Y-108373847D01*
X131071833Y-108373847D01*
X160386733Y-108669080D02*
X160053400Y-108192890D01*
X159815304Y-108669080D02*
X159815304Y-107669080D01*
X160196257Y-107669080D01*
X160291495Y-107716700D01*
X160339114Y-107764319D01*
X160386733Y-107859557D01*
X160386733Y-108002414D01*
X160339114Y-108097652D01*
X160291495Y-108145271D01*
X160196257Y-108192890D01*
X159815304Y-108192890D01*
X161291495Y-107669080D02*
X160815304Y-107669080D01*
X160767685Y-108145271D01*
X160815304Y-108097652D01*
X160910542Y-108050033D01*
X161148638Y-108050033D01*
X161243876Y-108097652D01*
X161291495Y-108145271D01*
X161339114Y-108240509D01*
X161339114Y-108478604D01*
X161291495Y-108573842D01*
X161243876Y-108621461D01*
X161148638Y-108669080D01*
X160910542Y-108669080D01*
X160815304Y-108621461D01*
X160767685Y-108573842D01*
M02*
