G04 #@! TF.GenerationSoftware,KiCad,Pcbnew,(5.1.6-0-10_14)*
G04 #@! TF.CreationDate,2021-01-24T09:19:22+01:00*
G04 #@! TF.ProjectId,GW,47572e6b-6963-4616-945f-706362585858,rev?*
G04 #@! TF.SameCoordinates,Original*
G04 #@! TF.FileFunction,Soldermask,Top*
G04 #@! TF.FilePolarity,Negative*
%FSLAX46Y46*%
G04 Gerber Fmt 4.6, Leading zero omitted, Abs format (unit mm)*
G04 Created by KiCad (PCBNEW (5.1.6-0-10_14)) date 2021-01-24 09:19:22*
%MOMM*%
%LPD*%
G01*
G04 APERTURE LIST*
%ADD10C,0.100000*%
G04 APERTURE END LIST*
D10*
G36*
X173588351Y-112260743D02*
G01*
X173733941Y-112321048D01*
X173864970Y-112408599D01*
X173976401Y-112520030D01*
X174063952Y-112651059D01*
X174124257Y-112796649D01*
X174155000Y-112951206D01*
X174155000Y-113108794D01*
X174124257Y-113263351D01*
X174063952Y-113408941D01*
X173976401Y-113539970D01*
X173864970Y-113651401D01*
X173733941Y-113738952D01*
X173588351Y-113799257D01*
X173433794Y-113830000D01*
X173276206Y-113830000D01*
X173121649Y-113799257D01*
X172976059Y-113738952D01*
X172845030Y-113651401D01*
X172733599Y-113539970D01*
X172646048Y-113408941D01*
X172585743Y-113263351D01*
X172555000Y-113108794D01*
X172555000Y-112951206D01*
X172585743Y-112796649D01*
X172646048Y-112651059D01*
X172733599Y-112520030D01*
X172845030Y-112408599D01*
X172976059Y-112321048D01*
X173121649Y-112260743D01*
X173276206Y-112230000D01*
X173433794Y-112230000D01*
X173588351Y-112260743D01*
G37*
G36*
X171048351Y-112260743D02*
G01*
X171193941Y-112321048D01*
X171324970Y-112408599D01*
X171436401Y-112520030D01*
X171523952Y-112651059D01*
X171584257Y-112796649D01*
X171615000Y-112951206D01*
X171615000Y-113108794D01*
X171584257Y-113263351D01*
X171523952Y-113408941D01*
X171436401Y-113539970D01*
X171324970Y-113651401D01*
X171193941Y-113738952D01*
X171048351Y-113799257D01*
X170893794Y-113830000D01*
X170736206Y-113830000D01*
X170581649Y-113799257D01*
X170436059Y-113738952D01*
X170305030Y-113651401D01*
X170193599Y-113539970D01*
X170106048Y-113408941D01*
X170045743Y-113263351D01*
X170015000Y-113108794D01*
X170015000Y-112951206D01*
X170045743Y-112796649D01*
X170106048Y-112651059D01*
X170193599Y-112520030D01*
X170305030Y-112408599D01*
X170436059Y-112321048D01*
X170581649Y-112260743D01*
X170736206Y-112230000D01*
X170893794Y-112230000D01*
X171048351Y-112260743D01*
G37*
G36*
X168508351Y-112260743D02*
G01*
X168653941Y-112321048D01*
X168784970Y-112408599D01*
X168896401Y-112520030D01*
X168983952Y-112651059D01*
X169044257Y-112796649D01*
X169075000Y-112951206D01*
X169075000Y-113108794D01*
X169044257Y-113263351D01*
X168983952Y-113408941D01*
X168896401Y-113539970D01*
X168784970Y-113651401D01*
X168653941Y-113738952D01*
X168508351Y-113799257D01*
X168353794Y-113830000D01*
X168196206Y-113830000D01*
X168041649Y-113799257D01*
X167896059Y-113738952D01*
X167765030Y-113651401D01*
X167653599Y-113539970D01*
X167566048Y-113408941D01*
X167505743Y-113263351D01*
X167475000Y-113108794D01*
X167475000Y-112951206D01*
X167505743Y-112796649D01*
X167566048Y-112651059D01*
X167653599Y-112520030D01*
X167765030Y-112408599D01*
X167896059Y-112321048D01*
X168041649Y-112260743D01*
X168196206Y-112230000D01*
X168353794Y-112230000D01*
X168508351Y-112260743D01*
G37*
G36*
X165968351Y-112260743D02*
G01*
X166113941Y-112321048D01*
X166244970Y-112408599D01*
X166356401Y-112520030D01*
X166443952Y-112651059D01*
X166504257Y-112796649D01*
X166535000Y-112951206D01*
X166535000Y-113108794D01*
X166504257Y-113263351D01*
X166443952Y-113408941D01*
X166356401Y-113539970D01*
X166244970Y-113651401D01*
X166113941Y-113738952D01*
X165968351Y-113799257D01*
X165813794Y-113830000D01*
X165656206Y-113830000D01*
X165501649Y-113799257D01*
X165356059Y-113738952D01*
X165225030Y-113651401D01*
X165113599Y-113539970D01*
X165026048Y-113408941D01*
X164965743Y-113263351D01*
X164935000Y-113108794D01*
X164935000Y-112951206D01*
X164965743Y-112796649D01*
X165026048Y-112651059D01*
X165113599Y-112520030D01*
X165225030Y-112408599D01*
X165356059Y-112321048D01*
X165501649Y-112260743D01*
X165656206Y-112230000D01*
X165813794Y-112230000D01*
X165968351Y-112260743D01*
G37*
G36*
X163428351Y-112260743D02*
G01*
X163573941Y-112321048D01*
X163704970Y-112408599D01*
X163816401Y-112520030D01*
X163903952Y-112651059D01*
X163964257Y-112796649D01*
X163995000Y-112951206D01*
X163995000Y-113108794D01*
X163964257Y-113263351D01*
X163903952Y-113408941D01*
X163816401Y-113539970D01*
X163704970Y-113651401D01*
X163573941Y-113738952D01*
X163428351Y-113799257D01*
X163273794Y-113830000D01*
X163116206Y-113830000D01*
X162961649Y-113799257D01*
X162816059Y-113738952D01*
X162685030Y-113651401D01*
X162573599Y-113539970D01*
X162486048Y-113408941D01*
X162425743Y-113263351D01*
X162395000Y-113108794D01*
X162395000Y-112951206D01*
X162425743Y-112796649D01*
X162486048Y-112651059D01*
X162573599Y-112520030D01*
X162685030Y-112408599D01*
X162816059Y-112321048D01*
X162961649Y-112260743D01*
X163116206Y-112230000D01*
X163273794Y-112230000D01*
X163428351Y-112260743D01*
G37*
G36*
X160888351Y-112260743D02*
G01*
X161033941Y-112321048D01*
X161164970Y-112408599D01*
X161276401Y-112520030D01*
X161363952Y-112651059D01*
X161424257Y-112796649D01*
X161455000Y-112951206D01*
X161455000Y-113108794D01*
X161424257Y-113263351D01*
X161363952Y-113408941D01*
X161276401Y-113539970D01*
X161164970Y-113651401D01*
X161033941Y-113738952D01*
X160888351Y-113799257D01*
X160733794Y-113830000D01*
X160576206Y-113830000D01*
X160421649Y-113799257D01*
X160276059Y-113738952D01*
X160145030Y-113651401D01*
X160033599Y-113539970D01*
X159946048Y-113408941D01*
X159885743Y-113263351D01*
X159855000Y-113108794D01*
X159855000Y-112951206D01*
X159885743Y-112796649D01*
X159946048Y-112651059D01*
X160033599Y-112520030D01*
X160145030Y-112408599D01*
X160276059Y-112321048D01*
X160421649Y-112260743D01*
X160576206Y-112230000D01*
X160733794Y-112230000D01*
X160888351Y-112260743D01*
G37*
G36*
X158348351Y-112260743D02*
G01*
X158493941Y-112321048D01*
X158624970Y-112408599D01*
X158736401Y-112520030D01*
X158823952Y-112651059D01*
X158884257Y-112796649D01*
X158915000Y-112951206D01*
X158915000Y-113108794D01*
X158884257Y-113263351D01*
X158823952Y-113408941D01*
X158736401Y-113539970D01*
X158624970Y-113651401D01*
X158493941Y-113738952D01*
X158348351Y-113799257D01*
X158193794Y-113830000D01*
X158036206Y-113830000D01*
X157881649Y-113799257D01*
X157736059Y-113738952D01*
X157605030Y-113651401D01*
X157493599Y-113539970D01*
X157406048Y-113408941D01*
X157345743Y-113263351D01*
X157315000Y-113108794D01*
X157315000Y-112951206D01*
X157345743Y-112796649D01*
X157406048Y-112651059D01*
X157493599Y-112520030D01*
X157605030Y-112408599D01*
X157736059Y-112321048D01*
X157881649Y-112260743D01*
X158036206Y-112230000D01*
X158193794Y-112230000D01*
X158348351Y-112260743D01*
G37*
G36*
X155808351Y-112260743D02*
G01*
X155953941Y-112321048D01*
X156084970Y-112408599D01*
X156196401Y-112520030D01*
X156283952Y-112651059D01*
X156344257Y-112796649D01*
X156375000Y-112951206D01*
X156375000Y-113108794D01*
X156344257Y-113263351D01*
X156283952Y-113408941D01*
X156196401Y-113539970D01*
X156084970Y-113651401D01*
X155953941Y-113738952D01*
X155808351Y-113799257D01*
X155653794Y-113830000D01*
X155496206Y-113830000D01*
X155341649Y-113799257D01*
X155196059Y-113738952D01*
X155065030Y-113651401D01*
X154953599Y-113539970D01*
X154866048Y-113408941D01*
X154805743Y-113263351D01*
X154775000Y-113108794D01*
X154775000Y-112951206D01*
X154805743Y-112796649D01*
X154866048Y-112651059D01*
X154953599Y-112520030D01*
X155065030Y-112408599D01*
X155196059Y-112321048D01*
X155341649Y-112260743D01*
X155496206Y-112230000D01*
X155653794Y-112230000D01*
X155808351Y-112260743D01*
G37*
G36*
X153268351Y-112260743D02*
G01*
X153413941Y-112321048D01*
X153544970Y-112408599D01*
X153656401Y-112520030D01*
X153743952Y-112651059D01*
X153804257Y-112796649D01*
X153835000Y-112951206D01*
X153835000Y-113108794D01*
X153804257Y-113263351D01*
X153743952Y-113408941D01*
X153656401Y-113539970D01*
X153544970Y-113651401D01*
X153413941Y-113738952D01*
X153268351Y-113799257D01*
X153113794Y-113830000D01*
X152956206Y-113830000D01*
X152801649Y-113799257D01*
X152656059Y-113738952D01*
X152525030Y-113651401D01*
X152413599Y-113539970D01*
X152326048Y-113408941D01*
X152265743Y-113263351D01*
X152235000Y-113108794D01*
X152235000Y-112951206D01*
X152265743Y-112796649D01*
X152326048Y-112651059D01*
X152413599Y-112520030D01*
X152525030Y-112408599D01*
X152656059Y-112321048D01*
X152801649Y-112260743D01*
X152956206Y-112230000D01*
X153113794Y-112230000D01*
X153268351Y-112260743D01*
G37*
G36*
X150728351Y-112260743D02*
G01*
X150873941Y-112321048D01*
X151004970Y-112408599D01*
X151116401Y-112520030D01*
X151203952Y-112651059D01*
X151264257Y-112796649D01*
X151295000Y-112951206D01*
X151295000Y-113108794D01*
X151264257Y-113263351D01*
X151203952Y-113408941D01*
X151116401Y-113539970D01*
X151004970Y-113651401D01*
X150873941Y-113738952D01*
X150728351Y-113799257D01*
X150573794Y-113830000D01*
X150416206Y-113830000D01*
X150261649Y-113799257D01*
X150116059Y-113738952D01*
X149985030Y-113651401D01*
X149873599Y-113539970D01*
X149786048Y-113408941D01*
X149725743Y-113263351D01*
X149695000Y-113108794D01*
X149695000Y-112951206D01*
X149725743Y-112796649D01*
X149786048Y-112651059D01*
X149873599Y-112520030D01*
X149985030Y-112408599D01*
X150116059Y-112321048D01*
X150261649Y-112260743D01*
X150416206Y-112230000D01*
X150573794Y-112230000D01*
X150728351Y-112260743D01*
G37*
G36*
X148188351Y-112260743D02*
G01*
X148333941Y-112321048D01*
X148464970Y-112408599D01*
X148576401Y-112520030D01*
X148663952Y-112651059D01*
X148724257Y-112796649D01*
X148755000Y-112951206D01*
X148755000Y-113108794D01*
X148724257Y-113263351D01*
X148663952Y-113408941D01*
X148576401Y-113539970D01*
X148464970Y-113651401D01*
X148333941Y-113738952D01*
X148188351Y-113799257D01*
X148033794Y-113830000D01*
X147876206Y-113830000D01*
X147721649Y-113799257D01*
X147576059Y-113738952D01*
X147445030Y-113651401D01*
X147333599Y-113539970D01*
X147246048Y-113408941D01*
X147185743Y-113263351D01*
X147155000Y-113108794D01*
X147155000Y-112951206D01*
X147185743Y-112796649D01*
X147246048Y-112651059D01*
X147333599Y-112520030D01*
X147445030Y-112408599D01*
X147576059Y-112321048D01*
X147721649Y-112260743D01*
X147876206Y-112230000D01*
X148033794Y-112230000D01*
X148188351Y-112260743D01*
G37*
G36*
X145648351Y-112260743D02*
G01*
X145793941Y-112321048D01*
X145924970Y-112408599D01*
X146036401Y-112520030D01*
X146123952Y-112651059D01*
X146184257Y-112796649D01*
X146215000Y-112951206D01*
X146215000Y-113108794D01*
X146184257Y-113263351D01*
X146123952Y-113408941D01*
X146036401Y-113539970D01*
X145924970Y-113651401D01*
X145793941Y-113738952D01*
X145648351Y-113799257D01*
X145493794Y-113830000D01*
X145336206Y-113830000D01*
X145181649Y-113799257D01*
X145036059Y-113738952D01*
X144905030Y-113651401D01*
X144793599Y-113539970D01*
X144706048Y-113408941D01*
X144645743Y-113263351D01*
X144615000Y-113108794D01*
X144615000Y-112951206D01*
X144645743Y-112796649D01*
X144706048Y-112651059D01*
X144793599Y-112520030D01*
X144905030Y-112408599D01*
X145036059Y-112321048D01*
X145181649Y-112260743D01*
X145336206Y-112230000D01*
X145493794Y-112230000D01*
X145648351Y-112260743D01*
G37*
G36*
X143108351Y-112260743D02*
G01*
X143253941Y-112321048D01*
X143384970Y-112408599D01*
X143496401Y-112520030D01*
X143583952Y-112651059D01*
X143644257Y-112796649D01*
X143675000Y-112951206D01*
X143675000Y-113108794D01*
X143644257Y-113263351D01*
X143583952Y-113408941D01*
X143496401Y-113539970D01*
X143384970Y-113651401D01*
X143253941Y-113738952D01*
X143108351Y-113799257D01*
X142953794Y-113830000D01*
X142796206Y-113830000D01*
X142641649Y-113799257D01*
X142496059Y-113738952D01*
X142365030Y-113651401D01*
X142253599Y-113539970D01*
X142166048Y-113408941D01*
X142105743Y-113263351D01*
X142075000Y-113108794D01*
X142075000Y-112951206D01*
X142105743Y-112796649D01*
X142166048Y-112651059D01*
X142253599Y-112520030D01*
X142365030Y-112408599D01*
X142496059Y-112321048D01*
X142641649Y-112260743D01*
X142796206Y-112230000D01*
X142953794Y-112230000D01*
X143108351Y-112260743D01*
G37*
G36*
X140568351Y-112260743D02*
G01*
X140713941Y-112321048D01*
X140844970Y-112408599D01*
X140956401Y-112520030D01*
X141043952Y-112651059D01*
X141104257Y-112796649D01*
X141135000Y-112951206D01*
X141135000Y-113108794D01*
X141104257Y-113263351D01*
X141043952Y-113408941D01*
X140956401Y-113539970D01*
X140844970Y-113651401D01*
X140713941Y-113738952D01*
X140568351Y-113799257D01*
X140413794Y-113830000D01*
X140256206Y-113830000D01*
X140101649Y-113799257D01*
X139956059Y-113738952D01*
X139825030Y-113651401D01*
X139713599Y-113539970D01*
X139626048Y-113408941D01*
X139565743Y-113263351D01*
X139535000Y-113108794D01*
X139535000Y-112951206D01*
X139565743Y-112796649D01*
X139626048Y-112651059D01*
X139713599Y-112520030D01*
X139825030Y-112408599D01*
X139956059Y-112321048D01*
X140101649Y-112260743D01*
X140256206Y-112230000D01*
X140413794Y-112230000D01*
X140568351Y-112260743D01*
G37*
G36*
X138028351Y-112260743D02*
G01*
X138173941Y-112321048D01*
X138304970Y-112408599D01*
X138416401Y-112520030D01*
X138503952Y-112651059D01*
X138564257Y-112796649D01*
X138595000Y-112951206D01*
X138595000Y-113108794D01*
X138564257Y-113263351D01*
X138503952Y-113408941D01*
X138416401Y-113539970D01*
X138304970Y-113651401D01*
X138173941Y-113738952D01*
X138028351Y-113799257D01*
X137873794Y-113830000D01*
X137716206Y-113830000D01*
X137561649Y-113799257D01*
X137416059Y-113738952D01*
X137285030Y-113651401D01*
X137173599Y-113539970D01*
X137086048Y-113408941D01*
X137025743Y-113263351D01*
X136995000Y-113108794D01*
X136995000Y-112951206D01*
X137025743Y-112796649D01*
X137086048Y-112651059D01*
X137173599Y-112520030D01*
X137285030Y-112408599D01*
X137416059Y-112321048D01*
X137561649Y-112260743D01*
X137716206Y-112230000D01*
X137873794Y-112230000D01*
X138028351Y-112260743D01*
G37*
G36*
X135488351Y-112260743D02*
G01*
X135633941Y-112321048D01*
X135764970Y-112408599D01*
X135876401Y-112520030D01*
X135963952Y-112651059D01*
X136024257Y-112796649D01*
X136055000Y-112951206D01*
X136055000Y-113108794D01*
X136024257Y-113263351D01*
X135963952Y-113408941D01*
X135876401Y-113539970D01*
X135764970Y-113651401D01*
X135633941Y-113738952D01*
X135488351Y-113799257D01*
X135333794Y-113830000D01*
X135176206Y-113830000D01*
X135021649Y-113799257D01*
X134876059Y-113738952D01*
X134745030Y-113651401D01*
X134633599Y-113539970D01*
X134546048Y-113408941D01*
X134485743Y-113263351D01*
X134455000Y-113108794D01*
X134455000Y-112951206D01*
X134485743Y-112796649D01*
X134546048Y-112651059D01*
X134633599Y-112520030D01*
X134745030Y-112408599D01*
X134876059Y-112321048D01*
X135021649Y-112260743D01*
X135176206Y-112230000D01*
X135333794Y-112230000D01*
X135488351Y-112260743D01*
G37*
G36*
X132948351Y-112260743D02*
G01*
X133093941Y-112321048D01*
X133224970Y-112408599D01*
X133336401Y-112520030D01*
X133423952Y-112651059D01*
X133484257Y-112796649D01*
X133515000Y-112951206D01*
X133515000Y-113108794D01*
X133484257Y-113263351D01*
X133423952Y-113408941D01*
X133336401Y-113539970D01*
X133224970Y-113651401D01*
X133093941Y-113738952D01*
X132948351Y-113799257D01*
X132793794Y-113830000D01*
X132636206Y-113830000D01*
X132481649Y-113799257D01*
X132336059Y-113738952D01*
X132205030Y-113651401D01*
X132093599Y-113539970D01*
X132006048Y-113408941D01*
X131945743Y-113263351D01*
X131915000Y-113108794D01*
X131915000Y-112951206D01*
X131945743Y-112796649D01*
X132006048Y-112651059D01*
X132093599Y-112520030D01*
X132205030Y-112408599D01*
X132336059Y-112321048D01*
X132481649Y-112260743D01*
X132636206Y-112230000D01*
X132793794Y-112230000D01*
X132948351Y-112260743D01*
G37*
G36*
X130408351Y-112260743D02*
G01*
X130553941Y-112321048D01*
X130684970Y-112408599D01*
X130796401Y-112520030D01*
X130883952Y-112651059D01*
X130944257Y-112796649D01*
X130975000Y-112951206D01*
X130975000Y-113108794D01*
X130944257Y-113263351D01*
X130883952Y-113408941D01*
X130796401Y-113539970D01*
X130684970Y-113651401D01*
X130553941Y-113738952D01*
X130408351Y-113799257D01*
X130253794Y-113830000D01*
X130096206Y-113830000D01*
X129941649Y-113799257D01*
X129796059Y-113738952D01*
X129665030Y-113651401D01*
X129553599Y-113539970D01*
X129466048Y-113408941D01*
X129405743Y-113263351D01*
X129375000Y-113108794D01*
X129375000Y-112951206D01*
X129405743Y-112796649D01*
X129466048Y-112651059D01*
X129553599Y-112520030D01*
X129665030Y-112408599D01*
X129796059Y-112321048D01*
X129941649Y-112260743D01*
X130096206Y-112230000D01*
X130253794Y-112230000D01*
X130408351Y-112260743D01*
G37*
G36*
X127868351Y-112260743D02*
G01*
X128013941Y-112321048D01*
X128144970Y-112408599D01*
X128256401Y-112520030D01*
X128343952Y-112651059D01*
X128404257Y-112796649D01*
X128435000Y-112951206D01*
X128435000Y-113108794D01*
X128404257Y-113263351D01*
X128343952Y-113408941D01*
X128256401Y-113539970D01*
X128144970Y-113651401D01*
X128013941Y-113738952D01*
X127868351Y-113799257D01*
X127713794Y-113830000D01*
X127556206Y-113830000D01*
X127401649Y-113799257D01*
X127256059Y-113738952D01*
X127125030Y-113651401D01*
X127013599Y-113539970D01*
X126926048Y-113408941D01*
X126865743Y-113263351D01*
X126835000Y-113108794D01*
X126835000Y-112951206D01*
X126865743Y-112796649D01*
X126926048Y-112651059D01*
X127013599Y-112520030D01*
X127125030Y-112408599D01*
X127256059Y-112321048D01*
X127401649Y-112260743D01*
X127556206Y-112230000D01*
X127713794Y-112230000D01*
X127868351Y-112260743D01*
G37*
G36*
X125328351Y-112260743D02*
G01*
X125473941Y-112321048D01*
X125604970Y-112408599D01*
X125716401Y-112520030D01*
X125803952Y-112651059D01*
X125864257Y-112796649D01*
X125895000Y-112951206D01*
X125895000Y-113108794D01*
X125864257Y-113263351D01*
X125803952Y-113408941D01*
X125716401Y-113539970D01*
X125604970Y-113651401D01*
X125473941Y-113738952D01*
X125328351Y-113799257D01*
X125173794Y-113830000D01*
X125016206Y-113830000D01*
X124861649Y-113799257D01*
X124716059Y-113738952D01*
X124585030Y-113651401D01*
X124473599Y-113539970D01*
X124386048Y-113408941D01*
X124325743Y-113263351D01*
X124295000Y-113108794D01*
X124295000Y-112951206D01*
X124325743Y-112796649D01*
X124386048Y-112651059D01*
X124473599Y-112520030D01*
X124585030Y-112408599D01*
X124716059Y-112321048D01*
X124861649Y-112260743D01*
X125016206Y-112230000D01*
X125173794Y-112230000D01*
X125328351Y-112260743D01*
G37*
G36*
X164418951Y-109466743D02*
G01*
X164564541Y-109527048D01*
X164695570Y-109614599D01*
X164807001Y-109726030D01*
X164894552Y-109857059D01*
X164954857Y-110002649D01*
X164985600Y-110157206D01*
X164985600Y-110314794D01*
X164954857Y-110469351D01*
X164894552Y-110614941D01*
X164807001Y-110745970D01*
X164695570Y-110857401D01*
X164564541Y-110944952D01*
X164418951Y-111005257D01*
X164264394Y-111036000D01*
X164106806Y-111036000D01*
X163952249Y-111005257D01*
X163806659Y-110944952D01*
X163675630Y-110857401D01*
X163564199Y-110745970D01*
X163476648Y-110614941D01*
X163416343Y-110469351D01*
X163385600Y-110314794D01*
X163385600Y-110157206D01*
X163416343Y-110002649D01*
X163476648Y-109857059D01*
X163564199Y-109726030D01*
X163675630Y-109614599D01*
X163806659Y-109527048D01*
X163952249Y-109466743D01*
X164106806Y-109436000D01*
X164264394Y-109436000D01*
X164418951Y-109466743D01*
G37*
G36*
X156798951Y-109466743D02*
G01*
X156944541Y-109527048D01*
X157075570Y-109614599D01*
X157187001Y-109726030D01*
X157274552Y-109857059D01*
X157334857Y-110002649D01*
X157365600Y-110157206D01*
X157365600Y-110314794D01*
X157334857Y-110469351D01*
X157274552Y-110614941D01*
X157187001Y-110745970D01*
X157075570Y-110857401D01*
X156944541Y-110944952D01*
X156798951Y-111005257D01*
X156644394Y-111036000D01*
X156486806Y-111036000D01*
X156332249Y-111005257D01*
X156186659Y-110944952D01*
X156055630Y-110857401D01*
X155944199Y-110745970D01*
X155856648Y-110614941D01*
X155796343Y-110469351D01*
X155765600Y-110314794D01*
X155765600Y-110157206D01*
X155796343Y-110002649D01*
X155856648Y-109857059D01*
X155944199Y-109726030D01*
X156055630Y-109614599D01*
X156186659Y-109527048D01*
X156332249Y-109466743D01*
X156486806Y-109436000D01*
X156644394Y-109436000D01*
X156798951Y-109466743D01*
G37*
G36*
X134700951Y-109466743D02*
G01*
X134846541Y-109527048D01*
X134977570Y-109614599D01*
X135089001Y-109726030D01*
X135176552Y-109857059D01*
X135236857Y-110002649D01*
X135267600Y-110157206D01*
X135267600Y-110314794D01*
X135236857Y-110469351D01*
X135176552Y-110614941D01*
X135089001Y-110745970D01*
X134977570Y-110857401D01*
X134846541Y-110944952D01*
X134700951Y-111005257D01*
X134546394Y-111036000D01*
X134388806Y-111036000D01*
X134234249Y-111005257D01*
X134088659Y-110944952D01*
X133957630Y-110857401D01*
X133846199Y-110745970D01*
X133758648Y-110614941D01*
X133698343Y-110469351D01*
X133667600Y-110314794D01*
X133667600Y-110157206D01*
X133698343Y-110002649D01*
X133758648Y-109857059D01*
X133846199Y-109726030D01*
X133957630Y-109614599D01*
X134088659Y-109527048D01*
X134234249Y-109466743D01*
X134388806Y-109436000D01*
X134546394Y-109436000D01*
X134700951Y-109466743D01*
G37*
G36*
X127080951Y-109466743D02*
G01*
X127226541Y-109527048D01*
X127357570Y-109614599D01*
X127469001Y-109726030D01*
X127556552Y-109857059D01*
X127616857Y-110002649D01*
X127647600Y-110157206D01*
X127647600Y-110314794D01*
X127616857Y-110469351D01*
X127556552Y-110614941D01*
X127469001Y-110745970D01*
X127357570Y-110857401D01*
X127226541Y-110944952D01*
X127080951Y-111005257D01*
X126926394Y-111036000D01*
X126768806Y-111036000D01*
X126614249Y-111005257D01*
X126468659Y-110944952D01*
X126337630Y-110857401D01*
X126226199Y-110745970D01*
X126138648Y-110614941D01*
X126078343Y-110469351D01*
X126047600Y-110314794D01*
X126047600Y-110157206D01*
X126078343Y-110002649D01*
X126138648Y-109857059D01*
X126226199Y-109726030D01*
X126337630Y-109614599D01*
X126468659Y-109527048D01*
X126614249Y-109466743D01*
X126768806Y-109436000D01*
X126926394Y-109436000D01*
X127080951Y-109466743D01*
G37*
G36*
X144606951Y-109466743D02*
G01*
X144752541Y-109527048D01*
X144883570Y-109614599D01*
X144995001Y-109726030D01*
X145082552Y-109857059D01*
X145142857Y-110002649D01*
X145173600Y-110157206D01*
X145173600Y-110314794D01*
X145142857Y-110469351D01*
X145082552Y-110614941D01*
X144995001Y-110745970D01*
X144883570Y-110857401D01*
X144752541Y-110944952D01*
X144606951Y-111005257D01*
X144452394Y-111036000D01*
X144294806Y-111036000D01*
X144140249Y-111005257D01*
X143994659Y-110944952D01*
X143863630Y-110857401D01*
X143752199Y-110745970D01*
X143664648Y-110614941D01*
X143604343Y-110469351D01*
X143573600Y-110314794D01*
X143573600Y-110157206D01*
X143604343Y-110002649D01*
X143664648Y-109857059D01*
X143752199Y-109726030D01*
X143863630Y-109614599D01*
X143994659Y-109527048D01*
X144140249Y-109466743D01*
X144294806Y-109436000D01*
X144452394Y-109436000D01*
X144606951Y-109466743D01*
G37*
G36*
X136986951Y-109466743D02*
G01*
X137132541Y-109527048D01*
X137263570Y-109614599D01*
X137375001Y-109726030D01*
X137462552Y-109857059D01*
X137522857Y-110002649D01*
X137553600Y-110157206D01*
X137553600Y-110314794D01*
X137522857Y-110469351D01*
X137462552Y-110614941D01*
X137375001Y-110745970D01*
X137263570Y-110857401D01*
X137132541Y-110944952D01*
X136986951Y-111005257D01*
X136832394Y-111036000D01*
X136674806Y-111036000D01*
X136520249Y-111005257D01*
X136374659Y-110944952D01*
X136243630Y-110857401D01*
X136132199Y-110745970D01*
X136044648Y-110614941D01*
X135984343Y-110469351D01*
X135953600Y-110314794D01*
X135953600Y-110157206D01*
X135984343Y-110002649D01*
X136044648Y-109857059D01*
X136132199Y-109726030D01*
X136243630Y-109614599D01*
X136374659Y-109527048D01*
X136520249Y-109466743D01*
X136674806Y-109436000D01*
X136832394Y-109436000D01*
X136986951Y-109466743D01*
G37*
G36*
X174324951Y-109466743D02*
G01*
X174470541Y-109527048D01*
X174601570Y-109614599D01*
X174713001Y-109726030D01*
X174800552Y-109857059D01*
X174860857Y-110002649D01*
X174891600Y-110157206D01*
X174891600Y-110314794D01*
X174860857Y-110469351D01*
X174800552Y-110614941D01*
X174713001Y-110745970D01*
X174601570Y-110857401D01*
X174470541Y-110944952D01*
X174324951Y-111005257D01*
X174170394Y-111036000D01*
X174012806Y-111036000D01*
X173858249Y-111005257D01*
X173712659Y-110944952D01*
X173581630Y-110857401D01*
X173470199Y-110745970D01*
X173382648Y-110614941D01*
X173322343Y-110469351D01*
X173291600Y-110314794D01*
X173291600Y-110157206D01*
X173322343Y-110002649D01*
X173382648Y-109857059D01*
X173470199Y-109726030D01*
X173581630Y-109614599D01*
X173712659Y-109527048D01*
X173858249Y-109466743D01*
X174012806Y-109436000D01*
X174170394Y-109436000D01*
X174324951Y-109466743D01*
G37*
G36*
X166704951Y-109466743D02*
G01*
X166850541Y-109527048D01*
X166981570Y-109614599D01*
X167093001Y-109726030D01*
X167180552Y-109857059D01*
X167240857Y-110002649D01*
X167271600Y-110157206D01*
X167271600Y-110314794D01*
X167240857Y-110469351D01*
X167180552Y-110614941D01*
X167093001Y-110745970D01*
X166981570Y-110857401D01*
X166850541Y-110944952D01*
X166704951Y-111005257D01*
X166550394Y-111036000D01*
X166392806Y-111036000D01*
X166238249Y-111005257D01*
X166092659Y-110944952D01*
X165961630Y-110857401D01*
X165850199Y-110745970D01*
X165762648Y-110614941D01*
X165702343Y-110469351D01*
X165671600Y-110314794D01*
X165671600Y-110157206D01*
X165702343Y-110002649D01*
X165762648Y-109857059D01*
X165850199Y-109726030D01*
X165961630Y-109614599D01*
X166092659Y-109527048D01*
X166238249Y-109466743D01*
X166392806Y-109436000D01*
X166550394Y-109436000D01*
X166704951Y-109466743D01*
G37*
G36*
X154512951Y-109466743D02*
G01*
X154658541Y-109527048D01*
X154789570Y-109614599D01*
X154901001Y-109726030D01*
X154988552Y-109857059D01*
X155048857Y-110002649D01*
X155079600Y-110157206D01*
X155079600Y-110314794D01*
X155048857Y-110469351D01*
X154988552Y-110614941D01*
X154901001Y-110745970D01*
X154789570Y-110857401D01*
X154658541Y-110944952D01*
X154512951Y-111005257D01*
X154358394Y-111036000D01*
X154200806Y-111036000D01*
X154046249Y-111005257D01*
X153900659Y-110944952D01*
X153769630Y-110857401D01*
X153658199Y-110745970D01*
X153570648Y-110614941D01*
X153510343Y-110469351D01*
X153479600Y-110314794D01*
X153479600Y-110157206D01*
X153510343Y-110002649D01*
X153570648Y-109857059D01*
X153658199Y-109726030D01*
X153769630Y-109614599D01*
X153900659Y-109527048D01*
X154046249Y-109466743D01*
X154200806Y-109436000D01*
X154358394Y-109436000D01*
X154512951Y-109466743D01*
G37*
G36*
X146892951Y-109466743D02*
G01*
X147038541Y-109527048D01*
X147169570Y-109614599D01*
X147281001Y-109726030D01*
X147368552Y-109857059D01*
X147428857Y-110002649D01*
X147459600Y-110157206D01*
X147459600Y-110314794D01*
X147428857Y-110469351D01*
X147368552Y-110614941D01*
X147281001Y-110745970D01*
X147169570Y-110857401D01*
X147038541Y-110944952D01*
X146892951Y-111005257D01*
X146738394Y-111036000D01*
X146580806Y-111036000D01*
X146426249Y-111005257D01*
X146280659Y-110944952D01*
X146149630Y-110857401D01*
X146038199Y-110745970D01*
X145950648Y-110614941D01*
X145890343Y-110469351D01*
X145859600Y-110314794D01*
X145859600Y-110157206D01*
X145890343Y-110002649D01*
X145950648Y-109857059D01*
X146038199Y-109726030D01*
X146149630Y-109614599D01*
X146280659Y-109527048D01*
X146426249Y-109466743D01*
X146580806Y-109436000D01*
X146738394Y-109436000D01*
X146892951Y-109466743D01*
G37*
G36*
X121983500Y-109766100D02*
G01*
X119951500Y-109766100D01*
X119951500Y-108038900D01*
X121983500Y-108038900D01*
X121983500Y-109766100D01*
G37*
G36*
X149445903Y-105862427D02*
G01*
X149603068Y-105927527D01*
X149744513Y-106022038D01*
X149864802Y-106142327D01*
X149959313Y-106283772D01*
X150024413Y-106440937D01*
X150057600Y-106607783D01*
X150057600Y-106777897D01*
X150024413Y-106944743D01*
X149959313Y-107101908D01*
X149864802Y-107243353D01*
X149744513Y-107363642D01*
X149603068Y-107458153D01*
X149445903Y-107523253D01*
X149279057Y-107556440D01*
X149108943Y-107556440D01*
X148942097Y-107523253D01*
X148784932Y-107458153D01*
X148643487Y-107363642D01*
X148523198Y-107243353D01*
X148428687Y-107101908D01*
X148363587Y-106944743D01*
X148330400Y-106777897D01*
X148330400Y-106607783D01*
X148363587Y-106440937D01*
X148428687Y-106283772D01*
X148523198Y-106142327D01*
X148643487Y-106022038D01*
X148784932Y-105927527D01*
X148942097Y-105862427D01*
X149108943Y-105829240D01*
X149279057Y-105829240D01*
X149445903Y-105862427D01*
G37*
G36*
X144365903Y-105862427D02*
G01*
X144523068Y-105927527D01*
X144664513Y-106022038D01*
X144784802Y-106142327D01*
X144879313Y-106283772D01*
X144944413Y-106440937D01*
X144977600Y-106607783D01*
X144977600Y-106777897D01*
X144944413Y-106944743D01*
X144879313Y-107101908D01*
X144784802Y-107243353D01*
X144664513Y-107363642D01*
X144523068Y-107458153D01*
X144365903Y-107523253D01*
X144199057Y-107556440D01*
X144028943Y-107556440D01*
X143862097Y-107523253D01*
X143704932Y-107458153D01*
X143563487Y-107363642D01*
X143443198Y-107243353D01*
X143348687Y-107101908D01*
X143283587Y-106944743D01*
X143250400Y-106777897D01*
X143250400Y-106607783D01*
X143283587Y-106440937D01*
X143348687Y-106283772D01*
X143443198Y-106142327D01*
X143563487Y-106022038D01*
X143704932Y-105927527D01*
X143862097Y-105862427D01*
X144028943Y-105829240D01*
X144199057Y-105829240D01*
X144365903Y-105862427D01*
G37*
G36*
X141825903Y-105862427D02*
G01*
X141983068Y-105927527D01*
X142124513Y-106022038D01*
X142244802Y-106142327D01*
X142339313Y-106283772D01*
X142404413Y-106440937D01*
X142437600Y-106607783D01*
X142437600Y-106777897D01*
X142404413Y-106944743D01*
X142339313Y-107101908D01*
X142244802Y-107243353D01*
X142124513Y-107363642D01*
X141983068Y-107458153D01*
X141825903Y-107523253D01*
X141659057Y-107556440D01*
X141488943Y-107556440D01*
X141322097Y-107523253D01*
X141164932Y-107458153D01*
X141023487Y-107363642D01*
X140903198Y-107243353D01*
X140808687Y-107101908D01*
X140743587Y-106944743D01*
X140710400Y-106777897D01*
X140710400Y-106607783D01*
X140743587Y-106440937D01*
X140808687Y-106283772D01*
X140903198Y-106142327D01*
X141023487Y-106022038D01*
X141164932Y-105927527D01*
X141322097Y-105862427D01*
X141488943Y-105829240D01*
X141659057Y-105829240D01*
X141825903Y-105862427D01*
G37*
G36*
X139285903Y-105862427D02*
G01*
X139443068Y-105927527D01*
X139584513Y-106022038D01*
X139704802Y-106142327D01*
X139799313Y-106283772D01*
X139864413Y-106440937D01*
X139897600Y-106607783D01*
X139897600Y-106777897D01*
X139864413Y-106944743D01*
X139799313Y-107101908D01*
X139704802Y-107243353D01*
X139584513Y-107363642D01*
X139443068Y-107458153D01*
X139285903Y-107523253D01*
X139119057Y-107556440D01*
X138948943Y-107556440D01*
X138782097Y-107523253D01*
X138624932Y-107458153D01*
X138483487Y-107363642D01*
X138363198Y-107243353D01*
X138268687Y-107101908D01*
X138203587Y-106944743D01*
X138170400Y-106777897D01*
X138170400Y-106607783D01*
X138203587Y-106440937D01*
X138268687Y-106283772D01*
X138363198Y-106142327D01*
X138483487Y-106022038D01*
X138624932Y-105927527D01*
X138782097Y-105862427D01*
X138948943Y-105829240D01*
X139119057Y-105829240D01*
X139285903Y-105862427D01*
G37*
G36*
X136745903Y-105862427D02*
G01*
X136903068Y-105927527D01*
X137044513Y-106022038D01*
X137164802Y-106142327D01*
X137259313Y-106283772D01*
X137324413Y-106440937D01*
X137357600Y-106607783D01*
X137357600Y-106777897D01*
X137324413Y-106944743D01*
X137259313Y-107101908D01*
X137164802Y-107243353D01*
X137044513Y-107363642D01*
X136903068Y-107458153D01*
X136745903Y-107523253D01*
X136579057Y-107556440D01*
X136408943Y-107556440D01*
X136242097Y-107523253D01*
X136084932Y-107458153D01*
X135943487Y-107363642D01*
X135823198Y-107243353D01*
X135728687Y-107101908D01*
X135663587Y-106944743D01*
X135630400Y-106777897D01*
X135630400Y-106607783D01*
X135663587Y-106440937D01*
X135728687Y-106283772D01*
X135823198Y-106142327D01*
X135943487Y-106022038D01*
X136084932Y-105927527D01*
X136242097Y-105862427D01*
X136408943Y-105829240D01*
X136579057Y-105829240D01*
X136745903Y-105862427D01*
G37*
G36*
X134205903Y-105862427D02*
G01*
X134363068Y-105927527D01*
X134504513Y-106022038D01*
X134624802Y-106142327D01*
X134719313Y-106283772D01*
X134784413Y-106440937D01*
X134817600Y-106607783D01*
X134817600Y-106777897D01*
X134784413Y-106944743D01*
X134719313Y-107101908D01*
X134624802Y-107243353D01*
X134504513Y-107363642D01*
X134363068Y-107458153D01*
X134205903Y-107523253D01*
X134039057Y-107556440D01*
X133868943Y-107556440D01*
X133702097Y-107523253D01*
X133544932Y-107458153D01*
X133403487Y-107363642D01*
X133283198Y-107243353D01*
X133188687Y-107101908D01*
X133123587Y-106944743D01*
X133090400Y-106777897D01*
X133090400Y-106607783D01*
X133123587Y-106440937D01*
X133188687Y-106283772D01*
X133283198Y-106142327D01*
X133403487Y-106022038D01*
X133544932Y-105927527D01*
X133702097Y-105862427D01*
X133868943Y-105829240D01*
X134039057Y-105829240D01*
X134205903Y-105862427D01*
G37*
G36*
X131665903Y-105862427D02*
G01*
X131823068Y-105927527D01*
X131964513Y-106022038D01*
X132084802Y-106142327D01*
X132179313Y-106283772D01*
X132244413Y-106440937D01*
X132277600Y-106607783D01*
X132277600Y-106777897D01*
X132244413Y-106944743D01*
X132179313Y-107101908D01*
X132084802Y-107243353D01*
X131964513Y-107363642D01*
X131823068Y-107458153D01*
X131665903Y-107523253D01*
X131499057Y-107556440D01*
X131328943Y-107556440D01*
X131162097Y-107523253D01*
X131004932Y-107458153D01*
X130863487Y-107363642D01*
X130743198Y-107243353D01*
X130648687Y-107101908D01*
X130583587Y-106944743D01*
X130550400Y-106777897D01*
X130550400Y-106607783D01*
X130583587Y-106440937D01*
X130648687Y-106283772D01*
X130743198Y-106142327D01*
X130863487Y-106022038D01*
X131004932Y-105927527D01*
X131162097Y-105862427D01*
X131328943Y-105829240D01*
X131499057Y-105829240D01*
X131665903Y-105862427D01*
G37*
G36*
X129125903Y-105862427D02*
G01*
X129283068Y-105927527D01*
X129424513Y-106022038D01*
X129544802Y-106142327D01*
X129639313Y-106283772D01*
X129704413Y-106440937D01*
X129737600Y-106607783D01*
X129737600Y-106777897D01*
X129704413Y-106944743D01*
X129639313Y-107101908D01*
X129544802Y-107243353D01*
X129424513Y-107363642D01*
X129283068Y-107458153D01*
X129125903Y-107523253D01*
X128959057Y-107556440D01*
X128788943Y-107556440D01*
X128622097Y-107523253D01*
X128464932Y-107458153D01*
X128323487Y-107363642D01*
X128203198Y-107243353D01*
X128108687Y-107101908D01*
X128043587Y-106944743D01*
X128010400Y-106777897D01*
X128010400Y-106607783D01*
X128043587Y-106440937D01*
X128108687Y-106283772D01*
X128203198Y-106142327D01*
X128323487Y-106022038D01*
X128464932Y-105927527D01*
X128622097Y-105862427D01*
X128788943Y-105829240D01*
X128959057Y-105829240D01*
X129125903Y-105862427D01*
G37*
G36*
X151985903Y-105862427D02*
G01*
X152143068Y-105927527D01*
X152284513Y-106022038D01*
X152404802Y-106142327D01*
X152499313Y-106283772D01*
X152564413Y-106440937D01*
X152597600Y-106607783D01*
X152597600Y-106777897D01*
X152564413Y-106944743D01*
X152499313Y-107101908D01*
X152404802Y-107243353D01*
X152284513Y-107363642D01*
X152143068Y-107458153D01*
X151985903Y-107523253D01*
X151819057Y-107556440D01*
X151648943Y-107556440D01*
X151482097Y-107523253D01*
X151324932Y-107458153D01*
X151183487Y-107363642D01*
X151063198Y-107243353D01*
X150968687Y-107101908D01*
X150903587Y-106944743D01*
X150870400Y-106777897D01*
X150870400Y-106607783D01*
X150903587Y-106440937D01*
X150968687Y-106283772D01*
X151063198Y-106142327D01*
X151183487Y-106022038D01*
X151324932Y-105927527D01*
X151482097Y-105862427D01*
X151648943Y-105829240D01*
X151819057Y-105829240D01*
X151985903Y-105862427D01*
G37*
G36*
X146905903Y-105862427D02*
G01*
X147063068Y-105927527D01*
X147204513Y-106022038D01*
X147324802Y-106142327D01*
X147419313Y-106283772D01*
X147484413Y-106440937D01*
X147517600Y-106607783D01*
X147517600Y-106777897D01*
X147484413Y-106944743D01*
X147419313Y-107101908D01*
X147324802Y-107243353D01*
X147204513Y-107363642D01*
X147063068Y-107458153D01*
X146905903Y-107523253D01*
X146739057Y-107556440D01*
X146568943Y-107556440D01*
X146402097Y-107523253D01*
X146244932Y-107458153D01*
X146103487Y-107363642D01*
X145983198Y-107243353D01*
X145888687Y-107101908D01*
X145823587Y-106944743D01*
X145790400Y-106777897D01*
X145790400Y-106607783D01*
X145823587Y-106440937D01*
X145888687Y-106283772D01*
X145983198Y-106142327D01*
X146103487Y-106022038D01*
X146244932Y-105927527D01*
X146402097Y-105862427D01*
X146568943Y-105829240D01*
X146739057Y-105829240D01*
X146905903Y-105862427D01*
G37*
G36*
X154525903Y-105862427D02*
G01*
X154683068Y-105927527D01*
X154824513Y-106022038D01*
X154944802Y-106142327D01*
X155039313Y-106283772D01*
X155104413Y-106440937D01*
X155137600Y-106607783D01*
X155137600Y-106777897D01*
X155104413Y-106944743D01*
X155039313Y-107101908D01*
X154944802Y-107243353D01*
X154824513Y-107363642D01*
X154683068Y-107458153D01*
X154525903Y-107523253D01*
X154359057Y-107556440D01*
X154188943Y-107556440D01*
X154022097Y-107523253D01*
X153864932Y-107458153D01*
X153723487Y-107363642D01*
X153603198Y-107243353D01*
X153508687Y-107101908D01*
X153443587Y-106944743D01*
X153410400Y-106777897D01*
X153410400Y-106607783D01*
X153443587Y-106440937D01*
X153508687Y-106283772D01*
X153603198Y-106142327D01*
X153723487Y-106022038D01*
X153864932Y-105927527D01*
X154022097Y-105862427D01*
X154188943Y-105829240D01*
X154359057Y-105829240D01*
X154525903Y-105862427D01*
G37*
G36*
X157065903Y-105862427D02*
G01*
X157223068Y-105927527D01*
X157364513Y-106022038D01*
X157484802Y-106142327D01*
X157579313Y-106283772D01*
X157644413Y-106440937D01*
X157677600Y-106607783D01*
X157677600Y-106777897D01*
X157644413Y-106944743D01*
X157579313Y-107101908D01*
X157484802Y-107243353D01*
X157364513Y-107363642D01*
X157223068Y-107458153D01*
X157065903Y-107523253D01*
X156899057Y-107556440D01*
X156728943Y-107556440D01*
X156562097Y-107523253D01*
X156404932Y-107458153D01*
X156263487Y-107363642D01*
X156143198Y-107243353D01*
X156048687Y-107101908D01*
X155983587Y-106944743D01*
X155950400Y-106777897D01*
X155950400Y-106607783D01*
X155983587Y-106440937D01*
X156048687Y-106283772D01*
X156143198Y-106142327D01*
X156263487Y-106022038D01*
X156404932Y-105927527D01*
X156562097Y-105862427D01*
X156728943Y-105829240D01*
X156899057Y-105829240D01*
X157065903Y-105862427D01*
G37*
G36*
X159605903Y-105862427D02*
G01*
X159763068Y-105927527D01*
X159904513Y-106022038D01*
X160024802Y-106142327D01*
X160119313Y-106283772D01*
X160184413Y-106440937D01*
X160217600Y-106607783D01*
X160217600Y-106777897D01*
X160184413Y-106944743D01*
X160119313Y-107101908D01*
X160024802Y-107243353D01*
X159904513Y-107363642D01*
X159763068Y-107458153D01*
X159605903Y-107523253D01*
X159439057Y-107556440D01*
X159268943Y-107556440D01*
X159102097Y-107523253D01*
X158944932Y-107458153D01*
X158803487Y-107363642D01*
X158683198Y-107243353D01*
X158588687Y-107101908D01*
X158523587Y-106944743D01*
X158490400Y-106777897D01*
X158490400Y-106607783D01*
X158523587Y-106440937D01*
X158588687Y-106283772D01*
X158683198Y-106142327D01*
X158803487Y-106022038D01*
X158944932Y-105927527D01*
X159102097Y-105862427D01*
X159268943Y-105829240D01*
X159439057Y-105829240D01*
X159605903Y-105862427D01*
G37*
G36*
X162145903Y-105862427D02*
G01*
X162303068Y-105927527D01*
X162444513Y-106022038D01*
X162564802Y-106142327D01*
X162659313Y-106283772D01*
X162724413Y-106440937D01*
X162757600Y-106607783D01*
X162757600Y-106777897D01*
X162724413Y-106944743D01*
X162659313Y-107101908D01*
X162564802Y-107243353D01*
X162444513Y-107363642D01*
X162303068Y-107458153D01*
X162145903Y-107523253D01*
X161979057Y-107556440D01*
X161808943Y-107556440D01*
X161642097Y-107523253D01*
X161484932Y-107458153D01*
X161343487Y-107363642D01*
X161223198Y-107243353D01*
X161128687Y-107101908D01*
X161063587Y-106944743D01*
X161030400Y-106777897D01*
X161030400Y-106607783D01*
X161063587Y-106440937D01*
X161128687Y-106283772D01*
X161223198Y-106142327D01*
X161343487Y-106022038D01*
X161484932Y-105927527D01*
X161642097Y-105862427D01*
X161808943Y-105829240D01*
X161979057Y-105829240D01*
X162145903Y-105862427D01*
G37*
G36*
X164685903Y-105862427D02*
G01*
X164843068Y-105927527D01*
X164984513Y-106022038D01*
X165104802Y-106142327D01*
X165199313Y-106283772D01*
X165264413Y-106440937D01*
X165297600Y-106607783D01*
X165297600Y-106777897D01*
X165264413Y-106944743D01*
X165199313Y-107101908D01*
X165104802Y-107243353D01*
X164984513Y-107363642D01*
X164843068Y-107458153D01*
X164685903Y-107523253D01*
X164519057Y-107556440D01*
X164348943Y-107556440D01*
X164182097Y-107523253D01*
X164024932Y-107458153D01*
X163883487Y-107363642D01*
X163763198Y-107243353D01*
X163668687Y-107101908D01*
X163603587Y-106944743D01*
X163570400Y-106777897D01*
X163570400Y-106607783D01*
X163603587Y-106440937D01*
X163668687Y-106283772D01*
X163763198Y-106142327D01*
X163883487Y-106022038D01*
X164024932Y-105927527D01*
X164182097Y-105862427D01*
X164348943Y-105829240D01*
X164519057Y-105829240D01*
X164685903Y-105862427D01*
G37*
G36*
X167225903Y-105862427D02*
G01*
X167383068Y-105927527D01*
X167524513Y-106022038D01*
X167644802Y-106142327D01*
X167739313Y-106283772D01*
X167804413Y-106440937D01*
X167837600Y-106607783D01*
X167837600Y-106777897D01*
X167804413Y-106944743D01*
X167739313Y-107101908D01*
X167644802Y-107243353D01*
X167524513Y-107363642D01*
X167383068Y-107458153D01*
X167225903Y-107523253D01*
X167059057Y-107556440D01*
X166888943Y-107556440D01*
X166722097Y-107523253D01*
X166564932Y-107458153D01*
X166423487Y-107363642D01*
X166303198Y-107243353D01*
X166208687Y-107101908D01*
X166143587Y-106944743D01*
X166110400Y-106777897D01*
X166110400Y-106607783D01*
X166143587Y-106440937D01*
X166208687Y-106283772D01*
X166303198Y-106142327D01*
X166423487Y-106022038D01*
X166564932Y-105927527D01*
X166722097Y-105862427D01*
X166888943Y-105829240D01*
X167059057Y-105829240D01*
X167225903Y-105862427D01*
G37*
G36*
X170377600Y-107556440D02*
G01*
X168650400Y-107556440D01*
X168650400Y-105829240D01*
X170377600Y-105829240D01*
X170377600Y-107556440D01*
G37*
G36*
X121204612Y-105503065D02*
G01*
X121289195Y-105511396D01*
X121451984Y-105560778D01*
X121451987Y-105560779D01*
X121602007Y-105640966D01*
X121602008Y-105640967D01*
X121602012Y-105640969D01*
X121733512Y-105748888D01*
X121841431Y-105880388D01*
X121841433Y-105880392D01*
X121841434Y-105880393D01*
X121921621Y-106030413D01*
X121921622Y-106030416D01*
X121971004Y-106193205D01*
X121987678Y-106362500D01*
X121971004Y-106531795D01*
X121947953Y-106607783D01*
X121921621Y-106694587D01*
X121877091Y-106777897D01*
X121841431Y-106844612D01*
X121733512Y-106976112D01*
X121602012Y-107084031D01*
X121602008Y-107084033D01*
X121602007Y-107084034D01*
X121451987Y-107164221D01*
X121451984Y-107164222D01*
X121289195Y-107213604D01*
X121204612Y-107221935D01*
X121162321Y-107226100D01*
X120772679Y-107226100D01*
X120730388Y-107221935D01*
X120645805Y-107213604D01*
X120483016Y-107164222D01*
X120483013Y-107164221D01*
X120332993Y-107084034D01*
X120332992Y-107084033D01*
X120332988Y-107084031D01*
X120201488Y-106976112D01*
X120093569Y-106844612D01*
X120057909Y-106777897D01*
X120013379Y-106694587D01*
X119987047Y-106607783D01*
X119963996Y-106531795D01*
X119947322Y-106362500D01*
X119963996Y-106193205D01*
X120013378Y-106030416D01*
X120013379Y-106030413D01*
X120093566Y-105880393D01*
X120093567Y-105880392D01*
X120093569Y-105880388D01*
X120201488Y-105748888D01*
X120332988Y-105640969D01*
X120332992Y-105640967D01*
X120332993Y-105640966D01*
X120483013Y-105560779D01*
X120483016Y-105560778D01*
X120645805Y-105511396D01*
X120730388Y-105503065D01*
X120772679Y-105498900D01*
X121162321Y-105498900D01*
X121204612Y-105503065D01*
G37*
G36*
X144365903Y-103322427D02*
G01*
X144523068Y-103387527D01*
X144664513Y-103482038D01*
X144784802Y-103602327D01*
X144879313Y-103743772D01*
X144944413Y-103900937D01*
X144977600Y-104067783D01*
X144977600Y-104237897D01*
X144944413Y-104404743D01*
X144879313Y-104561908D01*
X144784802Y-104703353D01*
X144664513Y-104823642D01*
X144523068Y-104918153D01*
X144365903Y-104983253D01*
X144199057Y-105016440D01*
X144028943Y-105016440D01*
X143862097Y-104983253D01*
X143704932Y-104918153D01*
X143563487Y-104823642D01*
X143443198Y-104703353D01*
X143348687Y-104561908D01*
X143283587Y-104404743D01*
X143250400Y-104237897D01*
X143250400Y-104067783D01*
X143283587Y-103900937D01*
X143348687Y-103743772D01*
X143443198Y-103602327D01*
X143563487Y-103482038D01*
X143704932Y-103387527D01*
X143862097Y-103322427D01*
X144028943Y-103289240D01*
X144199057Y-103289240D01*
X144365903Y-103322427D01*
G37*
G36*
X164685903Y-103322427D02*
G01*
X164843068Y-103387527D01*
X164984513Y-103482038D01*
X165104802Y-103602327D01*
X165199313Y-103743772D01*
X165264413Y-103900937D01*
X165297600Y-104067783D01*
X165297600Y-104237897D01*
X165264413Y-104404743D01*
X165199313Y-104561908D01*
X165104802Y-104703353D01*
X164984513Y-104823642D01*
X164843068Y-104918153D01*
X164685903Y-104983253D01*
X164519057Y-105016440D01*
X164348943Y-105016440D01*
X164182097Y-104983253D01*
X164024932Y-104918153D01*
X163883487Y-104823642D01*
X163763198Y-104703353D01*
X163668687Y-104561908D01*
X163603587Y-104404743D01*
X163570400Y-104237897D01*
X163570400Y-104067783D01*
X163603587Y-103900937D01*
X163668687Y-103743772D01*
X163763198Y-103602327D01*
X163883487Y-103482038D01*
X164024932Y-103387527D01*
X164182097Y-103322427D01*
X164348943Y-103289240D01*
X164519057Y-103289240D01*
X164685903Y-103322427D01*
G37*
G36*
X134205903Y-103322427D02*
G01*
X134363068Y-103387527D01*
X134504513Y-103482038D01*
X134624802Y-103602327D01*
X134719313Y-103743772D01*
X134784413Y-103900937D01*
X134817600Y-104067783D01*
X134817600Y-104237897D01*
X134784413Y-104404743D01*
X134719313Y-104561908D01*
X134624802Y-104703353D01*
X134504513Y-104823642D01*
X134363068Y-104918153D01*
X134205903Y-104983253D01*
X134039057Y-105016440D01*
X133868943Y-105016440D01*
X133702097Y-104983253D01*
X133544932Y-104918153D01*
X133403487Y-104823642D01*
X133283198Y-104703353D01*
X133188687Y-104561908D01*
X133123587Y-104404743D01*
X133090400Y-104237897D01*
X133090400Y-104067783D01*
X133123587Y-103900937D01*
X133188687Y-103743772D01*
X133283198Y-103602327D01*
X133403487Y-103482038D01*
X133544932Y-103387527D01*
X133702097Y-103322427D01*
X133868943Y-103289240D01*
X134039057Y-103289240D01*
X134205903Y-103322427D01*
G37*
G36*
X131665903Y-103322427D02*
G01*
X131823068Y-103387527D01*
X131964513Y-103482038D01*
X132084802Y-103602327D01*
X132179313Y-103743772D01*
X132244413Y-103900937D01*
X132277600Y-104067783D01*
X132277600Y-104237897D01*
X132244413Y-104404743D01*
X132179313Y-104561908D01*
X132084802Y-104703353D01*
X131964513Y-104823642D01*
X131823068Y-104918153D01*
X131665903Y-104983253D01*
X131499057Y-105016440D01*
X131328943Y-105016440D01*
X131162097Y-104983253D01*
X131004932Y-104918153D01*
X130863487Y-104823642D01*
X130743198Y-104703353D01*
X130648687Y-104561908D01*
X130583587Y-104404743D01*
X130550400Y-104237897D01*
X130550400Y-104067783D01*
X130583587Y-103900937D01*
X130648687Y-103743772D01*
X130743198Y-103602327D01*
X130863487Y-103482038D01*
X131004932Y-103387527D01*
X131162097Y-103322427D01*
X131328943Y-103289240D01*
X131499057Y-103289240D01*
X131665903Y-103322427D01*
G37*
G36*
X129125903Y-103322427D02*
G01*
X129283068Y-103387527D01*
X129424513Y-103482038D01*
X129544802Y-103602327D01*
X129639313Y-103743772D01*
X129704413Y-103900937D01*
X129737600Y-104067783D01*
X129737600Y-104237897D01*
X129704413Y-104404743D01*
X129639313Y-104561908D01*
X129544802Y-104703353D01*
X129424513Y-104823642D01*
X129283068Y-104918153D01*
X129125903Y-104983253D01*
X128959057Y-105016440D01*
X128788943Y-105016440D01*
X128622097Y-104983253D01*
X128464932Y-104918153D01*
X128323487Y-104823642D01*
X128203198Y-104703353D01*
X128108687Y-104561908D01*
X128043587Y-104404743D01*
X128010400Y-104237897D01*
X128010400Y-104067783D01*
X128043587Y-103900937D01*
X128108687Y-103743772D01*
X128203198Y-103602327D01*
X128323487Y-103482038D01*
X128464932Y-103387527D01*
X128622097Y-103322427D01*
X128788943Y-103289240D01*
X128959057Y-103289240D01*
X129125903Y-103322427D01*
G37*
G36*
X167225903Y-103322427D02*
G01*
X167383068Y-103387527D01*
X167524513Y-103482038D01*
X167644802Y-103602327D01*
X167739313Y-103743772D01*
X167804413Y-103900937D01*
X167837600Y-104067783D01*
X167837600Y-104237897D01*
X167804413Y-104404743D01*
X167739313Y-104561908D01*
X167644802Y-104703353D01*
X167524513Y-104823642D01*
X167383068Y-104918153D01*
X167225903Y-104983253D01*
X167059057Y-105016440D01*
X166888943Y-105016440D01*
X166722097Y-104983253D01*
X166564932Y-104918153D01*
X166423487Y-104823642D01*
X166303198Y-104703353D01*
X166208687Y-104561908D01*
X166143587Y-104404743D01*
X166110400Y-104237897D01*
X166110400Y-104067783D01*
X166143587Y-103900937D01*
X166208687Y-103743772D01*
X166303198Y-103602327D01*
X166423487Y-103482038D01*
X166564932Y-103387527D01*
X166722097Y-103322427D01*
X166888943Y-103289240D01*
X167059057Y-103289240D01*
X167225903Y-103322427D01*
G37*
G36*
X162145903Y-103322427D02*
G01*
X162303068Y-103387527D01*
X162444513Y-103482038D01*
X162564802Y-103602327D01*
X162659313Y-103743772D01*
X162724413Y-103900937D01*
X162757600Y-104067783D01*
X162757600Y-104237897D01*
X162724413Y-104404743D01*
X162659313Y-104561908D01*
X162564802Y-104703353D01*
X162444513Y-104823642D01*
X162303068Y-104918153D01*
X162145903Y-104983253D01*
X161979057Y-105016440D01*
X161808943Y-105016440D01*
X161642097Y-104983253D01*
X161484932Y-104918153D01*
X161343487Y-104823642D01*
X161223198Y-104703353D01*
X161128687Y-104561908D01*
X161063587Y-104404743D01*
X161030400Y-104237897D01*
X161030400Y-104067783D01*
X161063587Y-103900937D01*
X161128687Y-103743772D01*
X161223198Y-103602327D01*
X161343487Y-103482038D01*
X161484932Y-103387527D01*
X161642097Y-103322427D01*
X161808943Y-103289240D01*
X161979057Y-103289240D01*
X162145903Y-103322427D01*
G37*
G36*
X169765903Y-103322427D02*
G01*
X169923068Y-103387527D01*
X170064513Y-103482038D01*
X170184802Y-103602327D01*
X170279313Y-103743772D01*
X170344413Y-103900937D01*
X170377600Y-104067783D01*
X170377600Y-104237897D01*
X170344413Y-104404743D01*
X170279313Y-104561908D01*
X170184802Y-104703353D01*
X170064513Y-104823642D01*
X169923068Y-104918153D01*
X169765903Y-104983253D01*
X169599057Y-105016440D01*
X169428943Y-105016440D01*
X169262097Y-104983253D01*
X169104932Y-104918153D01*
X168963487Y-104823642D01*
X168843198Y-104703353D01*
X168748687Y-104561908D01*
X168683587Y-104404743D01*
X168650400Y-104237897D01*
X168650400Y-104067783D01*
X168683587Y-103900937D01*
X168748687Y-103743772D01*
X168843198Y-103602327D01*
X168963487Y-103482038D01*
X169104932Y-103387527D01*
X169262097Y-103322427D01*
X169428943Y-103289240D01*
X169599057Y-103289240D01*
X169765903Y-103322427D01*
G37*
G36*
X136745903Y-103322427D02*
G01*
X136903068Y-103387527D01*
X137044513Y-103482038D01*
X137164802Y-103602327D01*
X137259313Y-103743772D01*
X137324413Y-103900937D01*
X137357600Y-104067783D01*
X137357600Y-104237897D01*
X137324413Y-104404743D01*
X137259313Y-104561908D01*
X137164802Y-104703353D01*
X137044513Y-104823642D01*
X136903068Y-104918153D01*
X136745903Y-104983253D01*
X136579057Y-105016440D01*
X136408943Y-105016440D01*
X136242097Y-104983253D01*
X136084932Y-104918153D01*
X135943487Y-104823642D01*
X135823198Y-104703353D01*
X135728687Y-104561908D01*
X135663587Y-104404743D01*
X135630400Y-104237897D01*
X135630400Y-104067783D01*
X135663587Y-103900937D01*
X135728687Y-103743772D01*
X135823198Y-103602327D01*
X135943487Y-103482038D01*
X136084932Y-103387527D01*
X136242097Y-103322427D01*
X136408943Y-103289240D01*
X136579057Y-103289240D01*
X136745903Y-103322427D01*
G37*
G36*
X139285903Y-103322427D02*
G01*
X139443068Y-103387527D01*
X139584513Y-103482038D01*
X139704802Y-103602327D01*
X139799313Y-103743772D01*
X139864413Y-103900937D01*
X139897600Y-104067783D01*
X139897600Y-104237897D01*
X139864413Y-104404743D01*
X139799313Y-104561908D01*
X139704802Y-104703353D01*
X139584513Y-104823642D01*
X139443068Y-104918153D01*
X139285903Y-104983253D01*
X139119057Y-105016440D01*
X138948943Y-105016440D01*
X138782097Y-104983253D01*
X138624932Y-104918153D01*
X138483487Y-104823642D01*
X138363198Y-104703353D01*
X138268687Y-104561908D01*
X138203587Y-104404743D01*
X138170400Y-104237897D01*
X138170400Y-104067783D01*
X138203587Y-103900937D01*
X138268687Y-103743772D01*
X138363198Y-103602327D01*
X138483487Y-103482038D01*
X138624932Y-103387527D01*
X138782097Y-103322427D01*
X138948943Y-103289240D01*
X139119057Y-103289240D01*
X139285903Y-103322427D01*
G37*
G36*
X141825903Y-103322427D02*
G01*
X141983068Y-103387527D01*
X142124513Y-103482038D01*
X142244802Y-103602327D01*
X142339313Y-103743772D01*
X142404413Y-103900937D01*
X142437600Y-104067783D01*
X142437600Y-104237897D01*
X142404413Y-104404743D01*
X142339313Y-104561908D01*
X142244802Y-104703353D01*
X142124513Y-104823642D01*
X141983068Y-104918153D01*
X141825903Y-104983253D01*
X141659057Y-105016440D01*
X141488943Y-105016440D01*
X141322097Y-104983253D01*
X141164932Y-104918153D01*
X141023487Y-104823642D01*
X140903198Y-104703353D01*
X140808687Y-104561908D01*
X140743587Y-104404743D01*
X140710400Y-104237897D01*
X140710400Y-104067783D01*
X140743587Y-103900937D01*
X140808687Y-103743772D01*
X140903198Y-103602327D01*
X141023487Y-103482038D01*
X141164932Y-103387527D01*
X141322097Y-103322427D01*
X141488943Y-103289240D01*
X141659057Y-103289240D01*
X141825903Y-103322427D01*
G37*
G36*
X146905903Y-103322427D02*
G01*
X147063068Y-103387527D01*
X147204513Y-103482038D01*
X147324802Y-103602327D01*
X147419313Y-103743772D01*
X147484413Y-103900937D01*
X147517600Y-104067783D01*
X147517600Y-104237897D01*
X147484413Y-104404743D01*
X147419313Y-104561908D01*
X147324802Y-104703353D01*
X147204513Y-104823642D01*
X147063068Y-104918153D01*
X146905903Y-104983253D01*
X146739057Y-105016440D01*
X146568943Y-105016440D01*
X146402097Y-104983253D01*
X146244932Y-104918153D01*
X146103487Y-104823642D01*
X145983198Y-104703353D01*
X145888687Y-104561908D01*
X145823587Y-104404743D01*
X145790400Y-104237897D01*
X145790400Y-104067783D01*
X145823587Y-103900937D01*
X145888687Y-103743772D01*
X145983198Y-103602327D01*
X146103487Y-103482038D01*
X146244932Y-103387527D01*
X146402097Y-103322427D01*
X146568943Y-103289240D01*
X146739057Y-103289240D01*
X146905903Y-103322427D01*
G37*
G36*
X149445903Y-103322427D02*
G01*
X149603068Y-103387527D01*
X149744513Y-103482038D01*
X149864802Y-103602327D01*
X149959313Y-103743772D01*
X150024413Y-103900937D01*
X150057600Y-104067783D01*
X150057600Y-104237897D01*
X150024413Y-104404743D01*
X149959313Y-104561908D01*
X149864802Y-104703353D01*
X149744513Y-104823642D01*
X149603068Y-104918153D01*
X149445903Y-104983253D01*
X149279057Y-105016440D01*
X149108943Y-105016440D01*
X148942097Y-104983253D01*
X148784932Y-104918153D01*
X148643487Y-104823642D01*
X148523198Y-104703353D01*
X148428687Y-104561908D01*
X148363587Y-104404743D01*
X148330400Y-104237897D01*
X148330400Y-104067783D01*
X148363587Y-103900937D01*
X148428687Y-103743772D01*
X148523198Y-103602327D01*
X148643487Y-103482038D01*
X148784932Y-103387527D01*
X148942097Y-103322427D01*
X149108943Y-103289240D01*
X149279057Y-103289240D01*
X149445903Y-103322427D01*
G37*
G36*
X151985903Y-103322427D02*
G01*
X152143068Y-103387527D01*
X152284513Y-103482038D01*
X152404802Y-103602327D01*
X152499313Y-103743772D01*
X152564413Y-103900937D01*
X152597600Y-104067783D01*
X152597600Y-104237897D01*
X152564413Y-104404743D01*
X152499313Y-104561908D01*
X152404802Y-104703353D01*
X152284513Y-104823642D01*
X152143068Y-104918153D01*
X151985903Y-104983253D01*
X151819057Y-105016440D01*
X151648943Y-105016440D01*
X151482097Y-104983253D01*
X151324932Y-104918153D01*
X151183487Y-104823642D01*
X151063198Y-104703353D01*
X150968687Y-104561908D01*
X150903587Y-104404743D01*
X150870400Y-104237897D01*
X150870400Y-104067783D01*
X150903587Y-103900937D01*
X150968687Y-103743772D01*
X151063198Y-103602327D01*
X151183487Y-103482038D01*
X151324932Y-103387527D01*
X151482097Y-103322427D01*
X151648943Y-103289240D01*
X151819057Y-103289240D01*
X151985903Y-103322427D01*
G37*
G36*
X154525903Y-103322427D02*
G01*
X154683068Y-103387527D01*
X154824513Y-103482038D01*
X154944802Y-103602327D01*
X155039313Y-103743772D01*
X155104413Y-103900937D01*
X155137600Y-104067783D01*
X155137600Y-104237897D01*
X155104413Y-104404743D01*
X155039313Y-104561908D01*
X154944802Y-104703353D01*
X154824513Y-104823642D01*
X154683068Y-104918153D01*
X154525903Y-104983253D01*
X154359057Y-105016440D01*
X154188943Y-105016440D01*
X154022097Y-104983253D01*
X153864932Y-104918153D01*
X153723487Y-104823642D01*
X153603198Y-104703353D01*
X153508687Y-104561908D01*
X153443587Y-104404743D01*
X153410400Y-104237897D01*
X153410400Y-104067783D01*
X153443587Y-103900937D01*
X153508687Y-103743772D01*
X153603198Y-103602327D01*
X153723487Y-103482038D01*
X153864932Y-103387527D01*
X154022097Y-103322427D01*
X154188943Y-103289240D01*
X154359057Y-103289240D01*
X154525903Y-103322427D01*
G37*
G36*
X157065903Y-103322427D02*
G01*
X157223068Y-103387527D01*
X157364513Y-103482038D01*
X157484802Y-103602327D01*
X157579313Y-103743772D01*
X157644413Y-103900937D01*
X157677600Y-104067783D01*
X157677600Y-104237897D01*
X157644413Y-104404743D01*
X157579313Y-104561908D01*
X157484802Y-104703353D01*
X157364513Y-104823642D01*
X157223068Y-104918153D01*
X157065903Y-104983253D01*
X156899057Y-105016440D01*
X156728943Y-105016440D01*
X156562097Y-104983253D01*
X156404932Y-104918153D01*
X156263487Y-104823642D01*
X156143198Y-104703353D01*
X156048687Y-104561908D01*
X155983587Y-104404743D01*
X155950400Y-104237897D01*
X155950400Y-104067783D01*
X155983587Y-103900937D01*
X156048687Y-103743772D01*
X156143198Y-103602327D01*
X156263487Y-103482038D01*
X156404932Y-103387527D01*
X156562097Y-103322427D01*
X156728943Y-103289240D01*
X156899057Y-103289240D01*
X157065903Y-103322427D01*
G37*
G36*
X159605903Y-103322427D02*
G01*
X159763068Y-103387527D01*
X159904513Y-103482038D01*
X160024802Y-103602327D01*
X160119313Y-103743772D01*
X160184413Y-103900937D01*
X160217600Y-104067783D01*
X160217600Y-104237897D01*
X160184413Y-104404743D01*
X160119313Y-104561908D01*
X160024802Y-104703353D01*
X159904513Y-104823642D01*
X159763068Y-104918153D01*
X159605903Y-104983253D01*
X159439057Y-105016440D01*
X159268943Y-105016440D01*
X159102097Y-104983253D01*
X158944932Y-104918153D01*
X158803487Y-104823642D01*
X158683198Y-104703353D01*
X158588687Y-104561908D01*
X158523587Y-104404743D01*
X158490400Y-104237897D01*
X158490400Y-104067783D01*
X158523587Y-103900937D01*
X158588687Y-103743772D01*
X158683198Y-103602327D01*
X158803487Y-103482038D01*
X158944932Y-103387527D01*
X159102097Y-103322427D01*
X159268943Y-103289240D01*
X159439057Y-103289240D01*
X159605903Y-103322427D01*
G37*
G36*
X121204612Y-102963065D02*
G01*
X121289195Y-102971396D01*
X121451984Y-103020778D01*
X121451987Y-103020779D01*
X121602007Y-103100966D01*
X121602008Y-103100967D01*
X121602012Y-103100969D01*
X121733512Y-103208888D01*
X121841431Y-103340388D01*
X121841433Y-103340392D01*
X121841434Y-103340393D01*
X121921621Y-103490413D01*
X121921622Y-103490416D01*
X121971004Y-103653205D01*
X121987678Y-103822500D01*
X121971004Y-103991795D01*
X121947953Y-104067783D01*
X121921621Y-104154587D01*
X121877091Y-104237897D01*
X121841431Y-104304612D01*
X121733512Y-104436112D01*
X121602012Y-104544031D01*
X121602008Y-104544033D01*
X121602007Y-104544034D01*
X121451987Y-104624221D01*
X121451984Y-104624222D01*
X121289195Y-104673604D01*
X121204612Y-104681935D01*
X121162321Y-104686100D01*
X120772679Y-104686100D01*
X120730388Y-104681935D01*
X120645805Y-104673604D01*
X120483016Y-104624222D01*
X120483013Y-104624221D01*
X120332993Y-104544034D01*
X120332992Y-104544033D01*
X120332988Y-104544031D01*
X120201488Y-104436112D01*
X120093569Y-104304612D01*
X120057909Y-104237897D01*
X120013379Y-104154587D01*
X119987047Y-104067783D01*
X119963996Y-103991795D01*
X119947322Y-103822500D01*
X119963996Y-103653205D01*
X120013378Y-103490416D01*
X120013379Y-103490413D01*
X120093566Y-103340393D01*
X120093567Y-103340392D01*
X120093569Y-103340388D01*
X120201488Y-103208888D01*
X120332988Y-103100969D01*
X120332992Y-103100967D01*
X120332993Y-103100966D01*
X120483013Y-103020779D01*
X120483016Y-103020778D01*
X120645805Y-102971396D01*
X120730388Y-102963065D01*
X120772679Y-102958900D01*
X121162321Y-102958900D01*
X121204612Y-102963065D01*
G37*
G36*
X121204612Y-100423065D02*
G01*
X121289195Y-100431396D01*
X121451984Y-100480778D01*
X121451987Y-100480779D01*
X121602007Y-100560966D01*
X121602008Y-100560967D01*
X121602012Y-100560969D01*
X121733512Y-100668888D01*
X121841431Y-100800388D01*
X121841433Y-100800392D01*
X121841434Y-100800393D01*
X121921621Y-100950413D01*
X121921622Y-100950416D01*
X121971004Y-101113205D01*
X121987678Y-101282500D01*
X121971004Y-101451795D01*
X121921622Y-101614584D01*
X121921621Y-101614587D01*
X121841434Y-101764607D01*
X121841431Y-101764612D01*
X121733512Y-101896112D01*
X121602012Y-102004031D01*
X121602008Y-102004033D01*
X121602007Y-102004034D01*
X121451987Y-102084221D01*
X121451984Y-102084222D01*
X121289195Y-102133604D01*
X121204612Y-102141935D01*
X121162321Y-102146100D01*
X120772679Y-102146100D01*
X120730388Y-102141935D01*
X120645805Y-102133604D01*
X120483016Y-102084222D01*
X120483013Y-102084221D01*
X120332993Y-102004034D01*
X120332992Y-102004033D01*
X120332988Y-102004031D01*
X120201488Y-101896112D01*
X120093569Y-101764612D01*
X120093566Y-101764607D01*
X120013379Y-101614587D01*
X120013378Y-101614584D01*
X119963996Y-101451795D01*
X119947322Y-101282500D01*
X119963996Y-101113205D01*
X120013378Y-100950416D01*
X120013379Y-100950413D01*
X120093566Y-100800393D01*
X120093567Y-100800392D01*
X120093569Y-100800388D01*
X120201488Y-100668888D01*
X120332988Y-100560969D01*
X120332992Y-100560967D01*
X120332993Y-100560966D01*
X120483013Y-100480779D01*
X120483016Y-100480778D01*
X120645805Y-100431396D01*
X120730388Y-100423065D01*
X120772679Y-100418900D01*
X121162321Y-100418900D01*
X121204612Y-100423065D01*
G37*
G36*
X130408351Y-97020743D02*
G01*
X130553941Y-97081048D01*
X130684970Y-97168599D01*
X130796401Y-97280030D01*
X130883952Y-97411059D01*
X130944257Y-97556649D01*
X130975000Y-97711206D01*
X130975000Y-97868794D01*
X130944257Y-98023351D01*
X130883952Y-98168941D01*
X130796401Y-98299970D01*
X130684970Y-98411401D01*
X130553941Y-98498952D01*
X130408351Y-98559257D01*
X130253794Y-98590000D01*
X130096206Y-98590000D01*
X129941649Y-98559257D01*
X129796059Y-98498952D01*
X129665030Y-98411401D01*
X129553599Y-98299970D01*
X129466048Y-98168941D01*
X129405743Y-98023351D01*
X129375000Y-97868794D01*
X129375000Y-97711206D01*
X129405743Y-97556649D01*
X129466048Y-97411059D01*
X129553599Y-97280030D01*
X129665030Y-97168599D01*
X129796059Y-97081048D01*
X129941649Y-97020743D01*
X130096206Y-96990000D01*
X130253794Y-96990000D01*
X130408351Y-97020743D01*
G37*
G36*
X145648351Y-97020743D02*
G01*
X145793941Y-97081048D01*
X145924970Y-97168599D01*
X146036401Y-97280030D01*
X146123952Y-97411059D01*
X146184257Y-97556649D01*
X146215000Y-97711206D01*
X146215000Y-97868794D01*
X146184257Y-98023351D01*
X146123952Y-98168941D01*
X146036401Y-98299970D01*
X145924970Y-98411401D01*
X145793941Y-98498952D01*
X145648351Y-98559257D01*
X145493794Y-98590000D01*
X145336206Y-98590000D01*
X145181649Y-98559257D01*
X145036059Y-98498952D01*
X144905030Y-98411401D01*
X144793599Y-98299970D01*
X144706048Y-98168941D01*
X144645743Y-98023351D01*
X144615000Y-97868794D01*
X144615000Y-97711206D01*
X144645743Y-97556649D01*
X144706048Y-97411059D01*
X144793599Y-97280030D01*
X144905030Y-97168599D01*
X145036059Y-97081048D01*
X145181649Y-97020743D01*
X145336206Y-96990000D01*
X145493794Y-96990000D01*
X145648351Y-97020743D01*
G37*
G36*
X132948351Y-97020743D02*
G01*
X133093941Y-97081048D01*
X133224970Y-97168599D01*
X133336401Y-97280030D01*
X133423952Y-97411059D01*
X133484257Y-97556649D01*
X133515000Y-97711206D01*
X133515000Y-97868794D01*
X133484257Y-98023351D01*
X133423952Y-98168941D01*
X133336401Y-98299970D01*
X133224970Y-98411401D01*
X133093941Y-98498952D01*
X132948351Y-98559257D01*
X132793794Y-98590000D01*
X132636206Y-98590000D01*
X132481649Y-98559257D01*
X132336059Y-98498952D01*
X132205030Y-98411401D01*
X132093599Y-98299970D01*
X132006048Y-98168941D01*
X131945743Y-98023351D01*
X131915000Y-97868794D01*
X131915000Y-97711206D01*
X131945743Y-97556649D01*
X132006048Y-97411059D01*
X132093599Y-97280030D01*
X132205030Y-97168599D01*
X132336059Y-97081048D01*
X132481649Y-97020743D01*
X132636206Y-96990000D01*
X132793794Y-96990000D01*
X132948351Y-97020743D01*
G37*
G36*
X127868351Y-97020743D02*
G01*
X128013941Y-97081048D01*
X128144970Y-97168599D01*
X128256401Y-97280030D01*
X128343952Y-97411059D01*
X128404257Y-97556649D01*
X128435000Y-97711206D01*
X128435000Y-97868794D01*
X128404257Y-98023351D01*
X128343952Y-98168941D01*
X128256401Y-98299970D01*
X128144970Y-98411401D01*
X128013941Y-98498952D01*
X127868351Y-98559257D01*
X127713794Y-98590000D01*
X127556206Y-98590000D01*
X127401649Y-98559257D01*
X127256059Y-98498952D01*
X127125030Y-98411401D01*
X127013599Y-98299970D01*
X126926048Y-98168941D01*
X126865743Y-98023351D01*
X126835000Y-97868794D01*
X126835000Y-97711206D01*
X126865743Y-97556649D01*
X126926048Y-97411059D01*
X127013599Y-97280030D01*
X127125030Y-97168599D01*
X127256059Y-97081048D01*
X127401649Y-97020743D01*
X127556206Y-96990000D01*
X127713794Y-96990000D01*
X127868351Y-97020743D01*
G37*
G36*
X135488351Y-97020743D02*
G01*
X135633941Y-97081048D01*
X135764970Y-97168599D01*
X135876401Y-97280030D01*
X135963952Y-97411059D01*
X136024257Y-97556649D01*
X136055000Y-97711206D01*
X136055000Y-97868794D01*
X136024257Y-98023351D01*
X135963952Y-98168941D01*
X135876401Y-98299970D01*
X135764970Y-98411401D01*
X135633941Y-98498952D01*
X135488351Y-98559257D01*
X135333794Y-98590000D01*
X135176206Y-98590000D01*
X135021649Y-98559257D01*
X134876059Y-98498952D01*
X134745030Y-98411401D01*
X134633599Y-98299970D01*
X134546048Y-98168941D01*
X134485743Y-98023351D01*
X134455000Y-97868794D01*
X134455000Y-97711206D01*
X134485743Y-97556649D01*
X134546048Y-97411059D01*
X134633599Y-97280030D01*
X134745030Y-97168599D01*
X134876059Y-97081048D01*
X135021649Y-97020743D01*
X135176206Y-96990000D01*
X135333794Y-96990000D01*
X135488351Y-97020743D01*
G37*
G36*
X125328351Y-97020743D02*
G01*
X125473941Y-97081048D01*
X125604970Y-97168599D01*
X125716401Y-97280030D01*
X125803952Y-97411059D01*
X125864257Y-97556649D01*
X125895000Y-97711206D01*
X125895000Y-97868794D01*
X125864257Y-98023351D01*
X125803952Y-98168941D01*
X125716401Y-98299970D01*
X125604970Y-98411401D01*
X125473941Y-98498952D01*
X125328351Y-98559257D01*
X125173794Y-98590000D01*
X125016206Y-98590000D01*
X124861649Y-98559257D01*
X124716059Y-98498952D01*
X124585030Y-98411401D01*
X124473599Y-98299970D01*
X124386048Y-98168941D01*
X124325743Y-98023351D01*
X124295000Y-97868794D01*
X124295000Y-97711206D01*
X124325743Y-97556649D01*
X124386048Y-97411059D01*
X124473599Y-97280030D01*
X124585030Y-97168599D01*
X124716059Y-97081048D01*
X124861649Y-97020743D01*
X125016206Y-96990000D01*
X125173794Y-96990000D01*
X125328351Y-97020743D01*
G37*
G36*
X138028351Y-97020743D02*
G01*
X138173941Y-97081048D01*
X138304970Y-97168599D01*
X138416401Y-97280030D01*
X138503952Y-97411059D01*
X138564257Y-97556649D01*
X138595000Y-97711206D01*
X138595000Y-97868794D01*
X138564257Y-98023351D01*
X138503952Y-98168941D01*
X138416401Y-98299970D01*
X138304970Y-98411401D01*
X138173941Y-98498952D01*
X138028351Y-98559257D01*
X137873794Y-98590000D01*
X137716206Y-98590000D01*
X137561649Y-98559257D01*
X137416059Y-98498952D01*
X137285030Y-98411401D01*
X137173599Y-98299970D01*
X137086048Y-98168941D01*
X137025743Y-98023351D01*
X136995000Y-97868794D01*
X136995000Y-97711206D01*
X137025743Y-97556649D01*
X137086048Y-97411059D01*
X137173599Y-97280030D01*
X137285030Y-97168599D01*
X137416059Y-97081048D01*
X137561649Y-97020743D01*
X137716206Y-96990000D01*
X137873794Y-96990000D01*
X138028351Y-97020743D01*
G37*
G36*
X171048351Y-97020743D02*
G01*
X171193941Y-97081048D01*
X171324970Y-97168599D01*
X171436401Y-97280030D01*
X171523952Y-97411059D01*
X171584257Y-97556649D01*
X171615000Y-97711206D01*
X171615000Y-97868794D01*
X171584257Y-98023351D01*
X171523952Y-98168941D01*
X171436401Y-98299970D01*
X171324970Y-98411401D01*
X171193941Y-98498952D01*
X171048351Y-98559257D01*
X170893794Y-98590000D01*
X170736206Y-98590000D01*
X170581649Y-98559257D01*
X170436059Y-98498952D01*
X170305030Y-98411401D01*
X170193599Y-98299970D01*
X170106048Y-98168941D01*
X170045743Y-98023351D01*
X170015000Y-97868794D01*
X170015000Y-97711206D01*
X170045743Y-97556649D01*
X170106048Y-97411059D01*
X170193599Y-97280030D01*
X170305030Y-97168599D01*
X170436059Y-97081048D01*
X170581649Y-97020743D01*
X170736206Y-96990000D01*
X170893794Y-96990000D01*
X171048351Y-97020743D01*
G37*
G36*
X140568351Y-97020743D02*
G01*
X140713941Y-97081048D01*
X140844970Y-97168599D01*
X140956401Y-97280030D01*
X141043952Y-97411059D01*
X141104257Y-97556649D01*
X141135000Y-97711206D01*
X141135000Y-97868794D01*
X141104257Y-98023351D01*
X141043952Y-98168941D01*
X140956401Y-98299970D01*
X140844970Y-98411401D01*
X140713941Y-98498952D01*
X140568351Y-98559257D01*
X140413794Y-98590000D01*
X140256206Y-98590000D01*
X140101649Y-98559257D01*
X139956059Y-98498952D01*
X139825030Y-98411401D01*
X139713599Y-98299970D01*
X139626048Y-98168941D01*
X139565743Y-98023351D01*
X139535000Y-97868794D01*
X139535000Y-97711206D01*
X139565743Y-97556649D01*
X139626048Y-97411059D01*
X139713599Y-97280030D01*
X139825030Y-97168599D01*
X139956059Y-97081048D01*
X140101649Y-97020743D01*
X140256206Y-96990000D01*
X140413794Y-96990000D01*
X140568351Y-97020743D01*
G37*
G36*
X148188351Y-97020743D02*
G01*
X148333941Y-97081048D01*
X148464970Y-97168599D01*
X148576401Y-97280030D01*
X148663952Y-97411059D01*
X148724257Y-97556649D01*
X148755000Y-97711206D01*
X148755000Y-97868794D01*
X148724257Y-98023351D01*
X148663952Y-98168941D01*
X148576401Y-98299970D01*
X148464970Y-98411401D01*
X148333941Y-98498952D01*
X148188351Y-98559257D01*
X148033794Y-98590000D01*
X147876206Y-98590000D01*
X147721649Y-98559257D01*
X147576059Y-98498952D01*
X147445030Y-98411401D01*
X147333599Y-98299970D01*
X147246048Y-98168941D01*
X147185743Y-98023351D01*
X147155000Y-97868794D01*
X147155000Y-97711206D01*
X147185743Y-97556649D01*
X147246048Y-97411059D01*
X147333599Y-97280030D01*
X147445030Y-97168599D01*
X147576059Y-97081048D01*
X147721649Y-97020743D01*
X147876206Y-96990000D01*
X148033794Y-96990000D01*
X148188351Y-97020743D01*
G37*
G36*
X143108351Y-97020743D02*
G01*
X143253941Y-97081048D01*
X143384970Y-97168599D01*
X143496401Y-97280030D01*
X143583952Y-97411059D01*
X143644257Y-97556649D01*
X143675000Y-97711206D01*
X143675000Y-97868794D01*
X143644257Y-98023351D01*
X143583952Y-98168941D01*
X143496401Y-98299970D01*
X143384970Y-98411401D01*
X143253941Y-98498952D01*
X143108351Y-98559257D01*
X142953794Y-98590000D01*
X142796206Y-98590000D01*
X142641649Y-98559257D01*
X142496059Y-98498952D01*
X142365030Y-98411401D01*
X142253599Y-98299970D01*
X142166048Y-98168941D01*
X142105743Y-98023351D01*
X142075000Y-97868794D01*
X142075000Y-97711206D01*
X142105743Y-97556649D01*
X142166048Y-97411059D01*
X142253599Y-97280030D01*
X142365030Y-97168599D01*
X142496059Y-97081048D01*
X142641649Y-97020743D01*
X142796206Y-96990000D01*
X142953794Y-96990000D01*
X143108351Y-97020743D01*
G37*
G36*
X168508351Y-97020743D02*
G01*
X168653941Y-97081048D01*
X168784970Y-97168599D01*
X168896401Y-97280030D01*
X168983952Y-97411059D01*
X169044257Y-97556649D01*
X169075000Y-97711206D01*
X169075000Y-97868794D01*
X169044257Y-98023351D01*
X168983952Y-98168941D01*
X168896401Y-98299970D01*
X168784970Y-98411401D01*
X168653941Y-98498952D01*
X168508351Y-98559257D01*
X168353794Y-98590000D01*
X168196206Y-98590000D01*
X168041649Y-98559257D01*
X167896059Y-98498952D01*
X167765030Y-98411401D01*
X167653599Y-98299970D01*
X167566048Y-98168941D01*
X167505743Y-98023351D01*
X167475000Y-97868794D01*
X167475000Y-97711206D01*
X167505743Y-97556649D01*
X167566048Y-97411059D01*
X167653599Y-97280030D01*
X167765030Y-97168599D01*
X167896059Y-97081048D01*
X168041649Y-97020743D01*
X168196206Y-96990000D01*
X168353794Y-96990000D01*
X168508351Y-97020743D01*
G37*
G36*
X165968351Y-97020743D02*
G01*
X166113941Y-97081048D01*
X166244970Y-97168599D01*
X166356401Y-97280030D01*
X166443952Y-97411059D01*
X166504257Y-97556649D01*
X166535000Y-97711206D01*
X166535000Y-97868794D01*
X166504257Y-98023351D01*
X166443952Y-98168941D01*
X166356401Y-98299970D01*
X166244970Y-98411401D01*
X166113941Y-98498952D01*
X165968351Y-98559257D01*
X165813794Y-98590000D01*
X165656206Y-98590000D01*
X165501649Y-98559257D01*
X165356059Y-98498952D01*
X165225030Y-98411401D01*
X165113599Y-98299970D01*
X165026048Y-98168941D01*
X164965743Y-98023351D01*
X164935000Y-97868794D01*
X164935000Y-97711206D01*
X164965743Y-97556649D01*
X165026048Y-97411059D01*
X165113599Y-97280030D01*
X165225030Y-97168599D01*
X165356059Y-97081048D01*
X165501649Y-97020743D01*
X165656206Y-96990000D01*
X165813794Y-96990000D01*
X165968351Y-97020743D01*
G37*
G36*
X163428351Y-97020743D02*
G01*
X163573941Y-97081048D01*
X163704970Y-97168599D01*
X163816401Y-97280030D01*
X163903952Y-97411059D01*
X163964257Y-97556649D01*
X163995000Y-97711206D01*
X163995000Y-97868794D01*
X163964257Y-98023351D01*
X163903952Y-98168941D01*
X163816401Y-98299970D01*
X163704970Y-98411401D01*
X163573941Y-98498952D01*
X163428351Y-98559257D01*
X163273794Y-98590000D01*
X163116206Y-98590000D01*
X162961649Y-98559257D01*
X162816059Y-98498952D01*
X162685030Y-98411401D01*
X162573599Y-98299970D01*
X162486048Y-98168941D01*
X162425743Y-98023351D01*
X162395000Y-97868794D01*
X162395000Y-97711206D01*
X162425743Y-97556649D01*
X162486048Y-97411059D01*
X162573599Y-97280030D01*
X162685030Y-97168599D01*
X162816059Y-97081048D01*
X162961649Y-97020743D01*
X163116206Y-96990000D01*
X163273794Y-96990000D01*
X163428351Y-97020743D01*
G37*
G36*
X150728351Y-97020743D02*
G01*
X150873941Y-97081048D01*
X151004970Y-97168599D01*
X151116401Y-97280030D01*
X151203952Y-97411059D01*
X151264257Y-97556649D01*
X151295000Y-97711206D01*
X151295000Y-97868794D01*
X151264257Y-98023351D01*
X151203952Y-98168941D01*
X151116401Y-98299970D01*
X151004970Y-98411401D01*
X150873941Y-98498952D01*
X150728351Y-98559257D01*
X150573794Y-98590000D01*
X150416206Y-98590000D01*
X150261649Y-98559257D01*
X150116059Y-98498952D01*
X149985030Y-98411401D01*
X149873599Y-98299970D01*
X149786048Y-98168941D01*
X149725743Y-98023351D01*
X149695000Y-97868794D01*
X149695000Y-97711206D01*
X149725743Y-97556649D01*
X149786048Y-97411059D01*
X149873599Y-97280030D01*
X149985030Y-97168599D01*
X150116059Y-97081048D01*
X150261649Y-97020743D01*
X150416206Y-96990000D01*
X150573794Y-96990000D01*
X150728351Y-97020743D01*
G37*
G36*
X160888351Y-97020743D02*
G01*
X161033941Y-97081048D01*
X161164970Y-97168599D01*
X161276401Y-97280030D01*
X161363952Y-97411059D01*
X161424257Y-97556649D01*
X161455000Y-97711206D01*
X161455000Y-97868794D01*
X161424257Y-98023351D01*
X161363952Y-98168941D01*
X161276401Y-98299970D01*
X161164970Y-98411401D01*
X161033941Y-98498952D01*
X160888351Y-98559257D01*
X160733794Y-98590000D01*
X160576206Y-98590000D01*
X160421649Y-98559257D01*
X160276059Y-98498952D01*
X160145030Y-98411401D01*
X160033599Y-98299970D01*
X159946048Y-98168941D01*
X159885743Y-98023351D01*
X159855000Y-97868794D01*
X159855000Y-97711206D01*
X159885743Y-97556649D01*
X159946048Y-97411059D01*
X160033599Y-97280030D01*
X160145030Y-97168599D01*
X160276059Y-97081048D01*
X160421649Y-97020743D01*
X160576206Y-96990000D01*
X160733794Y-96990000D01*
X160888351Y-97020743D01*
G37*
G36*
X153268351Y-97020743D02*
G01*
X153413941Y-97081048D01*
X153544970Y-97168599D01*
X153656401Y-97280030D01*
X153743952Y-97411059D01*
X153804257Y-97556649D01*
X153835000Y-97711206D01*
X153835000Y-97868794D01*
X153804257Y-98023351D01*
X153743952Y-98168941D01*
X153656401Y-98299970D01*
X153544970Y-98411401D01*
X153413941Y-98498952D01*
X153268351Y-98559257D01*
X153113794Y-98590000D01*
X152956206Y-98590000D01*
X152801649Y-98559257D01*
X152656059Y-98498952D01*
X152525030Y-98411401D01*
X152413599Y-98299970D01*
X152326048Y-98168941D01*
X152265743Y-98023351D01*
X152235000Y-97868794D01*
X152235000Y-97711206D01*
X152265743Y-97556649D01*
X152326048Y-97411059D01*
X152413599Y-97280030D01*
X152525030Y-97168599D01*
X152656059Y-97081048D01*
X152801649Y-97020743D01*
X152956206Y-96990000D01*
X153113794Y-96990000D01*
X153268351Y-97020743D01*
G37*
G36*
X158348351Y-97020743D02*
G01*
X158493941Y-97081048D01*
X158624970Y-97168599D01*
X158736401Y-97280030D01*
X158823952Y-97411059D01*
X158884257Y-97556649D01*
X158915000Y-97711206D01*
X158915000Y-97868794D01*
X158884257Y-98023351D01*
X158823952Y-98168941D01*
X158736401Y-98299970D01*
X158624970Y-98411401D01*
X158493941Y-98498952D01*
X158348351Y-98559257D01*
X158193794Y-98590000D01*
X158036206Y-98590000D01*
X157881649Y-98559257D01*
X157736059Y-98498952D01*
X157605030Y-98411401D01*
X157493599Y-98299970D01*
X157406048Y-98168941D01*
X157345743Y-98023351D01*
X157315000Y-97868794D01*
X157315000Y-97711206D01*
X157345743Y-97556649D01*
X157406048Y-97411059D01*
X157493599Y-97280030D01*
X157605030Y-97168599D01*
X157736059Y-97081048D01*
X157881649Y-97020743D01*
X158036206Y-96990000D01*
X158193794Y-96990000D01*
X158348351Y-97020743D01*
G37*
G36*
X155808351Y-97020743D02*
G01*
X155953941Y-97081048D01*
X156084970Y-97168599D01*
X156196401Y-97280030D01*
X156283952Y-97411059D01*
X156344257Y-97556649D01*
X156375000Y-97711206D01*
X156375000Y-97868794D01*
X156344257Y-98023351D01*
X156283952Y-98168941D01*
X156196401Y-98299970D01*
X156084970Y-98411401D01*
X155953941Y-98498952D01*
X155808351Y-98559257D01*
X155653794Y-98590000D01*
X155496206Y-98590000D01*
X155341649Y-98559257D01*
X155196059Y-98498952D01*
X155065030Y-98411401D01*
X154953599Y-98299970D01*
X154866048Y-98168941D01*
X154805743Y-98023351D01*
X154775000Y-97868794D01*
X154775000Y-97711206D01*
X154805743Y-97556649D01*
X154866048Y-97411059D01*
X154953599Y-97280030D01*
X155065030Y-97168599D01*
X155196059Y-97081048D01*
X155341649Y-97020743D01*
X155496206Y-96990000D01*
X155653794Y-96990000D01*
X155808351Y-97020743D01*
G37*
G36*
X173588351Y-97020743D02*
G01*
X173733941Y-97081048D01*
X173864970Y-97168599D01*
X173976401Y-97280030D01*
X174063952Y-97411059D01*
X174124257Y-97556649D01*
X174155000Y-97711206D01*
X174155000Y-97868794D01*
X174124257Y-98023351D01*
X174063952Y-98168941D01*
X173976401Y-98299970D01*
X173864970Y-98411401D01*
X173733941Y-98498952D01*
X173588351Y-98559257D01*
X173433794Y-98590000D01*
X173276206Y-98590000D01*
X173121649Y-98559257D01*
X172976059Y-98498952D01*
X172845030Y-98411401D01*
X172733599Y-98299970D01*
X172646048Y-98168941D01*
X172585743Y-98023351D01*
X172555000Y-97868794D01*
X172555000Y-97711206D01*
X172585743Y-97556649D01*
X172646048Y-97411059D01*
X172733599Y-97280030D01*
X172845030Y-97168599D01*
X172976059Y-97081048D01*
X173121649Y-97020743D01*
X173276206Y-96990000D01*
X173433794Y-96990000D01*
X173588351Y-97020743D01*
G37*
M02*
