G04 #@! TF.GenerationSoftware,KiCad,Pcbnew,(5.1.6-0-10_14)*
G04 #@! TF.CreationDate,2021-01-24T10:58:57+01:00*
G04 #@! TF.ProjectId,GW,47572e6b-6963-4616-945f-706362585858,rev?*
G04 #@! TF.SameCoordinates,Original*
G04 #@! TF.FileFunction,Copper,L1,Top*
G04 #@! TF.FilePolarity,Positive*
%FSLAX46Y46*%
G04 Gerber Fmt 4.6, Leading zero omitted, Abs format (unit mm)*
G04 Created by KiCad (PCBNEW (5.1.6-0-10_14)) date 2021-01-24 10:58:57*
%MOMM*%
%LPD*%
G01*
G04 APERTURE LIST*
G04 #@! TA.AperFunction,ComponentPad*
%ADD10O,1.600000X1.600000*%
G04 #@! TD*
G04 #@! TA.AperFunction,ComponentPad*
%ADD11R,2.032000X1.727200*%
G04 #@! TD*
G04 #@! TA.AperFunction,ComponentPad*
%ADD12O,2.032000X1.727200*%
G04 #@! TD*
G04 #@! TA.AperFunction,ComponentPad*
%ADD13R,1.727200X1.727200*%
G04 #@! TD*
G04 #@! TA.AperFunction,ComponentPad*
%ADD14O,1.727200X1.727200*%
G04 #@! TD*
G04 #@! TA.AperFunction,ComponentPad*
%ADD15C,1.600000*%
G04 #@! TD*
G04 #@! TA.AperFunction,ViaPad*
%ADD16C,0.600000*%
G04 #@! TD*
G04 #@! TA.AperFunction,Conductor*
%ADD17C,0.250000*%
G04 #@! TD*
G04 #@! TA.AperFunction,Conductor*
%ADD18C,0.500000*%
G04 #@! TD*
G04 #@! TA.AperFunction,Conductor*
%ADD19C,0.254000*%
G04 #@! TD*
G04 APERTURE END LIST*
D10*
X173355000Y-97790000D03*
X170815000Y-97790000D03*
X168275000Y-97790000D03*
X165735000Y-97790000D03*
X163195000Y-97790000D03*
X160655000Y-97790000D03*
X158115000Y-97790000D03*
X155575000Y-97790000D03*
X153035000Y-97790000D03*
X150495000Y-97790000D03*
X147955000Y-97790000D03*
X145415000Y-97790000D03*
X142875000Y-97790000D03*
X140335000Y-97790000D03*
X137795000Y-97790000D03*
X135255000Y-97790000D03*
X132715000Y-97790000D03*
X130175000Y-97790000D03*
X127635000Y-97790000D03*
X125095000Y-97790000D03*
X125095000Y-113030000D03*
X127635000Y-113030000D03*
X130175000Y-113030000D03*
X132715000Y-113030000D03*
X135255000Y-113030000D03*
X137795000Y-113030000D03*
X140335000Y-113030000D03*
X142875000Y-113030000D03*
X145415000Y-113030000D03*
X147955000Y-113030000D03*
X150495000Y-113030000D03*
X153035000Y-113030000D03*
X155575000Y-113030000D03*
X158115000Y-113030000D03*
X160655000Y-113030000D03*
X163195000Y-113030000D03*
X165735000Y-113030000D03*
X168275000Y-113030000D03*
X170815000Y-113030000D03*
X173355000Y-113030000D03*
D11*
X120967500Y-108902500D03*
D12*
X120967500Y-106362500D03*
X120967500Y-103822500D03*
X120967500Y-101282500D03*
D13*
X169514000Y-106692840D03*
D14*
X169514000Y-104152840D03*
X166974000Y-106692840D03*
X166974000Y-104152840D03*
X164434000Y-106692840D03*
X164434000Y-104152840D03*
X161894000Y-106692840D03*
X161894000Y-104152840D03*
X159354000Y-106692840D03*
X159354000Y-104152840D03*
X156814000Y-106692840D03*
X156814000Y-104152840D03*
X154274000Y-106692840D03*
X154274000Y-104152840D03*
X151734000Y-106692840D03*
X151734000Y-104152840D03*
X149194000Y-106692840D03*
X149194000Y-104152840D03*
X146654000Y-106692840D03*
X146654000Y-104152840D03*
X144114000Y-106692840D03*
X144114000Y-104152840D03*
X141574000Y-106692840D03*
X141574000Y-104152840D03*
X139034000Y-106692840D03*
X139034000Y-104152840D03*
X136494000Y-106692840D03*
X136494000Y-104152840D03*
X133954000Y-106692840D03*
X133954000Y-104152840D03*
X131414000Y-106692840D03*
X131414000Y-104152840D03*
X128874000Y-106692840D03*
X128874000Y-104152840D03*
D15*
X146659600Y-110236000D03*
D10*
X154279600Y-110236000D03*
D15*
X166471600Y-110236000D03*
D10*
X174091600Y-110236000D03*
X136753600Y-110236000D03*
D15*
X144373600Y-110236000D03*
X126847600Y-110236000D03*
D10*
X134467600Y-110236000D03*
X156565600Y-110236000D03*
D15*
X164185600Y-110236000D03*
D16*
X158115000Y-105410000D03*
X161290000Y-99695000D03*
X137718802Y-108305600D03*
X133985000Y-100330000D03*
X147955000Y-100330000D03*
X147955000Y-108585000D03*
X161925000Y-100330000D03*
X150495000Y-105410000D03*
D17*
X143900000Y-110490000D02*
X144145000Y-110735000D01*
X164185600Y-110236000D02*
X166471600Y-110236000D01*
X126682500Y-101282500D02*
X130175000Y-97790000D01*
X120967500Y-101282500D02*
X126682500Y-101282500D01*
X126644400Y-110439200D02*
X126847600Y-110236000D01*
X126060200Y-110439200D02*
X126644400Y-110439200D01*
X125628400Y-110871000D02*
X126060200Y-110439200D01*
X118884700Y-101282500D02*
X118592600Y-101574600D01*
X119202200Y-110871000D02*
X125628400Y-110871000D01*
X118592600Y-110261400D02*
X119202200Y-110871000D01*
X118592600Y-101574600D02*
X118592600Y-110261400D01*
X120967500Y-101282500D02*
X118884700Y-101282500D01*
X143778802Y-114554000D02*
X144177801Y-114155001D01*
X127228600Y-114554000D02*
X143778802Y-114554000D01*
X126365000Y-113690400D02*
X127228600Y-114554000D01*
X126365000Y-110718600D02*
X126365000Y-113690400D01*
X126847600Y-110236000D02*
X126365000Y-110718600D01*
X144170400Y-110439200D02*
X144373600Y-110236000D01*
X144170400Y-114162402D02*
X144170400Y-110439200D01*
X144177801Y-114155001D02*
X144170400Y-114162402D01*
X163830000Y-114554000D02*
X144576800Y-114554000D01*
X164439600Y-113944400D02*
X163830000Y-114554000D01*
X164439600Y-110490000D02*
X164439600Y-113944400D01*
X144576800Y-114554000D02*
X144177801Y-114155001D01*
X164185600Y-110236000D02*
X164439600Y-110490000D01*
D18*
X120967500Y-103822500D02*
X120967500Y-106362500D01*
D17*
X163195000Y-113030000D02*
X158115000Y-107950000D01*
X158115000Y-105391840D02*
X159354000Y-104152840D01*
X158115000Y-107950000D02*
X158115000Y-105391840D01*
X158115000Y-105410000D02*
X158115000Y-105391840D01*
X140335000Y-97790000D02*
X140970000Y-97790000D01*
X149675002Y-99695000D02*
X161290000Y-99695000D01*
X149040002Y-99060000D02*
X149675002Y-99695000D01*
X142240000Y-99060000D02*
X149040002Y-99060000D01*
X140970000Y-97790000D02*
X142240000Y-99060000D01*
X174091600Y-108788200D02*
X174091600Y-110236000D01*
X170731840Y-105428440D02*
X174091600Y-108788200D01*
X163169600Y-105428440D02*
X170731840Y-105428440D01*
X161894000Y-104152840D02*
X163169600Y-105428440D01*
X150476840Y-102870000D02*
X149194000Y-104152840D01*
X173355000Y-97790000D02*
X168275000Y-102870000D01*
X168275000Y-102870000D02*
X150476840Y-102870000D01*
X170815000Y-97790000D02*
X166370000Y-102235000D01*
X146654000Y-103536000D02*
X146654000Y-104152840D01*
X147955000Y-102235000D02*
X146654000Y-103536000D01*
X166370000Y-102235000D02*
X147955000Y-102235000D01*
X168275000Y-97790000D02*
X168275000Y-97974998D01*
X144126840Y-101600000D02*
X141574000Y-104152840D01*
X164649998Y-101600000D02*
X144126840Y-101600000D01*
X168275000Y-97974998D02*
X164649998Y-101600000D01*
X137718802Y-109270798D02*
X136753600Y-110236000D01*
X137718802Y-108305600D02*
X137718802Y-109270798D01*
X136494000Y-104152840D02*
X135204200Y-105442640D01*
X135204200Y-109499400D02*
X134467600Y-110236000D01*
X135204200Y-105442640D02*
X135204200Y-109499400D01*
X147955000Y-100330000D02*
X133985000Y-100330000D01*
X153187400Y-111556800D02*
X150215600Y-108585000D01*
X150215600Y-108585000D02*
X147955000Y-108585000D01*
X155244800Y-111556800D02*
X153187400Y-111556800D01*
X156565600Y-110236000D02*
X155244800Y-111556800D01*
X165735000Y-97790000D02*
X165735000Y-97974998D01*
X134601840Y-100965000D02*
X131414000Y-104152840D01*
X162744998Y-100965000D02*
X134601840Y-100965000D01*
X165735000Y-97974998D02*
X162744998Y-100965000D01*
X132715000Y-97790000D02*
X134620000Y-99695000D01*
X149225000Y-100330000D02*
X161925000Y-100330000D01*
X148590000Y-99695000D02*
X149225000Y-100330000D01*
X134620000Y-99695000D02*
X148590000Y-99695000D01*
X155575000Y-105453840D02*
X154274000Y-104152840D01*
X156814000Y-104152840D02*
X156814000Y-104214840D01*
X156814000Y-104214840D02*
X155575000Y-105453840D01*
X155575000Y-107619800D02*
X155575000Y-107111800D01*
X156235400Y-108280200D02*
X155575000Y-107619800D01*
X156997400Y-108280200D02*
X156235400Y-108280200D01*
X155575000Y-107111800D02*
X155575000Y-105453840D01*
X160655000Y-111937800D02*
X156997400Y-108280200D01*
X160655000Y-113030000D02*
X160655000Y-111937800D01*
X135839200Y-113030000D02*
X135255000Y-113030000D01*
X140208000Y-108661200D02*
X135839200Y-113030000D01*
X145084800Y-108661200D02*
X140208000Y-108661200D01*
X146659600Y-110236000D02*
X145084800Y-108661200D01*
X153390600Y-110236000D02*
X154279600Y-110236000D01*
X150495000Y-107340400D02*
X153390600Y-110236000D01*
X150495000Y-105410000D02*
X150495000Y-107340400D01*
D19*
G36*
X177038000Y-116078000D02*
G01*
X117602000Y-116078000D01*
X117602000Y-112888665D01*
X123660000Y-112888665D01*
X123660000Y-113171335D01*
X123715147Y-113448574D01*
X123823320Y-113709727D01*
X123980363Y-113944759D01*
X124180241Y-114144637D01*
X124415273Y-114301680D01*
X124676426Y-114409853D01*
X124953665Y-114465000D01*
X125236335Y-114465000D01*
X125513574Y-114409853D01*
X125774727Y-114301680D01*
X126009759Y-114144637D01*
X126209637Y-113944759D01*
X126365000Y-113712241D01*
X126520363Y-113944759D01*
X126720241Y-114144637D01*
X126955273Y-114301680D01*
X127216426Y-114409853D01*
X127493665Y-114465000D01*
X127776335Y-114465000D01*
X128053574Y-114409853D01*
X128314727Y-114301680D01*
X128549759Y-114144637D01*
X128749637Y-113944759D01*
X128905000Y-113712241D01*
X129060363Y-113944759D01*
X129260241Y-114144637D01*
X129495273Y-114301680D01*
X129756426Y-114409853D01*
X130033665Y-114465000D01*
X130316335Y-114465000D01*
X130593574Y-114409853D01*
X130854727Y-114301680D01*
X131089759Y-114144637D01*
X131289637Y-113944759D01*
X131445000Y-113712241D01*
X131600363Y-113944759D01*
X131800241Y-114144637D01*
X132035273Y-114301680D01*
X132296426Y-114409853D01*
X132573665Y-114465000D01*
X132856335Y-114465000D01*
X133133574Y-114409853D01*
X133394727Y-114301680D01*
X133629759Y-114144637D01*
X133829637Y-113944759D01*
X133985000Y-113712241D01*
X134140363Y-113944759D01*
X134340241Y-114144637D01*
X134575273Y-114301680D01*
X134836426Y-114409853D01*
X135113665Y-114465000D01*
X135396335Y-114465000D01*
X135673574Y-114409853D01*
X135934727Y-114301680D01*
X136169759Y-114144637D01*
X136369637Y-113944759D01*
X136525000Y-113712241D01*
X136680363Y-113944759D01*
X136880241Y-114144637D01*
X137115273Y-114301680D01*
X137376426Y-114409853D01*
X137653665Y-114465000D01*
X137936335Y-114465000D01*
X138213574Y-114409853D01*
X138474727Y-114301680D01*
X138709759Y-114144637D01*
X138909637Y-113944759D01*
X139065000Y-113712241D01*
X139220363Y-113944759D01*
X139420241Y-114144637D01*
X139655273Y-114301680D01*
X139916426Y-114409853D01*
X140193665Y-114465000D01*
X140476335Y-114465000D01*
X140753574Y-114409853D01*
X141014727Y-114301680D01*
X141249759Y-114144637D01*
X141449637Y-113944759D01*
X141605000Y-113712241D01*
X141760363Y-113944759D01*
X141960241Y-114144637D01*
X142195273Y-114301680D01*
X142456426Y-114409853D01*
X142733665Y-114465000D01*
X143016335Y-114465000D01*
X143293574Y-114409853D01*
X143554727Y-114301680D01*
X143789759Y-114144637D01*
X143989637Y-113944759D01*
X144145000Y-113712241D01*
X144300363Y-113944759D01*
X144500241Y-114144637D01*
X144735273Y-114301680D01*
X144996426Y-114409853D01*
X145273665Y-114465000D01*
X145556335Y-114465000D01*
X145833574Y-114409853D01*
X146094727Y-114301680D01*
X146329759Y-114144637D01*
X146529637Y-113944759D01*
X146685000Y-113712241D01*
X146840363Y-113944759D01*
X147040241Y-114144637D01*
X147275273Y-114301680D01*
X147536426Y-114409853D01*
X147813665Y-114465000D01*
X148096335Y-114465000D01*
X148373574Y-114409853D01*
X148634727Y-114301680D01*
X148869759Y-114144637D01*
X149069637Y-113944759D01*
X149225000Y-113712241D01*
X149380363Y-113944759D01*
X149580241Y-114144637D01*
X149815273Y-114301680D01*
X150076426Y-114409853D01*
X150353665Y-114465000D01*
X150636335Y-114465000D01*
X150913574Y-114409853D01*
X151174727Y-114301680D01*
X151409759Y-114144637D01*
X151609637Y-113944759D01*
X151765000Y-113712241D01*
X151920363Y-113944759D01*
X152120241Y-114144637D01*
X152355273Y-114301680D01*
X152616426Y-114409853D01*
X152893665Y-114465000D01*
X153176335Y-114465000D01*
X153453574Y-114409853D01*
X153714727Y-114301680D01*
X153949759Y-114144637D01*
X154149637Y-113944759D01*
X154305000Y-113712241D01*
X154460363Y-113944759D01*
X154660241Y-114144637D01*
X154895273Y-114301680D01*
X155156426Y-114409853D01*
X155433665Y-114465000D01*
X155716335Y-114465000D01*
X155993574Y-114409853D01*
X156254727Y-114301680D01*
X156489759Y-114144637D01*
X156689637Y-113944759D01*
X156845000Y-113712241D01*
X157000363Y-113944759D01*
X157200241Y-114144637D01*
X157435273Y-114301680D01*
X157696426Y-114409853D01*
X157973665Y-114465000D01*
X158256335Y-114465000D01*
X158533574Y-114409853D01*
X158794727Y-114301680D01*
X159029759Y-114144637D01*
X159229637Y-113944759D01*
X159385000Y-113712241D01*
X159540363Y-113944759D01*
X159740241Y-114144637D01*
X159975273Y-114301680D01*
X160236426Y-114409853D01*
X160513665Y-114465000D01*
X160796335Y-114465000D01*
X161073574Y-114409853D01*
X161334727Y-114301680D01*
X161569759Y-114144637D01*
X161769637Y-113944759D01*
X161925000Y-113712241D01*
X162080363Y-113944759D01*
X162280241Y-114144637D01*
X162515273Y-114301680D01*
X162776426Y-114409853D01*
X163053665Y-114465000D01*
X163336335Y-114465000D01*
X163613574Y-114409853D01*
X163874727Y-114301680D01*
X164109759Y-114144637D01*
X164309637Y-113944759D01*
X164465000Y-113712241D01*
X164620363Y-113944759D01*
X164820241Y-114144637D01*
X165055273Y-114301680D01*
X165316426Y-114409853D01*
X165593665Y-114465000D01*
X165876335Y-114465000D01*
X166153574Y-114409853D01*
X166414727Y-114301680D01*
X166649759Y-114144637D01*
X166849637Y-113944759D01*
X167005000Y-113712241D01*
X167160363Y-113944759D01*
X167360241Y-114144637D01*
X167595273Y-114301680D01*
X167856426Y-114409853D01*
X168133665Y-114465000D01*
X168416335Y-114465000D01*
X168693574Y-114409853D01*
X168954727Y-114301680D01*
X169189759Y-114144637D01*
X169389637Y-113944759D01*
X169545000Y-113712241D01*
X169700363Y-113944759D01*
X169900241Y-114144637D01*
X170135273Y-114301680D01*
X170396426Y-114409853D01*
X170673665Y-114465000D01*
X170956335Y-114465000D01*
X171233574Y-114409853D01*
X171494727Y-114301680D01*
X171729759Y-114144637D01*
X171929637Y-113944759D01*
X172085000Y-113712241D01*
X172240363Y-113944759D01*
X172440241Y-114144637D01*
X172675273Y-114301680D01*
X172936426Y-114409853D01*
X173213665Y-114465000D01*
X173496335Y-114465000D01*
X173773574Y-114409853D01*
X174034727Y-114301680D01*
X174269759Y-114144637D01*
X174469637Y-113944759D01*
X174626680Y-113709727D01*
X174734853Y-113448574D01*
X174790000Y-113171335D01*
X174790000Y-112888665D01*
X174734853Y-112611426D01*
X174626680Y-112350273D01*
X174469637Y-112115241D01*
X174269759Y-111915363D01*
X174034727Y-111758320D01*
X173773574Y-111650147D01*
X173496335Y-111595000D01*
X173213665Y-111595000D01*
X172936426Y-111650147D01*
X172675273Y-111758320D01*
X172440241Y-111915363D01*
X172240363Y-112115241D01*
X172085000Y-112347759D01*
X171929637Y-112115241D01*
X171729759Y-111915363D01*
X171494727Y-111758320D01*
X171233574Y-111650147D01*
X170956335Y-111595000D01*
X170673665Y-111595000D01*
X170396426Y-111650147D01*
X170135273Y-111758320D01*
X169900241Y-111915363D01*
X169700363Y-112115241D01*
X169545000Y-112347759D01*
X169389637Y-112115241D01*
X169189759Y-111915363D01*
X168954727Y-111758320D01*
X168693574Y-111650147D01*
X168416335Y-111595000D01*
X168133665Y-111595000D01*
X167856426Y-111650147D01*
X167595273Y-111758320D01*
X167360241Y-111915363D01*
X167160363Y-112115241D01*
X167005000Y-112347759D01*
X166849637Y-112115241D01*
X166649759Y-111915363D01*
X166414727Y-111758320D01*
X166153574Y-111650147D01*
X165876335Y-111595000D01*
X165593665Y-111595000D01*
X165316426Y-111650147D01*
X165055273Y-111758320D01*
X164820241Y-111915363D01*
X164620363Y-112115241D01*
X164465000Y-112347759D01*
X164309637Y-112115241D01*
X164109759Y-111915363D01*
X163874727Y-111758320D01*
X163613574Y-111650147D01*
X163336335Y-111595000D01*
X163053665Y-111595000D01*
X162871114Y-111631312D01*
X162468504Y-111228702D01*
X163372503Y-111228702D01*
X163444086Y-111472671D01*
X163699596Y-111593571D01*
X163973784Y-111662300D01*
X164256112Y-111676217D01*
X164535730Y-111634787D01*
X164801892Y-111539603D01*
X164927114Y-111472671D01*
X164998697Y-111228702D01*
X165658503Y-111228702D01*
X165730086Y-111472671D01*
X165985596Y-111593571D01*
X166259784Y-111662300D01*
X166542112Y-111676217D01*
X166821730Y-111634787D01*
X167087892Y-111539603D01*
X167213114Y-111472671D01*
X167284697Y-111228702D01*
X166471600Y-110415605D01*
X165658503Y-111228702D01*
X164998697Y-111228702D01*
X164185600Y-110415605D01*
X163372503Y-111228702D01*
X162468504Y-111228702D01*
X161546314Y-110306512D01*
X162745383Y-110306512D01*
X162786813Y-110586130D01*
X162881997Y-110852292D01*
X162948929Y-110977514D01*
X163192898Y-111049097D01*
X164005995Y-110236000D01*
X164365205Y-110236000D01*
X165178302Y-111049097D01*
X165328600Y-111004998D01*
X165478898Y-111049097D01*
X166291995Y-110236000D01*
X166651205Y-110236000D01*
X167464302Y-111049097D01*
X167708271Y-110977514D01*
X167829171Y-110722004D01*
X167897900Y-110447816D01*
X167911817Y-110165488D01*
X167870387Y-109885870D01*
X167775203Y-109619708D01*
X167708271Y-109494486D01*
X167464302Y-109422903D01*
X166651205Y-110236000D01*
X166291995Y-110236000D01*
X165478898Y-109422903D01*
X165328600Y-109467002D01*
X165178302Y-109422903D01*
X164365205Y-110236000D01*
X164005995Y-110236000D01*
X163192898Y-109422903D01*
X162948929Y-109494486D01*
X162828029Y-109749996D01*
X162759300Y-110024184D01*
X162745383Y-110306512D01*
X161546314Y-110306512D01*
X160483100Y-109243298D01*
X163372503Y-109243298D01*
X164185600Y-110056395D01*
X164998697Y-109243298D01*
X165658503Y-109243298D01*
X166471600Y-110056395D01*
X167284697Y-109243298D01*
X167213114Y-108999329D01*
X166957604Y-108878429D01*
X166683416Y-108809700D01*
X166401088Y-108795783D01*
X166121470Y-108837213D01*
X165855308Y-108932397D01*
X165730086Y-108999329D01*
X165658503Y-109243298D01*
X164998697Y-109243298D01*
X164927114Y-108999329D01*
X164671604Y-108878429D01*
X164397416Y-108809700D01*
X164115088Y-108795783D01*
X163835470Y-108837213D01*
X163569308Y-108932397D01*
X163444086Y-108999329D01*
X163372503Y-109243298D01*
X160483100Y-109243298D01*
X159431241Y-108191440D01*
X159501599Y-108191440D01*
X159791125Y-108133850D01*
X160063853Y-108020882D01*
X160309302Y-107856879D01*
X160518039Y-107648142D01*
X160624000Y-107489559D01*
X160729961Y-107648142D01*
X160938698Y-107856879D01*
X161184147Y-108020882D01*
X161456875Y-108133850D01*
X161746401Y-108191440D01*
X162041599Y-108191440D01*
X162331125Y-108133850D01*
X162603853Y-108020882D01*
X162849302Y-107856879D01*
X163058039Y-107648142D01*
X163164000Y-107489559D01*
X163269961Y-107648142D01*
X163478698Y-107856879D01*
X163724147Y-108020882D01*
X163996875Y-108133850D01*
X164286401Y-108191440D01*
X164581599Y-108191440D01*
X164871125Y-108133850D01*
X165143853Y-108020882D01*
X165389302Y-107856879D01*
X165598039Y-107648142D01*
X165704000Y-107489559D01*
X165809961Y-107648142D01*
X166018698Y-107856879D01*
X166264147Y-108020882D01*
X166536875Y-108133850D01*
X166826401Y-108191440D01*
X167121599Y-108191440D01*
X167411125Y-108133850D01*
X167683853Y-108020882D01*
X167929302Y-107856879D01*
X168043364Y-107742817D01*
X168060898Y-107800620D01*
X168119863Y-107910934D01*
X168199215Y-108007625D01*
X168295906Y-108086977D01*
X168406220Y-108145942D01*
X168525918Y-108182252D01*
X168650400Y-108194512D01*
X170377600Y-108194512D01*
X170502082Y-108182252D01*
X170621780Y-108145942D01*
X170732094Y-108086977D01*
X170828785Y-108007625D01*
X170908137Y-107910934D01*
X170967102Y-107800620D01*
X171003412Y-107680922D01*
X171015672Y-107556440D01*
X171015672Y-106787073D01*
X173280619Y-109052021D01*
X173176841Y-109121363D01*
X172976963Y-109321241D01*
X172819920Y-109556273D01*
X172711747Y-109817426D01*
X172656600Y-110094665D01*
X172656600Y-110377335D01*
X172711747Y-110654574D01*
X172819920Y-110915727D01*
X172976963Y-111150759D01*
X173176841Y-111350637D01*
X173411873Y-111507680D01*
X173673026Y-111615853D01*
X173950265Y-111671000D01*
X174232935Y-111671000D01*
X174510174Y-111615853D01*
X174771327Y-111507680D01*
X175006359Y-111350637D01*
X175206237Y-111150759D01*
X175363280Y-110915727D01*
X175471453Y-110654574D01*
X175526600Y-110377335D01*
X175526600Y-110094665D01*
X175471453Y-109817426D01*
X175363280Y-109556273D01*
X175206237Y-109321241D01*
X175006359Y-109121363D01*
X174851600Y-109017957D01*
X174851600Y-108825522D01*
X174855276Y-108788199D01*
X174851600Y-108750876D01*
X174851600Y-108750867D01*
X174840603Y-108639214D01*
X174797146Y-108495953D01*
X174726574Y-108363924D01*
X174631601Y-108248199D01*
X174602604Y-108224402D01*
X171295644Y-104917443D01*
X171271841Y-104888439D01*
X171156116Y-104793466D01*
X171024087Y-104722894D01*
X170913806Y-104689441D01*
X170955010Y-104589965D01*
X171012600Y-104300439D01*
X171012600Y-104005241D01*
X170955010Y-103715715D01*
X170842042Y-103442987D01*
X170678039Y-103197538D01*
X170469302Y-102988801D01*
X170223853Y-102824798D01*
X169951125Y-102711830D01*
X169661599Y-102654240D01*
X169565561Y-102654240D01*
X173031114Y-99188688D01*
X173213665Y-99225000D01*
X173496335Y-99225000D01*
X173773574Y-99169853D01*
X174034727Y-99061680D01*
X174269759Y-98904637D01*
X174469637Y-98704759D01*
X174626680Y-98469727D01*
X174734853Y-98208574D01*
X174790000Y-97931335D01*
X174790000Y-97648665D01*
X174734853Y-97371426D01*
X174626680Y-97110273D01*
X174469637Y-96875241D01*
X174269759Y-96675363D01*
X174034727Y-96518320D01*
X173773574Y-96410147D01*
X173496335Y-96355000D01*
X173213665Y-96355000D01*
X172936426Y-96410147D01*
X172675273Y-96518320D01*
X172440241Y-96675363D01*
X172240363Y-96875241D01*
X172085000Y-97107759D01*
X171929637Y-96875241D01*
X171729759Y-96675363D01*
X171494727Y-96518320D01*
X171233574Y-96410147D01*
X170956335Y-96355000D01*
X170673665Y-96355000D01*
X170396426Y-96410147D01*
X170135273Y-96518320D01*
X169900241Y-96675363D01*
X169700363Y-96875241D01*
X169545000Y-97107759D01*
X169389637Y-96875241D01*
X169189759Y-96675363D01*
X168954727Y-96518320D01*
X168693574Y-96410147D01*
X168416335Y-96355000D01*
X168133665Y-96355000D01*
X167856426Y-96410147D01*
X167595273Y-96518320D01*
X167360241Y-96675363D01*
X167160363Y-96875241D01*
X167005000Y-97107759D01*
X166849637Y-96875241D01*
X166649759Y-96675363D01*
X166414727Y-96518320D01*
X166153574Y-96410147D01*
X165876335Y-96355000D01*
X165593665Y-96355000D01*
X165316426Y-96410147D01*
X165055273Y-96518320D01*
X164820241Y-96675363D01*
X164620363Y-96875241D01*
X164465000Y-97107759D01*
X164309637Y-96875241D01*
X164109759Y-96675363D01*
X163874727Y-96518320D01*
X163613574Y-96410147D01*
X163336335Y-96355000D01*
X163053665Y-96355000D01*
X162776426Y-96410147D01*
X162515273Y-96518320D01*
X162280241Y-96675363D01*
X162080363Y-96875241D01*
X161925000Y-97107759D01*
X161769637Y-96875241D01*
X161569759Y-96675363D01*
X161334727Y-96518320D01*
X161073574Y-96410147D01*
X160796335Y-96355000D01*
X160513665Y-96355000D01*
X160236426Y-96410147D01*
X159975273Y-96518320D01*
X159740241Y-96675363D01*
X159540363Y-96875241D01*
X159385000Y-97107759D01*
X159229637Y-96875241D01*
X159029759Y-96675363D01*
X158794727Y-96518320D01*
X158533574Y-96410147D01*
X158256335Y-96355000D01*
X157973665Y-96355000D01*
X157696426Y-96410147D01*
X157435273Y-96518320D01*
X157200241Y-96675363D01*
X157000363Y-96875241D01*
X156845000Y-97107759D01*
X156689637Y-96875241D01*
X156489759Y-96675363D01*
X156254727Y-96518320D01*
X155993574Y-96410147D01*
X155716335Y-96355000D01*
X155433665Y-96355000D01*
X155156426Y-96410147D01*
X154895273Y-96518320D01*
X154660241Y-96675363D01*
X154460363Y-96875241D01*
X154305000Y-97107759D01*
X154149637Y-96875241D01*
X153949759Y-96675363D01*
X153714727Y-96518320D01*
X153453574Y-96410147D01*
X153176335Y-96355000D01*
X152893665Y-96355000D01*
X152616426Y-96410147D01*
X152355273Y-96518320D01*
X152120241Y-96675363D01*
X151920363Y-96875241D01*
X151765000Y-97107759D01*
X151609637Y-96875241D01*
X151409759Y-96675363D01*
X151174727Y-96518320D01*
X150913574Y-96410147D01*
X150636335Y-96355000D01*
X150353665Y-96355000D01*
X150076426Y-96410147D01*
X149815273Y-96518320D01*
X149580241Y-96675363D01*
X149380363Y-96875241D01*
X149225000Y-97107759D01*
X149069637Y-96875241D01*
X148869759Y-96675363D01*
X148634727Y-96518320D01*
X148373574Y-96410147D01*
X148096335Y-96355000D01*
X147813665Y-96355000D01*
X147536426Y-96410147D01*
X147275273Y-96518320D01*
X147040241Y-96675363D01*
X146840363Y-96875241D01*
X146685000Y-97107759D01*
X146529637Y-96875241D01*
X146329759Y-96675363D01*
X146094727Y-96518320D01*
X145833574Y-96410147D01*
X145556335Y-96355000D01*
X145273665Y-96355000D01*
X144996426Y-96410147D01*
X144735273Y-96518320D01*
X144500241Y-96675363D01*
X144300363Y-96875241D01*
X144145000Y-97107759D01*
X143989637Y-96875241D01*
X143789759Y-96675363D01*
X143554727Y-96518320D01*
X143293574Y-96410147D01*
X143016335Y-96355000D01*
X142733665Y-96355000D01*
X142456426Y-96410147D01*
X142195273Y-96518320D01*
X141960241Y-96675363D01*
X141760363Y-96875241D01*
X141605000Y-97107759D01*
X141449637Y-96875241D01*
X141249759Y-96675363D01*
X141014727Y-96518320D01*
X140753574Y-96410147D01*
X140476335Y-96355000D01*
X140193665Y-96355000D01*
X139916426Y-96410147D01*
X139655273Y-96518320D01*
X139420241Y-96675363D01*
X139220363Y-96875241D01*
X139065000Y-97107759D01*
X138909637Y-96875241D01*
X138709759Y-96675363D01*
X138474727Y-96518320D01*
X138213574Y-96410147D01*
X137936335Y-96355000D01*
X137653665Y-96355000D01*
X137376426Y-96410147D01*
X137115273Y-96518320D01*
X136880241Y-96675363D01*
X136680363Y-96875241D01*
X136525000Y-97107759D01*
X136369637Y-96875241D01*
X136169759Y-96675363D01*
X135934727Y-96518320D01*
X135673574Y-96410147D01*
X135396335Y-96355000D01*
X135113665Y-96355000D01*
X134836426Y-96410147D01*
X134575273Y-96518320D01*
X134340241Y-96675363D01*
X134140363Y-96875241D01*
X133985000Y-97107759D01*
X133829637Y-96875241D01*
X133629759Y-96675363D01*
X133394727Y-96518320D01*
X133133574Y-96410147D01*
X132856335Y-96355000D01*
X132573665Y-96355000D01*
X132296426Y-96410147D01*
X132035273Y-96518320D01*
X131800241Y-96675363D01*
X131600363Y-96875241D01*
X131443320Y-97110273D01*
X131438933Y-97120865D01*
X131327385Y-96934869D01*
X131138414Y-96726481D01*
X130912420Y-96558963D01*
X130658087Y-96438754D01*
X130524039Y-96398096D01*
X130302000Y-96520085D01*
X130302000Y-97663000D01*
X130322000Y-97663000D01*
X130322000Y-97917000D01*
X130302000Y-97917000D01*
X130302000Y-99059915D01*
X130524039Y-99181904D01*
X130658087Y-99141246D01*
X130912420Y-99021037D01*
X131138414Y-98853519D01*
X131327385Y-98645131D01*
X131438933Y-98459135D01*
X131443320Y-98469727D01*
X131600363Y-98704759D01*
X131800241Y-98904637D01*
X132035273Y-99061680D01*
X132296426Y-99169853D01*
X132573665Y-99225000D01*
X132856335Y-99225000D01*
X133038886Y-99188688D01*
X133427915Y-99577717D01*
X133388972Y-99603738D01*
X133258738Y-99733972D01*
X133156414Y-99887111D01*
X133085932Y-100057271D01*
X133050000Y-100237911D01*
X133050000Y-100422089D01*
X133085932Y-100602729D01*
X133156414Y-100772889D01*
X133258738Y-100926028D01*
X133388972Y-101056262D01*
X133417029Y-101075009D01*
X131791974Y-102700064D01*
X131561599Y-102654240D01*
X131266401Y-102654240D01*
X130976875Y-102711830D01*
X130704147Y-102824798D01*
X130458698Y-102988801D01*
X130249961Y-103197538D01*
X130144000Y-103356121D01*
X130038039Y-103197538D01*
X129829302Y-102988801D01*
X129583853Y-102824798D01*
X129311125Y-102711830D01*
X129021599Y-102654240D01*
X128726401Y-102654240D01*
X128436875Y-102711830D01*
X128164147Y-102824798D01*
X127918698Y-102988801D01*
X127709961Y-103197538D01*
X127545958Y-103442987D01*
X127432990Y-103715715D01*
X127375400Y-104005241D01*
X127375400Y-104300439D01*
X127432990Y-104589965D01*
X127545958Y-104862693D01*
X127709961Y-105108142D01*
X127918698Y-105316879D01*
X128077281Y-105422840D01*
X127918698Y-105528801D01*
X127709961Y-105737538D01*
X127545958Y-105982987D01*
X127432990Y-106255715D01*
X127375400Y-106545241D01*
X127375400Y-106840439D01*
X127432990Y-107129965D01*
X127545958Y-107402693D01*
X127709961Y-107648142D01*
X127918698Y-107856879D01*
X128164147Y-108020882D01*
X128436875Y-108133850D01*
X128726401Y-108191440D01*
X129021599Y-108191440D01*
X129311125Y-108133850D01*
X129583853Y-108020882D01*
X129829302Y-107856879D01*
X130038039Y-107648142D01*
X130144000Y-107489559D01*
X130249961Y-107648142D01*
X130458698Y-107856879D01*
X130704147Y-108020882D01*
X130976875Y-108133850D01*
X131266401Y-108191440D01*
X131561599Y-108191440D01*
X131851125Y-108133850D01*
X132123853Y-108020882D01*
X132369302Y-107856879D01*
X132578039Y-107648142D01*
X132684000Y-107489559D01*
X132789961Y-107648142D01*
X132998698Y-107856879D01*
X133244147Y-108020882D01*
X133516875Y-108133850D01*
X133806401Y-108191440D01*
X134101599Y-108191440D01*
X134391125Y-108133850D01*
X134444201Y-108111865D01*
X134444201Y-108801000D01*
X134326265Y-108801000D01*
X134049026Y-108856147D01*
X133787873Y-108964320D01*
X133552841Y-109121363D01*
X133352963Y-109321241D01*
X133195920Y-109556273D01*
X133087747Y-109817426D01*
X133032600Y-110094665D01*
X133032600Y-110377335D01*
X133087747Y-110654574D01*
X133195920Y-110915727D01*
X133352963Y-111150759D01*
X133552841Y-111350637D01*
X133787873Y-111507680D01*
X134049026Y-111615853D01*
X134326265Y-111671000D01*
X134608935Y-111671000D01*
X134886174Y-111615853D01*
X135147327Y-111507680D01*
X135382359Y-111350637D01*
X135582237Y-111150759D01*
X135610600Y-111108311D01*
X135638963Y-111150759D01*
X135838841Y-111350637D01*
X136073873Y-111507680D01*
X136224378Y-111570021D01*
X135995483Y-111798916D01*
X135934727Y-111758320D01*
X135673574Y-111650147D01*
X135396335Y-111595000D01*
X135113665Y-111595000D01*
X134836426Y-111650147D01*
X134575273Y-111758320D01*
X134340241Y-111915363D01*
X134140363Y-112115241D01*
X133985000Y-112347759D01*
X133829637Y-112115241D01*
X133629759Y-111915363D01*
X133394727Y-111758320D01*
X133133574Y-111650147D01*
X132856335Y-111595000D01*
X132573665Y-111595000D01*
X132296426Y-111650147D01*
X132035273Y-111758320D01*
X131800241Y-111915363D01*
X131600363Y-112115241D01*
X131445000Y-112347759D01*
X131289637Y-112115241D01*
X131089759Y-111915363D01*
X130854727Y-111758320D01*
X130593574Y-111650147D01*
X130316335Y-111595000D01*
X130033665Y-111595000D01*
X129756426Y-111650147D01*
X129495273Y-111758320D01*
X129260241Y-111915363D01*
X129060363Y-112115241D01*
X128905000Y-112347759D01*
X128749637Y-112115241D01*
X128549759Y-111915363D01*
X128314727Y-111758320D01*
X128053574Y-111650147D01*
X127776335Y-111595000D01*
X127493665Y-111595000D01*
X127216426Y-111650147D01*
X126955273Y-111758320D01*
X126720241Y-111915363D01*
X126520363Y-112115241D01*
X126365000Y-112347759D01*
X126209637Y-112115241D01*
X126009759Y-111915363D01*
X125774727Y-111758320D01*
X125513574Y-111650147D01*
X125236335Y-111595000D01*
X124953665Y-111595000D01*
X124676426Y-111650147D01*
X124415273Y-111758320D01*
X124180241Y-111915363D01*
X123980363Y-112115241D01*
X123823320Y-112350273D01*
X123715147Y-112611426D01*
X123660000Y-112888665D01*
X117602000Y-112888665D01*
X117602000Y-111228702D01*
X126034503Y-111228702D01*
X126106086Y-111472671D01*
X126361596Y-111593571D01*
X126635784Y-111662300D01*
X126918112Y-111676217D01*
X127197730Y-111634787D01*
X127463892Y-111539603D01*
X127589114Y-111472671D01*
X127660697Y-111228702D01*
X126847600Y-110415605D01*
X126034503Y-111228702D01*
X117602000Y-111228702D01*
X117602000Y-103822500D01*
X119309249Y-103822500D01*
X119338184Y-104116277D01*
X119423875Y-104398764D01*
X119563031Y-104659106D01*
X119750303Y-104887297D01*
X119978494Y-105074569D01*
X120012040Y-105092500D01*
X119978494Y-105110431D01*
X119750303Y-105297703D01*
X119563031Y-105525894D01*
X119423875Y-105786236D01*
X119338184Y-106068723D01*
X119309249Y-106362500D01*
X119338184Y-106656277D01*
X119423875Y-106938764D01*
X119563031Y-107199106D01*
X119750303Y-107427297D01*
X119758365Y-107433914D01*
X119707320Y-107449398D01*
X119597006Y-107508363D01*
X119500315Y-107587715D01*
X119420963Y-107684406D01*
X119361998Y-107794720D01*
X119325688Y-107914418D01*
X119313428Y-108038900D01*
X119313428Y-109766100D01*
X119325688Y-109890582D01*
X119361998Y-110010280D01*
X119420963Y-110120594D01*
X119500315Y-110217285D01*
X119597006Y-110296637D01*
X119707320Y-110355602D01*
X119827018Y-110391912D01*
X119951500Y-110404172D01*
X121983500Y-110404172D01*
X122107982Y-110391912D01*
X122227680Y-110355602D01*
X122319519Y-110306512D01*
X125407383Y-110306512D01*
X125448813Y-110586130D01*
X125543997Y-110852292D01*
X125610929Y-110977514D01*
X125854898Y-111049097D01*
X126667995Y-110236000D01*
X127027205Y-110236000D01*
X127840302Y-111049097D01*
X128084271Y-110977514D01*
X128205171Y-110722004D01*
X128273900Y-110447816D01*
X128287817Y-110165488D01*
X128246387Y-109885870D01*
X128151203Y-109619708D01*
X128084271Y-109494486D01*
X127840302Y-109422903D01*
X127027205Y-110236000D01*
X126667995Y-110236000D01*
X125854898Y-109422903D01*
X125610929Y-109494486D01*
X125490029Y-109749996D01*
X125421300Y-110024184D01*
X125407383Y-110306512D01*
X122319519Y-110306512D01*
X122337994Y-110296637D01*
X122434685Y-110217285D01*
X122514037Y-110120594D01*
X122573002Y-110010280D01*
X122609312Y-109890582D01*
X122621572Y-109766100D01*
X122621572Y-109243298D01*
X126034503Y-109243298D01*
X126847600Y-110056395D01*
X127660697Y-109243298D01*
X127589114Y-108999329D01*
X127333604Y-108878429D01*
X127059416Y-108809700D01*
X126777088Y-108795783D01*
X126497470Y-108837213D01*
X126231308Y-108932397D01*
X126106086Y-108999329D01*
X126034503Y-109243298D01*
X122621572Y-109243298D01*
X122621572Y-108038900D01*
X122609312Y-107914418D01*
X122573002Y-107794720D01*
X122514037Y-107684406D01*
X122434685Y-107587715D01*
X122337994Y-107508363D01*
X122227680Y-107449398D01*
X122176635Y-107433914D01*
X122184697Y-107427297D01*
X122371969Y-107199106D01*
X122511125Y-106938764D01*
X122596816Y-106656277D01*
X122625751Y-106362500D01*
X122596816Y-106068723D01*
X122511125Y-105786236D01*
X122371969Y-105525894D01*
X122184697Y-105297703D01*
X121956506Y-105110431D01*
X121922960Y-105092500D01*
X121956506Y-105074569D01*
X122184697Y-104887297D01*
X122371969Y-104659106D01*
X122511125Y-104398764D01*
X122596816Y-104116277D01*
X122625751Y-103822500D01*
X122596816Y-103528723D01*
X122511125Y-103246236D01*
X122371969Y-102985894D01*
X122184697Y-102757703D01*
X121956506Y-102570431D01*
X121916553Y-102549076D01*
X122119229Y-102400986D01*
X122318233Y-102184535D01*
X122471186Y-101933419D01*
X122572209Y-101657289D01*
X122574858Y-101641526D01*
X122453717Y-101409500D01*
X121094500Y-101409500D01*
X121094500Y-101429500D01*
X120840500Y-101429500D01*
X120840500Y-101409500D01*
X119481283Y-101409500D01*
X119360142Y-101641526D01*
X119362791Y-101657289D01*
X119463814Y-101933419D01*
X119616767Y-102184535D01*
X119815771Y-102400986D01*
X120018447Y-102549076D01*
X119978494Y-102570431D01*
X119750303Y-102757703D01*
X119563031Y-102985894D01*
X119423875Y-103246236D01*
X119338184Y-103528723D01*
X119309249Y-103822500D01*
X117602000Y-103822500D01*
X117602000Y-100923474D01*
X119360142Y-100923474D01*
X119481283Y-101155500D01*
X120840500Y-101155500D01*
X120840500Y-99941575D01*
X121094500Y-99941575D01*
X121094500Y-101155500D01*
X122453717Y-101155500D01*
X122574858Y-100923474D01*
X122572209Y-100907711D01*
X122471186Y-100631581D01*
X122318233Y-100380465D01*
X122119229Y-100164014D01*
X121881821Y-99990546D01*
X121615133Y-99866727D01*
X121329414Y-99797315D01*
X121094500Y-99941575D01*
X120840500Y-99941575D01*
X120605586Y-99797315D01*
X120319867Y-99866727D01*
X120053179Y-99990546D01*
X119815771Y-100164014D01*
X119616767Y-100380465D01*
X119463814Y-100631581D01*
X119362791Y-100907711D01*
X119360142Y-100923474D01*
X117602000Y-100923474D01*
X117602000Y-97648665D01*
X123660000Y-97648665D01*
X123660000Y-97931335D01*
X123715147Y-98208574D01*
X123823320Y-98469727D01*
X123980363Y-98704759D01*
X124180241Y-98904637D01*
X124415273Y-99061680D01*
X124676426Y-99169853D01*
X124953665Y-99225000D01*
X125236335Y-99225000D01*
X125513574Y-99169853D01*
X125774727Y-99061680D01*
X126009759Y-98904637D01*
X126209637Y-98704759D01*
X126365000Y-98472241D01*
X126520363Y-98704759D01*
X126720241Y-98904637D01*
X126955273Y-99061680D01*
X127216426Y-99169853D01*
X127493665Y-99225000D01*
X127776335Y-99225000D01*
X128053574Y-99169853D01*
X128314727Y-99061680D01*
X128549759Y-98904637D01*
X128749637Y-98704759D01*
X128906680Y-98469727D01*
X128911067Y-98459135D01*
X129022615Y-98645131D01*
X129211586Y-98853519D01*
X129437580Y-99021037D01*
X129691913Y-99141246D01*
X129825961Y-99181904D01*
X130048000Y-99059915D01*
X130048000Y-97917000D01*
X130028000Y-97917000D01*
X130028000Y-97663000D01*
X130048000Y-97663000D01*
X130048000Y-96520085D01*
X129825961Y-96398096D01*
X129691913Y-96438754D01*
X129437580Y-96558963D01*
X129211586Y-96726481D01*
X129022615Y-96934869D01*
X128911067Y-97120865D01*
X128906680Y-97110273D01*
X128749637Y-96875241D01*
X128549759Y-96675363D01*
X128314727Y-96518320D01*
X128053574Y-96410147D01*
X127776335Y-96355000D01*
X127493665Y-96355000D01*
X127216426Y-96410147D01*
X126955273Y-96518320D01*
X126720241Y-96675363D01*
X126520363Y-96875241D01*
X126365000Y-97107759D01*
X126209637Y-96875241D01*
X126009759Y-96675363D01*
X125774727Y-96518320D01*
X125513574Y-96410147D01*
X125236335Y-96355000D01*
X124953665Y-96355000D01*
X124676426Y-96410147D01*
X124415273Y-96518320D01*
X124180241Y-96675363D01*
X123980363Y-96875241D01*
X123823320Y-97110273D01*
X123715147Y-97371426D01*
X123660000Y-97648665D01*
X117602000Y-97648665D01*
X117602000Y-94742000D01*
X177038000Y-94742000D01*
X177038000Y-116078000D01*
G37*
X177038000Y-116078000D02*
X117602000Y-116078000D01*
X117602000Y-112888665D01*
X123660000Y-112888665D01*
X123660000Y-113171335D01*
X123715147Y-113448574D01*
X123823320Y-113709727D01*
X123980363Y-113944759D01*
X124180241Y-114144637D01*
X124415273Y-114301680D01*
X124676426Y-114409853D01*
X124953665Y-114465000D01*
X125236335Y-114465000D01*
X125513574Y-114409853D01*
X125774727Y-114301680D01*
X126009759Y-114144637D01*
X126209637Y-113944759D01*
X126365000Y-113712241D01*
X126520363Y-113944759D01*
X126720241Y-114144637D01*
X126955273Y-114301680D01*
X127216426Y-114409853D01*
X127493665Y-114465000D01*
X127776335Y-114465000D01*
X128053574Y-114409853D01*
X128314727Y-114301680D01*
X128549759Y-114144637D01*
X128749637Y-113944759D01*
X128905000Y-113712241D01*
X129060363Y-113944759D01*
X129260241Y-114144637D01*
X129495273Y-114301680D01*
X129756426Y-114409853D01*
X130033665Y-114465000D01*
X130316335Y-114465000D01*
X130593574Y-114409853D01*
X130854727Y-114301680D01*
X131089759Y-114144637D01*
X131289637Y-113944759D01*
X131445000Y-113712241D01*
X131600363Y-113944759D01*
X131800241Y-114144637D01*
X132035273Y-114301680D01*
X132296426Y-114409853D01*
X132573665Y-114465000D01*
X132856335Y-114465000D01*
X133133574Y-114409853D01*
X133394727Y-114301680D01*
X133629759Y-114144637D01*
X133829637Y-113944759D01*
X133985000Y-113712241D01*
X134140363Y-113944759D01*
X134340241Y-114144637D01*
X134575273Y-114301680D01*
X134836426Y-114409853D01*
X135113665Y-114465000D01*
X135396335Y-114465000D01*
X135673574Y-114409853D01*
X135934727Y-114301680D01*
X136169759Y-114144637D01*
X136369637Y-113944759D01*
X136525000Y-113712241D01*
X136680363Y-113944759D01*
X136880241Y-114144637D01*
X137115273Y-114301680D01*
X137376426Y-114409853D01*
X137653665Y-114465000D01*
X137936335Y-114465000D01*
X138213574Y-114409853D01*
X138474727Y-114301680D01*
X138709759Y-114144637D01*
X138909637Y-113944759D01*
X139065000Y-113712241D01*
X139220363Y-113944759D01*
X139420241Y-114144637D01*
X139655273Y-114301680D01*
X139916426Y-114409853D01*
X140193665Y-114465000D01*
X140476335Y-114465000D01*
X140753574Y-114409853D01*
X141014727Y-114301680D01*
X141249759Y-114144637D01*
X141449637Y-113944759D01*
X141605000Y-113712241D01*
X141760363Y-113944759D01*
X141960241Y-114144637D01*
X142195273Y-114301680D01*
X142456426Y-114409853D01*
X142733665Y-114465000D01*
X143016335Y-114465000D01*
X143293574Y-114409853D01*
X143554727Y-114301680D01*
X143789759Y-114144637D01*
X143989637Y-113944759D01*
X144145000Y-113712241D01*
X144300363Y-113944759D01*
X144500241Y-114144637D01*
X144735273Y-114301680D01*
X144996426Y-114409853D01*
X145273665Y-114465000D01*
X145556335Y-114465000D01*
X145833574Y-114409853D01*
X146094727Y-114301680D01*
X146329759Y-114144637D01*
X146529637Y-113944759D01*
X146685000Y-113712241D01*
X146840363Y-113944759D01*
X147040241Y-114144637D01*
X147275273Y-114301680D01*
X147536426Y-114409853D01*
X147813665Y-114465000D01*
X148096335Y-114465000D01*
X148373574Y-114409853D01*
X148634727Y-114301680D01*
X148869759Y-114144637D01*
X149069637Y-113944759D01*
X149225000Y-113712241D01*
X149380363Y-113944759D01*
X149580241Y-114144637D01*
X149815273Y-114301680D01*
X150076426Y-114409853D01*
X150353665Y-114465000D01*
X150636335Y-114465000D01*
X150913574Y-114409853D01*
X151174727Y-114301680D01*
X151409759Y-114144637D01*
X151609637Y-113944759D01*
X151765000Y-113712241D01*
X151920363Y-113944759D01*
X152120241Y-114144637D01*
X152355273Y-114301680D01*
X152616426Y-114409853D01*
X152893665Y-114465000D01*
X153176335Y-114465000D01*
X153453574Y-114409853D01*
X153714727Y-114301680D01*
X153949759Y-114144637D01*
X154149637Y-113944759D01*
X154305000Y-113712241D01*
X154460363Y-113944759D01*
X154660241Y-114144637D01*
X154895273Y-114301680D01*
X155156426Y-114409853D01*
X155433665Y-114465000D01*
X155716335Y-114465000D01*
X155993574Y-114409853D01*
X156254727Y-114301680D01*
X156489759Y-114144637D01*
X156689637Y-113944759D01*
X156845000Y-113712241D01*
X157000363Y-113944759D01*
X157200241Y-114144637D01*
X157435273Y-114301680D01*
X157696426Y-114409853D01*
X157973665Y-114465000D01*
X158256335Y-114465000D01*
X158533574Y-114409853D01*
X158794727Y-114301680D01*
X159029759Y-114144637D01*
X159229637Y-113944759D01*
X159385000Y-113712241D01*
X159540363Y-113944759D01*
X159740241Y-114144637D01*
X159975273Y-114301680D01*
X160236426Y-114409853D01*
X160513665Y-114465000D01*
X160796335Y-114465000D01*
X161073574Y-114409853D01*
X161334727Y-114301680D01*
X161569759Y-114144637D01*
X161769637Y-113944759D01*
X161925000Y-113712241D01*
X162080363Y-113944759D01*
X162280241Y-114144637D01*
X162515273Y-114301680D01*
X162776426Y-114409853D01*
X163053665Y-114465000D01*
X163336335Y-114465000D01*
X163613574Y-114409853D01*
X163874727Y-114301680D01*
X164109759Y-114144637D01*
X164309637Y-113944759D01*
X164465000Y-113712241D01*
X164620363Y-113944759D01*
X164820241Y-114144637D01*
X165055273Y-114301680D01*
X165316426Y-114409853D01*
X165593665Y-114465000D01*
X165876335Y-114465000D01*
X166153574Y-114409853D01*
X166414727Y-114301680D01*
X166649759Y-114144637D01*
X166849637Y-113944759D01*
X167005000Y-113712241D01*
X167160363Y-113944759D01*
X167360241Y-114144637D01*
X167595273Y-114301680D01*
X167856426Y-114409853D01*
X168133665Y-114465000D01*
X168416335Y-114465000D01*
X168693574Y-114409853D01*
X168954727Y-114301680D01*
X169189759Y-114144637D01*
X169389637Y-113944759D01*
X169545000Y-113712241D01*
X169700363Y-113944759D01*
X169900241Y-114144637D01*
X170135273Y-114301680D01*
X170396426Y-114409853D01*
X170673665Y-114465000D01*
X170956335Y-114465000D01*
X171233574Y-114409853D01*
X171494727Y-114301680D01*
X171729759Y-114144637D01*
X171929637Y-113944759D01*
X172085000Y-113712241D01*
X172240363Y-113944759D01*
X172440241Y-114144637D01*
X172675273Y-114301680D01*
X172936426Y-114409853D01*
X173213665Y-114465000D01*
X173496335Y-114465000D01*
X173773574Y-114409853D01*
X174034727Y-114301680D01*
X174269759Y-114144637D01*
X174469637Y-113944759D01*
X174626680Y-113709727D01*
X174734853Y-113448574D01*
X174790000Y-113171335D01*
X174790000Y-112888665D01*
X174734853Y-112611426D01*
X174626680Y-112350273D01*
X174469637Y-112115241D01*
X174269759Y-111915363D01*
X174034727Y-111758320D01*
X173773574Y-111650147D01*
X173496335Y-111595000D01*
X173213665Y-111595000D01*
X172936426Y-111650147D01*
X172675273Y-111758320D01*
X172440241Y-111915363D01*
X172240363Y-112115241D01*
X172085000Y-112347759D01*
X171929637Y-112115241D01*
X171729759Y-111915363D01*
X171494727Y-111758320D01*
X171233574Y-111650147D01*
X170956335Y-111595000D01*
X170673665Y-111595000D01*
X170396426Y-111650147D01*
X170135273Y-111758320D01*
X169900241Y-111915363D01*
X169700363Y-112115241D01*
X169545000Y-112347759D01*
X169389637Y-112115241D01*
X169189759Y-111915363D01*
X168954727Y-111758320D01*
X168693574Y-111650147D01*
X168416335Y-111595000D01*
X168133665Y-111595000D01*
X167856426Y-111650147D01*
X167595273Y-111758320D01*
X167360241Y-111915363D01*
X167160363Y-112115241D01*
X167005000Y-112347759D01*
X166849637Y-112115241D01*
X166649759Y-111915363D01*
X166414727Y-111758320D01*
X166153574Y-111650147D01*
X165876335Y-111595000D01*
X165593665Y-111595000D01*
X165316426Y-111650147D01*
X165055273Y-111758320D01*
X164820241Y-111915363D01*
X164620363Y-112115241D01*
X164465000Y-112347759D01*
X164309637Y-112115241D01*
X164109759Y-111915363D01*
X163874727Y-111758320D01*
X163613574Y-111650147D01*
X163336335Y-111595000D01*
X163053665Y-111595000D01*
X162871114Y-111631312D01*
X162468504Y-111228702D01*
X163372503Y-111228702D01*
X163444086Y-111472671D01*
X163699596Y-111593571D01*
X163973784Y-111662300D01*
X164256112Y-111676217D01*
X164535730Y-111634787D01*
X164801892Y-111539603D01*
X164927114Y-111472671D01*
X164998697Y-111228702D01*
X165658503Y-111228702D01*
X165730086Y-111472671D01*
X165985596Y-111593571D01*
X166259784Y-111662300D01*
X166542112Y-111676217D01*
X166821730Y-111634787D01*
X167087892Y-111539603D01*
X167213114Y-111472671D01*
X167284697Y-111228702D01*
X166471600Y-110415605D01*
X165658503Y-111228702D01*
X164998697Y-111228702D01*
X164185600Y-110415605D01*
X163372503Y-111228702D01*
X162468504Y-111228702D01*
X161546314Y-110306512D01*
X162745383Y-110306512D01*
X162786813Y-110586130D01*
X162881997Y-110852292D01*
X162948929Y-110977514D01*
X163192898Y-111049097D01*
X164005995Y-110236000D01*
X164365205Y-110236000D01*
X165178302Y-111049097D01*
X165328600Y-111004998D01*
X165478898Y-111049097D01*
X166291995Y-110236000D01*
X166651205Y-110236000D01*
X167464302Y-111049097D01*
X167708271Y-110977514D01*
X167829171Y-110722004D01*
X167897900Y-110447816D01*
X167911817Y-110165488D01*
X167870387Y-109885870D01*
X167775203Y-109619708D01*
X167708271Y-109494486D01*
X167464302Y-109422903D01*
X166651205Y-110236000D01*
X166291995Y-110236000D01*
X165478898Y-109422903D01*
X165328600Y-109467002D01*
X165178302Y-109422903D01*
X164365205Y-110236000D01*
X164005995Y-110236000D01*
X163192898Y-109422903D01*
X162948929Y-109494486D01*
X162828029Y-109749996D01*
X162759300Y-110024184D01*
X162745383Y-110306512D01*
X161546314Y-110306512D01*
X160483100Y-109243298D01*
X163372503Y-109243298D01*
X164185600Y-110056395D01*
X164998697Y-109243298D01*
X165658503Y-109243298D01*
X166471600Y-110056395D01*
X167284697Y-109243298D01*
X167213114Y-108999329D01*
X166957604Y-108878429D01*
X166683416Y-108809700D01*
X166401088Y-108795783D01*
X166121470Y-108837213D01*
X165855308Y-108932397D01*
X165730086Y-108999329D01*
X165658503Y-109243298D01*
X164998697Y-109243298D01*
X164927114Y-108999329D01*
X164671604Y-108878429D01*
X164397416Y-108809700D01*
X164115088Y-108795783D01*
X163835470Y-108837213D01*
X163569308Y-108932397D01*
X163444086Y-108999329D01*
X163372503Y-109243298D01*
X160483100Y-109243298D01*
X159431241Y-108191440D01*
X159501599Y-108191440D01*
X159791125Y-108133850D01*
X160063853Y-108020882D01*
X160309302Y-107856879D01*
X160518039Y-107648142D01*
X160624000Y-107489559D01*
X160729961Y-107648142D01*
X160938698Y-107856879D01*
X161184147Y-108020882D01*
X161456875Y-108133850D01*
X161746401Y-108191440D01*
X162041599Y-108191440D01*
X162331125Y-108133850D01*
X162603853Y-108020882D01*
X162849302Y-107856879D01*
X163058039Y-107648142D01*
X163164000Y-107489559D01*
X163269961Y-107648142D01*
X163478698Y-107856879D01*
X163724147Y-108020882D01*
X163996875Y-108133850D01*
X164286401Y-108191440D01*
X164581599Y-108191440D01*
X164871125Y-108133850D01*
X165143853Y-108020882D01*
X165389302Y-107856879D01*
X165598039Y-107648142D01*
X165704000Y-107489559D01*
X165809961Y-107648142D01*
X166018698Y-107856879D01*
X166264147Y-108020882D01*
X166536875Y-108133850D01*
X166826401Y-108191440D01*
X167121599Y-108191440D01*
X167411125Y-108133850D01*
X167683853Y-108020882D01*
X167929302Y-107856879D01*
X168043364Y-107742817D01*
X168060898Y-107800620D01*
X168119863Y-107910934D01*
X168199215Y-108007625D01*
X168295906Y-108086977D01*
X168406220Y-108145942D01*
X168525918Y-108182252D01*
X168650400Y-108194512D01*
X170377600Y-108194512D01*
X170502082Y-108182252D01*
X170621780Y-108145942D01*
X170732094Y-108086977D01*
X170828785Y-108007625D01*
X170908137Y-107910934D01*
X170967102Y-107800620D01*
X171003412Y-107680922D01*
X171015672Y-107556440D01*
X171015672Y-106787073D01*
X173280619Y-109052021D01*
X173176841Y-109121363D01*
X172976963Y-109321241D01*
X172819920Y-109556273D01*
X172711747Y-109817426D01*
X172656600Y-110094665D01*
X172656600Y-110377335D01*
X172711747Y-110654574D01*
X172819920Y-110915727D01*
X172976963Y-111150759D01*
X173176841Y-111350637D01*
X173411873Y-111507680D01*
X173673026Y-111615853D01*
X173950265Y-111671000D01*
X174232935Y-111671000D01*
X174510174Y-111615853D01*
X174771327Y-111507680D01*
X175006359Y-111350637D01*
X175206237Y-111150759D01*
X175363280Y-110915727D01*
X175471453Y-110654574D01*
X175526600Y-110377335D01*
X175526600Y-110094665D01*
X175471453Y-109817426D01*
X175363280Y-109556273D01*
X175206237Y-109321241D01*
X175006359Y-109121363D01*
X174851600Y-109017957D01*
X174851600Y-108825522D01*
X174855276Y-108788199D01*
X174851600Y-108750876D01*
X174851600Y-108750867D01*
X174840603Y-108639214D01*
X174797146Y-108495953D01*
X174726574Y-108363924D01*
X174631601Y-108248199D01*
X174602604Y-108224402D01*
X171295644Y-104917443D01*
X171271841Y-104888439D01*
X171156116Y-104793466D01*
X171024087Y-104722894D01*
X170913806Y-104689441D01*
X170955010Y-104589965D01*
X171012600Y-104300439D01*
X171012600Y-104005241D01*
X170955010Y-103715715D01*
X170842042Y-103442987D01*
X170678039Y-103197538D01*
X170469302Y-102988801D01*
X170223853Y-102824798D01*
X169951125Y-102711830D01*
X169661599Y-102654240D01*
X169565561Y-102654240D01*
X173031114Y-99188688D01*
X173213665Y-99225000D01*
X173496335Y-99225000D01*
X173773574Y-99169853D01*
X174034727Y-99061680D01*
X174269759Y-98904637D01*
X174469637Y-98704759D01*
X174626680Y-98469727D01*
X174734853Y-98208574D01*
X174790000Y-97931335D01*
X174790000Y-97648665D01*
X174734853Y-97371426D01*
X174626680Y-97110273D01*
X174469637Y-96875241D01*
X174269759Y-96675363D01*
X174034727Y-96518320D01*
X173773574Y-96410147D01*
X173496335Y-96355000D01*
X173213665Y-96355000D01*
X172936426Y-96410147D01*
X172675273Y-96518320D01*
X172440241Y-96675363D01*
X172240363Y-96875241D01*
X172085000Y-97107759D01*
X171929637Y-96875241D01*
X171729759Y-96675363D01*
X171494727Y-96518320D01*
X171233574Y-96410147D01*
X170956335Y-96355000D01*
X170673665Y-96355000D01*
X170396426Y-96410147D01*
X170135273Y-96518320D01*
X169900241Y-96675363D01*
X169700363Y-96875241D01*
X169545000Y-97107759D01*
X169389637Y-96875241D01*
X169189759Y-96675363D01*
X168954727Y-96518320D01*
X168693574Y-96410147D01*
X168416335Y-96355000D01*
X168133665Y-96355000D01*
X167856426Y-96410147D01*
X167595273Y-96518320D01*
X167360241Y-96675363D01*
X167160363Y-96875241D01*
X167005000Y-97107759D01*
X166849637Y-96875241D01*
X166649759Y-96675363D01*
X166414727Y-96518320D01*
X166153574Y-96410147D01*
X165876335Y-96355000D01*
X165593665Y-96355000D01*
X165316426Y-96410147D01*
X165055273Y-96518320D01*
X164820241Y-96675363D01*
X164620363Y-96875241D01*
X164465000Y-97107759D01*
X164309637Y-96875241D01*
X164109759Y-96675363D01*
X163874727Y-96518320D01*
X163613574Y-96410147D01*
X163336335Y-96355000D01*
X163053665Y-96355000D01*
X162776426Y-96410147D01*
X162515273Y-96518320D01*
X162280241Y-96675363D01*
X162080363Y-96875241D01*
X161925000Y-97107759D01*
X161769637Y-96875241D01*
X161569759Y-96675363D01*
X161334727Y-96518320D01*
X161073574Y-96410147D01*
X160796335Y-96355000D01*
X160513665Y-96355000D01*
X160236426Y-96410147D01*
X159975273Y-96518320D01*
X159740241Y-96675363D01*
X159540363Y-96875241D01*
X159385000Y-97107759D01*
X159229637Y-96875241D01*
X159029759Y-96675363D01*
X158794727Y-96518320D01*
X158533574Y-96410147D01*
X158256335Y-96355000D01*
X157973665Y-96355000D01*
X157696426Y-96410147D01*
X157435273Y-96518320D01*
X157200241Y-96675363D01*
X157000363Y-96875241D01*
X156845000Y-97107759D01*
X156689637Y-96875241D01*
X156489759Y-96675363D01*
X156254727Y-96518320D01*
X155993574Y-96410147D01*
X155716335Y-96355000D01*
X155433665Y-96355000D01*
X155156426Y-96410147D01*
X154895273Y-96518320D01*
X154660241Y-96675363D01*
X154460363Y-96875241D01*
X154305000Y-97107759D01*
X154149637Y-96875241D01*
X153949759Y-96675363D01*
X153714727Y-96518320D01*
X153453574Y-96410147D01*
X153176335Y-96355000D01*
X152893665Y-96355000D01*
X152616426Y-96410147D01*
X152355273Y-96518320D01*
X152120241Y-96675363D01*
X151920363Y-96875241D01*
X151765000Y-97107759D01*
X151609637Y-96875241D01*
X151409759Y-96675363D01*
X151174727Y-96518320D01*
X150913574Y-96410147D01*
X150636335Y-96355000D01*
X150353665Y-96355000D01*
X150076426Y-96410147D01*
X149815273Y-96518320D01*
X149580241Y-96675363D01*
X149380363Y-96875241D01*
X149225000Y-97107759D01*
X149069637Y-96875241D01*
X148869759Y-96675363D01*
X148634727Y-96518320D01*
X148373574Y-96410147D01*
X148096335Y-96355000D01*
X147813665Y-96355000D01*
X147536426Y-96410147D01*
X147275273Y-96518320D01*
X147040241Y-96675363D01*
X146840363Y-96875241D01*
X146685000Y-97107759D01*
X146529637Y-96875241D01*
X146329759Y-96675363D01*
X146094727Y-96518320D01*
X145833574Y-96410147D01*
X145556335Y-96355000D01*
X145273665Y-96355000D01*
X144996426Y-96410147D01*
X144735273Y-96518320D01*
X144500241Y-96675363D01*
X144300363Y-96875241D01*
X144145000Y-97107759D01*
X143989637Y-96875241D01*
X143789759Y-96675363D01*
X143554727Y-96518320D01*
X143293574Y-96410147D01*
X143016335Y-96355000D01*
X142733665Y-96355000D01*
X142456426Y-96410147D01*
X142195273Y-96518320D01*
X141960241Y-96675363D01*
X141760363Y-96875241D01*
X141605000Y-97107759D01*
X141449637Y-96875241D01*
X141249759Y-96675363D01*
X141014727Y-96518320D01*
X140753574Y-96410147D01*
X140476335Y-96355000D01*
X140193665Y-96355000D01*
X139916426Y-96410147D01*
X139655273Y-96518320D01*
X139420241Y-96675363D01*
X139220363Y-96875241D01*
X139065000Y-97107759D01*
X138909637Y-96875241D01*
X138709759Y-96675363D01*
X138474727Y-96518320D01*
X138213574Y-96410147D01*
X137936335Y-96355000D01*
X137653665Y-96355000D01*
X137376426Y-96410147D01*
X137115273Y-96518320D01*
X136880241Y-96675363D01*
X136680363Y-96875241D01*
X136525000Y-97107759D01*
X136369637Y-96875241D01*
X136169759Y-96675363D01*
X135934727Y-96518320D01*
X135673574Y-96410147D01*
X135396335Y-96355000D01*
X135113665Y-96355000D01*
X134836426Y-96410147D01*
X134575273Y-96518320D01*
X134340241Y-96675363D01*
X134140363Y-96875241D01*
X133985000Y-97107759D01*
X133829637Y-96875241D01*
X133629759Y-96675363D01*
X133394727Y-96518320D01*
X133133574Y-96410147D01*
X132856335Y-96355000D01*
X132573665Y-96355000D01*
X132296426Y-96410147D01*
X132035273Y-96518320D01*
X131800241Y-96675363D01*
X131600363Y-96875241D01*
X131443320Y-97110273D01*
X131438933Y-97120865D01*
X131327385Y-96934869D01*
X131138414Y-96726481D01*
X130912420Y-96558963D01*
X130658087Y-96438754D01*
X130524039Y-96398096D01*
X130302000Y-96520085D01*
X130302000Y-97663000D01*
X130322000Y-97663000D01*
X130322000Y-97917000D01*
X130302000Y-97917000D01*
X130302000Y-99059915D01*
X130524039Y-99181904D01*
X130658087Y-99141246D01*
X130912420Y-99021037D01*
X131138414Y-98853519D01*
X131327385Y-98645131D01*
X131438933Y-98459135D01*
X131443320Y-98469727D01*
X131600363Y-98704759D01*
X131800241Y-98904637D01*
X132035273Y-99061680D01*
X132296426Y-99169853D01*
X132573665Y-99225000D01*
X132856335Y-99225000D01*
X133038886Y-99188688D01*
X133427915Y-99577717D01*
X133388972Y-99603738D01*
X133258738Y-99733972D01*
X133156414Y-99887111D01*
X133085932Y-100057271D01*
X133050000Y-100237911D01*
X133050000Y-100422089D01*
X133085932Y-100602729D01*
X133156414Y-100772889D01*
X133258738Y-100926028D01*
X133388972Y-101056262D01*
X133417029Y-101075009D01*
X131791974Y-102700064D01*
X131561599Y-102654240D01*
X131266401Y-102654240D01*
X130976875Y-102711830D01*
X130704147Y-102824798D01*
X130458698Y-102988801D01*
X130249961Y-103197538D01*
X130144000Y-103356121D01*
X130038039Y-103197538D01*
X129829302Y-102988801D01*
X129583853Y-102824798D01*
X129311125Y-102711830D01*
X129021599Y-102654240D01*
X128726401Y-102654240D01*
X128436875Y-102711830D01*
X128164147Y-102824798D01*
X127918698Y-102988801D01*
X127709961Y-103197538D01*
X127545958Y-103442987D01*
X127432990Y-103715715D01*
X127375400Y-104005241D01*
X127375400Y-104300439D01*
X127432990Y-104589965D01*
X127545958Y-104862693D01*
X127709961Y-105108142D01*
X127918698Y-105316879D01*
X128077281Y-105422840D01*
X127918698Y-105528801D01*
X127709961Y-105737538D01*
X127545958Y-105982987D01*
X127432990Y-106255715D01*
X127375400Y-106545241D01*
X127375400Y-106840439D01*
X127432990Y-107129965D01*
X127545958Y-107402693D01*
X127709961Y-107648142D01*
X127918698Y-107856879D01*
X128164147Y-108020882D01*
X128436875Y-108133850D01*
X128726401Y-108191440D01*
X129021599Y-108191440D01*
X129311125Y-108133850D01*
X129583853Y-108020882D01*
X129829302Y-107856879D01*
X130038039Y-107648142D01*
X130144000Y-107489559D01*
X130249961Y-107648142D01*
X130458698Y-107856879D01*
X130704147Y-108020882D01*
X130976875Y-108133850D01*
X131266401Y-108191440D01*
X131561599Y-108191440D01*
X131851125Y-108133850D01*
X132123853Y-108020882D01*
X132369302Y-107856879D01*
X132578039Y-107648142D01*
X132684000Y-107489559D01*
X132789961Y-107648142D01*
X132998698Y-107856879D01*
X133244147Y-108020882D01*
X133516875Y-108133850D01*
X133806401Y-108191440D01*
X134101599Y-108191440D01*
X134391125Y-108133850D01*
X134444201Y-108111865D01*
X134444201Y-108801000D01*
X134326265Y-108801000D01*
X134049026Y-108856147D01*
X133787873Y-108964320D01*
X133552841Y-109121363D01*
X133352963Y-109321241D01*
X133195920Y-109556273D01*
X133087747Y-109817426D01*
X133032600Y-110094665D01*
X133032600Y-110377335D01*
X133087747Y-110654574D01*
X133195920Y-110915727D01*
X133352963Y-111150759D01*
X133552841Y-111350637D01*
X133787873Y-111507680D01*
X134049026Y-111615853D01*
X134326265Y-111671000D01*
X134608935Y-111671000D01*
X134886174Y-111615853D01*
X135147327Y-111507680D01*
X135382359Y-111350637D01*
X135582237Y-111150759D01*
X135610600Y-111108311D01*
X135638963Y-111150759D01*
X135838841Y-111350637D01*
X136073873Y-111507680D01*
X136224378Y-111570021D01*
X135995483Y-111798916D01*
X135934727Y-111758320D01*
X135673574Y-111650147D01*
X135396335Y-111595000D01*
X135113665Y-111595000D01*
X134836426Y-111650147D01*
X134575273Y-111758320D01*
X134340241Y-111915363D01*
X134140363Y-112115241D01*
X133985000Y-112347759D01*
X133829637Y-112115241D01*
X133629759Y-111915363D01*
X133394727Y-111758320D01*
X133133574Y-111650147D01*
X132856335Y-111595000D01*
X132573665Y-111595000D01*
X132296426Y-111650147D01*
X132035273Y-111758320D01*
X131800241Y-111915363D01*
X131600363Y-112115241D01*
X131445000Y-112347759D01*
X131289637Y-112115241D01*
X131089759Y-111915363D01*
X130854727Y-111758320D01*
X130593574Y-111650147D01*
X130316335Y-111595000D01*
X130033665Y-111595000D01*
X129756426Y-111650147D01*
X129495273Y-111758320D01*
X129260241Y-111915363D01*
X129060363Y-112115241D01*
X128905000Y-112347759D01*
X128749637Y-112115241D01*
X128549759Y-111915363D01*
X128314727Y-111758320D01*
X128053574Y-111650147D01*
X127776335Y-111595000D01*
X127493665Y-111595000D01*
X127216426Y-111650147D01*
X126955273Y-111758320D01*
X126720241Y-111915363D01*
X126520363Y-112115241D01*
X126365000Y-112347759D01*
X126209637Y-112115241D01*
X126009759Y-111915363D01*
X125774727Y-111758320D01*
X125513574Y-111650147D01*
X125236335Y-111595000D01*
X124953665Y-111595000D01*
X124676426Y-111650147D01*
X124415273Y-111758320D01*
X124180241Y-111915363D01*
X123980363Y-112115241D01*
X123823320Y-112350273D01*
X123715147Y-112611426D01*
X123660000Y-112888665D01*
X117602000Y-112888665D01*
X117602000Y-111228702D01*
X126034503Y-111228702D01*
X126106086Y-111472671D01*
X126361596Y-111593571D01*
X126635784Y-111662300D01*
X126918112Y-111676217D01*
X127197730Y-111634787D01*
X127463892Y-111539603D01*
X127589114Y-111472671D01*
X127660697Y-111228702D01*
X126847600Y-110415605D01*
X126034503Y-111228702D01*
X117602000Y-111228702D01*
X117602000Y-103822500D01*
X119309249Y-103822500D01*
X119338184Y-104116277D01*
X119423875Y-104398764D01*
X119563031Y-104659106D01*
X119750303Y-104887297D01*
X119978494Y-105074569D01*
X120012040Y-105092500D01*
X119978494Y-105110431D01*
X119750303Y-105297703D01*
X119563031Y-105525894D01*
X119423875Y-105786236D01*
X119338184Y-106068723D01*
X119309249Y-106362500D01*
X119338184Y-106656277D01*
X119423875Y-106938764D01*
X119563031Y-107199106D01*
X119750303Y-107427297D01*
X119758365Y-107433914D01*
X119707320Y-107449398D01*
X119597006Y-107508363D01*
X119500315Y-107587715D01*
X119420963Y-107684406D01*
X119361998Y-107794720D01*
X119325688Y-107914418D01*
X119313428Y-108038900D01*
X119313428Y-109766100D01*
X119325688Y-109890582D01*
X119361998Y-110010280D01*
X119420963Y-110120594D01*
X119500315Y-110217285D01*
X119597006Y-110296637D01*
X119707320Y-110355602D01*
X119827018Y-110391912D01*
X119951500Y-110404172D01*
X121983500Y-110404172D01*
X122107982Y-110391912D01*
X122227680Y-110355602D01*
X122319519Y-110306512D01*
X125407383Y-110306512D01*
X125448813Y-110586130D01*
X125543997Y-110852292D01*
X125610929Y-110977514D01*
X125854898Y-111049097D01*
X126667995Y-110236000D01*
X127027205Y-110236000D01*
X127840302Y-111049097D01*
X128084271Y-110977514D01*
X128205171Y-110722004D01*
X128273900Y-110447816D01*
X128287817Y-110165488D01*
X128246387Y-109885870D01*
X128151203Y-109619708D01*
X128084271Y-109494486D01*
X127840302Y-109422903D01*
X127027205Y-110236000D01*
X126667995Y-110236000D01*
X125854898Y-109422903D01*
X125610929Y-109494486D01*
X125490029Y-109749996D01*
X125421300Y-110024184D01*
X125407383Y-110306512D01*
X122319519Y-110306512D01*
X122337994Y-110296637D01*
X122434685Y-110217285D01*
X122514037Y-110120594D01*
X122573002Y-110010280D01*
X122609312Y-109890582D01*
X122621572Y-109766100D01*
X122621572Y-109243298D01*
X126034503Y-109243298D01*
X126847600Y-110056395D01*
X127660697Y-109243298D01*
X127589114Y-108999329D01*
X127333604Y-108878429D01*
X127059416Y-108809700D01*
X126777088Y-108795783D01*
X126497470Y-108837213D01*
X126231308Y-108932397D01*
X126106086Y-108999329D01*
X126034503Y-109243298D01*
X122621572Y-109243298D01*
X122621572Y-108038900D01*
X122609312Y-107914418D01*
X122573002Y-107794720D01*
X122514037Y-107684406D01*
X122434685Y-107587715D01*
X122337994Y-107508363D01*
X122227680Y-107449398D01*
X122176635Y-107433914D01*
X122184697Y-107427297D01*
X122371969Y-107199106D01*
X122511125Y-106938764D01*
X122596816Y-106656277D01*
X122625751Y-106362500D01*
X122596816Y-106068723D01*
X122511125Y-105786236D01*
X122371969Y-105525894D01*
X122184697Y-105297703D01*
X121956506Y-105110431D01*
X121922960Y-105092500D01*
X121956506Y-105074569D01*
X122184697Y-104887297D01*
X122371969Y-104659106D01*
X122511125Y-104398764D01*
X122596816Y-104116277D01*
X122625751Y-103822500D01*
X122596816Y-103528723D01*
X122511125Y-103246236D01*
X122371969Y-102985894D01*
X122184697Y-102757703D01*
X121956506Y-102570431D01*
X121916553Y-102549076D01*
X122119229Y-102400986D01*
X122318233Y-102184535D01*
X122471186Y-101933419D01*
X122572209Y-101657289D01*
X122574858Y-101641526D01*
X122453717Y-101409500D01*
X121094500Y-101409500D01*
X121094500Y-101429500D01*
X120840500Y-101429500D01*
X120840500Y-101409500D01*
X119481283Y-101409500D01*
X119360142Y-101641526D01*
X119362791Y-101657289D01*
X119463814Y-101933419D01*
X119616767Y-102184535D01*
X119815771Y-102400986D01*
X120018447Y-102549076D01*
X119978494Y-102570431D01*
X119750303Y-102757703D01*
X119563031Y-102985894D01*
X119423875Y-103246236D01*
X119338184Y-103528723D01*
X119309249Y-103822500D01*
X117602000Y-103822500D01*
X117602000Y-100923474D01*
X119360142Y-100923474D01*
X119481283Y-101155500D01*
X120840500Y-101155500D01*
X120840500Y-99941575D01*
X121094500Y-99941575D01*
X121094500Y-101155500D01*
X122453717Y-101155500D01*
X122574858Y-100923474D01*
X122572209Y-100907711D01*
X122471186Y-100631581D01*
X122318233Y-100380465D01*
X122119229Y-100164014D01*
X121881821Y-99990546D01*
X121615133Y-99866727D01*
X121329414Y-99797315D01*
X121094500Y-99941575D01*
X120840500Y-99941575D01*
X120605586Y-99797315D01*
X120319867Y-99866727D01*
X120053179Y-99990546D01*
X119815771Y-100164014D01*
X119616767Y-100380465D01*
X119463814Y-100631581D01*
X119362791Y-100907711D01*
X119360142Y-100923474D01*
X117602000Y-100923474D01*
X117602000Y-97648665D01*
X123660000Y-97648665D01*
X123660000Y-97931335D01*
X123715147Y-98208574D01*
X123823320Y-98469727D01*
X123980363Y-98704759D01*
X124180241Y-98904637D01*
X124415273Y-99061680D01*
X124676426Y-99169853D01*
X124953665Y-99225000D01*
X125236335Y-99225000D01*
X125513574Y-99169853D01*
X125774727Y-99061680D01*
X126009759Y-98904637D01*
X126209637Y-98704759D01*
X126365000Y-98472241D01*
X126520363Y-98704759D01*
X126720241Y-98904637D01*
X126955273Y-99061680D01*
X127216426Y-99169853D01*
X127493665Y-99225000D01*
X127776335Y-99225000D01*
X128053574Y-99169853D01*
X128314727Y-99061680D01*
X128549759Y-98904637D01*
X128749637Y-98704759D01*
X128906680Y-98469727D01*
X128911067Y-98459135D01*
X129022615Y-98645131D01*
X129211586Y-98853519D01*
X129437580Y-99021037D01*
X129691913Y-99141246D01*
X129825961Y-99181904D01*
X130048000Y-99059915D01*
X130048000Y-97917000D01*
X130028000Y-97917000D01*
X130028000Y-97663000D01*
X130048000Y-97663000D01*
X130048000Y-96520085D01*
X129825961Y-96398096D01*
X129691913Y-96438754D01*
X129437580Y-96558963D01*
X129211586Y-96726481D01*
X129022615Y-96934869D01*
X128911067Y-97120865D01*
X128906680Y-97110273D01*
X128749637Y-96875241D01*
X128549759Y-96675363D01*
X128314727Y-96518320D01*
X128053574Y-96410147D01*
X127776335Y-96355000D01*
X127493665Y-96355000D01*
X127216426Y-96410147D01*
X126955273Y-96518320D01*
X126720241Y-96675363D01*
X126520363Y-96875241D01*
X126365000Y-97107759D01*
X126209637Y-96875241D01*
X126009759Y-96675363D01*
X125774727Y-96518320D01*
X125513574Y-96410147D01*
X125236335Y-96355000D01*
X124953665Y-96355000D01*
X124676426Y-96410147D01*
X124415273Y-96518320D01*
X124180241Y-96675363D01*
X123980363Y-96875241D01*
X123823320Y-97110273D01*
X123715147Y-97371426D01*
X123660000Y-97648665D01*
X117602000Y-97648665D01*
X117602000Y-94742000D01*
X177038000Y-94742000D01*
X177038000Y-116078000D01*
G36*
X152330602Y-111774804D02*
G01*
X152120241Y-111915363D01*
X151920363Y-112115241D01*
X151765000Y-112347759D01*
X151609637Y-112115241D01*
X151409759Y-111915363D01*
X151174727Y-111758320D01*
X150913574Y-111650147D01*
X150636335Y-111595000D01*
X150353665Y-111595000D01*
X150076426Y-111650147D01*
X149815273Y-111758320D01*
X149580241Y-111915363D01*
X149380363Y-112115241D01*
X149225000Y-112347759D01*
X149069637Y-112115241D01*
X148869759Y-111915363D01*
X148634727Y-111758320D01*
X148373574Y-111650147D01*
X148096335Y-111595000D01*
X147813665Y-111595000D01*
X147536426Y-111650147D01*
X147275273Y-111758320D01*
X147040241Y-111915363D01*
X146840363Y-112115241D01*
X146685000Y-112347759D01*
X146529637Y-112115241D01*
X146329759Y-111915363D01*
X146094727Y-111758320D01*
X145833574Y-111650147D01*
X145556335Y-111595000D01*
X145273665Y-111595000D01*
X144996426Y-111650147D01*
X144735273Y-111758320D01*
X144500241Y-111915363D01*
X144300363Y-112115241D01*
X144145000Y-112347759D01*
X143989637Y-112115241D01*
X143789759Y-111915363D01*
X143554727Y-111758320D01*
X143293574Y-111650147D01*
X143016335Y-111595000D01*
X142733665Y-111595000D01*
X142456426Y-111650147D01*
X142195273Y-111758320D01*
X141960241Y-111915363D01*
X141760363Y-112115241D01*
X141605000Y-112347759D01*
X141449637Y-112115241D01*
X141249759Y-111915363D01*
X141014727Y-111758320D01*
X140753574Y-111650147D01*
X140476335Y-111595000D01*
X140193665Y-111595000D01*
X139916426Y-111650147D01*
X139655273Y-111758320D01*
X139420241Y-111915363D01*
X139220363Y-112115241D01*
X139065000Y-112347759D01*
X138909637Y-112115241D01*
X138709759Y-111915363D01*
X138474727Y-111758320D01*
X138270341Y-111673661D01*
X138715300Y-111228702D01*
X143560503Y-111228702D01*
X143632086Y-111472671D01*
X143887596Y-111593571D01*
X144161784Y-111662300D01*
X144444112Y-111676217D01*
X144723730Y-111634787D01*
X144989892Y-111539603D01*
X145115114Y-111472671D01*
X145186697Y-111228702D01*
X144373600Y-110415605D01*
X143560503Y-111228702D01*
X138715300Y-111228702D01*
X140522802Y-109421200D01*
X143379193Y-109421200D01*
X143380896Y-109422903D01*
X143136929Y-109494486D01*
X143016029Y-109749996D01*
X142947300Y-110024184D01*
X142933383Y-110306512D01*
X142974813Y-110586130D01*
X143069997Y-110852292D01*
X143136929Y-110977514D01*
X143380898Y-111049097D01*
X144193995Y-110236000D01*
X144179853Y-110221858D01*
X144359458Y-110042253D01*
X144373600Y-110056395D01*
X144387743Y-110042253D01*
X144567348Y-110221858D01*
X144553205Y-110236000D01*
X145366302Y-111049097D01*
X145458884Y-111021932D01*
X145544963Y-111150759D01*
X145744841Y-111350637D01*
X145979873Y-111507680D01*
X146241026Y-111615853D01*
X146518265Y-111671000D01*
X146800935Y-111671000D01*
X147078174Y-111615853D01*
X147339327Y-111507680D01*
X147574359Y-111350637D01*
X147774237Y-111150759D01*
X147931280Y-110915727D01*
X148039453Y-110654574D01*
X148094600Y-110377335D01*
X148094600Y-110094665D01*
X148039453Y-109817426D01*
X147931280Y-109556273D01*
X147907043Y-109520000D01*
X148047089Y-109520000D01*
X148227729Y-109484068D01*
X148397889Y-109413586D01*
X148500535Y-109345000D01*
X149900799Y-109345000D01*
X152330602Y-111774804D01*
G37*
X152330602Y-111774804D02*
X152120241Y-111915363D01*
X151920363Y-112115241D01*
X151765000Y-112347759D01*
X151609637Y-112115241D01*
X151409759Y-111915363D01*
X151174727Y-111758320D01*
X150913574Y-111650147D01*
X150636335Y-111595000D01*
X150353665Y-111595000D01*
X150076426Y-111650147D01*
X149815273Y-111758320D01*
X149580241Y-111915363D01*
X149380363Y-112115241D01*
X149225000Y-112347759D01*
X149069637Y-112115241D01*
X148869759Y-111915363D01*
X148634727Y-111758320D01*
X148373574Y-111650147D01*
X148096335Y-111595000D01*
X147813665Y-111595000D01*
X147536426Y-111650147D01*
X147275273Y-111758320D01*
X147040241Y-111915363D01*
X146840363Y-112115241D01*
X146685000Y-112347759D01*
X146529637Y-112115241D01*
X146329759Y-111915363D01*
X146094727Y-111758320D01*
X145833574Y-111650147D01*
X145556335Y-111595000D01*
X145273665Y-111595000D01*
X144996426Y-111650147D01*
X144735273Y-111758320D01*
X144500241Y-111915363D01*
X144300363Y-112115241D01*
X144145000Y-112347759D01*
X143989637Y-112115241D01*
X143789759Y-111915363D01*
X143554727Y-111758320D01*
X143293574Y-111650147D01*
X143016335Y-111595000D01*
X142733665Y-111595000D01*
X142456426Y-111650147D01*
X142195273Y-111758320D01*
X141960241Y-111915363D01*
X141760363Y-112115241D01*
X141605000Y-112347759D01*
X141449637Y-112115241D01*
X141249759Y-111915363D01*
X141014727Y-111758320D01*
X140753574Y-111650147D01*
X140476335Y-111595000D01*
X140193665Y-111595000D01*
X139916426Y-111650147D01*
X139655273Y-111758320D01*
X139420241Y-111915363D01*
X139220363Y-112115241D01*
X139065000Y-112347759D01*
X138909637Y-112115241D01*
X138709759Y-111915363D01*
X138474727Y-111758320D01*
X138270341Y-111673661D01*
X138715300Y-111228702D01*
X143560503Y-111228702D01*
X143632086Y-111472671D01*
X143887596Y-111593571D01*
X144161784Y-111662300D01*
X144444112Y-111676217D01*
X144723730Y-111634787D01*
X144989892Y-111539603D01*
X145115114Y-111472671D01*
X145186697Y-111228702D01*
X144373600Y-110415605D01*
X143560503Y-111228702D01*
X138715300Y-111228702D01*
X140522802Y-109421200D01*
X143379193Y-109421200D01*
X143380896Y-109422903D01*
X143136929Y-109494486D01*
X143016029Y-109749996D01*
X142947300Y-110024184D01*
X142933383Y-110306512D01*
X142974813Y-110586130D01*
X143069997Y-110852292D01*
X143136929Y-110977514D01*
X143380898Y-111049097D01*
X144193995Y-110236000D01*
X144179853Y-110221858D01*
X144359458Y-110042253D01*
X144373600Y-110056395D01*
X144387743Y-110042253D01*
X144567348Y-110221858D01*
X144553205Y-110236000D01*
X145366302Y-111049097D01*
X145458884Y-111021932D01*
X145544963Y-111150759D01*
X145744841Y-111350637D01*
X145979873Y-111507680D01*
X146241026Y-111615853D01*
X146518265Y-111671000D01*
X146800935Y-111671000D01*
X147078174Y-111615853D01*
X147339327Y-111507680D01*
X147574359Y-111350637D01*
X147774237Y-111150759D01*
X147931280Y-110915727D01*
X148039453Y-110654574D01*
X148094600Y-110377335D01*
X148094600Y-110094665D01*
X148039453Y-109817426D01*
X147931280Y-109556273D01*
X147907043Y-109520000D01*
X148047089Y-109520000D01*
X148227729Y-109484068D01*
X148397889Y-109413586D01*
X148500535Y-109345000D01*
X149900799Y-109345000D01*
X152330602Y-111774804D01*
M02*
