%FSLAX45Y45*%
G04 Gerber Fmt 4.5, Leading zero omitted, Abs format (unit mm)*
G04 Created by KiCad (PCBNEW (5.1.6-0-10_14)) date 2021-01-24 10:59:00*
%MOMM*%
%LPD*%
G01*
G04 APERTURE LIST*
%TA.AperFunction,Profile*%
%ADD10C,0.100000*%
%TD*%
%ADD11C,0.200000*%
%ADD12C,0.300000*%
G04 APERTURE END LIST*
D10*
X17780000Y-9398000D02*
X11684000Y-9398000D01*
X17780000Y-11684000D02*
X17780000Y-9398000D01*
X11684000Y-11684000D02*
X17780000Y-11684000D01*
X11684000Y-9398000D02*
X11684000Y-11684000D01*
D11*
D12*
X11965428Y-12154714D02*
X11965428Y-11854714D01*
X12036857Y-11854714D01*
X12079714Y-11869000D01*
X12108286Y-11897571D01*
X12122571Y-11926143D01*
X12136857Y-11983286D01*
X12136857Y-12026143D01*
X12122571Y-12083286D01*
X12108286Y-12111857D01*
X12079714Y-12140429D01*
X12036857Y-12154714D01*
X11965428Y-12154714D01*
X12265428Y-12154714D02*
X12265428Y-11954714D01*
X12265428Y-12011857D02*
X12279714Y-11983286D01*
X12294000Y-11969000D01*
X12322571Y-11954714D01*
X12351143Y-11954714D01*
X12451143Y-12154714D02*
X12451143Y-11954714D01*
X12451143Y-11854714D02*
X12436857Y-11869000D01*
X12451143Y-11883286D01*
X12465428Y-11869000D01*
X12451143Y-11854714D01*
X12451143Y-11883286D01*
X12636857Y-12154714D02*
X12608286Y-12140429D01*
X12594000Y-12111857D01*
X12594000Y-11854714D01*
X12794000Y-12154714D02*
X12765428Y-12140429D01*
X12751143Y-12111857D01*
X12751143Y-11854714D01*
X13136857Y-12154714D02*
X13136857Y-11854714D01*
X13236857Y-12069000D01*
X13336857Y-11854714D01*
X13336857Y-12154714D01*
X13608286Y-12154714D02*
X13608286Y-11997571D01*
X13594000Y-11969000D01*
X13565428Y-11954714D01*
X13508286Y-11954714D01*
X13479714Y-11969000D01*
X13608286Y-12140429D02*
X13579714Y-12154714D01*
X13508286Y-12154714D01*
X13479714Y-12140429D01*
X13465428Y-12111857D01*
X13465428Y-12083286D01*
X13479714Y-12054714D01*
X13508286Y-12040429D01*
X13579714Y-12040429D01*
X13608286Y-12026143D01*
X13751143Y-11954714D02*
X13751143Y-12254714D01*
X13751143Y-11969000D02*
X13779714Y-11954714D01*
X13836857Y-11954714D01*
X13865428Y-11969000D01*
X13879714Y-11983286D01*
X13894000Y-12011857D01*
X13894000Y-12097571D01*
X13879714Y-12126143D01*
X13865428Y-12140429D01*
X13836857Y-12154714D01*
X13779714Y-12154714D01*
X13751143Y-12140429D01*
X14022571Y-12126143D02*
X14036857Y-12140429D01*
X14022571Y-12154714D01*
X14008286Y-12140429D01*
X14022571Y-12126143D01*
X14022571Y-12154714D01*
X14022571Y-11969000D02*
X14036857Y-11983286D01*
X14022571Y-11997571D01*
X14008286Y-11983286D01*
X14022571Y-11969000D01*
X14022571Y-11997571D01*
M02*
