M48
; DRILL file {KiCad (5.1.6-0-10_14)} date Sunday, January 24, 2021 at 08:44:25 AM
; FORMAT={-:-/ absolute / inch / decimal}
; #@! TF.CreationDate,2021-01-24T08:44:25+01:00
; #@! TF.GenerationSoftware,Kicad,Pcbnew,(5.1.6-0-10_14)
; #@! TF.FileFunction,Plated,1,2,PTH
FMAT,2
INCH
T1C0.0157
T2C0.0315
T3C0.0400
%
G90
G05
T1
X5.275Y-3.95
X5.422Y-4.264
X5.825Y-3.95
X5.825Y-4.275
X5.925Y-4.15
X6.225Y-4.15
X6.35Y-3.925
X6.375Y-3.95
T2
X5.774Y-4.34
X6.074Y-4.34
X4.994Y-4.34
X5.294Y-4.34
X6.164Y-4.34
X6.464Y-4.34
X6.554Y-4.34
X6.854Y-4.34
X5.384Y-4.34
X5.684Y-4.34
X4.925Y-3.85
X4.925Y-4.45
X5.025Y-3.85
X5.025Y-4.45
X5.125Y-3.85
X5.125Y-4.45
X5.225Y-3.85
X5.225Y-4.45
X5.325Y-3.85
X5.325Y-4.45
X5.425Y-3.85
X5.425Y-4.45
X5.525Y-3.85
X5.525Y-4.45
X5.625Y-3.85
X5.625Y-4.45
X5.725Y-3.85
X5.725Y-4.45
X5.825Y-3.85
X5.825Y-4.45
X5.925Y-3.85
X5.925Y-4.45
X6.025Y-3.85
X6.025Y-4.45
X6.125Y-3.85
X6.125Y-4.45
X6.225Y-3.85
X6.225Y-4.45
X6.325Y-3.85
X6.325Y-4.45
X6.425Y-3.85
X6.425Y-4.45
X6.525Y-3.85
X6.525Y-4.45
X6.625Y-3.85
X6.625Y-4.45
X6.725Y-3.85
X6.725Y-4.45
X6.825Y-3.85
X6.825Y-4.45
T3
X5.0738Y-4.1005
X5.0738Y-4.2005
X5.1738Y-4.1005
X5.1738Y-4.2005
X5.2738Y-4.1005
X5.2738Y-4.2005
X5.3738Y-4.1005
X5.3738Y-4.2005
X5.4738Y-4.1005
X5.4738Y-4.2005
X5.5738Y-4.1005
X5.5738Y-4.2005
X5.6738Y-4.1005
X5.6738Y-4.2005
X5.7738Y-4.1005
X5.7738Y-4.2005
X5.8738Y-4.1005
X5.8738Y-4.2005
X5.9738Y-4.1005
X5.9738Y-4.2005
X6.0738Y-4.1005
X6.0738Y-4.2005
X6.1738Y-4.1005
X6.1738Y-4.2005
X6.2738Y-4.1005
X6.2738Y-4.2005
X6.3738Y-4.1005
X6.3738Y-4.2005
X6.4738Y-4.1005
X6.4738Y-4.2005
X6.5738Y-4.1005
X6.5738Y-4.2005
X6.6738Y-4.1005
X6.6738Y-4.2005
X4.7625Y-3.9875
X4.7625Y-4.0875
X4.7625Y-4.1875
X4.7625Y-4.2875
T0
M30
