%TF.GenerationSoftware,KiCad,Pcbnew,(5.1.6-0-10_14)*%
%TF.CreationDate,2021-01-24T08:08:00+01:00*%
%TF.ProjectId,27c160,32376331-3630-42e6-9b69-6361645f7063,rev?*%
%TF.SameCoordinates,Original*%
%TF.FileFunction,Copper,L2,Bot*%
%TF.FilePolarity,Positive*%
%FSLAX46Y46*%
G04 Gerber Fmt 4.6, Leading zero omitted, Abs format (unit mm)*
G04 Created by KiCad (PCBNEW (5.1.6-0-10_14)) date 2021-01-24 08:08:00*
%MOMM*%
%LPD*%
G01*
G04 APERTURE LIST*
%TA.AperFunction,ComponentPad*%
%ADD10O,1.600000X1.600000*%
%TD*%
%TA.AperFunction,ComponentPad*%
%ADD11C,1.600000*%
%TD*%
%TA.AperFunction,ComponentPad*%
%ADD12R,2.032000X1.727200*%
%TD*%
%TA.AperFunction,ComponentPad*%
%ADD13O,2.032000X1.727200*%
%TD*%
%TA.AperFunction,ComponentPad*%
%ADD14O,2.050000X2.050000*%
%TD*%
%TA.AperFunction,ViaPad*%
%ADD15C,0.600000*%
%TD*%
%TA.AperFunction,Conductor*%
%ADD16C,0.250000*%
%TD*%
%TA.AperFunction,Conductor*%
%ADD17C,0.254000*%
%TD*%
G04 APERTURE END LIST*
D10*
%TO.P,R2,2*%
%TO.N,/VSS*%
X158115000Y-41402000D03*
D11*
%TO.P,R2,1*%
%TO.N,Net-(P1-Pad3)*%
X158115000Y-33782000D03*
%TD*%
D10*
%TO.P,R1,2*%
%TO.N,/VCC*%
X142875000Y-41402000D03*
D11*
%TO.P,R1,1*%
%TO.N,Net-(P1-Pad1)*%
X142875000Y-33782000D03*
%TD*%
D12*
%TO.P,P1,1*%
%TO.N,Net-(P1-Pad1)*%
X147320000Y-35560000D03*
D13*
%TO.P,P1,2*%
%TO.N,/A19*%
X147320000Y-38100000D03*
%TO.P,P1,3*%
%TO.N,Net-(P1-Pad3)*%
X147320000Y-40640000D03*
%TD*%
D12*
%TO.P,P2,1*%
%TO.N,Net-(P1-Pad1)*%
X153670000Y-35560000D03*
D13*
%TO.P,P2,2*%
%TO.N,/A18*%
X153670000Y-38100000D03*
%TO.P,P2,3*%
%TO.N,Net-(P1-Pad3)*%
X153670000Y-40640000D03*
%TD*%
D14*
%TO.P,U2,48*%
%TO.N,N/C*%
X156210000Y-53975000D03*
%TO.P,U2,47*%
X156210000Y-56515000D03*
%TO.P,U2,46*%
X156210000Y-59055000D03*
%TO.P,U2,45*%
%TO.N,/A19*%
X156210000Y-61595000D03*
%TO.P,U2,44*%
%TO.N,/P29*%
X156210000Y-64135000D03*
%TO.P,U2,43*%
%TO.N,/P31*%
X156210000Y-66675000D03*
%TO.P,U2,42*%
%TO.N,/P32*%
X156210000Y-69215000D03*
%TO.P,U2,41*%
%TO.N,/P33*%
X156210000Y-71755000D03*
%TO.P,U2,1*%
%TO.N,N/C*%
X140970000Y-53975000D03*
%TO.P,U2,2*%
X140970000Y-56515000D03*
%TO.P,U2,3*%
X140970000Y-59055000D03*
%TO.P,U2,4*%
%TO.N,/A18*%
X140970000Y-61595000D03*
%TO.P,U2,5*%
%TO.N,/P39*%
X140970000Y-64135000D03*
%TO.P,U2,6*%
%TO.N,/P28*%
X140970000Y-66675000D03*
%TO.P,U2,7*%
%TO.N,/P27*%
X140970000Y-69215000D03*
%TO.P,U2,8*%
%TO.N,/P26*%
X140970000Y-71755000D03*
%TO.P,U2,9*%
%TO.N,/P25*%
X140970000Y-74295000D03*
%TO.P,U2,10*%
%TO.N,/P24*%
X140970000Y-76835000D03*
%TO.P,U2,11*%
%TO.N,/P23*%
X140970000Y-79375000D03*
%TO.P,U2,12*%
%TO.N,/P22*%
X140970000Y-81915000D03*
%TO.P,U2,13*%
%TO.N,/P21*%
X140970000Y-84455000D03*
%TO.P,U2,14*%
%TO.N,/P2*%
X140970000Y-86995000D03*
%TO.P,U2,15*%
%TO.N,/P11*%
X140970000Y-89535000D03*
%TO.P,U2,16*%
%TO.N,/P20*%
X140970000Y-92075000D03*
%TO.P,U2,17*%
%TO.N,/P19*%
X140970000Y-94615000D03*
%TO.P,U2,18*%
%TO.N,/P10*%
X140970000Y-97155000D03*
%TO.P,U2,19*%
%TO.N,/P18*%
X140970000Y-99695000D03*
%TO.P,U2,20*%
%TO.N,/P9*%
X140970000Y-102235000D03*
%TO.P,U2,21*%
%TO.N,/P17*%
X140970000Y-104775000D03*
%TO.P,U2,22*%
%TO.N,/P8*%
X140970000Y-107315000D03*
%TO.P,U2,23*%
%TO.N,/P16*%
X140970000Y-109855000D03*
%TO.P,U2,24*%
%TO.N,/P7*%
X140970000Y-112395000D03*
%TO.P,U2,25*%
%TO.N,/VCC*%
X156210000Y-112395000D03*
%TO.P,U2,26*%
%TO.N,/P15*%
X156210000Y-109855000D03*
%TO.P,U2,27*%
%TO.N,/P6*%
X156210000Y-107315000D03*
%TO.P,U2,28*%
%TO.N,/P14*%
X156210000Y-104775000D03*
%TO.P,U2,29*%
%TO.N,/P5*%
X156210000Y-102235000D03*
%TO.P,U2,30*%
%TO.N,/P13*%
X156210000Y-99695000D03*
%TO.P,U2,31*%
%TO.N,/P4*%
X156210000Y-97155000D03*
%TO.P,U2,32*%
%TO.N,/P12*%
X156210000Y-94615000D03*
%TO.P,U2,33*%
%TO.N,/P3*%
X156210000Y-92075000D03*
%TO.P,U2,34*%
%TO.N,/VSS*%
X156210000Y-89535000D03*
%TO.P,U2,35*%
%TO.N,/P1*%
X156210000Y-86995000D03*
%TO.P,U2,36*%
%TO.N,/P38*%
X156210000Y-84455000D03*
%TO.P,U2,37*%
%TO.N,/P37*%
X156210000Y-81915000D03*
%TO.P,U2,38*%
%TO.N,/P36*%
X156210000Y-79375000D03*
%TO.P,U2,39*%
%TO.N,/P35*%
X156210000Y-76835000D03*
%TO.P,U2,40*%
%TO.N,/P34*%
X156210000Y-74295000D03*
%TD*%
D10*
%TO.P,U1,1*%
%TO.N,/P1*%
X118110000Y-64135000D03*
%TO.P,U1,2*%
%TO.N,/P2*%
X118110000Y-66675000D03*
%TO.P,U1,3*%
%TO.N,/P3*%
X118110000Y-69215000D03*
%TO.P,U1,4*%
%TO.N,/P4*%
X118110000Y-71755000D03*
%TO.P,U1,5*%
%TO.N,/P5*%
X118110000Y-74295000D03*
%TO.P,U1,6*%
%TO.N,/P6*%
X118110000Y-76835000D03*
%TO.P,U1,7*%
%TO.N,/P7*%
X118110000Y-79375000D03*
%TO.P,U1,8*%
%TO.N,/P8*%
X118110000Y-81915000D03*
%TO.P,U1,9*%
%TO.N,/P9*%
X118110000Y-84455000D03*
%TO.P,U1,10*%
%TO.N,/P10*%
X118110000Y-86995000D03*
%TO.P,U1,11*%
%TO.N,/P11*%
X118110000Y-89535000D03*
%TO.P,U1,12*%
%TO.N,/P12*%
X118110000Y-92075000D03*
%TO.P,U1,13*%
%TO.N,/P13*%
X118110000Y-94615000D03*
%TO.P,U1,14*%
%TO.N,/P14*%
X118110000Y-97155000D03*
%TO.P,U1,15*%
%TO.N,/P15*%
X118110000Y-99695000D03*
%TO.P,U1,16*%
%TO.N,/P16*%
X118110000Y-102235000D03*
%TO.P,U1,17*%
%TO.N,/P17*%
X118110000Y-104775000D03*
%TO.P,U1,18*%
%TO.N,/P18*%
X118110000Y-107315000D03*
%TO.P,U1,19*%
%TO.N,/P19*%
X118110000Y-109855000D03*
%TO.P,U1,20*%
%TO.N,/P20*%
X118110000Y-112395000D03*
%TO.P,U1,21*%
%TO.N,/P21*%
X133350000Y-112395000D03*
%TO.P,U1,22*%
%TO.N,/P22*%
X133350000Y-109855000D03*
%TO.P,U1,23*%
%TO.N,/P23*%
X133350000Y-107315000D03*
%TO.P,U1,24*%
%TO.N,/P24*%
X133350000Y-104775000D03*
%TO.P,U1,25*%
%TO.N,/P25*%
X133350000Y-102235000D03*
%TO.P,U1,26*%
%TO.N,/P26*%
X133350000Y-99695000D03*
%TO.P,U1,27*%
%TO.N,/P27*%
X133350000Y-97155000D03*
%TO.P,U1,28*%
%TO.N,/P28*%
X133350000Y-94615000D03*
%TO.P,U1,29*%
%TO.N,/P29*%
X133350000Y-92075000D03*
%TO.P,U1,30*%
%TO.N,/VSS*%
X133350000Y-89535000D03*
%TO.P,U1,31*%
%TO.N,/P31*%
X133350000Y-86995000D03*
%TO.P,U1,32*%
%TO.N,/P32*%
X133350000Y-84455000D03*
%TO.P,U1,33*%
%TO.N,/P33*%
X133350000Y-81915000D03*
%TO.P,U1,34*%
%TO.N,/P34*%
X133350000Y-79375000D03*
%TO.P,U1,35*%
%TO.N,/P35*%
X133350000Y-76835000D03*
%TO.P,U1,36*%
%TO.N,/P36*%
X133350000Y-74295000D03*
%TO.P,U1,37*%
%TO.N,/P37*%
X133350000Y-71755000D03*
%TO.P,U1,38*%
%TO.N,/P38*%
X133350000Y-69215000D03*
%TO.P,U1,39*%
%TO.N,/P39*%
X133350000Y-66675000D03*
%TO.P,U1,40*%
%TO.N,/VCC*%
X133350000Y-64135000D03*
%TD*%
D15*
%TO.N,/P7*%
X122555000Y-92075000D03*
%TO.N,/P8*%
X121920000Y-90805000D03*
%TO.N,/P9*%
X121285000Y-89535000D03*
%TO.N,/P10*%
X120650000Y-88265000D03*
%TO.N,/P12*%
X152400000Y-113665000D03*
%TO.N,/P13*%
X153035000Y-112395000D03*
%TO.N,/P14*%
X153670000Y-111125000D03*
%TO.N,/VCC*%
X142875000Y-50165000D03*
%TO.N,/VSS*%
X152400000Y-50165000D03*
X134620000Y-67945000D03*
X146050000Y-46228000D03*
X146050000Y-57912000D03*
X146050000Y-68072000D03*
X150622000Y-62738000D03*
X125984000Y-66294000D03*
X117348000Y-117094000D03*
X117348000Y-125730000D03*
X158242000Y-125730000D03*
X158242000Y-117094000D03*
X151130000Y-39624000D03*
X145415000Y-33401000D03*
%TD*%
D16*
%TO.N,/P2*%
X118110000Y-66675000D02*
X132080000Y-80645000D01*
X132080000Y-80645000D02*
X134620000Y-80645000D01*
X134620000Y-80645000D02*
X140970000Y-86995000D01*
%TO.N,/P7*%
X138430000Y-112395000D02*
X140970000Y-112395000D01*
X137160000Y-111125000D02*
X138430000Y-112395000D01*
X132080000Y-111125000D02*
X137160000Y-111125000D01*
X131445000Y-110490000D02*
X132080000Y-111125000D01*
X131445000Y-100965000D02*
X131445000Y-110490000D01*
X122555000Y-92075000D02*
X131445000Y-100965000D01*
%TO.N,/P8*%
X139065000Y-105410000D02*
X140970000Y-107315000D01*
X139065000Y-103505000D02*
X139065000Y-105410000D01*
X133985000Y-98425000D02*
X139065000Y-103505000D01*
X130810000Y-98425000D02*
X133985000Y-98425000D01*
X123190000Y-90805000D02*
X130810000Y-98425000D01*
X121920000Y-90805000D02*
X123190000Y-90805000D01*
%TO.N,/P9*%
X134620000Y-95885000D02*
X140970000Y-102235000D01*
X130175000Y-95885000D02*
X134620000Y-95885000D01*
X123825000Y-89535000D02*
X130175000Y-95885000D01*
X121285000Y-89535000D02*
X123825000Y-89535000D01*
%TO.N,/P10*%
X137160000Y-93345000D02*
X140970000Y-97155000D01*
X129540000Y-93345000D02*
X137160000Y-93345000D01*
X124460000Y-88265000D02*
X129540000Y-93345000D01*
X120650000Y-88265000D02*
X124460000Y-88265000D01*
%TO.N,/P11*%
X118110000Y-89535000D02*
X120650000Y-86995000D01*
X120650000Y-86995000D02*
X130810000Y-86995000D01*
X130810000Y-86995000D02*
X132080000Y-88265000D01*
X137160000Y-89535000D02*
X140970000Y-89535000D01*
X135890000Y-88265000D02*
X137160000Y-89535000D01*
X132080000Y-88265000D02*
X135890000Y-88265000D01*
%TO.N,/P12*%
X152400000Y-113665000D02*
X152400000Y-98425000D01*
X152400000Y-98425000D02*
X156210000Y-94615000D01*
%TO.N,/P13*%
X153035000Y-102870000D02*
X156210000Y-99695000D01*
X153035000Y-112395000D02*
X153035000Y-102870000D01*
%TO.N,/P14*%
X153670000Y-107315000D02*
X156210000Y-104775000D01*
X153670000Y-111125000D02*
X153670000Y-107315000D01*
%TO.N,/P16*%
X141605000Y-121920000D02*
X143510000Y-120015000D01*
X127635000Y-121920000D02*
X141605000Y-121920000D01*
X118110000Y-102235000D02*
X123190000Y-107315000D01*
X123190000Y-107315000D02*
X123190000Y-117475000D01*
X123190000Y-117475000D02*
X127635000Y-121920000D01*
X143510000Y-112395000D02*
X140970000Y-109855000D01*
X143510000Y-120015000D02*
X143510000Y-112395000D01*
%TO.N,/P17*%
X118110000Y-104775000D02*
X122555000Y-109220000D01*
X122555000Y-109220000D02*
X122555000Y-118110000D01*
X122555000Y-118110000D02*
X127000000Y-122555000D01*
X144145000Y-107950000D02*
X140970000Y-104775000D01*
X144145000Y-120650000D02*
X144145000Y-107950000D01*
X142240000Y-122555000D02*
X144145000Y-120650000D01*
X127000000Y-122555000D02*
X142240000Y-122555000D01*
%TO.N,/P18*%
X144780000Y-103505000D02*
X140970000Y-99695000D01*
X144780000Y-121285000D02*
X144780000Y-103505000D01*
X142875000Y-123190000D02*
X144780000Y-121285000D01*
X126365000Y-123190000D02*
X142875000Y-123190000D01*
X121920000Y-118745000D02*
X126365000Y-123190000D01*
X121920000Y-111125000D02*
X121920000Y-118745000D01*
X118110000Y-107315000D02*
X121920000Y-111125000D01*
%TO.N,/P19*%
X118110000Y-109855000D02*
X121285000Y-113030000D01*
X121285000Y-113030000D02*
X121285000Y-119380000D01*
X121285000Y-119380000D02*
X125730000Y-123825000D01*
X145415000Y-99060000D02*
X140970000Y-94615000D01*
X145415000Y-121920000D02*
X145415000Y-99060000D01*
X143510000Y-123825000D02*
X145415000Y-121920000D01*
X125730000Y-123825000D02*
X143510000Y-123825000D01*
%TO.N,/P20*%
X118110000Y-112395000D02*
X120650000Y-114935000D01*
X120650000Y-114935000D02*
X120650000Y-120015000D01*
X120650000Y-120015000D02*
X125095000Y-124460000D01*
X146050000Y-97155000D02*
X140970000Y-92075000D01*
X146050000Y-122555000D02*
X146050000Y-97155000D01*
X144145000Y-124460000D02*
X146050000Y-122555000D01*
X125095000Y-124460000D02*
X144145000Y-124460000D01*
%TO.N,Net-(P1-Pad1)*%
X147320000Y-35560000D02*
X153670000Y-35560000D01*
%TO.N,Net-(P1-Pad3)*%
X153670000Y-40640000D02*
X147320000Y-40640000D01*
%TO.N,/VCC*%
X133350000Y-64135000D02*
X135890000Y-64135000D01*
X147955000Y-111760000D02*
X151765000Y-115570000D01*
X151765000Y-115570000D02*
X153035000Y-115570000D01*
X153035000Y-115570000D02*
X156210000Y-112395000D01*
X147955000Y-69850000D02*
X147955000Y-111760000D01*
X147955000Y-51435000D02*
X147955000Y-69850000D01*
X146685000Y-50165000D02*
X147955000Y-51435000D01*
X139700000Y-50165000D02*
X142875000Y-50165000D01*
X142875000Y-50165000D02*
X146685000Y-50165000D01*
X137795000Y-52070000D02*
X139700000Y-50165000D01*
X137795000Y-62230000D02*
X137795000Y-52070000D01*
X135890000Y-64135000D02*
X137795000Y-62230000D01*
%TO.N,/VSS*%
X153035000Y-73025000D02*
X153035000Y-86360000D01*
X153035000Y-86360000D02*
X156210000Y-89535000D01*
X153035000Y-50800000D02*
X153035000Y-73025000D01*
X151765000Y-49530000D02*
X152400000Y-50165000D01*
X152400000Y-50165000D02*
X153035000Y-50800000D01*
X139065000Y-49530000D02*
X151765000Y-49530000D01*
X137160000Y-51435000D02*
X139065000Y-49530000D01*
X137160000Y-61595000D02*
X137160000Y-51435000D01*
X135890000Y-62865000D02*
X137160000Y-61595000D01*
X132715000Y-62865000D02*
X135890000Y-62865000D01*
X132080000Y-63500000D02*
X132715000Y-62865000D01*
X132080000Y-67310000D02*
X132080000Y-63500000D01*
X132715000Y-67945000D02*
X132080000Y-67310000D01*
X134620000Y-67945000D02*
X132715000Y-67945000D01*
%TD*%
D17*
%TO.N,/VSS*%
G36*
X160132992Y-30544364D02*
G01*
X160241670Y-30577176D01*
X160341918Y-30630479D01*
X160429897Y-30702232D01*
X160502263Y-30789707D01*
X160556263Y-30889579D01*
X160589833Y-30998027D01*
X160605000Y-31142331D01*
X160605001Y-128236486D01*
X160590636Y-128382992D01*
X160557823Y-128491672D01*
X160504522Y-128591917D01*
X160432769Y-128679895D01*
X160345292Y-128752263D01*
X160245420Y-128806263D01*
X160136973Y-128839833D01*
X159992669Y-128855000D01*
X115603504Y-128855000D01*
X115457008Y-128840636D01*
X115348328Y-128807823D01*
X115248083Y-128754522D01*
X115160105Y-128682769D01*
X115087737Y-128595292D01*
X115033737Y-128495420D01*
X115000167Y-128386973D01*
X114985000Y-128242669D01*
X114985000Y-63993665D01*
X116675000Y-63993665D01*
X116675000Y-64276335D01*
X116730147Y-64553574D01*
X116838320Y-64814727D01*
X116995363Y-65049759D01*
X117195241Y-65249637D01*
X117427759Y-65405000D01*
X117195241Y-65560363D01*
X116995363Y-65760241D01*
X116838320Y-65995273D01*
X116730147Y-66256426D01*
X116675000Y-66533665D01*
X116675000Y-66816335D01*
X116730147Y-67093574D01*
X116838320Y-67354727D01*
X116995363Y-67589759D01*
X117195241Y-67789637D01*
X117427759Y-67945000D01*
X117195241Y-68100363D01*
X116995363Y-68300241D01*
X116838320Y-68535273D01*
X116730147Y-68796426D01*
X116675000Y-69073665D01*
X116675000Y-69356335D01*
X116730147Y-69633574D01*
X116838320Y-69894727D01*
X116995363Y-70129759D01*
X117195241Y-70329637D01*
X117427759Y-70485000D01*
X117195241Y-70640363D01*
X116995363Y-70840241D01*
X116838320Y-71075273D01*
X116730147Y-71336426D01*
X116675000Y-71613665D01*
X116675000Y-71896335D01*
X116730147Y-72173574D01*
X116838320Y-72434727D01*
X116995363Y-72669759D01*
X117195241Y-72869637D01*
X117427759Y-73025000D01*
X117195241Y-73180363D01*
X116995363Y-73380241D01*
X116838320Y-73615273D01*
X116730147Y-73876426D01*
X116675000Y-74153665D01*
X116675000Y-74436335D01*
X116730147Y-74713574D01*
X116838320Y-74974727D01*
X116995363Y-75209759D01*
X117195241Y-75409637D01*
X117427759Y-75565000D01*
X117195241Y-75720363D01*
X116995363Y-75920241D01*
X116838320Y-76155273D01*
X116730147Y-76416426D01*
X116675000Y-76693665D01*
X116675000Y-76976335D01*
X116730147Y-77253574D01*
X116838320Y-77514727D01*
X116995363Y-77749759D01*
X117195241Y-77949637D01*
X117427759Y-78105000D01*
X117195241Y-78260363D01*
X116995363Y-78460241D01*
X116838320Y-78695273D01*
X116730147Y-78956426D01*
X116675000Y-79233665D01*
X116675000Y-79516335D01*
X116730147Y-79793574D01*
X116838320Y-80054727D01*
X116995363Y-80289759D01*
X117195241Y-80489637D01*
X117427759Y-80645000D01*
X117195241Y-80800363D01*
X116995363Y-81000241D01*
X116838320Y-81235273D01*
X116730147Y-81496426D01*
X116675000Y-81773665D01*
X116675000Y-82056335D01*
X116730147Y-82333574D01*
X116838320Y-82594727D01*
X116995363Y-82829759D01*
X117195241Y-83029637D01*
X117427759Y-83185000D01*
X117195241Y-83340363D01*
X116995363Y-83540241D01*
X116838320Y-83775273D01*
X116730147Y-84036426D01*
X116675000Y-84313665D01*
X116675000Y-84596335D01*
X116730147Y-84873574D01*
X116838320Y-85134727D01*
X116995363Y-85369759D01*
X117195241Y-85569637D01*
X117427759Y-85725000D01*
X117195241Y-85880363D01*
X116995363Y-86080241D01*
X116838320Y-86315273D01*
X116730147Y-86576426D01*
X116675000Y-86853665D01*
X116675000Y-87136335D01*
X116730147Y-87413574D01*
X116838320Y-87674727D01*
X116995363Y-87909759D01*
X117195241Y-88109637D01*
X117427759Y-88265000D01*
X117195241Y-88420363D01*
X116995363Y-88620241D01*
X116838320Y-88855273D01*
X116730147Y-89116426D01*
X116675000Y-89393665D01*
X116675000Y-89676335D01*
X116730147Y-89953574D01*
X116838320Y-90214727D01*
X116995363Y-90449759D01*
X117195241Y-90649637D01*
X117427759Y-90805000D01*
X117195241Y-90960363D01*
X116995363Y-91160241D01*
X116838320Y-91395273D01*
X116730147Y-91656426D01*
X116675000Y-91933665D01*
X116675000Y-92216335D01*
X116730147Y-92493574D01*
X116838320Y-92754727D01*
X116995363Y-92989759D01*
X117195241Y-93189637D01*
X117427759Y-93345000D01*
X117195241Y-93500363D01*
X116995363Y-93700241D01*
X116838320Y-93935273D01*
X116730147Y-94196426D01*
X116675000Y-94473665D01*
X116675000Y-94756335D01*
X116730147Y-95033574D01*
X116838320Y-95294727D01*
X116995363Y-95529759D01*
X117195241Y-95729637D01*
X117427759Y-95885000D01*
X117195241Y-96040363D01*
X116995363Y-96240241D01*
X116838320Y-96475273D01*
X116730147Y-96736426D01*
X116675000Y-97013665D01*
X116675000Y-97296335D01*
X116730147Y-97573574D01*
X116838320Y-97834727D01*
X116995363Y-98069759D01*
X117195241Y-98269637D01*
X117427759Y-98425000D01*
X117195241Y-98580363D01*
X116995363Y-98780241D01*
X116838320Y-99015273D01*
X116730147Y-99276426D01*
X116675000Y-99553665D01*
X116675000Y-99836335D01*
X116730147Y-100113574D01*
X116838320Y-100374727D01*
X116995363Y-100609759D01*
X117195241Y-100809637D01*
X117427759Y-100965000D01*
X117195241Y-101120363D01*
X116995363Y-101320241D01*
X116838320Y-101555273D01*
X116730147Y-101816426D01*
X116675000Y-102093665D01*
X116675000Y-102376335D01*
X116730147Y-102653574D01*
X116838320Y-102914727D01*
X116995363Y-103149759D01*
X117195241Y-103349637D01*
X117427759Y-103505000D01*
X117195241Y-103660363D01*
X116995363Y-103860241D01*
X116838320Y-104095273D01*
X116730147Y-104356426D01*
X116675000Y-104633665D01*
X116675000Y-104916335D01*
X116730147Y-105193574D01*
X116838320Y-105454727D01*
X116995363Y-105689759D01*
X117195241Y-105889637D01*
X117427759Y-106045000D01*
X117195241Y-106200363D01*
X116995363Y-106400241D01*
X116838320Y-106635273D01*
X116730147Y-106896426D01*
X116675000Y-107173665D01*
X116675000Y-107456335D01*
X116730147Y-107733574D01*
X116838320Y-107994727D01*
X116995363Y-108229759D01*
X117195241Y-108429637D01*
X117427759Y-108585000D01*
X117195241Y-108740363D01*
X116995363Y-108940241D01*
X116838320Y-109175273D01*
X116730147Y-109436426D01*
X116675000Y-109713665D01*
X116675000Y-109996335D01*
X116730147Y-110273574D01*
X116838320Y-110534727D01*
X116995363Y-110769759D01*
X117195241Y-110969637D01*
X117427759Y-111125000D01*
X117195241Y-111280363D01*
X116995363Y-111480241D01*
X116838320Y-111715273D01*
X116730147Y-111976426D01*
X116675000Y-112253665D01*
X116675000Y-112536335D01*
X116730147Y-112813574D01*
X116838320Y-113074727D01*
X116995363Y-113309759D01*
X117195241Y-113509637D01*
X117430273Y-113666680D01*
X117691426Y-113774853D01*
X117968665Y-113830000D01*
X118251335Y-113830000D01*
X118433886Y-113793688D01*
X119890000Y-115249803D01*
X119890001Y-119977668D01*
X119886324Y-120015000D01*
X119890001Y-120052332D01*
X119890001Y-120052333D01*
X119897553Y-120129003D01*
X119900998Y-120163985D01*
X119944454Y-120307246D01*
X120015026Y-120439276D01*
X120065694Y-120501014D01*
X120110000Y-120555001D01*
X120138998Y-120578799D01*
X124531201Y-124971003D01*
X124554999Y-125000001D01*
X124670724Y-125094974D01*
X124802753Y-125165546D01*
X124946014Y-125209003D01*
X125057667Y-125220000D01*
X125057676Y-125220000D01*
X125094999Y-125223676D01*
X125132322Y-125220000D01*
X144107678Y-125220000D01*
X144145000Y-125223676D01*
X144182322Y-125220000D01*
X144182333Y-125220000D01*
X144293986Y-125209003D01*
X144437247Y-125165546D01*
X144569276Y-125094974D01*
X144685001Y-125000001D01*
X144708804Y-124970997D01*
X146561004Y-123118798D01*
X146590001Y-123095001D01*
X146684974Y-122979276D01*
X146755546Y-122847247D01*
X146799003Y-122703986D01*
X146810000Y-122592333D01*
X146810000Y-122592323D01*
X146813676Y-122555000D01*
X146810000Y-122517677D01*
X146810000Y-97192323D01*
X146813676Y-97155000D01*
X146810000Y-97117677D01*
X146810000Y-97117667D01*
X146799003Y-97006014D01*
X146755546Y-96862753D01*
X146688022Y-96736426D01*
X146684974Y-96730723D01*
X146613799Y-96643997D01*
X146590001Y-96614999D01*
X146561003Y-96591201D01*
X142555311Y-92585510D01*
X142566207Y-92559204D01*
X142630000Y-92238496D01*
X142630000Y-91911504D01*
X142566207Y-91590796D01*
X142441073Y-91288695D01*
X142259406Y-91016812D01*
X142047594Y-90805000D01*
X142259406Y-90593188D01*
X142441073Y-90321305D01*
X142566207Y-90019204D01*
X142630000Y-89698496D01*
X142630000Y-89371504D01*
X142566207Y-89050796D01*
X142441073Y-88748695D01*
X142259406Y-88476812D01*
X142047594Y-88265000D01*
X142259406Y-88053188D01*
X142441073Y-87781305D01*
X142566207Y-87479204D01*
X142630000Y-87158496D01*
X142630000Y-86831504D01*
X142566207Y-86510796D01*
X142441073Y-86208695D01*
X142259406Y-85936812D01*
X142047594Y-85725000D01*
X142259406Y-85513188D01*
X142441073Y-85241305D01*
X142566207Y-84939204D01*
X142630000Y-84618496D01*
X142630000Y-84291504D01*
X142566207Y-83970796D01*
X142441073Y-83668695D01*
X142259406Y-83396812D01*
X142047594Y-83185000D01*
X142259406Y-82973188D01*
X142441073Y-82701305D01*
X142566207Y-82399204D01*
X142630000Y-82078496D01*
X142630000Y-81751504D01*
X142566207Y-81430796D01*
X142441073Y-81128695D01*
X142259406Y-80856812D01*
X142047594Y-80645000D01*
X142259406Y-80433188D01*
X142441073Y-80161305D01*
X142566207Y-79859204D01*
X142630000Y-79538496D01*
X142630000Y-79211504D01*
X142566207Y-78890796D01*
X142441073Y-78588695D01*
X142259406Y-78316812D01*
X142047594Y-78105000D01*
X142259406Y-77893188D01*
X142441073Y-77621305D01*
X142566207Y-77319204D01*
X142630000Y-76998496D01*
X142630000Y-76671504D01*
X142566207Y-76350796D01*
X142441073Y-76048695D01*
X142259406Y-75776812D01*
X142047594Y-75565000D01*
X142259406Y-75353188D01*
X142441073Y-75081305D01*
X142566207Y-74779204D01*
X142630000Y-74458496D01*
X142630000Y-74131504D01*
X142566207Y-73810796D01*
X142441073Y-73508695D01*
X142259406Y-73236812D01*
X142047594Y-73025000D01*
X142259406Y-72813188D01*
X142441073Y-72541305D01*
X142566207Y-72239204D01*
X142630000Y-71918496D01*
X142630000Y-71591504D01*
X142566207Y-71270796D01*
X142441073Y-70968695D01*
X142259406Y-70696812D01*
X142047594Y-70485000D01*
X142259406Y-70273188D01*
X142441073Y-70001305D01*
X142566207Y-69699204D01*
X142630000Y-69378496D01*
X142630000Y-69051504D01*
X142566207Y-68730796D01*
X142441073Y-68428695D01*
X142259406Y-68156812D01*
X142047594Y-67945000D01*
X142259406Y-67733188D01*
X142441073Y-67461305D01*
X142566207Y-67159204D01*
X142630000Y-66838496D01*
X142630000Y-66511504D01*
X142566207Y-66190796D01*
X142441073Y-65888695D01*
X142259406Y-65616812D01*
X142047594Y-65405000D01*
X142259406Y-65193188D01*
X142441073Y-64921305D01*
X142566207Y-64619204D01*
X142630000Y-64298496D01*
X142630000Y-63971504D01*
X142566207Y-63650796D01*
X142441073Y-63348695D01*
X142259406Y-63076812D01*
X142047594Y-62865000D01*
X142259406Y-62653188D01*
X142441073Y-62381305D01*
X142566207Y-62079204D01*
X142630000Y-61758496D01*
X142630000Y-61431504D01*
X142566207Y-61110796D01*
X142441073Y-60808695D01*
X142259406Y-60536812D01*
X142047594Y-60325000D01*
X142259406Y-60113188D01*
X142441073Y-59841305D01*
X142566207Y-59539204D01*
X142630000Y-59218496D01*
X142630000Y-58891504D01*
X142566207Y-58570796D01*
X142441073Y-58268695D01*
X142259406Y-57996812D01*
X142047594Y-57785000D01*
X142259406Y-57573188D01*
X142441073Y-57301305D01*
X142566207Y-56999204D01*
X142630000Y-56678496D01*
X142630000Y-56351504D01*
X142566207Y-56030796D01*
X142441073Y-55728695D01*
X142259406Y-55456812D01*
X142047594Y-55245000D01*
X142259406Y-55033188D01*
X142441073Y-54761305D01*
X142566207Y-54459204D01*
X142630000Y-54138496D01*
X142630000Y-53811504D01*
X142566207Y-53490796D01*
X142441073Y-53188695D01*
X142259406Y-52916812D01*
X142028188Y-52685594D01*
X141756305Y-52503927D01*
X141454204Y-52378793D01*
X141133496Y-52315000D01*
X140806504Y-52315000D01*
X140485796Y-52378793D01*
X140183695Y-52503927D01*
X139911812Y-52685594D01*
X139680594Y-52916812D01*
X139498927Y-53188695D01*
X139373793Y-53490796D01*
X139310000Y-53811504D01*
X139310000Y-54138496D01*
X139373793Y-54459204D01*
X139498927Y-54761305D01*
X139680594Y-55033188D01*
X139892406Y-55245000D01*
X139680594Y-55456812D01*
X139498927Y-55728695D01*
X139373793Y-56030796D01*
X139310000Y-56351504D01*
X139310000Y-56678496D01*
X139373793Y-56999204D01*
X139498927Y-57301305D01*
X139680594Y-57573188D01*
X139892406Y-57785000D01*
X139680594Y-57996812D01*
X139498927Y-58268695D01*
X139373793Y-58570796D01*
X139310000Y-58891504D01*
X139310000Y-59218496D01*
X139373793Y-59539204D01*
X139498927Y-59841305D01*
X139680594Y-60113188D01*
X139892406Y-60325000D01*
X139680594Y-60536812D01*
X139498927Y-60808695D01*
X139373793Y-61110796D01*
X139310000Y-61431504D01*
X139310000Y-61758496D01*
X139373793Y-62079204D01*
X139498927Y-62381305D01*
X139680594Y-62653188D01*
X139892406Y-62865000D01*
X139680594Y-63076812D01*
X139498927Y-63348695D01*
X139373793Y-63650796D01*
X139310000Y-63971504D01*
X139310000Y-64298496D01*
X139373793Y-64619204D01*
X139498927Y-64921305D01*
X139680594Y-65193188D01*
X139892406Y-65405000D01*
X139680594Y-65616812D01*
X139498927Y-65888695D01*
X139373793Y-66190796D01*
X139310000Y-66511504D01*
X139310000Y-66838496D01*
X139373793Y-67159204D01*
X139498927Y-67461305D01*
X139680594Y-67733188D01*
X139892406Y-67945000D01*
X139680594Y-68156812D01*
X139498927Y-68428695D01*
X139373793Y-68730796D01*
X139310000Y-69051504D01*
X139310000Y-69378496D01*
X139373793Y-69699204D01*
X139498927Y-70001305D01*
X139680594Y-70273188D01*
X139892406Y-70485000D01*
X139680594Y-70696812D01*
X139498927Y-70968695D01*
X139373793Y-71270796D01*
X139310000Y-71591504D01*
X139310000Y-71918496D01*
X139373793Y-72239204D01*
X139498927Y-72541305D01*
X139680594Y-72813188D01*
X139892406Y-73025000D01*
X139680594Y-73236812D01*
X139498927Y-73508695D01*
X139373793Y-73810796D01*
X139310000Y-74131504D01*
X139310000Y-74458496D01*
X139373793Y-74779204D01*
X139498927Y-75081305D01*
X139680594Y-75353188D01*
X139892406Y-75565000D01*
X139680594Y-75776812D01*
X139498927Y-76048695D01*
X139373793Y-76350796D01*
X139310000Y-76671504D01*
X139310000Y-76998496D01*
X139373793Y-77319204D01*
X139498927Y-77621305D01*
X139680594Y-77893188D01*
X139892406Y-78105000D01*
X139680594Y-78316812D01*
X139498927Y-78588695D01*
X139373793Y-78890796D01*
X139310000Y-79211504D01*
X139310000Y-79538496D01*
X139373793Y-79859204D01*
X139498927Y-80161305D01*
X139680594Y-80433188D01*
X139892406Y-80645000D01*
X139680594Y-80856812D01*
X139498927Y-81128695D01*
X139373793Y-81430796D01*
X139310000Y-81751504D01*
X139310000Y-82078496D01*
X139373793Y-82399204D01*
X139498927Y-82701305D01*
X139680594Y-82973188D01*
X139892406Y-83185000D01*
X139680594Y-83396812D01*
X139498927Y-83668695D01*
X139373793Y-83970796D01*
X139315194Y-84265392D01*
X135183804Y-80134003D01*
X135160001Y-80104999D01*
X135044276Y-80010026D01*
X134912247Y-79939454D01*
X134768986Y-79895997D01*
X134690625Y-79888279D01*
X134729853Y-79793574D01*
X134785000Y-79516335D01*
X134785000Y-79233665D01*
X134729853Y-78956426D01*
X134621680Y-78695273D01*
X134464637Y-78460241D01*
X134264759Y-78260363D01*
X134032241Y-78105000D01*
X134264759Y-77949637D01*
X134464637Y-77749759D01*
X134621680Y-77514727D01*
X134729853Y-77253574D01*
X134785000Y-76976335D01*
X134785000Y-76693665D01*
X134729853Y-76416426D01*
X134621680Y-76155273D01*
X134464637Y-75920241D01*
X134264759Y-75720363D01*
X134032241Y-75565000D01*
X134264759Y-75409637D01*
X134464637Y-75209759D01*
X134621680Y-74974727D01*
X134729853Y-74713574D01*
X134785000Y-74436335D01*
X134785000Y-74153665D01*
X134729853Y-73876426D01*
X134621680Y-73615273D01*
X134464637Y-73380241D01*
X134264759Y-73180363D01*
X134032241Y-73025000D01*
X134264759Y-72869637D01*
X134464637Y-72669759D01*
X134621680Y-72434727D01*
X134729853Y-72173574D01*
X134785000Y-71896335D01*
X134785000Y-71613665D01*
X134729853Y-71336426D01*
X134621680Y-71075273D01*
X134464637Y-70840241D01*
X134264759Y-70640363D01*
X134032241Y-70485000D01*
X134264759Y-70329637D01*
X134464637Y-70129759D01*
X134621680Y-69894727D01*
X134729853Y-69633574D01*
X134785000Y-69356335D01*
X134785000Y-69073665D01*
X134729853Y-68796426D01*
X134621680Y-68535273D01*
X134464637Y-68300241D01*
X134264759Y-68100363D01*
X134032241Y-67945000D01*
X134264759Y-67789637D01*
X134464637Y-67589759D01*
X134621680Y-67354727D01*
X134729853Y-67093574D01*
X134785000Y-66816335D01*
X134785000Y-66533665D01*
X134729853Y-66256426D01*
X134621680Y-65995273D01*
X134464637Y-65760241D01*
X134264759Y-65560363D01*
X134032241Y-65405000D01*
X134264759Y-65249637D01*
X134464637Y-65049759D01*
X134568043Y-64895000D01*
X135852678Y-64895000D01*
X135890000Y-64898676D01*
X135927322Y-64895000D01*
X135927333Y-64895000D01*
X136038986Y-64884003D01*
X136182247Y-64840546D01*
X136314276Y-64769974D01*
X136430001Y-64675001D01*
X136453804Y-64645997D01*
X138306004Y-62793798D01*
X138335001Y-62770001D01*
X138429974Y-62654276D01*
X138500546Y-62522247D01*
X138544003Y-62378986D01*
X138555000Y-62267333D01*
X138555000Y-62267323D01*
X138558676Y-62230000D01*
X138555000Y-62192677D01*
X138555000Y-52384801D01*
X140014802Y-50925000D01*
X142329465Y-50925000D01*
X142432111Y-50993586D01*
X142602271Y-51064068D01*
X142782911Y-51100000D01*
X142967089Y-51100000D01*
X143147729Y-51064068D01*
X143317889Y-50993586D01*
X143420535Y-50925000D01*
X146370199Y-50925000D01*
X147195000Y-51749802D01*
X147195001Y-69812658D01*
X147195000Y-69812668D01*
X147195001Y-111722667D01*
X147191324Y-111760000D01*
X147195001Y-111797333D01*
X147202553Y-111874003D01*
X147205998Y-111908985D01*
X147249454Y-112052246D01*
X147320026Y-112184276D01*
X147376973Y-112253665D01*
X147415000Y-112300001D01*
X147443998Y-112323799D01*
X151201201Y-116081003D01*
X151224999Y-116110001D01*
X151340724Y-116204974D01*
X151472753Y-116275546D01*
X151616014Y-116319003D01*
X151727667Y-116330000D01*
X151727675Y-116330000D01*
X151765000Y-116333676D01*
X151802325Y-116330000D01*
X152997678Y-116330000D01*
X153035000Y-116333676D01*
X153072322Y-116330000D01*
X153072333Y-116330000D01*
X153183986Y-116319003D01*
X153327247Y-116275546D01*
X153459276Y-116204974D01*
X153575001Y-116110001D01*
X153598804Y-116080997D01*
X155699491Y-113980311D01*
X155725796Y-113991207D01*
X156046504Y-114055000D01*
X156373496Y-114055000D01*
X156694204Y-113991207D01*
X156996305Y-113866073D01*
X157268188Y-113684406D01*
X157499406Y-113453188D01*
X157681073Y-113181305D01*
X157806207Y-112879204D01*
X157870000Y-112558496D01*
X157870000Y-112231504D01*
X157806207Y-111910796D01*
X157681073Y-111608695D01*
X157499406Y-111336812D01*
X157287594Y-111125000D01*
X157499406Y-110913188D01*
X157681073Y-110641305D01*
X157806207Y-110339204D01*
X157870000Y-110018496D01*
X157870000Y-109691504D01*
X157806207Y-109370796D01*
X157681073Y-109068695D01*
X157499406Y-108796812D01*
X157287594Y-108585000D01*
X157499406Y-108373188D01*
X157681073Y-108101305D01*
X157806207Y-107799204D01*
X157870000Y-107478496D01*
X157870000Y-107151504D01*
X157806207Y-106830796D01*
X157681073Y-106528695D01*
X157499406Y-106256812D01*
X157287594Y-106045000D01*
X157499406Y-105833188D01*
X157681073Y-105561305D01*
X157806207Y-105259204D01*
X157870000Y-104938496D01*
X157870000Y-104611504D01*
X157806207Y-104290796D01*
X157681073Y-103988695D01*
X157499406Y-103716812D01*
X157287594Y-103505000D01*
X157499406Y-103293188D01*
X157681073Y-103021305D01*
X157806207Y-102719204D01*
X157870000Y-102398496D01*
X157870000Y-102071504D01*
X157806207Y-101750796D01*
X157681073Y-101448695D01*
X157499406Y-101176812D01*
X157287594Y-100965000D01*
X157499406Y-100753188D01*
X157681073Y-100481305D01*
X157806207Y-100179204D01*
X157870000Y-99858496D01*
X157870000Y-99531504D01*
X157806207Y-99210796D01*
X157681073Y-98908695D01*
X157499406Y-98636812D01*
X157287594Y-98425000D01*
X157499406Y-98213188D01*
X157681073Y-97941305D01*
X157806207Y-97639204D01*
X157870000Y-97318496D01*
X157870000Y-96991504D01*
X157806207Y-96670796D01*
X157681073Y-96368695D01*
X157499406Y-96096812D01*
X157287594Y-95885000D01*
X157499406Y-95673188D01*
X157681073Y-95401305D01*
X157806207Y-95099204D01*
X157870000Y-94778496D01*
X157870000Y-94451504D01*
X157806207Y-94130796D01*
X157681073Y-93828695D01*
X157499406Y-93556812D01*
X157287594Y-93345000D01*
X157499406Y-93133188D01*
X157681073Y-92861305D01*
X157806207Y-92559204D01*
X157870000Y-92238496D01*
X157870000Y-91911504D01*
X157806207Y-91590796D01*
X157681073Y-91288695D01*
X157499406Y-91016812D01*
X157278249Y-90795655D01*
X157426768Y-90664197D01*
X157623684Y-90405120D01*
X157766272Y-90112605D01*
X157824890Y-89919357D01*
X157705868Y-89662000D01*
X156337000Y-89662000D01*
X156337000Y-89682000D01*
X156083000Y-89682000D01*
X156083000Y-89662000D01*
X154714132Y-89662000D01*
X154595110Y-89919357D01*
X154653728Y-90112605D01*
X154796316Y-90405120D01*
X154993232Y-90664197D01*
X155141751Y-90795655D01*
X154920594Y-91016812D01*
X154738927Y-91288695D01*
X154613793Y-91590796D01*
X154550000Y-91911504D01*
X154550000Y-92238496D01*
X154613793Y-92559204D01*
X154738927Y-92861305D01*
X154920594Y-93133188D01*
X155132406Y-93345000D01*
X154920594Y-93556812D01*
X154738927Y-93828695D01*
X154613793Y-94130796D01*
X154550000Y-94451504D01*
X154550000Y-94778496D01*
X154613793Y-95099204D01*
X154624689Y-95125509D01*
X151888998Y-97861201D01*
X151860000Y-97884999D01*
X151836202Y-97913997D01*
X151836201Y-97913998D01*
X151765026Y-98000724D01*
X151694454Y-98132754D01*
X151670056Y-98213188D01*
X151650998Y-98276014D01*
X151647144Y-98315147D01*
X151636324Y-98425000D01*
X151640001Y-98462333D01*
X151640000Y-113119465D01*
X151571414Y-113222111D01*
X151500932Y-113392271D01*
X151465000Y-113572911D01*
X151465000Y-113757089D01*
X151500932Y-113937729D01*
X151571414Y-114107889D01*
X151673738Y-114261028D01*
X151803972Y-114391262D01*
X151957111Y-114493586D01*
X152127271Y-114564068D01*
X152307911Y-114600000D01*
X152492089Y-114600000D01*
X152672729Y-114564068D01*
X152842889Y-114493586D01*
X152996028Y-114391262D01*
X153126262Y-114261028D01*
X153228586Y-114107889D01*
X153299068Y-113937729D01*
X153335000Y-113757089D01*
X153335000Y-113572911D01*
X153299068Y-113392271D01*
X153262147Y-113303135D01*
X153307729Y-113294068D01*
X153477889Y-113223586D01*
X153631028Y-113121262D01*
X153761262Y-112991028D01*
X153863586Y-112837889D01*
X153934068Y-112667729D01*
X153970000Y-112487089D01*
X153970000Y-112302911D01*
X153934068Y-112122271D01*
X153897147Y-112033135D01*
X153942729Y-112024068D01*
X154112889Y-111953586D01*
X154266028Y-111851262D01*
X154396262Y-111721028D01*
X154498586Y-111567889D01*
X154569068Y-111397729D01*
X154605000Y-111217089D01*
X154605000Y-111032911D01*
X154569068Y-110852271D01*
X154498586Y-110682111D01*
X154430000Y-110579465D01*
X154430000Y-107629801D01*
X154555194Y-107504607D01*
X154613793Y-107799204D01*
X154738927Y-108101305D01*
X154920594Y-108373188D01*
X155132406Y-108585000D01*
X154920594Y-108796812D01*
X154738927Y-109068695D01*
X154613793Y-109370796D01*
X154550000Y-109691504D01*
X154550000Y-110018496D01*
X154613793Y-110339204D01*
X154738927Y-110641305D01*
X154920594Y-110913188D01*
X155132406Y-111125000D01*
X154920594Y-111336812D01*
X154738927Y-111608695D01*
X154613793Y-111910796D01*
X154550000Y-112231504D01*
X154550000Y-112558496D01*
X154613793Y-112879204D01*
X154624689Y-112905509D01*
X152720199Y-114810000D01*
X152079802Y-114810000D01*
X148715000Y-111445199D01*
X148715000Y-53811504D01*
X154550000Y-53811504D01*
X154550000Y-54138496D01*
X154613793Y-54459204D01*
X154738927Y-54761305D01*
X154920594Y-55033188D01*
X155132406Y-55245000D01*
X154920594Y-55456812D01*
X154738927Y-55728695D01*
X154613793Y-56030796D01*
X154550000Y-56351504D01*
X154550000Y-56678496D01*
X154613793Y-56999204D01*
X154738927Y-57301305D01*
X154920594Y-57573188D01*
X155132406Y-57785000D01*
X154920594Y-57996812D01*
X154738927Y-58268695D01*
X154613793Y-58570796D01*
X154550000Y-58891504D01*
X154550000Y-59218496D01*
X154613793Y-59539204D01*
X154738927Y-59841305D01*
X154920594Y-60113188D01*
X155132406Y-60325000D01*
X154920594Y-60536812D01*
X154738927Y-60808695D01*
X154613793Y-61110796D01*
X154550000Y-61431504D01*
X154550000Y-61758496D01*
X154613793Y-62079204D01*
X154738927Y-62381305D01*
X154920594Y-62653188D01*
X155132406Y-62865000D01*
X154920594Y-63076812D01*
X154738927Y-63348695D01*
X154613793Y-63650796D01*
X154550000Y-63971504D01*
X154550000Y-64298496D01*
X154613793Y-64619204D01*
X154738927Y-64921305D01*
X154920594Y-65193188D01*
X155132406Y-65405000D01*
X154920594Y-65616812D01*
X154738927Y-65888695D01*
X154613793Y-66190796D01*
X154550000Y-66511504D01*
X154550000Y-66838496D01*
X154613793Y-67159204D01*
X154738927Y-67461305D01*
X154920594Y-67733188D01*
X155132406Y-67945000D01*
X154920594Y-68156812D01*
X154738927Y-68428695D01*
X154613793Y-68730796D01*
X154550000Y-69051504D01*
X154550000Y-69378496D01*
X154613793Y-69699204D01*
X154738927Y-70001305D01*
X154920594Y-70273188D01*
X155132406Y-70485000D01*
X154920594Y-70696812D01*
X154738927Y-70968695D01*
X154613793Y-71270796D01*
X154550000Y-71591504D01*
X154550000Y-71918496D01*
X154613793Y-72239204D01*
X154738927Y-72541305D01*
X154920594Y-72813188D01*
X155132406Y-73025000D01*
X154920594Y-73236812D01*
X154738927Y-73508695D01*
X154613793Y-73810796D01*
X154550000Y-74131504D01*
X154550000Y-74458496D01*
X154613793Y-74779204D01*
X154738927Y-75081305D01*
X154920594Y-75353188D01*
X155132406Y-75565000D01*
X154920594Y-75776812D01*
X154738927Y-76048695D01*
X154613793Y-76350796D01*
X154550000Y-76671504D01*
X154550000Y-76998496D01*
X154613793Y-77319204D01*
X154738927Y-77621305D01*
X154920594Y-77893188D01*
X155132406Y-78105000D01*
X154920594Y-78316812D01*
X154738927Y-78588695D01*
X154613793Y-78890796D01*
X154550000Y-79211504D01*
X154550000Y-79538496D01*
X154613793Y-79859204D01*
X154738927Y-80161305D01*
X154920594Y-80433188D01*
X155132406Y-80645000D01*
X154920594Y-80856812D01*
X154738927Y-81128695D01*
X154613793Y-81430796D01*
X154550000Y-81751504D01*
X154550000Y-82078496D01*
X154613793Y-82399204D01*
X154738927Y-82701305D01*
X154920594Y-82973188D01*
X155132406Y-83185000D01*
X154920594Y-83396812D01*
X154738927Y-83668695D01*
X154613793Y-83970796D01*
X154550000Y-84291504D01*
X154550000Y-84618496D01*
X154613793Y-84939204D01*
X154738927Y-85241305D01*
X154920594Y-85513188D01*
X155132406Y-85725000D01*
X154920594Y-85936812D01*
X154738927Y-86208695D01*
X154613793Y-86510796D01*
X154550000Y-86831504D01*
X154550000Y-87158496D01*
X154613793Y-87479204D01*
X154738927Y-87781305D01*
X154920594Y-88053188D01*
X155141751Y-88274345D01*
X154993232Y-88405803D01*
X154796316Y-88664880D01*
X154653728Y-88957395D01*
X154595110Y-89150643D01*
X154714132Y-89408000D01*
X156083000Y-89408000D01*
X156083000Y-89388000D01*
X156337000Y-89388000D01*
X156337000Y-89408000D01*
X157705868Y-89408000D01*
X157824890Y-89150643D01*
X157766272Y-88957395D01*
X157623684Y-88664880D01*
X157426768Y-88405803D01*
X157278249Y-88274345D01*
X157499406Y-88053188D01*
X157681073Y-87781305D01*
X157806207Y-87479204D01*
X157870000Y-87158496D01*
X157870000Y-86831504D01*
X157806207Y-86510796D01*
X157681073Y-86208695D01*
X157499406Y-85936812D01*
X157287594Y-85725000D01*
X157499406Y-85513188D01*
X157681073Y-85241305D01*
X157806207Y-84939204D01*
X157870000Y-84618496D01*
X157870000Y-84291504D01*
X157806207Y-83970796D01*
X157681073Y-83668695D01*
X157499406Y-83396812D01*
X157287594Y-83185000D01*
X157499406Y-82973188D01*
X157681073Y-82701305D01*
X157806207Y-82399204D01*
X157870000Y-82078496D01*
X157870000Y-81751504D01*
X157806207Y-81430796D01*
X157681073Y-81128695D01*
X157499406Y-80856812D01*
X157287594Y-80645000D01*
X157499406Y-80433188D01*
X157681073Y-80161305D01*
X157806207Y-79859204D01*
X157870000Y-79538496D01*
X157870000Y-79211504D01*
X157806207Y-78890796D01*
X157681073Y-78588695D01*
X157499406Y-78316812D01*
X157287594Y-78105000D01*
X157499406Y-77893188D01*
X157681073Y-77621305D01*
X157806207Y-77319204D01*
X157870000Y-76998496D01*
X157870000Y-76671504D01*
X157806207Y-76350796D01*
X157681073Y-76048695D01*
X157499406Y-75776812D01*
X157287594Y-75565000D01*
X157499406Y-75353188D01*
X157681073Y-75081305D01*
X157806207Y-74779204D01*
X157870000Y-74458496D01*
X157870000Y-74131504D01*
X157806207Y-73810796D01*
X157681073Y-73508695D01*
X157499406Y-73236812D01*
X157287594Y-73025000D01*
X157499406Y-72813188D01*
X157681073Y-72541305D01*
X157806207Y-72239204D01*
X157870000Y-71918496D01*
X157870000Y-71591504D01*
X157806207Y-71270796D01*
X157681073Y-70968695D01*
X157499406Y-70696812D01*
X157287594Y-70485000D01*
X157499406Y-70273188D01*
X157681073Y-70001305D01*
X157806207Y-69699204D01*
X157870000Y-69378496D01*
X157870000Y-69051504D01*
X157806207Y-68730796D01*
X157681073Y-68428695D01*
X157499406Y-68156812D01*
X157287594Y-67945000D01*
X157499406Y-67733188D01*
X157681073Y-67461305D01*
X157806207Y-67159204D01*
X157870000Y-66838496D01*
X157870000Y-66511504D01*
X157806207Y-66190796D01*
X157681073Y-65888695D01*
X157499406Y-65616812D01*
X157287594Y-65405000D01*
X157499406Y-65193188D01*
X157681073Y-64921305D01*
X157806207Y-64619204D01*
X157870000Y-64298496D01*
X157870000Y-63971504D01*
X157806207Y-63650796D01*
X157681073Y-63348695D01*
X157499406Y-63076812D01*
X157287594Y-62865000D01*
X157499406Y-62653188D01*
X157681073Y-62381305D01*
X157806207Y-62079204D01*
X157870000Y-61758496D01*
X157870000Y-61431504D01*
X157806207Y-61110796D01*
X157681073Y-60808695D01*
X157499406Y-60536812D01*
X157287594Y-60325000D01*
X157499406Y-60113188D01*
X157681073Y-59841305D01*
X157806207Y-59539204D01*
X157870000Y-59218496D01*
X157870000Y-58891504D01*
X157806207Y-58570796D01*
X157681073Y-58268695D01*
X157499406Y-57996812D01*
X157287594Y-57785000D01*
X157499406Y-57573188D01*
X157681073Y-57301305D01*
X157806207Y-56999204D01*
X157870000Y-56678496D01*
X157870000Y-56351504D01*
X157806207Y-56030796D01*
X157681073Y-55728695D01*
X157499406Y-55456812D01*
X157287594Y-55245000D01*
X157499406Y-55033188D01*
X157681073Y-54761305D01*
X157806207Y-54459204D01*
X157870000Y-54138496D01*
X157870000Y-53811504D01*
X157806207Y-53490796D01*
X157681073Y-53188695D01*
X157499406Y-52916812D01*
X157268188Y-52685594D01*
X156996305Y-52503927D01*
X156694204Y-52378793D01*
X156373496Y-52315000D01*
X156046504Y-52315000D01*
X155725796Y-52378793D01*
X155423695Y-52503927D01*
X155151812Y-52685594D01*
X154920594Y-52916812D01*
X154738927Y-53188695D01*
X154613793Y-53490796D01*
X154550000Y-53811504D01*
X148715000Y-53811504D01*
X148715000Y-51472322D01*
X148718676Y-51434999D01*
X148715000Y-51397676D01*
X148715000Y-51397667D01*
X148704003Y-51286014D01*
X148660546Y-51142753D01*
X148589974Y-51010724D01*
X148495001Y-50894999D01*
X148466004Y-50871202D01*
X147248804Y-49654003D01*
X147225001Y-49624999D01*
X147109276Y-49530026D01*
X146977247Y-49459454D01*
X146833986Y-49415997D01*
X146722333Y-49405000D01*
X146722322Y-49405000D01*
X146685000Y-49401324D01*
X146647678Y-49405000D01*
X143420535Y-49405000D01*
X143317889Y-49336414D01*
X143147729Y-49265932D01*
X142967089Y-49230000D01*
X142782911Y-49230000D01*
X142602271Y-49265932D01*
X142432111Y-49336414D01*
X142329465Y-49405000D01*
X139737323Y-49405000D01*
X139700000Y-49401324D01*
X139662677Y-49405000D01*
X139662667Y-49405000D01*
X139551014Y-49415997D01*
X139407753Y-49459454D01*
X139275724Y-49530026D01*
X139159999Y-49624999D01*
X139136201Y-49653997D01*
X137283998Y-51506201D01*
X137255000Y-51529999D01*
X137231202Y-51558997D01*
X137231201Y-51558998D01*
X137160026Y-51645724D01*
X137089454Y-51777754D01*
X137045998Y-51921015D01*
X137031324Y-52070000D01*
X137035001Y-52107332D01*
X137035000Y-61915198D01*
X135575199Y-63375000D01*
X134568043Y-63375000D01*
X134464637Y-63220241D01*
X134264759Y-63020363D01*
X134029727Y-62863320D01*
X133768574Y-62755147D01*
X133491335Y-62700000D01*
X133208665Y-62700000D01*
X132931426Y-62755147D01*
X132670273Y-62863320D01*
X132435241Y-63020363D01*
X132235363Y-63220241D01*
X132078320Y-63455273D01*
X131970147Y-63716426D01*
X131915000Y-63993665D01*
X131915000Y-64276335D01*
X131970147Y-64553574D01*
X132078320Y-64814727D01*
X132235363Y-65049759D01*
X132435241Y-65249637D01*
X132667759Y-65405000D01*
X132435241Y-65560363D01*
X132235363Y-65760241D01*
X132078320Y-65995273D01*
X131970147Y-66256426D01*
X131915000Y-66533665D01*
X131915000Y-66816335D01*
X131970147Y-67093574D01*
X132078320Y-67354727D01*
X132235363Y-67589759D01*
X132435241Y-67789637D01*
X132667759Y-67945000D01*
X132435241Y-68100363D01*
X132235363Y-68300241D01*
X132078320Y-68535273D01*
X131970147Y-68796426D01*
X131915000Y-69073665D01*
X131915000Y-69356335D01*
X131970147Y-69633574D01*
X132078320Y-69894727D01*
X132235363Y-70129759D01*
X132435241Y-70329637D01*
X132667759Y-70485000D01*
X132435241Y-70640363D01*
X132235363Y-70840241D01*
X132078320Y-71075273D01*
X131970147Y-71336426D01*
X131915000Y-71613665D01*
X131915000Y-71896335D01*
X131970147Y-72173574D01*
X132078320Y-72434727D01*
X132235363Y-72669759D01*
X132435241Y-72869637D01*
X132667759Y-73025000D01*
X132435241Y-73180363D01*
X132235363Y-73380241D01*
X132078320Y-73615273D01*
X131970147Y-73876426D01*
X131915000Y-74153665D01*
X131915000Y-74436335D01*
X131970147Y-74713574D01*
X132078320Y-74974727D01*
X132235363Y-75209759D01*
X132435241Y-75409637D01*
X132667759Y-75565000D01*
X132435241Y-75720363D01*
X132235363Y-75920241D01*
X132078320Y-76155273D01*
X131970147Y-76416426D01*
X131915000Y-76693665D01*
X131915000Y-76976335D01*
X131970147Y-77253574D01*
X132078320Y-77514727D01*
X132235363Y-77749759D01*
X132435241Y-77949637D01*
X132667759Y-78105000D01*
X132435241Y-78260363D01*
X132235363Y-78460241D01*
X132078320Y-78695273D01*
X131970147Y-78956426D01*
X131915000Y-79233665D01*
X131915000Y-79405197D01*
X119508688Y-66998887D01*
X119545000Y-66816335D01*
X119545000Y-66533665D01*
X119489853Y-66256426D01*
X119381680Y-65995273D01*
X119224637Y-65760241D01*
X119024759Y-65560363D01*
X118792241Y-65405000D01*
X119024759Y-65249637D01*
X119224637Y-65049759D01*
X119381680Y-64814727D01*
X119489853Y-64553574D01*
X119545000Y-64276335D01*
X119545000Y-63993665D01*
X119489853Y-63716426D01*
X119381680Y-63455273D01*
X119224637Y-63220241D01*
X119024759Y-63020363D01*
X118789727Y-62863320D01*
X118528574Y-62755147D01*
X118251335Y-62700000D01*
X117968665Y-62700000D01*
X117691426Y-62755147D01*
X117430273Y-62863320D01*
X117195241Y-63020363D01*
X116995363Y-63220241D01*
X116838320Y-63455273D01*
X116730147Y-63716426D01*
X116675000Y-63993665D01*
X114985000Y-63993665D01*
X114985000Y-62898504D01*
X114999364Y-62752008D01*
X115032176Y-62643330D01*
X115085479Y-62543082D01*
X115157232Y-62455103D01*
X115244707Y-62382737D01*
X115344579Y-62328737D01*
X115453027Y-62295167D01*
X115597331Y-62280000D01*
X134653647Y-62280000D01*
X134683137Y-62277095D01*
X134690948Y-62277150D01*
X134700467Y-62276217D01*
X134946970Y-62250309D01*
X135007824Y-62237817D01*
X135068774Y-62226190D01*
X135077924Y-62223428D01*
X135077928Y-62223427D01*
X135077931Y-62223426D01*
X135314707Y-62150131D01*
X135371929Y-62126077D01*
X135429502Y-62102816D01*
X135437947Y-62098326D01*
X135655977Y-61980438D01*
X135707483Y-61945696D01*
X135759400Y-61911723D01*
X135766811Y-61905679D01*
X135957791Y-61747686D01*
X136001557Y-61703613D01*
X136045895Y-61660194D01*
X136051992Y-61652825D01*
X136208647Y-61460747D01*
X136242998Y-61409045D01*
X136278081Y-61357807D01*
X136282630Y-61349394D01*
X136398993Y-61130546D01*
X136422653Y-61073141D01*
X136447108Y-61016084D01*
X136449936Y-61006947D01*
X136521576Y-60769666D01*
X136533630Y-60708787D01*
X136546544Y-60648034D01*
X136547544Y-60638522D01*
X136571731Y-60391844D01*
X136571731Y-60391837D01*
X136575000Y-60358647D01*
X136575000Y-41260665D01*
X141440000Y-41260665D01*
X141440000Y-41543335D01*
X141495147Y-41820574D01*
X141603320Y-42081727D01*
X141760363Y-42316759D01*
X141960241Y-42516637D01*
X142195273Y-42673680D01*
X142456426Y-42781853D01*
X142733665Y-42837000D01*
X143016335Y-42837000D01*
X143293574Y-42781853D01*
X143554727Y-42673680D01*
X143789759Y-42516637D01*
X143989637Y-42316759D01*
X144146680Y-42081727D01*
X144254853Y-41820574D01*
X144310000Y-41543335D01*
X144310000Y-41260665D01*
X144254853Y-40983426D01*
X144146680Y-40722273D01*
X143989637Y-40487241D01*
X143789759Y-40287363D01*
X143554727Y-40130320D01*
X143293574Y-40022147D01*
X143016335Y-39967000D01*
X142733665Y-39967000D01*
X142456426Y-40022147D01*
X142195273Y-40130320D01*
X141960241Y-40287363D01*
X141760363Y-40487241D01*
X141603320Y-40722273D01*
X141495147Y-40983426D01*
X141440000Y-41260665D01*
X136575000Y-41260665D01*
X136575000Y-38100000D01*
X145661749Y-38100000D01*
X145690684Y-38393777D01*
X145776375Y-38676264D01*
X145915531Y-38936606D01*
X146102803Y-39164797D01*
X146330994Y-39352069D01*
X146364540Y-39370000D01*
X146330994Y-39387931D01*
X146102803Y-39575203D01*
X145915531Y-39803394D01*
X145776375Y-40063736D01*
X145690684Y-40346223D01*
X145661749Y-40640000D01*
X145690684Y-40933777D01*
X145776375Y-41216264D01*
X145915531Y-41476606D01*
X146102803Y-41704797D01*
X146330994Y-41892069D01*
X146591336Y-42031225D01*
X146873823Y-42116916D01*
X147093981Y-42138600D01*
X147546019Y-42138600D01*
X147766177Y-42116916D01*
X148048664Y-42031225D01*
X148309006Y-41892069D01*
X148537197Y-41704797D01*
X148724469Y-41476606D01*
X148765416Y-41400000D01*
X152224584Y-41400000D01*
X152265531Y-41476606D01*
X152452803Y-41704797D01*
X152680994Y-41892069D01*
X152941336Y-42031225D01*
X153223823Y-42116916D01*
X153443981Y-42138600D01*
X153896019Y-42138600D01*
X154116177Y-42116916D01*
X154398664Y-42031225D01*
X154659006Y-41892069D01*
X154830849Y-41751040D01*
X156723091Y-41751040D01*
X156817930Y-42015881D01*
X156962615Y-42257131D01*
X157151586Y-42465519D01*
X157377580Y-42633037D01*
X157631913Y-42753246D01*
X157765961Y-42793904D01*
X157988000Y-42671915D01*
X157988000Y-41529000D01*
X158242000Y-41529000D01*
X158242000Y-42671915D01*
X158464039Y-42793904D01*
X158598087Y-42753246D01*
X158852420Y-42633037D01*
X159078414Y-42465519D01*
X159267385Y-42257131D01*
X159412070Y-42015881D01*
X159506909Y-41751040D01*
X159385624Y-41529000D01*
X158242000Y-41529000D01*
X157988000Y-41529000D01*
X156844376Y-41529000D01*
X156723091Y-41751040D01*
X154830849Y-41751040D01*
X154887197Y-41704797D01*
X155074469Y-41476606D01*
X155213625Y-41216264D01*
X155263162Y-41052960D01*
X156723091Y-41052960D01*
X156844376Y-41275000D01*
X157988000Y-41275000D01*
X157988000Y-40132085D01*
X158242000Y-40132085D01*
X158242000Y-41275000D01*
X159385624Y-41275000D01*
X159506909Y-41052960D01*
X159412070Y-40788119D01*
X159267385Y-40546869D01*
X159078414Y-40338481D01*
X158852420Y-40170963D01*
X158598087Y-40050754D01*
X158464039Y-40010096D01*
X158242000Y-40132085D01*
X157988000Y-40132085D01*
X157765961Y-40010096D01*
X157631913Y-40050754D01*
X157377580Y-40170963D01*
X157151586Y-40338481D01*
X156962615Y-40546869D01*
X156817930Y-40788119D01*
X156723091Y-41052960D01*
X155263162Y-41052960D01*
X155299316Y-40933777D01*
X155328251Y-40640000D01*
X155299316Y-40346223D01*
X155213625Y-40063736D01*
X155074469Y-39803394D01*
X154887197Y-39575203D01*
X154659006Y-39387931D01*
X154625460Y-39370000D01*
X154659006Y-39352069D01*
X154887197Y-39164797D01*
X155074469Y-38936606D01*
X155213625Y-38676264D01*
X155299316Y-38393777D01*
X155328251Y-38100000D01*
X155299316Y-37806223D01*
X155213625Y-37523736D01*
X155074469Y-37263394D01*
X154887197Y-37035203D01*
X154879135Y-37028586D01*
X154930180Y-37013102D01*
X155040494Y-36954137D01*
X155137185Y-36874785D01*
X155216537Y-36778094D01*
X155275502Y-36667780D01*
X155311812Y-36548082D01*
X155324072Y-36423600D01*
X155324072Y-34696400D01*
X155311812Y-34571918D01*
X155275502Y-34452220D01*
X155216537Y-34341906D01*
X155137185Y-34245215D01*
X155040494Y-34165863D01*
X154930180Y-34106898D01*
X154810482Y-34070588D01*
X154686000Y-34058328D01*
X152654000Y-34058328D01*
X152529518Y-34070588D01*
X152409820Y-34106898D01*
X152299506Y-34165863D01*
X152202815Y-34245215D01*
X152123463Y-34341906D01*
X152064498Y-34452220D01*
X152028188Y-34571918D01*
X152015928Y-34696400D01*
X152015928Y-34800000D01*
X148974072Y-34800000D01*
X148974072Y-34696400D01*
X148961812Y-34571918D01*
X148925502Y-34452220D01*
X148866537Y-34341906D01*
X148787185Y-34245215D01*
X148690494Y-34165863D01*
X148580180Y-34106898D01*
X148460482Y-34070588D01*
X148336000Y-34058328D01*
X146304000Y-34058328D01*
X146179518Y-34070588D01*
X146059820Y-34106898D01*
X145949506Y-34165863D01*
X145852815Y-34245215D01*
X145773463Y-34341906D01*
X145714498Y-34452220D01*
X145678188Y-34571918D01*
X145665928Y-34696400D01*
X145665928Y-36423600D01*
X145678188Y-36548082D01*
X145714498Y-36667780D01*
X145773463Y-36778094D01*
X145852815Y-36874785D01*
X145949506Y-36954137D01*
X146059820Y-37013102D01*
X146110865Y-37028586D01*
X146102803Y-37035203D01*
X145915531Y-37263394D01*
X145776375Y-37523736D01*
X145690684Y-37806223D01*
X145661749Y-38100000D01*
X136575000Y-38100000D01*
X136575000Y-33640665D01*
X141440000Y-33640665D01*
X141440000Y-33923335D01*
X141495147Y-34200574D01*
X141603320Y-34461727D01*
X141760363Y-34696759D01*
X141960241Y-34896637D01*
X142195273Y-35053680D01*
X142456426Y-35161853D01*
X142733665Y-35217000D01*
X143016335Y-35217000D01*
X143293574Y-35161853D01*
X143554727Y-35053680D01*
X143789759Y-34896637D01*
X143989637Y-34696759D01*
X144146680Y-34461727D01*
X144254853Y-34200574D01*
X144310000Y-33923335D01*
X144310000Y-33640665D01*
X156680000Y-33640665D01*
X156680000Y-33923335D01*
X156735147Y-34200574D01*
X156843320Y-34461727D01*
X157000363Y-34696759D01*
X157200241Y-34896637D01*
X157435273Y-35053680D01*
X157696426Y-35161853D01*
X157973665Y-35217000D01*
X158256335Y-35217000D01*
X158533574Y-35161853D01*
X158794727Y-35053680D01*
X159029759Y-34896637D01*
X159229637Y-34696759D01*
X159386680Y-34461727D01*
X159494853Y-34200574D01*
X159550000Y-33923335D01*
X159550000Y-33640665D01*
X159494853Y-33363426D01*
X159386680Y-33102273D01*
X159229637Y-32867241D01*
X159029759Y-32667363D01*
X158794727Y-32510320D01*
X158533574Y-32402147D01*
X158256335Y-32347000D01*
X157973665Y-32347000D01*
X157696426Y-32402147D01*
X157435273Y-32510320D01*
X157200241Y-32667363D01*
X157000363Y-32867241D01*
X156843320Y-33102273D01*
X156735147Y-33363426D01*
X156680000Y-33640665D01*
X144310000Y-33640665D01*
X144254853Y-33363426D01*
X144146680Y-33102273D01*
X143989637Y-32867241D01*
X143789759Y-32667363D01*
X143554727Y-32510320D01*
X143293574Y-32402147D01*
X143016335Y-32347000D01*
X142733665Y-32347000D01*
X142456426Y-32402147D01*
X142195273Y-32510320D01*
X141960241Y-32667363D01*
X141760363Y-32867241D01*
X141603320Y-33102273D01*
X141495147Y-33363426D01*
X141440000Y-33640665D01*
X136575000Y-33640665D01*
X136575000Y-31148504D01*
X136589364Y-31002008D01*
X136622176Y-30893330D01*
X136675479Y-30793082D01*
X136747232Y-30705103D01*
X136834707Y-30632737D01*
X136934579Y-30578737D01*
X137043027Y-30545167D01*
X137187331Y-30530000D01*
X159986496Y-30530000D01*
X160132992Y-30544364D01*
G37*
X160132992Y-30544364D02*
X160241670Y-30577176D01*
X160341918Y-30630479D01*
X160429897Y-30702232D01*
X160502263Y-30789707D01*
X160556263Y-30889579D01*
X160589833Y-30998027D01*
X160605000Y-31142331D01*
X160605001Y-128236486D01*
X160590636Y-128382992D01*
X160557823Y-128491672D01*
X160504522Y-128591917D01*
X160432769Y-128679895D01*
X160345292Y-128752263D01*
X160245420Y-128806263D01*
X160136973Y-128839833D01*
X159992669Y-128855000D01*
X115603504Y-128855000D01*
X115457008Y-128840636D01*
X115348328Y-128807823D01*
X115248083Y-128754522D01*
X115160105Y-128682769D01*
X115087737Y-128595292D01*
X115033737Y-128495420D01*
X115000167Y-128386973D01*
X114985000Y-128242669D01*
X114985000Y-63993665D01*
X116675000Y-63993665D01*
X116675000Y-64276335D01*
X116730147Y-64553574D01*
X116838320Y-64814727D01*
X116995363Y-65049759D01*
X117195241Y-65249637D01*
X117427759Y-65405000D01*
X117195241Y-65560363D01*
X116995363Y-65760241D01*
X116838320Y-65995273D01*
X116730147Y-66256426D01*
X116675000Y-66533665D01*
X116675000Y-66816335D01*
X116730147Y-67093574D01*
X116838320Y-67354727D01*
X116995363Y-67589759D01*
X117195241Y-67789637D01*
X117427759Y-67945000D01*
X117195241Y-68100363D01*
X116995363Y-68300241D01*
X116838320Y-68535273D01*
X116730147Y-68796426D01*
X116675000Y-69073665D01*
X116675000Y-69356335D01*
X116730147Y-69633574D01*
X116838320Y-69894727D01*
X116995363Y-70129759D01*
X117195241Y-70329637D01*
X117427759Y-70485000D01*
X117195241Y-70640363D01*
X116995363Y-70840241D01*
X116838320Y-71075273D01*
X116730147Y-71336426D01*
X116675000Y-71613665D01*
X116675000Y-71896335D01*
X116730147Y-72173574D01*
X116838320Y-72434727D01*
X116995363Y-72669759D01*
X117195241Y-72869637D01*
X117427759Y-73025000D01*
X117195241Y-73180363D01*
X116995363Y-73380241D01*
X116838320Y-73615273D01*
X116730147Y-73876426D01*
X116675000Y-74153665D01*
X116675000Y-74436335D01*
X116730147Y-74713574D01*
X116838320Y-74974727D01*
X116995363Y-75209759D01*
X117195241Y-75409637D01*
X117427759Y-75565000D01*
X117195241Y-75720363D01*
X116995363Y-75920241D01*
X116838320Y-76155273D01*
X116730147Y-76416426D01*
X116675000Y-76693665D01*
X116675000Y-76976335D01*
X116730147Y-77253574D01*
X116838320Y-77514727D01*
X116995363Y-77749759D01*
X117195241Y-77949637D01*
X117427759Y-78105000D01*
X117195241Y-78260363D01*
X116995363Y-78460241D01*
X116838320Y-78695273D01*
X116730147Y-78956426D01*
X116675000Y-79233665D01*
X116675000Y-79516335D01*
X116730147Y-79793574D01*
X116838320Y-80054727D01*
X116995363Y-80289759D01*
X117195241Y-80489637D01*
X117427759Y-80645000D01*
X117195241Y-80800363D01*
X116995363Y-81000241D01*
X116838320Y-81235273D01*
X116730147Y-81496426D01*
X116675000Y-81773665D01*
X116675000Y-82056335D01*
X116730147Y-82333574D01*
X116838320Y-82594727D01*
X116995363Y-82829759D01*
X117195241Y-83029637D01*
X117427759Y-83185000D01*
X117195241Y-83340363D01*
X116995363Y-83540241D01*
X116838320Y-83775273D01*
X116730147Y-84036426D01*
X116675000Y-84313665D01*
X116675000Y-84596335D01*
X116730147Y-84873574D01*
X116838320Y-85134727D01*
X116995363Y-85369759D01*
X117195241Y-85569637D01*
X117427759Y-85725000D01*
X117195241Y-85880363D01*
X116995363Y-86080241D01*
X116838320Y-86315273D01*
X116730147Y-86576426D01*
X116675000Y-86853665D01*
X116675000Y-87136335D01*
X116730147Y-87413574D01*
X116838320Y-87674727D01*
X116995363Y-87909759D01*
X117195241Y-88109637D01*
X117427759Y-88265000D01*
X117195241Y-88420363D01*
X116995363Y-88620241D01*
X116838320Y-88855273D01*
X116730147Y-89116426D01*
X116675000Y-89393665D01*
X116675000Y-89676335D01*
X116730147Y-89953574D01*
X116838320Y-90214727D01*
X116995363Y-90449759D01*
X117195241Y-90649637D01*
X117427759Y-90805000D01*
X117195241Y-90960363D01*
X116995363Y-91160241D01*
X116838320Y-91395273D01*
X116730147Y-91656426D01*
X116675000Y-91933665D01*
X116675000Y-92216335D01*
X116730147Y-92493574D01*
X116838320Y-92754727D01*
X116995363Y-92989759D01*
X117195241Y-93189637D01*
X117427759Y-93345000D01*
X117195241Y-93500363D01*
X116995363Y-93700241D01*
X116838320Y-93935273D01*
X116730147Y-94196426D01*
X116675000Y-94473665D01*
X116675000Y-94756335D01*
X116730147Y-95033574D01*
X116838320Y-95294727D01*
X116995363Y-95529759D01*
X117195241Y-95729637D01*
X117427759Y-95885000D01*
X117195241Y-96040363D01*
X116995363Y-96240241D01*
X116838320Y-96475273D01*
X116730147Y-96736426D01*
X116675000Y-97013665D01*
X116675000Y-97296335D01*
X116730147Y-97573574D01*
X116838320Y-97834727D01*
X116995363Y-98069759D01*
X117195241Y-98269637D01*
X117427759Y-98425000D01*
X117195241Y-98580363D01*
X116995363Y-98780241D01*
X116838320Y-99015273D01*
X116730147Y-99276426D01*
X116675000Y-99553665D01*
X116675000Y-99836335D01*
X116730147Y-100113574D01*
X116838320Y-100374727D01*
X116995363Y-100609759D01*
X117195241Y-100809637D01*
X117427759Y-100965000D01*
X117195241Y-101120363D01*
X116995363Y-101320241D01*
X116838320Y-101555273D01*
X116730147Y-101816426D01*
X116675000Y-102093665D01*
X116675000Y-102376335D01*
X116730147Y-102653574D01*
X116838320Y-102914727D01*
X116995363Y-103149759D01*
X117195241Y-103349637D01*
X117427759Y-103505000D01*
X117195241Y-103660363D01*
X116995363Y-103860241D01*
X116838320Y-104095273D01*
X116730147Y-104356426D01*
X116675000Y-104633665D01*
X116675000Y-104916335D01*
X116730147Y-105193574D01*
X116838320Y-105454727D01*
X116995363Y-105689759D01*
X117195241Y-105889637D01*
X117427759Y-106045000D01*
X117195241Y-106200363D01*
X116995363Y-106400241D01*
X116838320Y-106635273D01*
X116730147Y-106896426D01*
X116675000Y-107173665D01*
X116675000Y-107456335D01*
X116730147Y-107733574D01*
X116838320Y-107994727D01*
X116995363Y-108229759D01*
X117195241Y-108429637D01*
X117427759Y-108585000D01*
X117195241Y-108740363D01*
X116995363Y-108940241D01*
X116838320Y-109175273D01*
X116730147Y-109436426D01*
X116675000Y-109713665D01*
X116675000Y-109996335D01*
X116730147Y-110273574D01*
X116838320Y-110534727D01*
X116995363Y-110769759D01*
X117195241Y-110969637D01*
X117427759Y-111125000D01*
X117195241Y-111280363D01*
X116995363Y-111480241D01*
X116838320Y-111715273D01*
X116730147Y-111976426D01*
X116675000Y-112253665D01*
X116675000Y-112536335D01*
X116730147Y-112813574D01*
X116838320Y-113074727D01*
X116995363Y-113309759D01*
X117195241Y-113509637D01*
X117430273Y-113666680D01*
X117691426Y-113774853D01*
X117968665Y-113830000D01*
X118251335Y-113830000D01*
X118433886Y-113793688D01*
X119890000Y-115249803D01*
X119890001Y-119977668D01*
X119886324Y-120015000D01*
X119890001Y-120052332D01*
X119890001Y-120052333D01*
X119897553Y-120129003D01*
X119900998Y-120163985D01*
X119944454Y-120307246D01*
X120015026Y-120439276D01*
X120065694Y-120501014D01*
X120110000Y-120555001D01*
X120138998Y-120578799D01*
X124531201Y-124971003D01*
X124554999Y-125000001D01*
X124670724Y-125094974D01*
X124802753Y-125165546D01*
X124946014Y-125209003D01*
X125057667Y-125220000D01*
X125057676Y-125220000D01*
X125094999Y-125223676D01*
X125132322Y-125220000D01*
X144107678Y-125220000D01*
X144145000Y-125223676D01*
X144182322Y-125220000D01*
X144182333Y-125220000D01*
X144293986Y-125209003D01*
X144437247Y-125165546D01*
X144569276Y-125094974D01*
X144685001Y-125000001D01*
X144708804Y-124970997D01*
X146561004Y-123118798D01*
X146590001Y-123095001D01*
X146684974Y-122979276D01*
X146755546Y-122847247D01*
X146799003Y-122703986D01*
X146810000Y-122592333D01*
X146810000Y-122592323D01*
X146813676Y-122555000D01*
X146810000Y-122517677D01*
X146810000Y-97192323D01*
X146813676Y-97155000D01*
X146810000Y-97117677D01*
X146810000Y-97117667D01*
X146799003Y-97006014D01*
X146755546Y-96862753D01*
X146688022Y-96736426D01*
X146684974Y-96730723D01*
X146613799Y-96643997D01*
X146590001Y-96614999D01*
X146561003Y-96591201D01*
X142555311Y-92585510D01*
X142566207Y-92559204D01*
X142630000Y-92238496D01*
X142630000Y-91911504D01*
X142566207Y-91590796D01*
X142441073Y-91288695D01*
X142259406Y-91016812D01*
X142047594Y-90805000D01*
X142259406Y-90593188D01*
X142441073Y-90321305D01*
X142566207Y-90019204D01*
X142630000Y-89698496D01*
X142630000Y-89371504D01*
X142566207Y-89050796D01*
X142441073Y-88748695D01*
X142259406Y-88476812D01*
X142047594Y-88265000D01*
X142259406Y-88053188D01*
X142441073Y-87781305D01*
X142566207Y-87479204D01*
X142630000Y-87158496D01*
X142630000Y-86831504D01*
X142566207Y-86510796D01*
X142441073Y-86208695D01*
X142259406Y-85936812D01*
X142047594Y-85725000D01*
X142259406Y-85513188D01*
X142441073Y-85241305D01*
X142566207Y-84939204D01*
X142630000Y-84618496D01*
X142630000Y-84291504D01*
X142566207Y-83970796D01*
X142441073Y-83668695D01*
X142259406Y-83396812D01*
X142047594Y-83185000D01*
X142259406Y-82973188D01*
X142441073Y-82701305D01*
X142566207Y-82399204D01*
X142630000Y-82078496D01*
X142630000Y-81751504D01*
X142566207Y-81430796D01*
X142441073Y-81128695D01*
X142259406Y-80856812D01*
X142047594Y-80645000D01*
X142259406Y-80433188D01*
X142441073Y-80161305D01*
X142566207Y-79859204D01*
X142630000Y-79538496D01*
X142630000Y-79211504D01*
X142566207Y-78890796D01*
X142441073Y-78588695D01*
X142259406Y-78316812D01*
X142047594Y-78105000D01*
X142259406Y-77893188D01*
X142441073Y-77621305D01*
X142566207Y-77319204D01*
X142630000Y-76998496D01*
X142630000Y-76671504D01*
X142566207Y-76350796D01*
X142441073Y-76048695D01*
X142259406Y-75776812D01*
X142047594Y-75565000D01*
X142259406Y-75353188D01*
X142441073Y-75081305D01*
X142566207Y-74779204D01*
X142630000Y-74458496D01*
X142630000Y-74131504D01*
X142566207Y-73810796D01*
X142441073Y-73508695D01*
X142259406Y-73236812D01*
X142047594Y-73025000D01*
X142259406Y-72813188D01*
X142441073Y-72541305D01*
X142566207Y-72239204D01*
X142630000Y-71918496D01*
X142630000Y-71591504D01*
X142566207Y-71270796D01*
X142441073Y-70968695D01*
X142259406Y-70696812D01*
X142047594Y-70485000D01*
X142259406Y-70273188D01*
X142441073Y-70001305D01*
X142566207Y-69699204D01*
X142630000Y-69378496D01*
X142630000Y-69051504D01*
X142566207Y-68730796D01*
X142441073Y-68428695D01*
X142259406Y-68156812D01*
X142047594Y-67945000D01*
X142259406Y-67733188D01*
X142441073Y-67461305D01*
X142566207Y-67159204D01*
X142630000Y-66838496D01*
X142630000Y-66511504D01*
X142566207Y-66190796D01*
X142441073Y-65888695D01*
X142259406Y-65616812D01*
X142047594Y-65405000D01*
X142259406Y-65193188D01*
X142441073Y-64921305D01*
X142566207Y-64619204D01*
X142630000Y-64298496D01*
X142630000Y-63971504D01*
X142566207Y-63650796D01*
X142441073Y-63348695D01*
X142259406Y-63076812D01*
X142047594Y-62865000D01*
X142259406Y-62653188D01*
X142441073Y-62381305D01*
X142566207Y-62079204D01*
X142630000Y-61758496D01*
X142630000Y-61431504D01*
X142566207Y-61110796D01*
X142441073Y-60808695D01*
X142259406Y-60536812D01*
X142047594Y-60325000D01*
X142259406Y-60113188D01*
X142441073Y-59841305D01*
X142566207Y-59539204D01*
X142630000Y-59218496D01*
X142630000Y-58891504D01*
X142566207Y-58570796D01*
X142441073Y-58268695D01*
X142259406Y-57996812D01*
X142047594Y-57785000D01*
X142259406Y-57573188D01*
X142441073Y-57301305D01*
X142566207Y-56999204D01*
X142630000Y-56678496D01*
X142630000Y-56351504D01*
X142566207Y-56030796D01*
X142441073Y-55728695D01*
X142259406Y-55456812D01*
X142047594Y-55245000D01*
X142259406Y-55033188D01*
X142441073Y-54761305D01*
X142566207Y-54459204D01*
X142630000Y-54138496D01*
X142630000Y-53811504D01*
X142566207Y-53490796D01*
X142441073Y-53188695D01*
X142259406Y-52916812D01*
X142028188Y-52685594D01*
X141756305Y-52503927D01*
X141454204Y-52378793D01*
X141133496Y-52315000D01*
X140806504Y-52315000D01*
X140485796Y-52378793D01*
X140183695Y-52503927D01*
X139911812Y-52685594D01*
X139680594Y-52916812D01*
X139498927Y-53188695D01*
X139373793Y-53490796D01*
X139310000Y-53811504D01*
X139310000Y-54138496D01*
X139373793Y-54459204D01*
X139498927Y-54761305D01*
X139680594Y-55033188D01*
X139892406Y-55245000D01*
X139680594Y-55456812D01*
X139498927Y-55728695D01*
X139373793Y-56030796D01*
X139310000Y-56351504D01*
X139310000Y-56678496D01*
X139373793Y-56999204D01*
X139498927Y-57301305D01*
X139680594Y-57573188D01*
X139892406Y-57785000D01*
X139680594Y-57996812D01*
X139498927Y-58268695D01*
X139373793Y-58570796D01*
X139310000Y-58891504D01*
X139310000Y-59218496D01*
X139373793Y-59539204D01*
X139498927Y-59841305D01*
X139680594Y-60113188D01*
X139892406Y-60325000D01*
X139680594Y-60536812D01*
X139498927Y-60808695D01*
X139373793Y-61110796D01*
X139310000Y-61431504D01*
X139310000Y-61758496D01*
X139373793Y-62079204D01*
X139498927Y-62381305D01*
X139680594Y-62653188D01*
X139892406Y-62865000D01*
X139680594Y-63076812D01*
X139498927Y-63348695D01*
X139373793Y-63650796D01*
X139310000Y-63971504D01*
X139310000Y-64298496D01*
X139373793Y-64619204D01*
X139498927Y-64921305D01*
X139680594Y-65193188D01*
X139892406Y-65405000D01*
X139680594Y-65616812D01*
X139498927Y-65888695D01*
X139373793Y-66190796D01*
X139310000Y-66511504D01*
X139310000Y-66838496D01*
X139373793Y-67159204D01*
X139498927Y-67461305D01*
X139680594Y-67733188D01*
X139892406Y-67945000D01*
X139680594Y-68156812D01*
X139498927Y-68428695D01*
X139373793Y-68730796D01*
X139310000Y-69051504D01*
X139310000Y-69378496D01*
X139373793Y-69699204D01*
X139498927Y-70001305D01*
X139680594Y-70273188D01*
X139892406Y-70485000D01*
X139680594Y-70696812D01*
X139498927Y-70968695D01*
X139373793Y-71270796D01*
X139310000Y-71591504D01*
X139310000Y-71918496D01*
X139373793Y-72239204D01*
X139498927Y-72541305D01*
X139680594Y-72813188D01*
X139892406Y-73025000D01*
X139680594Y-73236812D01*
X139498927Y-73508695D01*
X139373793Y-73810796D01*
X139310000Y-74131504D01*
X139310000Y-74458496D01*
X139373793Y-74779204D01*
X139498927Y-75081305D01*
X139680594Y-75353188D01*
X139892406Y-75565000D01*
X139680594Y-75776812D01*
X139498927Y-76048695D01*
X139373793Y-76350796D01*
X139310000Y-76671504D01*
X139310000Y-76998496D01*
X139373793Y-77319204D01*
X139498927Y-77621305D01*
X139680594Y-77893188D01*
X139892406Y-78105000D01*
X139680594Y-78316812D01*
X139498927Y-78588695D01*
X139373793Y-78890796D01*
X139310000Y-79211504D01*
X139310000Y-79538496D01*
X139373793Y-79859204D01*
X139498927Y-80161305D01*
X139680594Y-80433188D01*
X139892406Y-80645000D01*
X139680594Y-80856812D01*
X139498927Y-81128695D01*
X139373793Y-81430796D01*
X139310000Y-81751504D01*
X139310000Y-82078496D01*
X139373793Y-82399204D01*
X139498927Y-82701305D01*
X139680594Y-82973188D01*
X139892406Y-83185000D01*
X139680594Y-83396812D01*
X139498927Y-83668695D01*
X139373793Y-83970796D01*
X139315194Y-84265392D01*
X135183804Y-80134003D01*
X135160001Y-80104999D01*
X135044276Y-80010026D01*
X134912247Y-79939454D01*
X134768986Y-79895997D01*
X134690625Y-79888279D01*
X134729853Y-79793574D01*
X134785000Y-79516335D01*
X134785000Y-79233665D01*
X134729853Y-78956426D01*
X134621680Y-78695273D01*
X134464637Y-78460241D01*
X134264759Y-78260363D01*
X134032241Y-78105000D01*
X134264759Y-77949637D01*
X134464637Y-77749759D01*
X134621680Y-77514727D01*
X134729853Y-77253574D01*
X134785000Y-76976335D01*
X134785000Y-76693665D01*
X134729853Y-76416426D01*
X134621680Y-76155273D01*
X134464637Y-75920241D01*
X134264759Y-75720363D01*
X134032241Y-75565000D01*
X134264759Y-75409637D01*
X134464637Y-75209759D01*
X134621680Y-74974727D01*
X134729853Y-74713574D01*
X134785000Y-74436335D01*
X134785000Y-74153665D01*
X134729853Y-73876426D01*
X134621680Y-73615273D01*
X134464637Y-73380241D01*
X134264759Y-73180363D01*
X134032241Y-73025000D01*
X134264759Y-72869637D01*
X134464637Y-72669759D01*
X134621680Y-72434727D01*
X134729853Y-72173574D01*
X134785000Y-71896335D01*
X134785000Y-71613665D01*
X134729853Y-71336426D01*
X134621680Y-71075273D01*
X134464637Y-70840241D01*
X134264759Y-70640363D01*
X134032241Y-70485000D01*
X134264759Y-70329637D01*
X134464637Y-70129759D01*
X134621680Y-69894727D01*
X134729853Y-69633574D01*
X134785000Y-69356335D01*
X134785000Y-69073665D01*
X134729853Y-68796426D01*
X134621680Y-68535273D01*
X134464637Y-68300241D01*
X134264759Y-68100363D01*
X134032241Y-67945000D01*
X134264759Y-67789637D01*
X134464637Y-67589759D01*
X134621680Y-67354727D01*
X134729853Y-67093574D01*
X134785000Y-66816335D01*
X134785000Y-66533665D01*
X134729853Y-66256426D01*
X134621680Y-65995273D01*
X134464637Y-65760241D01*
X134264759Y-65560363D01*
X134032241Y-65405000D01*
X134264759Y-65249637D01*
X134464637Y-65049759D01*
X134568043Y-64895000D01*
X135852678Y-64895000D01*
X135890000Y-64898676D01*
X135927322Y-64895000D01*
X135927333Y-64895000D01*
X136038986Y-64884003D01*
X136182247Y-64840546D01*
X136314276Y-64769974D01*
X136430001Y-64675001D01*
X136453804Y-64645997D01*
X138306004Y-62793798D01*
X138335001Y-62770001D01*
X138429974Y-62654276D01*
X138500546Y-62522247D01*
X138544003Y-62378986D01*
X138555000Y-62267333D01*
X138555000Y-62267323D01*
X138558676Y-62230000D01*
X138555000Y-62192677D01*
X138555000Y-52384801D01*
X140014802Y-50925000D01*
X142329465Y-50925000D01*
X142432111Y-50993586D01*
X142602271Y-51064068D01*
X142782911Y-51100000D01*
X142967089Y-51100000D01*
X143147729Y-51064068D01*
X143317889Y-50993586D01*
X143420535Y-50925000D01*
X146370199Y-50925000D01*
X147195000Y-51749802D01*
X147195001Y-69812658D01*
X147195000Y-69812668D01*
X147195001Y-111722667D01*
X147191324Y-111760000D01*
X147195001Y-111797333D01*
X147202553Y-111874003D01*
X147205998Y-111908985D01*
X147249454Y-112052246D01*
X147320026Y-112184276D01*
X147376973Y-112253665D01*
X147415000Y-112300001D01*
X147443998Y-112323799D01*
X151201201Y-116081003D01*
X151224999Y-116110001D01*
X151340724Y-116204974D01*
X151472753Y-116275546D01*
X151616014Y-116319003D01*
X151727667Y-116330000D01*
X151727675Y-116330000D01*
X151765000Y-116333676D01*
X151802325Y-116330000D01*
X152997678Y-116330000D01*
X153035000Y-116333676D01*
X153072322Y-116330000D01*
X153072333Y-116330000D01*
X153183986Y-116319003D01*
X153327247Y-116275546D01*
X153459276Y-116204974D01*
X153575001Y-116110001D01*
X153598804Y-116080997D01*
X155699491Y-113980311D01*
X155725796Y-113991207D01*
X156046504Y-114055000D01*
X156373496Y-114055000D01*
X156694204Y-113991207D01*
X156996305Y-113866073D01*
X157268188Y-113684406D01*
X157499406Y-113453188D01*
X157681073Y-113181305D01*
X157806207Y-112879204D01*
X157870000Y-112558496D01*
X157870000Y-112231504D01*
X157806207Y-111910796D01*
X157681073Y-111608695D01*
X157499406Y-111336812D01*
X157287594Y-111125000D01*
X157499406Y-110913188D01*
X157681073Y-110641305D01*
X157806207Y-110339204D01*
X157870000Y-110018496D01*
X157870000Y-109691504D01*
X157806207Y-109370796D01*
X157681073Y-109068695D01*
X157499406Y-108796812D01*
X157287594Y-108585000D01*
X157499406Y-108373188D01*
X157681073Y-108101305D01*
X157806207Y-107799204D01*
X157870000Y-107478496D01*
X157870000Y-107151504D01*
X157806207Y-106830796D01*
X157681073Y-106528695D01*
X157499406Y-106256812D01*
X157287594Y-106045000D01*
X157499406Y-105833188D01*
X157681073Y-105561305D01*
X157806207Y-105259204D01*
X157870000Y-104938496D01*
X157870000Y-104611504D01*
X157806207Y-104290796D01*
X157681073Y-103988695D01*
X157499406Y-103716812D01*
X157287594Y-103505000D01*
X157499406Y-103293188D01*
X157681073Y-103021305D01*
X157806207Y-102719204D01*
X157870000Y-102398496D01*
X157870000Y-102071504D01*
X157806207Y-101750796D01*
X157681073Y-101448695D01*
X157499406Y-101176812D01*
X157287594Y-100965000D01*
X157499406Y-100753188D01*
X157681073Y-100481305D01*
X157806207Y-100179204D01*
X157870000Y-99858496D01*
X157870000Y-99531504D01*
X157806207Y-99210796D01*
X157681073Y-98908695D01*
X157499406Y-98636812D01*
X157287594Y-98425000D01*
X157499406Y-98213188D01*
X157681073Y-97941305D01*
X157806207Y-97639204D01*
X157870000Y-97318496D01*
X157870000Y-96991504D01*
X157806207Y-96670796D01*
X157681073Y-96368695D01*
X157499406Y-96096812D01*
X157287594Y-95885000D01*
X157499406Y-95673188D01*
X157681073Y-95401305D01*
X157806207Y-95099204D01*
X157870000Y-94778496D01*
X157870000Y-94451504D01*
X157806207Y-94130796D01*
X157681073Y-93828695D01*
X157499406Y-93556812D01*
X157287594Y-93345000D01*
X157499406Y-93133188D01*
X157681073Y-92861305D01*
X157806207Y-92559204D01*
X157870000Y-92238496D01*
X157870000Y-91911504D01*
X157806207Y-91590796D01*
X157681073Y-91288695D01*
X157499406Y-91016812D01*
X157278249Y-90795655D01*
X157426768Y-90664197D01*
X157623684Y-90405120D01*
X157766272Y-90112605D01*
X157824890Y-89919357D01*
X157705868Y-89662000D01*
X156337000Y-89662000D01*
X156337000Y-89682000D01*
X156083000Y-89682000D01*
X156083000Y-89662000D01*
X154714132Y-89662000D01*
X154595110Y-89919357D01*
X154653728Y-90112605D01*
X154796316Y-90405120D01*
X154993232Y-90664197D01*
X155141751Y-90795655D01*
X154920594Y-91016812D01*
X154738927Y-91288695D01*
X154613793Y-91590796D01*
X154550000Y-91911504D01*
X154550000Y-92238496D01*
X154613793Y-92559204D01*
X154738927Y-92861305D01*
X154920594Y-93133188D01*
X155132406Y-93345000D01*
X154920594Y-93556812D01*
X154738927Y-93828695D01*
X154613793Y-94130796D01*
X154550000Y-94451504D01*
X154550000Y-94778496D01*
X154613793Y-95099204D01*
X154624689Y-95125509D01*
X151888998Y-97861201D01*
X151860000Y-97884999D01*
X151836202Y-97913997D01*
X151836201Y-97913998D01*
X151765026Y-98000724D01*
X151694454Y-98132754D01*
X151670056Y-98213188D01*
X151650998Y-98276014D01*
X151647144Y-98315147D01*
X151636324Y-98425000D01*
X151640001Y-98462333D01*
X151640000Y-113119465D01*
X151571414Y-113222111D01*
X151500932Y-113392271D01*
X151465000Y-113572911D01*
X151465000Y-113757089D01*
X151500932Y-113937729D01*
X151571414Y-114107889D01*
X151673738Y-114261028D01*
X151803972Y-114391262D01*
X151957111Y-114493586D01*
X152127271Y-114564068D01*
X152307911Y-114600000D01*
X152492089Y-114600000D01*
X152672729Y-114564068D01*
X152842889Y-114493586D01*
X152996028Y-114391262D01*
X153126262Y-114261028D01*
X153228586Y-114107889D01*
X153299068Y-113937729D01*
X153335000Y-113757089D01*
X153335000Y-113572911D01*
X153299068Y-113392271D01*
X153262147Y-113303135D01*
X153307729Y-113294068D01*
X153477889Y-113223586D01*
X153631028Y-113121262D01*
X153761262Y-112991028D01*
X153863586Y-112837889D01*
X153934068Y-112667729D01*
X153970000Y-112487089D01*
X153970000Y-112302911D01*
X153934068Y-112122271D01*
X153897147Y-112033135D01*
X153942729Y-112024068D01*
X154112889Y-111953586D01*
X154266028Y-111851262D01*
X154396262Y-111721028D01*
X154498586Y-111567889D01*
X154569068Y-111397729D01*
X154605000Y-111217089D01*
X154605000Y-111032911D01*
X154569068Y-110852271D01*
X154498586Y-110682111D01*
X154430000Y-110579465D01*
X154430000Y-107629801D01*
X154555194Y-107504607D01*
X154613793Y-107799204D01*
X154738927Y-108101305D01*
X154920594Y-108373188D01*
X155132406Y-108585000D01*
X154920594Y-108796812D01*
X154738927Y-109068695D01*
X154613793Y-109370796D01*
X154550000Y-109691504D01*
X154550000Y-110018496D01*
X154613793Y-110339204D01*
X154738927Y-110641305D01*
X154920594Y-110913188D01*
X155132406Y-111125000D01*
X154920594Y-111336812D01*
X154738927Y-111608695D01*
X154613793Y-111910796D01*
X154550000Y-112231504D01*
X154550000Y-112558496D01*
X154613793Y-112879204D01*
X154624689Y-112905509D01*
X152720199Y-114810000D01*
X152079802Y-114810000D01*
X148715000Y-111445199D01*
X148715000Y-53811504D01*
X154550000Y-53811504D01*
X154550000Y-54138496D01*
X154613793Y-54459204D01*
X154738927Y-54761305D01*
X154920594Y-55033188D01*
X155132406Y-55245000D01*
X154920594Y-55456812D01*
X154738927Y-55728695D01*
X154613793Y-56030796D01*
X154550000Y-56351504D01*
X154550000Y-56678496D01*
X154613793Y-56999204D01*
X154738927Y-57301305D01*
X154920594Y-57573188D01*
X155132406Y-57785000D01*
X154920594Y-57996812D01*
X154738927Y-58268695D01*
X154613793Y-58570796D01*
X154550000Y-58891504D01*
X154550000Y-59218496D01*
X154613793Y-59539204D01*
X154738927Y-59841305D01*
X154920594Y-60113188D01*
X155132406Y-60325000D01*
X154920594Y-60536812D01*
X154738927Y-60808695D01*
X154613793Y-61110796D01*
X154550000Y-61431504D01*
X154550000Y-61758496D01*
X154613793Y-62079204D01*
X154738927Y-62381305D01*
X154920594Y-62653188D01*
X155132406Y-62865000D01*
X154920594Y-63076812D01*
X154738927Y-63348695D01*
X154613793Y-63650796D01*
X154550000Y-63971504D01*
X154550000Y-64298496D01*
X154613793Y-64619204D01*
X154738927Y-64921305D01*
X154920594Y-65193188D01*
X155132406Y-65405000D01*
X154920594Y-65616812D01*
X154738927Y-65888695D01*
X154613793Y-66190796D01*
X154550000Y-66511504D01*
X154550000Y-66838496D01*
X154613793Y-67159204D01*
X154738927Y-67461305D01*
X154920594Y-67733188D01*
X155132406Y-67945000D01*
X154920594Y-68156812D01*
X154738927Y-68428695D01*
X154613793Y-68730796D01*
X154550000Y-69051504D01*
X154550000Y-69378496D01*
X154613793Y-69699204D01*
X154738927Y-70001305D01*
X154920594Y-70273188D01*
X155132406Y-70485000D01*
X154920594Y-70696812D01*
X154738927Y-70968695D01*
X154613793Y-71270796D01*
X154550000Y-71591504D01*
X154550000Y-71918496D01*
X154613793Y-72239204D01*
X154738927Y-72541305D01*
X154920594Y-72813188D01*
X155132406Y-73025000D01*
X154920594Y-73236812D01*
X154738927Y-73508695D01*
X154613793Y-73810796D01*
X154550000Y-74131504D01*
X154550000Y-74458496D01*
X154613793Y-74779204D01*
X154738927Y-75081305D01*
X154920594Y-75353188D01*
X155132406Y-75565000D01*
X154920594Y-75776812D01*
X154738927Y-76048695D01*
X154613793Y-76350796D01*
X154550000Y-76671504D01*
X154550000Y-76998496D01*
X154613793Y-77319204D01*
X154738927Y-77621305D01*
X154920594Y-77893188D01*
X155132406Y-78105000D01*
X154920594Y-78316812D01*
X154738927Y-78588695D01*
X154613793Y-78890796D01*
X154550000Y-79211504D01*
X154550000Y-79538496D01*
X154613793Y-79859204D01*
X154738927Y-80161305D01*
X154920594Y-80433188D01*
X155132406Y-80645000D01*
X154920594Y-80856812D01*
X154738927Y-81128695D01*
X154613793Y-81430796D01*
X154550000Y-81751504D01*
X154550000Y-82078496D01*
X154613793Y-82399204D01*
X154738927Y-82701305D01*
X154920594Y-82973188D01*
X155132406Y-83185000D01*
X154920594Y-83396812D01*
X154738927Y-83668695D01*
X154613793Y-83970796D01*
X154550000Y-84291504D01*
X154550000Y-84618496D01*
X154613793Y-84939204D01*
X154738927Y-85241305D01*
X154920594Y-85513188D01*
X155132406Y-85725000D01*
X154920594Y-85936812D01*
X154738927Y-86208695D01*
X154613793Y-86510796D01*
X154550000Y-86831504D01*
X154550000Y-87158496D01*
X154613793Y-87479204D01*
X154738927Y-87781305D01*
X154920594Y-88053188D01*
X155141751Y-88274345D01*
X154993232Y-88405803D01*
X154796316Y-88664880D01*
X154653728Y-88957395D01*
X154595110Y-89150643D01*
X154714132Y-89408000D01*
X156083000Y-89408000D01*
X156083000Y-89388000D01*
X156337000Y-89388000D01*
X156337000Y-89408000D01*
X157705868Y-89408000D01*
X157824890Y-89150643D01*
X157766272Y-88957395D01*
X157623684Y-88664880D01*
X157426768Y-88405803D01*
X157278249Y-88274345D01*
X157499406Y-88053188D01*
X157681073Y-87781305D01*
X157806207Y-87479204D01*
X157870000Y-87158496D01*
X157870000Y-86831504D01*
X157806207Y-86510796D01*
X157681073Y-86208695D01*
X157499406Y-85936812D01*
X157287594Y-85725000D01*
X157499406Y-85513188D01*
X157681073Y-85241305D01*
X157806207Y-84939204D01*
X157870000Y-84618496D01*
X157870000Y-84291504D01*
X157806207Y-83970796D01*
X157681073Y-83668695D01*
X157499406Y-83396812D01*
X157287594Y-83185000D01*
X157499406Y-82973188D01*
X157681073Y-82701305D01*
X157806207Y-82399204D01*
X157870000Y-82078496D01*
X157870000Y-81751504D01*
X157806207Y-81430796D01*
X157681073Y-81128695D01*
X157499406Y-80856812D01*
X157287594Y-80645000D01*
X157499406Y-80433188D01*
X157681073Y-80161305D01*
X157806207Y-79859204D01*
X157870000Y-79538496D01*
X157870000Y-79211504D01*
X157806207Y-78890796D01*
X157681073Y-78588695D01*
X157499406Y-78316812D01*
X157287594Y-78105000D01*
X157499406Y-77893188D01*
X157681073Y-77621305D01*
X157806207Y-77319204D01*
X157870000Y-76998496D01*
X157870000Y-76671504D01*
X157806207Y-76350796D01*
X157681073Y-76048695D01*
X157499406Y-75776812D01*
X157287594Y-75565000D01*
X157499406Y-75353188D01*
X157681073Y-75081305D01*
X157806207Y-74779204D01*
X157870000Y-74458496D01*
X157870000Y-74131504D01*
X157806207Y-73810796D01*
X157681073Y-73508695D01*
X157499406Y-73236812D01*
X157287594Y-73025000D01*
X157499406Y-72813188D01*
X157681073Y-72541305D01*
X157806207Y-72239204D01*
X157870000Y-71918496D01*
X157870000Y-71591504D01*
X157806207Y-71270796D01*
X157681073Y-70968695D01*
X157499406Y-70696812D01*
X157287594Y-70485000D01*
X157499406Y-70273188D01*
X157681073Y-70001305D01*
X157806207Y-69699204D01*
X157870000Y-69378496D01*
X157870000Y-69051504D01*
X157806207Y-68730796D01*
X157681073Y-68428695D01*
X157499406Y-68156812D01*
X157287594Y-67945000D01*
X157499406Y-67733188D01*
X157681073Y-67461305D01*
X157806207Y-67159204D01*
X157870000Y-66838496D01*
X157870000Y-66511504D01*
X157806207Y-66190796D01*
X157681073Y-65888695D01*
X157499406Y-65616812D01*
X157287594Y-65405000D01*
X157499406Y-65193188D01*
X157681073Y-64921305D01*
X157806207Y-64619204D01*
X157870000Y-64298496D01*
X157870000Y-63971504D01*
X157806207Y-63650796D01*
X157681073Y-63348695D01*
X157499406Y-63076812D01*
X157287594Y-62865000D01*
X157499406Y-62653188D01*
X157681073Y-62381305D01*
X157806207Y-62079204D01*
X157870000Y-61758496D01*
X157870000Y-61431504D01*
X157806207Y-61110796D01*
X157681073Y-60808695D01*
X157499406Y-60536812D01*
X157287594Y-60325000D01*
X157499406Y-60113188D01*
X157681073Y-59841305D01*
X157806207Y-59539204D01*
X157870000Y-59218496D01*
X157870000Y-58891504D01*
X157806207Y-58570796D01*
X157681073Y-58268695D01*
X157499406Y-57996812D01*
X157287594Y-57785000D01*
X157499406Y-57573188D01*
X157681073Y-57301305D01*
X157806207Y-56999204D01*
X157870000Y-56678496D01*
X157870000Y-56351504D01*
X157806207Y-56030796D01*
X157681073Y-55728695D01*
X157499406Y-55456812D01*
X157287594Y-55245000D01*
X157499406Y-55033188D01*
X157681073Y-54761305D01*
X157806207Y-54459204D01*
X157870000Y-54138496D01*
X157870000Y-53811504D01*
X157806207Y-53490796D01*
X157681073Y-53188695D01*
X157499406Y-52916812D01*
X157268188Y-52685594D01*
X156996305Y-52503927D01*
X156694204Y-52378793D01*
X156373496Y-52315000D01*
X156046504Y-52315000D01*
X155725796Y-52378793D01*
X155423695Y-52503927D01*
X155151812Y-52685594D01*
X154920594Y-52916812D01*
X154738927Y-53188695D01*
X154613793Y-53490796D01*
X154550000Y-53811504D01*
X148715000Y-53811504D01*
X148715000Y-51472322D01*
X148718676Y-51434999D01*
X148715000Y-51397676D01*
X148715000Y-51397667D01*
X148704003Y-51286014D01*
X148660546Y-51142753D01*
X148589974Y-51010724D01*
X148495001Y-50894999D01*
X148466004Y-50871202D01*
X147248804Y-49654003D01*
X147225001Y-49624999D01*
X147109276Y-49530026D01*
X146977247Y-49459454D01*
X146833986Y-49415997D01*
X146722333Y-49405000D01*
X146722322Y-49405000D01*
X146685000Y-49401324D01*
X146647678Y-49405000D01*
X143420535Y-49405000D01*
X143317889Y-49336414D01*
X143147729Y-49265932D01*
X142967089Y-49230000D01*
X142782911Y-49230000D01*
X142602271Y-49265932D01*
X142432111Y-49336414D01*
X142329465Y-49405000D01*
X139737323Y-49405000D01*
X139700000Y-49401324D01*
X139662677Y-49405000D01*
X139662667Y-49405000D01*
X139551014Y-49415997D01*
X139407753Y-49459454D01*
X139275724Y-49530026D01*
X139159999Y-49624999D01*
X139136201Y-49653997D01*
X137283998Y-51506201D01*
X137255000Y-51529999D01*
X137231202Y-51558997D01*
X137231201Y-51558998D01*
X137160026Y-51645724D01*
X137089454Y-51777754D01*
X137045998Y-51921015D01*
X137031324Y-52070000D01*
X137035001Y-52107332D01*
X137035000Y-61915198D01*
X135575199Y-63375000D01*
X134568043Y-63375000D01*
X134464637Y-63220241D01*
X134264759Y-63020363D01*
X134029727Y-62863320D01*
X133768574Y-62755147D01*
X133491335Y-62700000D01*
X133208665Y-62700000D01*
X132931426Y-62755147D01*
X132670273Y-62863320D01*
X132435241Y-63020363D01*
X132235363Y-63220241D01*
X132078320Y-63455273D01*
X131970147Y-63716426D01*
X131915000Y-63993665D01*
X131915000Y-64276335D01*
X131970147Y-64553574D01*
X132078320Y-64814727D01*
X132235363Y-65049759D01*
X132435241Y-65249637D01*
X132667759Y-65405000D01*
X132435241Y-65560363D01*
X132235363Y-65760241D01*
X132078320Y-65995273D01*
X131970147Y-66256426D01*
X131915000Y-66533665D01*
X131915000Y-66816335D01*
X131970147Y-67093574D01*
X132078320Y-67354727D01*
X132235363Y-67589759D01*
X132435241Y-67789637D01*
X132667759Y-67945000D01*
X132435241Y-68100363D01*
X132235363Y-68300241D01*
X132078320Y-68535273D01*
X131970147Y-68796426D01*
X131915000Y-69073665D01*
X131915000Y-69356335D01*
X131970147Y-69633574D01*
X132078320Y-69894727D01*
X132235363Y-70129759D01*
X132435241Y-70329637D01*
X132667759Y-70485000D01*
X132435241Y-70640363D01*
X132235363Y-70840241D01*
X132078320Y-71075273D01*
X131970147Y-71336426D01*
X131915000Y-71613665D01*
X131915000Y-71896335D01*
X131970147Y-72173574D01*
X132078320Y-72434727D01*
X132235363Y-72669759D01*
X132435241Y-72869637D01*
X132667759Y-73025000D01*
X132435241Y-73180363D01*
X132235363Y-73380241D01*
X132078320Y-73615273D01*
X131970147Y-73876426D01*
X131915000Y-74153665D01*
X131915000Y-74436335D01*
X131970147Y-74713574D01*
X132078320Y-74974727D01*
X132235363Y-75209759D01*
X132435241Y-75409637D01*
X132667759Y-75565000D01*
X132435241Y-75720363D01*
X132235363Y-75920241D01*
X132078320Y-76155273D01*
X131970147Y-76416426D01*
X131915000Y-76693665D01*
X131915000Y-76976335D01*
X131970147Y-77253574D01*
X132078320Y-77514727D01*
X132235363Y-77749759D01*
X132435241Y-77949637D01*
X132667759Y-78105000D01*
X132435241Y-78260363D01*
X132235363Y-78460241D01*
X132078320Y-78695273D01*
X131970147Y-78956426D01*
X131915000Y-79233665D01*
X131915000Y-79405197D01*
X119508688Y-66998887D01*
X119545000Y-66816335D01*
X119545000Y-66533665D01*
X119489853Y-66256426D01*
X119381680Y-65995273D01*
X119224637Y-65760241D01*
X119024759Y-65560363D01*
X118792241Y-65405000D01*
X119024759Y-65249637D01*
X119224637Y-65049759D01*
X119381680Y-64814727D01*
X119489853Y-64553574D01*
X119545000Y-64276335D01*
X119545000Y-63993665D01*
X119489853Y-63716426D01*
X119381680Y-63455273D01*
X119224637Y-63220241D01*
X119024759Y-63020363D01*
X118789727Y-62863320D01*
X118528574Y-62755147D01*
X118251335Y-62700000D01*
X117968665Y-62700000D01*
X117691426Y-62755147D01*
X117430273Y-62863320D01*
X117195241Y-63020363D01*
X116995363Y-63220241D01*
X116838320Y-63455273D01*
X116730147Y-63716426D01*
X116675000Y-63993665D01*
X114985000Y-63993665D01*
X114985000Y-62898504D01*
X114999364Y-62752008D01*
X115032176Y-62643330D01*
X115085479Y-62543082D01*
X115157232Y-62455103D01*
X115244707Y-62382737D01*
X115344579Y-62328737D01*
X115453027Y-62295167D01*
X115597331Y-62280000D01*
X134653647Y-62280000D01*
X134683137Y-62277095D01*
X134690948Y-62277150D01*
X134700467Y-62276217D01*
X134946970Y-62250309D01*
X135007824Y-62237817D01*
X135068774Y-62226190D01*
X135077924Y-62223428D01*
X135077928Y-62223427D01*
X135077931Y-62223426D01*
X135314707Y-62150131D01*
X135371929Y-62126077D01*
X135429502Y-62102816D01*
X135437947Y-62098326D01*
X135655977Y-61980438D01*
X135707483Y-61945696D01*
X135759400Y-61911723D01*
X135766811Y-61905679D01*
X135957791Y-61747686D01*
X136001557Y-61703613D01*
X136045895Y-61660194D01*
X136051992Y-61652825D01*
X136208647Y-61460747D01*
X136242998Y-61409045D01*
X136278081Y-61357807D01*
X136282630Y-61349394D01*
X136398993Y-61130546D01*
X136422653Y-61073141D01*
X136447108Y-61016084D01*
X136449936Y-61006947D01*
X136521576Y-60769666D01*
X136533630Y-60708787D01*
X136546544Y-60648034D01*
X136547544Y-60638522D01*
X136571731Y-60391844D01*
X136571731Y-60391837D01*
X136575000Y-60358647D01*
X136575000Y-41260665D01*
X141440000Y-41260665D01*
X141440000Y-41543335D01*
X141495147Y-41820574D01*
X141603320Y-42081727D01*
X141760363Y-42316759D01*
X141960241Y-42516637D01*
X142195273Y-42673680D01*
X142456426Y-42781853D01*
X142733665Y-42837000D01*
X143016335Y-42837000D01*
X143293574Y-42781853D01*
X143554727Y-42673680D01*
X143789759Y-42516637D01*
X143989637Y-42316759D01*
X144146680Y-42081727D01*
X144254853Y-41820574D01*
X144310000Y-41543335D01*
X144310000Y-41260665D01*
X144254853Y-40983426D01*
X144146680Y-40722273D01*
X143989637Y-40487241D01*
X143789759Y-40287363D01*
X143554727Y-40130320D01*
X143293574Y-40022147D01*
X143016335Y-39967000D01*
X142733665Y-39967000D01*
X142456426Y-40022147D01*
X142195273Y-40130320D01*
X141960241Y-40287363D01*
X141760363Y-40487241D01*
X141603320Y-40722273D01*
X141495147Y-40983426D01*
X141440000Y-41260665D01*
X136575000Y-41260665D01*
X136575000Y-38100000D01*
X145661749Y-38100000D01*
X145690684Y-38393777D01*
X145776375Y-38676264D01*
X145915531Y-38936606D01*
X146102803Y-39164797D01*
X146330994Y-39352069D01*
X146364540Y-39370000D01*
X146330994Y-39387931D01*
X146102803Y-39575203D01*
X145915531Y-39803394D01*
X145776375Y-40063736D01*
X145690684Y-40346223D01*
X145661749Y-40640000D01*
X145690684Y-40933777D01*
X145776375Y-41216264D01*
X145915531Y-41476606D01*
X146102803Y-41704797D01*
X146330994Y-41892069D01*
X146591336Y-42031225D01*
X146873823Y-42116916D01*
X147093981Y-42138600D01*
X147546019Y-42138600D01*
X147766177Y-42116916D01*
X148048664Y-42031225D01*
X148309006Y-41892069D01*
X148537197Y-41704797D01*
X148724469Y-41476606D01*
X148765416Y-41400000D01*
X152224584Y-41400000D01*
X152265531Y-41476606D01*
X152452803Y-41704797D01*
X152680994Y-41892069D01*
X152941336Y-42031225D01*
X153223823Y-42116916D01*
X153443981Y-42138600D01*
X153896019Y-42138600D01*
X154116177Y-42116916D01*
X154398664Y-42031225D01*
X154659006Y-41892069D01*
X154830849Y-41751040D01*
X156723091Y-41751040D01*
X156817930Y-42015881D01*
X156962615Y-42257131D01*
X157151586Y-42465519D01*
X157377580Y-42633037D01*
X157631913Y-42753246D01*
X157765961Y-42793904D01*
X157988000Y-42671915D01*
X157988000Y-41529000D01*
X158242000Y-41529000D01*
X158242000Y-42671915D01*
X158464039Y-42793904D01*
X158598087Y-42753246D01*
X158852420Y-42633037D01*
X159078414Y-42465519D01*
X159267385Y-42257131D01*
X159412070Y-42015881D01*
X159506909Y-41751040D01*
X159385624Y-41529000D01*
X158242000Y-41529000D01*
X157988000Y-41529000D01*
X156844376Y-41529000D01*
X156723091Y-41751040D01*
X154830849Y-41751040D01*
X154887197Y-41704797D01*
X155074469Y-41476606D01*
X155213625Y-41216264D01*
X155263162Y-41052960D01*
X156723091Y-41052960D01*
X156844376Y-41275000D01*
X157988000Y-41275000D01*
X157988000Y-40132085D01*
X158242000Y-40132085D01*
X158242000Y-41275000D01*
X159385624Y-41275000D01*
X159506909Y-41052960D01*
X159412070Y-40788119D01*
X159267385Y-40546869D01*
X159078414Y-40338481D01*
X158852420Y-40170963D01*
X158598087Y-40050754D01*
X158464039Y-40010096D01*
X158242000Y-40132085D01*
X157988000Y-40132085D01*
X157765961Y-40010096D01*
X157631913Y-40050754D01*
X157377580Y-40170963D01*
X157151586Y-40338481D01*
X156962615Y-40546869D01*
X156817930Y-40788119D01*
X156723091Y-41052960D01*
X155263162Y-41052960D01*
X155299316Y-40933777D01*
X155328251Y-40640000D01*
X155299316Y-40346223D01*
X155213625Y-40063736D01*
X155074469Y-39803394D01*
X154887197Y-39575203D01*
X154659006Y-39387931D01*
X154625460Y-39370000D01*
X154659006Y-39352069D01*
X154887197Y-39164797D01*
X155074469Y-38936606D01*
X155213625Y-38676264D01*
X155299316Y-38393777D01*
X155328251Y-38100000D01*
X155299316Y-37806223D01*
X155213625Y-37523736D01*
X155074469Y-37263394D01*
X154887197Y-37035203D01*
X154879135Y-37028586D01*
X154930180Y-37013102D01*
X155040494Y-36954137D01*
X155137185Y-36874785D01*
X155216537Y-36778094D01*
X155275502Y-36667780D01*
X155311812Y-36548082D01*
X155324072Y-36423600D01*
X155324072Y-34696400D01*
X155311812Y-34571918D01*
X155275502Y-34452220D01*
X155216537Y-34341906D01*
X155137185Y-34245215D01*
X155040494Y-34165863D01*
X154930180Y-34106898D01*
X154810482Y-34070588D01*
X154686000Y-34058328D01*
X152654000Y-34058328D01*
X152529518Y-34070588D01*
X152409820Y-34106898D01*
X152299506Y-34165863D01*
X152202815Y-34245215D01*
X152123463Y-34341906D01*
X152064498Y-34452220D01*
X152028188Y-34571918D01*
X152015928Y-34696400D01*
X152015928Y-34800000D01*
X148974072Y-34800000D01*
X148974072Y-34696400D01*
X148961812Y-34571918D01*
X148925502Y-34452220D01*
X148866537Y-34341906D01*
X148787185Y-34245215D01*
X148690494Y-34165863D01*
X148580180Y-34106898D01*
X148460482Y-34070588D01*
X148336000Y-34058328D01*
X146304000Y-34058328D01*
X146179518Y-34070588D01*
X146059820Y-34106898D01*
X145949506Y-34165863D01*
X145852815Y-34245215D01*
X145773463Y-34341906D01*
X145714498Y-34452220D01*
X145678188Y-34571918D01*
X145665928Y-34696400D01*
X145665928Y-36423600D01*
X145678188Y-36548082D01*
X145714498Y-36667780D01*
X145773463Y-36778094D01*
X145852815Y-36874785D01*
X145949506Y-36954137D01*
X146059820Y-37013102D01*
X146110865Y-37028586D01*
X146102803Y-37035203D01*
X145915531Y-37263394D01*
X145776375Y-37523736D01*
X145690684Y-37806223D01*
X145661749Y-38100000D01*
X136575000Y-38100000D01*
X136575000Y-33640665D01*
X141440000Y-33640665D01*
X141440000Y-33923335D01*
X141495147Y-34200574D01*
X141603320Y-34461727D01*
X141760363Y-34696759D01*
X141960241Y-34896637D01*
X142195273Y-35053680D01*
X142456426Y-35161853D01*
X142733665Y-35217000D01*
X143016335Y-35217000D01*
X143293574Y-35161853D01*
X143554727Y-35053680D01*
X143789759Y-34896637D01*
X143989637Y-34696759D01*
X144146680Y-34461727D01*
X144254853Y-34200574D01*
X144310000Y-33923335D01*
X144310000Y-33640665D01*
X156680000Y-33640665D01*
X156680000Y-33923335D01*
X156735147Y-34200574D01*
X156843320Y-34461727D01*
X157000363Y-34696759D01*
X157200241Y-34896637D01*
X157435273Y-35053680D01*
X157696426Y-35161853D01*
X157973665Y-35217000D01*
X158256335Y-35217000D01*
X158533574Y-35161853D01*
X158794727Y-35053680D01*
X159029759Y-34896637D01*
X159229637Y-34696759D01*
X159386680Y-34461727D01*
X159494853Y-34200574D01*
X159550000Y-33923335D01*
X159550000Y-33640665D01*
X159494853Y-33363426D01*
X159386680Y-33102273D01*
X159229637Y-32867241D01*
X159029759Y-32667363D01*
X158794727Y-32510320D01*
X158533574Y-32402147D01*
X158256335Y-32347000D01*
X157973665Y-32347000D01*
X157696426Y-32402147D01*
X157435273Y-32510320D01*
X157200241Y-32667363D01*
X157000363Y-32867241D01*
X156843320Y-33102273D01*
X156735147Y-33363426D01*
X156680000Y-33640665D01*
X144310000Y-33640665D01*
X144254853Y-33363426D01*
X144146680Y-33102273D01*
X143989637Y-32867241D01*
X143789759Y-32667363D01*
X143554727Y-32510320D01*
X143293574Y-32402147D01*
X143016335Y-32347000D01*
X142733665Y-32347000D01*
X142456426Y-32402147D01*
X142195273Y-32510320D01*
X141960241Y-32667363D01*
X141760363Y-32867241D01*
X141603320Y-33102273D01*
X141495147Y-33363426D01*
X141440000Y-33640665D01*
X136575000Y-33640665D01*
X136575000Y-31148504D01*
X136589364Y-31002008D01*
X136622176Y-30893330D01*
X136675479Y-30793082D01*
X136747232Y-30705103D01*
X136834707Y-30632737D01*
X136934579Y-30578737D01*
X137043027Y-30545167D01*
X137187331Y-30530000D01*
X159986496Y-30530000D01*
X160132992Y-30544364D01*
G36*
X131516200Y-88776002D02*
G01*
X131539999Y-88805001D01*
X131655724Y-88899974D01*
X131787753Y-88970546D01*
X131931014Y-89014003D01*
X132012862Y-89022064D01*
X131998754Y-89051913D01*
X131958096Y-89185961D01*
X132080085Y-89408000D01*
X133223000Y-89408000D01*
X133223000Y-89388000D01*
X133477000Y-89388000D01*
X133477000Y-89408000D01*
X134619915Y-89408000D01*
X134741904Y-89185961D01*
X134701246Y-89051913D01*
X134688526Y-89025000D01*
X135575199Y-89025000D01*
X136596200Y-90046002D01*
X136619999Y-90075001D01*
X136735724Y-90169974D01*
X136867753Y-90240546D01*
X137011014Y-90284003D01*
X137122667Y-90295000D01*
X137122676Y-90295000D01*
X137159999Y-90298676D01*
X137197322Y-90295000D01*
X139488031Y-90295000D01*
X139498927Y-90321305D01*
X139680594Y-90593188D01*
X139892406Y-90805000D01*
X139680594Y-91016812D01*
X139498927Y-91288695D01*
X139373793Y-91590796D01*
X139310000Y-91911504D01*
X139310000Y-92238496D01*
X139373793Y-92559204D01*
X139498927Y-92861305D01*
X139680594Y-93133188D01*
X139892406Y-93345000D01*
X139680594Y-93556812D01*
X139498927Y-93828695D01*
X139373793Y-94130796D01*
X139315194Y-94425392D01*
X137723804Y-92834003D01*
X137700001Y-92804999D01*
X137584276Y-92710026D01*
X137452247Y-92639454D01*
X137308986Y-92595997D01*
X137197333Y-92585000D01*
X137197322Y-92585000D01*
X137160000Y-92581324D01*
X137122678Y-92585000D01*
X134691983Y-92585000D01*
X134729853Y-92493574D01*
X134785000Y-92216335D01*
X134785000Y-91933665D01*
X134729853Y-91656426D01*
X134621680Y-91395273D01*
X134464637Y-91160241D01*
X134264759Y-90960363D01*
X134029727Y-90803320D01*
X134019135Y-90798933D01*
X134205131Y-90687385D01*
X134413519Y-90498414D01*
X134581037Y-90272420D01*
X134701246Y-90018087D01*
X134741904Y-89884039D01*
X134619915Y-89662000D01*
X133477000Y-89662000D01*
X133477000Y-89682000D01*
X133223000Y-89682000D01*
X133223000Y-89662000D01*
X132080085Y-89662000D01*
X131958096Y-89884039D01*
X131998754Y-90018087D01*
X132118963Y-90272420D01*
X132286481Y-90498414D01*
X132494869Y-90687385D01*
X132680865Y-90798933D01*
X132670273Y-90803320D01*
X132435241Y-90960363D01*
X132235363Y-91160241D01*
X132078320Y-91395273D01*
X131970147Y-91656426D01*
X131915000Y-91933665D01*
X131915000Y-92216335D01*
X131970147Y-92493574D01*
X132008017Y-92585000D01*
X129854802Y-92585000D01*
X125024801Y-87755000D01*
X130495199Y-87755000D01*
X131516200Y-88776002D01*
G37*
X131516200Y-88776002D02*
X131539999Y-88805001D01*
X131655724Y-88899974D01*
X131787753Y-88970546D01*
X131931014Y-89014003D01*
X132012862Y-89022064D01*
X131998754Y-89051913D01*
X131958096Y-89185961D01*
X132080085Y-89408000D01*
X133223000Y-89408000D01*
X133223000Y-89388000D01*
X133477000Y-89388000D01*
X133477000Y-89408000D01*
X134619915Y-89408000D01*
X134741904Y-89185961D01*
X134701246Y-89051913D01*
X134688526Y-89025000D01*
X135575199Y-89025000D01*
X136596200Y-90046002D01*
X136619999Y-90075001D01*
X136735724Y-90169974D01*
X136867753Y-90240546D01*
X137011014Y-90284003D01*
X137122667Y-90295000D01*
X137122676Y-90295000D01*
X137159999Y-90298676D01*
X137197322Y-90295000D01*
X139488031Y-90295000D01*
X139498927Y-90321305D01*
X139680594Y-90593188D01*
X139892406Y-90805000D01*
X139680594Y-91016812D01*
X139498927Y-91288695D01*
X139373793Y-91590796D01*
X139310000Y-91911504D01*
X139310000Y-92238496D01*
X139373793Y-92559204D01*
X139498927Y-92861305D01*
X139680594Y-93133188D01*
X139892406Y-93345000D01*
X139680594Y-93556812D01*
X139498927Y-93828695D01*
X139373793Y-94130796D01*
X139315194Y-94425392D01*
X137723804Y-92834003D01*
X137700001Y-92804999D01*
X137584276Y-92710026D01*
X137452247Y-92639454D01*
X137308986Y-92595997D01*
X137197333Y-92585000D01*
X137197322Y-92585000D01*
X137160000Y-92581324D01*
X137122678Y-92585000D01*
X134691983Y-92585000D01*
X134729853Y-92493574D01*
X134785000Y-92216335D01*
X134785000Y-91933665D01*
X134729853Y-91656426D01*
X134621680Y-91395273D01*
X134464637Y-91160241D01*
X134264759Y-90960363D01*
X134029727Y-90803320D01*
X134019135Y-90798933D01*
X134205131Y-90687385D01*
X134413519Y-90498414D01*
X134581037Y-90272420D01*
X134701246Y-90018087D01*
X134741904Y-89884039D01*
X134619915Y-89662000D01*
X133477000Y-89662000D01*
X133477000Y-89682000D01*
X133223000Y-89682000D01*
X133223000Y-89662000D01*
X132080085Y-89662000D01*
X131958096Y-89884039D01*
X131998754Y-90018087D01*
X132118963Y-90272420D01*
X132286481Y-90498414D01*
X132494869Y-90687385D01*
X132680865Y-90798933D01*
X132670273Y-90803320D01*
X132435241Y-90960363D01*
X132235363Y-91160241D01*
X132078320Y-91395273D01*
X131970147Y-91656426D01*
X131915000Y-91933665D01*
X131915000Y-92216335D01*
X131970147Y-92493574D01*
X132008017Y-92585000D01*
X129854802Y-92585000D01*
X125024801Y-87755000D01*
X130495199Y-87755000D01*
X131516200Y-88776002D01*
G36*
X152015928Y-36423600D02*
G01*
X152028188Y-36548082D01*
X152064498Y-36667780D01*
X152123463Y-36778094D01*
X152202815Y-36874785D01*
X152299506Y-36954137D01*
X152409820Y-37013102D01*
X152460865Y-37028586D01*
X152452803Y-37035203D01*
X152265531Y-37263394D01*
X152126375Y-37523736D01*
X152040684Y-37806223D01*
X152011749Y-38100000D01*
X152040684Y-38393777D01*
X152126375Y-38676264D01*
X152265531Y-38936606D01*
X152452803Y-39164797D01*
X152680994Y-39352069D01*
X152714540Y-39370000D01*
X152680994Y-39387931D01*
X152452803Y-39575203D01*
X152265531Y-39803394D01*
X152224584Y-39880000D01*
X148765416Y-39880000D01*
X148724469Y-39803394D01*
X148537197Y-39575203D01*
X148309006Y-39387931D01*
X148275460Y-39370000D01*
X148309006Y-39352069D01*
X148537197Y-39164797D01*
X148724469Y-38936606D01*
X148863625Y-38676264D01*
X148949316Y-38393777D01*
X148978251Y-38100000D01*
X148949316Y-37806223D01*
X148863625Y-37523736D01*
X148724469Y-37263394D01*
X148537197Y-37035203D01*
X148529135Y-37028586D01*
X148580180Y-37013102D01*
X148690494Y-36954137D01*
X148787185Y-36874785D01*
X148866537Y-36778094D01*
X148925502Y-36667780D01*
X148961812Y-36548082D01*
X148974072Y-36423600D01*
X148974072Y-36320000D01*
X152015928Y-36320000D01*
X152015928Y-36423600D01*
G37*
X152015928Y-36423600D02*
X152028188Y-36548082D01*
X152064498Y-36667780D01*
X152123463Y-36778094D01*
X152202815Y-36874785D01*
X152299506Y-36954137D01*
X152409820Y-37013102D01*
X152460865Y-37028586D01*
X152452803Y-37035203D01*
X152265531Y-37263394D01*
X152126375Y-37523736D01*
X152040684Y-37806223D01*
X152011749Y-38100000D01*
X152040684Y-38393777D01*
X152126375Y-38676264D01*
X152265531Y-38936606D01*
X152452803Y-39164797D01*
X152680994Y-39352069D01*
X152714540Y-39370000D01*
X152680994Y-39387931D01*
X152452803Y-39575203D01*
X152265531Y-39803394D01*
X152224584Y-39880000D01*
X148765416Y-39880000D01*
X148724469Y-39803394D01*
X148537197Y-39575203D01*
X148309006Y-39387931D01*
X148275460Y-39370000D01*
X148309006Y-39352069D01*
X148537197Y-39164797D01*
X148724469Y-38936606D01*
X148863625Y-38676264D01*
X148949316Y-38393777D01*
X148978251Y-38100000D01*
X148949316Y-37806223D01*
X148863625Y-37523736D01*
X148724469Y-37263394D01*
X148537197Y-37035203D01*
X148529135Y-37028586D01*
X148580180Y-37013102D01*
X148690494Y-36954137D01*
X148787185Y-36874785D01*
X148866537Y-36778094D01*
X148925502Y-36667780D01*
X148961812Y-36548082D01*
X148974072Y-36423600D01*
X148974072Y-36320000D01*
X152015928Y-36320000D01*
X152015928Y-36423600D01*
%TD*%
M02*
