M48
; DRILL file {KiCad (5.1.6-0-10_14)} date Sunday, January 24, 2021 at 08:08:02 AM
; FORMAT={-:-/ absolute / inch / decimal}
; #@! TF.CreationDate,2021-01-24T08:08:02+01:00
; #@! TF.GenerationSoftware,Kicad,Pcbnew,(5.1.6-0-10_14)
; #@! TF.FileFunction,Plated,1,2,PTH
FMAT,2
INCH
T1C0.0157
T2C0.0315
T3C0.0400
T4C0.0512
%
G90
G05
T1
X4.62Y-4.61
X4.62Y-4.95
X4.75Y-3.475
X4.775Y-3.525
X4.8Y-3.575
X4.825Y-3.625
X4.96Y-2.61
X5.3Y-2.675
X5.625Y-1.975
X5.725Y-1.315
X5.75Y-1.82
X5.75Y-2.28
X5.75Y-2.68
X5.93Y-2.47
X5.95Y-1.56
X6.0Y-1.975
X6.0Y-4.475
X6.025Y-4.425
X6.05Y-4.375
X6.23Y-4.61
X6.23Y-4.95
T2
X6.225Y-1.33
X6.225Y-1.63
X5.625Y-1.33
X5.625Y-1.63
X4.65Y-2.525
X4.65Y-2.625
X4.65Y-2.725
X4.65Y-2.825
X4.65Y-2.925
X4.65Y-3.025
X4.65Y-3.125
X4.65Y-3.225
X4.65Y-3.325
X4.65Y-3.425
X4.65Y-3.525
X4.65Y-3.625
X4.65Y-3.725
X4.65Y-3.825
X4.65Y-3.925
X4.65Y-4.025
X4.65Y-4.125
X4.65Y-4.225
X4.65Y-4.325
X4.65Y-4.425
X5.25Y-2.525
X5.25Y-2.625
X5.25Y-2.725
X5.25Y-2.825
X5.25Y-2.925
X5.25Y-3.025
X5.25Y-3.125
X5.25Y-3.225
X5.25Y-3.325
X5.25Y-3.425
X5.25Y-3.525
X5.25Y-3.625
X5.25Y-3.725
X5.25Y-3.825
X5.25Y-3.925
X5.25Y-4.025
X5.25Y-4.125
X5.25Y-4.225
X5.25Y-4.325
X5.25Y-4.425
T3
X5.8Y-1.4
X5.8Y-1.5
X5.8Y-1.6
X6.05Y-1.4
X6.05Y-1.5
X6.05Y-1.6
T4
X5.55Y-2.125
X5.55Y-2.225
X5.55Y-2.325
X5.55Y-2.425
X5.55Y-2.525
X5.55Y-2.625
X5.55Y-2.725
X5.55Y-2.825
X5.55Y-2.925
X5.55Y-3.025
X5.55Y-3.125
X5.55Y-3.225
X5.55Y-3.325
X5.55Y-3.425
X5.55Y-3.525
X5.55Y-3.625
X5.55Y-3.725
X5.55Y-3.825
X5.55Y-3.925
X5.55Y-4.025
X5.55Y-4.125
X5.55Y-4.225
X5.55Y-4.325
X5.55Y-4.425
X6.15Y-2.125
X6.15Y-2.225
X6.15Y-2.325
X6.15Y-2.425
X6.15Y-2.525
X6.15Y-2.625
X6.15Y-2.725
X6.15Y-2.825
X6.15Y-2.925
X6.15Y-3.025
X6.15Y-3.125
X6.15Y-3.225
X6.15Y-3.325
X6.15Y-3.425
X6.15Y-3.525
X6.15Y-3.625
X6.15Y-3.725
X6.15Y-3.825
X6.15Y-3.925
X6.15Y-4.025
X6.15Y-4.125
X6.15Y-4.225
X6.15Y-4.325
X6.15Y-4.425
T0
M30
