M48
; DRILL file {KiCad (5.1.6-0-10_14)} date Sunday, January 24, 2021 at 10:58:45 PM
; FORMAT={-:-/ absolute / inch / decimal}
; #@! TF.CreationDate,2021-01-24T22:58:45+01:00
; #@! TF.GenerationSoftware,Kicad,Pcbnew,(5.1.6-0-10_14)
; #@! TF.FileFunction,Plated,1,2,PTH
FMAT,2
INCH
T1C0.0157
T2C0.0315
T3C0.0394
T4C0.0512
%
G90
G05
T1
X4.6791Y-2.7088
X4.91Y-3.755
X5.11Y-2.605
X5.3Y-3.975
X5.3Y-4.175
X5.325Y-3.125
X5.325Y-4.425
X5.35Y-4.025
X5.35Y-4.325
X5.375Y-3.225
X5.375Y-4.225
X5.4Y-3.325
X5.4Y-4.025
X5.425Y-3.725
X5.425Y-4.175
X5.45Y-3.425
X5.45Y-3.825
X5.45Y-3.875
X5.475Y-3.85
X5.75Y-2.0
X5.75Y-2.05
X5.9Y-2.925
X5.9Y-3.1
X5.925Y-2.825
X5.925Y-3.2
X5.925Y-4.2
X5.95Y-2.725
X5.95Y-3.3
X5.975Y-2.925
X5.975Y-3.125
X6.0Y-2.825
X6.0Y-3.225
X6.025Y-2.725
X6.025Y-3.325
X6.025Y-4.1
X6.025Y-4.15
X6.025Y-4.575
X6.05Y-2.625
X6.05Y-3.425
X6.075Y-2.525
X6.075Y-3.625
X6.075Y-4.1
X6.075Y-4.15
X6.075Y-4.45
X6.215Y-2.0
T2
X4.825Y-2.7922
X4.825Y-2.93
X4.925Y-2.7922
X4.925Y-2.93
X5.025Y-2.7922
X5.025Y-2.93
X4.98Y-3.88
X4.98Y-4.18
X4.7833Y-4.31
X4.8833Y-4.31
X4.8833Y-4.61
X4.9833Y-4.31
X5.0833Y-4.31
X4.865Y-3.88
X4.865Y-4.18
X5.09Y-3.48
X5.09Y-3.58
X5.09Y-3.68
X4.75Y-3.88
X4.75Y-4.18
X5.25Y-2.525
X5.25Y-2.625
X5.25Y-2.725
X5.25Y-2.825
X5.25Y-2.925
X5.25Y-3.025
X5.25Y-3.125
X5.25Y-3.225
X5.25Y-3.325
X5.25Y-3.425
X5.25Y-3.525
X5.25Y-3.625
X5.25Y-3.725
X5.25Y-3.825
X5.25Y-3.925
X5.25Y-4.025
X5.25Y-4.125
X5.25Y-4.225
X5.25Y-4.325
X5.25Y-4.425
X5.85Y-2.525
X5.85Y-2.625
X5.85Y-2.725
X5.85Y-2.825
X5.85Y-2.925
X5.85Y-3.025
X5.85Y-3.125
X5.85Y-3.225
X5.85Y-3.325
X5.85Y-3.425
X5.85Y-3.525
X5.85Y-3.625
X5.85Y-3.725
X5.85Y-3.825
X5.85Y-3.925
X5.85Y-4.025
X5.85Y-4.125
X5.85Y-4.225
X5.85Y-4.325
X5.85Y-4.425
X5.095Y-3.88
X5.095Y-4.18
X4.635Y-3.88
X4.635Y-4.18
T3
X4.645Y-3.675
X4.745Y-3.675
X4.845Y-3.675
X4.645Y-3.455
X4.745Y-3.455
X4.845Y-3.455
X4.645Y-3.565
X4.745Y-3.565
X4.845Y-3.565
T4
X5.55Y-2.125
X5.55Y-2.225
X5.55Y-2.325
X5.55Y-2.425
X5.55Y-2.525
X5.55Y-2.625
X5.55Y-2.725
X5.55Y-2.825
X5.55Y-2.925
X5.55Y-3.025
X5.55Y-3.125
X5.55Y-3.225
X5.55Y-3.325
X5.55Y-3.425
X5.55Y-3.525
X5.55Y-3.625
X5.55Y-3.725
X5.55Y-3.825
X5.55Y-3.925
X5.55Y-4.025
X5.55Y-4.125
X5.55Y-4.225
X5.55Y-4.325
X5.55Y-4.425
X6.15Y-2.125
X6.15Y-2.225
X6.15Y-2.325
X6.15Y-2.425
X6.15Y-2.525
X6.15Y-2.625
X6.15Y-2.725
X6.15Y-2.825
X6.15Y-2.925
X6.15Y-3.025
X6.15Y-3.125
X6.15Y-3.225
X6.15Y-3.325
X6.15Y-3.425
X6.15Y-3.525
X6.15Y-3.625
X6.15Y-3.725
X6.15Y-3.825
X6.15Y-3.925
X6.15Y-4.025
X6.15Y-4.125
X6.15Y-4.225
X6.15Y-4.325
X6.15Y-4.425
T0
M30
