G04 #@! TF.GenerationSoftware,KiCad,Pcbnew,(5.1.6-0-10_14)*
G04 #@! TF.CreationDate,2021-01-24T22:58:42+01:00*
G04 #@! TF.ProjectId,27c322,32376333-3232-42e6-9b69-6361645f7063,rev?*
G04 #@! TF.SameCoordinates,Original*
G04 #@! TF.FileFunction,Legend,Bot*
G04 #@! TF.FilePolarity,Positive*
%FSLAX46Y46*%
G04 Gerber Fmt 4.6, Leading zero omitted, Abs format (unit mm)*
G04 Created by KiCad (PCBNEW (5.1.6-0-10_14)) date 2021-01-24 22:58:42*
%MOMM*%
%LPD*%
G01*
G04 APERTURE LIST*
%ADD10C,0.150000*%
G04 APERTURE END LIST*
D10*
X159430404Y-118501380D02*
X159430404Y-117501380D01*
X158954214Y-118501380D02*
X158954214Y-117501380D01*
X158382785Y-118501380D01*
X158382785Y-117501380D01*
X157954214Y-118453761D02*
X157811357Y-118501380D01*
X157573261Y-118501380D01*
X157478023Y-118453761D01*
X157430404Y-118406142D01*
X157382785Y-118310904D01*
X157382785Y-118215666D01*
X157430404Y-118120428D01*
X157478023Y-118072809D01*
X157573261Y-118025190D01*
X157763738Y-117977571D01*
X157858976Y-117929952D01*
X157906595Y-117882333D01*
X157954214Y-117787095D01*
X157954214Y-117691857D01*
X157906595Y-117596619D01*
X157858976Y-117549000D01*
X157763738Y-117501380D01*
X157525642Y-117501380D01*
X157382785Y-117549000D01*
X157097071Y-117501380D02*
X156525642Y-117501380D01*
X156811357Y-118501380D02*
X156811357Y-117501380D01*
X155620880Y-118501380D02*
X155954214Y-118025190D01*
X156192309Y-118501380D02*
X156192309Y-117501380D01*
X155811357Y-117501380D01*
X155716119Y-117549000D01*
X155668500Y-117596619D01*
X155620880Y-117691857D01*
X155620880Y-117834714D01*
X155668500Y-117929952D01*
X155716119Y-117977571D01*
X155811357Y-118025190D01*
X156192309Y-118025190D01*
X155192309Y-117501380D02*
X155192309Y-118310904D01*
X155144690Y-118406142D01*
X155097071Y-118453761D01*
X155001833Y-118501380D01*
X154811357Y-118501380D01*
X154716119Y-118453761D01*
X154668500Y-118406142D01*
X154620880Y-118310904D01*
X154620880Y-117501380D01*
X153573261Y-118406142D02*
X153620880Y-118453761D01*
X153763738Y-118501380D01*
X153858976Y-118501380D01*
X154001833Y-118453761D01*
X154097071Y-118358523D01*
X154144690Y-118263285D01*
X154192309Y-118072809D01*
X154192309Y-117929952D01*
X154144690Y-117739476D01*
X154097071Y-117644238D01*
X154001833Y-117549000D01*
X153858976Y-117501380D01*
X153763738Y-117501380D01*
X153620880Y-117549000D01*
X153573261Y-117596619D01*
X153287547Y-117501380D02*
X152716119Y-117501380D01*
X153001833Y-118501380D02*
X153001833Y-117501380D01*
X152382785Y-118501380D02*
X152382785Y-117501380D01*
X151716119Y-117501380D02*
X151525642Y-117501380D01*
X151430404Y-117549000D01*
X151335166Y-117644238D01*
X151287547Y-117834714D01*
X151287547Y-118168047D01*
X151335166Y-118358523D01*
X151430404Y-118453761D01*
X151525642Y-118501380D01*
X151716119Y-118501380D01*
X151811357Y-118453761D01*
X151906595Y-118358523D01*
X151954214Y-118168047D01*
X151954214Y-117834714D01*
X151906595Y-117644238D01*
X151811357Y-117549000D01*
X151716119Y-117501380D01*
X150858976Y-118501380D02*
X150858976Y-117501380D01*
X150287547Y-118501380D01*
X150287547Y-117501380D01*
X149858976Y-118453761D02*
X149716119Y-118501380D01*
X149478023Y-118501380D01*
X149382785Y-118453761D01*
X149335166Y-118406142D01*
X149287547Y-118310904D01*
X149287547Y-118215666D01*
X149335166Y-118120428D01*
X149382785Y-118072809D01*
X149478023Y-118025190D01*
X149668500Y-117977571D01*
X149763738Y-117929952D01*
X149811357Y-117882333D01*
X149858976Y-117787095D01*
X149858976Y-117691857D01*
X149811357Y-117596619D01*
X149763738Y-117549000D01*
X149668500Y-117501380D01*
X149430404Y-117501380D01*
X149287547Y-117549000D01*
X158906595Y-120151380D02*
X159478023Y-120151380D01*
X159192309Y-120151380D02*
X159192309Y-119151380D01*
X159287547Y-119294238D01*
X159382785Y-119389476D01*
X159478023Y-119437095D01*
X158478023Y-120056142D02*
X158430404Y-120103761D01*
X158478023Y-120151380D01*
X158525642Y-120103761D01*
X158478023Y-120056142D01*
X158478023Y-120151380D01*
X157239928Y-120151380D02*
X157239928Y-119151380D01*
X156858976Y-119151380D01*
X156763738Y-119199000D01*
X156716119Y-119246619D01*
X156668500Y-119341857D01*
X156668500Y-119484714D01*
X156716119Y-119579952D01*
X156763738Y-119627571D01*
X156858976Y-119675190D01*
X157239928Y-119675190D01*
X156097071Y-120151380D02*
X156192309Y-120103761D01*
X156239928Y-120008523D01*
X156239928Y-119151380D01*
X155287547Y-120151380D02*
X155287547Y-119627571D01*
X155335166Y-119532333D01*
X155430404Y-119484714D01*
X155620880Y-119484714D01*
X155716119Y-119532333D01*
X155287547Y-120103761D02*
X155382785Y-120151380D01*
X155620880Y-120151380D01*
X155716119Y-120103761D01*
X155763738Y-120008523D01*
X155763738Y-119913285D01*
X155716119Y-119818047D01*
X155620880Y-119770428D01*
X155382785Y-119770428D01*
X155287547Y-119722809D01*
X154382785Y-120103761D02*
X154478023Y-120151380D01*
X154668500Y-120151380D01*
X154763738Y-120103761D01*
X154811357Y-120056142D01*
X154858976Y-119960904D01*
X154858976Y-119675190D01*
X154811357Y-119579952D01*
X154763738Y-119532333D01*
X154668500Y-119484714D01*
X154478023Y-119484714D01*
X154382785Y-119532333D01*
X153573261Y-120103761D02*
X153668500Y-120151380D01*
X153858976Y-120151380D01*
X153954214Y-120103761D01*
X154001833Y-120008523D01*
X154001833Y-119627571D01*
X153954214Y-119532333D01*
X153858976Y-119484714D01*
X153668500Y-119484714D01*
X153573261Y-119532333D01*
X153525642Y-119627571D01*
X153525642Y-119722809D01*
X154001833Y-119818047D01*
X152335166Y-119627571D02*
X152001833Y-119627571D01*
X151858976Y-120151380D02*
X152335166Y-120151380D01*
X152335166Y-119151380D01*
X151858976Y-119151380D01*
X151430404Y-120151380D02*
X151430404Y-119151380D01*
X151049452Y-119151380D01*
X150954214Y-119199000D01*
X150906595Y-119246619D01*
X150858976Y-119341857D01*
X150858976Y-119484714D01*
X150906595Y-119579952D01*
X150954214Y-119627571D01*
X151049452Y-119675190D01*
X151430404Y-119675190D01*
X149858976Y-120151380D02*
X150192309Y-119675190D01*
X150430404Y-120151380D02*
X150430404Y-119151380D01*
X150049452Y-119151380D01*
X149954214Y-119199000D01*
X149906595Y-119246619D01*
X149858976Y-119341857D01*
X149858976Y-119484714D01*
X149906595Y-119579952D01*
X149954214Y-119627571D01*
X150049452Y-119675190D01*
X150430404Y-119675190D01*
X149239928Y-119151380D02*
X149049452Y-119151380D01*
X148954214Y-119199000D01*
X148858976Y-119294238D01*
X148811357Y-119484714D01*
X148811357Y-119818047D01*
X148858976Y-120008523D01*
X148954214Y-120103761D01*
X149049452Y-120151380D01*
X149239928Y-120151380D01*
X149335166Y-120103761D01*
X149430404Y-120008523D01*
X149478023Y-119818047D01*
X149478023Y-119484714D01*
X149430404Y-119294238D01*
X149335166Y-119199000D01*
X149239928Y-119151380D01*
X148382785Y-120151380D02*
X148382785Y-119151380D01*
X148049452Y-119865666D01*
X147716119Y-119151380D01*
X147716119Y-120151380D01*
X146478023Y-120151380D02*
X146478023Y-119484714D01*
X146478023Y-119151380D02*
X146525642Y-119199000D01*
X146478023Y-119246619D01*
X146430404Y-119199000D01*
X146478023Y-119151380D01*
X146478023Y-119246619D01*
X146001833Y-119484714D02*
X146001833Y-120151380D01*
X146001833Y-119579952D02*
X145954214Y-119532333D01*
X145858976Y-119484714D01*
X145716119Y-119484714D01*
X145620880Y-119532333D01*
X145573261Y-119627571D01*
X145573261Y-120151380D01*
X144192309Y-120151380D02*
X144287547Y-120103761D01*
X144335166Y-120008523D01*
X144335166Y-119151380D01*
X143668500Y-120151380D02*
X143763738Y-120103761D01*
X143811357Y-120056142D01*
X143858976Y-119960904D01*
X143858976Y-119675190D01*
X143811357Y-119579952D01*
X143763738Y-119532333D01*
X143668500Y-119484714D01*
X143525642Y-119484714D01*
X143430404Y-119532333D01*
X143382785Y-119579952D01*
X143335166Y-119675190D01*
X143335166Y-119960904D01*
X143382785Y-120056142D01*
X143430404Y-120103761D01*
X143525642Y-120151380D01*
X143668500Y-120151380D01*
X143001833Y-119484714D02*
X142811357Y-120151380D01*
X142620880Y-119675190D01*
X142430404Y-120151380D01*
X142239928Y-119484714D01*
X141478023Y-120103761D02*
X141573261Y-120151380D01*
X141763738Y-120151380D01*
X141858976Y-120103761D01*
X141906595Y-120008523D01*
X141906595Y-119627571D01*
X141858976Y-119532333D01*
X141763738Y-119484714D01*
X141573261Y-119484714D01*
X141478023Y-119532333D01*
X141430404Y-119627571D01*
X141430404Y-119722809D01*
X141906595Y-119818047D01*
X141049452Y-120103761D02*
X140954214Y-120151380D01*
X140763738Y-120151380D01*
X140668500Y-120103761D01*
X140620880Y-120008523D01*
X140620880Y-119960904D01*
X140668500Y-119865666D01*
X140763738Y-119818047D01*
X140906595Y-119818047D01*
X141001833Y-119770428D01*
X141049452Y-119675190D01*
X141049452Y-119627571D01*
X141001833Y-119532333D01*
X140906595Y-119484714D01*
X140763738Y-119484714D01*
X140668500Y-119532333D01*
X140335166Y-119484714D02*
X139954214Y-119484714D01*
X140192309Y-119151380D02*
X140192309Y-120008523D01*
X140144690Y-120103761D01*
X140049452Y-120151380D01*
X139954214Y-120151380D01*
X138858976Y-119484714D02*
X138858976Y-120484714D01*
X138858976Y-119532333D02*
X138763738Y-119484714D01*
X138573261Y-119484714D01*
X138478023Y-119532333D01*
X138430404Y-119579952D01*
X138382785Y-119675190D01*
X138382785Y-119960904D01*
X138430404Y-120056142D01*
X138478023Y-120103761D01*
X138573261Y-120151380D01*
X138763738Y-120151380D01*
X138858976Y-120103761D01*
X137811357Y-120151380D02*
X137906595Y-120103761D01*
X137954214Y-120056142D01*
X138001833Y-119960904D01*
X138001833Y-119675190D01*
X137954214Y-119579952D01*
X137906595Y-119532333D01*
X137811357Y-119484714D01*
X137668500Y-119484714D01*
X137573261Y-119532333D01*
X137525642Y-119579952D01*
X137478023Y-119675190D01*
X137478023Y-119960904D01*
X137525642Y-120056142D01*
X137573261Y-120103761D01*
X137668500Y-120151380D01*
X137811357Y-120151380D01*
X137097071Y-120103761D02*
X137001833Y-120151380D01*
X136811357Y-120151380D01*
X136716119Y-120103761D01*
X136668500Y-120008523D01*
X136668500Y-119960904D01*
X136716119Y-119865666D01*
X136811357Y-119818047D01*
X136954214Y-119818047D01*
X137049452Y-119770428D01*
X137097071Y-119675190D01*
X137097071Y-119627571D01*
X137049452Y-119532333D01*
X136954214Y-119484714D01*
X136811357Y-119484714D01*
X136716119Y-119532333D01*
X136239928Y-120151380D02*
X136239928Y-119484714D01*
X136239928Y-119151380D02*
X136287547Y-119199000D01*
X136239928Y-119246619D01*
X136192309Y-119199000D01*
X136239928Y-119151380D01*
X136239928Y-119246619D01*
X135906595Y-119484714D02*
X135525642Y-119484714D01*
X135763738Y-119151380D02*
X135763738Y-120008523D01*
X135716119Y-120103761D01*
X135620880Y-120151380D01*
X135525642Y-120151380D01*
X135192309Y-120151380D02*
X135192309Y-119484714D01*
X135192309Y-119151380D02*
X135239928Y-119199000D01*
X135192309Y-119246619D01*
X135144690Y-119199000D01*
X135192309Y-119151380D01*
X135192309Y-119246619D01*
X134573261Y-120151380D02*
X134668500Y-120103761D01*
X134716119Y-120056142D01*
X134763738Y-119960904D01*
X134763738Y-119675190D01*
X134716119Y-119579952D01*
X134668500Y-119532333D01*
X134573261Y-119484714D01*
X134430404Y-119484714D01*
X134335166Y-119532333D01*
X134287547Y-119579952D01*
X134239928Y-119675190D01*
X134239928Y-119960904D01*
X134287547Y-120056142D01*
X134335166Y-120103761D01*
X134430404Y-120151380D01*
X134573261Y-120151380D01*
X133811357Y-119484714D02*
X133811357Y-120151380D01*
X133811357Y-119579952D02*
X133763738Y-119532333D01*
X133668500Y-119484714D01*
X133525642Y-119484714D01*
X133430404Y-119532333D01*
X133382785Y-119627571D01*
X133382785Y-120151380D01*
X132144690Y-120151380D02*
X132144690Y-119484714D01*
X132144690Y-119151380D02*
X132192309Y-119199000D01*
X132144690Y-119246619D01*
X132097071Y-119199000D01*
X132144690Y-119151380D01*
X132144690Y-119246619D01*
X131668500Y-119484714D02*
X131668500Y-120151380D01*
X131668500Y-119579952D02*
X131620880Y-119532333D01*
X131525642Y-119484714D01*
X131382785Y-119484714D01*
X131287547Y-119532333D01*
X131239928Y-119627571D01*
X131239928Y-120151380D01*
X130144690Y-119484714D02*
X129763738Y-119484714D01*
X130001833Y-119151380D02*
X130001833Y-120008523D01*
X129954214Y-120103761D01*
X129858976Y-120151380D01*
X129763738Y-120151380D01*
X129430404Y-120151380D02*
X129430404Y-119151380D01*
X129001833Y-120151380D02*
X129001833Y-119627571D01*
X129049452Y-119532333D01*
X129144690Y-119484714D01*
X129287547Y-119484714D01*
X129382785Y-119532333D01*
X129430404Y-119579952D01*
X128144690Y-120103761D02*
X128239928Y-120151380D01*
X128430404Y-120151380D01*
X128525642Y-120103761D01*
X128573261Y-120008523D01*
X128573261Y-119627571D01*
X128525642Y-119532333D01*
X128430404Y-119484714D01*
X128239928Y-119484714D01*
X128144690Y-119532333D01*
X128097071Y-119627571D01*
X128097071Y-119722809D01*
X128573261Y-119818047D01*
X127001833Y-119151380D02*
X126335166Y-119151380D01*
X127001833Y-120151380D01*
X126335166Y-120151380D01*
X125954214Y-120151380D02*
X125954214Y-119151380D01*
X125144690Y-119627571D02*
X125478023Y-119627571D01*
X125478023Y-120151380D02*
X125478023Y-119151380D01*
X125001833Y-119151380D01*
X123906595Y-120103761D02*
X123811357Y-120151380D01*
X123620880Y-120151380D01*
X123525642Y-120103761D01*
X123478023Y-120008523D01*
X123478023Y-119960904D01*
X123525642Y-119865666D01*
X123620880Y-119818047D01*
X123763738Y-119818047D01*
X123858976Y-119770428D01*
X123906595Y-119675190D01*
X123906595Y-119627571D01*
X123858976Y-119532333D01*
X123763738Y-119484714D01*
X123620880Y-119484714D01*
X123525642Y-119532333D01*
X122906595Y-120151380D02*
X123001833Y-120103761D01*
X123049452Y-120056142D01*
X123097071Y-119960904D01*
X123097071Y-119675190D01*
X123049452Y-119579952D01*
X123001833Y-119532333D01*
X122906595Y-119484714D01*
X122763738Y-119484714D01*
X122668500Y-119532333D01*
X122620880Y-119579952D01*
X122573261Y-119675190D01*
X122573261Y-119960904D01*
X122620880Y-120056142D01*
X122668500Y-120103761D01*
X122763738Y-120151380D01*
X122906595Y-120151380D01*
X121716119Y-120103761D02*
X121811357Y-120151380D01*
X122001833Y-120151380D01*
X122097071Y-120103761D01*
X122144690Y-120056142D01*
X122192309Y-119960904D01*
X122192309Y-119675190D01*
X122144690Y-119579952D01*
X122097071Y-119532333D01*
X122001833Y-119484714D01*
X121811357Y-119484714D01*
X121716119Y-119532333D01*
X121287547Y-120151380D02*
X121287547Y-119151380D01*
X121192309Y-119770428D02*
X120906595Y-120151380D01*
X120906595Y-119484714D02*
X121287547Y-119865666D01*
X120097071Y-120103761D02*
X120192309Y-120151380D01*
X120382785Y-120151380D01*
X120478023Y-120103761D01*
X120525642Y-120008523D01*
X120525642Y-119627571D01*
X120478023Y-119532333D01*
X120382785Y-119484714D01*
X120192309Y-119484714D01*
X120097071Y-119532333D01*
X120049452Y-119627571D01*
X120049452Y-119722809D01*
X120525642Y-119818047D01*
X119763738Y-119484714D02*
X119382785Y-119484714D01*
X119620880Y-119151380D02*
X119620880Y-120008523D01*
X119573261Y-120103761D01*
X119478023Y-120151380D01*
X119382785Y-120151380D01*
X119001833Y-120103761D02*
X119001833Y-120151380D01*
X119049452Y-120246619D01*
X119097071Y-120294238D01*
X156478023Y-121134714D02*
X156287547Y-121801380D01*
X156097071Y-121325190D01*
X155906595Y-121801380D01*
X155716119Y-121134714D01*
X155335166Y-121801380D02*
X155335166Y-121134714D01*
X155335166Y-120801380D02*
X155382785Y-120849000D01*
X155335166Y-120896619D01*
X155287547Y-120849000D01*
X155335166Y-120801380D01*
X155335166Y-120896619D01*
X155001833Y-121134714D02*
X154620880Y-121134714D01*
X154858976Y-120801380D02*
X154858976Y-121658523D01*
X154811357Y-121753761D01*
X154716119Y-121801380D01*
X154620880Y-121801380D01*
X154287547Y-121801380D02*
X154287547Y-120801380D01*
X153858976Y-121801380D02*
X153858976Y-121277571D01*
X153906595Y-121182333D01*
X154001833Y-121134714D01*
X154144690Y-121134714D01*
X154239928Y-121182333D01*
X154287547Y-121229952D01*
X152620880Y-121801380D02*
X152620880Y-120801380D01*
X152239928Y-120801380D01*
X152144690Y-120849000D01*
X152097071Y-120896619D01*
X152049452Y-120991857D01*
X152049452Y-121134714D01*
X152097071Y-121229952D01*
X152144690Y-121277571D01*
X152239928Y-121325190D01*
X152620880Y-121325190D01*
X151620880Y-121801380D02*
X151620880Y-121134714D01*
X151620880Y-120801380D02*
X151668500Y-120849000D01*
X151620880Y-120896619D01*
X151573261Y-120849000D01*
X151620880Y-120801380D01*
X151620880Y-120896619D01*
X151144690Y-121134714D02*
X151144690Y-121801380D01*
X151144690Y-121229952D02*
X151097071Y-121182333D01*
X151001833Y-121134714D01*
X150858976Y-121134714D01*
X150763738Y-121182333D01*
X150716119Y-121277571D01*
X150716119Y-121801380D01*
X148954214Y-121801380D02*
X149525642Y-121801380D01*
X149239928Y-121801380D02*
X149239928Y-120801380D01*
X149335166Y-120944238D01*
X149430404Y-121039476D01*
X149525642Y-121087095D01*
X147335166Y-121134714D02*
X147335166Y-121801380D01*
X147763738Y-121134714D02*
X147763738Y-121658523D01*
X147716119Y-121753761D01*
X147620880Y-121801380D01*
X147478023Y-121801380D01*
X147382785Y-121753761D01*
X147335166Y-121706142D01*
X146858976Y-121134714D02*
X146858976Y-122134714D01*
X146858976Y-121182333D02*
X146763738Y-121134714D01*
X146573261Y-121134714D01*
X146478023Y-121182333D01*
X146430404Y-121229952D01*
X146382785Y-121325190D01*
X146382785Y-121610904D01*
X146430404Y-121706142D01*
X146478023Y-121753761D01*
X146573261Y-121801380D01*
X146763738Y-121801380D01*
X146858976Y-121753761D01*
X146049452Y-121134714D02*
X145858976Y-121801380D01*
X145668500Y-121325190D01*
X145478023Y-121801380D01*
X145287547Y-121134714D01*
X144478023Y-121801380D02*
X144478023Y-121277571D01*
X144525642Y-121182333D01*
X144620880Y-121134714D01*
X144811357Y-121134714D01*
X144906595Y-121182333D01*
X144478023Y-121753761D02*
X144573261Y-121801380D01*
X144811357Y-121801380D01*
X144906595Y-121753761D01*
X144954214Y-121658523D01*
X144954214Y-121563285D01*
X144906595Y-121468047D01*
X144811357Y-121420428D01*
X144573261Y-121420428D01*
X144478023Y-121372809D01*
X144001833Y-121801380D02*
X144001833Y-121134714D01*
X144001833Y-121325190D02*
X143954214Y-121229952D01*
X143906595Y-121182333D01*
X143811357Y-121134714D01*
X143716119Y-121134714D01*
X142954214Y-121801380D02*
X142954214Y-120801380D01*
X142954214Y-121753761D02*
X143049452Y-121801380D01*
X143239928Y-121801380D01*
X143335166Y-121753761D01*
X143382785Y-121706142D01*
X143430404Y-121610904D01*
X143430404Y-121325190D01*
X143382785Y-121229952D01*
X143335166Y-121182333D01*
X143239928Y-121134714D01*
X143049452Y-121134714D01*
X142954214Y-121182333D01*
X142525642Y-121753761D02*
X142430404Y-121801380D01*
X142239928Y-121801380D01*
X142144690Y-121753761D01*
X142097071Y-121658523D01*
X142097071Y-121610904D01*
X142144690Y-121515666D01*
X142239928Y-121468047D01*
X142382785Y-121468047D01*
X142478023Y-121420428D01*
X142525642Y-121325190D01*
X142525642Y-121277571D01*
X142478023Y-121182333D01*
X142382785Y-121134714D01*
X142239928Y-121134714D01*
X142144690Y-121182333D01*
X140620880Y-122182333D02*
X140668500Y-122134714D01*
X140763738Y-121991857D01*
X140811357Y-121896619D01*
X140858976Y-121753761D01*
X140906595Y-121515666D01*
X140906595Y-121325190D01*
X140858976Y-121087095D01*
X140811357Y-120944238D01*
X140763738Y-120849000D01*
X140668500Y-120706142D01*
X140620880Y-120658523D01*
X140382785Y-121134714D02*
X140001833Y-121134714D01*
X140239928Y-120801380D02*
X140239928Y-121658523D01*
X140192309Y-121753761D01*
X140097071Y-121801380D01*
X140001833Y-121801380D01*
X139525642Y-121801380D02*
X139620880Y-121753761D01*
X139668500Y-121706142D01*
X139716119Y-121610904D01*
X139716119Y-121325190D01*
X139668500Y-121229952D01*
X139620880Y-121182333D01*
X139525642Y-121134714D01*
X139382785Y-121134714D01*
X139287547Y-121182333D01*
X139239928Y-121229952D01*
X139192309Y-121325190D01*
X139192309Y-121610904D01*
X139239928Y-121706142D01*
X139287547Y-121753761D01*
X139382785Y-121801380D01*
X139525642Y-121801380D01*
X138858976Y-121134714D02*
X138668500Y-121801380D01*
X138478023Y-121325190D01*
X138287547Y-121801380D01*
X138097071Y-121134714D01*
X137287547Y-121801380D02*
X137287547Y-121277571D01*
X137335166Y-121182333D01*
X137430404Y-121134714D01*
X137620880Y-121134714D01*
X137716119Y-121182333D01*
X137287547Y-121753761D02*
X137382785Y-121801380D01*
X137620880Y-121801380D01*
X137716119Y-121753761D01*
X137763738Y-121658523D01*
X137763738Y-121563285D01*
X137716119Y-121468047D01*
X137620880Y-121420428D01*
X137382785Y-121420428D01*
X137287547Y-121372809D01*
X136811357Y-121801380D02*
X136811357Y-121134714D01*
X136811357Y-121325190D02*
X136763738Y-121229952D01*
X136716119Y-121182333D01*
X136620880Y-121134714D01*
X136525642Y-121134714D01*
X135763738Y-121801380D02*
X135763738Y-120801380D01*
X135763738Y-121753761D02*
X135858976Y-121801380D01*
X136049452Y-121801380D01*
X136144690Y-121753761D01*
X136192309Y-121706142D01*
X136239928Y-121610904D01*
X136239928Y-121325190D01*
X136192309Y-121229952D01*
X136144690Y-121182333D01*
X136049452Y-121134714D01*
X135858976Y-121134714D01*
X135763738Y-121182333D01*
X135335166Y-121753761D02*
X135239928Y-121801380D01*
X135049452Y-121801380D01*
X134954214Y-121753761D01*
X134906595Y-121658523D01*
X134906595Y-121610904D01*
X134954214Y-121515666D01*
X135049452Y-121468047D01*
X135192309Y-121468047D01*
X135287547Y-121420428D01*
X135335166Y-121325190D01*
X135335166Y-121277571D01*
X135287547Y-121182333D01*
X135192309Y-121134714D01*
X135049452Y-121134714D01*
X134954214Y-121182333D01*
X133858976Y-121134714D02*
X133478023Y-121134714D01*
X133716119Y-120801380D02*
X133716119Y-121658523D01*
X133668500Y-121753761D01*
X133573261Y-121801380D01*
X133478023Y-121801380D01*
X133144690Y-121801380D02*
X133144690Y-120801380D01*
X132716119Y-121801380D02*
X132716119Y-121277571D01*
X132763738Y-121182333D01*
X132858976Y-121134714D01*
X133001833Y-121134714D01*
X133097071Y-121182333D01*
X133144690Y-121229952D01*
X131858976Y-121753761D02*
X131954214Y-121801380D01*
X132144690Y-121801380D01*
X132239928Y-121753761D01*
X132287547Y-121658523D01*
X132287547Y-121277571D01*
X132239928Y-121182333D01*
X132144690Y-121134714D01*
X131954214Y-121134714D01*
X131858976Y-121182333D01*
X131811357Y-121277571D01*
X131811357Y-121372809D01*
X132287547Y-121468047D01*
X130478023Y-121801380D02*
X130573261Y-121753761D01*
X130620880Y-121658523D01*
X130620880Y-120801380D01*
X129716119Y-121753761D02*
X129811357Y-121801380D01*
X130001833Y-121801380D01*
X130097071Y-121753761D01*
X130144690Y-121658523D01*
X130144690Y-121277571D01*
X130097071Y-121182333D01*
X130001833Y-121134714D01*
X129811357Y-121134714D01*
X129716119Y-121182333D01*
X129668500Y-121277571D01*
X129668500Y-121372809D01*
X130144690Y-121468047D01*
X129335166Y-121134714D02*
X129097071Y-121801380D01*
X128858976Y-121134714D01*
X128097071Y-121753761D02*
X128192309Y-121801380D01*
X128382785Y-121801380D01*
X128478023Y-121753761D01*
X128525642Y-121658523D01*
X128525642Y-121277571D01*
X128478023Y-121182333D01*
X128382785Y-121134714D01*
X128192309Y-121134714D01*
X128097071Y-121182333D01*
X128049452Y-121277571D01*
X128049452Y-121372809D01*
X128525642Y-121468047D01*
X127620880Y-121801380D02*
X127620880Y-121134714D01*
X127620880Y-121325190D02*
X127573261Y-121229952D01*
X127525642Y-121182333D01*
X127430404Y-121134714D01*
X127335166Y-121134714D01*
X127097071Y-122182333D02*
X127049452Y-122134714D01*
X126954214Y-121991857D01*
X126906595Y-121896619D01*
X126858976Y-121753761D01*
X126811357Y-121515666D01*
X126811357Y-121325190D01*
X126858976Y-121087095D01*
X126906595Y-120944238D01*
X126954214Y-120849000D01*
X127049452Y-120706142D01*
X127097071Y-120658523D01*
X126335166Y-121706142D02*
X126287547Y-121753761D01*
X126335166Y-121801380D01*
X126382785Y-121753761D01*
X126335166Y-121706142D01*
X126335166Y-121801380D01*
X159478023Y-122546619D02*
X159430404Y-122499000D01*
X159335166Y-122451380D01*
X159097071Y-122451380D01*
X159001833Y-122499000D01*
X158954214Y-122546619D01*
X158906595Y-122641857D01*
X158906595Y-122737095D01*
X158954214Y-122879952D01*
X159525642Y-123451380D01*
X158906595Y-123451380D01*
X158478023Y-123356142D02*
X158430404Y-123403761D01*
X158478023Y-123451380D01*
X158525642Y-123403761D01*
X158478023Y-123356142D01*
X158478023Y-123451380D01*
X157287547Y-123403761D02*
X157144690Y-123451380D01*
X156906595Y-123451380D01*
X156811357Y-123403761D01*
X156763738Y-123356142D01*
X156716119Y-123260904D01*
X156716119Y-123165666D01*
X156763738Y-123070428D01*
X156811357Y-123022809D01*
X156906595Y-122975190D01*
X157097071Y-122927571D01*
X157192309Y-122879952D01*
X157239928Y-122832333D01*
X157287547Y-122737095D01*
X157287547Y-122641857D01*
X157239928Y-122546619D01*
X157192309Y-122499000D01*
X157097071Y-122451380D01*
X156858976Y-122451380D01*
X156716119Y-122499000D01*
X155906595Y-123403761D02*
X156001833Y-123451380D01*
X156192309Y-123451380D01*
X156287547Y-123403761D01*
X156335166Y-123308523D01*
X156335166Y-122927571D01*
X156287547Y-122832333D01*
X156192309Y-122784714D01*
X156001833Y-122784714D01*
X155906595Y-122832333D01*
X155858976Y-122927571D01*
X155858976Y-123022809D01*
X156335166Y-123118047D01*
X155573261Y-122784714D02*
X155192309Y-122784714D01*
X155430404Y-122451380D02*
X155430404Y-123308523D01*
X155382785Y-123403761D01*
X155287547Y-123451380D01*
X155192309Y-123451380D01*
X154239928Y-122784714D02*
X153858976Y-122784714D01*
X154097071Y-122451380D02*
X154097071Y-123308523D01*
X154049452Y-123403761D01*
X153954214Y-123451380D01*
X153858976Y-123451380D01*
X153525642Y-123451380D02*
X153525642Y-122451380D01*
X153097071Y-123451380D02*
X153097071Y-122927571D01*
X153144690Y-122832333D01*
X153239928Y-122784714D01*
X153382785Y-122784714D01*
X153478023Y-122832333D01*
X153525642Y-122879952D01*
X152239928Y-123403761D02*
X152335166Y-123451380D01*
X152525642Y-123451380D01*
X152620880Y-123403761D01*
X152668499Y-123308523D01*
X152668499Y-122927571D01*
X152620880Y-122832333D01*
X152525642Y-122784714D01*
X152335166Y-122784714D01*
X152239928Y-122832333D01*
X152192309Y-122927571D01*
X152192309Y-123022809D01*
X152668499Y-123118047D01*
X151049452Y-123403761D02*
X150954214Y-123451380D01*
X150763738Y-123451380D01*
X150668499Y-123403761D01*
X150620880Y-123308523D01*
X150620880Y-123260904D01*
X150668499Y-123165666D01*
X150763738Y-123118047D01*
X150906595Y-123118047D01*
X151001833Y-123070428D01*
X151049452Y-122975190D01*
X151049452Y-122927571D01*
X151001833Y-122832333D01*
X150906595Y-122784714D01*
X150763738Y-122784714D01*
X150668499Y-122832333D01*
X150049452Y-123451380D02*
X150144690Y-123403761D01*
X150192309Y-123308523D01*
X150192309Y-122451380D01*
X149668500Y-123451380D02*
X149668500Y-122784714D01*
X149668500Y-122451380D02*
X149716119Y-122499000D01*
X149668500Y-122546619D01*
X149620880Y-122499000D01*
X149668500Y-122451380D01*
X149668500Y-122546619D01*
X148763738Y-123451380D02*
X148763738Y-122451380D01*
X148763738Y-123403761D02*
X148858976Y-123451380D01*
X149049452Y-123451380D01*
X149144690Y-123403761D01*
X149192309Y-123356142D01*
X149239928Y-123260904D01*
X149239928Y-122975190D01*
X149192309Y-122879952D01*
X149144690Y-122832333D01*
X149049452Y-122784714D01*
X148858976Y-122784714D01*
X148763738Y-122832333D01*
X147906595Y-123403761D02*
X148001833Y-123451380D01*
X148192309Y-123451380D01*
X148287547Y-123403761D01*
X148335166Y-123308523D01*
X148335166Y-122927571D01*
X148287547Y-122832333D01*
X148192309Y-122784714D01*
X148001833Y-122784714D01*
X147906595Y-122832333D01*
X147858976Y-122927571D01*
X147858976Y-123022809D01*
X148335166Y-123118047D01*
X146716119Y-123403761D02*
X146620880Y-123451380D01*
X146430404Y-123451380D01*
X146335166Y-123403761D01*
X146287547Y-123308523D01*
X146287547Y-123260904D01*
X146335166Y-123165666D01*
X146430404Y-123118047D01*
X146573261Y-123118047D01*
X146668500Y-123070428D01*
X146716119Y-122975190D01*
X146716119Y-122927571D01*
X146668500Y-122832333D01*
X146573261Y-122784714D01*
X146430404Y-122784714D01*
X146335166Y-122832333D01*
X145954214Y-122784714D02*
X145763738Y-123451380D01*
X145573261Y-122975190D01*
X145382785Y-123451380D01*
X145192309Y-122784714D01*
X144811357Y-123451380D02*
X144811357Y-122784714D01*
X144811357Y-122451380D02*
X144858976Y-122499000D01*
X144811357Y-122546619D01*
X144763738Y-122499000D01*
X144811357Y-122451380D01*
X144811357Y-122546619D01*
X144478023Y-122784714D02*
X144097071Y-122784714D01*
X144335166Y-122451380D02*
X144335166Y-123308523D01*
X144287547Y-123403761D01*
X144192309Y-123451380D01*
X144097071Y-123451380D01*
X143335166Y-123403761D02*
X143430404Y-123451380D01*
X143620880Y-123451380D01*
X143716119Y-123403761D01*
X143763738Y-123356142D01*
X143811357Y-123260904D01*
X143811357Y-122975190D01*
X143763738Y-122879952D01*
X143716119Y-122832333D01*
X143620880Y-122784714D01*
X143430404Y-122784714D01*
X143335166Y-122832333D01*
X142906595Y-123451380D02*
X142906595Y-122451380D01*
X142478023Y-123451380D02*
X142478023Y-122927571D01*
X142525642Y-122832333D01*
X142620880Y-122784714D01*
X142763738Y-122784714D01*
X142858976Y-122832333D01*
X142906595Y-122879952D01*
X141382785Y-122784714D02*
X141001833Y-122784714D01*
X141239928Y-123451380D02*
X141239928Y-122594238D01*
X141192309Y-122499000D01*
X141097071Y-122451380D01*
X141001833Y-122451380D01*
X140525642Y-123451380D02*
X140620880Y-123403761D01*
X140668500Y-123356142D01*
X140716119Y-123260904D01*
X140716119Y-122975190D01*
X140668500Y-122879952D01*
X140620880Y-122832333D01*
X140525642Y-122784714D01*
X140382785Y-122784714D01*
X140287547Y-122832333D01*
X140239928Y-122879952D01*
X140192309Y-122975190D01*
X140192309Y-123260904D01*
X140239928Y-123356142D01*
X140287547Y-123403761D01*
X140382785Y-123451380D01*
X140525642Y-123451380D01*
X139763738Y-123451380D02*
X139763738Y-122784714D01*
X139763738Y-122975190D02*
X139716119Y-122879952D01*
X139668500Y-122832333D01*
X139573261Y-122784714D01*
X139478023Y-122784714D01*
X138525642Y-122784714D02*
X138144690Y-122784714D01*
X138382785Y-122451380D02*
X138382785Y-123308523D01*
X138335166Y-123403761D01*
X138239928Y-123451380D01*
X138144690Y-123451380D01*
X137811357Y-123451380D02*
X137811357Y-122451380D01*
X137382785Y-123451380D02*
X137382785Y-122927571D01*
X137430404Y-122832333D01*
X137525642Y-122784714D01*
X137668500Y-122784714D01*
X137763738Y-122832333D01*
X137811357Y-122879952D01*
X136525642Y-123403761D02*
X136620880Y-123451380D01*
X136811357Y-123451380D01*
X136906595Y-123403761D01*
X136954214Y-123308523D01*
X136954214Y-122927571D01*
X136906595Y-122832333D01*
X136811357Y-122784714D01*
X136620880Y-122784714D01*
X136525642Y-122832333D01*
X136478023Y-122927571D01*
X136478023Y-123022809D01*
X136954214Y-123118047D01*
X134858976Y-123451380D02*
X134858976Y-122451380D01*
X134858976Y-123403761D02*
X134954214Y-123451380D01*
X135144690Y-123451380D01*
X135239928Y-123403761D01*
X135287547Y-123356142D01*
X135335166Y-123260904D01*
X135335166Y-122975190D01*
X135287547Y-122879952D01*
X135239928Y-122832333D01*
X135144690Y-122784714D01*
X134954214Y-122784714D01*
X134858976Y-122832333D01*
X134001833Y-123403761D02*
X134097071Y-123451380D01*
X134287547Y-123451380D01*
X134382785Y-123403761D01*
X134430404Y-123308523D01*
X134430404Y-122927571D01*
X134382785Y-122832333D01*
X134287547Y-122784714D01*
X134097071Y-122784714D01*
X134001833Y-122832333D01*
X133954214Y-122927571D01*
X133954214Y-123022809D01*
X134430404Y-123118047D01*
X133620880Y-122784714D02*
X133382785Y-123451380D01*
X133144690Y-122784714D01*
X132763738Y-123451380D02*
X132763738Y-122784714D01*
X132763738Y-122451380D02*
X132811357Y-122499000D01*
X132763738Y-122546619D01*
X132716119Y-122499000D01*
X132763738Y-122451380D01*
X132763738Y-122546619D01*
X131858976Y-123403761D02*
X131954214Y-123451380D01*
X132144690Y-123451380D01*
X132239928Y-123403761D01*
X132287547Y-123356142D01*
X132335166Y-123260904D01*
X132335166Y-122975190D01*
X132287547Y-122879952D01*
X132239928Y-122832333D01*
X132144690Y-122784714D01*
X131954214Y-122784714D01*
X131858976Y-122832333D01*
X131049452Y-123403761D02*
X131144690Y-123451380D01*
X131335166Y-123451380D01*
X131430404Y-123403761D01*
X131478023Y-123308523D01*
X131478023Y-122927571D01*
X131430404Y-122832333D01*
X131335166Y-122784714D01*
X131144690Y-122784714D01*
X131049452Y-122832333D01*
X131001833Y-122927571D01*
X131001833Y-123022809D01*
X131478023Y-123118047D01*
X129954214Y-122784714D02*
X129573261Y-122784714D01*
X129811357Y-122451380D02*
X129811357Y-123308523D01*
X129763738Y-123403761D01*
X129668500Y-123451380D01*
X129573261Y-123451380D01*
X129097071Y-123451380D02*
X129192309Y-123403761D01*
X129239928Y-123356142D01*
X129287547Y-123260904D01*
X129287547Y-122975190D01*
X129239928Y-122879952D01*
X129192309Y-122832333D01*
X129097071Y-122784714D01*
X128954214Y-122784714D01*
X128858976Y-122832333D01*
X128811357Y-122879952D01*
X128763738Y-122975190D01*
X128763738Y-123260904D01*
X128811357Y-123356142D01*
X128858976Y-123403761D01*
X128954214Y-123451380D01*
X129097071Y-123451380D01*
X127573261Y-123451380D02*
X127573261Y-122451380D01*
X127573261Y-122832333D02*
X127478023Y-122784714D01*
X127287547Y-122784714D01*
X127192309Y-122832333D01*
X127144690Y-122879952D01*
X127097071Y-122975190D01*
X127097071Y-123260904D01*
X127144690Y-123356142D01*
X127192309Y-123403761D01*
X127287547Y-123451380D01*
X127478023Y-123451380D01*
X127573261Y-123403761D01*
X126287547Y-123403761D02*
X126382785Y-123451380D01*
X126573261Y-123451380D01*
X126668500Y-123403761D01*
X126716119Y-123308523D01*
X126716119Y-122927571D01*
X126668500Y-122832333D01*
X126573261Y-122784714D01*
X126382785Y-122784714D01*
X126287547Y-122832333D01*
X126239928Y-122927571D01*
X126239928Y-123022809D01*
X126716119Y-123118047D01*
X125049452Y-122784714D02*
X125049452Y-123784714D01*
X125049452Y-122832333D02*
X124954214Y-122784714D01*
X124763738Y-122784714D01*
X124668500Y-122832333D01*
X124620880Y-122879952D01*
X124573261Y-122975190D01*
X124573261Y-123260904D01*
X124620880Y-123356142D01*
X124668500Y-123403761D01*
X124763738Y-123451380D01*
X124954214Y-123451380D01*
X125049452Y-123403761D01*
X124144690Y-123451380D02*
X124144690Y-122784714D01*
X124144690Y-122975190D02*
X124097071Y-122879952D01*
X124049452Y-122832333D01*
X123954214Y-122784714D01*
X123858976Y-122784714D01*
X123382785Y-123451380D02*
X123478023Y-123403761D01*
X123525642Y-123356142D01*
X123573261Y-123260904D01*
X123573261Y-122975190D01*
X123525642Y-122879952D01*
X123478023Y-122832333D01*
X123382785Y-122784714D01*
X123239928Y-122784714D01*
X123144690Y-122832333D01*
X123097071Y-122879952D01*
X123049452Y-122975190D01*
X123049452Y-123260904D01*
X123097071Y-123356142D01*
X123144690Y-123403761D01*
X123239928Y-123451380D01*
X123382785Y-123451380D01*
X122192309Y-122784714D02*
X122192309Y-123594238D01*
X122239928Y-123689476D01*
X122287547Y-123737095D01*
X122382785Y-123784714D01*
X122525642Y-123784714D01*
X122620880Y-123737095D01*
X122192309Y-123403761D02*
X122287547Y-123451380D01*
X122478023Y-123451380D01*
X122573261Y-123403761D01*
X122620880Y-123356142D01*
X122668500Y-123260904D01*
X122668500Y-122975190D01*
X122620880Y-122879952D01*
X122573261Y-122832333D01*
X122478023Y-122784714D01*
X122287547Y-122784714D01*
X122192309Y-122832333D01*
X121716119Y-123451380D02*
X121716119Y-122784714D01*
X121716119Y-122975190D02*
X121668500Y-122879952D01*
X121620880Y-122832333D01*
X121525642Y-122784714D01*
X121430404Y-122784714D01*
X120668500Y-123451380D02*
X120668500Y-122927571D01*
X120716119Y-122832333D01*
X120811357Y-122784714D01*
X121001833Y-122784714D01*
X121097071Y-122832333D01*
X120668500Y-123403761D02*
X120763738Y-123451380D01*
X121001833Y-123451380D01*
X121097071Y-123403761D01*
X121144690Y-123308523D01*
X121144690Y-123213285D01*
X121097071Y-123118047D01*
X121001833Y-123070428D01*
X120763738Y-123070428D01*
X120668500Y-123022809D01*
X120192309Y-123451380D02*
X120192309Y-122784714D01*
X120192309Y-122879952D02*
X120144690Y-122832333D01*
X120049452Y-122784714D01*
X119906595Y-122784714D01*
X119811357Y-122832333D01*
X119763738Y-122927571D01*
X119763738Y-123451380D01*
X119763738Y-122927571D02*
X119716119Y-122832333D01*
X119620880Y-122784714D01*
X119478023Y-122784714D01*
X119382785Y-122832333D01*
X119335166Y-122927571D01*
X119335166Y-123451380D01*
X118858976Y-123451380D02*
X118858976Y-122784714D01*
X118858976Y-122879952D02*
X118811357Y-122832333D01*
X118716119Y-122784714D01*
X118573261Y-122784714D01*
X118478023Y-122832333D01*
X118430404Y-122927571D01*
X118430404Y-123451380D01*
X118430404Y-122927571D02*
X118382785Y-122832333D01*
X118287547Y-122784714D01*
X118144690Y-122784714D01*
X118049452Y-122832333D01*
X118001833Y-122927571D01*
X118001833Y-123451380D01*
X117144690Y-123403761D02*
X117239928Y-123451380D01*
X117430404Y-123451380D01*
X117525642Y-123403761D01*
X117573261Y-123308523D01*
X117573261Y-122927571D01*
X117525642Y-122832333D01*
X117430404Y-122784714D01*
X117239928Y-122784714D01*
X117144690Y-122832333D01*
X117097071Y-122927571D01*
X117097071Y-123022809D01*
X117573261Y-123118047D01*
X116239928Y-123451380D02*
X116239928Y-122451380D01*
X116239928Y-123403761D02*
X116335166Y-123451380D01*
X116525642Y-123451380D01*
X116620880Y-123403761D01*
X116668500Y-123356142D01*
X116716119Y-123260904D01*
X116716119Y-122975190D01*
X116668500Y-122879952D01*
X116620880Y-122832333D01*
X116525642Y-122784714D01*
X116335166Y-122784714D01*
X116239928Y-122832333D01*
X115763738Y-123356142D02*
X115716119Y-123403761D01*
X115763738Y-123451380D01*
X115811357Y-123403761D01*
X115763738Y-123356142D01*
X115763738Y-123451380D01*
X159525642Y-124101380D02*
X158906595Y-124101380D01*
X159239928Y-124482333D01*
X159097071Y-124482333D01*
X159001833Y-124529952D01*
X158954214Y-124577571D01*
X158906595Y-124672809D01*
X158906595Y-124910904D01*
X158954214Y-125006142D01*
X159001833Y-125053761D01*
X159097071Y-125101380D01*
X159382785Y-125101380D01*
X159478023Y-125053761D01*
X159525642Y-125006142D01*
X158478023Y-125006142D02*
X158430404Y-125053761D01*
X158478023Y-125101380D01*
X158525642Y-125053761D01*
X158478023Y-125006142D01*
X158478023Y-125101380D01*
X157287547Y-125053761D02*
X157144690Y-125101380D01*
X156906595Y-125101380D01*
X156811357Y-125053761D01*
X156763738Y-125006142D01*
X156716119Y-124910904D01*
X156716119Y-124815666D01*
X156763738Y-124720428D01*
X156811357Y-124672809D01*
X156906595Y-124625190D01*
X157097071Y-124577571D01*
X157192309Y-124529952D01*
X157239928Y-124482333D01*
X157287547Y-124387095D01*
X157287547Y-124291857D01*
X157239928Y-124196619D01*
X157192309Y-124149000D01*
X157097071Y-124101380D01*
X156858976Y-124101380D01*
X156716119Y-124149000D01*
X155906595Y-125053761D02*
X156001833Y-125101380D01*
X156192309Y-125101380D01*
X156287547Y-125053761D01*
X156335166Y-124958523D01*
X156335166Y-124577571D01*
X156287547Y-124482333D01*
X156192309Y-124434714D01*
X156001833Y-124434714D01*
X155906595Y-124482333D01*
X155858976Y-124577571D01*
X155858976Y-124672809D01*
X156335166Y-124768047D01*
X155573261Y-124434714D02*
X155192309Y-124434714D01*
X155430404Y-124101380D02*
X155430404Y-124958523D01*
X155382785Y-125053761D01*
X155287547Y-125101380D01*
X155192309Y-125101380D01*
X154239928Y-124434714D02*
X153858976Y-124434714D01*
X154097071Y-124101380D02*
X154097071Y-124958523D01*
X154049452Y-125053761D01*
X153954214Y-125101380D01*
X153858976Y-125101380D01*
X153525642Y-125101380D02*
X153525642Y-124101380D01*
X153097071Y-125101380D02*
X153097071Y-124577571D01*
X153144690Y-124482333D01*
X153239928Y-124434714D01*
X153382785Y-124434714D01*
X153478023Y-124482333D01*
X153525642Y-124529952D01*
X152239928Y-125053761D02*
X152335166Y-125101380D01*
X152525642Y-125101380D01*
X152620880Y-125053761D01*
X152668499Y-124958523D01*
X152668499Y-124577571D01*
X152620880Y-124482333D01*
X152525642Y-124434714D01*
X152335166Y-124434714D01*
X152239928Y-124482333D01*
X152192309Y-124577571D01*
X152192309Y-124672809D01*
X152668499Y-124768047D01*
X151001833Y-125101380D02*
X151001833Y-124434714D01*
X151001833Y-124625190D02*
X150954214Y-124529952D01*
X150906595Y-124482333D01*
X150811357Y-124434714D01*
X150716119Y-124434714D01*
X150239928Y-125101380D02*
X150335166Y-125053761D01*
X150382785Y-125006142D01*
X150430404Y-124910904D01*
X150430404Y-124625190D01*
X150382785Y-124529952D01*
X150335166Y-124482333D01*
X150239928Y-124434714D01*
X150097071Y-124434714D01*
X150001833Y-124482333D01*
X149954214Y-124529952D01*
X149906595Y-124625190D01*
X149906595Y-124910904D01*
X149954214Y-125006142D01*
X150001833Y-125053761D01*
X150097071Y-125101380D01*
X150239928Y-125101380D01*
X149620880Y-124434714D02*
X149239928Y-124434714D01*
X149478023Y-124101380D02*
X149478023Y-124958523D01*
X149430404Y-125053761D01*
X149335166Y-125101380D01*
X149239928Y-125101380D01*
X148478023Y-125101380D02*
X148478023Y-124577571D01*
X148525642Y-124482333D01*
X148620880Y-124434714D01*
X148811357Y-124434714D01*
X148906595Y-124482333D01*
X148478023Y-125053761D02*
X148573261Y-125101380D01*
X148811357Y-125101380D01*
X148906595Y-125053761D01*
X148954214Y-124958523D01*
X148954214Y-124863285D01*
X148906595Y-124768047D01*
X148811357Y-124720428D01*
X148573261Y-124720428D01*
X148478023Y-124672809D01*
X148001833Y-125101380D02*
X148001833Y-124434714D01*
X148001833Y-124625190D02*
X147954214Y-124529952D01*
X147906595Y-124482333D01*
X147811357Y-124434714D01*
X147716119Y-124434714D01*
X147478023Y-124434714D02*
X147239928Y-125101380D01*
X147001833Y-124434714D02*
X147239928Y-125101380D01*
X147335166Y-125339476D01*
X147382785Y-125387095D01*
X147478023Y-125434714D01*
X145906595Y-125053761D02*
X145811357Y-125101380D01*
X145620880Y-125101380D01*
X145525642Y-125053761D01*
X145478023Y-124958523D01*
X145478023Y-124910904D01*
X145525642Y-124815666D01*
X145620880Y-124768047D01*
X145763738Y-124768047D01*
X145858976Y-124720428D01*
X145906595Y-124625190D01*
X145906595Y-124577571D01*
X145858976Y-124482333D01*
X145763738Y-124434714D01*
X145620880Y-124434714D01*
X145525642Y-124482333D01*
X145144690Y-124434714D02*
X144954214Y-125101380D01*
X144763738Y-124625190D01*
X144573261Y-125101380D01*
X144382785Y-124434714D01*
X144001833Y-125101380D02*
X144001833Y-124434714D01*
X144001833Y-124101380D02*
X144049452Y-124149000D01*
X144001833Y-124196619D01*
X143954214Y-124149000D01*
X144001833Y-124101380D01*
X144001833Y-124196619D01*
X143668499Y-124434714D02*
X143287547Y-124434714D01*
X143525642Y-124101380D02*
X143525642Y-124958523D01*
X143478023Y-125053761D01*
X143382785Y-125101380D01*
X143287547Y-125101380D01*
X142525642Y-125053761D02*
X142620880Y-125101380D01*
X142811357Y-125101380D01*
X142906595Y-125053761D01*
X142954214Y-125006142D01*
X143001833Y-124910904D01*
X143001833Y-124625190D01*
X142954214Y-124529952D01*
X142906595Y-124482333D01*
X142811357Y-124434714D01*
X142620880Y-124434714D01*
X142525642Y-124482333D01*
X142097071Y-125101380D02*
X142097071Y-124101380D01*
X141668499Y-125101380D02*
X141668499Y-124577571D01*
X141716119Y-124482333D01*
X141811357Y-124434714D01*
X141954214Y-124434714D01*
X142049452Y-124482333D01*
X142097071Y-124529952D01*
X140573261Y-124434714D02*
X140192309Y-124434714D01*
X140430404Y-125101380D02*
X140430404Y-124244238D01*
X140382785Y-124149000D01*
X140287547Y-124101380D01*
X140192309Y-124101380D01*
X139716119Y-125101380D02*
X139811357Y-125053761D01*
X139858976Y-125006142D01*
X139906595Y-124910904D01*
X139906595Y-124625190D01*
X139858976Y-124529952D01*
X139811357Y-124482333D01*
X139716119Y-124434714D01*
X139573261Y-124434714D01*
X139478023Y-124482333D01*
X139430404Y-124529952D01*
X139382785Y-124625190D01*
X139382785Y-124910904D01*
X139430404Y-125006142D01*
X139478023Y-125053761D01*
X139573261Y-125101380D01*
X139716119Y-125101380D01*
X138954214Y-125101380D02*
X138954214Y-124434714D01*
X138954214Y-124625190D02*
X138906595Y-124529952D01*
X138858976Y-124482333D01*
X138763738Y-124434714D01*
X138668500Y-124434714D01*
X137716119Y-124434714D02*
X137335166Y-124434714D01*
X137573261Y-124101380D02*
X137573261Y-124958523D01*
X137525642Y-125053761D01*
X137430404Y-125101380D01*
X137335166Y-125101380D01*
X137001833Y-125101380D02*
X137001833Y-124101380D01*
X136573261Y-125101380D02*
X136573261Y-124577571D01*
X136620880Y-124482333D01*
X136716119Y-124434714D01*
X136858976Y-124434714D01*
X136954214Y-124482333D01*
X137001833Y-124529952D01*
X135716119Y-125053761D02*
X135811357Y-125101380D01*
X136001833Y-125101380D01*
X136097071Y-125053761D01*
X136144690Y-124958523D01*
X136144690Y-124577571D01*
X136097071Y-124482333D01*
X136001833Y-124434714D01*
X135811357Y-124434714D01*
X135716119Y-124482333D01*
X135668500Y-124577571D01*
X135668500Y-124672809D01*
X136144690Y-124768047D01*
X134001833Y-124101380D02*
X134478023Y-124101380D01*
X134525642Y-124577571D01*
X134478023Y-124529952D01*
X134382785Y-124482333D01*
X134144690Y-124482333D01*
X134049452Y-124529952D01*
X134001833Y-124577571D01*
X133954214Y-124672809D01*
X133954214Y-124910904D01*
X134001833Y-125006142D01*
X134049452Y-125053761D01*
X134144690Y-125101380D01*
X134382785Y-125101380D01*
X134478023Y-125053761D01*
X134525642Y-125006142D01*
X133001833Y-125101380D02*
X133573261Y-125101380D01*
X133287547Y-125101380D02*
X133287547Y-124101380D01*
X133382785Y-124244238D01*
X133478023Y-124339476D01*
X133573261Y-124387095D01*
X132620880Y-124196619D02*
X132573261Y-124149000D01*
X132478023Y-124101380D01*
X132239928Y-124101380D01*
X132144690Y-124149000D01*
X132097071Y-124196619D01*
X132049452Y-124291857D01*
X132049452Y-124387095D01*
X132097071Y-124529952D01*
X132668499Y-125101380D01*
X132049452Y-125101380D01*
X131620880Y-125101380D02*
X131620880Y-124101380D01*
X131525642Y-124720428D02*
X131239928Y-125101380D01*
X131239928Y-124434714D02*
X131620880Y-124815666D01*
X130478023Y-124577571D02*
X130335166Y-124625190D01*
X130287547Y-124672809D01*
X130239928Y-124768047D01*
X130239928Y-124910904D01*
X130287547Y-125006142D01*
X130335166Y-125053761D01*
X130430404Y-125101380D01*
X130811357Y-125101380D01*
X130811357Y-124101380D01*
X130478023Y-124101380D01*
X130382785Y-124149000D01*
X130335166Y-124196619D01*
X130287547Y-124291857D01*
X130287547Y-124387095D01*
X130335166Y-124482333D01*
X130382785Y-124529952D01*
X130478023Y-124577571D01*
X130811357Y-124577571D01*
X129049452Y-125101380D02*
X129049452Y-124101380D01*
X129049452Y-124482333D02*
X128954214Y-124434714D01*
X128763738Y-124434714D01*
X128668500Y-124482333D01*
X128620880Y-124529952D01*
X128573261Y-124625190D01*
X128573261Y-124910904D01*
X128620880Y-125006142D01*
X128668500Y-125053761D01*
X128763738Y-125101380D01*
X128954214Y-125101380D01*
X129049452Y-125053761D01*
X127716119Y-125101380D02*
X127716119Y-124577571D01*
X127763738Y-124482333D01*
X127858976Y-124434714D01*
X128049452Y-124434714D01*
X128144690Y-124482333D01*
X127716119Y-125053761D02*
X127811357Y-125101380D01*
X128049452Y-125101380D01*
X128144690Y-125053761D01*
X128192309Y-124958523D01*
X128192309Y-124863285D01*
X128144690Y-124768047D01*
X128049452Y-124720428D01*
X127811357Y-124720428D01*
X127716119Y-124672809D01*
X127239928Y-124434714D02*
X127239928Y-125101380D01*
X127239928Y-124529952D02*
X127192309Y-124482333D01*
X127097071Y-124434714D01*
X126954214Y-124434714D01*
X126858976Y-124482333D01*
X126811357Y-124577571D01*
X126811357Y-125101380D01*
X126335166Y-125101380D02*
X126335166Y-124101380D01*
X126239928Y-124720428D02*
X125954214Y-125101380D01*
X125954214Y-124434714D02*
X126335166Y-124815666D01*
X124906595Y-124434714D02*
X124525642Y-124434714D01*
X124763738Y-124101380D02*
X124763738Y-124958523D01*
X124716119Y-125053761D01*
X124620880Y-125101380D01*
X124525642Y-125101380D01*
X124049452Y-125101380D02*
X124144690Y-125053761D01*
X124192309Y-125006142D01*
X124239928Y-124910904D01*
X124239928Y-124625190D01*
X124192309Y-124529952D01*
X124144690Y-124482333D01*
X124049452Y-124434714D01*
X123906595Y-124434714D01*
X123811357Y-124482333D01*
X123763738Y-124529952D01*
X123716119Y-124625190D01*
X123716119Y-124910904D01*
X123763738Y-125006142D01*
X123811357Y-125053761D01*
X123906595Y-125101380D01*
X124049452Y-125101380D01*
X122097071Y-125101380D02*
X122097071Y-124577571D01*
X122144690Y-124482333D01*
X122239928Y-124434714D01*
X122430404Y-124434714D01*
X122525642Y-124482333D01*
X122097071Y-125053761D02*
X122192309Y-125101380D01*
X122430404Y-125101380D01*
X122525642Y-125053761D01*
X122573261Y-124958523D01*
X122573261Y-124863285D01*
X122525642Y-124768047D01*
X122430404Y-124720428D01*
X122192309Y-124720428D01*
X122097071Y-124672809D01*
X121192309Y-125053761D02*
X121287547Y-125101380D01*
X121478023Y-125101380D01*
X121573261Y-125053761D01*
X121620880Y-125006142D01*
X121668499Y-124910904D01*
X121668499Y-124625190D01*
X121620880Y-124529952D01*
X121573261Y-124482333D01*
X121478023Y-124434714D01*
X121287547Y-124434714D01*
X121192309Y-124482333D01*
X120335166Y-125053761D02*
X120430404Y-125101380D01*
X120620880Y-125101380D01*
X120716119Y-125053761D01*
X120763738Y-125006142D01*
X120811357Y-124910904D01*
X120811357Y-124625190D01*
X120763738Y-124529952D01*
X120716119Y-124482333D01*
X120620880Y-124434714D01*
X120430404Y-124434714D01*
X120335166Y-124482333D01*
X119525642Y-125053761D02*
X119620880Y-125101380D01*
X119811357Y-125101380D01*
X119906595Y-125053761D01*
X119954214Y-124958523D01*
X119954214Y-124577571D01*
X119906595Y-124482333D01*
X119811357Y-124434714D01*
X119620880Y-124434714D01*
X119525642Y-124482333D01*
X119478023Y-124577571D01*
X119478023Y-124672809D01*
X119954214Y-124768047D01*
X119097071Y-125053761D02*
X119001833Y-125101380D01*
X118811357Y-125101380D01*
X118716119Y-125053761D01*
X118668499Y-124958523D01*
X118668499Y-124910904D01*
X118716119Y-124815666D01*
X118811357Y-124768047D01*
X118954214Y-124768047D01*
X119049452Y-124720428D01*
X119097071Y-124625190D01*
X119097071Y-124577571D01*
X119049452Y-124482333D01*
X118954214Y-124434714D01*
X118811357Y-124434714D01*
X118716119Y-124482333D01*
X118287547Y-125053761D02*
X118192309Y-125101380D01*
X118001833Y-125101380D01*
X117906595Y-125053761D01*
X117858976Y-124958523D01*
X117858976Y-124910904D01*
X117906595Y-124815666D01*
X118001833Y-124768047D01*
X118144690Y-124768047D01*
X118239928Y-124720428D01*
X118287547Y-124625190D01*
X118287547Y-124577571D01*
X118239928Y-124482333D01*
X118144690Y-124434714D01*
X118001833Y-124434714D01*
X117906595Y-124482333D01*
X117430404Y-125006142D02*
X117382785Y-125053761D01*
X117430404Y-125101380D01*
X117478023Y-125053761D01*
X117430404Y-125006142D01*
X117430404Y-125101380D01*
X117430404Y-124482333D02*
X117382785Y-124529952D01*
X117430404Y-124577571D01*
X117478023Y-124529952D01*
X117430404Y-124482333D01*
X117430404Y-124577571D01*
X155954214Y-126084714D02*
X155954214Y-126751380D01*
X156192309Y-125703761D02*
X156430404Y-126418047D01*
X155811357Y-126418047D01*
X155239928Y-125751380D02*
X155144690Y-125751380D01*
X155049452Y-125799000D01*
X155001833Y-125846619D01*
X154954214Y-125941857D01*
X154906595Y-126132333D01*
X154906595Y-126370428D01*
X154954214Y-126560904D01*
X155001833Y-126656142D01*
X155049452Y-126703761D01*
X155144690Y-126751380D01*
X155239928Y-126751380D01*
X155335166Y-126703761D01*
X155382785Y-126656142D01*
X155430404Y-126560904D01*
X155478023Y-126370428D01*
X155478023Y-126132333D01*
X155430404Y-125941857D01*
X155382785Y-125846619D01*
X155335166Y-125799000D01*
X155239928Y-125751380D01*
X154287547Y-125751380D02*
X154192309Y-125751380D01*
X154097071Y-125799000D01*
X154049452Y-125846619D01*
X154001833Y-125941857D01*
X153954214Y-126132333D01*
X153954214Y-126370428D01*
X154001833Y-126560904D01*
X154049452Y-126656142D01*
X154097071Y-126703761D01*
X154192309Y-126751380D01*
X154287547Y-126751380D01*
X154382785Y-126703761D01*
X154430404Y-126656142D01*
X154478023Y-126560904D01*
X154525642Y-126370428D01*
X154525642Y-126132333D01*
X154478023Y-125941857D01*
X154430404Y-125846619D01*
X154382785Y-125799000D01*
X154287547Y-125751380D01*
X153525642Y-126656142D02*
X153478023Y-126703761D01*
X153525642Y-126751380D01*
X153573261Y-126703761D01*
X153525642Y-126656142D01*
X153525642Y-126751380D01*
X153525642Y-126132333D02*
X153478023Y-126179952D01*
X153525642Y-126227571D01*
X153573261Y-126179952D01*
X153525642Y-126132333D01*
X153525642Y-126227571D01*
X152287547Y-126084714D02*
X152287547Y-126751380D01*
X152287547Y-126179952D02*
X152239928Y-126132333D01*
X152144690Y-126084714D01*
X152001833Y-126084714D01*
X151906595Y-126132333D01*
X151858976Y-126227571D01*
X151858976Y-126751380D01*
X151239928Y-126751380D02*
X151335166Y-126703761D01*
X151382785Y-126656142D01*
X151430404Y-126560904D01*
X151430404Y-126275190D01*
X151382785Y-126179952D01*
X151335166Y-126132333D01*
X151239928Y-126084714D01*
X151097071Y-126084714D01*
X151001833Y-126132333D01*
X150954214Y-126179952D01*
X150906595Y-126275190D01*
X150906595Y-126560904D01*
X150954214Y-126656142D01*
X151001833Y-126703761D01*
X151097071Y-126751380D01*
X151239928Y-126751380D01*
X150478023Y-126084714D02*
X150478023Y-126751380D01*
X150478023Y-126179952D02*
X150430404Y-126132333D01*
X150335166Y-126084714D01*
X150192309Y-126084714D01*
X150097071Y-126132333D01*
X150049452Y-126227571D01*
X150049452Y-126751380D01*
X149192309Y-126703761D02*
X149287547Y-126751380D01*
X149478023Y-126751380D01*
X149573261Y-126703761D01*
X149620880Y-126608523D01*
X149620880Y-126227571D01*
X149573261Y-126132333D01*
X149478023Y-126084714D01*
X149287547Y-126084714D01*
X149192309Y-126132333D01*
X149144690Y-126227571D01*
X149144690Y-126322809D01*
X149620880Y-126418047D01*
X148668500Y-126703761D02*
X148668500Y-126751380D01*
X148716119Y-126846619D01*
X148763738Y-126894238D01*
X146573261Y-126179952D02*
X146668500Y-126132333D01*
X146716119Y-126084714D01*
X146763738Y-125989476D01*
X146763738Y-125941857D01*
X146716119Y-125846619D01*
X146668500Y-125799000D01*
X146573261Y-125751380D01*
X146382785Y-125751380D01*
X146287547Y-125799000D01*
X146239928Y-125846619D01*
X146192309Y-125941857D01*
X146192309Y-125989476D01*
X146239928Y-126084714D01*
X146287547Y-126132333D01*
X146382785Y-126179952D01*
X146573261Y-126179952D01*
X146668500Y-126227571D01*
X146716119Y-126275190D01*
X146763738Y-126370428D01*
X146763738Y-126560904D01*
X146716119Y-126656142D01*
X146668500Y-126703761D01*
X146573261Y-126751380D01*
X146382785Y-126751380D01*
X146287547Y-126703761D01*
X146239928Y-126656142D01*
X146192309Y-126560904D01*
X146192309Y-126370428D01*
X146239928Y-126275190D01*
X146287547Y-126227571D01*
X146382785Y-126179952D01*
X145573261Y-125751380D02*
X145478023Y-125751380D01*
X145382785Y-125799000D01*
X145335166Y-125846619D01*
X145287547Y-125941857D01*
X145239928Y-126132333D01*
X145239928Y-126370428D01*
X145287547Y-126560904D01*
X145335166Y-126656142D01*
X145382785Y-126703761D01*
X145478023Y-126751380D01*
X145573261Y-126751380D01*
X145668500Y-126703761D01*
X145716119Y-126656142D01*
X145763738Y-126560904D01*
X145811357Y-126370428D01*
X145811357Y-126132333D01*
X145763738Y-125941857D01*
X145716119Y-125846619D01*
X145668500Y-125799000D01*
X145573261Y-125751380D01*
X144620880Y-125751380D02*
X144525642Y-125751380D01*
X144430404Y-125799000D01*
X144382785Y-125846619D01*
X144335166Y-125941857D01*
X144287547Y-126132333D01*
X144287547Y-126370428D01*
X144335166Y-126560904D01*
X144382785Y-126656142D01*
X144430404Y-126703761D01*
X144525642Y-126751380D01*
X144620880Y-126751380D01*
X144716119Y-126703761D01*
X144763738Y-126656142D01*
X144811357Y-126560904D01*
X144858976Y-126370428D01*
X144858976Y-126132333D01*
X144811357Y-125941857D01*
X144763738Y-125846619D01*
X144716119Y-125799000D01*
X144620880Y-125751380D01*
X143858976Y-126656142D02*
X143811357Y-126703761D01*
X143858976Y-126751380D01*
X143906595Y-126703761D01*
X143858976Y-126656142D01*
X143858976Y-126751380D01*
X143858976Y-126132333D02*
X143811357Y-126179952D01*
X143858976Y-126227571D01*
X143906595Y-126179952D01*
X143858976Y-126132333D01*
X143858976Y-126227571D01*
X142430404Y-125751380D02*
X142335166Y-125751380D01*
X142239928Y-125799000D01*
X142192309Y-125846619D01*
X142144690Y-125941857D01*
X142097071Y-126132333D01*
X142097071Y-126370428D01*
X142144690Y-126560904D01*
X142192309Y-126656142D01*
X142239928Y-126703761D01*
X142335166Y-126751380D01*
X142430404Y-126751380D01*
X142525642Y-126703761D01*
X142573261Y-126656142D01*
X142620880Y-126560904D01*
X142668500Y-126370428D01*
X142668500Y-126132333D01*
X142620880Y-125941857D01*
X142573261Y-125846619D01*
X142525642Y-125799000D01*
X142430404Y-125751380D01*
X141668500Y-126370428D02*
X140906595Y-126370428D01*
X139906595Y-126751380D02*
X140478023Y-126751380D01*
X140192309Y-126751380D02*
X140192309Y-125751380D01*
X140287547Y-125894238D01*
X140382785Y-125989476D01*
X140478023Y-126037095D01*
X139430404Y-126703761D02*
X139430404Y-126751380D01*
X139478023Y-126846619D01*
X139525642Y-126894238D01*
X136954214Y-126751380D02*
X137525642Y-126751380D01*
X137239928Y-126751380D02*
X137239928Y-125751380D01*
X137335166Y-125894238D01*
X137430404Y-125989476D01*
X137525642Y-126037095D01*
X136097071Y-125751380D02*
X136287547Y-125751380D01*
X136382785Y-125799000D01*
X136430404Y-125846619D01*
X136525642Y-125989476D01*
X136573261Y-126179952D01*
X136573261Y-126560904D01*
X136525642Y-126656142D01*
X136478023Y-126703761D01*
X136382785Y-126751380D01*
X136192309Y-126751380D01*
X136097071Y-126703761D01*
X136049452Y-126656142D01*
X136001833Y-126560904D01*
X136001833Y-126322809D01*
X136049452Y-126227571D01*
X136097071Y-126179952D01*
X136192309Y-126132333D01*
X136382785Y-126132333D01*
X136478023Y-126179952D01*
X136525642Y-126227571D01*
X136573261Y-126322809D01*
X135382785Y-125751380D02*
X135287547Y-125751380D01*
X135192309Y-125799000D01*
X135144690Y-125846619D01*
X135097071Y-125941857D01*
X135049452Y-126132333D01*
X135049452Y-126370428D01*
X135097071Y-126560904D01*
X135144690Y-126656142D01*
X135192309Y-126703761D01*
X135287547Y-126751380D01*
X135382785Y-126751380D01*
X135478023Y-126703761D01*
X135525642Y-126656142D01*
X135573261Y-126560904D01*
X135620880Y-126370428D01*
X135620880Y-126132333D01*
X135573261Y-125941857D01*
X135525642Y-125846619D01*
X135478023Y-125799000D01*
X135382785Y-125751380D01*
X134620880Y-126656142D02*
X134573261Y-126703761D01*
X134620880Y-126751380D01*
X134668500Y-126703761D01*
X134620880Y-126656142D01*
X134620880Y-126751380D01*
X134620880Y-126132333D02*
X134573261Y-126179952D01*
X134620880Y-126227571D01*
X134668500Y-126179952D01*
X134620880Y-126132333D01*
X134620880Y-126227571D01*
X133192309Y-125751380D02*
X133097071Y-125751380D01*
X133001833Y-125799000D01*
X132954214Y-125846619D01*
X132906595Y-125941857D01*
X132858976Y-126132333D01*
X132858976Y-126370428D01*
X132906595Y-126560904D01*
X132954214Y-126656142D01*
X133001833Y-126703761D01*
X133097071Y-126751380D01*
X133192309Y-126751380D01*
X133287547Y-126703761D01*
X133335166Y-126656142D01*
X133382785Y-126560904D01*
X133430404Y-126370428D01*
X133430404Y-126132333D01*
X133382785Y-125941857D01*
X133335166Y-125846619D01*
X133287547Y-125799000D01*
X133192309Y-125751380D01*
X132430404Y-126370428D02*
X131668500Y-126370428D01*
X131287547Y-125751380D02*
X130668500Y-125751380D01*
X131001833Y-126132333D01*
X130858976Y-126132333D01*
X130763738Y-126179952D01*
X130716119Y-126227571D01*
X130668500Y-126322809D01*
X130668500Y-126560904D01*
X130716119Y-126656142D01*
X130763738Y-126703761D01*
X130858976Y-126751380D01*
X131144690Y-126751380D01*
X131239928Y-126703761D01*
X131287547Y-126656142D01*
X130192309Y-126703761D02*
X130192309Y-126751380D01*
X130239928Y-126846619D01*
X130287547Y-126894238D01*
X128335166Y-125751380D02*
X127716119Y-125751380D01*
X128049452Y-126132333D01*
X127906595Y-126132333D01*
X127811357Y-126179952D01*
X127763738Y-126227571D01*
X127716119Y-126322809D01*
X127716119Y-126560904D01*
X127763738Y-126656142D01*
X127811357Y-126703761D01*
X127906595Y-126751380D01*
X128192309Y-126751380D01*
X128287547Y-126703761D01*
X128335166Y-126656142D01*
X127335166Y-125846619D02*
X127287547Y-125799000D01*
X127192309Y-125751380D01*
X126954214Y-125751380D01*
X126858976Y-125799000D01*
X126811357Y-125846619D01*
X126763738Y-125941857D01*
X126763738Y-126037095D01*
X126811357Y-126179952D01*
X127382785Y-126751380D01*
X126763738Y-126751380D01*
X126382785Y-125846619D02*
X126335166Y-125799000D01*
X126239928Y-125751380D01*
X126001833Y-125751380D01*
X125906595Y-125799000D01*
X125858976Y-125846619D01*
X125811357Y-125941857D01*
X125811357Y-126037095D01*
X125858976Y-126179952D01*
X126430404Y-126751380D01*
X125811357Y-126751380D01*
X125382785Y-126656142D02*
X125335166Y-126703761D01*
X125382785Y-126751380D01*
X125430404Y-126703761D01*
X125382785Y-126656142D01*
X125382785Y-126751380D01*
X125382785Y-126132333D02*
X125335166Y-126179952D01*
X125382785Y-126227571D01*
X125430404Y-126179952D01*
X125382785Y-126132333D01*
X125382785Y-126227571D01*
X123954214Y-125751380D02*
X123858976Y-125751380D01*
X123763738Y-125799000D01*
X123716119Y-125846619D01*
X123668500Y-125941857D01*
X123620880Y-126132333D01*
X123620880Y-126370428D01*
X123668500Y-126560904D01*
X123716119Y-126656142D01*
X123763738Y-126703761D01*
X123858976Y-126751380D01*
X123954214Y-126751380D01*
X124049452Y-126703761D01*
X124097071Y-126656142D01*
X124144690Y-126560904D01*
X124192309Y-126370428D01*
X124192309Y-126132333D01*
X124144690Y-125941857D01*
X124097071Y-125846619D01*
X124049452Y-125799000D01*
X123954214Y-125751380D01*
X123192309Y-126370428D02*
X122430404Y-126370428D01*
X122049452Y-125751380D02*
X121382785Y-125751380D01*
X121811357Y-126751380D01*
M02*
