%FSLAX45Y45*%
G04 Gerber Fmt 4.5, Leading zero omitted, Abs format (unit mm)*
G04 Created by KiCad (PCBNEW (5.1.6-0-10_14)) date 2021-01-24 22:43:54*
%MOMM*%
%LPD*%
G01*
G04 APERTURE LIST*
%TA.AperFunction,Profile*%
%ADD10C,0.100000*%
%TD*%
%ADD11C,0.200000*%
%ADD12C,0.300000*%
G04 APERTURE END LIST*
D10*
X13652500Y-4318000D02*
X16002000Y-4318000D01*
X11557000Y-6159500D02*
X13398500Y-6159500D01*
X16129000Y-4445000D02*
X16129000Y-12827000D01*
X13525500Y-6032500D02*
X13525500Y-4445000D01*
X13652500Y-4318000D02*
G75*
G03*
X13525500Y-4445000I0J-127000D01*
G01*
X16129000Y-4445000D02*
G75*
G03*
X16002000Y-4318000I-127000J0D01*
G01*
X11430000Y-12827000D02*
X11430000Y-6286500D01*
X11557000Y-12954000D02*
X16002000Y-12954000D01*
X11557000Y-6159500D02*
G75*
G03*
X11430000Y-6286500I0J-127000D01*
G01*
X13398500Y-6159500D02*
G75*
G03*
X13525500Y-6032500I0J127000D01*
G01*
X16002000Y-12954000D02*
G75*
G03*
X16129000Y-12827000I0J127000D01*
G01*
X11430000Y-12827000D02*
G75*
G03*
X11557000Y-12954000I127000J0D01*
G01*
D11*
D12*
X11711428Y-13424714D02*
X11711428Y-13124714D01*
X11782857Y-13124714D01*
X11825714Y-13139000D01*
X11854286Y-13167571D01*
X11868571Y-13196143D01*
X11882857Y-13253286D01*
X11882857Y-13296143D01*
X11868571Y-13353286D01*
X11854286Y-13381857D01*
X11825714Y-13410429D01*
X11782857Y-13424714D01*
X11711428Y-13424714D01*
X12011428Y-13424714D02*
X12011428Y-13224714D01*
X12011428Y-13281857D02*
X12025714Y-13253286D01*
X12040000Y-13239000D01*
X12068571Y-13224714D01*
X12097143Y-13224714D01*
X12197143Y-13424714D02*
X12197143Y-13224714D01*
X12197143Y-13124714D02*
X12182857Y-13139000D01*
X12197143Y-13153286D01*
X12211428Y-13139000D01*
X12197143Y-13124714D01*
X12197143Y-13153286D01*
X12382857Y-13424714D02*
X12354286Y-13410429D01*
X12340000Y-13381857D01*
X12340000Y-13124714D01*
X12540000Y-13424714D02*
X12511428Y-13410429D01*
X12497143Y-13381857D01*
X12497143Y-13124714D01*
X12882857Y-13424714D02*
X12882857Y-13124714D01*
X12982857Y-13339000D01*
X13082857Y-13124714D01*
X13082857Y-13424714D01*
X13354286Y-13424714D02*
X13354286Y-13267571D01*
X13340000Y-13239000D01*
X13311428Y-13224714D01*
X13254286Y-13224714D01*
X13225714Y-13239000D01*
X13354286Y-13410429D02*
X13325714Y-13424714D01*
X13254286Y-13424714D01*
X13225714Y-13410429D01*
X13211428Y-13381857D01*
X13211428Y-13353286D01*
X13225714Y-13324714D01*
X13254286Y-13310429D01*
X13325714Y-13310429D01*
X13354286Y-13296143D01*
X13497143Y-13224714D02*
X13497143Y-13524714D01*
X13497143Y-13239000D02*
X13525714Y-13224714D01*
X13582857Y-13224714D01*
X13611428Y-13239000D01*
X13625714Y-13253286D01*
X13640000Y-13281857D01*
X13640000Y-13367571D01*
X13625714Y-13396143D01*
X13611428Y-13410429D01*
X13582857Y-13424714D01*
X13525714Y-13424714D01*
X13497143Y-13410429D01*
X13768571Y-13396143D02*
X13782857Y-13410429D01*
X13768571Y-13424714D01*
X13754286Y-13410429D01*
X13768571Y-13396143D01*
X13768571Y-13424714D01*
X13768571Y-13239000D02*
X13782857Y-13253286D01*
X13768571Y-13267571D01*
X13754286Y-13253286D01*
X13768571Y-13239000D01*
X13768571Y-13267571D01*
M02*
