G04 #@! TF.GenerationSoftware,KiCad,Pcbnew,(5.1.6-0-10_14)*
G04 #@! TF.CreationDate,2021-01-24T22:58:42+01:00*
G04 #@! TF.ProjectId,27c322,32376333-3232-42e6-9b69-6361645f7063,rev?*
G04 #@! TF.SameCoordinates,Original*
G04 #@! TF.FileFunction,Soldermask,Top*
G04 #@! TF.FilePolarity,Negative*
%FSLAX46Y46*%
G04 Gerber Fmt 4.6, Leading zero omitted, Abs format (unit mm)*
G04 Created by KiCad (PCBNEW (5.1.6-0-10_14)) date 2021-01-24 22:58:42*
%MOMM*%
%LPD*%
G01*
G04 APERTURE LIST*
%ADD10C,0.100000*%
G04 APERTURE END LIST*
D10*
G36*
X124268352Y-116324743D02*
G01*
X124413942Y-116385048D01*
X124544971Y-116472599D01*
X124656402Y-116584030D01*
X124743953Y-116715059D01*
X124804258Y-116860649D01*
X124835001Y-117015206D01*
X124835001Y-117172794D01*
X124804258Y-117327351D01*
X124743953Y-117472941D01*
X124656402Y-117603970D01*
X124544971Y-117715401D01*
X124413942Y-117802952D01*
X124268352Y-117863257D01*
X124113795Y-117894000D01*
X123956207Y-117894000D01*
X123801650Y-117863257D01*
X123656060Y-117802952D01*
X123525031Y-117715401D01*
X123413600Y-117603970D01*
X123326049Y-117472941D01*
X123265744Y-117327351D01*
X123235001Y-117172794D01*
X123235001Y-117015206D01*
X123265744Y-116860649D01*
X123326049Y-116715059D01*
X123413600Y-116584030D01*
X123525031Y-116472599D01*
X123656060Y-116385048D01*
X123801650Y-116324743D01*
X123956207Y-116294000D01*
X124113795Y-116294000D01*
X124268352Y-116324743D01*
G37*
G36*
X141136963Y-111383130D02*
G01*
X141268982Y-111409390D01*
X141455520Y-111486656D01*
X141623400Y-111598830D01*
X141766170Y-111741600D01*
X141878344Y-111909480D01*
X141955610Y-112096018D01*
X141995000Y-112294046D01*
X141995000Y-112495954D01*
X141955610Y-112693982D01*
X141878344Y-112880520D01*
X141766170Y-113048400D01*
X141623400Y-113191170D01*
X141455520Y-113303344D01*
X141268982Y-113380610D01*
X141136963Y-113406870D01*
X141070955Y-113420000D01*
X140869045Y-113420000D01*
X140803037Y-113406870D01*
X140671018Y-113380610D01*
X140484480Y-113303344D01*
X140316600Y-113191170D01*
X140173830Y-113048400D01*
X140061656Y-112880520D01*
X139984390Y-112693982D01*
X139945000Y-112495954D01*
X139945000Y-112294046D01*
X139984390Y-112096018D01*
X140061656Y-111909480D01*
X140173830Y-111741600D01*
X140316600Y-111598830D01*
X140484480Y-111486656D01*
X140671018Y-111409390D01*
X140803037Y-111383130D01*
X140869045Y-111370000D01*
X141070955Y-111370000D01*
X141136963Y-111383130D01*
G37*
G36*
X156376963Y-111383130D02*
G01*
X156508982Y-111409390D01*
X156695520Y-111486656D01*
X156863400Y-111598830D01*
X157006170Y-111741600D01*
X157118344Y-111909480D01*
X157195610Y-112096018D01*
X157235000Y-112294046D01*
X157235000Y-112495954D01*
X157195610Y-112693982D01*
X157118344Y-112880520D01*
X157006170Y-113048400D01*
X156863400Y-113191170D01*
X156695520Y-113303344D01*
X156508982Y-113380610D01*
X156376963Y-113406870D01*
X156310955Y-113420000D01*
X156109045Y-113420000D01*
X156043037Y-113406870D01*
X155911018Y-113380610D01*
X155724480Y-113303344D01*
X155556600Y-113191170D01*
X155413830Y-113048400D01*
X155301656Y-112880520D01*
X155224390Y-112693982D01*
X155185000Y-112495954D01*
X155185000Y-112294046D01*
X155224390Y-112096018D01*
X155301656Y-111909480D01*
X155413830Y-111741600D01*
X155556600Y-111598830D01*
X155724480Y-111486656D01*
X155911018Y-111409390D01*
X156043037Y-111383130D01*
X156109045Y-111370000D01*
X156310955Y-111370000D01*
X156376963Y-111383130D01*
G37*
G36*
X148823351Y-111625743D02*
G01*
X148968941Y-111686048D01*
X149099970Y-111773599D01*
X149211401Y-111885030D01*
X149298952Y-112016059D01*
X149359257Y-112161649D01*
X149390000Y-112316206D01*
X149390000Y-112473794D01*
X149359257Y-112628351D01*
X149298952Y-112773941D01*
X149211401Y-112904970D01*
X149099970Y-113016401D01*
X148968941Y-113103952D01*
X148823351Y-113164257D01*
X148668794Y-113195000D01*
X148511206Y-113195000D01*
X148356649Y-113164257D01*
X148211059Y-113103952D01*
X148080030Y-113016401D01*
X147968599Y-112904970D01*
X147881048Y-112773941D01*
X147820743Y-112628351D01*
X147790000Y-112473794D01*
X147790000Y-112316206D01*
X147820743Y-112161649D01*
X147881048Y-112016059D01*
X147968599Y-111885030D01*
X148080030Y-111773599D01*
X148211059Y-111686048D01*
X148356649Y-111625743D01*
X148511206Y-111595000D01*
X148668794Y-111595000D01*
X148823351Y-111625743D01*
G37*
G36*
X133583351Y-111625743D02*
G01*
X133728941Y-111686048D01*
X133859970Y-111773599D01*
X133971401Y-111885030D01*
X134058952Y-112016059D01*
X134119257Y-112161649D01*
X134150000Y-112316206D01*
X134150000Y-112473794D01*
X134119257Y-112628351D01*
X134058952Y-112773941D01*
X133971401Y-112904970D01*
X133859970Y-113016401D01*
X133728941Y-113103952D01*
X133583351Y-113164257D01*
X133428794Y-113195000D01*
X133271206Y-113195000D01*
X133116649Y-113164257D01*
X132971059Y-113103952D01*
X132840030Y-113016401D01*
X132728599Y-112904970D01*
X132641048Y-112773941D01*
X132580743Y-112628351D01*
X132550000Y-112473794D01*
X132550000Y-112316206D01*
X132580743Y-112161649D01*
X132641048Y-112016059D01*
X132728599Y-111885030D01*
X132840030Y-111773599D01*
X132971059Y-111686048D01*
X133116649Y-111625743D01*
X133271206Y-111595000D01*
X133428794Y-111595000D01*
X133583351Y-111625743D01*
G37*
G36*
X141136963Y-108843130D02*
G01*
X141268982Y-108869390D01*
X141455520Y-108946656D01*
X141623400Y-109058830D01*
X141766170Y-109201600D01*
X141878344Y-109369480D01*
X141955610Y-109556018D01*
X141995000Y-109754046D01*
X141995000Y-109955954D01*
X141955610Y-110153982D01*
X141878344Y-110340520D01*
X141766170Y-110508400D01*
X141623400Y-110651170D01*
X141455520Y-110763344D01*
X141268982Y-110840610D01*
X141136963Y-110866870D01*
X141070955Y-110880000D01*
X140869045Y-110880000D01*
X140803037Y-110866870D01*
X140671018Y-110840610D01*
X140484480Y-110763344D01*
X140316600Y-110651170D01*
X140173830Y-110508400D01*
X140061656Y-110340520D01*
X139984390Y-110153982D01*
X139945000Y-109955954D01*
X139945000Y-109754046D01*
X139984390Y-109556018D01*
X140061656Y-109369480D01*
X140173830Y-109201600D01*
X140316600Y-109058830D01*
X140484480Y-108946656D01*
X140671018Y-108869390D01*
X140803037Y-108843130D01*
X140869045Y-108830000D01*
X141070955Y-108830000D01*
X141136963Y-108843130D01*
G37*
G36*
X156376963Y-108843130D02*
G01*
X156508982Y-108869390D01*
X156695520Y-108946656D01*
X156863400Y-109058830D01*
X157006170Y-109201600D01*
X157118344Y-109369480D01*
X157195610Y-109556018D01*
X157235000Y-109754046D01*
X157235000Y-109955954D01*
X157195610Y-110153982D01*
X157118344Y-110340520D01*
X157006170Y-110508400D01*
X156863400Y-110651170D01*
X156695520Y-110763344D01*
X156508982Y-110840610D01*
X156376963Y-110866870D01*
X156310955Y-110880000D01*
X156109045Y-110880000D01*
X156043037Y-110866870D01*
X155911018Y-110840610D01*
X155724480Y-110763344D01*
X155556600Y-110651170D01*
X155413830Y-110508400D01*
X155301656Y-110340520D01*
X155224390Y-110153982D01*
X155185000Y-109955954D01*
X155185000Y-109754046D01*
X155224390Y-109556018D01*
X155301656Y-109369480D01*
X155413830Y-109201600D01*
X155556600Y-109058830D01*
X155724480Y-108946656D01*
X155911018Y-108869390D01*
X156043037Y-108843130D01*
X156109045Y-108830000D01*
X156310955Y-108830000D01*
X156376963Y-108843130D01*
G37*
G36*
X148823351Y-109085743D02*
G01*
X148968941Y-109146048D01*
X149099970Y-109233599D01*
X149211401Y-109345030D01*
X149298952Y-109476059D01*
X149359257Y-109621649D01*
X149390000Y-109776206D01*
X149390000Y-109933794D01*
X149359257Y-110088351D01*
X149298952Y-110233941D01*
X149211401Y-110364970D01*
X149099970Y-110476401D01*
X148968941Y-110563952D01*
X148823351Y-110624257D01*
X148668794Y-110655000D01*
X148511206Y-110655000D01*
X148356649Y-110624257D01*
X148211059Y-110563952D01*
X148080030Y-110476401D01*
X147968599Y-110364970D01*
X147881048Y-110233941D01*
X147820743Y-110088351D01*
X147790000Y-109933794D01*
X147790000Y-109776206D01*
X147820743Y-109621649D01*
X147881048Y-109476059D01*
X147968599Y-109345030D01*
X148080030Y-109233599D01*
X148211059Y-109146048D01*
X148356649Y-109085743D01*
X148511206Y-109055000D01*
X148668794Y-109055000D01*
X148823351Y-109085743D01*
G37*
G36*
X133583351Y-109085743D02*
G01*
X133728941Y-109146048D01*
X133859970Y-109233599D01*
X133971401Y-109345030D01*
X134058952Y-109476059D01*
X134119257Y-109621649D01*
X134150000Y-109776206D01*
X134150000Y-109933794D01*
X134119257Y-110088351D01*
X134058952Y-110233941D01*
X133971401Y-110364970D01*
X133859970Y-110476401D01*
X133728941Y-110563952D01*
X133583351Y-110624257D01*
X133428794Y-110655000D01*
X133271206Y-110655000D01*
X133116649Y-110624257D01*
X132971059Y-110563952D01*
X132840030Y-110476401D01*
X132728599Y-110364970D01*
X132641048Y-110233941D01*
X132580743Y-110088351D01*
X132550000Y-109933794D01*
X132550000Y-109776206D01*
X132580743Y-109621649D01*
X132641048Y-109476059D01*
X132728599Y-109345030D01*
X132840030Y-109233599D01*
X132971059Y-109146048D01*
X133116649Y-109085743D01*
X133271206Y-109055000D01*
X133428794Y-109055000D01*
X133583351Y-109085743D01*
G37*
G36*
X121728352Y-108704743D02*
G01*
X121873942Y-108765048D01*
X122004971Y-108852599D01*
X122116402Y-108964030D01*
X122203953Y-109095059D01*
X122264258Y-109240649D01*
X122295001Y-109395206D01*
X122295001Y-109552794D01*
X122264258Y-109707351D01*
X122203953Y-109852941D01*
X122116402Y-109983970D01*
X122004971Y-110095401D01*
X121873942Y-110182952D01*
X121728352Y-110243257D01*
X121573795Y-110274000D01*
X121416207Y-110274000D01*
X121261650Y-110243257D01*
X121116060Y-110182952D01*
X120985031Y-110095401D01*
X120873600Y-109983970D01*
X120786049Y-109852941D01*
X120725744Y-109707351D01*
X120695001Y-109552794D01*
X120695001Y-109395206D01*
X120725744Y-109240649D01*
X120786049Y-109095059D01*
X120873600Y-108964030D01*
X120985031Y-108852599D01*
X121116060Y-108765048D01*
X121261650Y-108704743D01*
X121416207Y-108674000D01*
X121573795Y-108674000D01*
X121728352Y-108704743D01*
G37*
G36*
X126808352Y-108704743D02*
G01*
X126953942Y-108765048D01*
X127084971Y-108852599D01*
X127196402Y-108964030D01*
X127283953Y-109095059D01*
X127344258Y-109240649D01*
X127375001Y-109395206D01*
X127375001Y-109552794D01*
X127344258Y-109707351D01*
X127283953Y-109852941D01*
X127196402Y-109983970D01*
X127084971Y-110095401D01*
X126953942Y-110182952D01*
X126808352Y-110243257D01*
X126653795Y-110274000D01*
X126496207Y-110274000D01*
X126341650Y-110243257D01*
X126196060Y-110182952D01*
X126065031Y-110095401D01*
X125953600Y-109983970D01*
X125866049Y-109852941D01*
X125805744Y-109707351D01*
X125775001Y-109552794D01*
X125775001Y-109395206D01*
X125805744Y-109240649D01*
X125866049Y-109095059D01*
X125953600Y-108964030D01*
X126065031Y-108852599D01*
X126196060Y-108765048D01*
X126341650Y-108704743D01*
X126496207Y-108674000D01*
X126653795Y-108674000D01*
X126808352Y-108704743D01*
G37*
G36*
X129348352Y-108704743D02*
G01*
X129493942Y-108765048D01*
X129624971Y-108852599D01*
X129736402Y-108964030D01*
X129823953Y-109095059D01*
X129884258Y-109240649D01*
X129915001Y-109395206D01*
X129915001Y-109552794D01*
X129884258Y-109707351D01*
X129823953Y-109852941D01*
X129736402Y-109983970D01*
X129624971Y-110095401D01*
X129493942Y-110182952D01*
X129348352Y-110243257D01*
X129193795Y-110274000D01*
X129036207Y-110274000D01*
X128881650Y-110243257D01*
X128736060Y-110182952D01*
X128605031Y-110095401D01*
X128493600Y-109983970D01*
X128406049Y-109852941D01*
X128345744Y-109707351D01*
X128315001Y-109552794D01*
X128315001Y-109395206D01*
X128345744Y-109240649D01*
X128406049Y-109095059D01*
X128493600Y-108964030D01*
X128605031Y-108852599D01*
X128736060Y-108765048D01*
X128881650Y-108704743D01*
X129036207Y-108674000D01*
X129193795Y-108674000D01*
X129348352Y-108704743D01*
G37*
G36*
X124268352Y-108704743D02*
G01*
X124413942Y-108765048D01*
X124544971Y-108852599D01*
X124656402Y-108964030D01*
X124743953Y-109095059D01*
X124804258Y-109240649D01*
X124835001Y-109395206D01*
X124835001Y-109552794D01*
X124804258Y-109707351D01*
X124743953Y-109852941D01*
X124656402Y-109983970D01*
X124544971Y-110095401D01*
X124413942Y-110182952D01*
X124268352Y-110243257D01*
X124113795Y-110274000D01*
X123956207Y-110274000D01*
X123801650Y-110243257D01*
X123656060Y-110182952D01*
X123525031Y-110095401D01*
X123413600Y-109983970D01*
X123326049Y-109852941D01*
X123265744Y-109707351D01*
X123235001Y-109552794D01*
X123235001Y-109395206D01*
X123265744Y-109240649D01*
X123326049Y-109095059D01*
X123413600Y-108964030D01*
X123525031Y-108852599D01*
X123656060Y-108765048D01*
X123801650Y-108704743D01*
X123956207Y-108674000D01*
X124113795Y-108674000D01*
X124268352Y-108704743D01*
G37*
G36*
X141136963Y-106303130D02*
G01*
X141268982Y-106329390D01*
X141455520Y-106406656D01*
X141623400Y-106518830D01*
X141766170Y-106661600D01*
X141878344Y-106829480D01*
X141955610Y-107016018D01*
X141995000Y-107214046D01*
X141995000Y-107415954D01*
X141955610Y-107613982D01*
X141878344Y-107800520D01*
X141766170Y-107968400D01*
X141623400Y-108111170D01*
X141455520Y-108223344D01*
X141268982Y-108300610D01*
X141136963Y-108326870D01*
X141070955Y-108340000D01*
X140869045Y-108340000D01*
X140803037Y-108326870D01*
X140671018Y-108300610D01*
X140484480Y-108223344D01*
X140316600Y-108111170D01*
X140173830Y-107968400D01*
X140061656Y-107800520D01*
X139984390Y-107613982D01*
X139945000Y-107415954D01*
X139945000Y-107214046D01*
X139984390Y-107016018D01*
X140061656Y-106829480D01*
X140173830Y-106661600D01*
X140316600Y-106518830D01*
X140484480Y-106406656D01*
X140671018Y-106329390D01*
X140803037Y-106303130D01*
X140869045Y-106290000D01*
X141070955Y-106290000D01*
X141136963Y-106303130D01*
G37*
G36*
X156376963Y-106303130D02*
G01*
X156508982Y-106329390D01*
X156695520Y-106406656D01*
X156863400Y-106518830D01*
X157006170Y-106661600D01*
X157118344Y-106829480D01*
X157195610Y-107016018D01*
X157235000Y-107214046D01*
X157235000Y-107415954D01*
X157195610Y-107613982D01*
X157118344Y-107800520D01*
X157006170Y-107968400D01*
X156863400Y-108111170D01*
X156695520Y-108223344D01*
X156508982Y-108300610D01*
X156376963Y-108326870D01*
X156310955Y-108340000D01*
X156109045Y-108340000D01*
X156043037Y-108326870D01*
X155911018Y-108300610D01*
X155724480Y-108223344D01*
X155556600Y-108111170D01*
X155413830Y-107968400D01*
X155301656Y-107800520D01*
X155224390Y-107613982D01*
X155185000Y-107415954D01*
X155185000Y-107214046D01*
X155224390Y-107016018D01*
X155301656Y-106829480D01*
X155413830Y-106661600D01*
X155556600Y-106518830D01*
X155724480Y-106406656D01*
X155911018Y-106329390D01*
X156043037Y-106303130D01*
X156109045Y-106290000D01*
X156310955Y-106290000D01*
X156376963Y-106303130D01*
G37*
G36*
X148823351Y-106545743D02*
G01*
X148968941Y-106606048D01*
X149099970Y-106693599D01*
X149211401Y-106805030D01*
X149298952Y-106936059D01*
X149359257Y-107081649D01*
X149390000Y-107236206D01*
X149390000Y-107393794D01*
X149359257Y-107548351D01*
X149298952Y-107693941D01*
X149211401Y-107824970D01*
X149099970Y-107936401D01*
X148968941Y-108023952D01*
X148823351Y-108084257D01*
X148668794Y-108115000D01*
X148511206Y-108115000D01*
X148356649Y-108084257D01*
X148211059Y-108023952D01*
X148080030Y-107936401D01*
X147968599Y-107824970D01*
X147881048Y-107693941D01*
X147820743Y-107548351D01*
X147790000Y-107393794D01*
X147790000Y-107236206D01*
X147820743Y-107081649D01*
X147881048Y-106936059D01*
X147968599Y-106805030D01*
X148080030Y-106693599D01*
X148211059Y-106606048D01*
X148356649Y-106545743D01*
X148511206Y-106515000D01*
X148668794Y-106515000D01*
X148823351Y-106545743D01*
G37*
G36*
X133583351Y-106545743D02*
G01*
X133728941Y-106606048D01*
X133859970Y-106693599D01*
X133971401Y-106805030D01*
X134058952Y-106936059D01*
X134119257Y-107081649D01*
X134150000Y-107236206D01*
X134150000Y-107393794D01*
X134119257Y-107548351D01*
X134058952Y-107693941D01*
X133971401Y-107824970D01*
X133859970Y-107936401D01*
X133728941Y-108023952D01*
X133583351Y-108084257D01*
X133428794Y-108115000D01*
X133271206Y-108115000D01*
X133116649Y-108084257D01*
X132971059Y-108023952D01*
X132840030Y-107936401D01*
X132728599Y-107824970D01*
X132641048Y-107693941D01*
X132580743Y-107548351D01*
X132550000Y-107393794D01*
X132550000Y-107236206D01*
X132580743Y-107081649D01*
X132641048Y-106936059D01*
X132728599Y-106805030D01*
X132840030Y-106693599D01*
X132971059Y-106606048D01*
X133116649Y-106545743D01*
X133271206Y-106515000D01*
X133428794Y-106515000D01*
X133583351Y-106545743D01*
G37*
G36*
X123804351Y-105402743D02*
G01*
X123949941Y-105463048D01*
X124080970Y-105550599D01*
X124192401Y-105662030D01*
X124279952Y-105793059D01*
X124340257Y-105938649D01*
X124371000Y-106093206D01*
X124371000Y-106250794D01*
X124340257Y-106405351D01*
X124279952Y-106550941D01*
X124192401Y-106681970D01*
X124080970Y-106793401D01*
X123949941Y-106880952D01*
X123804351Y-106941257D01*
X123649794Y-106972000D01*
X123492206Y-106972000D01*
X123337649Y-106941257D01*
X123192059Y-106880952D01*
X123061030Y-106793401D01*
X122949599Y-106681970D01*
X122862048Y-106550941D01*
X122801743Y-106405351D01*
X122771000Y-106250794D01*
X122771000Y-106093206D01*
X122801743Y-105938649D01*
X122862048Y-105793059D01*
X122949599Y-105662030D01*
X123061030Y-105550599D01*
X123192059Y-105463048D01*
X123337649Y-105402743D01*
X123492206Y-105372000D01*
X123649794Y-105372000D01*
X123804351Y-105402743D01*
G37*
G36*
X129646351Y-105402743D02*
G01*
X129791941Y-105463048D01*
X129922970Y-105550599D01*
X130034401Y-105662030D01*
X130121952Y-105793059D01*
X130182257Y-105938649D01*
X130213000Y-106093206D01*
X130213000Y-106250794D01*
X130182257Y-106405351D01*
X130121952Y-106550941D01*
X130034401Y-106681970D01*
X129922970Y-106793401D01*
X129791941Y-106880952D01*
X129646351Y-106941257D01*
X129491794Y-106972000D01*
X129334206Y-106972000D01*
X129179649Y-106941257D01*
X129034059Y-106880952D01*
X128903030Y-106793401D01*
X128791599Y-106681970D01*
X128704048Y-106550941D01*
X128643743Y-106405351D01*
X128613000Y-106250794D01*
X128613000Y-106093206D01*
X128643743Y-105938649D01*
X128704048Y-105793059D01*
X128791599Y-105662030D01*
X128903030Y-105550599D01*
X129034059Y-105463048D01*
X129179649Y-105402743D01*
X129334206Y-105372000D01*
X129491794Y-105372000D01*
X129646351Y-105402743D01*
G37*
G36*
X126725351Y-105402743D02*
G01*
X126870941Y-105463048D01*
X127001970Y-105550599D01*
X127113401Y-105662030D01*
X127200952Y-105793059D01*
X127261257Y-105938649D01*
X127292000Y-106093206D01*
X127292000Y-106250794D01*
X127261257Y-106405351D01*
X127200952Y-106550941D01*
X127113401Y-106681970D01*
X127001970Y-106793401D01*
X126870941Y-106880952D01*
X126725351Y-106941257D01*
X126570794Y-106972000D01*
X126413206Y-106972000D01*
X126258649Y-106941257D01*
X126113059Y-106880952D01*
X125982030Y-106793401D01*
X125870599Y-106681970D01*
X125783048Y-106550941D01*
X125722743Y-106405351D01*
X125692000Y-106250794D01*
X125692000Y-106093206D01*
X125722743Y-105938649D01*
X125783048Y-105793059D01*
X125870599Y-105662030D01*
X125982030Y-105550599D01*
X126113059Y-105463048D01*
X126258649Y-105402743D01*
X126413206Y-105372000D01*
X126570794Y-105372000D01*
X126725351Y-105402743D01*
G37*
G36*
X120883351Y-105402743D02*
G01*
X121028941Y-105463048D01*
X121159970Y-105550599D01*
X121271401Y-105662030D01*
X121358952Y-105793059D01*
X121419257Y-105938649D01*
X121450000Y-106093206D01*
X121450000Y-106250794D01*
X121419257Y-106405351D01*
X121358952Y-106550941D01*
X121271401Y-106681970D01*
X121159970Y-106793401D01*
X121028941Y-106880952D01*
X120883351Y-106941257D01*
X120728794Y-106972000D01*
X120571206Y-106972000D01*
X120416649Y-106941257D01*
X120271059Y-106880952D01*
X120140030Y-106793401D01*
X120028599Y-106681970D01*
X119941048Y-106550941D01*
X119880743Y-106405351D01*
X119850000Y-106250794D01*
X119850000Y-106093206D01*
X119880743Y-105938649D01*
X119941048Y-105793059D01*
X120028599Y-105662030D01*
X120140030Y-105550599D01*
X120271059Y-105463048D01*
X120416649Y-105402743D01*
X120571206Y-105372000D01*
X120728794Y-105372000D01*
X120883351Y-105402743D01*
G37*
G36*
X117962351Y-105402743D02*
G01*
X118107941Y-105463048D01*
X118238970Y-105550599D01*
X118350401Y-105662030D01*
X118437952Y-105793059D01*
X118498257Y-105938649D01*
X118529000Y-106093206D01*
X118529000Y-106250794D01*
X118498257Y-106405351D01*
X118437952Y-106550941D01*
X118350401Y-106681970D01*
X118238970Y-106793401D01*
X118107941Y-106880952D01*
X117962351Y-106941257D01*
X117807794Y-106972000D01*
X117650206Y-106972000D01*
X117495649Y-106941257D01*
X117350059Y-106880952D01*
X117219030Y-106793401D01*
X117107599Y-106681970D01*
X117020048Y-106550941D01*
X116959743Y-106405351D01*
X116929000Y-106250794D01*
X116929000Y-106093206D01*
X116959743Y-105938649D01*
X117020048Y-105793059D01*
X117107599Y-105662030D01*
X117219030Y-105550599D01*
X117350059Y-105463048D01*
X117495649Y-105402743D01*
X117650206Y-105372000D01*
X117807794Y-105372000D01*
X117962351Y-105402743D01*
G37*
G36*
X141136963Y-103763130D02*
G01*
X141268982Y-103789390D01*
X141455520Y-103866656D01*
X141623400Y-103978830D01*
X141766170Y-104121600D01*
X141878344Y-104289480D01*
X141955610Y-104476018D01*
X141995000Y-104674046D01*
X141995000Y-104875954D01*
X141955610Y-105073982D01*
X141878344Y-105260520D01*
X141766170Y-105428400D01*
X141623400Y-105571170D01*
X141455520Y-105683344D01*
X141268982Y-105760610D01*
X141136963Y-105786870D01*
X141070955Y-105800000D01*
X140869045Y-105800000D01*
X140803037Y-105786870D01*
X140671018Y-105760610D01*
X140484480Y-105683344D01*
X140316600Y-105571170D01*
X140173830Y-105428400D01*
X140061656Y-105260520D01*
X139984390Y-105073982D01*
X139945000Y-104875954D01*
X139945000Y-104674046D01*
X139984390Y-104476018D01*
X140061656Y-104289480D01*
X140173830Y-104121600D01*
X140316600Y-103978830D01*
X140484480Y-103866656D01*
X140671018Y-103789390D01*
X140803037Y-103763130D01*
X140869045Y-103750000D01*
X141070955Y-103750000D01*
X141136963Y-103763130D01*
G37*
G36*
X156376963Y-103763130D02*
G01*
X156508982Y-103789390D01*
X156695520Y-103866656D01*
X156863400Y-103978830D01*
X157006170Y-104121600D01*
X157118344Y-104289480D01*
X157195610Y-104476018D01*
X157235000Y-104674046D01*
X157235000Y-104875954D01*
X157195610Y-105073982D01*
X157118344Y-105260520D01*
X157006170Y-105428400D01*
X156863400Y-105571170D01*
X156695520Y-105683344D01*
X156508982Y-105760610D01*
X156376963Y-105786870D01*
X156310955Y-105800000D01*
X156109045Y-105800000D01*
X156043037Y-105786870D01*
X155911018Y-105760610D01*
X155724480Y-105683344D01*
X155556600Y-105571170D01*
X155413830Y-105428400D01*
X155301656Y-105260520D01*
X155224390Y-105073982D01*
X155185000Y-104875954D01*
X155185000Y-104674046D01*
X155224390Y-104476018D01*
X155301656Y-104289480D01*
X155413830Y-104121600D01*
X155556600Y-103978830D01*
X155724480Y-103866656D01*
X155911018Y-103789390D01*
X156043037Y-103763130D01*
X156109045Y-103750000D01*
X156310955Y-103750000D01*
X156376963Y-103763130D01*
G37*
G36*
X133583351Y-104005743D02*
G01*
X133728941Y-104066048D01*
X133859970Y-104153599D01*
X133971401Y-104265030D01*
X134058952Y-104396059D01*
X134119257Y-104541649D01*
X134150000Y-104696206D01*
X134150000Y-104853794D01*
X134119257Y-105008351D01*
X134058952Y-105153941D01*
X133971401Y-105284970D01*
X133859970Y-105396401D01*
X133728941Y-105483952D01*
X133583351Y-105544257D01*
X133428794Y-105575000D01*
X133271206Y-105575000D01*
X133116649Y-105544257D01*
X132971059Y-105483952D01*
X132840030Y-105396401D01*
X132728599Y-105284970D01*
X132641048Y-105153941D01*
X132580743Y-105008351D01*
X132550000Y-104853794D01*
X132550000Y-104696206D01*
X132580743Y-104541649D01*
X132641048Y-104396059D01*
X132728599Y-104265030D01*
X132840030Y-104153599D01*
X132971059Y-104066048D01*
X133116649Y-104005743D01*
X133271206Y-103975000D01*
X133428794Y-103975000D01*
X133583351Y-104005743D01*
G37*
G36*
X148823351Y-104005743D02*
G01*
X148968941Y-104066048D01*
X149099970Y-104153599D01*
X149211401Y-104265030D01*
X149298952Y-104396059D01*
X149359257Y-104541649D01*
X149390000Y-104696206D01*
X149390000Y-104853794D01*
X149359257Y-105008351D01*
X149298952Y-105153941D01*
X149211401Y-105284970D01*
X149099970Y-105396401D01*
X148968941Y-105483952D01*
X148823351Y-105544257D01*
X148668794Y-105575000D01*
X148511206Y-105575000D01*
X148356649Y-105544257D01*
X148211059Y-105483952D01*
X148080030Y-105396401D01*
X147968599Y-105284970D01*
X147881048Y-105153941D01*
X147820743Y-105008351D01*
X147790000Y-104853794D01*
X147790000Y-104696206D01*
X147820743Y-104541649D01*
X147881048Y-104396059D01*
X147968599Y-104265030D01*
X148080030Y-104153599D01*
X148211059Y-104066048D01*
X148356649Y-104005743D01*
X148511206Y-103975000D01*
X148668794Y-103975000D01*
X148823351Y-104005743D01*
G37*
G36*
X141136963Y-101223130D02*
G01*
X141268982Y-101249390D01*
X141455520Y-101326656D01*
X141623400Y-101438830D01*
X141766170Y-101581600D01*
X141878344Y-101749480D01*
X141955610Y-101936018D01*
X141995000Y-102134046D01*
X141995000Y-102335954D01*
X141955610Y-102533982D01*
X141878344Y-102720520D01*
X141766170Y-102888400D01*
X141623400Y-103031170D01*
X141455520Y-103143344D01*
X141268982Y-103220610D01*
X141136963Y-103246870D01*
X141070955Y-103260000D01*
X140869045Y-103260000D01*
X140803037Y-103246870D01*
X140671018Y-103220610D01*
X140484480Y-103143344D01*
X140316600Y-103031170D01*
X140173830Y-102888400D01*
X140061656Y-102720520D01*
X139984390Y-102533982D01*
X139945000Y-102335954D01*
X139945000Y-102134046D01*
X139984390Y-101936018D01*
X140061656Y-101749480D01*
X140173830Y-101581600D01*
X140316600Y-101438830D01*
X140484480Y-101326656D01*
X140671018Y-101249390D01*
X140803037Y-101223130D01*
X140869045Y-101210000D01*
X141070955Y-101210000D01*
X141136963Y-101223130D01*
G37*
G36*
X156376963Y-101223130D02*
G01*
X156508982Y-101249390D01*
X156695520Y-101326656D01*
X156863400Y-101438830D01*
X157006170Y-101581600D01*
X157118344Y-101749480D01*
X157195610Y-101936018D01*
X157235000Y-102134046D01*
X157235000Y-102335954D01*
X157195610Y-102533982D01*
X157118344Y-102720520D01*
X157006170Y-102888400D01*
X156863400Y-103031170D01*
X156695520Y-103143344D01*
X156508982Y-103220610D01*
X156376963Y-103246870D01*
X156310955Y-103260000D01*
X156109045Y-103260000D01*
X156043037Y-103246870D01*
X155911018Y-103220610D01*
X155724480Y-103143344D01*
X155556600Y-103031170D01*
X155413830Y-102888400D01*
X155301656Y-102720520D01*
X155224390Y-102533982D01*
X155185000Y-102335954D01*
X155185000Y-102134046D01*
X155224390Y-101936018D01*
X155301656Y-101749480D01*
X155413830Y-101581600D01*
X155556600Y-101438830D01*
X155724480Y-101326656D01*
X155911018Y-101249390D01*
X156043037Y-101223130D01*
X156109045Y-101210000D01*
X156310955Y-101210000D01*
X156376963Y-101223130D01*
G37*
G36*
X148823351Y-101465743D02*
G01*
X148968941Y-101526048D01*
X149099970Y-101613599D01*
X149211401Y-101725030D01*
X149298952Y-101856059D01*
X149359257Y-102001649D01*
X149390000Y-102156206D01*
X149390000Y-102313794D01*
X149359257Y-102468351D01*
X149298952Y-102613941D01*
X149211401Y-102744970D01*
X149099970Y-102856401D01*
X148968941Y-102943952D01*
X148823351Y-103004257D01*
X148668794Y-103035000D01*
X148511206Y-103035000D01*
X148356649Y-103004257D01*
X148211059Y-102943952D01*
X148080030Y-102856401D01*
X147968599Y-102744970D01*
X147881048Y-102613941D01*
X147820743Y-102468351D01*
X147790000Y-102313794D01*
X147790000Y-102156206D01*
X147820743Y-102001649D01*
X147881048Y-101856059D01*
X147968599Y-101725030D01*
X148080030Y-101613599D01*
X148211059Y-101526048D01*
X148356649Y-101465743D01*
X148511206Y-101435000D01*
X148668794Y-101435000D01*
X148823351Y-101465743D01*
G37*
G36*
X133583351Y-101465743D02*
G01*
X133728941Y-101526048D01*
X133859970Y-101613599D01*
X133971401Y-101725030D01*
X134058952Y-101856059D01*
X134119257Y-102001649D01*
X134150000Y-102156206D01*
X134150000Y-102313794D01*
X134119257Y-102468351D01*
X134058952Y-102613941D01*
X133971401Y-102744970D01*
X133859970Y-102856401D01*
X133728941Y-102943952D01*
X133583351Y-103004257D01*
X133428794Y-103035000D01*
X133271206Y-103035000D01*
X133116649Y-103004257D01*
X132971059Y-102943952D01*
X132840030Y-102856401D01*
X132728599Y-102744970D01*
X132641048Y-102613941D01*
X132580743Y-102468351D01*
X132550000Y-102313794D01*
X132550000Y-102156206D01*
X132580743Y-102001649D01*
X132641048Y-101856059D01*
X132728599Y-101725030D01*
X132840030Y-101613599D01*
X132971059Y-101526048D01*
X133116649Y-101465743D01*
X133271206Y-101435000D01*
X133428794Y-101435000D01*
X133583351Y-101465743D01*
G37*
G36*
X141136963Y-98683130D02*
G01*
X141268982Y-98709390D01*
X141455520Y-98786656D01*
X141623400Y-98898830D01*
X141766170Y-99041600D01*
X141878344Y-99209480D01*
X141955610Y-99396018D01*
X141995000Y-99594046D01*
X141995000Y-99795954D01*
X141955610Y-99993982D01*
X141878344Y-100180520D01*
X141766170Y-100348400D01*
X141623400Y-100491170D01*
X141455520Y-100603344D01*
X141268982Y-100680610D01*
X141136963Y-100706870D01*
X141070955Y-100720000D01*
X140869045Y-100720000D01*
X140803037Y-100706870D01*
X140671018Y-100680610D01*
X140484480Y-100603344D01*
X140316600Y-100491170D01*
X140173830Y-100348400D01*
X140061656Y-100180520D01*
X139984390Y-99993982D01*
X139945000Y-99795954D01*
X139945000Y-99594046D01*
X139984390Y-99396018D01*
X140061656Y-99209480D01*
X140173830Y-99041600D01*
X140316600Y-98898830D01*
X140484480Y-98786656D01*
X140671018Y-98709390D01*
X140803037Y-98683130D01*
X140869045Y-98670000D01*
X141070955Y-98670000D01*
X141136963Y-98683130D01*
G37*
G36*
X156376963Y-98683130D02*
G01*
X156508982Y-98709390D01*
X156695520Y-98786656D01*
X156863400Y-98898830D01*
X157006170Y-99041600D01*
X157118344Y-99209480D01*
X157195610Y-99396018D01*
X157235000Y-99594046D01*
X157235000Y-99795954D01*
X157195610Y-99993982D01*
X157118344Y-100180520D01*
X157006170Y-100348400D01*
X156863400Y-100491170D01*
X156695520Y-100603344D01*
X156508982Y-100680610D01*
X156376963Y-100706870D01*
X156310955Y-100720000D01*
X156109045Y-100720000D01*
X156043037Y-100706870D01*
X155911018Y-100680610D01*
X155724480Y-100603344D01*
X155556600Y-100491170D01*
X155413830Y-100348400D01*
X155301656Y-100180520D01*
X155224390Y-99993982D01*
X155185000Y-99795954D01*
X155185000Y-99594046D01*
X155224390Y-99396018D01*
X155301656Y-99209480D01*
X155413830Y-99041600D01*
X155556600Y-98898830D01*
X155724480Y-98786656D01*
X155911018Y-98709390D01*
X156043037Y-98683130D01*
X156109045Y-98670000D01*
X156310955Y-98670000D01*
X156376963Y-98683130D01*
G37*
G36*
X148823351Y-98925743D02*
G01*
X148968941Y-98986048D01*
X149099970Y-99073599D01*
X149211401Y-99185030D01*
X149298952Y-99316059D01*
X149359257Y-99461649D01*
X149390000Y-99616206D01*
X149390000Y-99773794D01*
X149359257Y-99928351D01*
X149298952Y-100073941D01*
X149211401Y-100204970D01*
X149099970Y-100316401D01*
X148968941Y-100403952D01*
X148823351Y-100464257D01*
X148668794Y-100495000D01*
X148511206Y-100495000D01*
X148356649Y-100464257D01*
X148211059Y-100403952D01*
X148080030Y-100316401D01*
X147968599Y-100204970D01*
X147881048Y-100073941D01*
X147820743Y-99928351D01*
X147790000Y-99773794D01*
X147790000Y-99616206D01*
X147820743Y-99461649D01*
X147881048Y-99316059D01*
X147968599Y-99185030D01*
X148080030Y-99073599D01*
X148211059Y-98986048D01*
X148356649Y-98925743D01*
X148511206Y-98895000D01*
X148668794Y-98895000D01*
X148823351Y-98925743D01*
G37*
G36*
X133583351Y-98925743D02*
G01*
X133728941Y-98986048D01*
X133859970Y-99073599D01*
X133971401Y-99185030D01*
X134058952Y-99316059D01*
X134119257Y-99461649D01*
X134150000Y-99616206D01*
X134150000Y-99773794D01*
X134119257Y-99928351D01*
X134058952Y-100073941D01*
X133971401Y-100204970D01*
X133859970Y-100316401D01*
X133728941Y-100403952D01*
X133583351Y-100464257D01*
X133428794Y-100495000D01*
X133271206Y-100495000D01*
X133116649Y-100464257D01*
X132971059Y-100403952D01*
X132840030Y-100316401D01*
X132728599Y-100204970D01*
X132641048Y-100073941D01*
X132580743Y-99928351D01*
X132550000Y-99773794D01*
X132550000Y-99616206D01*
X132580743Y-99461649D01*
X132641048Y-99316059D01*
X132728599Y-99185030D01*
X132840030Y-99073599D01*
X132971059Y-98986048D01*
X133116649Y-98925743D01*
X133271206Y-98895000D01*
X133428794Y-98895000D01*
X133583351Y-98925743D01*
G37*
G36*
X126725351Y-97782743D02*
G01*
X126870941Y-97843048D01*
X127001970Y-97930599D01*
X127113401Y-98042030D01*
X127200952Y-98173059D01*
X127261257Y-98318649D01*
X127292000Y-98473206D01*
X127292000Y-98630794D01*
X127261257Y-98785351D01*
X127200952Y-98930941D01*
X127113401Y-99061970D01*
X127001970Y-99173401D01*
X126870941Y-99260952D01*
X126725351Y-99321257D01*
X126570794Y-99352000D01*
X126413206Y-99352000D01*
X126258649Y-99321257D01*
X126113059Y-99260952D01*
X125982030Y-99173401D01*
X125870599Y-99061970D01*
X125783048Y-98930941D01*
X125722743Y-98785351D01*
X125692000Y-98630794D01*
X125692000Y-98473206D01*
X125722743Y-98318649D01*
X125783048Y-98173059D01*
X125870599Y-98042030D01*
X125982030Y-97930599D01*
X126113059Y-97843048D01*
X126258649Y-97782743D01*
X126413206Y-97752000D01*
X126570794Y-97752000D01*
X126725351Y-97782743D01*
G37*
G36*
X123804351Y-97782743D02*
G01*
X123949941Y-97843048D01*
X124080970Y-97930599D01*
X124192401Y-98042030D01*
X124279952Y-98173059D01*
X124340257Y-98318649D01*
X124371000Y-98473206D01*
X124371000Y-98630794D01*
X124340257Y-98785351D01*
X124279952Y-98930941D01*
X124192401Y-99061970D01*
X124080970Y-99173401D01*
X123949941Y-99260952D01*
X123804351Y-99321257D01*
X123649794Y-99352000D01*
X123492206Y-99352000D01*
X123337649Y-99321257D01*
X123192059Y-99260952D01*
X123061030Y-99173401D01*
X122949599Y-99061970D01*
X122862048Y-98930941D01*
X122801743Y-98785351D01*
X122771000Y-98630794D01*
X122771000Y-98473206D01*
X122801743Y-98318649D01*
X122862048Y-98173059D01*
X122949599Y-98042030D01*
X123061030Y-97930599D01*
X123192059Y-97843048D01*
X123337649Y-97782743D01*
X123492206Y-97752000D01*
X123649794Y-97752000D01*
X123804351Y-97782743D01*
G37*
G36*
X129646351Y-97782743D02*
G01*
X129791941Y-97843048D01*
X129922970Y-97930599D01*
X130034401Y-98042030D01*
X130121952Y-98173059D01*
X130182257Y-98318649D01*
X130213000Y-98473206D01*
X130213000Y-98630794D01*
X130182257Y-98785351D01*
X130121952Y-98930941D01*
X130034401Y-99061970D01*
X129922970Y-99173401D01*
X129791941Y-99260952D01*
X129646351Y-99321257D01*
X129491794Y-99352000D01*
X129334206Y-99352000D01*
X129179649Y-99321257D01*
X129034059Y-99260952D01*
X128903030Y-99173401D01*
X128791599Y-99061970D01*
X128704048Y-98930941D01*
X128643743Y-98785351D01*
X128613000Y-98630794D01*
X128613000Y-98473206D01*
X128643743Y-98318649D01*
X128704048Y-98173059D01*
X128791599Y-98042030D01*
X128903030Y-97930599D01*
X129034059Y-97843048D01*
X129179649Y-97782743D01*
X129334206Y-97752000D01*
X129491794Y-97752000D01*
X129646351Y-97782743D01*
G37*
G36*
X120883351Y-97782743D02*
G01*
X121028941Y-97843048D01*
X121159970Y-97930599D01*
X121271401Y-98042030D01*
X121358952Y-98173059D01*
X121419257Y-98318649D01*
X121450000Y-98473206D01*
X121450000Y-98630794D01*
X121419257Y-98785351D01*
X121358952Y-98930941D01*
X121271401Y-99061970D01*
X121159970Y-99173401D01*
X121028941Y-99260952D01*
X120883351Y-99321257D01*
X120728794Y-99352000D01*
X120571206Y-99352000D01*
X120416649Y-99321257D01*
X120271059Y-99260952D01*
X120140030Y-99173401D01*
X120028599Y-99061970D01*
X119941048Y-98930941D01*
X119880743Y-98785351D01*
X119850000Y-98630794D01*
X119850000Y-98473206D01*
X119880743Y-98318649D01*
X119941048Y-98173059D01*
X120028599Y-98042030D01*
X120140030Y-97930599D01*
X120271059Y-97843048D01*
X120416649Y-97782743D01*
X120571206Y-97752000D01*
X120728794Y-97752000D01*
X120883351Y-97782743D01*
G37*
G36*
X117962351Y-97782743D02*
G01*
X118107941Y-97843048D01*
X118238970Y-97930599D01*
X118350401Y-98042030D01*
X118437952Y-98173059D01*
X118498257Y-98318649D01*
X118529000Y-98473206D01*
X118529000Y-98630794D01*
X118498257Y-98785351D01*
X118437952Y-98930941D01*
X118350401Y-99061970D01*
X118238970Y-99173401D01*
X118107941Y-99260952D01*
X117962351Y-99321257D01*
X117807794Y-99352000D01*
X117650206Y-99352000D01*
X117495649Y-99321257D01*
X117350059Y-99260952D01*
X117219030Y-99173401D01*
X117107599Y-99061970D01*
X117020048Y-98930941D01*
X116959743Y-98785351D01*
X116929000Y-98630794D01*
X116929000Y-98473206D01*
X116959743Y-98318649D01*
X117020048Y-98173059D01*
X117107599Y-98042030D01*
X117219030Y-97930599D01*
X117350059Y-97843048D01*
X117495649Y-97782743D01*
X117650206Y-97752000D01*
X117807794Y-97752000D01*
X117962351Y-97782743D01*
G37*
G36*
X156376963Y-96143130D02*
G01*
X156508982Y-96169390D01*
X156695520Y-96246656D01*
X156863400Y-96358830D01*
X157006170Y-96501600D01*
X157118344Y-96669480D01*
X157195610Y-96856018D01*
X157235000Y-97054046D01*
X157235000Y-97255954D01*
X157195610Y-97453982D01*
X157118344Y-97640520D01*
X157006170Y-97808400D01*
X156863400Y-97951170D01*
X156695520Y-98063344D01*
X156508982Y-98140610D01*
X156376963Y-98166870D01*
X156310955Y-98180000D01*
X156109045Y-98180000D01*
X156043037Y-98166870D01*
X155911018Y-98140610D01*
X155724480Y-98063344D01*
X155556600Y-97951170D01*
X155413830Y-97808400D01*
X155301656Y-97640520D01*
X155224390Y-97453982D01*
X155185000Y-97255954D01*
X155185000Y-97054046D01*
X155224390Y-96856018D01*
X155301656Y-96669480D01*
X155413830Y-96501600D01*
X155556600Y-96358830D01*
X155724480Y-96246656D01*
X155911018Y-96169390D01*
X156043037Y-96143130D01*
X156109045Y-96130000D01*
X156310955Y-96130000D01*
X156376963Y-96143130D01*
G37*
G36*
X141136963Y-96143130D02*
G01*
X141268982Y-96169390D01*
X141455520Y-96246656D01*
X141623400Y-96358830D01*
X141766170Y-96501600D01*
X141878344Y-96669480D01*
X141955610Y-96856018D01*
X141995000Y-97054046D01*
X141995000Y-97255954D01*
X141955610Y-97453982D01*
X141878344Y-97640520D01*
X141766170Y-97808400D01*
X141623400Y-97951170D01*
X141455520Y-98063344D01*
X141268982Y-98140610D01*
X141136963Y-98166870D01*
X141070955Y-98180000D01*
X140869045Y-98180000D01*
X140803037Y-98166870D01*
X140671018Y-98140610D01*
X140484480Y-98063344D01*
X140316600Y-97951170D01*
X140173830Y-97808400D01*
X140061656Y-97640520D01*
X139984390Y-97453982D01*
X139945000Y-97255954D01*
X139945000Y-97054046D01*
X139984390Y-96856018D01*
X140061656Y-96669480D01*
X140173830Y-96501600D01*
X140316600Y-96358830D01*
X140484480Y-96246656D01*
X140671018Y-96169390D01*
X140803037Y-96143130D01*
X140869045Y-96130000D01*
X141070955Y-96130000D01*
X141136963Y-96143130D01*
G37*
G36*
X148823351Y-96385743D02*
G01*
X148968941Y-96446048D01*
X149099970Y-96533599D01*
X149211401Y-96645030D01*
X149298952Y-96776059D01*
X149359257Y-96921649D01*
X149390000Y-97076206D01*
X149390000Y-97233794D01*
X149359257Y-97388351D01*
X149298952Y-97533941D01*
X149211401Y-97664970D01*
X149099970Y-97776401D01*
X148968941Y-97863952D01*
X148823351Y-97924257D01*
X148668794Y-97955000D01*
X148511206Y-97955000D01*
X148356649Y-97924257D01*
X148211059Y-97863952D01*
X148080030Y-97776401D01*
X147968599Y-97664970D01*
X147881048Y-97533941D01*
X147820743Y-97388351D01*
X147790000Y-97233794D01*
X147790000Y-97076206D01*
X147820743Y-96921649D01*
X147881048Y-96776059D01*
X147968599Y-96645030D01*
X148080030Y-96533599D01*
X148211059Y-96446048D01*
X148356649Y-96385743D01*
X148511206Y-96355000D01*
X148668794Y-96355000D01*
X148823351Y-96385743D01*
G37*
G36*
X133583351Y-96385743D02*
G01*
X133728941Y-96446048D01*
X133859970Y-96533599D01*
X133971401Y-96645030D01*
X134058952Y-96776059D01*
X134119257Y-96921649D01*
X134150000Y-97076206D01*
X134150000Y-97233794D01*
X134119257Y-97388351D01*
X134058952Y-97533941D01*
X133971401Y-97664970D01*
X133859970Y-97776401D01*
X133728941Y-97863952D01*
X133583351Y-97924257D01*
X133428794Y-97955000D01*
X133271206Y-97955000D01*
X133116649Y-97924257D01*
X132971059Y-97863952D01*
X132840030Y-97776401D01*
X132728599Y-97664970D01*
X132641048Y-97533941D01*
X132580743Y-97388351D01*
X132550000Y-97233794D01*
X132550000Y-97076206D01*
X132580743Y-96921649D01*
X132641048Y-96776059D01*
X132728599Y-96645030D01*
X132840030Y-96533599D01*
X132971059Y-96446048D01*
X133116649Y-96385743D01*
X133271206Y-96355000D01*
X133428794Y-96355000D01*
X133583351Y-96385743D01*
G37*
G36*
X141136963Y-93603130D02*
G01*
X141268982Y-93629390D01*
X141455520Y-93706656D01*
X141623400Y-93818830D01*
X141766170Y-93961600D01*
X141878344Y-94129480D01*
X141955610Y-94316018D01*
X141995000Y-94514046D01*
X141995000Y-94715954D01*
X141955610Y-94913982D01*
X141878344Y-95100520D01*
X141766170Y-95268400D01*
X141623400Y-95411170D01*
X141455520Y-95523344D01*
X141268982Y-95600610D01*
X141136963Y-95626870D01*
X141070955Y-95640000D01*
X140869045Y-95640000D01*
X140803037Y-95626870D01*
X140671018Y-95600610D01*
X140484480Y-95523344D01*
X140316600Y-95411170D01*
X140173830Y-95268400D01*
X140061656Y-95100520D01*
X139984390Y-94913982D01*
X139945000Y-94715954D01*
X139945000Y-94514046D01*
X139984390Y-94316018D01*
X140061656Y-94129480D01*
X140173830Y-93961600D01*
X140316600Y-93818830D01*
X140484480Y-93706656D01*
X140671018Y-93629390D01*
X140803037Y-93603130D01*
X140869045Y-93590000D01*
X141070955Y-93590000D01*
X141136963Y-93603130D01*
G37*
G36*
X156376963Y-93603130D02*
G01*
X156508982Y-93629390D01*
X156695520Y-93706656D01*
X156863400Y-93818830D01*
X157006170Y-93961600D01*
X157118344Y-94129480D01*
X157195610Y-94316018D01*
X157235000Y-94514046D01*
X157235000Y-94715954D01*
X157195610Y-94913982D01*
X157118344Y-95100520D01*
X157006170Y-95268400D01*
X156863400Y-95411170D01*
X156695520Y-95523344D01*
X156508982Y-95600610D01*
X156376963Y-95626870D01*
X156310955Y-95640000D01*
X156109045Y-95640000D01*
X156043037Y-95626870D01*
X155911018Y-95600610D01*
X155724480Y-95523344D01*
X155556600Y-95411170D01*
X155413830Y-95268400D01*
X155301656Y-95100520D01*
X155224390Y-94913982D01*
X155185000Y-94715954D01*
X155185000Y-94514046D01*
X155224390Y-94316018D01*
X155301656Y-94129480D01*
X155413830Y-93961600D01*
X155556600Y-93818830D01*
X155724480Y-93706656D01*
X155911018Y-93629390D01*
X156043037Y-93603130D01*
X156109045Y-93590000D01*
X156310955Y-93590000D01*
X156376963Y-93603130D01*
G37*
G36*
X133583351Y-93845743D02*
G01*
X133728941Y-93906048D01*
X133859970Y-93993599D01*
X133971401Y-94105030D01*
X134058952Y-94236059D01*
X134119257Y-94381649D01*
X134150000Y-94536206D01*
X134150000Y-94693794D01*
X134119257Y-94848351D01*
X134058952Y-94993941D01*
X133971401Y-95124970D01*
X133859970Y-95236401D01*
X133728941Y-95323952D01*
X133583351Y-95384257D01*
X133428794Y-95415000D01*
X133271206Y-95415000D01*
X133116649Y-95384257D01*
X132971059Y-95323952D01*
X132840030Y-95236401D01*
X132728599Y-95124970D01*
X132641048Y-94993941D01*
X132580743Y-94848351D01*
X132550000Y-94693794D01*
X132550000Y-94536206D01*
X132580743Y-94381649D01*
X132641048Y-94236059D01*
X132728599Y-94105030D01*
X132840030Y-93993599D01*
X132971059Y-93906048D01*
X133116649Y-93845743D01*
X133271206Y-93815000D01*
X133428794Y-93815000D01*
X133583351Y-93845743D01*
G37*
G36*
X148823351Y-93845743D02*
G01*
X148968941Y-93906048D01*
X149099970Y-93993599D01*
X149211401Y-94105030D01*
X149298952Y-94236059D01*
X149359257Y-94381649D01*
X149390000Y-94536206D01*
X149390000Y-94693794D01*
X149359257Y-94848351D01*
X149298952Y-94993941D01*
X149211401Y-95124970D01*
X149099970Y-95236401D01*
X148968941Y-95323952D01*
X148823351Y-95384257D01*
X148668794Y-95415000D01*
X148511206Y-95415000D01*
X148356649Y-95384257D01*
X148211059Y-95323952D01*
X148080030Y-95236401D01*
X147968599Y-95124970D01*
X147881048Y-94993941D01*
X147820743Y-94848351D01*
X147790000Y-94693794D01*
X147790000Y-94536206D01*
X147820743Y-94381649D01*
X147881048Y-94236059D01*
X147968599Y-94105030D01*
X148080030Y-93993599D01*
X148211059Y-93906048D01*
X148356649Y-93845743D01*
X148511206Y-93815000D01*
X148668794Y-93815000D01*
X148823351Y-93845743D01*
G37*
G36*
X129504766Y-92750821D02*
G01*
X129641257Y-92807358D01*
X129764097Y-92889437D01*
X129868563Y-92993903D01*
X129950642Y-93116743D01*
X130007179Y-93253234D01*
X130036000Y-93398130D01*
X130036000Y-93545870D01*
X130007179Y-93690766D01*
X129950642Y-93827257D01*
X129868563Y-93950097D01*
X129764097Y-94054563D01*
X129641257Y-94136642D01*
X129504766Y-94193179D01*
X129359870Y-94222000D01*
X129212130Y-94222000D01*
X129067234Y-94193179D01*
X128930743Y-94136642D01*
X128807903Y-94054563D01*
X128703437Y-93950097D01*
X128621358Y-93827257D01*
X128564821Y-93690766D01*
X128536000Y-93545870D01*
X128536000Y-93398130D01*
X128564821Y-93253234D01*
X128621358Y-93116743D01*
X128703437Y-92993903D01*
X128807903Y-92889437D01*
X128930743Y-92807358D01*
X129067234Y-92750821D01*
X129212130Y-92722000D01*
X129359870Y-92722000D01*
X129504766Y-92750821D01*
G37*
G36*
X120770935Y-92527664D02*
G01*
X120909282Y-92584970D01*
X120925626Y-92591740D01*
X121064844Y-92684762D01*
X121183238Y-92803156D01*
X121276260Y-92942374D01*
X121276261Y-92942376D01*
X121340336Y-93097065D01*
X121373000Y-93261281D01*
X121373000Y-93428719D01*
X121340336Y-93592935D01*
X121276261Y-93747624D01*
X121276260Y-93747626D01*
X121183238Y-93886844D01*
X121064844Y-94005238D01*
X120925626Y-94098260D01*
X120925625Y-94098261D01*
X120925624Y-94098261D01*
X120770935Y-94162336D01*
X120606719Y-94195000D01*
X120439281Y-94195000D01*
X120275065Y-94162336D01*
X120120376Y-94098261D01*
X120120375Y-94098261D01*
X120120374Y-94098260D01*
X119981156Y-94005238D01*
X119862762Y-93886844D01*
X119769740Y-93747626D01*
X119769739Y-93747624D01*
X119705664Y-93592935D01*
X119673000Y-93428719D01*
X119673000Y-93261281D01*
X119705664Y-93097065D01*
X119769739Y-92942376D01*
X119769740Y-92942374D01*
X119862762Y-92803156D01*
X119981156Y-92684762D01*
X120120374Y-92591740D01*
X120136718Y-92584970D01*
X120275065Y-92527664D01*
X120439281Y-92495000D01*
X120606719Y-92495000D01*
X120770935Y-92527664D01*
G37*
G36*
X118230935Y-92527664D02*
G01*
X118369282Y-92584970D01*
X118385626Y-92591740D01*
X118524844Y-92684762D01*
X118643238Y-92803156D01*
X118736260Y-92942374D01*
X118736261Y-92942376D01*
X118800336Y-93097065D01*
X118833000Y-93261281D01*
X118833000Y-93428719D01*
X118800336Y-93592935D01*
X118736261Y-93747624D01*
X118736260Y-93747626D01*
X118643238Y-93886844D01*
X118524844Y-94005238D01*
X118385626Y-94098260D01*
X118385625Y-94098261D01*
X118385624Y-94098261D01*
X118230935Y-94162336D01*
X118066719Y-94195000D01*
X117899281Y-94195000D01*
X117735065Y-94162336D01*
X117580376Y-94098261D01*
X117580375Y-94098261D01*
X117580374Y-94098260D01*
X117441156Y-94005238D01*
X117322762Y-93886844D01*
X117229740Y-93747626D01*
X117229739Y-93747624D01*
X117165664Y-93592935D01*
X117133000Y-93428719D01*
X117133000Y-93261281D01*
X117165664Y-93097065D01*
X117229739Y-92942376D01*
X117229740Y-92942374D01*
X117322762Y-92803156D01*
X117441156Y-92684762D01*
X117580374Y-92591740D01*
X117596718Y-92584970D01*
X117735065Y-92527664D01*
X117899281Y-92495000D01*
X118066719Y-92495000D01*
X118230935Y-92527664D01*
G37*
G36*
X123913000Y-94195000D02*
G01*
X122213000Y-94195000D01*
X122213000Y-92495000D01*
X123913000Y-92495000D01*
X123913000Y-94195000D01*
G37*
G36*
X156376963Y-91063130D02*
G01*
X156508982Y-91089390D01*
X156695520Y-91166656D01*
X156863400Y-91278830D01*
X157006170Y-91421600D01*
X157118344Y-91589480D01*
X157195610Y-91776018D01*
X157235000Y-91974046D01*
X157235000Y-92175954D01*
X157195610Y-92373982D01*
X157118344Y-92560520D01*
X157006170Y-92728400D01*
X156863400Y-92871170D01*
X156695520Y-92983344D01*
X156508982Y-93060610D01*
X156376963Y-93086870D01*
X156310955Y-93100000D01*
X156109045Y-93100000D01*
X156043037Y-93086870D01*
X155911018Y-93060610D01*
X155724480Y-92983344D01*
X155556600Y-92871170D01*
X155413830Y-92728400D01*
X155301656Y-92560520D01*
X155224390Y-92373982D01*
X155185000Y-92175954D01*
X155185000Y-91974046D01*
X155224390Y-91776018D01*
X155301656Y-91589480D01*
X155413830Y-91421600D01*
X155556600Y-91278830D01*
X155724480Y-91166656D01*
X155911018Y-91089390D01*
X156043037Y-91063130D01*
X156109045Y-91050000D01*
X156310955Y-91050000D01*
X156376963Y-91063130D01*
G37*
G36*
X141136963Y-91063130D02*
G01*
X141268982Y-91089390D01*
X141455520Y-91166656D01*
X141623400Y-91278830D01*
X141766170Y-91421600D01*
X141878344Y-91589480D01*
X141955610Y-91776018D01*
X141995000Y-91974046D01*
X141995000Y-92175954D01*
X141955610Y-92373982D01*
X141878344Y-92560520D01*
X141766170Y-92728400D01*
X141623400Y-92871170D01*
X141455520Y-92983344D01*
X141268982Y-93060610D01*
X141136963Y-93086870D01*
X141070955Y-93100000D01*
X140869045Y-93100000D01*
X140803037Y-93086870D01*
X140671018Y-93060610D01*
X140484480Y-92983344D01*
X140316600Y-92871170D01*
X140173830Y-92728400D01*
X140061656Y-92560520D01*
X139984390Y-92373982D01*
X139945000Y-92175954D01*
X139945000Y-91974046D01*
X139984390Y-91776018D01*
X140061656Y-91589480D01*
X140173830Y-91421600D01*
X140316600Y-91278830D01*
X140484480Y-91166656D01*
X140671018Y-91089390D01*
X140803037Y-91063130D01*
X140869045Y-91050000D01*
X141070955Y-91050000D01*
X141136963Y-91063130D01*
G37*
G36*
X148823351Y-91305743D02*
G01*
X148968941Y-91366048D01*
X149099970Y-91453599D01*
X149211401Y-91565030D01*
X149298952Y-91696059D01*
X149359257Y-91841649D01*
X149390000Y-91996206D01*
X149390000Y-92153794D01*
X149359257Y-92308351D01*
X149298952Y-92453941D01*
X149211401Y-92584970D01*
X149099970Y-92696401D01*
X148968941Y-92783952D01*
X148823351Y-92844257D01*
X148668794Y-92875000D01*
X148511206Y-92875000D01*
X148356649Y-92844257D01*
X148211059Y-92783952D01*
X148080030Y-92696401D01*
X147968599Y-92584970D01*
X147881048Y-92453941D01*
X147820743Y-92308351D01*
X147790000Y-92153794D01*
X147790000Y-91996206D01*
X147820743Y-91841649D01*
X147881048Y-91696059D01*
X147968599Y-91565030D01*
X148080030Y-91453599D01*
X148211059Y-91366048D01*
X148356649Y-91305743D01*
X148511206Y-91275000D01*
X148668794Y-91275000D01*
X148823351Y-91305743D01*
G37*
G36*
X133583351Y-91305743D02*
G01*
X133728941Y-91366048D01*
X133859970Y-91453599D01*
X133971401Y-91565030D01*
X134058952Y-91696059D01*
X134119257Y-91841649D01*
X134150000Y-91996206D01*
X134150000Y-92153794D01*
X134119257Y-92308351D01*
X134058952Y-92453941D01*
X133971401Y-92584970D01*
X133859970Y-92696401D01*
X133728941Y-92783952D01*
X133583351Y-92844257D01*
X133428794Y-92875000D01*
X133271206Y-92875000D01*
X133116649Y-92844257D01*
X132971059Y-92783952D01*
X132840030Y-92696401D01*
X132728599Y-92584970D01*
X132641048Y-92453941D01*
X132580743Y-92308351D01*
X132550000Y-92153794D01*
X132550000Y-91996206D01*
X132580743Y-91841649D01*
X132641048Y-91696059D01*
X132728599Y-91565030D01*
X132840030Y-91453599D01*
X132971059Y-91366048D01*
X133116649Y-91305743D01*
X133271206Y-91275000D01*
X133428794Y-91275000D01*
X133583351Y-91305743D01*
G37*
G36*
X129504766Y-90210821D02*
G01*
X129641257Y-90267358D01*
X129764097Y-90349437D01*
X129868563Y-90453903D01*
X129950642Y-90576743D01*
X130007179Y-90713234D01*
X130036000Y-90858130D01*
X130036000Y-91005870D01*
X130007179Y-91150766D01*
X129950642Y-91287257D01*
X129868563Y-91410097D01*
X129764097Y-91514563D01*
X129641257Y-91596642D01*
X129504766Y-91653179D01*
X129359870Y-91682000D01*
X129212130Y-91682000D01*
X129067234Y-91653179D01*
X128930743Y-91596642D01*
X128807903Y-91514563D01*
X128703437Y-91410097D01*
X128621358Y-91287257D01*
X128564821Y-91150766D01*
X128536000Y-91005870D01*
X128536000Y-90858130D01*
X128564821Y-90713234D01*
X128621358Y-90576743D01*
X128703437Y-90453903D01*
X128807903Y-90349437D01*
X128930743Y-90267358D01*
X129067234Y-90210821D01*
X129212130Y-90182000D01*
X129359870Y-90182000D01*
X129504766Y-90210821D01*
G37*
G36*
X123913000Y-91401000D02*
G01*
X122213000Y-91401000D01*
X122213000Y-89701000D01*
X123913000Y-89701000D01*
X123913000Y-91401000D01*
G37*
G36*
X118230935Y-89733664D02*
G01*
X118385624Y-89797739D01*
X118385626Y-89797740D01*
X118524844Y-89890762D01*
X118643238Y-90009156D01*
X118736260Y-90148374D01*
X118736261Y-90148376D01*
X118800336Y-90303065D01*
X118833000Y-90467281D01*
X118833000Y-90634719D01*
X118800336Y-90798935D01*
X118775816Y-90858130D01*
X118736260Y-90953626D01*
X118643238Y-91092844D01*
X118524844Y-91211238D01*
X118385626Y-91304260D01*
X118385625Y-91304261D01*
X118385624Y-91304261D01*
X118230935Y-91368336D01*
X118066719Y-91401000D01*
X117899281Y-91401000D01*
X117735065Y-91368336D01*
X117580376Y-91304261D01*
X117580375Y-91304261D01*
X117580374Y-91304260D01*
X117441156Y-91211238D01*
X117322762Y-91092844D01*
X117229740Y-90953626D01*
X117190184Y-90858130D01*
X117165664Y-90798935D01*
X117133000Y-90634719D01*
X117133000Y-90467281D01*
X117165664Y-90303065D01*
X117229739Y-90148376D01*
X117229740Y-90148374D01*
X117322762Y-90009156D01*
X117441156Y-89890762D01*
X117580374Y-89797740D01*
X117580376Y-89797739D01*
X117735065Y-89733664D01*
X117899281Y-89701000D01*
X118066719Y-89701000D01*
X118230935Y-89733664D01*
G37*
G36*
X120770935Y-89733664D02*
G01*
X120925624Y-89797739D01*
X120925626Y-89797740D01*
X121064844Y-89890762D01*
X121183238Y-90009156D01*
X121276260Y-90148374D01*
X121276261Y-90148376D01*
X121340336Y-90303065D01*
X121373000Y-90467281D01*
X121373000Y-90634719D01*
X121340336Y-90798935D01*
X121315816Y-90858130D01*
X121276260Y-90953626D01*
X121183238Y-91092844D01*
X121064844Y-91211238D01*
X120925626Y-91304260D01*
X120925625Y-91304261D01*
X120925624Y-91304261D01*
X120770935Y-91368336D01*
X120606719Y-91401000D01*
X120439281Y-91401000D01*
X120275065Y-91368336D01*
X120120376Y-91304261D01*
X120120375Y-91304261D01*
X120120374Y-91304260D01*
X119981156Y-91211238D01*
X119862762Y-91092844D01*
X119769740Y-90953626D01*
X119730184Y-90858130D01*
X119705664Y-90798935D01*
X119673000Y-90634719D01*
X119673000Y-90467281D01*
X119705664Y-90303065D01*
X119769739Y-90148376D01*
X119769740Y-90148374D01*
X119862762Y-90009156D01*
X119981156Y-89890762D01*
X120120374Y-89797740D01*
X120120376Y-89797739D01*
X120275065Y-89733664D01*
X120439281Y-89701000D01*
X120606719Y-89701000D01*
X120770935Y-89733664D01*
G37*
G36*
X156376963Y-88523130D02*
G01*
X156508982Y-88549390D01*
X156695520Y-88626656D01*
X156863400Y-88738830D01*
X157006170Y-88881600D01*
X157118344Y-89049480D01*
X157195610Y-89236018D01*
X157235000Y-89434046D01*
X157235000Y-89635954D01*
X157195610Y-89833982D01*
X157118344Y-90020520D01*
X157006170Y-90188400D01*
X156863400Y-90331170D01*
X156695520Y-90443344D01*
X156508982Y-90520610D01*
X156376963Y-90546870D01*
X156310955Y-90560000D01*
X156109045Y-90560000D01*
X156043037Y-90546870D01*
X155911018Y-90520610D01*
X155724480Y-90443344D01*
X155556600Y-90331170D01*
X155413830Y-90188400D01*
X155301656Y-90020520D01*
X155224390Y-89833982D01*
X155185000Y-89635954D01*
X155185000Y-89434046D01*
X155224390Y-89236018D01*
X155301656Y-89049480D01*
X155413830Y-88881600D01*
X155556600Y-88738830D01*
X155724480Y-88626656D01*
X155911018Y-88549390D01*
X156043037Y-88523130D01*
X156109045Y-88510000D01*
X156310955Y-88510000D01*
X156376963Y-88523130D01*
G37*
G36*
X141136963Y-88523130D02*
G01*
X141268982Y-88549390D01*
X141455520Y-88626656D01*
X141623400Y-88738830D01*
X141766170Y-88881600D01*
X141878344Y-89049480D01*
X141955610Y-89236018D01*
X141995000Y-89434046D01*
X141995000Y-89635954D01*
X141955610Y-89833982D01*
X141878344Y-90020520D01*
X141766170Y-90188400D01*
X141623400Y-90331170D01*
X141455520Y-90443344D01*
X141268982Y-90520610D01*
X141136963Y-90546870D01*
X141070955Y-90560000D01*
X140869045Y-90560000D01*
X140803037Y-90546870D01*
X140671018Y-90520610D01*
X140484480Y-90443344D01*
X140316600Y-90331170D01*
X140173830Y-90188400D01*
X140061656Y-90020520D01*
X139984390Y-89833982D01*
X139945000Y-89635954D01*
X139945000Y-89434046D01*
X139984390Y-89236018D01*
X140061656Y-89049480D01*
X140173830Y-88881600D01*
X140316600Y-88738830D01*
X140484480Y-88626656D01*
X140671018Y-88549390D01*
X140803037Y-88523130D01*
X140869045Y-88510000D01*
X141070955Y-88510000D01*
X141136963Y-88523130D01*
G37*
G36*
X148823351Y-88765743D02*
G01*
X148968941Y-88826048D01*
X149099970Y-88913599D01*
X149211401Y-89025030D01*
X149298952Y-89156059D01*
X149359257Y-89301649D01*
X149390000Y-89456206D01*
X149390000Y-89613794D01*
X149359257Y-89768351D01*
X149298952Y-89913941D01*
X149211401Y-90044970D01*
X149099970Y-90156401D01*
X148968941Y-90243952D01*
X148823351Y-90304257D01*
X148668794Y-90335000D01*
X148511206Y-90335000D01*
X148356649Y-90304257D01*
X148211059Y-90243952D01*
X148080030Y-90156401D01*
X147968599Y-90044970D01*
X147881048Y-89913941D01*
X147820743Y-89768351D01*
X147790000Y-89613794D01*
X147790000Y-89456206D01*
X147820743Y-89301649D01*
X147881048Y-89156059D01*
X147968599Y-89025030D01*
X148080030Y-88913599D01*
X148211059Y-88826048D01*
X148356649Y-88765743D01*
X148511206Y-88735000D01*
X148668794Y-88735000D01*
X148823351Y-88765743D01*
G37*
G36*
X133583351Y-88765743D02*
G01*
X133728941Y-88826048D01*
X133859970Y-88913599D01*
X133971401Y-89025030D01*
X134058952Y-89156059D01*
X134119257Y-89301649D01*
X134150000Y-89456206D01*
X134150000Y-89613794D01*
X134119257Y-89768351D01*
X134058952Y-89913941D01*
X133971401Y-90044970D01*
X133859970Y-90156401D01*
X133728941Y-90243952D01*
X133583351Y-90304257D01*
X133428794Y-90335000D01*
X133271206Y-90335000D01*
X133116649Y-90304257D01*
X132971059Y-90243952D01*
X132840030Y-90156401D01*
X132728599Y-90044970D01*
X132641048Y-89913941D01*
X132580743Y-89768351D01*
X132550000Y-89613794D01*
X132550000Y-89456206D01*
X132580743Y-89301649D01*
X132641048Y-89156059D01*
X132728599Y-89025030D01*
X132840030Y-88913599D01*
X132971059Y-88826048D01*
X133116649Y-88765743D01*
X133271206Y-88735000D01*
X133428794Y-88735000D01*
X133583351Y-88765743D01*
G37*
G36*
X130036000Y-89142000D02*
G01*
X128536000Y-89142000D01*
X128536000Y-87642000D01*
X130036000Y-87642000D01*
X130036000Y-89142000D01*
G37*
G36*
X120770935Y-86939664D02*
G01*
X120925624Y-87003739D01*
X120925626Y-87003740D01*
X121064844Y-87096762D01*
X121183238Y-87215156D01*
X121276260Y-87354374D01*
X121276261Y-87354376D01*
X121340336Y-87509065D01*
X121373000Y-87673281D01*
X121373000Y-87840719D01*
X121340336Y-88004935D01*
X121276261Y-88159624D01*
X121276260Y-88159626D01*
X121183238Y-88298844D01*
X121064844Y-88417238D01*
X120925626Y-88510260D01*
X120925625Y-88510261D01*
X120925624Y-88510261D01*
X120770935Y-88574336D01*
X120606719Y-88607000D01*
X120439281Y-88607000D01*
X120275065Y-88574336D01*
X120120376Y-88510261D01*
X120120375Y-88510261D01*
X120120374Y-88510260D01*
X119981156Y-88417238D01*
X119862762Y-88298844D01*
X119769740Y-88159626D01*
X119769739Y-88159624D01*
X119705664Y-88004935D01*
X119673000Y-87840719D01*
X119673000Y-87673281D01*
X119705664Y-87509065D01*
X119769739Y-87354376D01*
X119769740Y-87354374D01*
X119862762Y-87215156D01*
X119981156Y-87096762D01*
X120120374Y-87003740D01*
X120120376Y-87003739D01*
X120275065Y-86939664D01*
X120439281Y-86907000D01*
X120606719Y-86907000D01*
X120770935Y-86939664D01*
G37*
G36*
X123913000Y-88607000D02*
G01*
X122213000Y-88607000D01*
X122213000Y-86907000D01*
X123913000Y-86907000D01*
X123913000Y-88607000D01*
G37*
G36*
X118230935Y-86939664D02*
G01*
X118385624Y-87003739D01*
X118385626Y-87003740D01*
X118524844Y-87096762D01*
X118643238Y-87215156D01*
X118736260Y-87354374D01*
X118736261Y-87354376D01*
X118800336Y-87509065D01*
X118833000Y-87673281D01*
X118833000Y-87840719D01*
X118800336Y-88004935D01*
X118736261Y-88159624D01*
X118736260Y-88159626D01*
X118643238Y-88298844D01*
X118524844Y-88417238D01*
X118385626Y-88510260D01*
X118385625Y-88510261D01*
X118385624Y-88510261D01*
X118230935Y-88574336D01*
X118066719Y-88607000D01*
X117899281Y-88607000D01*
X117735065Y-88574336D01*
X117580376Y-88510261D01*
X117580375Y-88510261D01*
X117580374Y-88510260D01*
X117441156Y-88417238D01*
X117322762Y-88298844D01*
X117229740Y-88159626D01*
X117229739Y-88159624D01*
X117165664Y-88004935D01*
X117133000Y-87840719D01*
X117133000Y-87673281D01*
X117165664Y-87509065D01*
X117229739Y-87354376D01*
X117229740Y-87354374D01*
X117322762Y-87215156D01*
X117441156Y-87096762D01*
X117580374Y-87003740D01*
X117580376Y-87003739D01*
X117735065Y-86939664D01*
X117899281Y-86907000D01*
X118066719Y-86907000D01*
X118230935Y-86939664D01*
G37*
G36*
X156376963Y-85983130D02*
G01*
X156508982Y-86009390D01*
X156695520Y-86086656D01*
X156863400Y-86198830D01*
X157006170Y-86341600D01*
X157118344Y-86509480D01*
X157195610Y-86696018D01*
X157235000Y-86894046D01*
X157235000Y-87095954D01*
X157195610Y-87293982D01*
X157118344Y-87480520D01*
X157006170Y-87648400D01*
X156863400Y-87791170D01*
X156695520Y-87903344D01*
X156508982Y-87980610D01*
X156386691Y-88004935D01*
X156310955Y-88020000D01*
X156109045Y-88020000D01*
X156033309Y-88004935D01*
X155911018Y-87980610D01*
X155724480Y-87903344D01*
X155556600Y-87791170D01*
X155413830Y-87648400D01*
X155301656Y-87480520D01*
X155224390Y-87293982D01*
X155185000Y-87095954D01*
X155185000Y-86894046D01*
X155224390Y-86696018D01*
X155301656Y-86509480D01*
X155413830Y-86341600D01*
X155556600Y-86198830D01*
X155724480Y-86086656D01*
X155911018Y-86009390D01*
X156043037Y-85983130D01*
X156109045Y-85970000D01*
X156310955Y-85970000D01*
X156376963Y-85983130D01*
G37*
G36*
X141136963Y-85983130D02*
G01*
X141268982Y-86009390D01*
X141455520Y-86086656D01*
X141623400Y-86198830D01*
X141766170Y-86341600D01*
X141878344Y-86509480D01*
X141955610Y-86696018D01*
X141995000Y-86894046D01*
X141995000Y-87095954D01*
X141955610Y-87293982D01*
X141878344Y-87480520D01*
X141766170Y-87648400D01*
X141623400Y-87791170D01*
X141455520Y-87903344D01*
X141268982Y-87980610D01*
X141146691Y-88004935D01*
X141070955Y-88020000D01*
X140869045Y-88020000D01*
X140793309Y-88004935D01*
X140671018Y-87980610D01*
X140484480Y-87903344D01*
X140316600Y-87791170D01*
X140173830Y-87648400D01*
X140061656Y-87480520D01*
X139984390Y-87293982D01*
X139945000Y-87095954D01*
X139945000Y-86894046D01*
X139984390Y-86696018D01*
X140061656Y-86509480D01*
X140173830Y-86341600D01*
X140316600Y-86198830D01*
X140484480Y-86086656D01*
X140671018Y-86009390D01*
X140803037Y-85983130D01*
X140869045Y-85970000D01*
X141070955Y-85970000D01*
X141136963Y-85983130D01*
G37*
G36*
X133583351Y-86225743D02*
G01*
X133728941Y-86286048D01*
X133859970Y-86373599D01*
X133971401Y-86485030D01*
X134058952Y-86616059D01*
X134119257Y-86761649D01*
X134150000Y-86916206D01*
X134150000Y-87073794D01*
X134119257Y-87228351D01*
X134058952Y-87373941D01*
X133971401Y-87504970D01*
X133859970Y-87616401D01*
X133728941Y-87703952D01*
X133583351Y-87764257D01*
X133428794Y-87795000D01*
X133271206Y-87795000D01*
X133116649Y-87764257D01*
X132971059Y-87703952D01*
X132840030Y-87616401D01*
X132728599Y-87504970D01*
X132641048Y-87373941D01*
X132580743Y-87228351D01*
X132550000Y-87073794D01*
X132550000Y-86916206D01*
X132580743Y-86761649D01*
X132641048Y-86616059D01*
X132728599Y-86485030D01*
X132840030Y-86373599D01*
X132971059Y-86286048D01*
X133116649Y-86225743D01*
X133271206Y-86195000D01*
X133428794Y-86195000D01*
X133583351Y-86225743D01*
G37*
G36*
X148823351Y-86225743D02*
G01*
X148968941Y-86286048D01*
X149099970Y-86373599D01*
X149211401Y-86485030D01*
X149298952Y-86616059D01*
X149359257Y-86761649D01*
X149390000Y-86916206D01*
X149390000Y-87073794D01*
X149359257Y-87228351D01*
X149298952Y-87373941D01*
X149211401Y-87504970D01*
X149099970Y-87616401D01*
X148968941Y-87703952D01*
X148823351Y-87764257D01*
X148668794Y-87795000D01*
X148511206Y-87795000D01*
X148356649Y-87764257D01*
X148211059Y-87703952D01*
X148080030Y-87616401D01*
X147968599Y-87504970D01*
X147881048Y-87373941D01*
X147820743Y-87228351D01*
X147790000Y-87073794D01*
X147790000Y-86916206D01*
X147820743Y-86761649D01*
X147881048Y-86616059D01*
X147968599Y-86485030D01*
X148080030Y-86373599D01*
X148211059Y-86286048D01*
X148356649Y-86225743D01*
X148511206Y-86195000D01*
X148668794Y-86195000D01*
X148823351Y-86225743D01*
G37*
G36*
X156376963Y-83443130D02*
G01*
X156508982Y-83469390D01*
X156695520Y-83546656D01*
X156863400Y-83658830D01*
X157006170Y-83801600D01*
X157118344Y-83969480D01*
X157195610Y-84156018D01*
X157235000Y-84354046D01*
X157235000Y-84555954D01*
X157195610Y-84753982D01*
X157118344Y-84940520D01*
X157006170Y-85108400D01*
X156863400Y-85251170D01*
X156695520Y-85363344D01*
X156508982Y-85440610D01*
X156376963Y-85466870D01*
X156310955Y-85480000D01*
X156109045Y-85480000D01*
X156043037Y-85466870D01*
X155911018Y-85440610D01*
X155724480Y-85363344D01*
X155556600Y-85251170D01*
X155413830Y-85108400D01*
X155301656Y-84940520D01*
X155224390Y-84753982D01*
X155185000Y-84555954D01*
X155185000Y-84354046D01*
X155224390Y-84156018D01*
X155301656Y-83969480D01*
X155413830Y-83801600D01*
X155556600Y-83658830D01*
X155724480Y-83546656D01*
X155911018Y-83469390D01*
X156043037Y-83443130D01*
X156109045Y-83430000D01*
X156310955Y-83430000D01*
X156376963Y-83443130D01*
G37*
G36*
X141136963Y-83443130D02*
G01*
X141268982Y-83469390D01*
X141455520Y-83546656D01*
X141623400Y-83658830D01*
X141766170Y-83801600D01*
X141878344Y-83969480D01*
X141955610Y-84156018D01*
X141995000Y-84354046D01*
X141995000Y-84555954D01*
X141955610Y-84753982D01*
X141878344Y-84940520D01*
X141766170Y-85108400D01*
X141623400Y-85251170D01*
X141455520Y-85363344D01*
X141268982Y-85440610D01*
X141136963Y-85466870D01*
X141070955Y-85480000D01*
X140869045Y-85480000D01*
X140803037Y-85466870D01*
X140671018Y-85440610D01*
X140484480Y-85363344D01*
X140316600Y-85251170D01*
X140173830Y-85108400D01*
X140061656Y-84940520D01*
X139984390Y-84753982D01*
X139945000Y-84555954D01*
X139945000Y-84354046D01*
X139984390Y-84156018D01*
X140061656Y-83969480D01*
X140173830Y-83801600D01*
X140316600Y-83658830D01*
X140484480Y-83546656D01*
X140671018Y-83469390D01*
X140803037Y-83443130D01*
X140869045Y-83430000D01*
X141070955Y-83430000D01*
X141136963Y-83443130D01*
G37*
G36*
X133583351Y-83685743D02*
G01*
X133728941Y-83746048D01*
X133859970Y-83833599D01*
X133971401Y-83945030D01*
X134058952Y-84076059D01*
X134119257Y-84221649D01*
X134150000Y-84376206D01*
X134150000Y-84533794D01*
X134119257Y-84688351D01*
X134058952Y-84833941D01*
X133971401Y-84964970D01*
X133859970Y-85076401D01*
X133728941Y-85163952D01*
X133583351Y-85224257D01*
X133428794Y-85255000D01*
X133271206Y-85255000D01*
X133116649Y-85224257D01*
X132971059Y-85163952D01*
X132840030Y-85076401D01*
X132728599Y-84964970D01*
X132641048Y-84833941D01*
X132580743Y-84688351D01*
X132550000Y-84533794D01*
X132550000Y-84376206D01*
X132580743Y-84221649D01*
X132641048Y-84076059D01*
X132728599Y-83945030D01*
X132840030Y-83833599D01*
X132971059Y-83746048D01*
X133116649Y-83685743D01*
X133271206Y-83655000D01*
X133428794Y-83655000D01*
X133583351Y-83685743D01*
G37*
G36*
X148823351Y-83685743D02*
G01*
X148968941Y-83746048D01*
X149099970Y-83833599D01*
X149211401Y-83945030D01*
X149298952Y-84076059D01*
X149359257Y-84221649D01*
X149390000Y-84376206D01*
X149390000Y-84533794D01*
X149359257Y-84688351D01*
X149298952Y-84833941D01*
X149211401Y-84964970D01*
X149099970Y-85076401D01*
X148968941Y-85163952D01*
X148823351Y-85224257D01*
X148668794Y-85255000D01*
X148511206Y-85255000D01*
X148356649Y-85224257D01*
X148211059Y-85163952D01*
X148080030Y-85076401D01*
X147968599Y-84964970D01*
X147881048Y-84833941D01*
X147820743Y-84688351D01*
X147790000Y-84533794D01*
X147790000Y-84376206D01*
X147820743Y-84221649D01*
X147881048Y-84076059D01*
X147968599Y-83945030D01*
X148080030Y-83833599D01*
X148211059Y-83746048D01*
X148356649Y-83685743D01*
X148511206Y-83655000D01*
X148668794Y-83655000D01*
X148823351Y-83685743D01*
G37*
G36*
X156376963Y-80903130D02*
G01*
X156508982Y-80929390D01*
X156695520Y-81006656D01*
X156863400Y-81118830D01*
X157006170Y-81261600D01*
X157118344Y-81429480D01*
X157195610Y-81616018D01*
X157235000Y-81814046D01*
X157235000Y-82015954D01*
X157195610Y-82213982D01*
X157118344Y-82400520D01*
X157006170Y-82568400D01*
X156863400Y-82711170D01*
X156695520Y-82823344D01*
X156508982Y-82900610D01*
X156376963Y-82926870D01*
X156310955Y-82940000D01*
X156109045Y-82940000D01*
X156043037Y-82926870D01*
X155911018Y-82900610D01*
X155724480Y-82823344D01*
X155556600Y-82711170D01*
X155413830Y-82568400D01*
X155301656Y-82400520D01*
X155224390Y-82213982D01*
X155185000Y-82015954D01*
X155185000Y-81814046D01*
X155224390Y-81616018D01*
X155301656Y-81429480D01*
X155413830Y-81261600D01*
X155556600Y-81118830D01*
X155724480Y-81006656D01*
X155911018Y-80929390D01*
X156043037Y-80903130D01*
X156109045Y-80890000D01*
X156310955Y-80890000D01*
X156376963Y-80903130D01*
G37*
G36*
X141136963Y-80903130D02*
G01*
X141268982Y-80929390D01*
X141455520Y-81006656D01*
X141623400Y-81118830D01*
X141766170Y-81261600D01*
X141878344Y-81429480D01*
X141955610Y-81616018D01*
X141995000Y-81814046D01*
X141995000Y-82015954D01*
X141955610Y-82213982D01*
X141878344Y-82400520D01*
X141766170Y-82568400D01*
X141623400Y-82711170D01*
X141455520Y-82823344D01*
X141268982Y-82900610D01*
X141136963Y-82926870D01*
X141070955Y-82940000D01*
X140869045Y-82940000D01*
X140803037Y-82926870D01*
X140671018Y-82900610D01*
X140484480Y-82823344D01*
X140316600Y-82711170D01*
X140173830Y-82568400D01*
X140061656Y-82400520D01*
X139984390Y-82213982D01*
X139945000Y-82015954D01*
X139945000Y-81814046D01*
X139984390Y-81616018D01*
X140061656Y-81429480D01*
X140173830Y-81261600D01*
X140316600Y-81118830D01*
X140484480Y-81006656D01*
X140671018Y-80929390D01*
X140803037Y-80903130D01*
X140869045Y-80890000D01*
X141070955Y-80890000D01*
X141136963Y-80903130D01*
G37*
G36*
X133583351Y-81145743D02*
G01*
X133728941Y-81206048D01*
X133859970Y-81293599D01*
X133971401Y-81405030D01*
X134058952Y-81536059D01*
X134119257Y-81681649D01*
X134150000Y-81836206D01*
X134150000Y-81993794D01*
X134119257Y-82148351D01*
X134058952Y-82293941D01*
X133971401Y-82424970D01*
X133859970Y-82536401D01*
X133728941Y-82623952D01*
X133583351Y-82684257D01*
X133428794Y-82715000D01*
X133271206Y-82715000D01*
X133116649Y-82684257D01*
X132971059Y-82623952D01*
X132840030Y-82536401D01*
X132728599Y-82424970D01*
X132641048Y-82293941D01*
X132580743Y-82148351D01*
X132550000Y-81993794D01*
X132550000Y-81836206D01*
X132580743Y-81681649D01*
X132641048Y-81536059D01*
X132728599Y-81405030D01*
X132840030Y-81293599D01*
X132971059Y-81206048D01*
X133116649Y-81145743D01*
X133271206Y-81115000D01*
X133428794Y-81115000D01*
X133583351Y-81145743D01*
G37*
G36*
X148823351Y-81145743D02*
G01*
X148968941Y-81206048D01*
X149099970Y-81293599D01*
X149211401Y-81405030D01*
X149298952Y-81536059D01*
X149359257Y-81681649D01*
X149390000Y-81836206D01*
X149390000Y-81993794D01*
X149359257Y-82148351D01*
X149298952Y-82293941D01*
X149211401Y-82424970D01*
X149099970Y-82536401D01*
X148968941Y-82623952D01*
X148823351Y-82684257D01*
X148668794Y-82715000D01*
X148511206Y-82715000D01*
X148356649Y-82684257D01*
X148211059Y-82623952D01*
X148080030Y-82536401D01*
X147968599Y-82424970D01*
X147881048Y-82293941D01*
X147820743Y-82148351D01*
X147790000Y-81993794D01*
X147790000Y-81836206D01*
X147820743Y-81681649D01*
X147881048Y-81536059D01*
X147968599Y-81405030D01*
X148080030Y-81293599D01*
X148211059Y-81206048D01*
X148356649Y-81145743D01*
X148511206Y-81115000D01*
X148668794Y-81115000D01*
X148823351Y-81145743D01*
G37*
G36*
X156376963Y-78363130D02*
G01*
X156508982Y-78389390D01*
X156695520Y-78466656D01*
X156863400Y-78578830D01*
X157006170Y-78721600D01*
X157118344Y-78889480D01*
X157195610Y-79076018D01*
X157235000Y-79274046D01*
X157235000Y-79475954D01*
X157195610Y-79673982D01*
X157118344Y-79860520D01*
X157006170Y-80028400D01*
X156863400Y-80171170D01*
X156695520Y-80283344D01*
X156508982Y-80360610D01*
X156376963Y-80386870D01*
X156310955Y-80400000D01*
X156109045Y-80400000D01*
X156043037Y-80386870D01*
X155911018Y-80360610D01*
X155724480Y-80283344D01*
X155556600Y-80171170D01*
X155413830Y-80028400D01*
X155301656Y-79860520D01*
X155224390Y-79673982D01*
X155185000Y-79475954D01*
X155185000Y-79274046D01*
X155224390Y-79076018D01*
X155301656Y-78889480D01*
X155413830Y-78721600D01*
X155556600Y-78578830D01*
X155724480Y-78466656D01*
X155911018Y-78389390D01*
X156043037Y-78363130D01*
X156109045Y-78350000D01*
X156310955Y-78350000D01*
X156376963Y-78363130D01*
G37*
G36*
X141136963Y-78363130D02*
G01*
X141268982Y-78389390D01*
X141455520Y-78466656D01*
X141623400Y-78578830D01*
X141766170Y-78721600D01*
X141878344Y-78889480D01*
X141955610Y-79076018D01*
X141995000Y-79274046D01*
X141995000Y-79475954D01*
X141955610Y-79673982D01*
X141878344Y-79860520D01*
X141766170Y-80028400D01*
X141623400Y-80171170D01*
X141455520Y-80283344D01*
X141268982Y-80360610D01*
X141136963Y-80386870D01*
X141070955Y-80400000D01*
X140869045Y-80400000D01*
X140803037Y-80386870D01*
X140671018Y-80360610D01*
X140484480Y-80283344D01*
X140316600Y-80171170D01*
X140173830Y-80028400D01*
X140061656Y-79860520D01*
X139984390Y-79673982D01*
X139945000Y-79475954D01*
X139945000Y-79274046D01*
X139984390Y-79076018D01*
X140061656Y-78889480D01*
X140173830Y-78721600D01*
X140316600Y-78578830D01*
X140484480Y-78466656D01*
X140671018Y-78389390D01*
X140803037Y-78363130D01*
X140869045Y-78350000D01*
X141070955Y-78350000D01*
X141136963Y-78363130D01*
G37*
G36*
X148823351Y-78605743D02*
G01*
X148968941Y-78666048D01*
X149099970Y-78753599D01*
X149211401Y-78865030D01*
X149298952Y-78996059D01*
X149359257Y-79141649D01*
X149390000Y-79296206D01*
X149390000Y-79453794D01*
X149359257Y-79608351D01*
X149298952Y-79753941D01*
X149211401Y-79884970D01*
X149099970Y-79996401D01*
X148968941Y-80083952D01*
X148823351Y-80144257D01*
X148668794Y-80175000D01*
X148511206Y-80175000D01*
X148356649Y-80144257D01*
X148211059Y-80083952D01*
X148080030Y-79996401D01*
X147968599Y-79884970D01*
X147881048Y-79753941D01*
X147820743Y-79608351D01*
X147790000Y-79453794D01*
X147790000Y-79296206D01*
X147820743Y-79141649D01*
X147881048Y-78996059D01*
X147968599Y-78865030D01*
X148080030Y-78753599D01*
X148211059Y-78666048D01*
X148356649Y-78605743D01*
X148511206Y-78575000D01*
X148668794Y-78575000D01*
X148823351Y-78605743D01*
G37*
G36*
X133583351Y-78605743D02*
G01*
X133728941Y-78666048D01*
X133859970Y-78753599D01*
X133971401Y-78865030D01*
X134058952Y-78996059D01*
X134119257Y-79141649D01*
X134150000Y-79296206D01*
X134150000Y-79453794D01*
X134119257Y-79608351D01*
X134058952Y-79753941D01*
X133971401Y-79884970D01*
X133859970Y-79996401D01*
X133728941Y-80083952D01*
X133583351Y-80144257D01*
X133428794Y-80175000D01*
X133271206Y-80175000D01*
X133116649Y-80144257D01*
X132971059Y-80083952D01*
X132840030Y-79996401D01*
X132728599Y-79884970D01*
X132641048Y-79753941D01*
X132580743Y-79608351D01*
X132550000Y-79453794D01*
X132550000Y-79296206D01*
X132580743Y-79141649D01*
X132641048Y-78996059D01*
X132728599Y-78865030D01*
X132840030Y-78753599D01*
X132971059Y-78666048D01*
X133116649Y-78605743D01*
X133271206Y-78575000D01*
X133428794Y-78575000D01*
X133583351Y-78605743D01*
G37*
G36*
X156376963Y-75823130D02*
G01*
X156508982Y-75849390D01*
X156695520Y-75926656D01*
X156863400Y-76038830D01*
X157006170Y-76181600D01*
X157118344Y-76349480D01*
X157195610Y-76536018D01*
X157235000Y-76734046D01*
X157235000Y-76935954D01*
X157195610Y-77133982D01*
X157118344Y-77320520D01*
X157006170Y-77488400D01*
X156863400Y-77631170D01*
X156695520Y-77743344D01*
X156508982Y-77820610D01*
X156376963Y-77846870D01*
X156310955Y-77860000D01*
X156109045Y-77860000D01*
X156043037Y-77846870D01*
X155911018Y-77820610D01*
X155724480Y-77743344D01*
X155556600Y-77631170D01*
X155413830Y-77488400D01*
X155301656Y-77320520D01*
X155224390Y-77133982D01*
X155185000Y-76935954D01*
X155185000Y-76734046D01*
X155224390Y-76536018D01*
X155301656Y-76349480D01*
X155413830Y-76181600D01*
X155556600Y-76038830D01*
X155724480Y-75926656D01*
X155911018Y-75849390D01*
X156043037Y-75823130D01*
X156109045Y-75810000D01*
X156310955Y-75810000D01*
X156376963Y-75823130D01*
G37*
G36*
X141136963Y-75823130D02*
G01*
X141268982Y-75849390D01*
X141455520Y-75926656D01*
X141623400Y-76038830D01*
X141766170Y-76181600D01*
X141878344Y-76349480D01*
X141955610Y-76536018D01*
X141995000Y-76734046D01*
X141995000Y-76935954D01*
X141955610Y-77133982D01*
X141878344Y-77320520D01*
X141766170Y-77488400D01*
X141623400Y-77631170D01*
X141455520Y-77743344D01*
X141268982Y-77820610D01*
X141136963Y-77846870D01*
X141070955Y-77860000D01*
X140869045Y-77860000D01*
X140803037Y-77846870D01*
X140671018Y-77820610D01*
X140484480Y-77743344D01*
X140316600Y-77631170D01*
X140173830Y-77488400D01*
X140061656Y-77320520D01*
X139984390Y-77133982D01*
X139945000Y-76935954D01*
X139945000Y-76734046D01*
X139984390Y-76536018D01*
X140061656Y-76349480D01*
X140173830Y-76181600D01*
X140316600Y-76038830D01*
X140484480Y-75926656D01*
X140671018Y-75849390D01*
X140803037Y-75823130D01*
X140869045Y-75810000D01*
X141070955Y-75810000D01*
X141136963Y-75823130D01*
G37*
G36*
X148823351Y-76065743D02*
G01*
X148968941Y-76126048D01*
X149099970Y-76213599D01*
X149211401Y-76325030D01*
X149298952Y-76456059D01*
X149359257Y-76601649D01*
X149390000Y-76756206D01*
X149390000Y-76913794D01*
X149359257Y-77068351D01*
X149298952Y-77213941D01*
X149211401Y-77344970D01*
X149099970Y-77456401D01*
X148968941Y-77543952D01*
X148823351Y-77604257D01*
X148668794Y-77635000D01*
X148511206Y-77635000D01*
X148356649Y-77604257D01*
X148211059Y-77543952D01*
X148080030Y-77456401D01*
X147968599Y-77344970D01*
X147881048Y-77213941D01*
X147820743Y-77068351D01*
X147790000Y-76913794D01*
X147790000Y-76756206D01*
X147820743Y-76601649D01*
X147881048Y-76456059D01*
X147968599Y-76325030D01*
X148080030Y-76213599D01*
X148211059Y-76126048D01*
X148356649Y-76065743D01*
X148511206Y-76035000D01*
X148668794Y-76035000D01*
X148823351Y-76065743D01*
G37*
G36*
X133583351Y-76065743D02*
G01*
X133728941Y-76126048D01*
X133859970Y-76213599D01*
X133971401Y-76325030D01*
X134058952Y-76456059D01*
X134119257Y-76601649D01*
X134150000Y-76756206D01*
X134150000Y-76913794D01*
X134119257Y-77068351D01*
X134058952Y-77213941D01*
X133971401Y-77344970D01*
X133859970Y-77456401D01*
X133728941Y-77543952D01*
X133583351Y-77604257D01*
X133428794Y-77635000D01*
X133271206Y-77635000D01*
X133116649Y-77604257D01*
X132971059Y-77543952D01*
X132840030Y-77456401D01*
X132728599Y-77344970D01*
X132641048Y-77213941D01*
X132580743Y-77068351D01*
X132550000Y-76913794D01*
X132550000Y-76756206D01*
X132580743Y-76601649D01*
X132641048Y-76456059D01*
X132728599Y-76325030D01*
X132840030Y-76213599D01*
X132971059Y-76126048D01*
X133116649Y-76065743D01*
X133271206Y-76035000D01*
X133428794Y-76035000D01*
X133583351Y-76065743D01*
G37*
G36*
X141136963Y-73283130D02*
G01*
X141268982Y-73309390D01*
X141455520Y-73386656D01*
X141623400Y-73498830D01*
X141766170Y-73641600D01*
X141878344Y-73809480D01*
X141955610Y-73996018D01*
X141955610Y-73996020D01*
X141993927Y-74188649D01*
X141995000Y-74194046D01*
X141995000Y-74395954D01*
X141955610Y-74593982D01*
X141878344Y-74780520D01*
X141766170Y-74948400D01*
X141623400Y-75091170D01*
X141455520Y-75203344D01*
X141268982Y-75280610D01*
X141136963Y-75306870D01*
X141070955Y-75320000D01*
X140869045Y-75320000D01*
X140803037Y-75306870D01*
X140671018Y-75280610D01*
X140484480Y-75203344D01*
X140316600Y-75091170D01*
X140173830Y-74948400D01*
X140061656Y-74780520D01*
X139984390Y-74593982D01*
X139945000Y-74395954D01*
X139945000Y-74194046D01*
X139946074Y-74188649D01*
X139984390Y-73996020D01*
X139984390Y-73996018D01*
X140061656Y-73809480D01*
X140173830Y-73641600D01*
X140316600Y-73498830D01*
X140484480Y-73386656D01*
X140671018Y-73309390D01*
X140803037Y-73283130D01*
X140869045Y-73270000D01*
X141070955Y-73270000D01*
X141136963Y-73283130D01*
G37*
G36*
X156376963Y-73283130D02*
G01*
X156508982Y-73309390D01*
X156695520Y-73386656D01*
X156863400Y-73498830D01*
X157006170Y-73641600D01*
X157118344Y-73809480D01*
X157195610Y-73996018D01*
X157195610Y-73996020D01*
X157233927Y-74188649D01*
X157235000Y-74194046D01*
X157235000Y-74395954D01*
X157195610Y-74593982D01*
X157118344Y-74780520D01*
X157006170Y-74948400D01*
X156863400Y-75091170D01*
X156695520Y-75203344D01*
X156508982Y-75280610D01*
X156376963Y-75306870D01*
X156310955Y-75320000D01*
X156109045Y-75320000D01*
X156043037Y-75306870D01*
X155911018Y-75280610D01*
X155724480Y-75203344D01*
X155556600Y-75091170D01*
X155413830Y-74948400D01*
X155301656Y-74780520D01*
X155224390Y-74593982D01*
X155185000Y-74395954D01*
X155185000Y-74194046D01*
X155186074Y-74188649D01*
X155224390Y-73996020D01*
X155224390Y-73996018D01*
X155301656Y-73809480D01*
X155413830Y-73641600D01*
X155556600Y-73498830D01*
X155724480Y-73386656D01*
X155911018Y-73309390D01*
X156043037Y-73283130D01*
X156109045Y-73270000D01*
X156310955Y-73270000D01*
X156376963Y-73283130D01*
G37*
G36*
X122788351Y-73652743D02*
G01*
X122933941Y-73713048D01*
X123064970Y-73800599D01*
X123176401Y-73912030D01*
X123263952Y-74043059D01*
X123324257Y-74188649D01*
X123355000Y-74343206D01*
X123355000Y-74500794D01*
X123324257Y-74655351D01*
X123263952Y-74800941D01*
X123176401Y-74931970D01*
X123064970Y-75043401D01*
X122933941Y-75130952D01*
X122788351Y-75191257D01*
X122633794Y-75222000D01*
X122476206Y-75222000D01*
X122321649Y-75191257D01*
X122176059Y-75130952D01*
X122045030Y-75043401D01*
X121933599Y-74931970D01*
X121846048Y-74800941D01*
X121785743Y-74655351D01*
X121755000Y-74500794D01*
X121755000Y-74343206D01*
X121785743Y-74188649D01*
X121846048Y-74043059D01*
X121933599Y-73912030D01*
X122045030Y-73800599D01*
X122176059Y-73713048D01*
X122321649Y-73652743D01*
X122476206Y-73622000D01*
X122633794Y-73622000D01*
X122788351Y-73652743D01*
G37*
G36*
X125328351Y-73652743D02*
G01*
X125473941Y-73713048D01*
X125604970Y-73800599D01*
X125716401Y-73912030D01*
X125803952Y-74043059D01*
X125864257Y-74188649D01*
X125895000Y-74343206D01*
X125895000Y-74500794D01*
X125864257Y-74655351D01*
X125803952Y-74800941D01*
X125716401Y-74931970D01*
X125604970Y-75043401D01*
X125473941Y-75130952D01*
X125328351Y-75191257D01*
X125173794Y-75222000D01*
X125016206Y-75222000D01*
X124861649Y-75191257D01*
X124716059Y-75130952D01*
X124585030Y-75043401D01*
X124473599Y-74931970D01*
X124386048Y-74800941D01*
X124325743Y-74655351D01*
X124295000Y-74500794D01*
X124295000Y-74343206D01*
X124325743Y-74188649D01*
X124386048Y-74043059D01*
X124473599Y-73912030D01*
X124585030Y-73800599D01*
X124716059Y-73713048D01*
X124861649Y-73652743D01*
X125016206Y-73622000D01*
X125173794Y-73622000D01*
X125328351Y-73652743D01*
G37*
G36*
X128435000Y-75222000D02*
G01*
X126835000Y-75222000D01*
X126835000Y-73622000D01*
X128435000Y-73622000D01*
X128435000Y-75222000D01*
G37*
G36*
X148823351Y-73525743D02*
G01*
X148968941Y-73586048D01*
X149099970Y-73673599D01*
X149211401Y-73785030D01*
X149298952Y-73916059D01*
X149359257Y-74061649D01*
X149390000Y-74216206D01*
X149390000Y-74373794D01*
X149359257Y-74528351D01*
X149298952Y-74673941D01*
X149211401Y-74804970D01*
X149099970Y-74916401D01*
X148968941Y-75003952D01*
X148823351Y-75064257D01*
X148668794Y-75095000D01*
X148511206Y-75095000D01*
X148356649Y-75064257D01*
X148211059Y-75003952D01*
X148080030Y-74916401D01*
X147968599Y-74804970D01*
X147881048Y-74673941D01*
X147820743Y-74528351D01*
X147790000Y-74373794D01*
X147790000Y-74216206D01*
X147820743Y-74061649D01*
X147881048Y-73916059D01*
X147968599Y-73785030D01*
X148080030Y-73673599D01*
X148211059Y-73586048D01*
X148356649Y-73525743D01*
X148511206Y-73495000D01*
X148668794Y-73495000D01*
X148823351Y-73525743D01*
G37*
G36*
X133583351Y-73525743D02*
G01*
X133728941Y-73586048D01*
X133859970Y-73673599D01*
X133971401Y-73785030D01*
X134058952Y-73916059D01*
X134119257Y-74061649D01*
X134150000Y-74216206D01*
X134150000Y-74373794D01*
X134119257Y-74528351D01*
X134058952Y-74673941D01*
X133971401Y-74804970D01*
X133859970Y-74916401D01*
X133728941Y-75003952D01*
X133583351Y-75064257D01*
X133428794Y-75095000D01*
X133271206Y-75095000D01*
X133116649Y-75064257D01*
X132971059Y-75003952D01*
X132840030Y-74916401D01*
X132728599Y-74804970D01*
X132641048Y-74673941D01*
X132580743Y-74528351D01*
X132550000Y-74373794D01*
X132550000Y-74216206D01*
X132580743Y-74061649D01*
X132641048Y-73916059D01*
X132728599Y-73785030D01*
X132840030Y-73673599D01*
X132971059Y-73586048D01*
X133116649Y-73525743D01*
X133271206Y-73495000D01*
X133428794Y-73495000D01*
X133583351Y-73525743D01*
G37*
G36*
X156376963Y-70743130D02*
G01*
X156508982Y-70769390D01*
X156695520Y-70846656D01*
X156863400Y-70958830D01*
X157006170Y-71101600D01*
X157118344Y-71269480D01*
X157195610Y-71456018D01*
X157235000Y-71654046D01*
X157235000Y-71855954D01*
X157195610Y-72053982D01*
X157118344Y-72240520D01*
X157006170Y-72408400D01*
X156863400Y-72551170D01*
X156695520Y-72663344D01*
X156508982Y-72740610D01*
X156376963Y-72766870D01*
X156310955Y-72780000D01*
X156109045Y-72780000D01*
X156043037Y-72766870D01*
X155911018Y-72740610D01*
X155724480Y-72663344D01*
X155556600Y-72551170D01*
X155413830Y-72408400D01*
X155301656Y-72240520D01*
X155224390Y-72053982D01*
X155185000Y-71855954D01*
X155185000Y-71654046D01*
X155224390Y-71456018D01*
X155301656Y-71269480D01*
X155413830Y-71101600D01*
X155556600Y-70958830D01*
X155724480Y-70846656D01*
X155911018Y-70769390D01*
X156043037Y-70743130D01*
X156109045Y-70730000D01*
X156310955Y-70730000D01*
X156376963Y-70743130D01*
G37*
G36*
X141136963Y-70743130D02*
G01*
X141268982Y-70769390D01*
X141455520Y-70846656D01*
X141623400Y-70958830D01*
X141766170Y-71101600D01*
X141878344Y-71269480D01*
X141955610Y-71456018D01*
X141995000Y-71654046D01*
X141995000Y-71855954D01*
X141955610Y-72053982D01*
X141878344Y-72240520D01*
X141766170Y-72408400D01*
X141623400Y-72551170D01*
X141455520Y-72663344D01*
X141268982Y-72740610D01*
X141136963Y-72766870D01*
X141070955Y-72780000D01*
X140869045Y-72780000D01*
X140803037Y-72766870D01*
X140671018Y-72740610D01*
X140484480Y-72663344D01*
X140316600Y-72551170D01*
X140173830Y-72408400D01*
X140061656Y-72240520D01*
X139984390Y-72053982D01*
X139945000Y-71855954D01*
X139945000Y-71654046D01*
X139984390Y-71456018D01*
X140061656Y-71269480D01*
X140173830Y-71101600D01*
X140316600Y-70958830D01*
X140484480Y-70846656D01*
X140671018Y-70769390D01*
X140803037Y-70743130D01*
X140869045Y-70730000D01*
X141070955Y-70730000D01*
X141136963Y-70743130D01*
G37*
G36*
X133583351Y-70985743D02*
G01*
X133728941Y-71046048D01*
X133859970Y-71133599D01*
X133971401Y-71245030D01*
X134058952Y-71376059D01*
X134119257Y-71521649D01*
X134150000Y-71676206D01*
X134150000Y-71833794D01*
X134119257Y-71988351D01*
X134058952Y-72133941D01*
X133971401Y-72264970D01*
X133859970Y-72376401D01*
X133728941Y-72463952D01*
X133583351Y-72524257D01*
X133428794Y-72555000D01*
X133271206Y-72555000D01*
X133116649Y-72524257D01*
X132971059Y-72463952D01*
X132840030Y-72376401D01*
X132728599Y-72264970D01*
X132641048Y-72133941D01*
X132580743Y-71988351D01*
X132550000Y-71833794D01*
X132550000Y-71676206D01*
X132580743Y-71521649D01*
X132641048Y-71376059D01*
X132728599Y-71245030D01*
X132840030Y-71133599D01*
X132971059Y-71046048D01*
X133116649Y-70985743D01*
X133271206Y-70955000D01*
X133428794Y-70955000D01*
X133583351Y-70985743D01*
G37*
G36*
X148823351Y-70985743D02*
G01*
X148968941Y-71046048D01*
X149099970Y-71133599D01*
X149211401Y-71245030D01*
X149298952Y-71376059D01*
X149359257Y-71521649D01*
X149390000Y-71676206D01*
X149390000Y-71833794D01*
X149359257Y-71988351D01*
X149298952Y-72133941D01*
X149211401Y-72264970D01*
X149099970Y-72376401D01*
X148968941Y-72463952D01*
X148823351Y-72524257D01*
X148668794Y-72555000D01*
X148511206Y-72555000D01*
X148356649Y-72524257D01*
X148211059Y-72463952D01*
X148080030Y-72376401D01*
X147968599Y-72264970D01*
X147881048Y-72133941D01*
X147820743Y-71988351D01*
X147790000Y-71833794D01*
X147790000Y-71676206D01*
X147820743Y-71521649D01*
X147881048Y-71376059D01*
X147968599Y-71245030D01*
X148080030Y-71133599D01*
X148211059Y-71046048D01*
X148356649Y-70985743D01*
X148511206Y-70955000D01*
X148668794Y-70955000D01*
X148823351Y-70985743D01*
G37*
G36*
X127868351Y-70152743D02*
G01*
X128013941Y-70213048D01*
X128144970Y-70300599D01*
X128256401Y-70412030D01*
X128343952Y-70543059D01*
X128404257Y-70688649D01*
X128435000Y-70843206D01*
X128435000Y-71000794D01*
X128404257Y-71155351D01*
X128343952Y-71300941D01*
X128256401Y-71431970D01*
X128144970Y-71543401D01*
X128013941Y-71630952D01*
X127868351Y-71691257D01*
X127713794Y-71722000D01*
X127556206Y-71722000D01*
X127401649Y-71691257D01*
X127256059Y-71630952D01*
X127125030Y-71543401D01*
X127013599Y-71431970D01*
X126926048Y-71300941D01*
X126865743Y-71155351D01*
X126835000Y-71000794D01*
X126835000Y-70843206D01*
X126865743Y-70688649D01*
X126926048Y-70543059D01*
X127013599Y-70412030D01*
X127125030Y-70300599D01*
X127256059Y-70213048D01*
X127401649Y-70152743D01*
X127556206Y-70122000D01*
X127713794Y-70122000D01*
X127868351Y-70152743D01*
G37*
G36*
X125328351Y-70152743D02*
G01*
X125473941Y-70213048D01*
X125604970Y-70300599D01*
X125716401Y-70412030D01*
X125803952Y-70543059D01*
X125864257Y-70688649D01*
X125895000Y-70843206D01*
X125895000Y-71000794D01*
X125864257Y-71155351D01*
X125803952Y-71300941D01*
X125716401Y-71431970D01*
X125604970Y-71543401D01*
X125473941Y-71630952D01*
X125328351Y-71691257D01*
X125173794Y-71722000D01*
X125016206Y-71722000D01*
X124861649Y-71691257D01*
X124716059Y-71630952D01*
X124585030Y-71543401D01*
X124473599Y-71431970D01*
X124386048Y-71300941D01*
X124325743Y-71155351D01*
X124295000Y-71000794D01*
X124295000Y-70843206D01*
X124325743Y-70688649D01*
X124386048Y-70543059D01*
X124473599Y-70412030D01*
X124585030Y-70300599D01*
X124716059Y-70213048D01*
X124861649Y-70152743D01*
X125016206Y-70122000D01*
X125173794Y-70122000D01*
X125328351Y-70152743D01*
G37*
G36*
X122788351Y-70152743D02*
G01*
X122933941Y-70213048D01*
X123064970Y-70300599D01*
X123176401Y-70412030D01*
X123263952Y-70543059D01*
X123324257Y-70688649D01*
X123355000Y-70843206D01*
X123355000Y-71000794D01*
X123324257Y-71155351D01*
X123263952Y-71300941D01*
X123176401Y-71431970D01*
X123064970Y-71543401D01*
X122933941Y-71630952D01*
X122788351Y-71691257D01*
X122633794Y-71722000D01*
X122476206Y-71722000D01*
X122321649Y-71691257D01*
X122176059Y-71630952D01*
X122045030Y-71543401D01*
X121933599Y-71431970D01*
X121846048Y-71300941D01*
X121785743Y-71155351D01*
X121755000Y-71000794D01*
X121755000Y-70843206D01*
X121785743Y-70688649D01*
X121846048Y-70543059D01*
X121933599Y-70412030D01*
X122045030Y-70300599D01*
X122176059Y-70213048D01*
X122321649Y-70152743D01*
X122476206Y-70122000D01*
X122633794Y-70122000D01*
X122788351Y-70152743D01*
G37*
G36*
X156376963Y-68203130D02*
G01*
X156508982Y-68229390D01*
X156695520Y-68306656D01*
X156863400Y-68418830D01*
X157006170Y-68561600D01*
X157118344Y-68729480D01*
X157195610Y-68916018D01*
X157235000Y-69114046D01*
X157235000Y-69315954D01*
X157195610Y-69513982D01*
X157118344Y-69700520D01*
X157006170Y-69868400D01*
X156863400Y-70011170D01*
X156695520Y-70123344D01*
X156508982Y-70200610D01*
X156376963Y-70226870D01*
X156310955Y-70240000D01*
X156109045Y-70240000D01*
X156043037Y-70226870D01*
X155911018Y-70200610D01*
X155724480Y-70123344D01*
X155556600Y-70011170D01*
X155413830Y-69868400D01*
X155301656Y-69700520D01*
X155224390Y-69513982D01*
X155185000Y-69315954D01*
X155185000Y-69114046D01*
X155224390Y-68916018D01*
X155301656Y-68729480D01*
X155413830Y-68561600D01*
X155556600Y-68418830D01*
X155724480Y-68306656D01*
X155911018Y-68229390D01*
X156043037Y-68203130D01*
X156109045Y-68190000D01*
X156310955Y-68190000D01*
X156376963Y-68203130D01*
G37*
G36*
X141136963Y-68203130D02*
G01*
X141268982Y-68229390D01*
X141455520Y-68306656D01*
X141623400Y-68418830D01*
X141766170Y-68561600D01*
X141878344Y-68729480D01*
X141955610Y-68916018D01*
X141995000Y-69114046D01*
X141995000Y-69315954D01*
X141955610Y-69513982D01*
X141878344Y-69700520D01*
X141766170Y-69868400D01*
X141623400Y-70011170D01*
X141455520Y-70123344D01*
X141268982Y-70200610D01*
X141136963Y-70226870D01*
X141070955Y-70240000D01*
X140869045Y-70240000D01*
X140803037Y-70226870D01*
X140671018Y-70200610D01*
X140484480Y-70123344D01*
X140316600Y-70011170D01*
X140173830Y-69868400D01*
X140061656Y-69700520D01*
X139984390Y-69513982D01*
X139945000Y-69315954D01*
X139945000Y-69114046D01*
X139984390Y-68916018D01*
X140061656Y-68729480D01*
X140173830Y-68561600D01*
X140316600Y-68418830D01*
X140484480Y-68306656D01*
X140671018Y-68229390D01*
X140803037Y-68203130D01*
X140869045Y-68190000D01*
X141070955Y-68190000D01*
X141136963Y-68203130D01*
G37*
G36*
X133583351Y-68445743D02*
G01*
X133728941Y-68506048D01*
X133859970Y-68593599D01*
X133971401Y-68705030D01*
X134058952Y-68836059D01*
X134119257Y-68981649D01*
X134150000Y-69136206D01*
X134150000Y-69293794D01*
X134119257Y-69448351D01*
X134058952Y-69593941D01*
X133971401Y-69724970D01*
X133859970Y-69836401D01*
X133728941Y-69923952D01*
X133583351Y-69984257D01*
X133428794Y-70015000D01*
X133271206Y-70015000D01*
X133116649Y-69984257D01*
X132971059Y-69923952D01*
X132840030Y-69836401D01*
X132728599Y-69724970D01*
X132641048Y-69593941D01*
X132580743Y-69448351D01*
X132550000Y-69293794D01*
X132550000Y-69136206D01*
X132580743Y-68981649D01*
X132641048Y-68836059D01*
X132728599Y-68705030D01*
X132840030Y-68593599D01*
X132971059Y-68506048D01*
X133116649Y-68445743D01*
X133271206Y-68415000D01*
X133428794Y-68415000D01*
X133583351Y-68445743D01*
G37*
G36*
X148823351Y-68445743D02*
G01*
X148968941Y-68506048D01*
X149099970Y-68593599D01*
X149211401Y-68705030D01*
X149298952Y-68836059D01*
X149359257Y-68981649D01*
X149390000Y-69136206D01*
X149390000Y-69293794D01*
X149359257Y-69448351D01*
X149298952Y-69593941D01*
X149211401Y-69724970D01*
X149099970Y-69836401D01*
X148968941Y-69923952D01*
X148823351Y-69984257D01*
X148668794Y-70015000D01*
X148511206Y-70015000D01*
X148356649Y-69984257D01*
X148211059Y-69923952D01*
X148080030Y-69836401D01*
X147968599Y-69724970D01*
X147881048Y-69593941D01*
X147820743Y-69448351D01*
X147790000Y-69293794D01*
X147790000Y-69136206D01*
X147820743Y-68981649D01*
X147881048Y-68836059D01*
X147968599Y-68705030D01*
X148080030Y-68593599D01*
X148211059Y-68506048D01*
X148356649Y-68445743D01*
X148511206Y-68415000D01*
X148668794Y-68415000D01*
X148823351Y-68445743D01*
G37*
G36*
X156376963Y-65663130D02*
G01*
X156508982Y-65689390D01*
X156695520Y-65766656D01*
X156863400Y-65878830D01*
X157006170Y-66021600D01*
X157118344Y-66189480D01*
X157195610Y-66376018D01*
X157235000Y-66574046D01*
X157235000Y-66775954D01*
X157195610Y-66973982D01*
X157118344Y-67160520D01*
X157006170Y-67328400D01*
X156863400Y-67471170D01*
X156695520Y-67583344D01*
X156508982Y-67660610D01*
X156376963Y-67686870D01*
X156310955Y-67700000D01*
X156109045Y-67700000D01*
X156043037Y-67686870D01*
X155911018Y-67660610D01*
X155724480Y-67583344D01*
X155556600Y-67471170D01*
X155413830Y-67328400D01*
X155301656Y-67160520D01*
X155224390Y-66973982D01*
X155185000Y-66775954D01*
X155185000Y-66574046D01*
X155224390Y-66376018D01*
X155301656Y-66189480D01*
X155413830Y-66021600D01*
X155556600Y-65878830D01*
X155724480Y-65766656D01*
X155911018Y-65689390D01*
X156043037Y-65663130D01*
X156109045Y-65650000D01*
X156310955Y-65650000D01*
X156376963Y-65663130D01*
G37*
G36*
X141136963Y-65663130D02*
G01*
X141268982Y-65689390D01*
X141455520Y-65766656D01*
X141623400Y-65878830D01*
X141766170Y-66021600D01*
X141878344Y-66189480D01*
X141955610Y-66376018D01*
X141995000Y-66574046D01*
X141995000Y-66775954D01*
X141955610Y-66973982D01*
X141878344Y-67160520D01*
X141766170Y-67328400D01*
X141623400Y-67471170D01*
X141455520Y-67583344D01*
X141268982Y-67660610D01*
X141136963Y-67686870D01*
X141070955Y-67700000D01*
X140869045Y-67700000D01*
X140803037Y-67686870D01*
X140671018Y-67660610D01*
X140484480Y-67583344D01*
X140316600Y-67471170D01*
X140173830Y-67328400D01*
X140061656Y-67160520D01*
X139984390Y-66973982D01*
X139945000Y-66775954D01*
X139945000Y-66574046D01*
X139984390Y-66376018D01*
X140061656Y-66189480D01*
X140173830Y-66021600D01*
X140316600Y-65878830D01*
X140484480Y-65766656D01*
X140671018Y-65689390D01*
X140803037Y-65663130D01*
X140869045Y-65650000D01*
X141070955Y-65650000D01*
X141136963Y-65663130D01*
G37*
G36*
X133583351Y-65905743D02*
G01*
X133728941Y-65966048D01*
X133859970Y-66053599D01*
X133971401Y-66165030D01*
X134058952Y-66296059D01*
X134119257Y-66441649D01*
X134150000Y-66596206D01*
X134150000Y-66753794D01*
X134119257Y-66908351D01*
X134058952Y-67053941D01*
X133971401Y-67184970D01*
X133859970Y-67296401D01*
X133728941Y-67383952D01*
X133583351Y-67444257D01*
X133428794Y-67475000D01*
X133271206Y-67475000D01*
X133116649Y-67444257D01*
X132971059Y-67383952D01*
X132840030Y-67296401D01*
X132728599Y-67184970D01*
X132641048Y-67053941D01*
X132580743Y-66908351D01*
X132550000Y-66753794D01*
X132550000Y-66596206D01*
X132580743Y-66441649D01*
X132641048Y-66296059D01*
X132728599Y-66165030D01*
X132840030Y-66053599D01*
X132971059Y-65966048D01*
X133116649Y-65905743D01*
X133271206Y-65875000D01*
X133428794Y-65875000D01*
X133583351Y-65905743D01*
G37*
G36*
X148823351Y-65905743D02*
G01*
X148968941Y-65966048D01*
X149099970Y-66053599D01*
X149211401Y-66165030D01*
X149298952Y-66296059D01*
X149359257Y-66441649D01*
X149390000Y-66596206D01*
X149390000Y-66753794D01*
X149359257Y-66908351D01*
X149298952Y-67053941D01*
X149211401Y-67184970D01*
X149099970Y-67296401D01*
X148968941Y-67383952D01*
X148823351Y-67444257D01*
X148668794Y-67475000D01*
X148511206Y-67475000D01*
X148356649Y-67444257D01*
X148211059Y-67383952D01*
X148080030Y-67296401D01*
X147968599Y-67184970D01*
X147881048Y-67053941D01*
X147820743Y-66908351D01*
X147790000Y-66753794D01*
X147790000Y-66596206D01*
X147820743Y-66441649D01*
X147881048Y-66296059D01*
X147968599Y-66165030D01*
X148080030Y-66053599D01*
X148211059Y-65966048D01*
X148356649Y-65905743D01*
X148511206Y-65875000D01*
X148668794Y-65875000D01*
X148823351Y-65905743D01*
G37*
G36*
X156376963Y-63123130D02*
G01*
X156508982Y-63149390D01*
X156695520Y-63226656D01*
X156863400Y-63338830D01*
X157006170Y-63481600D01*
X157118344Y-63649480D01*
X157195610Y-63836018D01*
X157235000Y-64034046D01*
X157235000Y-64235954D01*
X157195610Y-64433982D01*
X157118344Y-64620520D01*
X157006170Y-64788400D01*
X156863400Y-64931170D01*
X156695520Y-65043344D01*
X156508982Y-65120610D01*
X156376963Y-65146870D01*
X156310955Y-65160000D01*
X156109045Y-65160000D01*
X156043037Y-65146870D01*
X155911018Y-65120610D01*
X155724480Y-65043344D01*
X155556600Y-64931170D01*
X155413830Y-64788400D01*
X155301656Y-64620520D01*
X155224390Y-64433982D01*
X155185000Y-64235954D01*
X155185000Y-64034046D01*
X155224390Y-63836018D01*
X155301656Y-63649480D01*
X155413830Y-63481600D01*
X155556600Y-63338830D01*
X155724480Y-63226656D01*
X155911018Y-63149390D01*
X156043037Y-63123130D01*
X156109045Y-63110000D01*
X156310955Y-63110000D01*
X156376963Y-63123130D01*
G37*
G36*
X141136963Y-63123130D02*
G01*
X141268982Y-63149390D01*
X141455520Y-63226656D01*
X141623400Y-63338830D01*
X141766170Y-63481600D01*
X141878344Y-63649480D01*
X141955610Y-63836018D01*
X141995000Y-64034046D01*
X141995000Y-64235954D01*
X141955610Y-64433982D01*
X141878344Y-64620520D01*
X141766170Y-64788400D01*
X141623400Y-64931170D01*
X141455520Y-65043344D01*
X141268982Y-65120610D01*
X141136963Y-65146870D01*
X141070955Y-65160000D01*
X140869045Y-65160000D01*
X140803037Y-65146870D01*
X140671018Y-65120610D01*
X140484480Y-65043344D01*
X140316600Y-64931170D01*
X140173830Y-64788400D01*
X140061656Y-64620520D01*
X139984390Y-64433982D01*
X139945000Y-64235954D01*
X139945000Y-64034046D01*
X139984390Y-63836018D01*
X140061656Y-63649480D01*
X140173830Y-63481600D01*
X140316600Y-63338830D01*
X140484480Y-63226656D01*
X140671018Y-63149390D01*
X140803037Y-63123130D01*
X140869045Y-63110000D01*
X141070955Y-63110000D01*
X141136963Y-63123130D01*
G37*
G36*
X148823351Y-63365743D02*
G01*
X148968941Y-63426048D01*
X149099970Y-63513599D01*
X149211401Y-63625030D01*
X149298952Y-63756059D01*
X149359257Y-63901649D01*
X149390000Y-64056206D01*
X149390000Y-64213794D01*
X149359257Y-64368351D01*
X149298952Y-64513941D01*
X149211401Y-64644970D01*
X149099970Y-64756401D01*
X148968941Y-64843952D01*
X148823351Y-64904257D01*
X148668794Y-64935000D01*
X148511206Y-64935000D01*
X148356649Y-64904257D01*
X148211059Y-64843952D01*
X148080030Y-64756401D01*
X147968599Y-64644970D01*
X147881048Y-64513941D01*
X147820743Y-64368351D01*
X147790000Y-64213794D01*
X147790000Y-64056206D01*
X147820743Y-63901649D01*
X147881048Y-63756059D01*
X147968599Y-63625030D01*
X148080030Y-63513599D01*
X148211059Y-63426048D01*
X148356649Y-63365743D01*
X148511206Y-63335000D01*
X148668794Y-63335000D01*
X148823351Y-63365743D01*
G37*
G36*
X133583351Y-63365743D02*
G01*
X133728941Y-63426048D01*
X133859970Y-63513599D01*
X133971401Y-63625030D01*
X134058952Y-63756059D01*
X134119257Y-63901649D01*
X134150000Y-64056206D01*
X134150000Y-64213794D01*
X134119257Y-64368351D01*
X134058952Y-64513941D01*
X133971401Y-64644970D01*
X133859970Y-64756401D01*
X133728941Y-64843952D01*
X133583351Y-64904257D01*
X133428794Y-64935000D01*
X133271206Y-64935000D01*
X133116649Y-64904257D01*
X132971059Y-64843952D01*
X132840030Y-64756401D01*
X132728599Y-64644970D01*
X132641048Y-64513941D01*
X132580743Y-64368351D01*
X132550000Y-64213794D01*
X132550000Y-64056206D01*
X132580743Y-63901649D01*
X132641048Y-63756059D01*
X132728599Y-63625030D01*
X132840030Y-63513599D01*
X132971059Y-63426048D01*
X133116649Y-63365743D01*
X133271206Y-63335000D01*
X133428794Y-63335000D01*
X133583351Y-63365743D01*
G37*
G36*
X156376963Y-60583130D02*
G01*
X156508982Y-60609390D01*
X156695520Y-60686656D01*
X156863400Y-60798830D01*
X157006170Y-60941600D01*
X157118344Y-61109480D01*
X157195610Y-61296018D01*
X157235000Y-61494046D01*
X157235000Y-61695954D01*
X157195610Y-61893982D01*
X157118344Y-62080520D01*
X157006170Y-62248400D01*
X156863400Y-62391170D01*
X156695520Y-62503344D01*
X156508982Y-62580610D01*
X156376963Y-62606870D01*
X156310955Y-62620000D01*
X156109045Y-62620000D01*
X156043037Y-62606870D01*
X155911018Y-62580610D01*
X155724480Y-62503344D01*
X155556600Y-62391170D01*
X155413830Y-62248400D01*
X155301656Y-62080520D01*
X155224390Y-61893982D01*
X155185000Y-61695954D01*
X155185000Y-61494046D01*
X155224390Y-61296018D01*
X155301656Y-61109480D01*
X155413830Y-60941600D01*
X155556600Y-60798830D01*
X155724480Y-60686656D01*
X155911018Y-60609390D01*
X156043037Y-60583130D01*
X156109045Y-60570000D01*
X156310955Y-60570000D01*
X156376963Y-60583130D01*
G37*
G36*
X141136963Y-60583130D02*
G01*
X141268982Y-60609390D01*
X141455520Y-60686656D01*
X141623400Y-60798830D01*
X141766170Y-60941600D01*
X141878344Y-61109480D01*
X141955610Y-61296018D01*
X141995000Y-61494046D01*
X141995000Y-61695954D01*
X141955610Y-61893982D01*
X141878344Y-62080520D01*
X141766170Y-62248400D01*
X141623400Y-62391170D01*
X141455520Y-62503344D01*
X141268982Y-62580610D01*
X141136963Y-62606870D01*
X141070955Y-62620000D01*
X140869045Y-62620000D01*
X140803037Y-62606870D01*
X140671018Y-62580610D01*
X140484480Y-62503344D01*
X140316600Y-62391170D01*
X140173830Y-62248400D01*
X140061656Y-62080520D01*
X139984390Y-61893982D01*
X139945000Y-61695954D01*
X139945000Y-61494046D01*
X139984390Y-61296018D01*
X140061656Y-61109480D01*
X140173830Y-60941600D01*
X140316600Y-60798830D01*
X140484480Y-60686656D01*
X140671018Y-60609390D01*
X140803037Y-60583130D01*
X140869045Y-60570000D01*
X141070955Y-60570000D01*
X141136963Y-60583130D01*
G37*
G36*
X141136963Y-58043130D02*
G01*
X141268982Y-58069390D01*
X141455520Y-58146656D01*
X141623400Y-58258830D01*
X141766170Y-58401600D01*
X141878344Y-58569480D01*
X141955610Y-58756018D01*
X141995000Y-58954046D01*
X141995000Y-59155954D01*
X141955610Y-59353982D01*
X141878344Y-59540520D01*
X141766170Y-59708400D01*
X141623400Y-59851170D01*
X141455520Y-59963344D01*
X141268982Y-60040610D01*
X141136963Y-60066870D01*
X141070955Y-60080000D01*
X140869045Y-60080000D01*
X140803037Y-60066870D01*
X140671018Y-60040610D01*
X140484480Y-59963344D01*
X140316600Y-59851170D01*
X140173830Y-59708400D01*
X140061656Y-59540520D01*
X139984390Y-59353982D01*
X139945000Y-59155954D01*
X139945000Y-58954046D01*
X139984390Y-58756018D01*
X140061656Y-58569480D01*
X140173830Y-58401600D01*
X140316600Y-58258830D01*
X140484480Y-58146656D01*
X140671018Y-58069390D01*
X140803037Y-58043130D01*
X140869045Y-58030000D01*
X141070955Y-58030000D01*
X141136963Y-58043130D01*
G37*
G36*
X156376963Y-58043130D02*
G01*
X156508982Y-58069390D01*
X156695520Y-58146656D01*
X156863400Y-58258830D01*
X157006170Y-58401600D01*
X157118344Y-58569480D01*
X157195610Y-58756018D01*
X157235000Y-58954046D01*
X157235000Y-59155954D01*
X157195610Y-59353982D01*
X157118344Y-59540520D01*
X157006170Y-59708400D01*
X156863400Y-59851170D01*
X156695520Y-59963344D01*
X156508982Y-60040610D01*
X156376963Y-60066870D01*
X156310955Y-60080000D01*
X156109045Y-60080000D01*
X156043037Y-60066870D01*
X155911018Y-60040610D01*
X155724480Y-59963344D01*
X155556600Y-59851170D01*
X155413830Y-59708400D01*
X155301656Y-59540520D01*
X155224390Y-59353982D01*
X155185000Y-59155954D01*
X155185000Y-58954046D01*
X155224390Y-58756018D01*
X155301656Y-58569480D01*
X155413830Y-58401600D01*
X155556600Y-58258830D01*
X155724480Y-58146656D01*
X155911018Y-58069390D01*
X156043037Y-58043130D01*
X156109045Y-58030000D01*
X156310955Y-58030000D01*
X156376963Y-58043130D01*
G37*
G36*
X156376963Y-55503130D02*
G01*
X156508982Y-55529390D01*
X156695520Y-55606656D01*
X156863400Y-55718830D01*
X157006170Y-55861600D01*
X157118344Y-56029480D01*
X157195610Y-56216018D01*
X157235000Y-56414046D01*
X157235000Y-56615954D01*
X157195610Y-56813982D01*
X157118344Y-57000520D01*
X157006170Y-57168400D01*
X156863400Y-57311170D01*
X156695520Y-57423344D01*
X156508982Y-57500610D01*
X156376963Y-57526870D01*
X156310955Y-57540000D01*
X156109045Y-57540000D01*
X156043037Y-57526870D01*
X155911018Y-57500610D01*
X155724480Y-57423344D01*
X155556600Y-57311170D01*
X155413830Y-57168400D01*
X155301656Y-57000520D01*
X155224390Y-56813982D01*
X155185000Y-56615954D01*
X155185000Y-56414046D01*
X155224390Y-56216018D01*
X155301656Y-56029480D01*
X155413830Y-55861600D01*
X155556600Y-55718830D01*
X155724480Y-55606656D01*
X155911018Y-55529390D01*
X156043037Y-55503130D01*
X156109045Y-55490000D01*
X156310955Y-55490000D01*
X156376963Y-55503130D01*
G37*
G36*
X141136963Y-55503130D02*
G01*
X141268982Y-55529390D01*
X141455520Y-55606656D01*
X141623400Y-55718830D01*
X141766170Y-55861600D01*
X141878344Y-56029480D01*
X141955610Y-56216018D01*
X141995000Y-56414046D01*
X141995000Y-56615954D01*
X141955610Y-56813982D01*
X141878344Y-57000520D01*
X141766170Y-57168400D01*
X141623400Y-57311170D01*
X141455520Y-57423344D01*
X141268982Y-57500610D01*
X141136963Y-57526870D01*
X141070955Y-57540000D01*
X140869045Y-57540000D01*
X140803037Y-57526870D01*
X140671018Y-57500610D01*
X140484480Y-57423344D01*
X140316600Y-57311170D01*
X140173830Y-57168400D01*
X140061656Y-57000520D01*
X139984390Y-56813982D01*
X139945000Y-56615954D01*
X139945000Y-56414046D01*
X139984390Y-56216018D01*
X140061656Y-56029480D01*
X140173830Y-55861600D01*
X140316600Y-55718830D01*
X140484480Y-55606656D01*
X140671018Y-55529390D01*
X140803037Y-55503130D01*
X140869045Y-55490000D01*
X141070955Y-55490000D01*
X141136963Y-55503130D01*
G37*
G36*
X156376963Y-52963130D02*
G01*
X156508982Y-52989390D01*
X156695520Y-53066656D01*
X156863400Y-53178830D01*
X157006170Y-53321600D01*
X157118344Y-53489480D01*
X157195610Y-53676018D01*
X157235000Y-53874046D01*
X157235000Y-54075954D01*
X157195610Y-54273982D01*
X157118344Y-54460520D01*
X157006170Y-54628400D01*
X156863400Y-54771170D01*
X156695520Y-54883344D01*
X156508982Y-54960610D01*
X156376963Y-54986870D01*
X156310955Y-55000000D01*
X156109045Y-55000000D01*
X156043037Y-54986870D01*
X155911018Y-54960610D01*
X155724480Y-54883344D01*
X155556600Y-54771170D01*
X155413830Y-54628400D01*
X155301656Y-54460520D01*
X155224390Y-54273982D01*
X155185000Y-54075954D01*
X155185000Y-53874046D01*
X155224390Y-53676018D01*
X155301656Y-53489480D01*
X155413830Y-53321600D01*
X155556600Y-53178830D01*
X155724480Y-53066656D01*
X155911018Y-52989390D01*
X156043037Y-52963130D01*
X156109045Y-52950000D01*
X156310955Y-52950000D01*
X156376963Y-52963130D01*
G37*
G36*
X141136963Y-52963130D02*
G01*
X141268982Y-52989390D01*
X141455520Y-53066656D01*
X141623400Y-53178830D01*
X141766170Y-53321600D01*
X141878344Y-53489480D01*
X141955610Y-53676018D01*
X141995000Y-53874046D01*
X141995000Y-54075954D01*
X141955610Y-54273982D01*
X141878344Y-54460520D01*
X141766170Y-54628400D01*
X141623400Y-54771170D01*
X141455520Y-54883344D01*
X141268982Y-54960610D01*
X141136963Y-54986870D01*
X141070955Y-55000000D01*
X140869045Y-55000000D01*
X140803037Y-54986870D01*
X140671018Y-54960610D01*
X140484480Y-54883344D01*
X140316600Y-54771170D01*
X140173830Y-54628400D01*
X140061656Y-54460520D01*
X139984390Y-54273982D01*
X139945000Y-54075954D01*
X139945000Y-53874046D01*
X139984390Y-53676018D01*
X140061656Y-53489480D01*
X140173830Y-53321600D01*
X140316600Y-53178830D01*
X140484480Y-53066656D01*
X140671018Y-52989390D01*
X140803037Y-52963130D01*
X140869045Y-52950000D01*
X141070955Y-52950000D01*
X141136963Y-52963130D01*
G37*
M02*
