G04 #@! TF.GenerationSoftware,KiCad,Pcbnew,(5.1.6-0-10_14)*
G04 #@! TF.CreationDate,2021-01-24T22:43:51+01:00*
G04 #@! TF.ProjectId,27c322,32376333-3232-42e6-9b69-6361645f7063,rev?*
G04 #@! TF.SameCoordinates,Original*
G04 #@! TF.FileFunction,Copper,L1,Top*
G04 #@! TF.FilePolarity,Positive*
%FSLAX46Y46*%
G04 Gerber Fmt 4.6, Leading zero omitted, Abs format (unit mm)*
G04 Created by KiCad (PCBNEW (5.1.6-0-10_14)) date 2021-01-24 22:43:51*
%MOMM*%
%LPD*%
G01*
G04 APERTURE LIST*
G04 #@! TA.AperFunction,ComponentPad*
%ADD10O,1.700000X1.700000*%
G04 #@! TD*
G04 #@! TA.AperFunction,ComponentPad*
%ADD11R,1.700000X1.700000*%
G04 #@! TD*
G04 #@! TA.AperFunction,ComponentPad*
%ADD12O,1.600000X1.600000*%
G04 #@! TD*
G04 #@! TA.AperFunction,ComponentPad*
%ADD13C,1.600000*%
G04 #@! TD*
G04 #@! TA.AperFunction,ComponentPad*
%ADD14C,1.500000*%
G04 #@! TD*
G04 #@! TA.AperFunction,ComponentPad*
%ADD15R,1.500000X1.500000*%
G04 #@! TD*
G04 #@! TA.AperFunction,ComponentPad*
%ADD16O,2.050000X2.050000*%
G04 #@! TD*
G04 #@! TA.AperFunction,ComponentPad*
%ADD17R,1.600000X1.600000*%
G04 #@! TD*
G04 #@! TA.AperFunction,ViaPad*
%ADD18C,0.600000*%
G04 #@! TD*
G04 #@! TA.AperFunction,Conductor*
%ADD19C,0.250000*%
G04 #@! TD*
G04 #@! TA.AperFunction,Conductor*
%ADD20C,0.500000*%
G04 #@! TD*
G04 #@! TA.AperFunction,Conductor*
%ADD21C,0.254000*%
G04 #@! TD*
G04 APERTURE END LIST*
D10*
X117983000Y-93345000D03*
X120523000Y-93345000D03*
D11*
X123063000Y-93345000D03*
D10*
X117983000Y-90551000D03*
X120523000Y-90551000D03*
D11*
X123063000Y-90551000D03*
D10*
X117983000Y-87757000D03*
X120523000Y-87757000D03*
D11*
X123063000Y-87757000D03*
D12*
X129413000Y-106172000D03*
D13*
X129413000Y-98552000D03*
D12*
X126492000Y-106172000D03*
D13*
X126492000Y-98552000D03*
D12*
X123571000Y-106172000D03*
D13*
X123571000Y-98552000D03*
D12*
X120650000Y-106172000D03*
D13*
X120650000Y-98552000D03*
D12*
X117729000Y-106172000D03*
D13*
X117729000Y-98552000D03*
D14*
X129286000Y-90932000D03*
X129286000Y-93472000D03*
D15*
X129286000Y-88392000D03*
D16*
X156210000Y-53975000D03*
X156210000Y-56515000D03*
X156210000Y-59055000D03*
X156210000Y-61595000D03*
X156210000Y-64135000D03*
X156210000Y-66675000D03*
X156210000Y-69215000D03*
X156210000Y-71755000D03*
X140970000Y-53975000D03*
X140970000Y-56515000D03*
X140970000Y-59055000D03*
X140970000Y-61595000D03*
X140970000Y-64135000D03*
X140970000Y-66675000D03*
X140970000Y-69215000D03*
X140970000Y-71755000D03*
X140970000Y-74295000D03*
X140970000Y-76835000D03*
X140970000Y-79375000D03*
X140970000Y-81915000D03*
X140970000Y-84455000D03*
X140970000Y-86995000D03*
X140970000Y-89535000D03*
X140970000Y-92075000D03*
X140970000Y-94615000D03*
X140970000Y-97155000D03*
X140970000Y-99695000D03*
X140970000Y-102235000D03*
X140970000Y-104775000D03*
X140970000Y-107315000D03*
X140970000Y-109855000D03*
X140970000Y-112395000D03*
X156210000Y-112395000D03*
X156210000Y-109855000D03*
X156210000Y-107315000D03*
X156210000Y-104775000D03*
X156210000Y-102235000D03*
X156210000Y-99695000D03*
X156210000Y-97155000D03*
X156210000Y-94615000D03*
X156210000Y-92075000D03*
X156210000Y-89535000D03*
X156210000Y-86995000D03*
X156210000Y-84455000D03*
X156210000Y-81915000D03*
X156210000Y-79375000D03*
X156210000Y-76835000D03*
X156210000Y-74295000D03*
D12*
X133350000Y-64135000D03*
X133350000Y-66675000D03*
X133350000Y-69215000D03*
X133350000Y-71755000D03*
X133350000Y-74295000D03*
X133350000Y-76835000D03*
X133350000Y-79375000D03*
X133350000Y-81915000D03*
X133350000Y-84455000D03*
X133350000Y-86995000D03*
X133350000Y-89535000D03*
X133350000Y-92075000D03*
X133350000Y-94615000D03*
X133350000Y-97155000D03*
X133350000Y-99695000D03*
X133350000Y-102235000D03*
X133350000Y-104775000D03*
X133350000Y-107315000D03*
X133350000Y-109855000D03*
X133350000Y-112395000D03*
X148590000Y-112395000D03*
X148590000Y-109855000D03*
X148590000Y-107315000D03*
X148590000Y-104775000D03*
X148590000Y-102235000D03*
X148590000Y-99695000D03*
X148590000Y-97155000D03*
X148590000Y-94615000D03*
X148590000Y-92075000D03*
X148590000Y-89535000D03*
X148590000Y-86995000D03*
X148590000Y-84455000D03*
X148590000Y-81915000D03*
X148590000Y-79375000D03*
X148590000Y-76835000D03*
X148590000Y-74295000D03*
X148590000Y-71755000D03*
X148590000Y-69215000D03*
X148590000Y-66675000D03*
X148590000Y-64135000D03*
D17*
X127635000Y-74422000D03*
D13*
X125095000Y-74422000D03*
X122555000Y-74422000D03*
X127635000Y-70922000D03*
X125095000Y-70922000D03*
X122555000Y-70922000D03*
D12*
X121495001Y-109474000D03*
X124035001Y-109474000D03*
X126575001Y-109474000D03*
X129115001Y-109474000D03*
X124035001Y-117094000D03*
D18*
X135255000Y-79375000D03*
X135255000Y-112395000D03*
X136525000Y-81915000D03*
X136525000Y-107315000D03*
X137160000Y-84455000D03*
X137160000Y-102235000D03*
X138430000Y-86995000D03*
X138430000Y-97155000D03*
X153035000Y-104140000D03*
X153035000Y-105410000D03*
X153035000Y-116205000D03*
X154305000Y-104140000D03*
X154305000Y-105410000D03*
X154305000Y-113030000D03*
X150495000Y-106680000D03*
X139065000Y-97790000D03*
X138430000Y-98425000D03*
X135890000Y-102235000D03*
X135890000Y-109855000D03*
X134620000Y-100965000D03*
X134620000Y-106045000D03*
X137795000Y-94615000D03*
X137795000Y-106045000D03*
X154305000Y-64135000D03*
X154305000Y-92075000D03*
X153670000Y-66675000D03*
X153670000Y-86995000D03*
X153035000Y-69215000D03*
X153035000Y-84455000D03*
X152400000Y-71755000D03*
X152400000Y-81915000D03*
X151765000Y-74295000D03*
X151765000Y-79375000D03*
X149860000Y-78740000D03*
X149860000Y-74295000D03*
X150495000Y-81280000D03*
X150495000Y-71755000D03*
X151130000Y-83820000D03*
X151130000Y-69215000D03*
X146050000Y-52070000D03*
X118849524Y-68804106D03*
X157861004Y-50800000D03*
X124714000Y-95377000D03*
X146050000Y-50800000D03*
X129794006Y-66167000D03*
D19*
X140970000Y-112395000D02*
X135255000Y-112395000D01*
X135255000Y-79375000D02*
X133350000Y-79375000D01*
X140970000Y-107315000D02*
X136525000Y-107315000D01*
X136525000Y-81915000D02*
X133350000Y-81915000D01*
X140970000Y-102235000D02*
X137160000Y-102235000D01*
X137160000Y-84455000D02*
X133350000Y-84455000D01*
X140970000Y-97155000D02*
X138430000Y-97155000D01*
X138430000Y-86995000D02*
X133350000Y-86995000D01*
X153035000Y-97790000D02*
X156210000Y-94615000D01*
X153035000Y-104140000D02*
X153035000Y-97790000D01*
X153035000Y-116205000D02*
X153035000Y-105410000D01*
X154305000Y-101600000D02*
X156210000Y-99695000D01*
X154305000Y-104140000D02*
X154305000Y-101600000D01*
X154305000Y-113030000D02*
X154305000Y-105410000D01*
X133350000Y-97155000D02*
X137160000Y-97155000D01*
X152400000Y-104775000D02*
X156210000Y-104775000D01*
X150495000Y-106680000D02*
X152400000Y-104775000D01*
X137795000Y-97790000D02*
X139065000Y-97790000D01*
X137160000Y-97155000D02*
X137795000Y-97790000D01*
X133350000Y-99695000D02*
X134620000Y-99695000D01*
X135890000Y-98425000D02*
X138430000Y-98425000D01*
X134620000Y-99695000D02*
X135890000Y-98425000D01*
X140970000Y-109855000D02*
X135890000Y-109855000D01*
X135890000Y-102235000D02*
X133350000Y-102235000D01*
X140970000Y-104775000D02*
X133350000Y-104775000D01*
X133350000Y-107315000D02*
X134620000Y-106045000D01*
X135890000Y-99695000D02*
X140970000Y-99695000D01*
X134620000Y-100965000D02*
X135890000Y-99695000D01*
X133350000Y-109855000D02*
X135255000Y-107950000D01*
X137795000Y-94615000D02*
X140970000Y-94615000D01*
X136525000Y-106045000D02*
X137795000Y-106045000D01*
X135255000Y-107315000D02*
X136525000Y-106045000D01*
X135255000Y-107950000D02*
X135255000Y-107315000D01*
X127000000Y-78740000D02*
X125095000Y-78740000D01*
X133350000Y-112395000D02*
X132080000Y-111125000D01*
X130937000Y-82677000D02*
X127000000Y-78740000D01*
X125095000Y-78740000D02*
X122555000Y-76200000D01*
X132080000Y-91440000D02*
X130937000Y-90297000D01*
X130937000Y-90297000D02*
X130937000Y-82677000D01*
X122555000Y-76200000D02*
X122555000Y-74422000D01*
X132080000Y-111125000D02*
X132080000Y-91440000D01*
X148590000Y-112395000D02*
X142875000Y-106680000D01*
X142875000Y-86360000D02*
X140970000Y-84455000D01*
X142875000Y-106680000D02*
X142875000Y-86360000D01*
X148590000Y-109855000D02*
X143510000Y-104775000D01*
X143510000Y-84455000D02*
X140970000Y-81915000D01*
X143510000Y-104775000D02*
X143510000Y-84455000D01*
X148590000Y-107315000D02*
X144145000Y-102870000D01*
X144145000Y-82550000D02*
X140970000Y-79375000D01*
X144145000Y-102870000D02*
X144145000Y-82550000D01*
X148590000Y-104775000D02*
X144780000Y-100965000D01*
X144780000Y-80645000D02*
X140970000Y-76835000D01*
X144780000Y-100965000D02*
X144780000Y-80645000D01*
X148590000Y-102235000D02*
X145415000Y-99060000D01*
X145415000Y-78740000D02*
X140970000Y-74295000D01*
X145415000Y-99060000D02*
X145415000Y-78740000D01*
X148590000Y-99695000D02*
X146050000Y-97155000D01*
X146050000Y-76835000D02*
X140970000Y-71755000D01*
X146050000Y-97155000D02*
X146050000Y-76835000D01*
X148590000Y-97155000D02*
X146685000Y-95250000D01*
X146685000Y-74930000D02*
X140970000Y-69215000D01*
X146685000Y-95250000D02*
X146685000Y-74930000D01*
X148590000Y-94615000D02*
X147320000Y-93345000D01*
X147320000Y-73025000D02*
X140970000Y-66675000D01*
X147320000Y-93345000D02*
X147320000Y-73025000D01*
X148590000Y-92075000D02*
X154305000Y-92075000D01*
X154305000Y-64135000D02*
X156210000Y-64135000D01*
X148590000Y-86995000D02*
X153670000Y-86995000D01*
X153670000Y-66675000D02*
X156210000Y-66675000D01*
X148590000Y-84455000D02*
X153035000Y-84455000D01*
X153035000Y-69215000D02*
X156210000Y-69215000D01*
X148590000Y-81915000D02*
X152400000Y-81915000D01*
X152400000Y-71755000D02*
X156210000Y-71755000D01*
X148590000Y-79375000D02*
X151765000Y-79375000D01*
X151765000Y-74295000D02*
X156210000Y-74295000D01*
X148590000Y-76835000D02*
X156210000Y-76835000D01*
X148590000Y-74295000D02*
X149860000Y-74295000D01*
X155575000Y-79375000D02*
X156210000Y-79375000D01*
X154940000Y-78740000D02*
X155575000Y-79375000D01*
X149860000Y-78740000D02*
X154940000Y-78740000D01*
X148590000Y-71755000D02*
X150495000Y-71755000D01*
X155575000Y-81915000D02*
X156210000Y-81915000D01*
X154940000Y-81280000D02*
X155575000Y-81915000D01*
X150495000Y-81280000D02*
X154940000Y-81280000D01*
X148590000Y-69215000D02*
X151130000Y-69215000D01*
X155575000Y-84455000D02*
X156210000Y-84455000D01*
X154940000Y-83820000D02*
X155575000Y-84455000D01*
X151130000Y-83820000D02*
X154940000Y-83820000D01*
X143510000Y-66675000D02*
X140970000Y-64135000D01*
X148590000Y-66675000D02*
X143510000Y-66675000D01*
X139065000Y-53340000D02*
X139065000Y-63500000D01*
X140335000Y-52070000D02*
X139065000Y-53340000D01*
X146050000Y-52070000D02*
X140335000Y-52070000D01*
X119708630Y-67945000D02*
X118849524Y-68804106D01*
X139065000Y-63500000D02*
X134620000Y-67945000D01*
X134620000Y-67945000D02*
X119708630Y-67945000D01*
X120269000Y-71457736D02*
X120269000Y-87503000D01*
X122049735Y-69677001D02*
X120269000Y-71457736D01*
X120269000Y-87503000D02*
X120523000Y-87757000D01*
X129793998Y-70485000D02*
X128985999Y-69677001D01*
X136285002Y-70485000D02*
X129793998Y-70485000D01*
X139619999Y-67150003D02*
X136285002Y-70485000D01*
X128985999Y-69677001D02*
X122049735Y-69677001D01*
X139619999Y-62945001D02*
X139619999Y-67150003D01*
X140970000Y-61595000D02*
X139619999Y-62945001D01*
D20*
X148590000Y-57150000D02*
X154940000Y-50800000D01*
X154940000Y-50800000D02*
X157861004Y-50800000D01*
X148590000Y-64135000D02*
X148590000Y-57150000D01*
X148590000Y-89535000D02*
X156210000Y-89535000D01*
X133350000Y-89535000D02*
X140970000Y-89535000D01*
X127889000Y-108849999D02*
X127865000Y-108873999D01*
X158369000Y-91186000D02*
X156718000Y-89535000D01*
X127889000Y-117348000D02*
X128905000Y-118364000D01*
X128905000Y-118364000D02*
X154305000Y-118364000D01*
X126492000Y-106172000D02*
X127889000Y-107569000D01*
X127889000Y-110098001D02*
X127889000Y-117348000D01*
X156718000Y-89535000D02*
X156210000Y-89535000D01*
X158369000Y-114300000D02*
X158369000Y-91186000D01*
X154305000Y-118364000D02*
X158369000Y-114300000D01*
X127889000Y-107569000D02*
X127889000Y-108849999D01*
X127865000Y-110074001D02*
X127889000Y-110098001D01*
X127865000Y-108873999D02*
X127865000Y-110074001D01*
X123571000Y-98552000D02*
X120650000Y-98552000D01*
X120650000Y-98552000D02*
X117729000Y-98552000D01*
D19*
X122555000Y-95377000D02*
X120523000Y-93345000D01*
X124714000Y-95377000D02*
X122555000Y-95377000D01*
D20*
X129286000Y-84074000D02*
X129286000Y-88392000D01*
X121031000Y-75819000D02*
X129286000Y-84074000D01*
X121031000Y-72446000D02*
X121031000Y-75819000D01*
X122555000Y-70922000D02*
X121031000Y-72446000D01*
D19*
X126492000Y-96266000D02*
X126492000Y-98552000D01*
X129286000Y-93472000D02*
X126492000Y-96266000D01*
X132715000Y-90805000D02*
X134620000Y-90805000D01*
X131572000Y-89662000D02*
X132715000Y-90805000D01*
X135890000Y-92075000D02*
X140970000Y-92075000D01*
X134620000Y-90805000D02*
X135890000Y-92075000D01*
X131572000Y-82042000D02*
X131572000Y-89662000D01*
X125095000Y-74422000D02*
X125095000Y-76835000D01*
X127635000Y-78105000D02*
X131572000Y-82042000D01*
X126365000Y-78105000D02*
X127635000Y-78105000D01*
X125095000Y-76835000D02*
X126365000Y-78105000D01*
X146050000Y-50800000D02*
X139065000Y-50800000D01*
X139065000Y-50800000D02*
X137795000Y-52070000D01*
X137795000Y-52070000D02*
X137795000Y-64133590D01*
X136442589Y-65486001D02*
X130475005Y-65486001D01*
X137795000Y-64133590D02*
X136442589Y-65486001D01*
X130475005Y-65486001D02*
X129794006Y-66167000D01*
X130683000Y-92329000D02*
X130683000Y-97282000D01*
X130683000Y-97282000D02*
X129413000Y-98552000D01*
X129286000Y-90932000D02*
X130683000Y-92329000D01*
D21*
G36*
X159893000Y-128143000D02*
G01*
X115697000Y-128143000D01*
X115697000Y-117443039D01*
X122643097Y-117443039D01*
X122683755Y-117577087D01*
X122803964Y-117831420D01*
X122971482Y-118057414D01*
X123179870Y-118246385D01*
X123421120Y-118391070D01*
X123685961Y-118485909D01*
X123908001Y-118364624D01*
X123908001Y-117221000D01*
X124162001Y-117221000D01*
X124162001Y-118364624D01*
X124384041Y-118485909D01*
X124648882Y-118391070D01*
X124890132Y-118246385D01*
X125098520Y-118057414D01*
X125266038Y-117831420D01*
X125386247Y-117577087D01*
X125426905Y-117443039D01*
X125304916Y-117221000D01*
X124162001Y-117221000D01*
X123908001Y-117221000D01*
X122765086Y-117221000D01*
X122643097Y-117443039D01*
X115697000Y-117443039D01*
X115697000Y-116744961D01*
X122643097Y-116744961D01*
X122765086Y-116967000D01*
X123908001Y-116967000D01*
X123908001Y-115823376D01*
X124162001Y-115823376D01*
X124162001Y-116967000D01*
X125304916Y-116967000D01*
X125426905Y-116744961D01*
X125386247Y-116610913D01*
X125266038Y-116356580D01*
X125098520Y-116130586D01*
X124890132Y-115941615D01*
X124648882Y-115796930D01*
X124384041Y-115702091D01*
X124162001Y-115823376D01*
X123908001Y-115823376D01*
X123685961Y-115702091D01*
X123421120Y-115796930D01*
X123179870Y-115941615D01*
X122971482Y-116130586D01*
X122803964Y-116356580D01*
X122683755Y-116610913D01*
X122643097Y-116744961D01*
X115697000Y-116744961D01*
X115697000Y-106030665D01*
X116294000Y-106030665D01*
X116294000Y-106313335D01*
X116349147Y-106590574D01*
X116457320Y-106851727D01*
X116614363Y-107086759D01*
X116814241Y-107286637D01*
X117049273Y-107443680D01*
X117310426Y-107551853D01*
X117587665Y-107607000D01*
X117870335Y-107607000D01*
X118147574Y-107551853D01*
X118408727Y-107443680D01*
X118643759Y-107286637D01*
X118843637Y-107086759D01*
X119000680Y-106851727D01*
X119108853Y-106590574D01*
X119164000Y-106313335D01*
X119164000Y-106030665D01*
X119215000Y-106030665D01*
X119215000Y-106313335D01*
X119270147Y-106590574D01*
X119378320Y-106851727D01*
X119535363Y-107086759D01*
X119735241Y-107286637D01*
X119970273Y-107443680D01*
X120231426Y-107551853D01*
X120508665Y-107607000D01*
X120791335Y-107607000D01*
X121068574Y-107551853D01*
X121329727Y-107443680D01*
X121564759Y-107286637D01*
X121764637Y-107086759D01*
X121921680Y-106851727D01*
X122029853Y-106590574D01*
X122085000Y-106313335D01*
X122085000Y-106030665D01*
X122136000Y-106030665D01*
X122136000Y-106313335D01*
X122191147Y-106590574D01*
X122299320Y-106851727D01*
X122456363Y-107086759D01*
X122656241Y-107286637D01*
X122891273Y-107443680D01*
X123152426Y-107551853D01*
X123429665Y-107607000D01*
X123712335Y-107607000D01*
X123989574Y-107551853D01*
X124250727Y-107443680D01*
X124485759Y-107286637D01*
X124685637Y-107086759D01*
X124842680Y-106851727D01*
X124950853Y-106590574D01*
X125006000Y-106313335D01*
X125006000Y-106030665D01*
X124950853Y-105753426D01*
X124842680Y-105492273D01*
X124685637Y-105257241D01*
X124485759Y-105057363D01*
X124250727Y-104900320D01*
X123989574Y-104792147D01*
X123712335Y-104737000D01*
X123429665Y-104737000D01*
X123152426Y-104792147D01*
X122891273Y-104900320D01*
X122656241Y-105057363D01*
X122456363Y-105257241D01*
X122299320Y-105492273D01*
X122191147Y-105753426D01*
X122136000Y-106030665D01*
X122085000Y-106030665D01*
X122029853Y-105753426D01*
X121921680Y-105492273D01*
X121764637Y-105257241D01*
X121564759Y-105057363D01*
X121329727Y-104900320D01*
X121068574Y-104792147D01*
X120791335Y-104737000D01*
X120508665Y-104737000D01*
X120231426Y-104792147D01*
X119970273Y-104900320D01*
X119735241Y-105057363D01*
X119535363Y-105257241D01*
X119378320Y-105492273D01*
X119270147Y-105753426D01*
X119215000Y-106030665D01*
X119164000Y-106030665D01*
X119108853Y-105753426D01*
X119000680Y-105492273D01*
X118843637Y-105257241D01*
X118643759Y-105057363D01*
X118408727Y-104900320D01*
X118147574Y-104792147D01*
X117870335Y-104737000D01*
X117587665Y-104737000D01*
X117310426Y-104792147D01*
X117049273Y-104900320D01*
X116814241Y-105057363D01*
X116614363Y-105257241D01*
X116457320Y-105492273D01*
X116349147Y-105753426D01*
X116294000Y-106030665D01*
X115697000Y-106030665D01*
X115697000Y-98410665D01*
X116294000Y-98410665D01*
X116294000Y-98693335D01*
X116349147Y-98970574D01*
X116457320Y-99231727D01*
X116614363Y-99466759D01*
X116814241Y-99666637D01*
X117049273Y-99823680D01*
X117310426Y-99931853D01*
X117587665Y-99987000D01*
X117870335Y-99987000D01*
X118147574Y-99931853D01*
X118408727Y-99823680D01*
X118643759Y-99666637D01*
X118843637Y-99466759D01*
X118863521Y-99437000D01*
X119515479Y-99437000D01*
X119535363Y-99466759D01*
X119735241Y-99666637D01*
X119970273Y-99823680D01*
X120231426Y-99931853D01*
X120508665Y-99987000D01*
X120791335Y-99987000D01*
X121068574Y-99931853D01*
X121329727Y-99823680D01*
X121564759Y-99666637D01*
X121764637Y-99466759D01*
X121784521Y-99437000D01*
X122436479Y-99437000D01*
X122456363Y-99466759D01*
X122656241Y-99666637D01*
X122891273Y-99823680D01*
X123152426Y-99931853D01*
X123429665Y-99987000D01*
X123712335Y-99987000D01*
X123989574Y-99931853D01*
X124250727Y-99823680D01*
X124485759Y-99666637D01*
X124685637Y-99466759D01*
X124842680Y-99231727D01*
X124950853Y-98970574D01*
X125006000Y-98693335D01*
X125006000Y-98410665D01*
X124950853Y-98133426D01*
X124842680Y-97872273D01*
X124685637Y-97637241D01*
X124485759Y-97437363D01*
X124250727Y-97280320D01*
X123989574Y-97172147D01*
X123712335Y-97117000D01*
X123429665Y-97117000D01*
X123152426Y-97172147D01*
X122891273Y-97280320D01*
X122656241Y-97437363D01*
X122456363Y-97637241D01*
X122436479Y-97667000D01*
X121784521Y-97667000D01*
X121764637Y-97637241D01*
X121564759Y-97437363D01*
X121329727Y-97280320D01*
X121068574Y-97172147D01*
X120791335Y-97117000D01*
X120508665Y-97117000D01*
X120231426Y-97172147D01*
X119970273Y-97280320D01*
X119735241Y-97437363D01*
X119535363Y-97637241D01*
X119515479Y-97667000D01*
X118863521Y-97667000D01*
X118843637Y-97637241D01*
X118643759Y-97437363D01*
X118408727Y-97280320D01*
X118147574Y-97172147D01*
X117870335Y-97117000D01*
X117587665Y-97117000D01*
X117310426Y-97172147D01*
X117049273Y-97280320D01*
X116814241Y-97437363D01*
X116614363Y-97637241D01*
X116457320Y-97872273D01*
X116349147Y-98133426D01*
X116294000Y-98410665D01*
X115697000Y-98410665D01*
X115697000Y-62992000D01*
X132477689Y-62992000D01*
X132435241Y-63020363D01*
X132235363Y-63220241D01*
X132078320Y-63455273D01*
X131970147Y-63716426D01*
X131915000Y-63993665D01*
X131915000Y-64276335D01*
X131970147Y-64553574D01*
X132041569Y-64726001D01*
X130512327Y-64726001D01*
X130475004Y-64722325D01*
X130437682Y-64726001D01*
X130437672Y-64726001D01*
X130326019Y-64736998D01*
X130182758Y-64780455D01*
X130050728Y-64851027D01*
X129994385Y-64897267D01*
X129935004Y-64946000D01*
X129911206Y-64974999D01*
X129642357Y-65243847D01*
X129521277Y-65267932D01*
X129351117Y-65338414D01*
X129197978Y-65440738D01*
X129067744Y-65570972D01*
X128965420Y-65724111D01*
X128894938Y-65894271D01*
X128859006Y-66074911D01*
X128859006Y-66259089D01*
X128894938Y-66439729D01*
X128965420Y-66609889D01*
X129067744Y-66763028D01*
X129197978Y-66893262D01*
X129351117Y-66995586D01*
X129521277Y-67066068D01*
X129701917Y-67102000D01*
X129886095Y-67102000D01*
X130066735Y-67066068D01*
X130236895Y-66995586D01*
X130390034Y-66893262D01*
X130520268Y-66763028D01*
X130622592Y-66609889D01*
X130693074Y-66439729D01*
X130717159Y-66318649D01*
X130789807Y-66246001D01*
X131974465Y-66246001D01*
X131970147Y-66256426D01*
X131915000Y-66533665D01*
X131915000Y-66816335D01*
X131970147Y-67093574D01*
X132008017Y-67185000D01*
X119745952Y-67185000D01*
X119708629Y-67181324D01*
X119671306Y-67185000D01*
X119671297Y-67185000D01*
X119559644Y-67195997D01*
X119416383Y-67239454D01*
X119284354Y-67310026D01*
X119168629Y-67404999D01*
X119144831Y-67433997D01*
X118697875Y-67880953D01*
X118576795Y-67905038D01*
X118406635Y-67975520D01*
X118253496Y-68077844D01*
X118123262Y-68208078D01*
X118020938Y-68361217D01*
X117950456Y-68531377D01*
X117914524Y-68712017D01*
X117914524Y-68896195D01*
X117950456Y-69076835D01*
X118020938Y-69246995D01*
X118123262Y-69400134D01*
X118253496Y-69530368D01*
X118406635Y-69632692D01*
X118576795Y-69703174D01*
X118757435Y-69739106D01*
X118941613Y-69739106D01*
X119122253Y-69703174D01*
X119292413Y-69632692D01*
X119445552Y-69530368D01*
X119575786Y-69400134D01*
X119678110Y-69246995D01*
X119748592Y-69076835D01*
X119772677Y-68955755D01*
X120023432Y-68705000D01*
X132008017Y-68705000D01*
X131970147Y-68796426D01*
X131915000Y-69073665D01*
X131915000Y-69356335D01*
X131970147Y-69633574D01*
X132008017Y-69725000D01*
X130108800Y-69725000D01*
X129549802Y-69166003D01*
X129526000Y-69137000D01*
X129410275Y-69042027D01*
X129278246Y-68971455D01*
X129134985Y-68927998D01*
X129023332Y-68917001D01*
X129023321Y-68917001D01*
X128985999Y-68913325D01*
X128948677Y-68917001D01*
X122087068Y-68917001D01*
X122049735Y-68913324D01*
X122012402Y-68917001D01*
X121900749Y-68927998D01*
X121757488Y-68971455D01*
X121625459Y-69042027D01*
X121509734Y-69137000D01*
X121485936Y-69165998D01*
X119758003Y-70893932D01*
X119728999Y-70917735D01*
X119687178Y-70968695D01*
X119634026Y-71033460D01*
X119600870Y-71095491D01*
X119563454Y-71165490D01*
X119519997Y-71308751D01*
X119509000Y-71420404D01*
X119509000Y-71420414D01*
X119505324Y-71457736D01*
X119509000Y-71495058D01*
X119509001Y-86670892D01*
X119369525Y-86810368D01*
X119253000Y-86984760D01*
X119136475Y-86810368D01*
X118929632Y-86603525D01*
X118686411Y-86441010D01*
X118416158Y-86329068D01*
X118129260Y-86272000D01*
X117836740Y-86272000D01*
X117549842Y-86329068D01*
X117279589Y-86441010D01*
X117036368Y-86603525D01*
X116829525Y-86810368D01*
X116667010Y-87053589D01*
X116555068Y-87323842D01*
X116498000Y-87610740D01*
X116498000Y-87903260D01*
X116555068Y-88190158D01*
X116667010Y-88460411D01*
X116829525Y-88703632D01*
X117036368Y-88910475D01*
X117279589Y-89072990D01*
X117475165Y-89154000D01*
X117279589Y-89235010D01*
X117036368Y-89397525D01*
X116829525Y-89604368D01*
X116667010Y-89847589D01*
X116555068Y-90117842D01*
X116498000Y-90404740D01*
X116498000Y-90697260D01*
X116555068Y-90984158D01*
X116667010Y-91254411D01*
X116829525Y-91497632D01*
X117036368Y-91704475D01*
X117279589Y-91866990D01*
X117475165Y-91948000D01*
X117279589Y-92029010D01*
X117036368Y-92191525D01*
X116829525Y-92398368D01*
X116667010Y-92641589D01*
X116555068Y-92911842D01*
X116498000Y-93198740D01*
X116498000Y-93491260D01*
X116555068Y-93778158D01*
X116667010Y-94048411D01*
X116829525Y-94291632D01*
X117036368Y-94498475D01*
X117279589Y-94660990D01*
X117549842Y-94772932D01*
X117836740Y-94830000D01*
X118129260Y-94830000D01*
X118416158Y-94772932D01*
X118686411Y-94660990D01*
X118929632Y-94498475D01*
X119136475Y-94291632D01*
X119253000Y-94117240D01*
X119369525Y-94291632D01*
X119576368Y-94498475D01*
X119819589Y-94660990D01*
X120089842Y-94772932D01*
X120376740Y-94830000D01*
X120669260Y-94830000D01*
X120889408Y-94786209D01*
X121991201Y-95888003D01*
X122014999Y-95917001D01*
X122043997Y-95940799D01*
X122130723Y-96011974D01*
X122262753Y-96082546D01*
X122406014Y-96126003D01*
X122517667Y-96137000D01*
X122517677Y-96137000D01*
X122555000Y-96140676D01*
X122592323Y-96137000D01*
X124168465Y-96137000D01*
X124271111Y-96205586D01*
X124441271Y-96276068D01*
X124621911Y-96312000D01*
X124806089Y-96312000D01*
X124986729Y-96276068D01*
X125156889Y-96205586D01*
X125310028Y-96103262D01*
X125440262Y-95973028D01*
X125542586Y-95819889D01*
X125613068Y-95649729D01*
X125649000Y-95469089D01*
X125649000Y-95284911D01*
X125613068Y-95104271D01*
X125542586Y-94934111D01*
X125440262Y-94780972D01*
X125310028Y-94650738D01*
X125156889Y-94548414D01*
X124986729Y-94477932D01*
X124806089Y-94442000D01*
X124621911Y-94442000D01*
X124486609Y-94468914D01*
X124502502Y-94439180D01*
X124538812Y-94319482D01*
X124551072Y-94195000D01*
X124548000Y-93630750D01*
X124389250Y-93472000D01*
X123190000Y-93472000D01*
X123190000Y-93492000D01*
X122936000Y-93492000D01*
X122936000Y-93472000D01*
X122916000Y-93472000D01*
X122916000Y-93218000D01*
X122936000Y-93218000D01*
X122936000Y-92018750D01*
X122865250Y-91948000D01*
X122936000Y-91877250D01*
X122936000Y-90678000D01*
X123190000Y-90678000D01*
X123190000Y-91877250D01*
X123260750Y-91948000D01*
X123190000Y-92018750D01*
X123190000Y-93218000D01*
X124389250Y-93218000D01*
X124548000Y-93059250D01*
X124551072Y-92495000D01*
X124538812Y-92370518D01*
X124502502Y-92250820D01*
X124443537Y-92140506D01*
X124364185Y-92043815D01*
X124267494Y-91964463D01*
X124236694Y-91948000D01*
X124267494Y-91931537D01*
X124364185Y-91852185D01*
X124443537Y-91755494D01*
X124502502Y-91645180D01*
X124538812Y-91525482D01*
X124551072Y-91401000D01*
X124548000Y-90836750D01*
X124389250Y-90678000D01*
X123190000Y-90678000D01*
X122936000Y-90678000D01*
X122916000Y-90678000D01*
X122916000Y-90424000D01*
X122936000Y-90424000D01*
X122936000Y-89224750D01*
X122865250Y-89154000D01*
X122936000Y-89083250D01*
X122936000Y-87884000D01*
X123190000Y-87884000D01*
X123190000Y-89083250D01*
X123260750Y-89154000D01*
X123190000Y-89224750D01*
X123190000Y-90424000D01*
X124389250Y-90424000D01*
X124548000Y-90265250D01*
X124551072Y-89701000D01*
X124538812Y-89576518D01*
X124502502Y-89456820D01*
X124443537Y-89346506D01*
X124364185Y-89249815D01*
X124267494Y-89170463D01*
X124236694Y-89154000D01*
X124267494Y-89137537D01*
X124364185Y-89058185D01*
X124443537Y-88961494D01*
X124502502Y-88851180D01*
X124538812Y-88731482D01*
X124551072Y-88607000D01*
X124548000Y-88042750D01*
X124389250Y-87884000D01*
X123190000Y-87884000D01*
X122936000Y-87884000D01*
X122916000Y-87884000D01*
X122916000Y-87630000D01*
X122936000Y-87630000D01*
X122936000Y-86430750D01*
X123190000Y-86430750D01*
X123190000Y-87630000D01*
X124389250Y-87630000D01*
X124548000Y-87471250D01*
X124551072Y-86907000D01*
X124538812Y-86782518D01*
X124502502Y-86662820D01*
X124443537Y-86552506D01*
X124364185Y-86455815D01*
X124267494Y-86376463D01*
X124157180Y-86317498D01*
X124037482Y-86281188D01*
X123913000Y-86268928D01*
X123348750Y-86272000D01*
X123190000Y-86430750D01*
X122936000Y-86430750D01*
X122777250Y-86272000D01*
X122213000Y-86268928D01*
X122088518Y-86281188D01*
X121968820Y-86317498D01*
X121858506Y-86376463D01*
X121761815Y-86455815D01*
X121682463Y-86552506D01*
X121623498Y-86662820D01*
X121601487Y-86735380D01*
X121469632Y-86603525D01*
X121226411Y-86441010D01*
X121029000Y-86359240D01*
X121029000Y-77068578D01*
X128401000Y-84440579D01*
X128401001Y-87019378D01*
X128291820Y-87052498D01*
X128181506Y-87111463D01*
X128084815Y-87190815D01*
X128005463Y-87287506D01*
X127946498Y-87397820D01*
X127910188Y-87517518D01*
X127897928Y-87642000D01*
X127897928Y-89142000D01*
X127910188Y-89266482D01*
X127946498Y-89386180D01*
X128005463Y-89496494D01*
X128084815Y-89593185D01*
X128181506Y-89672537D01*
X128291820Y-89731502D01*
X128411518Y-89767812D01*
X128519483Y-89778445D01*
X128403114Y-89856201D01*
X128210201Y-90049114D01*
X128058629Y-90275957D01*
X127954225Y-90528011D01*
X127901000Y-90795589D01*
X127901000Y-91068411D01*
X127954225Y-91335989D01*
X128058629Y-91588043D01*
X128210201Y-91814886D01*
X128403114Y-92007799D01*
X128629957Y-92159371D01*
X128732873Y-92202000D01*
X128629957Y-92244629D01*
X128403114Y-92396201D01*
X128210201Y-92589114D01*
X128058629Y-92815957D01*
X127954225Y-93068011D01*
X127901000Y-93335589D01*
X127901000Y-93608411D01*
X127929833Y-93753365D01*
X125981003Y-95702196D01*
X125951999Y-95725999D01*
X125911665Y-95775147D01*
X125857026Y-95841724D01*
X125786842Y-95973028D01*
X125786454Y-95973754D01*
X125742997Y-96117015D01*
X125732000Y-96228668D01*
X125732000Y-96228678D01*
X125728324Y-96266000D01*
X125732000Y-96303323D01*
X125732000Y-97333956D01*
X125577241Y-97437363D01*
X125377363Y-97637241D01*
X125220320Y-97872273D01*
X125112147Y-98133426D01*
X125057000Y-98410665D01*
X125057000Y-98693335D01*
X125112147Y-98970574D01*
X125220320Y-99231727D01*
X125377363Y-99466759D01*
X125577241Y-99666637D01*
X125812273Y-99823680D01*
X126073426Y-99931853D01*
X126350665Y-99987000D01*
X126633335Y-99987000D01*
X126910574Y-99931853D01*
X127171727Y-99823680D01*
X127406759Y-99666637D01*
X127606637Y-99466759D01*
X127763680Y-99231727D01*
X127871853Y-98970574D01*
X127927000Y-98693335D01*
X127927000Y-98410665D01*
X127871853Y-98133426D01*
X127763680Y-97872273D01*
X127606637Y-97637241D01*
X127406759Y-97437363D01*
X127252000Y-97333957D01*
X127252000Y-96580801D01*
X129004635Y-94828167D01*
X129149589Y-94857000D01*
X129422411Y-94857000D01*
X129689989Y-94803775D01*
X129923000Y-94707259D01*
X129923001Y-96967197D01*
X129736886Y-97153312D01*
X129554335Y-97117000D01*
X129271665Y-97117000D01*
X128994426Y-97172147D01*
X128733273Y-97280320D01*
X128498241Y-97437363D01*
X128298363Y-97637241D01*
X128141320Y-97872273D01*
X128033147Y-98133426D01*
X127978000Y-98410665D01*
X127978000Y-98693335D01*
X128033147Y-98970574D01*
X128141320Y-99231727D01*
X128298363Y-99466759D01*
X128498241Y-99666637D01*
X128733273Y-99823680D01*
X128994426Y-99931853D01*
X129271665Y-99987000D01*
X129554335Y-99987000D01*
X129831574Y-99931853D01*
X130092727Y-99823680D01*
X130327759Y-99666637D01*
X130527637Y-99466759D01*
X130684680Y-99231727D01*
X130792853Y-98970574D01*
X130848000Y-98693335D01*
X130848000Y-98410665D01*
X130811688Y-98228114D01*
X131194003Y-97845799D01*
X131223001Y-97822001D01*
X131317974Y-97706276D01*
X131320001Y-97702484D01*
X131320000Y-111087678D01*
X131316324Y-111125000D01*
X131320000Y-111162322D01*
X131320000Y-111162332D01*
X131330997Y-111273985D01*
X131374454Y-111417246D01*
X131445026Y-111549276D01*
X131459091Y-111566414D01*
X131539999Y-111665001D01*
X131569003Y-111688804D01*
X131951312Y-112071114D01*
X131915000Y-112253665D01*
X131915000Y-112536335D01*
X131970147Y-112813574D01*
X132078320Y-113074727D01*
X132235363Y-113309759D01*
X132435241Y-113509637D01*
X132670273Y-113666680D01*
X132931426Y-113774853D01*
X133208665Y-113830000D01*
X133491335Y-113830000D01*
X133768574Y-113774853D01*
X134029727Y-113666680D01*
X134264759Y-113509637D01*
X134464637Y-113309759D01*
X134617978Y-113080268D01*
X134658972Y-113121262D01*
X134812111Y-113223586D01*
X134982271Y-113294068D01*
X135162911Y-113330000D01*
X135347089Y-113330000D01*
X135527729Y-113294068D01*
X135697889Y-113223586D01*
X135800535Y-113155000D01*
X139488031Y-113155000D01*
X139498927Y-113181305D01*
X139680594Y-113453188D01*
X139911812Y-113684406D01*
X140183695Y-113866073D01*
X140485796Y-113991207D01*
X140806504Y-114055000D01*
X141133496Y-114055000D01*
X141454204Y-113991207D01*
X141756305Y-113866073D01*
X142028188Y-113684406D01*
X142259406Y-113453188D01*
X142441073Y-113181305D01*
X142566207Y-112879204D01*
X142630000Y-112558496D01*
X142630000Y-112231504D01*
X142566207Y-111910796D01*
X142441073Y-111608695D01*
X142259406Y-111336812D01*
X142047594Y-111125000D01*
X142259406Y-110913188D01*
X142441073Y-110641305D01*
X142566207Y-110339204D01*
X142630000Y-110018496D01*
X142630000Y-109691504D01*
X142566207Y-109370796D01*
X142441073Y-109068695D01*
X142259406Y-108796812D01*
X142047594Y-108585000D01*
X142259406Y-108373188D01*
X142441073Y-108101305D01*
X142566207Y-107799204D01*
X142624806Y-107504607D01*
X147191312Y-112071114D01*
X147155000Y-112253665D01*
X147155000Y-112536335D01*
X147210147Y-112813574D01*
X147318320Y-113074727D01*
X147475363Y-113309759D01*
X147675241Y-113509637D01*
X147910273Y-113666680D01*
X148171426Y-113774853D01*
X148448665Y-113830000D01*
X148731335Y-113830000D01*
X149008574Y-113774853D01*
X149269727Y-113666680D01*
X149504759Y-113509637D01*
X149704637Y-113309759D01*
X149861680Y-113074727D01*
X149969853Y-112813574D01*
X150025000Y-112536335D01*
X150025000Y-112253665D01*
X149969853Y-111976426D01*
X149861680Y-111715273D01*
X149704637Y-111480241D01*
X149504759Y-111280363D01*
X149272241Y-111125000D01*
X149504759Y-110969637D01*
X149704637Y-110769759D01*
X149861680Y-110534727D01*
X149969853Y-110273574D01*
X150025000Y-109996335D01*
X150025000Y-109713665D01*
X149969853Y-109436426D01*
X149861680Y-109175273D01*
X149704637Y-108940241D01*
X149504759Y-108740363D01*
X149272241Y-108585000D01*
X149504759Y-108429637D01*
X149704637Y-108229759D01*
X149861680Y-107994727D01*
X149969853Y-107733574D01*
X150019006Y-107486466D01*
X150052111Y-107508586D01*
X150222271Y-107579068D01*
X150402911Y-107615000D01*
X150587089Y-107615000D01*
X150767729Y-107579068D01*
X150937889Y-107508586D01*
X151091028Y-107406262D01*
X151221262Y-107276028D01*
X151323586Y-107122889D01*
X151394068Y-106952729D01*
X151418153Y-106831648D01*
X152275001Y-105974801D01*
X152275000Y-115659465D01*
X152206414Y-115762111D01*
X152135932Y-115932271D01*
X152100000Y-116112911D01*
X152100000Y-116297089D01*
X152135932Y-116477729D01*
X152206414Y-116647889D01*
X152308738Y-116801028D01*
X152438972Y-116931262D01*
X152592111Y-117033586D01*
X152762271Y-117104068D01*
X152942911Y-117140000D01*
X153127089Y-117140000D01*
X153307729Y-117104068D01*
X153477889Y-117033586D01*
X153631028Y-116931262D01*
X153761262Y-116801028D01*
X153863586Y-116647889D01*
X153934068Y-116477729D01*
X153970000Y-116297089D01*
X153970000Y-116112911D01*
X153934068Y-115932271D01*
X153863586Y-115762111D01*
X153795000Y-115659465D01*
X153795000Y-113813744D01*
X153862111Y-113858586D01*
X154032271Y-113929068D01*
X154212911Y-113965000D01*
X154397089Y-113965000D01*
X154577729Y-113929068D01*
X154747889Y-113858586D01*
X154901028Y-113756262D01*
X155031262Y-113626028D01*
X155059884Y-113583192D01*
X155236907Y-113739880D01*
X155517978Y-113903880D01*
X155825643Y-114009894D01*
X156083000Y-113891389D01*
X156083000Y-112522000D01*
X156063000Y-112522000D01*
X156063000Y-112268000D01*
X156083000Y-112268000D01*
X156083000Y-112248000D01*
X156337000Y-112248000D01*
X156337000Y-112268000D01*
X156357000Y-112268000D01*
X156357000Y-112522000D01*
X156337000Y-112522000D01*
X156337000Y-113891389D01*
X156594357Y-114009894D01*
X156902022Y-113903880D01*
X157183093Y-113739880D01*
X157426768Y-113524197D01*
X157484000Y-113448898D01*
X157484000Y-113933421D01*
X153938422Y-117479000D01*
X129271579Y-117479000D01*
X128774000Y-116981422D01*
X128774000Y-110869283D01*
X128973666Y-110909000D01*
X129256336Y-110909000D01*
X129533575Y-110853853D01*
X129794728Y-110745680D01*
X130029760Y-110588637D01*
X130229638Y-110388759D01*
X130386681Y-110153727D01*
X130494854Y-109892574D01*
X130550001Y-109615335D01*
X130550001Y-109332665D01*
X130494854Y-109055426D01*
X130386681Y-108794273D01*
X130229638Y-108559241D01*
X130029760Y-108359363D01*
X129794728Y-108202320D01*
X129533575Y-108094147D01*
X129256336Y-108039000D01*
X128973666Y-108039000D01*
X128774000Y-108078717D01*
X128774000Y-107612465D01*
X128778281Y-107568999D01*
X128774000Y-107525533D01*
X128774000Y-107525523D01*
X128766153Y-107445846D01*
X128929913Y-107523246D01*
X129063961Y-107563904D01*
X129286000Y-107441915D01*
X129286000Y-106299000D01*
X129540000Y-106299000D01*
X129540000Y-107441915D01*
X129762039Y-107563904D01*
X129896087Y-107523246D01*
X130150420Y-107403037D01*
X130376414Y-107235519D01*
X130565385Y-107027131D01*
X130710070Y-106785881D01*
X130804909Y-106521040D01*
X130683624Y-106299000D01*
X129540000Y-106299000D01*
X129286000Y-106299000D01*
X128142376Y-106299000D01*
X128046359Y-106474781D01*
X127920017Y-106348439D01*
X127927000Y-106313335D01*
X127927000Y-106030665D01*
X127885685Y-105822960D01*
X128021091Y-105822960D01*
X128142376Y-106045000D01*
X129286000Y-106045000D01*
X129286000Y-104902085D01*
X129540000Y-104902085D01*
X129540000Y-106045000D01*
X130683624Y-106045000D01*
X130804909Y-105822960D01*
X130710070Y-105558119D01*
X130565385Y-105316869D01*
X130376414Y-105108481D01*
X130150420Y-104940963D01*
X129896087Y-104820754D01*
X129762039Y-104780096D01*
X129540000Y-104902085D01*
X129286000Y-104902085D01*
X129063961Y-104780096D01*
X128929913Y-104820754D01*
X128675580Y-104940963D01*
X128449586Y-105108481D01*
X128260615Y-105316869D01*
X128115930Y-105558119D01*
X128021091Y-105822960D01*
X127885685Y-105822960D01*
X127871853Y-105753426D01*
X127763680Y-105492273D01*
X127606637Y-105257241D01*
X127406759Y-105057363D01*
X127171727Y-104900320D01*
X126910574Y-104792147D01*
X126633335Y-104737000D01*
X126350665Y-104737000D01*
X126073426Y-104792147D01*
X125812273Y-104900320D01*
X125577241Y-105057363D01*
X125377363Y-105257241D01*
X125220320Y-105492273D01*
X125112147Y-105753426D01*
X125057000Y-106030665D01*
X125057000Y-106313335D01*
X125112147Y-106590574D01*
X125220320Y-106851727D01*
X125377363Y-107086759D01*
X125577241Y-107286637D01*
X125812273Y-107443680D01*
X126073426Y-107551853D01*
X126350665Y-107607000D01*
X126633335Y-107607000D01*
X126668439Y-107600017D01*
X127004000Y-107935579D01*
X127004000Y-108098465D01*
X126993575Y-108094147D01*
X126716336Y-108039000D01*
X126433666Y-108039000D01*
X126156427Y-108094147D01*
X125895274Y-108202320D01*
X125660242Y-108359363D01*
X125460364Y-108559241D01*
X125305001Y-108791759D01*
X125149638Y-108559241D01*
X124949760Y-108359363D01*
X124714728Y-108202320D01*
X124453575Y-108094147D01*
X124176336Y-108039000D01*
X123893666Y-108039000D01*
X123616427Y-108094147D01*
X123355274Y-108202320D01*
X123120242Y-108359363D01*
X122920364Y-108559241D01*
X122765001Y-108791759D01*
X122609638Y-108559241D01*
X122409760Y-108359363D01*
X122174728Y-108202320D01*
X121913575Y-108094147D01*
X121636336Y-108039000D01*
X121353666Y-108039000D01*
X121076427Y-108094147D01*
X120815274Y-108202320D01*
X120580242Y-108359363D01*
X120380364Y-108559241D01*
X120223321Y-108794273D01*
X120115148Y-109055426D01*
X120060001Y-109332665D01*
X120060001Y-109615335D01*
X120115148Y-109892574D01*
X120223321Y-110153727D01*
X120380364Y-110388759D01*
X120580242Y-110588637D01*
X120815274Y-110745680D01*
X121076427Y-110853853D01*
X121353666Y-110909000D01*
X121636336Y-110909000D01*
X121913575Y-110853853D01*
X122174728Y-110745680D01*
X122409760Y-110588637D01*
X122609638Y-110388759D01*
X122765001Y-110156241D01*
X122920364Y-110388759D01*
X123120242Y-110588637D01*
X123355274Y-110745680D01*
X123616427Y-110853853D01*
X123893666Y-110909000D01*
X124176336Y-110909000D01*
X124453575Y-110853853D01*
X124714728Y-110745680D01*
X124949760Y-110588637D01*
X125149638Y-110388759D01*
X125305001Y-110156241D01*
X125460364Y-110388759D01*
X125660242Y-110588637D01*
X125895274Y-110745680D01*
X126156427Y-110853853D01*
X126433666Y-110909000D01*
X126716336Y-110909000D01*
X126993575Y-110853853D01*
X127004000Y-110849535D01*
X127004001Y-117304521D01*
X126999719Y-117348000D01*
X127016805Y-117521490D01*
X127067412Y-117688313D01*
X127149590Y-117842059D01*
X127232468Y-117943046D01*
X127232471Y-117943049D01*
X127260184Y-117976817D01*
X127293951Y-118004529D01*
X128248470Y-118959049D01*
X128276183Y-118992817D01*
X128309951Y-119020530D01*
X128309953Y-119020532D01*
X128381452Y-119079210D01*
X128410941Y-119103411D01*
X128564687Y-119185589D01*
X128680903Y-119220843D01*
X128731509Y-119236195D01*
X128746306Y-119237652D01*
X128861523Y-119249000D01*
X128861531Y-119249000D01*
X128905000Y-119253281D01*
X128948469Y-119249000D01*
X154261531Y-119249000D01*
X154305000Y-119253281D01*
X154348469Y-119249000D01*
X154348477Y-119249000D01*
X154478490Y-119236195D01*
X154645313Y-119185589D01*
X154799059Y-119103411D01*
X154933817Y-118992817D01*
X154961534Y-118959044D01*
X158964050Y-114956528D01*
X158997817Y-114928817D01*
X159108411Y-114794059D01*
X159190589Y-114640313D01*
X159241195Y-114473490D01*
X159254000Y-114343477D01*
X159254000Y-114343469D01*
X159258281Y-114300000D01*
X159254000Y-114256531D01*
X159254000Y-91229469D01*
X159258281Y-91186000D01*
X159254000Y-91142531D01*
X159254000Y-91142523D01*
X159241195Y-91012510D01*
X159190589Y-90845687D01*
X159190589Y-90845686D01*
X159108411Y-90691941D01*
X159025532Y-90590953D01*
X159025530Y-90590951D01*
X158997817Y-90557183D01*
X158964049Y-90529470D01*
X157870000Y-89435422D01*
X157870000Y-89371504D01*
X157806207Y-89050796D01*
X157681073Y-88748695D01*
X157499406Y-88476812D01*
X157287594Y-88265000D01*
X157499406Y-88053188D01*
X157681073Y-87781305D01*
X157806207Y-87479204D01*
X157870000Y-87158496D01*
X157870000Y-86831504D01*
X157806207Y-86510796D01*
X157681073Y-86208695D01*
X157499406Y-85936812D01*
X157287594Y-85725000D01*
X157499406Y-85513188D01*
X157681073Y-85241305D01*
X157806207Y-84939204D01*
X157870000Y-84618496D01*
X157870000Y-84291504D01*
X157806207Y-83970796D01*
X157681073Y-83668695D01*
X157499406Y-83396812D01*
X157287594Y-83185000D01*
X157499406Y-82973188D01*
X157681073Y-82701305D01*
X157806207Y-82399204D01*
X157870000Y-82078496D01*
X157870000Y-81751504D01*
X157806207Y-81430796D01*
X157681073Y-81128695D01*
X157499406Y-80856812D01*
X157287594Y-80645000D01*
X157499406Y-80433188D01*
X157681073Y-80161305D01*
X157806207Y-79859204D01*
X157870000Y-79538496D01*
X157870000Y-79211504D01*
X157806207Y-78890796D01*
X157681073Y-78588695D01*
X157499406Y-78316812D01*
X157287594Y-78105000D01*
X157499406Y-77893188D01*
X157681073Y-77621305D01*
X157806207Y-77319204D01*
X157870000Y-76998496D01*
X157870000Y-76671504D01*
X157806207Y-76350796D01*
X157681073Y-76048695D01*
X157499406Y-75776812D01*
X157287594Y-75565000D01*
X157499406Y-75353188D01*
X157681073Y-75081305D01*
X157806207Y-74779204D01*
X157870000Y-74458496D01*
X157870000Y-74131504D01*
X157806207Y-73810796D01*
X157681073Y-73508695D01*
X157499406Y-73236812D01*
X157287594Y-73025000D01*
X157499406Y-72813188D01*
X157681073Y-72541305D01*
X157806207Y-72239204D01*
X157870000Y-71918496D01*
X157870000Y-71591504D01*
X157806207Y-71270796D01*
X157681073Y-70968695D01*
X157499406Y-70696812D01*
X157287594Y-70485000D01*
X157499406Y-70273188D01*
X157681073Y-70001305D01*
X157806207Y-69699204D01*
X157870000Y-69378496D01*
X157870000Y-69051504D01*
X157806207Y-68730796D01*
X157681073Y-68428695D01*
X157499406Y-68156812D01*
X157287594Y-67945000D01*
X157499406Y-67733188D01*
X157681073Y-67461305D01*
X157806207Y-67159204D01*
X157870000Y-66838496D01*
X157870000Y-66511504D01*
X157806207Y-66190796D01*
X157681073Y-65888695D01*
X157499406Y-65616812D01*
X157287594Y-65405000D01*
X157499406Y-65193188D01*
X157681073Y-64921305D01*
X157806207Y-64619204D01*
X157870000Y-64298496D01*
X157870000Y-63971504D01*
X157806207Y-63650796D01*
X157681073Y-63348695D01*
X157499406Y-63076812D01*
X157287594Y-62865000D01*
X157499406Y-62653188D01*
X157681073Y-62381305D01*
X157806207Y-62079204D01*
X157870000Y-61758496D01*
X157870000Y-61431504D01*
X157806207Y-61110796D01*
X157681073Y-60808695D01*
X157499406Y-60536812D01*
X157287594Y-60325000D01*
X157499406Y-60113188D01*
X157681073Y-59841305D01*
X157806207Y-59539204D01*
X157870000Y-59218496D01*
X157870000Y-58891504D01*
X157806207Y-58570796D01*
X157681073Y-58268695D01*
X157499406Y-57996812D01*
X157287594Y-57785000D01*
X157499406Y-57573188D01*
X157681073Y-57301305D01*
X157806207Y-56999204D01*
X157870000Y-56678496D01*
X157870000Y-56351504D01*
X157806207Y-56030796D01*
X157681073Y-55728695D01*
X157499406Y-55456812D01*
X157287594Y-55245000D01*
X157499406Y-55033188D01*
X157681073Y-54761305D01*
X157806207Y-54459204D01*
X157870000Y-54138496D01*
X157870000Y-53811504D01*
X157806207Y-53490796D01*
X157681073Y-53188695D01*
X157499406Y-52916812D01*
X157268188Y-52685594D01*
X156996305Y-52503927D01*
X156694204Y-52378793D01*
X156373496Y-52315000D01*
X156046504Y-52315000D01*
X155725796Y-52378793D01*
X155423695Y-52503927D01*
X155151812Y-52685594D01*
X154920594Y-52916812D01*
X154738927Y-53188695D01*
X154613793Y-53490796D01*
X154550000Y-53811504D01*
X154550000Y-54138496D01*
X154613793Y-54459204D01*
X154738927Y-54761305D01*
X154920594Y-55033188D01*
X155132406Y-55245000D01*
X154920594Y-55456812D01*
X154738927Y-55728695D01*
X154613793Y-56030796D01*
X154550000Y-56351504D01*
X154550000Y-56678496D01*
X154613793Y-56999204D01*
X154738927Y-57301305D01*
X154920594Y-57573188D01*
X155132406Y-57785000D01*
X154920594Y-57996812D01*
X154738927Y-58268695D01*
X154613793Y-58570796D01*
X154550000Y-58891504D01*
X154550000Y-59218496D01*
X154613793Y-59539204D01*
X154738927Y-59841305D01*
X154920594Y-60113188D01*
X155132406Y-60325000D01*
X154920594Y-60536812D01*
X154738927Y-60808695D01*
X154613793Y-61110796D01*
X154550000Y-61431504D01*
X154550000Y-61758496D01*
X154613793Y-62079204D01*
X154738927Y-62381305D01*
X154920594Y-62653188D01*
X155132406Y-62865000D01*
X154920594Y-63076812D01*
X154761225Y-63315324D01*
X154747889Y-63306414D01*
X154577729Y-63235932D01*
X154397089Y-63200000D01*
X154212911Y-63200000D01*
X154032271Y-63235932D01*
X153862111Y-63306414D01*
X153708972Y-63408738D01*
X153578738Y-63538972D01*
X153476414Y-63692111D01*
X153405932Y-63862271D01*
X153370000Y-64042911D01*
X153370000Y-64227089D01*
X153405932Y-64407729D01*
X153476414Y-64577889D01*
X153578738Y-64731028D01*
X153708972Y-64861262D01*
X153862111Y-64963586D01*
X154032271Y-65034068D01*
X154212911Y-65070000D01*
X154397089Y-65070000D01*
X154577729Y-65034068D01*
X154747889Y-64963586D01*
X154761225Y-64954676D01*
X154920594Y-65193188D01*
X155132406Y-65405000D01*
X154920594Y-65616812D01*
X154738927Y-65888695D01*
X154728031Y-65915000D01*
X154215535Y-65915000D01*
X154112889Y-65846414D01*
X153942729Y-65775932D01*
X153762089Y-65740000D01*
X153577911Y-65740000D01*
X153397271Y-65775932D01*
X153227111Y-65846414D01*
X153073972Y-65948738D01*
X152943738Y-66078972D01*
X152841414Y-66232111D01*
X152770932Y-66402271D01*
X152735000Y-66582911D01*
X152735000Y-66767089D01*
X152770932Y-66947729D01*
X152841414Y-67117889D01*
X152943738Y-67271028D01*
X153073972Y-67401262D01*
X153227111Y-67503586D01*
X153397271Y-67574068D01*
X153577911Y-67610000D01*
X153762089Y-67610000D01*
X153942729Y-67574068D01*
X154112889Y-67503586D01*
X154215535Y-67435000D01*
X154728031Y-67435000D01*
X154738927Y-67461305D01*
X154920594Y-67733188D01*
X155132406Y-67945000D01*
X154920594Y-68156812D01*
X154738927Y-68428695D01*
X154728031Y-68455000D01*
X153580535Y-68455000D01*
X153477889Y-68386414D01*
X153307729Y-68315932D01*
X153127089Y-68280000D01*
X152942911Y-68280000D01*
X152762271Y-68315932D01*
X152592111Y-68386414D01*
X152438972Y-68488738D01*
X152308738Y-68618972D01*
X152206414Y-68772111D01*
X152135932Y-68942271D01*
X152100000Y-69122911D01*
X152100000Y-69307089D01*
X152135932Y-69487729D01*
X152206414Y-69657889D01*
X152308738Y-69811028D01*
X152438972Y-69941262D01*
X152592111Y-70043586D01*
X152762271Y-70114068D01*
X152942911Y-70150000D01*
X153127089Y-70150000D01*
X153307729Y-70114068D01*
X153477889Y-70043586D01*
X153580535Y-69975000D01*
X154728031Y-69975000D01*
X154738927Y-70001305D01*
X154920594Y-70273188D01*
X155132406Y-70485000D01*
X154920594Y-70696812D01*
X154738927Y-70968695D01*
X154728031Y-70995000D01*
X152945535Y-70995000D01*
X152842889Y-70926414D01*
X152672729Y-70855932D01*
X152492089Y-70820000D01*
X152307911Y-70820000D01*
X152127271Y-70855932D01*
X151957111Y-70926414D01*
X151803972Y-71028738D01*
X151673738Y-71158972D01*
X151571414Y-71312111D01*
X151500932Y-71482271D01*
X151465000Y-71662911D01*
X151465000Y-71847089D01*
X151500932Y-72027729D01*
X151571414Y-72197889D01*
X151673738Y-72351028D01*
X151803972Y-72481262D01*
X151957111Y-72583586D01*
X152127271Y-72654068D01*
X152307911Y-72690000D01*
X152492089Y-72690000D01*
X152672729Y-72654068D01*
X152842889Y-72583586D01*
X152945535Y-72515000D01*
X154728031Y-72515000D01*
X154738927Y-72541305D01*
X154920594Y-72813188D01*
X155132406Y-73025000D01*
X154920594Y-73236812D01*
X154738927Y-73508695D01*
X154728031Y-73535000D01*
X152310535Y-73535000D01*
X152207889Y-73466414D01*
X152037729Y-73395932D01*
X151857089Y-73360000D01*
X151672911Y-73360000D01*
X151492271Y-73395932D01*
X151322111Y-73466414D01*
X151168972Y-73568738D01*
X151038738Y-73698972D01*
X150936414Y-73852111D01*
X150865932Y-74022271D01*
X150830000Y-74202911D01*
X150830000Y-74387089D01*
X150865932Y-74567729D01*
X150936414Y-74737889D01*
X151038738Y-74891028D01*
X151168972Y-75021262D01*
X151322111Y-75123586D01*
X151492271Y-75194068D01*
X151672911Y-75230000D01*
X151857089Y-75230000D01*
X152037729Y-75194068D01*
X152207889Y-75123586D01*
X152310535Y-75055000D01*
X154728031Y-75055000D01*
X154738927Y-75081305D01*
X154920594Y-75353188D01*
X155132406Y-75565000D01*
X154920594Y-75776812D01*
X154738927Y-76048695D01*
X154728031Y-76075000D01*
X149808043Y-76075000D01*
X149704637Y-75920241D01*
X149504759Y-75720363D01*
X149272241Y-75565000D01*
X149504759Y-75409637D01*
X149698252Y-75216144D01*
X149767911Y-75230000D01*
X149952089Y-75230000D01*
X150132729Y-75194068D01*
X150302889Y-75123586D01*
X150456028Y-75021262D01*
X150586262Y-74891028D01*
X150688586Y-74737889D01*
X150759068Y-74567729D01*
X150795000Y-74387089D01*
X150795000Y-74202911D01*
X150759068Y-74022271D01*
X150688586Y-73852111D01*
X150586262Y-73698972D01*
X150456028Y-73568738D01*
X150302889Y-73466414D01*
X150132729Y-73395932D01*
X149952089Y-73360000D01*
X149767911Y-73360000D01*
X149698252Y-73373856D01*
X149504759Y-73180363D01*
X149272241Y-73025000D01*
X149504759Y-72869637D01*
X149704637Y-72669759D01*
X149808043Y-72515000D01*
X149949465Y-72515000D01*
X150052111Y-72583586D01*
X150222271Y-72654068D01*
X150402911Y-72690000D01*
X150587089Y-72690000D01*
X150767729Y-72654068D01*
X150937889Y-72583586D01*
X151091028Y-72481262D01*
X151221262Y-72351028D01*
X151323586Y-72197889D01*
X151394068Y-72027729D01*
X151430000Y-71847089D01*
X151430000Y-71662911D01*
X151394068Y-71482271D01*
X151323586Y-71312111D01*
X151221262Y-71158972D01*
X151091028Y-71028738D01*
X150937889Y-70926414D01*
X150767729Y-70855932D01*
X150587089Y-70820000D01*
X150402911Y-70820000D01*
X150222271Y-70855932D01*
X150052111Y-70926414D01*
X149949465Y-70995000D01*
X149808043Y-70995000D01*
X149704637Y-70840241D01*
X149504759Y-70640363D01*
X149272241Y-70485000D01*
X149504759Y-70329637D01*
X149704637Y-70129759D01*
X149808043Y-69975000D01*
X150584465Y-69975000D01*
X150687111Y-70043586D01*
X150857271Y-70114068D01*
X151037911Y-70150000D01*
X151222089Y-70150000D01*
X151402729Y-70114068D01*
X151572889Y-70043586D01*
X151726028Y-69941262D01*
X151856262Y-69811028D01*
X151958586Y-69657889D01*
X152029068Y-69487729D01*
X152065000Y-69307089D01*
X152065000Y-69122911D01*
X152029068Y-68942271D01*
X151958586Y-68772111D01*
X151856262Y-68618972D01*
X151726028Y-68488738D01*
X151572889Y-68386414D01*
X151402729Y-68315932D01*
X151222089Y-68280000D01*
X151037911Y-68280000D01*
X150857271Y-68315932D01*
X150687111Y-68386414D01*
X150584465Y-68455000D01*
X149808043Y-68455000D01*
X149704637Y-68300241D01*
X149504759Y-68100363D01*
X149272241Y-67945000D01*
X149504759Y-67789637D01*
X149704637Y-67589759D01*
X149861680Y-67354727D01*
X149969853Y-67093574D01*
X150025000Y-66816335D01*
X150025000Y-66533665D01*
X149969853Y-66256426D01*
X149861680Y-65995273D01*
X149704637Y-65760241D01*
X149504759Y-65560363D01*
X149269727Y-65403320D01*
X149259135Y-65398933D01*
X149445131Y-65287385D01*
X149653519Y-65098414D01*
X149821037Y-64872420D01*
X149941246Y-64618087D01*
X149981904Y-64484039D01*
X149859915Y-64262000D01*
X148717000Y-64262000D01*
X148717000Y-64282000D01*
X148463000Y-64282000D01*
X148463000Y-64262000D01*
X147320085Y-64262000D01*
X147198096Y-64484039D01*
X147238754Y-64618087D01*
X147358963Y-64872420D01*
X147526481Y-65098414D01*
X147734869Y-65287385D01*
X147920865Y-65398933D01*
X147910273Y-65403320D01*
X147675241Y-65560363D01*
X147475363Y-65760241D01*
X147371957Y-65915000D01*
X143824803Y-65915000D01*
X142555311Y-64645509D01*
X142566207Y-64619204D01*
X142630000Y-64298496D01*
X142630000Y-63971504D01*
X142593094Y-63785961D01*
X147198096Y-63785961D01*
X147320085Y-64008000D01*
X148463000Y-64008000D01*
X148463000Y-62864376D01*
X148717000Y-62864376D01*
X148717000Y-64008000D01*
X149859915Y-64008000D01*
X149981904Y-63785961D01*
X149941246Y-63651913D01*
X149821037Y-63397580D01*
X149653519Y-63171586D01*
X149445131Y-62982615D01*
X149203881Y-62837930D01*
X148939040Y-62743091D01*
X148717000Y-62864376D01*
X148463000Y-62864376D01*
X148240960Y-62743091D01*
X147976119Y-62837930D01*
X147734869Y-62982615D01*
X147526481Y-63171586D01*
X147358963Y-63397580D01*
X147238754Y-63651913D01*
X147198096Y-63785961D01*
X142593094Y-63785961D01*
X142566207Y-63650796D01*
X142441073Y-63348695D01*
X142259406Y-63076812D01*
X142047594Y-62865000D01*
X142259406Y-62653188D01*
X142441073Y-62381305D01*
X142566207Y-62079204D01*
X142630000Y-61758496D01*
X142630000Y-61431504D01*
X142566207Y-61110796D01*
X142441073Y-60808695D01*
X142259406Y-60536812D01*
X142047594Y-60325000D01*
X142259406Y-60113188D01*
X142441073Y-59841305D01*
X142566207Y-59539204D01*
X142630000Y-59218496D01*
X142630000Y-58891504D01*
X142566207Y-58570796D01*
X142441073Y-58268695D01*
X142259406Y-57996812D01*
X142047594Y-57785000D01*
X142259406Y-57573188D01*
X142441073Y-57301305D01*
X142566207Y-56999204D01*
X142630000Y-56678496D01*
X142630000Y-56351504D01*
X142566207Y-56030796D01*
X142441073Y-55728695D01*
X142259406Y-55456812D01*
X142047594Y-55245000D01*
X142259406Y-55033188D01*
X142441073Y-54761305D01*
X142566207Y-54459204D01*
X142630000Y-54138496D01*
X142630000Y-53811504D01*
X142566207Y-53490796D01*
X142441073Y-53188695D01*
X142259406Y-52916812D01*
X142172594Y-52830000D01*
X145504465Y-52830000D01*
X145607111Y-52898586D01*
X145777271Y-52969068D01*
X145957911Y-53005000D01*
X146142089Y-53005000D01*
X146322729Y-52969068D01*
X146492889Y-52898586D01*
X146646028Y-52796262D01*
X146776262Y-52666028D01*
X146878586Y-52512889D01*
X146949068Y-52342729D01*
X146985000Y-52162089D01*
X146985000Y-51977911D01*
X146949068Y-51797271D01*
X146878586Y-51627111D01*
X146776262Y-51473972D01*
X146737290Y-51435000D01*
X146776262Y-51396028D01*
X146878586Y-51242889D01*
X146949068Y-51072729D01*
X146985000Y-50892089D01*
X146985000Y-50707911D01*
X146949068Y-50527271D01*
X146878586Y-50357111D01*
X146776262Y-50203972D01*
X146646028Y-50073738D01*
X146492889Y-49971414D01*
X146322729Y-49900932D01*
X146142089Y-49865000D01*
X145957911Y-49865000D01*
X145777271Y-49900932D01*
X145607111Y-49971414D01*
X145504465Y-50040000D01*
X139102322Y-50040000D01*
X139064999Y-50036324D01*
X139027676Y-50040000D01*
X139027667Y-50040000D01*
X138916014Y-50050997D01*
X138772753Y-50094454D01*
X138640724Y-50165026D01*
X138524999Y-50259999D01*
X138501201Y-50288997D01*
X137284003Y-51506196D01*
X137254999Y-51529999D01*
X137199871Y-51597174D01*
X137160026Y-51645724D01*
X137131513Y-51699068D01*
X137089454Y-51777754D01*
X137045997Y-51921015D01*
X137035000Y-52032668D01*
X137035000Y-52032678D01*
X137031324Y-52070000D01*
X137035000Y-52107322D01*
X137035001Y-63818787D01*
X136127788Y-64726001D01*
X134658431Y-64726001D01*
X134729853Y-64553574D01*
X134785000Y-64276335D01*
X134785000Y-63993665D01*
X134729853Y-63716426D01*
X134621680Y-63455273D01*
X134464637Y-63220241D01*
X134264759Y-63020363D01*
X134222311Y-62992000D01*
X136525000Y-62992000D01*
X136549776Y-62989560D01*
X136573601Y-62982333D01*
X136595557Y-62970597D01*
X136614803Y-62954803D01*
X136630597Y-62935557D01*
X136642333Y-62913601D01*
X136649560Y-62889776D01*
X136652000Y-62865000D01*
X136652000Y-44577000D01*
X159893000Y-44577000D01*
X159893000Y-128143000D01*
G37*
X159893000Y-128143000D02*
X115697000Y-128143000D01*
X115697000Y-117443039D01*
X122643097Y-117443039D01*
X122683755Y-117577087D01*
X122803964Y-117831420D01*
X122971482Y-118057414D01*
X123179870Y-118246385D01*
X123421120Y-118391070D01*
X123685961Y-118485909D01*
X123908001Y-118364624D01*
X123908001Y-117221000D01*
X124162001Y-117221000D01*
X124162001Y-118364624D01*
X124384041Y-118485909D01*
X124648882Y-118391070D01*
X124890132Y-118246385D01*
X125098520Y-118057414D01*
X125266038Y-117831420D01*
X125386247Y-117577087D01*
X125426905Y-117443039D01*
X125304916Y-117221000D01*
X124162001Y-117221000D01*
X123908001Y-117221000D01*
X122765086Y-117221000D01*
X122643097Y-117443039D01*
X115697000Y-117443039D01*
X115697000Y-116744961D01*
X122643097Y-116744961D01*
X122765086Y-116967000D01*
X123908001Y-116967000D01*
X123908001Y-115823376D01*
X124162001Y-115823376D01*
X124162001Y-116967000D01*
X125304916Y-116967000D01*
X125426905Y-116744961D01*
X125386247Y-116610913D01*
X125266038Y-116356580D01*
X125098520Y-116130586D01*
X124890132Y-115941615D01*
X124648882Y-115796930D01*
X124384041Y-115702091D01*
X124162001Y-115823376D01*
X123908001Y-115823376D01*
X123685961Y-115702091D01*
X123421120Y-115796930D01*
X123179870Y-115941615D01*
X122971482Y-116130586D01*
X122803964Y-116356580D01*
X122683755Y-116610913D01*
X122643097Y-116744961D01*
X115697000Y-116744961D01*
X115697000Y-106030665D01*
X116294000Y-106030665D01*
X116294000Y-106313335D01*
X116349147Y-106590574D01*
X116457320Y-106851727D01*
X116614363Y-107086759D01*
X116814241Y-107286637D01*
X117049273Y-107443680D01*
X117310426Y-107551853D01*
X117587665Y-107607000D01*
X117870335Y-107607000D01*
X118147574Y-107551853D01*
X118408727Y-107443680D01*
X118643759Y-107286637D01*
X118843637Y-107086759D01*
X119000680Y-106851727D01*
X119108853Y-106590574D01*
X119164000Y-106313335D01*
X119164000Y-106030665D01*
X119215000Y-106030665D01*
X119215000Y-106313335D01*
X119270147Y-106590574D01*
X119378320Y-106851727D01*
X119535363Y-107086759D01*
X119735241Y-107286637D01*
X119970273Y-107443680D01*
X120231426Y-107551853D01*
X120508665Y-107607000D01*
X120791335Y-107607000D01*
X121068574Y-107551853D01*
X121329727Y-107443680D01*
X121564759Y-107286637D01*
X121764637Y-107086759D01*
X121921680Y-106851727D01*
X122029853Y-106590574D01*
X122085000Y-106313335D01*
X122085000Y-106030665D01*
X122136000Y-106030665D01*
X122136000Y-106313335D01*
X122191147Y-106590574D01*
X122299320Y-106851727D01*
X122456363Y-107086759D01*
X122656241Y-107286637D01*
X122891273Y-107443680D01*
X123152426Y-107551853D01*
X123429665Y-107607000D01*
X123712335Y-107607000D01*
X123989574Y-107551853D01*
X124250727Y-107443680D01*
X124485759Y-107286637D01*
X124685637Y-107086759D01*
X124842680Y-106851727D01*
X124950853Y-106590574D01*
X125006000Y-106313335D01*
X125006000Y-106030665D01*
X124950853Y-105753426D01*
X124842680Y-105492273D01*
X124685637Y-105257241D01*
X124485759Y-105057363D01*
X124250727Y-104900320D01*
X123989574Y-104792147D01*
X123712335Y-104737000D01*
X123429665Y-104737000D01*
X123152426Y-104792147D01*
X122891273Y-104900320D01*
X122656241Y-105057363D01*
X122456363Y-105257241D01*
X122299320Y-105492273D01*
X122191147Y-105753426D01*
X122136000Y-106030665D01*
X122085000Y-106030665D01*
X122029853Y-105753426D01*
X121921680Y-105492273D01*
X121764637Y-105257241D01*
X121564759Y-105057363D01*
X121329727Y-104900320D01*
X121068574Y-104792147D01*
X120791335Y-104737000D01*
X120508665Y-104737000D01*
X120231426Y-104792147D01*
X119970273Y-104900320D01*
X119735241Y-105057363D01*
X119535363Y-105257241D01*
X119378320Y-105492273D01*
X119270147Y-105753426D01*
X119215000Y-106030665D01*
X119164000Y-106030665D01*
X119108853Y-105753426D01*
X119000680Y-105492273D01*
X118843637Y-105257241D01*
X118643759Y-105057363D01*
X118408727Y-104900320D01*
X118147574Y-104792147D01*
X117870335Y-104737000D01*
X117587665Y-104737000D01*
X117310426Y-104792147D01*
X117049273Y-104900320D01*
X116814241Y-105057363D01*
X116614363Y-105257241D01*
X116457320Y-105492273D01*
X116349147Y-105753426D01*
X116294000Y-106030665D01*
X115697000Y-106030665D01*
X115697000Y-98410665D01*
X116294000Y-98410665D01*
X116294000Y-98693335D01*
X116349147Y-98970574D01*
X116457320Y-99231727D01*
X116614363Y-99466759D01*
X116814241Y-99666637D01*
X117049273Y-99823680D01*
X117310426Y-99931853D01*
X117587665Y-99987000D01*
X117870335Y-99987000D01*
X118147574Y-99931853D01*
X118408727Y-99823680D01*
X118643759Y-99666637D01*
X118843637Y-99466759D01*
X118863521Y-99437000D01*
X119515479Y-99437000D01*
X119535363Y-99466759D01*
X119735241Y-99666637D01*
X119970273Y-99823680D01*
X120231426Y-99931853D01*
X120508665Y-99987000D01*
X120791335Y-99987000D01*
X121068574Y-99931853D01*
X121329727Y-99823680D01*
X121564759Y-99666637D01*
X121764637Y-99466759D01*
X121784521Y-99437000D01*
X122436479Y-99437000D01*
X122456363Y-99466759D01*
X122656241Y-99666637D01*
X122891273Y-99823680D01*
X123152426Y-99931853D01*
X123429665Y-99987000D01*
X123712335Y-99987000D01*
X123989574Y-99931853D01*
X124250727Y-99823680D01*
X124485759Y-99666637D01*
X124685637Y-99466759D01*
X124842680Y-99231727D01*
X124950853Y-98970574D01*
X125006000Y-98693335D01*
X125006000Y-98410665D01*
X124950853Y-98133426D01*
X124842680Y-97872273D01*
X124685637Y-97637241D01*
X124485759Y-97437363D01*
X124250727Y-97280320D01*
X123989574Y-97172147D01*
X123712335Y-97117000D01*
X123429665Y-97117000D01*
X123152426Y-97172147D01*
X122891273Y-97280320D01*
X122656241Y-97437363D01*
X122456363Y-97637241D01*
X122436479Y-97667000D01*
X121784521Y-97667000D01*
X121764637Y-97637241D01*
X121564759Y-97437363D01*
X121329727Y-97280320D01*
X121068574Y-97172147D01*
X120791335Y-97117000D01*
X120508665Y-97117000D01*
X120231426Y-97172147D01*
X119970273Y-97280320D01*
X119735241Y-97437363D01*
X119535363Y-97637241D01*
X119515479Y-97667000D01*
X118863521Y-97667000D01*
X118843637Y-97637241D01*
X118643759Y-97437363D01*
X118408727Y-97280320D01*
X118147574Y-97172147D01*
X117870335Y-97117000D01*
X117587665Y-97117000D01*
X117310426Y-97172147D01*
X117049273Y-97280320D01*
X116814241Y-97437363D01*
X116614363Y-97637241D01*
X116457320Y-97872273D01*
X116349147Y-98133426D01*
X116294000Y-98410665D01*
X115697000Y-98410665D01*
X115697000Y-62992000D01*
X132477689Y-62992000D01*
X132435241Y-63020363D01*
X132235363Y-63220241D01*
X132078320Y-63455273D01*
X131970147Y-63716426D01*
X131915000Y-63993665D01*
X131915000Y-64276335D01*
X131970147Y-64553574D01*
X132041569Y-64726001D01*
X130512327Y-64726001D01*
X130475004Y-64722325D01*
X130437682Y-64726001D01*
X130437672Y-64726001D01*
X130326019Y-64736998D01*
X130182758Y-64780455D01*
X130050728Y-64851027D01*
X129994385Y-64897267D01*
X129935004Y-64946000D01*
X129911206Y-64974999D01*
X129642357Y-65243847D01*
X129521277Y-65267932D01*
X129351117Y-65338414D01*
X129197978Y-65440738D01*
X129067744Y-65570972D01*
X128965420Y-65724111D01*
X128894938Y-65894271D01*
X128859006Y-66074911D01*
X128859006Y-66259089D01*
X128894938Y-66439729D01*
X128965420Y-66609889D01*
X129067744Y-66763028D01*
X129197978Y-66893262D01*
X129351117Y-66995586D01*
X129521277Y-67066068D01*
X129701917Y-67102000D01*
X129886095Y-67102000D01*
X130066735Y-67066068D01*
X130236895Y-66995586D01*
X130390034Y-66893262D01*
X130520268Y-66763028D01*
X130622592Y-66609889D01*
X130693074Y-66439729D01*
X130717159Y-66318649D01*
X130789807Y-66246001D01*
X131974465Y-66246001D01*
X131970147Y-66256426D01*
X131915000Y-66533665D01*
X131915000Y-66816335D01*
X131970147Y-67093574D01*
X132008017Y-67185000D01*
X119745952Y-67185000D01*
X119708629Y-67181324D01*
X119671306Y-67185000D01*
X119671297Y-67185000D01*
X119559644Y-67195997D01*
X119416383Y-67239454D01*
X119284354Y-67310026D01*
X119168629Y-67404999D01*
X119144831Y-67433997D01*
X118697875Y-67880953D01*
X118576795Y-67905038D01*
X118406635Y-67975520D01*
X118253496Y-68077844D01*
X118123262Y-68208078D01*
X118020938Y-68361217D01*
X117950456Y-68531377D01*
X117914524Y-68712017D01*
X117914524Y-68896195D01*
X117950456Y-69076835D01*
X118020938Y-69246995D01*
X118123262Y-69400134D01*
X118253496Y-69530368D01*
X118406635Y-69632692D01*
X118576795Y-69703174D01*
X118757435Y-69739106D01*
X118941613Y-69739106D01*
X119122253Y-69703174D01*
X119292413Y-69632692D01*
X119445552Y-69530368D01*
X119575786Y-69400134D01*
X119678110Y-69246995D01*
X119748592Y-69076835D01*
X119772677Y-68955755D01*
X120023432Y-68705000D01*
X132008017Y-68705000D01*
X131970147Y-68796426D01*
X131915000Y-69073665D01*
X131915000Y-69356335D01*
X131970147Y-69633574D01*
X132008017Y-69725000D01*
X130108800Y-69725000D01*
X129549802Y-69166003D01*
X129526000Y-69137000D01*
X129410275Y-69042027D01*
X129278246Y-68971455D01*
X129134985Y-68927998D01*
X129023332Y-68917001D01*
X129023321Y-68917001D01*
X128985999Y-68913325D01*
X128948677Y-68917001D01*
X122087068Y-68917001D01*
X122049735Y-68913324D01*
X122012402Y-68917001D01*
X121900749Y-68927998D01*
X121757488Y-68971455D01*
X121625459Y-69042027D01*
X121509734Y-69137000D01*
X121485936Y-69165998D01*
X119758003Y-70893932D01*
X119728999Y-70917735D01*
X119687178Y-70968695D01*
X119634026Y-71033460D01*
X119600870Y-71095491D01*
X119563454Y-71165490D01*
X119519997Y-71308751D01*
X119509000Y-71420404D01*
X119509000Y-71420414D01*
X119505324Y-71457736D01*
X119509000Y-71495058D01*
X119509001Y-86670892D01*
X119369525Y-86810368D01*
X119253000Y-86984760D01*
X119136475Y-86810368D01*
X118929632Y-86603525D01*
X118686411Y-86441010D01*
X118416158Y-86329068D01*
X118129260Y-86272000D01*
X117836740Y-86272000D01*
X117549842Y-86329068D01*
X117279589Y-86441010D01*
X117036368Y-86603525D01*
X116829525Y-86810368D01*
X116667010Y-87053589D01*
X116555068Y-87323842D01*
X116498000Y-87610740D01*
X116498000Y-87903260D01*
X116555068Y-88190158D01*
X116667010Y-88460411D01*
X116829525Y-88703632D01*
X117036368Y-88910475D01*
X117279589Y-89072990D01*
X117475165Y-89154000D01*
X117279589Y-89235010D01*
X117036368Y-89397525D01*
X116829525Y-89604368D01*
X116667010Y-89847589D01*
X116555068Y-90117842D01*
X116498000Y-90404740D01*
X116498000Y-90697260D01*
X116555068Y-90984158D01*
X116667010Y-91254411D01*
X116829525Y-91497632D01*
X117036368Y-91704475D01*
X117279589Y-91866990D01*
X117475165Y-91948000D01*
X117279589Y-92029010D01*
X117036368Y-92191525D01*
X116829525Y-92398368D01*
X116667010Y-92641589D01*
X116555068Y-92911842D01*
X116498000Y-93198740D01*
X116498000Y-93491260D01*
X116555068Y-93778158D01*
X116667010Y-94048411D01*
X116829525Y-94291632D01*
X117036368Y-94498475D01*
X117279589Y-94660990D01*
X117549842Y-94772932D01*
X117836740Y-94830000D01*
X118129260Y-94830000D01*
X118416158Y-94772932D01*
X118686411Y-94660990D01*
X118929632Y-94498475D01*
X119136475Y-94291632D01*
X119253000Y-94117240D01*
X119369525Y-94291632D01*
X119576368Y-94498475D01*
X119819589Y-94660990D01*
X120089842Y-94772932D01*
X120376740Y-94830000D01*
X120669260Y-94830000D01*
X120889408Y-94786209D01*
X121991201Y-95888003D01*
X122014999Y-95917001D01*
X122043997Y-95940799D01*
X122130723Y-96011974D01*
X122262753Y-96082546D01*
X122406014Y-96126003D01*
X122517667Y-96137000D01*
X122517677Y-96137000D01*
X122555000Y-96140676D01*
X122592323Y-96137000D01*
X124168465Y-96137000D01*
X124271111Y-96205586D01*
X124441271Y-96276068D01*
X124621911Y-96312000D01*
X124806089Y-96312000D01*
X124986729Y-96276068D01*
X125156889Y-96205586D01*
X125310028Y-96103262D01*
X125440262Y-95973028D01*
X125542586Y-95819889D01*
X125613068Y-95649729D01*
X125649000Y-95469089D01*
X125649000Y-95284911D01*
X125613068Y-95104271D01*
X125542586Y-94934111D01*
X125440262Y-94780972D01*
X125310028Y-94650738D01*
X125156889Y-94548414D01*
X124986729Y-94477932D01*
X124806089Y-94442000D01*
X124621911Y-94442000D01*
X124486609Y-94468914D01*
X124502502Y-94439180D01*
X124538812Y-94319482D01*
X124551072Y-94195000D01*
X124548000Y-93630750D01*
X124389250Y-93472000D01*
X123190000Y-93472000D01*
X123190000Y-93492000D01*
X122936000Y-93492000D01*
X122936000Y-93472000D01*
X122916000Y-93472000D01*
X122916000Y-93218000D01*
X122936000Y-93218000D01*
X122936000Y-92018750D01*
X122865250Y-91948000D01*
X122936000Y-91877250D01*
X122936000Y-90678000D01*
X123190000Y-90678000D01*
X123190000Y-91877250D01*
X123260750Y-91948000D01*
X123190000Y-92018750D01*
X123190000Y-93218000D01*
X124389250Y-93218000D01*
X124548000Y-93059250D01*
X124551072Y-92495000D01*
X124538812Y-92370518D01*
X124502502Y-92250820D01*
X124443537Y-92140506D01*
X124364185Y-92043815D01*
X124267494Y-91964463D01*
X124236694Y-91948000D01*
X124267494Y-91931537D01*
X124364185Y-91852185D01*
X124443537Y-91755494D01*
X124502502Y-91645180D01*
X124538812Y-91525482D01*
X124551072Y-91401000D01*
X124548000Y-90836750D01*
X124389250Y-90678000D01*
X123190000Y-90678000D01*
X122936000Y-90678000D01*
X122916000Y-90678000D01*
X122916000Y-90424000D01*
X122936000Y-90424000D01*
X122936000Y-89224750D01*
X122865250Y-89154000D01*
X122936000Y-89083250D01*
X122936000Y-87884000D01*
X123190000Y-87884000D01*
X123190000Y-89083250D01*
X123260750Y-89154000D01*
X123190000Y-89224750D01*
X123190000Y-90424000D01*
X124389250Y-90424000D01*
X124548000Y-90265250D01*
X124551072Y-89701000D01*
X124538812Y-89576518D01*
X124502502Y-89456820D01*
X124443537Y-89346506D01*
X124364185Y-89249815D01*
X124267494Y-89170463D01*
X124236694Y-89154000D01*
X124267494Y-89137537D01*
X124364185Y-89058185D01*
X124443537Y-88961494D01*
X124502502Y-88851180D01*
X124538812Y-88731482D01*
X124551072Y-88607000D01*
X124548000Y-88042750D01*
X124389250Y-87884000D01*
X123190000Y-87884000D01*
X122936000Y-87884000D01*
X122916000Y-87884000D01*
X122916000Y-87630000D01*
X122936000Y-87630000D01*
X122936000Y-86430750D01*
X123190000Y-86430750D01*
X123190000Y-87630000D01*
X124389250Y-87630000D01*
X124548000Y-87471250D01*
X124551072Y-86907000D01*
X124538812Y-86782518D01*
X124502502Y-86662820D01*
X124443537Y-86552506D01*
X124364185Y-86455815D01*
X124267494Y-86376463D01*
X124157180Y-86317498D01*
X124037482Y-86281188D01*
X123913000Y-86268928D01*
X123348750Y-86272000D01*
X123190000Y-86430750D01*
X122936000Y-86430750D01*
X122777250Y-86272000D01*
X122213000Y-86268928D01*
X122088518Y-86281188D01*
X121968820Y-86317498D01*
X121858506Y-86376463D01*
X121761815Y-86455815D01*
X121682463Y-86552506D01*
X121623498Y-86662820D01*
X121601487Y-86735380D01*
X121469632Y-86603525D01*
X121226411Y-86441010D01*
X121029000Y-86359240D01*
X121029000Y-77068578D01*
X128401000Y-84440579D01*
X128401001Y-87019378D01*
X128291820Y-87052498D01*
X128181506Y-87111463D01*
X128084815Y-87190815D01*
X128005463Y-87287506D01*
X127946498Y-87397820D01*
X127910188Y-87517518D01*
X127897928Y-87642000D01*
X127897928Y-89142000D01*
X127910188Y-89266482D01*
X127946498Y-89386180D01*
X128005463Y-89496494D01*
X128084815Y-89593185D01*
X128181506Y-89672537D01*
X128291820Y-89731502D01*
X128411518Y-89767812D01*
X128519483Y-89778445D01*
X128403114Y-89856201D01*
X128210201Y-90049114D01*
X128058629Y-90275957D01*
X127954225Y-90528011D01*
X127901000Y-90795589D01*
X127901000Y-91068411D01*
X127954225Y-91335989D01*
X128058629Y-91588043D01*
X128210201Y-91814886D01*
X128403114Y-92007799D01*
X128629957Y-92159371D01*
X128732873Y-92202000D01*
X128629957Y-92244629D01*
X128403114Y-92396201D01*
X128210201Y-92589114D01*
X128058629Y-92815957D01*
X127954225Y-93068011D01*
X127901000Y-93335589D01*
X127901000Y-93608411D01*
X127929833Y-93753365D01*
X125981003Y-95702196D01*
X125951999Y-95725999D01*
X125911665Y-95775147D01*
X125857026Y-95841724D01*
X125786842Y-95973028D01*
X125786454Y-95973754D01*
X125742997Y-96117015D01*
X125732000Y-96228668D01*
X125732000Y-96228678D01*
X125728324Y-96266000D01*
X125732000Y-96303323D01*
X125732000Y-97333956D01*
X125577241Y-97437363D01*
X125377363Y-97637241D01*
X125220320Y-97872273D01*
X125112147Y-98133426D01*
X125057000Y-98410665D01*
X125057000Y-98693335D01*
X125112147Y-98970574D01*
X125220320Y-99231727D01*
X125377363Y-99466759D01*
X125577241Y-99666637D01*
X125812273Y-99823680D01*
X126073426Y-99931853D01*
X126350665Y-99987000D01*
X126633335Y-99987000D01*
X126910574Y-99931853D01*
X127171727Y-99823680D01*
X127406759Y-99666637D01*
X127606637Y-99466759D01*
X127763680Y-99231727D01*
X127871853Y-98970574D01*
X127927000Y-98693335D01*
X127927000Y-98410665D01*
X127871853Y-98133426D01*
X127763680Y-97872273D01*
X127606637Y-97637241D01*
X127406759Y-97437363D01*
X127252000Y-97333957D01*
X127252000Y-96580801D01*
X129004635Y-94828167D01*
X129149589Y-94857000D01*
X129422411Y-94857000D01*
X129689989Y-94803775D01*
X129923000Y-94707259D01*
X129923001Y-96967197D01*
X129736886Y-97153312D01*
X129554335Y-97117000D01*
X129271665Y-97117000D01*
X128994426Y-97172147D01*
X128733273Y-97280320D01*
X128498241Y-97437363D01*
X128298363Y-97637241D01*
X128141320Y-97872273D01*
X128033147Y-98133426D01*
X127978000Y-98410665D01*
X127978000Y-98693335D01*
X128033147Y-98970574D01*
X128141320Y-99231727D01*
X128298363Y-99466759D01*
X128498241Y-99666637D01*
X128733273Y-99823680D01*
X128994426Y-99931853D01*
X129271665Y-99987000D01*
X129554335Y-99987000D01*
X129831574Y-99931853D01*
X130092727Y-99823680D01*
X130327759Y-99666637D01*
X130527637Y-99466759D01*
X130684680Y-99231727D01*
X130792853Y-98970574D01*
X130848000Y-98693335D01*
X130848000Y-98410665D01*
X130811688Y-98228114D01*
X131194003Y-97845799D01*
X131223001Y-97822001D01*
X131317974Y-97706276D01*
X131320001Y-97702484D01*
X131320000Y-111087678D01*
X131316324Y-111125000D01*
X131320000Y-111162322D01*
X131320000Y-111162332D01*
X131330997Y-111273985D01*
X131374454Y-111417246D01*
X131445026Y-111549276D01*
X131459091Y-111566414D01*
X131539999Y-111665001D01*
X131569003Y-111688804D01*
X131951312Y-112071114D01*
X131915000Y-112253665D01*
X131915000Y-112536335D01*
X131970147Y-112813574D01*
X132078320Y-113074727D01*
X132235363Y-113309759D01*
X132435241Y-113509637D01*
X132670273Y-113666680D01*
X132931426Y-113774853D01*
X133208665Y-113830000D01*
X133491335Y-113830000D01*
X133768574Y-113774853D01*
X134029727Y-113666680D01*
X134264759Y-113509637D01*
X134464637Y-113309759D01*
X134617978Y-113080268D01*
X134658972Y-113121262D01*
X134812111Y-113223586D01*
X134982271Y-113294068D01*
X135162911Y-113330000D01*
X135347089Y-113330000D01*
X135527729Y-113294068D01*
X135697889Y-113223586D01*
X135800535Y-113155000D01*
X139488031Y-113155000D01*
X139498927Y-113181305D01*
X139680594Y-113453188D01*
X139911812Y-113684406D01*
X140183695Y-113866073D01*
X140485796Y-113991207D01*
X140806504Y-114055000D01*
X141133496Y-114055000D01*
X141454204Y-113991207D01*
X141756305Y-113866073D01*
X142028188Y-113684406D01*
X142259406Y-113453188D01*
X142441073Y-113181305D01*
X142566207Y-112879204D01*
X142630000Y-112558496D01*
X142630000Y-112231504D01*
X142566207Y-111910796D01*
X142441073Y-111608695D01*
X142259406Y-111336812D01*
X142047594Y-111125000D01*
X142259406Y-110913188D01*
X142441073Y-110641305D01*
X142566207Y-110339204D01*
X142630000Y-110018496D01*
X142630000Y-109691504D01*
X142566207Y-109370796D01*
X142441073Y-109068695D01*
X142259406Y-108796812D01*
X142047594Y-108585000D01*
X142259406Y-108373188D01*
X142441073Y-108101305D01*
X142566207Y-107799204D01*
X142624806Y-107504607D01*
X147191312Y-112071114D01*
X147155000Y-112253665D01*
X147155000Y-112536335D01*
X147210147Y-112813574D01*
X147318320Y-113074727D01*
X147475363Y-113309759D01*
X147675241Y-113509637D01*
X147910273Y-113666680D01*
X148171426Y-113774853D01*
X148448665Y-113830000D01*
X148731335Y-113830000D01*
X149008574Y-113774853D01*
X149269727Y-113666680D01*
X149504759Y-113509637D01*
X149704637Y-113309759D01*
X149861680Y-113074727D01*
X149969853Y-112813574D01*
X150025000Y-112536335D01*
X150025000Y-112253665D01*
X149969853Y-111976426D01*
X149861680Y-111715273D01*
X149704637Y-111480241D01*
X149504759Y-111280363D01*
X149272241Y-111125000D01*
X149504759Y-110969637D01*
X149704637Y-110769759D01*
X149861680Y-110534727D01*
X149969853Y-110273574D01*
X150025000Y-109996335D01*
X150025000Y-109713665D01*
X149969853Y-109436426D01*
X149861680Y-109175273D01*
X149704637Y-108940241D01*
X149504759Y-108740363D01*
X149272241Y-108585000D01*
X149504759Y-108429637D01*
X149704637Y-108229759D01*
X149861680Y-107994727D01*
X149969853Y-107733574D01*
X150019006Y-107486466D01*
X150052111Y-107508586D01*
X150222271Y-107579068D01*
X150402911Y-107615000D01*
X150587089Y-107615000D01*
X150767729Y-107579068D01*
X150937889Y-107508586D01*
X151091028Y-107406262D01*
X151221262Y-107276028D01*
X151323586Y-107122889D01*
X151394068Y-106952729D01*
X151418153Y-106831648D01*
X152275001Y-105974801D01*
X152275000Y-115659465D01*
X152206414Y-115762111D01*
X152135932Y-115932271D01*
X152100000Y-116112911D01*
X152100000Y-116297089D01*
X152135932Y-116477729D01*
X152206414Y-116647889D01*
X152308738Y-116801028D01*
X152438972Y-116931262D01*
X152592111Y-117033586D01*
X152762271Y-117104068D01*
X152942911Y-117140000D01*
X153127089Y-117140000D01*
X153307729Y-117104068D01*
X153477889Y-117033586D01*
X153631028Y-116931262D01*
X153761262Y-116801028D01*
X153863586Y-116647889D01*
X153934068Y-116477729D01*
X153970000Y-116297089D01*
X153970000Y-116112911D01*
X153934068Y-115932271D01*
X153863586Y-115762111D01*
X153795000Y-115659465D01*
X153795000Y-113813744D01*
X153862111Y-113858586D01*
X154032271Y-113929068D01*
X154212911Y-113965000D01*
X154397089Y-113965000D01*
X154577729Y-113929068D01*
X154747889Y-113858586D01*
X154901028Y-113756262D01*
X155031262Y-113626028D01*
X155059884Y-113583192D01*
X155236907Y-113739880D01*
X155517978Y-113903880D01*
X155825643Y-114009894D01*
X156083000Y-113891389D01*
X156083000Y-112522000D01*
X156063000Y-112522000D01*
X156063000Y-112268000D01*
X156083000Y-112268000D01*
X156083000Y-112248000D01*
X156337000Y-112248000D01*
X156337000Y-112268000D01*
X156357000Y-112268000D01*
X156357000Y-112522000D01*
X156337000Y-112522000D01*
X156337000Y-113891389D01*
X156594357Y-114009894D01*
X156902022Y-113903880D01*
X157183093Y-113739880D01*
X157426768Y-113524197D01*
X157484000Y-113448898D01*
X157484000Y-113933421D01*
X153938422Y-117479000D01*
X129271579Y-117479000D01*
X128774000Y-116981422D01*
X128774000Y-110869283D01*
X128973666Y-110909000D01*
X129256336Y-110909000D01*
X129533575Y-110853853D01*
X129794728Y-110745680D01*
X130029760Y-110588637D01*
X130229638Y-110388759D01*
X130386681Y-110153727D01*
X130494854Y-109892574D01*
X130550001Y-109615335D01*
X130550001Y-109332665D01*
X130494854Y-109055426D01*
X130386681Y-108794273D01*
X130229638Y-108559241D01*
X130029760Y-108359363D01*
X129794728Y-108202320D01*
X129533575Y-108094147D01*
X129256336Y-108039000D01*
X128973666Y-108039000D01*
X128774000Y-108078717D01*
X128774000Y-107612465D01*
X128778281Y-107568999D01*
X128774000Y-107525533D01*
X128774000Y-107525523D01*
X128766153Y-107445846D01*
X128929913Y-107523246D01*
X129063961Y-107563904D01*
X129286000Y-107441915D01*
X129286000Y-106299000D01*
X129540000Y-106299000D01*
X129540000Y-107441915D01*
X129762039Y-107563904D01*
X129896087Y-107523246D01*
X130150420Y-107403037D01*
X130376414Y-107235519D01*
X130565385Y-107027131D01*
X130710070Y-106785881D01*
X130804909Y-106521040D01*
X130683624Y-106299000D01*
X129540000Y-106299000D01*
X129286000Y-106299000D01*
X128142376Y-106299000D01*
X128046359Y-106474781D01*
X127920017Y-106348439D01*
X127927000Y-106313335D01*
X127927000Y-106030665D01*
X127885685Y-105822960D01*
X128021091Y-105822960D01*
X128142376Y-106045000D01*
X129286000Y-106045000D01*
X129286000Y-104902085D01*
X129540000Y-104902085D01*
X129540000Y-106045000D01*
X130683624Y-106045000D01*
X130804909Y-105822960D01*
X130710070Y-105558119D01*
X130565385Y-105316869D01*
X130376414Y-105108481D01*
X130150420Y-104940963D01*
X129896087Y-104820754D01*
X129762039Y-104780096D01*
X129540000Y-104902085D01*
X129286000Y-104902085D01*
X129063961Y-104780096D01*
X128929913Y-104820754D01*
X128675580Y-104940963D01*
X128449586Y-105108481D01*
X128260615Y-105316869D01*
X128115930Y-105558119D01*
X128021091Y-105822960D01*
X127885685Y-105822960D01*
X127871853Y-105753426D01*
X127763680Y-105492273D01*
X127606637Y-105257241D01*
X127406759Y-105057363D01*
X127171727Y-104900320D01*
X126910574Y-104792147D01*
X126633335Y-104737000D01*
X126350665Y-104737000D01*
X126073426Y-104792147D01*
X125812273Y-104900320D01*
X125577241Y-105057363D01*
X125377363Y-105257241D01*
X125220320Y-105492273D01*
X125112147Y-105753426D01*
X125057000Y-106030665D01*
X125057000Y-106313335D01*
X125112147Y-106590574D01*
X125220320Y-106851727D01*
X125377363Y-107086759D01*
X125577241Y-107286637D01*
X125812273Y-107443680D01*
X126073426Y-107551853D01*
X126350665Y-107607000D01*
X126633335Y-107607000D01*
X126668439Y-107600017D01*
X127004000Y-107935579D01*
X127004000Y-108098465D01*
X126993575Y-108094147D01*
X126716336Y-108039000D01*
X126433666Y-108039000D01*
X126156427Y-108094147D01*
X125895274Y-108202320D01*
X125660242Y-108359363D01*
X125460364Y-108559241D01*
X125305001Y-108791759D01*
X125149638Y-108559241D01*
X124949760Y-108359363D01*
X124714728Y-108202320D01*
X124453575Y-108094147D01*
X124176336Y-108039000D01*
X123893666Y-108039000D01*
X123616427Y-108094147D01*
X123355274Y-108202320D01*
X123120242Y-108359363D01*
X122920364Y-108559241D01*
X122765001Y-108791759D01*
X122609638Y-108559241D01*
X122409760Y-108359363D01*
X122174728Y-108202320D01*
X121913575Y-108094147D01*
X121636336Y-108039000D01*
X121353666Y-108039000D01*
X121076427Y-108094147D01*
X120815274Y-108202320D01*
X120580242Y-108359363D01*
X120380364Y-108559241D01*
X120223321Y-108794273D01*
X120115148Y-109055426D01*
X120060001Y-109332665D01*
X120060001Y-109615335D01*
X120115148Y-109892574D01*
X120223321Y-110153727D01*
X120380364Y-110388759D01*
X120580242Y-110588637D01*
X120815274Y-110745680D01*
X121076427Y-110853853D01*
X121353666Y-110909000D01*
X121636336Y-110909000D01*
X121913575Y-110853853D01*
X122174728Y-110745680D01*
X122409760Y-110588637D01*
X122609638Y-110388759D01*
X122765001Y-110156241D01*
X122920364Y-110388759D01*
X123120242Y-110588637D01*
X123355274Y-110745680D01*
X123616427Y-110853853D01*
X123893666Y-110909000D01*
X124176336Y-110909000D01*
X124453575Y-110853853D01*
X124714728Y-110745680D01*
X124949760Y-110588637D01*
X125149638Y-110388759D01*
X125305001Y-110156241D01*
X125460364Y-110388759D01*
X125660242Y-110588637D01*
X125895274Y-110745680D01*
X126156427Y-110853853D01*
X126433666Y-110909000D01*
X126716336Y-110909000D01*
X126993575Y-110853853D01*
X127004000Y-110849535D01*
X127004001Y-117304521D01*
X126999719Y-117348000D01*
X127016805Y-117521490D01*
X127067412Y-117688313D01*
X127149590Y-117842059D01*
X127232468Y-117943046D01*
X127232471Y-117943049D01*
X127260184Y-117976817D01*
X127293951Y-118004529D01*
X128248470Y-118959049D01*
X128276183Y-118992817D01*
X128309951Y-119020530D01*
X128309953Y-119020532D01*
X128381452Y-119079210D01*
X128410941Y-119103411D01*
X128564687Y-119185589D01*
X128680903Y-119220843D01*
X128731509Y-119236195D01*
X128746306Y-119237652D01*
X128861523Y-119249000D01*
X128861531Y-119249000D01*
X128905000Y-119253281D01*
X128948469Y-119249000D01*
X154261531Y-119249000D01*
X154305000Y-119253281D01*
X154348469Y-119249000D01*
X154348477Y-119249000D01*
X154478490Y-119236195D01*
X154645313Y-119185589D01*
X154799059Y-119103411D01*
X154933817Y-118992817D01*
X154961534Y-118959044D01*
X158964050Y-114956528D01*
X158997817Y-114928817D01*
X159108411Y-114794059D01*
X159190589Y-114640313D01*
X159241195Y-114473490D01*
X159254000Y-114343477D01*
X159254000Y-114343469D01*
X159258281Y-114300000D01*
X159254000Y-114256531D01*
X159254000Y-91229469D01*
X159258281Y-91186000D01*
X159254000Y-91142531D01*
X159254000Y-91142523D01*
X159241195Y-91012510D01*
X159190589Y-90845687D01*
X159190589Y-90845686D01*
X159108411Y-90691941D01*
X159025532Y-90590953D01*
X159025530Y-90590951D01*
X158997817Y-90557183D01*
X158964049Y-90529470D01*
X157870000Y-89435422D01*
X157870000Y-89371504D01*
X157806207Y-89050796D01*
X157681073Y-88748695D01*
X157499406Y-88476812D01*
X157287594Y-88265000D01*
X157499406Y-88053188D01*
X157681073Y-87781305D01*
X157806207Y-87479204D01*
X157870000Y-87158496D01*
X157870000Y-86831504D01*
X157806207Y-86510796D01*
X157681073Y-86208695D01*
X157499406Y-85936812D01*
X157287594Y-85725000D01*
X157499406Y-85513188D01*
X157681073Y-85241305D01*
X157806207Y-84939204D01*
X157870000Y-84618496D01*
X157870000Y-84291504D01*
X157806207Y-83970796D01*
X157681073Y-83668695D01*
X157499406Y-83396812D01*
X157287594Y-83185000D01*
X157499406Y-82973188D01*
X157681073Y-82701305D01*
X157806207Y-82399204D01*
X157870000Y-82078496D01*
X157870000Y-81751504D01*
X157806207Y-81430796D01*
X157681073Y-81128695D01*
X157499406Y-80856812D01*
X157287594Y-80645000D01*
X157499406Y-80433188D01*
X157681073Y-80161305D01*
X157806207Y-79859204D01*
X157870000Y-79538496D01*
X157870000Y-79211504D01*
X157806207Y-78890796D01*
X157681073Y-78588695D01*
X157499406Y-78316812D01*
X157287594Y-78105000D01*
X157499406Y-77893188D01*
X157681073Y-77621305D01*
X157806207Y-77319204D01*
X157870000Y-76998496D01*
X157870000Y-76671504D01*
X157806207Y-76350796D01*
X157681073Y-76048695D01*
X157499406Y-75776812D01*
X157287594Y-75565000D01*
X157499406Y-75353188D01*
X157681073Y-75081305D01*
X157806207Y-74779204D01*
X157870000Y-74458496D01*
X157870000Y-74131504D01*
X157806207Y-73810796D01*
X157681073Y-73508695D01*
X157499406Y-73236812D01*
X157287594Y-73025000D01*
X157499406Y-72813188D01*
X157681073Y-72541305D01*
X157806207Y-72239204D01*
X157870000Y-71918496D01*
X157870000Y-71591504D01*
X157806207Y-71270796D01*
X157681073Y-70968695D01*
X157499406Y-70696812D01*
X157287594Y-70485000D01*
X157499406Y-70273188D01*
X157681073Y-70001305D01*
X157806207Y-69699204D01*
X157870000Y-69378496D01*
X157870000Y-69051504D01*
X157806207Y-68730796D01*
X157681073Y-68428695D01*
X157499406Y-68156812D01*
X157287594Y-67945000D01*
X157499406Y-67733188D01*
X157681073Y-67461305D01*
X157806207Y-67159204D01*
X157870000Y-66838496D01*
X157870000Y-66511504D01*
X157806207Y-66190796D01*
X157681073Y-65888695D01*
X157499406Y-65616812D01*
X157287594Y-65405000D01*
X157499406Y-65193188D01*
X157681073Y-64921305D01*
X157806207Y-64619204D01*
X157870000Y-64298496D01*
X157870000Y-63971504D01*
X157806207Y-63650796D01*
X157681073Y-63348695D01*
X157499406Y-63076812D01*
X157287594Y-62865000D01*
X157499406Y-62653188D01*
X157681073Y-62381305D01*
X157806207Y-62079204D01*
X157870000Y-61758496D01*
X157870000Y-61431504D01*
X157806207Y-61110796D01*
X157681073Y-60808695D01*
X157499406Y-60536812D01*
X157287594Y-60325000D01*
X157499406Y-60113188D01*
X157681073Y-59841305D01*
X157806207Y-59539204D01*
X157870000Y-59218496D01*
X157870000Y-58891504D01*
X157806207Y-58570796D01*
X157681073Y-58268695D01*
X157499406Y-57996812D01*
X157287594Y-57785000D01*
X157499406Y-57573188D01*
X157681073Y-57301305D01*
X157806207Y-56999204D01*
X157870000Y-56678496D01*
X157870000Y-56351504D01*
X157806207Y-56030796D01*
X157681073Y-55728695D01*
X157499406Y-55456812D01*
X157287594Y-55245000D01*
X157499406Y-55033188D01*
X157681073Y-54761305D01*
X157806207Y-54459204D01*
X157870000Y-54138496D01*
X157870000Y-53811504D01*
X157806207Y-53490796D01*
X157681073Y-53188695D01*
X157499406Y-52916812D01*
X157268188Y-52685594D01*
X156996305Y-52503927D01*
X156694204Y-52378793D01*
X156373496Y-52315000D01*
X156046504Y-52315000D01*
X155725796Y-52378793D01*
X155423695Y-52503927D01*
X155151812Y-52685594D01*
X154920594Y-52916812D01*
X154738927Y-53188695D01*
X154613793Y-53490796D01*
X154550000Y-53811504D01*
X154550000Y-54138496D01*
X154613793Y-54459204D01*
X154738927Y-54761305D01*
X154920594Y-55033188D01*
X155132406Y-55245000D01*
X154920594Y-55456812D01*
X154738927Y-55728695D01*
X154613793Y-56030796D01*
X154550000Y-56351504D01*
X154550000Y-56678496D01*
X154613793Y-56999204D01*
X154738927Y-57301305D01*
X154920594Y-57573188D01*
X155132406Y-57785000D01*
X154920594Y-57996812D01*
X154738927Y-58268695D01*
X154613793Y-58570796D01*
X154550000Y-58891504D01*
X154550000Y-59218496D01*
X154613793Y-59539204D01*
X154738927Y-59841305D01*
X154920594Y-60113188D01*
X155132406Y-60325000D01*
X154920594Y-60536812D01*
X154738927Y-60808695D01*
X154613793Y-61110796D01*
X154550000Y-61431504D01*
X154550000Y-61758496D01*
X154613793Y-62079204D01*
X154738927Y-62381305D01*
X154920594Y-62653188D01*
X155132406Y-62865000D01*
X154920594Y-63076812D01*
X154761225Y-63315324D01*
X154747889Y-63306414D01*
X154577729Y-63235932D01*
X154397089Y-63200000D01*
X154212911Y-63200000D01*
X154032271Y-63235932D01*
X153862111Y-63306414D01*
X153708972Y-63408738D01*
X153578738Y-63538972D01*
X153476414Y-63692111D01*
X153405932Y-63862271D01*
X153370000Y-64042911D01*
X153370000Y-64227089D01*
X153405932Y-64407729D01*
X153476414Y-64577889D01*
X153578738Y-64731028D01*
X153708972Y-64861262D01*
X153862111Y-64963586D01*
X154032271Y-65034068D01*
X154212911Y-65070000D01*
X154397089Y-65070000D01*
X154577729Y-65034068D01*
X154747889Y-64963586D01*
X154761225Y-64954676D01*
X154920594Y-65193188D01*
X155132406Y-65405000D01*
X154920594Y-65616812D01*
X154738927Y-65888695D01*
X154728031Y-65915000D01*
X154215535Y-65915000D01*
X154112889Y-65846414D01*
X153942729Y-65775932D01*
X153762089Y-65740000D01*
X153577911Y-65740000D01*
X153397271Y-65775932D01*
X153227111Y-65846414D01*
X153073972Y-65948738D01*
X152943738Y-66078972D01*
X152841414Y-66232111D01*
X152770932Y-66402271D01*
X152735000Y-66582911D01*
X152735000Y-66767089D01*
X152770932Y-66947729D01*
X152841414Y-67117889D01*
X152943738Y-67271028D01*
X153073972Y-67401262D01*
X153227111Y-67503586D01*
X153397271Y-67574068D01*
X153577911Y-67610000D01*
X153762089Y-67610000D01*
X153942729Y-67574068D01*
X154112889Y-67503586D01*
X154215535Y-67435000D01*
X154728031Y-67435000D01*
X154738927Y-67461305D01*
X154920594Y-67733188D01*
X155132406Y-67945000D01*
X154920594Y-68156812D01*
X154738927Y-68428695D01*
X154728031Y-68455000D01*
X153580535Y-68455000D01*
X153477889Y-68386414D01*
X153307729Y-68315932D01*
X153127089Y-68280000D01*
X152942911Y-68280000D01*
X152762271Y-68315932D01*
X152592111Y-68386414D01*
X152438972Y-68488738D01*
X152308738Y-68618972D01*
X152206414Y-68772111D01*
X152135932Y-68942271D01*
X152100000Y-69122911D01*
X152100000Y-69307089D01*
X152135932Y-69487729D01*
X152206414Y-69657889D01*
X152308738Y-69811028D01*
X152438972Y-69941262D01*
X152592111Y-70043586D01*
X152762271Y-70114068D01*
X152942911Y-70150000D01*
X153127089Y-70150000D01*
X153307729Y-70114068D01*
X153477889Y-70043586D01*
X153580535Y-69975000D01*
X154728031Y-69975000D01*
X154738927Y-70001305D01*
X154920594Y-70273188D01*
X155132406Y-70485000D01*
X154920594Y-70696812D01*
X154738927Y-70968695D01*
X154728031Y-70995000D01*
X152945535Y-70995000D01*
X152842889Y-70926414D01*
X152672729Y-70855932D01*
X152492089Y-70820000D01*
X152307911Y-70820000D01*
X152127271Y-70855932D01*
X151957111Y-70926414D01*
X151803972Y-71028738D01*
X151673738Y-71158972D01*
X151571414Y-71312111D01*
X151500932Y-71482271D01*
X151465000Y-71662911D01*
X151465000Y-71847089D01*
X151500932Y-72027729D01*
X151571414Y-72197889D01*
X151673738Y-72351028D01*
X151803972Y-72481262D01*
X151957111Y-72583586D01*
X152127271Y-72654068D01*
X152307911Y-72690000D01*
X152492089Y-72690000D01*
X152672729Y-72654068D01*
X152842889Y-72583586D01*
X152945535Y-72515000D01*
X154728031Y-72515000D01*
X154738927Y-72541305D01*
X154920594Y-72813188D01*
X155132406Y-73025000D01*
X154920594Y-73236812D01*
X154738927Y-73508695D01*
X154728031Y-73535000D01*
X152310535Y-73535000D01*
X152207889Y-73466414D01*
X152037729Y-73395932D01*
X151857089Y-73360000D01*
X151672911Y-73360000D01*
X151492271Y-73395932D01*
X151322111Y-73466414D01*
X151168972Y-73568738D01*
X151038738Y-73698972D01*
X150936414Y-73852111D01*
X150865932Y-74022271D01*
X150830000Y-74202911D01*
X150830000Y-74387089D01*
X150865932Y-74567729D01*
X150936414Y-74737889D01*
X151038738Y-74891028D01*
X151168972Y-75021262D01*
X151322111Y-75123586D01*
X151492271Y-75194068D01*
X151672911Y-75230000D01*
X151857089Y-75230000D01*
X152037729Y-75194068D01*
X152207889Y-75123586D01*
X152310535Y-75055000D01*
X154728031Y-75055000D01*
X154738927Y-75081305D01*
X154920594Y-75353188D01*
X155132406Y-75565000D01*
X154920594Y-75776812D01*
X154738927Y-76048695D01*
X154728031Y-76075000D01*
X149808043Y-76075000D01*
X149704637Y-75920241D01*
X149504759Y-75720363D01*
X149272241Y-75565000D01*
X149504759Y-75409637D01*
X149698252Y-75216144D01*
X149767911Y-75230000D01*
X149952089Y-75230000D01*
X150132729Y-75194068D01*
X150302889Y-75123586D01*
X150456028Y-75021262D01*
X150586262Y-74891028D01*
X150688586Y-74737889D01*
X150759068Y-74567729D01*
X150795000Y-74387089D01*
X150795000Y-74202911D01*
X150759068Y-74022271D01*
X150688586Y-73852111D01*
X150586262Y-73698972D01*
X150456028Y-73568738D01*
X150302889Y-73466414D01*
X150132729Y-73395932D01*
X149952089Y-73360000D01*
X149767911Y-73360000D01*
X149698252Y-73373856D01*
X149504759Y-73180363D01*
X149272241Y-73025000D01*
X149504759Y-72869637D01*
X149704637Y-72669759D01*
X149808043Y-72515000D01*
X149949465Y-72515000D01*
X150052111Y-72583586D01*
X150222271Y-72654068D01*
X150402911Y-72690000D01*
X150587089Y-72690000D01*
X150767729Y-72654068D01*
X150937889Y-72583586D01*
X151091028Y-72481262D01*
X151221262Y-72351028D01*
X151323586Y-72197889D01*
X151394068Y-72027729D01*
X151430000Y-71847089D01*
X151430000Y-71662911D01*
X151394068Y-71482271D01*
X151323586Y-71312111D01*
X151221262Y-71158972D01*
X151091028Y-71028738D01*
X150937889Y-70926414D01*
X150767729Y-70855932D01*
X150587089Y-70820000D01*
X150402911Y-70820000D01*
X150222271Y-70855932D01*
X150052111Y-70926414D01*
X149949465Y-70995000D01*
X149808043Y-70995000D01*
X149704637Y-70840241D01*
X149504759Y-70640363D01*
X149272241Y-70485000D01*
X149504759Y-70329637D01*
X149704637Y-70129759D01*
X149808043Y-69975000D01*
X150584465Y-69975000D01*
X150687111Y-70043586D01*
X150857271Y-70114068D01*
X151037911Y-70150000D01*
X151222089Y-70150000D01*
X151402729Y-70114068D01*
X151572889Y-70043586D01*
X151726028Y-69941262D01*
X151856262Y-69811028D01*
X151958586Y-69657889D01*
X152029068Y-69487729D01*
X152065000Y-69307089D01*
X152065000Y-69122911D01*
X152029068Y-68942271D01*
X151958586Y-68772111D01*
X151856262Y-68618972D01*
X151726028Y-68488738D01*
X151572889Y-68386414D01*
X151402729Y-68315932D01*
X151222089Y-68280000D01*
X151037911Y-68280000D01*
X150857271Y-68315932D01*
X150687111Y-68386414D01*
X150584465Y-68455000D01*
X149808043Y-68455000D01*
X149704637Y-68300241D01*
X149504759Y-68100363D01*
X149272241Y-67945000D01*
X149504759Y-67789637D01*
X149704637Y-67589759D01*
X149861680Y-67354727D01*
X149969853Y-67093574D01*
X150025000Y-66816335D01*
X150025000Y-66533665D01*
X149969853Y-66256426D01*
X149861680Y-65995273D01*
X149704637Y-65760241D01*
X149504759Y-65560363D01*
X149269727Y-65403320D01*
X149259135Y-65398933D01*
X149445131Y-65287385D01*
X149653519Y-65098414D01*
X149821037Y-64872420D01*
X149941246Y-64618087D01*
X149981904Y-64484039D01*
X149859915Y-64262000D01*
X148717000Y-64262000D01*
X148717000Y-64282000D01*
X148463000Y-64282000D01*
X148463000Y-64262000D01*
X147320085Y-64262000D01*
X147198096Y-64484039D01*
X147238754Y-64618087D01*
X147358963Y-64872420D01*
X147526481Y-65098414D01*
X147734869Y-65287385D01*
X147920865Y-65398933D01*
X147910273Y-65403320D01*
X147675241Y-65560363D01*
X147475363Y-65760241D01*
X147371957Y-65915000D01*
X143824803Y-65915000D01*
X142555311Y-64645509D01*
X142566207Y-64619204D01*
X142630000Y-64298496D01*
X142630000Y-63971504D01*
X142593094Y-63785961D01*
X147198096Y-63785961D01*
X147320085Y-64008000D01*
X148463000Y-64008000D01*
X148463000Y-62864376D01*
X148717000Y-62864376D01*
X148717000Y-64008000D01*
X149859915Y-64008000D01*
X149981904Y-63785961D01*
X149941246Y-63651913D01*
X149821037Y-63397580D01*
X149653519Y-63171586D01*
X149445131Y-62982615D01*
X149203881Y-62837930D01*
X148939040Y-62743091D01*
X148717000Y-62864376D01*
X148463000Y-62864376D01*
X148240960Y-62743091D01*
X147976119Y-62837930D01*
X147734869Y-62982615D01*
X147526481Y-63171586D01*
X147358963Y-63397580D01*
X147238754Y-63651913D01*
X147198096Y-63785961D01*
X142593094Y-63785961D01*
X142566207Y-63650796D01*
X142441073Y-63348695D01*
X142259406Y-63076812D01*
X142047594Y-62865000D01*
X142259406Y-62653188D01*
X142441073Y-62381305D01*
X142566207Y-62079204D01*
X142630000Y-61758496D01*
X142630000Y-61431504D01*
X142566207Y-61110796D01*
X142441073Y-60808695D01*
X142259406Y-60536812D01*
X142047594Y-60325000D01*
X142259406Y-60113188D01*
X142441073Y-59841305D01*
X142566207Y-59539204D01*
X142630000Y-59218496D01*
X142630000Y-58891504D01*
X142566207Y-58570796D01*
X142441073Y-58268695D01*
X142259406Y-57996812D01*
X142047594Y-57785000D01*
X142259406Y-57573188D01*
X142441073Y-57301305D01*
X142566207Y-56999204D01*
X142630000Y-56678496D01*
X142630000Y-56351504D01*
X142566207Y-56030796D01*
X142441073Y-55728695D01*
X142259406Y-55456812D01*
X142047594Y-55245000D01*
X142259406Y-55033188D01*
X142441073Y-54761305D01*
X142566207Y-54459204D01*
X142630000Y-54138496D01*
X142630000Y-53811504D01*
X142566207Y-53490796D01*
X142441073Y-53188695D01*
X142259406Y-52916812D01*
X142172594Y-52830000D01*
X145504465Y-52830000D01*
X145607111Y-52898586D01*
X145777271Y-52969068D01*
X145957911Y-53005000D01*
X146142089Y-53005000D01*
X146322729Y-52969068D01*
X146492889Y-52898586D01*
X146646028Y-52796262D01*
X146776262Y-52666028D01*
X146878586Y-52512889D01*
X146949068Y-52342729D01*
X146985000Y-52162089D01*
X146985000Y-51977911D01*
X146949068Y-51797271D01*
X146878586Y-51627111D01*
X146776262Y-51473972D01*
X146737290Y-51435000D01*
X146776262Y-51396028D01*
X146878586Y-51242889D01*
X146949068Y-51072729D01*
X146985000Y-50892089D01*
X146985000Y-50707911D01*
X146949068Y-50527271D01*
X146878586Y-50357111D01*
X146776262Y-50203972D01*
X146646028Y-50073738D01*
X146492889Y-49971414D01*
X146322729Y-49900932D01*
X146142089Y-49865000D01*
X145957911Y-49865000D01*
X145777271Y-49900932D01*
X145607111Y-49971414D01*
X145504465Y-50040000D01*
X139102322Y-50040000D01*
X139064999Y-50036324D01*
X139027676Y-50040000D01*
X139027667Y-50040000D01*
X138916014Y-50050997D01*
X138772753Y-50094454D01*
X138640724Y-50165026D01*
X138524999Y-50259999D01*
X138501201Y-50288997D01*
X137284003Y-51506196D01*
X137254999Y-51529999D01*
X137199871Y-51597174D01*
X137160026Y-51645724D01*
X137131513Y-51699068D01*
X137089454Y-51777754D01*
X137045997Y-51921015D01*
X137035000Y-52032668D01*
X137035000Y-52032678D01*
X137031324Y-52070000D01*
X137035000Y-52107322D01*
X137035001Y-63818787D01*
X136127788Y-64726001D01*
X134658431Y-64726001D01*
X134729853Y-64553574D01*
X134785000Y-64276335D01*
X134785000Y-63993665D01*
X134729853Y-63716426D01*
X134621680Y-63455273D01*
X134464637Y-63220241D01*
X134264759Y-63020363D01*
X134222311Y-62992000D01*
X136525000Y-62992000D01*
X136549776Y-62989560D01*
X136573601Y-62982333D01*
X136595557Y-62970597D01*
X136614803Y-62954803D01*
X136630597Y-62935557D01*
X136642333Y-62913601D01*
X136649560Y-62889776D01*
X136652000Y-62865000D01*
X136652000Y-44577000D01*
X159893000Y-44577000D01*
X159893000Y-128143000D01*
M02*
