G04 #@! TF.GenerationSoftware,KiCad,Pcbnew,(5.1.6-0-10_14)*
G04 #@! TF.CreationDate,2021-01-24T22:58:42+01:00*
G04 #@! TF.ProjectId,27c322,32376333-3232-42e6-9b69-6361645f7063,rev?*
G04 #@! TF.SameCoordinates,Original*
G04 #@! TF.FileFunction,Other,Fab,Top*
%FSLAX46Y46*%
G04 Gerber Fmt 4.6, Leading zero omitted, Abs format (unit mm)*
G04 Created by KiCad (PCBNEW (5.1.6-0-10_14)) date 2021-01-24 22:58:42*
%MOMM*%
%LPD*%
G01*
G04 APERTURE LIST*
%ADD10C,0.100000*%
%ADD11C,0.150000*%
G04 APERTURE END LIST*
D10*
X123698000Y-92075000D02*
X124333000Y-92710000D01*
X116713000Y-92075000D02*
X123698000Y-92075000D01*
X116713000Y-94615000D02*
X116713000Y-92075000D01*
X124333000Y-94615000D02*
X116713000Y-94615000D01*
X124333000Y-92710000D02*
X124333000Y-94615000D01*
X123698000Y-89281000D02*
X124333000Y-89916000D01*
X116713000Y-89281000D02*
X123698000Y-89281000D01*
X116713000Y-91821000D02*
X116713000Y-89281000D01*
X124333000Y-91821000D02*
X116713000Y-91821000D01*
X124333000Y-89916000D02*
X124333000Y-91821000D01*
X123698000Y-86487000D02*
X124333000Y-87122000D01*
X116713000Y-86487000D02*
X123698000Y-86487000D01*
X116713000Y-89027000D02*
X116713000Y-86487000D01*
X124333000Y-89027000D02*
X116713000Y-89027000D01*
X124333000Y-87122000D02*
X124333000Y-89027000D01*
X129413000Y-106172000D02*
X129413000Y-105512000D01*
X129413000Y-98552000D02*
X129413000Y-99212000D01*
X130663000Y-105512000D02*
X130663000Y-99212000D01*
X128163000Y-105512000D02*
X130663000Y-105512000D01*
X128163000Y-99212000D02*
X128163000Y-105512000D01*
X130663000Y-99212000D02*
X128163000Y-99212000D01*
X126492000Y-106172000D02*
X126492000Y-105512000D01*
X126492000Y-98552000D02*
X126492000Y-99212000D01*
X127742000Y-105512000D02*
X127742000Y-99212000D01*
X125242000Y-105512000D02*
X127742000Y-105512000D01*
X125242000Y-99212000D02*
X125242000Y-105512000D01*
X127742000Y-99212000D02*
X125242000Y-99212000D01*
X123571000Y-106172000D02*
X123571000Y-105512000D01*
X123571000Y-98552000D02*
X123571000Y-99212000D01*
X124821000Y-105512000D02*
X124821000Y-99212000D01*
X122321000Y-105512000D02*
X124821000Y-105512000D01*
X122321000Y-99212000D02*
X122321000Y-105512000D01*
X124821000Y-99212000D02*
X122321000Y-99212000D01*
X120650000Y-106172000D02*
X120650000Y-105512000D01*
X120650000Y-98552000D02*
X120650000Y-99212000D01*
X121900000Y-105512000D02*
X121900000Y-99212000D01*
X119400000Y-105512000D02*
X121900000Y-105512000D01*
X119400000Y-99212000D02*
X119400000Y-105512000D01*
X121900000Y-99212000D02*
X119400000Y-99212000D01*
X117729000Y-106172000D02*
X117729000Y-105512000D01*
X117729000Y-98552000D02*
X117729000Y-99212000D01*
X118979000Y-105512000D02*
X118979000Y-99212000D01*
X116479000Y-105512000D02*
X118979000Y-105512000D01*
X116479000Y-99212000D02*
X116479000Y-105512000D01*
X118979000Y-99212000D02*
X116479000Y-99212000D01*
X127686000Y-89042000D02*
X127686000Y-92792000D01*
X127693453Y-92833103D02*
G75*
G03*
X131766000Y-90932000I1592547J1901103D01*
G01*
X127683615Y-89039182D02*
G75*
G02*
X131766000Y-90932000I1602385J-1892818D01*
G01*
D11*
X115105380Y-98606904D02*
X115819666Y-98606904D01*
X115962523Y-98654523D01*
X116057761Y-98749761D01*
X116105380Y-98892619D01*
X116105380Y-98987857D01*
X115438714Y-97702142D02*
X116105380Y-97702142D01*
X115438714Y-98130714D02*
X115962523Y-98130714D01*
X116057761Y-98083095D01*
X116105380Y-97987857D01*
X116105380Y-97845000D01*
X116057761Y-97749761D01*
X116010142Y-97702142D01*
X116105380Y-97225952D02*
X115438714Y-97225952D01*
X115533952Y-97225952D02*
X115486333Y-97178333D01*
X115438714Y-97083095D01*
X115438714Y-96940238D01*
X115486333Y-96845000D01*
X115581571Y-96797380D01*
X116105380Y-96797380D01*
X115581571Y-96797380D02*
X115486333Y-96749761D01*
X115438714Y-96654523D01*
X115438714Y-96511666D01*
X115486333Y-96416428D01*
X115581571Y-96368809D01*
X116105380Y-96368809D01*
X115438714Y-95892619D02*
X116438714Y-95892619D01*
X115486333Y-95892619D02*
X115438714Y-95797380D01*
X115438714Y-95606904D01*
X115486333Y-95511666D01*
X115533952Y-95464047D01*
X115629190Y-95416428D01*
X115914904Y-95416428D01*
X116010142Y-95464047D01*
X116057761Y-95511666D01*
X116105380Y-95606904D01*
X116105380Y-95797380D01*
X116057761Y-95892619D01*
X116057761Y-94606904D02*
X116105380Y-94702142D01*
X116105380Y-94892619D01*
X116057761Y-94987857D01*
X115962523Y-95035476D01*
X115581571Y-95035476D01*
X115486333Y-94987857D01*
X115438714Y-94892619D01*
X115438714Y-94702142D01*
X115486333Y-94606904D01*
X115581571Y-94559285D01*
X115676809Y-94559285D01*
X115772047Y-95035476D01*
X116105380Y-94130714D02*
X115438714Y-94130714D01*
X115629190Y-94130714D02*
X115533952Y-94083095D01*
X115486333Y-94035476D01*
X115438714Y-93940238D01*
X115438714Y-93845000D01*
X116200619Y-93749761D02*
X116200619Y-92987857D01*
X115105380Y-92845000D02*
X115105380Y-92225952D01*
X115486333Y-92559285D01*
X115486333Y-92416428D01*
X115533952Y-92321190D01*
X115581571Y-92273571D01*
X115676809Y-92225952D01*
X115914904Y-92225952D01*
X116010142Y-92273571D01*
X116057761Y-92321190D01*
X116105380Y-92416428D01*
X116105380Y-92702142D01*
X116057761Y-92797380D01*
X116010142Y-92845000D01*
X116200619Y-92035476D02*
X116200619Y-91273571D01*
X115105380Y-90845000D02*
X115105380Y-90654523D01*
X115153000Y-90559285D01*
X115248238Y-90464047D01*
X115438714Y-90416428D01*
X115772047Y-90416428D01*
X115962523Y-90464047D01*
X116057761Y-90559285D01*
X116105380Y-90654523D01*
X116105380Y-90845000D01*
X116057761Y-90940238D01*
X115962523Y-91035476D01*
X115772047Y-91083095D01*
X115438714Y-91083095D01*
X115248238Y-91035476D01*
X115153000Y-90940238D01*
X115105380Y-90845000D01*
X115438714Y-89987857D02*
X116438714Y-89987857D01*
X115486333Y-89987857D02*
X115438714Y-89892619D01*
X115438714Y-89702142D01*
X115486333Y-89606904D01*
X115533952Y-89559285D01*
X115629190Y-89511666D01*
X115914904Y-89511666D01*
X116010142Y-89559285D01*
X116057761Y-89606904D01*
X116105380Y-89702142D01*
X116105380Y-89892619D01*
X116057761Y-89987857D01*
X116057761Y-88702142D02*
X116105380Y-88797380D01*
X116105380Y-88987857D01*
X116057761Y-89083095D01*
X115962523Y-89130714D01*
X115581571Y-89130714D01*
X115486333Y-89083095D01*
X115438714Y-88987857D01*
X115438714Y-88797380D01*
X115486333Y-88702142D01*
X115581571Y-88654523D01*
X115676809Y-88654523D01*
X115772047Y-89130714D01*
X115438714Y-88225952D02*
X116105380Y-88225952D01*
X115533952Y-88225952D02*
X115486333Y-88178333D01*
X115438714Y-88083095D01*
X115438714Y-87940238D01*
X115486333Y-87845000D01*
X115581571Y-87797380D01*
X116105380Y-87797380D01*
X119332523Y-93511666D02*
X119808714Y-93511666D01*
X119237285Y-93797380D02*
X119570619Y-92797380D01*
X119903952Y-93797380D01*
X120189666Y-92892619D02*
X120237285Y-92845000D01*
X120332523Y-92797380D01*
X120570619Y-92797380D01*
X120665857Y-92845000D01*
X120713476Y-92892619D01*
X120761095Y-92987857D01*
X120761095Y-93083095D01*
X120713476Y-93225952D01*
X120142047Y-93797380D01*
X120761095Y-93797380D01*
X121380142Y-92797380D02*
X121475380Y-92797380D01*
X121570619Y-92845000D01*
X121618238Y-92892619D01*
X121665857Y-92987857D01*
X121713476Y-93178333D01*
X121713476Y-93416428D01*
X121665857Y-93606904D01*
X121618238Y-93702142D01*
X121570619Y-93749761D01*
X121475380Y-93797380D01*
X121380142Y-93797380D01*
X121284904Y-93749761D01*
X121237285Y-93702142D01*
X121189666Y-93606904D01*
X121142047Y-93416428D01*
X121142047Y-93178333D01*
X121189666Y-92987857D01*
X121237285Y-92892619D01*
X121284904Y-92845000D01*
X121380142Y-92797380D01*
X115105380Y-95812904D02*
X115819666Y-95812904D01*
X115962523Y-95860523D01*
X116057761Y-95955761D01*
X116105380Y-96098619D01*
X116105380Y-96193857D01*
X115438714Y-94908142D02*
X116105380Y-94908142D01*
X115438714Y-95336714D02*
X115962523Y-95336714D01*
X116057761Y-95289095D01*
X116105380Y-95193857D01*
X116105380Y-95051000D01*
X116057761Y-94955761D01*
X116010142Y-94908142D01*
X116105380Y-94431952D02*
X115438714Y-94431952D01*
X115533952Y-94431952D02*
X115486333Y-94384333D01*
X115438714Y-94289095D01*
X115438714Y-94146238D01*
X115486333Y-94051000D01*
X115581571Y-94003380D01*
X116105380Y-94003380D01*
X115581571Y-94003380D02*
X115486333Y-93955761D01*
X115438714Y-93860523D01*
X115438714Y-93717666D01*
X115486333Y-93622428D01*
X115581571Y-93574809D01*
X116105380Y-93574809D01*
X115438714Y-93098619D02*
X116438714Y-93098619D01*
X115486333Y-93098619D02*
X115438714Y-93003380D01*
X115438714Y-92812904D01*
X115486333Y-92717666D01*
X115533952Y-92670047D01*
X115629190Y-92622428D01*
X115914904Y-92622428D01*
X116010142Y-92670047D01*
X116057761Y-92717666D01*
X116105380Y-92812904D01*
X116105380Y-93003380D01*
X116057761Y-93098619D01*
X116057761Y-91812904D02*
X116105380Y-91908142D01*
X116105380Y-92098619D01*
X116057761Y-92193857D01*
X115962523Y-92241476D01*
X115581571Y-92241476D01*
X115486333Y-92193857D01*
X115438714Y-92098619D01*
X115438714Y-91908142D01*
X115486333Y-91812904D01*
X115581571Y-91765285D01*
X115676809Y-91765285D01*
X115772047Y-92241476D01*
X116105380Y-91336714D02*
X115438714Y-91336714D01*
X115629190Y-91336714D02*
X115533952Y-91289095D01*
X115486333Y-91241476D01*
X115438714Y-91146238D01*
X115438714Y-91051000D01*
X116200619Y-90955761D02*
X116200619Y-90193857D01*
X115105380Y-90051000D02*
X115105380Y-89431952D01*
X115486333Y-89765285D01*
X115486333Y-89622428D01*
X115533952Y-89527190D01*
X115581571Y-89479571D01*
X115676809Y-89431952D01*
X115914904Y-89431952D01*
X116010142Y-89479571D01*
X116057761Y-89527190D01*
X116105380Y-89622428D01*
X116105380Y-89908142D01*
X116057761Y-90003380D01*
X116010142Y-90051000D01*
X116200619Y-89241476D02*
X116200619Y-88479571D01*
X115105380Y-88051000D02*
X115105380Y-87860523D01*
X115153000Y-87765285D01*
X115248238Y-87670047D01*
X115438714Y-87622428D01*
X115772047Y-87622428D01*
X115962523Y-87670047D01*
X116057761Y-87765285D01*
X116105380Y-87860523D01*
X116105380Y-88051000D01*
X116057761Y-88146238D01*
X115962523Y-88241476D01*
X115772047Y-88289095D01*
X115438714Y-88289095D01*
X115248238Y-88241476D01*
X115153000Y-88146238D01*
X115105380Y-88051000D01*
X115438714Y-87193857D02*
X116438714Y-87193857D01*
X115486333Y-87193857D02*
X115438714Y-87098619D01*
X115438714Y-86908142D01*
X115486333Y-86812904D01*
X115533952Y-86765285D01*
X115629190Y-86717666D01*
X115914904Y-86717666D01*
X116010142Y-86765285D01*
X116057761Y-86812904D01*
X116105380Y-86908142D01*
X116105380Y-87098619D01*
X116057761Y-87193857D01*
X116057761Y-85908142D02*
X116105380Y-86003380D01*
X116105380Y-86193857D01*
X116057761Y-86289095D01*
X115962523Y-86336714D01*
X115581571Y-86336714D01*
X115486333Y-86289095D01*
X115438714Y-86193857D01*
X115438714Y-86003380D01*
X115486333Y-85908142D01*
X115581571Y-85860523D01*
X115676809Y-85860523D01*
X115772047Y-86336714D01*
X115438714Y-85431952D02*
X116105380Y-85431952D01*
X115533952Y-85431952D02*
X115486333Y-85384333D01*
X115438714Y-85289095D01*
X115438714Y-85146238D01*
X115486333Y-85051000D01*
X115581571Y-85003380D01*
X116105380Y-85003380D01*
X119332523Y-90717666D02*
X119808714Y-90717666D01*
X119237285Y-91003380D02*
X119570619Y-90003380D01*
X119903952Y-91003380D01*
X120761095Y-91003380D02*
X120189666Y-91003380D01*
X120475380Y-91003380D02*
X120475380Y-90003380D01*
X120380142Y-90146238D01*
X120284904Y-90241476D01*
X120189666Y-90289095D01*
X121237285Y-91003380D02*
X121427761Y-91003380D01*
X121523000Y-90955761D01*
X121570619Y-90908142D01*
X121665857Y-90765285D01*
X121713476Y-90574809D01*
X121713476Y-90193857D01*
X121665857Y-90098619D01*
X121618238Y-90051000D01*
X121523000Y-90003380D01*
X121332523Y-90003380D01*
X121237285Y-90051000D01*
X121189666Y-90098619D01*
X121142047Y-90193857D01*
X121142047Y-90431952D01*
X121189666Y-90527190D01*
X121237285Y-90574809D01*
X121332523Y-90622428D01*
X121523000Y-90622428D01*
X121618238Y-90574809D01*
X121665857Y-90527190D01*
X121713476Y-90431952D01*
X115105380Y-93018904D02*
X115819666Y-93018904D01*
X115962523Y-93066523D01*
X116057761Y-93161761D01*
X116105380Y-93304619D01*
X116105380Y-93399857D01*
X115438714Y-92114142D02*
X116105380Y-92114142D01*
X115438714Y-92542714D02*
X115962523Y-92542714D01*
X116057761Y-92495095D01*
X116105380Y-92399857D01*
X116105380Y-92257000D01*
X116057761Y-92161761D01*
X116010142Y-92114142D01*
X116105380Y-91637952D02*
X115438714Y-91637952D01*
X115533952Y-91637952D02*
X115486333Y-91590333D01*
X115438714Y-91495095D01*
X115438714Y-91352238D01*
X115486333Y-91257000D01*
X115581571Y-91209380D01*
X116105380Y-91209380D01*
X115581571Y-91209380D02*
X115486333Y-91161761D01*
X115438714Y-91066523D01*
X115438714Y-90923666D01*
X115486333Y-90828428D01*
X115581571Y-90780809D01*
X116105380Y-90780809D01*
X115438714Y-90304619D02*
X116438714Y-90304619D01*
X115486333Y-90304619D02*
X115438714Y-90209380D01*
X115438714Y-90018904D01*
X115486333Y-89923666D01*
X115533952Y-89876047D01*
X115629190Y-89828428D01*
X115914904Y-89828428D01*
X116010142Y-89876047D01*
X116057761Y-89923666D01*
X116105380Y-90018904D01*
X116105380Y-90209380D01*
X116057761Y-90304619D01*
X116057761Y-89018904D02*
X116105380Y-89114142D01*
X116105380Y-89304619D01*
X116057761Y-89399857D01*
X115962523Y-89447476D01*
X115581571Y-89447476D01*
X115486333Y-89399857D01*
X115438714Y-89304619D01*
X115438714Y-89114142D01*
X115486333Y-89018904D01*
X115581571Y-88971285D01*
X115676809Y-88971285D01*
X115772047Y-89447476D01*
X116105380Y-88542714D02*
X115438714Y-88542714D01*
X115629190Y-88542714D02*
X115533952Y-88495095D01*
X115486333Y-88447476D01*
X115438714Y-88352238D01*
X115438714Y-88257000D01*
X116200619Y-88161761D02*
X116200619Y-87399857D01*
X115105380Y-87257000D02*
X115105380Y-86637952D01*
X115486333Y-86971285D01*
X115486333Y-86828428D01*
X115533952Y-86733190D01*
X115581571Y-86685571D01*
X115676809Y-86637952D01*
X115914904Y-86637952D01*
X116010142Y-86685571D01*
X116057761Y-86733190D01*
X116105380Y-86828428D01*
X116105380Y-87114142D01*
X116057761Y-87209380D01*
X116010142Y-87257000D01*
X116200619Y-86447476D02*
X116200619Y-85685571D01*
X115105380Y-85257000D02*
X115105380Y-85066523D01*
X115153000Y-84971285D01*
X115248238Y-84876047D01*
X115438714Y-84828428D01*
X115772047Y-84828428D01*
X115962523Y-84876047D01*
X116057761Y-84971285D01*
X116105380Y-85066523D01*
X116105380Y-85257000D01*
X116057761Y-85352238D01*
X115962523Y-85447476D01*
X115772047Y-85495095D01*
X115438714Y-85495095D01*
X115248238Y-85447476D01*
X115153000Y-85352238D01*
X115105380Y-85257000D01*
X115438714Y-84399857D02*
X116438714Y-84399857D01*
X115486333Y-84399857D02*
X115438714Y-84304619D01*
X115438714Y-84114142D01*
X115486333Y-84018904D01*
X115533952Y-83971285D01*
X115629190Y-83923666D01*
X115914904Y-83923666D01*
X116010142Y-83971285D01*
X116057761Y-84018904D01*
X116105380Y-84114142D01*
X116105380Y-84304619D01*
X116057761Y-84399857D01*
X116057761Y-83114142D02*
X116105380Y-83209380D01*
X116105380Y-83399857D01*
X116057761Y-83495095D01*
X115962523Y-83542714D01*
X115581571Y-83542714D01*
X115486333Y-83495095D01*
X115438714Y-83399857D01*
X115438714Y-83209380D01*
X115486333Y-83114142D01*
X115581571Y-83066523D01*
X115676809Y-83066523D01*
X115772047Y-83542714D01*
X115438714Y-82637952D02*
X116105380Y-82637952D01*
X115533952Y-82637952D02*
X115486333Y-82590333D01*
X115438714Y-82495095D01*
X115438714Y-82352238D01*
X115486333Y-82257000D01*
X115581571Y-82209380D01*
X116105380Y-82209380D01*
X119332523Y-87923666D02*
X119808714Y-87923666D01*
X119237285Y-88209380D02*
X119570619Y-87209380D01*
X119903952Y-88209380D01*
X120761095Y-88209380D02*
X120189666Y-88209380D01*
X120475380Y-88209380D02*
X120475380Y-87209380D01*
X120380142Y-87352238D01*
X120284904Y-87447476D01*
X120189666Y-87495095D01*
X121332523Y-87637952D02*
X121237285Y-87590333D01*
X121189666Y-87542714D01*
X121142047Y-87447476D01*
X121142047Y-87399857D01*
X121189666Y-87304619D01*
X121237285Y-87257000D01*
X121332523Y-87209380D01*
X121523000Y-87209380D01*
X121618238Y-87257000D01*
X121665857Y-87304619D01*
X121713476Y-87399857D01*
X121713476Y-87447476D01*
X121665857Y-87542714D01*
X121618238Y-87590333D01*
X121523000Y-87637952D01*
X121332523Y-87637952D01*
X121237285Y-87685571D01*
X121189666Y-87733190D01*
X121142047Y-87828428D01*
X121142047Y-88018904D01*
X121189666Y-88114142D01*
X121237285Y-88161761D01*
X121332523Y-88209380D01*
X121523000Y-88209380D01*
X121618238Y-88161761D01*
X121665857Y-88114142D01*
X121713476Y-88018904D01*
X121713476Y-87828428D01*
X121665857Y-87733190D01*
X121618238Y-87685571D01*
X121523000Y-87637952D01*
X127495380Y-102576285D02*
X127495380Y-103147714D01*
X127495380Y-102862000D02*
X126495380Y-102862000D01*
X126638238Y-102957238D01*
X126733476Y-103052476D01*
X126781095Y-103147714D01*
X127495380Y-102147714D02*
X126495380Y-102147714D01*
X127495380Y-101576285D02*
X126923952Y-102004857D01*
X126495380Y-101576285D02*
X127066809Y-102147714D01*
X129865380Y-102528666D02*
X129389190Y-102862000D01*
X129865380Y-103100095D02*
X128865380Y-103100095D01*
X128865380Y-102719142D01*
X128913000Y-102623904D01*
X128960619Y-102576285D01*
X129055857Y-102528666D01*
X129198714Y-102528666D01*
X129293952Y-102576285D01*
X129341571Y-102623904D01*
X129389190Y-102719142D01*
X129389190Y-103100095D01*
X128865380Y-101623904D02*
X128865380Y-102100095D01*
X129341571Y-102147714D01*
X129293952Y-102100095D01*
X129246333Y-102004857D01*
X129246333Y-101766761D01*
X129293952Y-101671523D01*
X129341571Y-101623904D01*
X129436809Y-101576285D01*
X129674904Y-101576285D01*
X129770142Y-101623904D01*
X129817761Y-101671523D01*
X129865380Y-101766761D01*
X129865380Y-102004857D01*
X129817761Y-102100095D01*
X129770142Y-102147714D01*
X124574380Y-103052476D02*
X124574380Y-103623904D01*
X124574380Y-103338190D02*
X123574380Y-103338190D01*
X123717238Y-103433428D01*
X123812476Y-103528666D01*
X123860095Y-103623904D01*
X123574380Y-102433428D02*
X123574380Y-102338190D01*
X123622000Y-102242952D01*
X123669619Y-102195333D01*
X123764857Y-102147714D01*
X123955333Y-102100095D01*
X124193428Y-102100095D01*
X124383904Y-102147714D01*
X124479142Y-102195333D01*
X124526761Y-102242952D01*
X124574380Y-102338190D01*
X124574380Y-102433428D01*
X124526761Y-102528666D01*
X124479142Y-102576285D01*
X124383904Y-102623904D01*
X124193428Y-102671523D01*
X123955333Y-102671523D01*
X123764857Y-102623904D01*
X123669619Y-102576285D01*
X123622000Y-102528666D01*
X123574380Y-102433428D01*
X124574380Y-101671523D02*
X123574380Y-101671523D01*
X124574380Y-101100095D02*
X124002952Y-101528666D01*
X123574380Y-101100095D02*
X124145809Y-101671523D01*
X126944380Y-102528666D02*
X126468190Y-102862000D01*
X126944380Y-103100095D02*
X125944380Y-103100095D01*
X125944380Y-102719142D01*
X125992000Y-102623904D01*
X126039619Y-102576285D01*
X126134857Y-102528666D01*
X126277714Y-102528666D01*
X126372952Y-102576285D01*
X126420571Y-102623904D01*
X126468190Y-102719142D01*
X126468190Y-103100095D01*
X126277714Y-101671523D02*
X126944380Y-101671523D01*
X125896761Y-101909619D02*
X126611047Y-102147714D01*
X126611047Y-101528666D01*
X121653380Y-103052476D02*
X121653380Y-103623904D01*
X121653380Y-103338190D02*
X120653380Y-103338190D01*
X120796238Y-103433428D01*
X120891476Y-103528666D01*
X120939095Y-103623904D01*
X120653380Y-102433428D02*
X120653380Y-102338190D01*
X120701000Y-102242952D01*
X120748619Y-102195333D01*
X120843857Y-102147714D01*
X121034333Y-102100095D01*
X121272428Y-102100095D01*
X121462904Y-102147714D01*
X121558142Y-102195333D01*
X121605761Y-102242952D01*
X121653380Y-102338190D01*
X121653380Y-102433428D01*
X121605761Y-102528666D01*
X121558142Y-102576285D01*
X121462904Y-102623904D01*
X121272428Y-102671523D01*
X121034333Y-102671523D01*
X120843857Y-102623904D01*
X120748619Y-102576285D01*
X120701000Y-102528666D01*
X120653380Y-102433428D01*
X121653380Y-101671523D02*
X120653380Y-101671523D01*
X121653380Y-101100095D02*
X121081952Y-101528666D01*
X120653380Y-101100095D02*
X121224809Y-101671523D01*
X124023380Y-102528666D02*
X123547190Y-102862000D01*
X124023380Y-103100095D02*
X123023380Y-103100095D01*
X123023380Y-102719142D01*
X123071000Y-102623904D01*
X123118619Y-102576285D01*
X123213857Y-102528666D01*
X123356714Y-102528666D01*
X123451952Y-102576285D01*
X123499571Y-102623904D01*
X123547190Y-102719142D01*
X123547190Y-103100095D01*
X123023380Y-102195333D02*
X123023380Y-101576285D01*
X123404333Y-101909619D01*
X123404333Y-101766761D01*
X123451952Y-101671523D01*
X123499571Y-101623904D01*
X123594809Y-101576285D01*
X123832904Y-101576285D01*
X123928142Y-101623904D01*
X123975761Y-101671523D01*
X124023380Y-101766761D01*
X124023380Y-102052476D01*
X123975761Y-102147714D01*
X123928142Y-102195333D01*
X118732380Y-103052476D02*
X118732380Y-103623904D01*
X118732380Y-103338190D02*
X117732380Y-103338190D01*
X117875238Y-103433428D01*
X117970476Y-103528666D01*
X118018095Y-103623904D01*
X117732380Y-102433428D02*
X117732380Y-102338190D01*
X117780000Y-102242952D01*
X117827619Y-102195333D01*
X117922857Y-102147714D01*
X118113333Y-102100095D01*
X118351428Y-102100095D01*
X118541904Y-102147714D01*
X118637142Y-102195333D01*
X118684761Y-102242952D01*
X118732380Y-102338190D01*
X118732380Y-102433428D01*
X118684761Y-102528666D01*
X118637142Y-102576285D01*
X118541904Y-102623904D01*
X118351428Y-102671523D01*
X118113333Y-102671523D01*
X117922857Y-102623904D01*
X117827619Y-102576285D01*
X117780000Y-102528666D01*
X117732380Y-102433428D01*
X118732380Y-101671523D02*
X117732380Y-101671523D01*
X118732380Y-101100095D02*
X118160952Y-101528666D01*
X117732380Y-101100095D02*
X118303809Y-101671523D01*
X121102380Y-102528666D02*
X120626190Y-102862000D01*
X121102380Y-103100095D02*
X120102380Y-103100095D01*
X120102380Y-102719142D01*
X120150000Y-102623904D01*
X120197619Y-102576285D01*
X120292857Y-102528666D01*
X120435714Y-102528666D01*
X120530952Y-102576285D01*
X120578571Y-102623904D01*
X120626190Y-102719142D01*
X120626190Y-103100095D01*
X120197619Y-102147714D02*
X120150000Y-102100095D01*
X120102380Y-102004857D01*
X120102380Y-101766761D01*
X120150000Y-101671523D01*
X120197619Y-101623904D01*
X120292857Y-101576285D01*
X120388095Y-101576285D01*
X120530952Y-101623904D01*
X121102380Y-102195333D01*
X121102380Y-101576285D01*
X115811380Y-103052476D02*
X115811380Y-103623904D01*
X115811380Y-103338190D02*
X114811380Y-103338190D01*
X114954238Y-103433428D01*
X115049476Y-103528666D01*
X115097095Y-103623904D01*
X114811380Y-102433428D02*
X114811380Y-102338190D01*
X114859000Y-102242952D01*
X114906619Y-102195333D01*
X115001857Y-102147714D01*
X115192333Y-102100095D01*
X115430428Y-102100095D01*
X115620904Y-102147714D01*
X115716142Y-102195333D01*
X115763761Y-102242952D01*
X115811380Y-102338190D01*
X115811380Y-102433428D01*
X115763761Y-102528666D01*
X115716142Y-102576285D01*
X115620904Y-102623904D01*
X115430428Y-102671523D01*
X115192333Y-102671523D01*
X115001857Y-102623904D01*
X114906619Y-102576285D01*
X114859000Y-102528666D01*
X114811380Y-102433428D01*
X115811380Y-101671523D02*
X114811380Y-101671523D01*
X115811380Y-101100095D02*
X115239952Y-101528666D01*
X114811380Y-101100095D02*
X115382809Y-101671523D01*
X118181380Y-102528666D02*
X117705190Y-102862000D01*
X118181380Y-103100095D02*
X117181380Y-103100095D01*
X117181380Y-102719142D01*
X117229000Y-102623904D01*
X117276619Y-102576285D01*
X117371857Y-102528666D01*
X117514714Y-102528666D01*
X117609952Y-102576285D01*
X117657571Y-102623904D01*
X117705190Y-102719142D01*
X117705190Y-103100095D01*
X118181380Y-101576285D02*
X118181380Y-102147714D01*
X118181380Y-101862000D02*
X117181380Y-101862000D01*
X117324238Y-101957238D01*
X117419476Y-102052476D01*
X117467095Y-102147714D01*
X126043619Y-94955809D02*
X125996000Y-94908190D01*
X125948380Y-94812952D01*
X125948380Y-94574857D01*
X125996000Y-94479619D01*
X126043619Y-94432000D01*
X126138857Y-94384380D01*
X126234095Y-94384380D01*
X126376952Y-94432000D01*
X126948380Y-95003428D01*
X126948380Y-94384380D01*
X126948380Y-93955809D02*
X125948380Y-93955809D01*
X126948380Y-93384380D01*
X125948380Y-93384380D01*
X125948380Y-93003428D02*
X125948380Y-92384380D01*
X126329333Y-92717714D01*
X126329333Y-92574857D01*
X126376952Y-92479619D01*
X126424571Y-92432000D01*
X126519809Y-92384380D01*
X126757904Y-92384380D01*
X126853142Y-92432000D01*
X126900761Y-92479619D01*
X126948380Y-92574857D01*
X126948380Y-92860571D01*
X126900761Y-92955809D01*
X126853142Y-93003428D01*
X126948380Y-91908190D02*
X126948380Y-91717714D01*
X126900761Y-91622476D01*
X126853142Y-91574857D01*
X126710285Y-91479619D01*
X126519809Y-91432000D01*
X126138857Y-91432000D01*
X126043619Y-91479619D01*
X125996000Y-91527238D01*
X125948380Y-91622476D01*
X125948380Y-91812952D01*
X125996000Y-91908190D01*
X126043619Y-91955809D01*
X126138857Y-92003428D01*
X126376952Y-92003428D01*
X126472190Y-91955809D01*
X126519809Y-91908190D01*
X126567428Y-91812952D01*
X126567428Y-91622476D01*
X126519809Y-91527238D01*
X126472190Y-91479619D01*
X126376952Y-91432000D01*
X125948380Y-90812952D02*
X125948380Y-90717714D01*
X125996000Y-90622476D01*
X126043619Y-90574857D01*
X126138857Y-90527238D01*
X126329333Y-90479619D01*
X126567428Y-90479619D01*
X126757904Y-90527238D01*
X126853142Y-90574857D01*
X126900761Y-90622476D01*
X126948380Y-90717714D01*
X126948380Y-90812952D01*
X126900761Y-90908190D01*
X126853142Y-90955809D01*
X126757904Y-91003428D01*
X126567428Y-91051047D01*
X126329333Y-91051047D01*
X126138857Y-91003428D01*
X126043619Y-90955809D01*
X125996000Y-90908190D01*
X125948380Y-90812952D01*
X125948380Y-89622476D02*
X125948380Y-89812952D01*
X125996000Y-89908190D01*
X126043619Y-89955809D01*
X126186476Y-90051047D01*
X126376952Y-90098666D01*
X126757904Y-90098666D01*
X126853142Y-90051047D01*
X126900761Y-90003428D01*
X126948380Y-89908190D01*
X126948380Y-89717714D01*
X126900761Y-89622476D01*
X126853142Y-89574857D01*
X126757904Y-89527238D01*
X126519809Y-89527238D01*
X126424571Y-89574857D01*
X126376952Y-89622476D01*
X126329333Y-89717714D01*
X126329333Y-89908190D01*
X126376952Y-90003428D01*
X126424571Y-90051047D01*
X126519809Y-90098666D01*
X125948380Y-89241523D02*
X125948380Y-88670095D01*
X126948380Y-88955809D02*
X125948380Y-88955809D01*
X126662666Y-88384380D02*
X126662666Y-87908190D01*
X126948380Y-88479619D02*
X125948380Y-88146285D01*
X126948380Y-87812952D01*
X126948380Y-86908190D02*
X126472190Y-87241523D01*
X126948380Y-87479619D02*
X125948380Y-87479619D01*
X125948380Y-87098666D01*
X125996000Y-87003428D01*
X126043619Y-86955809D01*
X126138857Y-86908190D01*
X126281714Y-86908190D01*
X126376952Y-86955809D01*
X126424571Y-87003428D01*
X126472190Y-87098666D01*
X126472190Y-87479619D01*
X133393619Y-91027238D02*
X133346000Y-91122476D01*
X133250761Y-91217714D01*
X133107904Y-91360571D01*
X133060285Y-91455809D01*
X133060285Y-91551047D01*
X133298380Y-91503428D02*
X133250761Y-91598666D01*
X133155523Y-91693904D01*
X132965047Y-91741523D01*
X132631714Y-91741523D01*
X132441238Y-91693904D01*
X132346000Y-91598666D01*
X132298380Y-91503428D01*
X132298380Y-91312952D01*
X132346000Y-91217714D01*
X132441238Y-91122476D01*
X132631714Y-91074857D01*
X132965047Y-91074857D01*
X133155523Y-91122476D01*
X133250761Y-91217714D01*
X133298380Y-91312952D01*
X133298380Y-91503428D01*
X133298380Y-90122476D02*
X133298380Y-90693904D01*
X133298380Y-90408190D02*
X132298380Y-90408190D01*
X132441238Y-90503428D01*
X132536476Y-90598666D01*
X132584095Y-90693904D01*
X119420714Y-69111761D02*
X119563571Y-69159380D01*
X119801666Y-69159380D01*
X119896904Y-69111761D01*
X119944523Y-69064142D01*
X119992142Y-68968904D01*
X119992142Y-68873666D01*
X119944523Y-68778428D01*
X119896904Y-68730809D01*
X119801666Y-68683190D01*
X119611190Y-68635571D01*
X119515952Y-68587952D01*
X119468333Y-68540333D01*
X119420714Y-68445095D01*
X119420714Y-68349857D01*
X119468333Y-68254619D01*
X119515952Y-68207000D01*
X119611190Y-68159380D01*
X119849285Y-68159380D01*
X119992142Y-68207000D01*
X120325476Y-68492714D02*
X120515952Y-69159380D01*
X120706428Y-68683190D01*
X120896904Y-69159380D01*
X121087380Y-68492714D01*
X121468333Y-69159380D02*
X121468333Y-68492714D01*
X121468333Y-68159380D02*
X121420714Y-68207000D01*
X121468333Y-68254619D01*
X121515952Y-68207000D01*
X121468333Y-68159380D01*
X121468333Y-68254619D01*
X121801666Y-68492714D02*
X122182619Y-68492714D01*
X121944523Y-68159380D02*
X121944523Y-69016523D01*
X121992142Y-69111761D01*
X122087380Y-69159380D01*
X122182619Y-69159380D01*
X122944523Y-69111761D02*
X122849285Y-69159380D01*
X122658809Y-69159380D01*
X122563571Y-69111761D01*
X122515952Y-69064142D01*
X122468333Y-68968904D01*
X122468333Y-68683190D01*
X122515952Y-68587952D01*
X122563571Y-68540333D01*
X122658809Y-68492714D01*
X122849285Y-68492714D01*
X122944523Y-68540333D01*
X123373095Y-69159380D02*
X123373095Y-68159380D01*
X123801666Y-69159380D02*
X123801666Y-68635571D01*
X123754047Y-68540333D01*
X123658809Y-68492714D01*
X123515952Y-68492714D01*
X123420714Y-68540333D01*
X123373095Y-68587952D01*
X124039761Y-69254619D02*
X124801666Y-69254619D01*
X124992142Y-69111761D02*
X125135000Y-69159380D01*
X125373095Y-69159380D01*
X125468333Y-69111761D01*
X125515952Y-69064142D01*
X125563571Y-68968904D01*
X125563571Y-68873666D01*
X125515952Y-68778428D01*
X125468333Y-68730809D01*
X125373095Y-68683190D01*
X125182619Y-68635571D01*
X125087380Y-68587952D01*
X125039761Y-68540333D01*
X124992142Y-68445095D01*
X124992142Y-68349857D01*
X125039761Y-68254619D01*
X125087380Y-68207000D01*
X125182619Y-68159380D01*
X125420714Y-68159380D01*
X125563571Y-68207000D01*
X125992142Y-69159380D02*
X125992142Y-68159380D01*
X126373095Y-68159380D01*
X126468333Y-68207000D01*
X126515952Y-68254619D01*
X126563571Y-68349857D01*
X126563571Y-68492714D01*
X126515952Y-68587952D01*
X126468333Y-68635571D01*
X126373095Y-68683190D01*
X125992142Y-68683190D01*
X126992142Y-69159380D02*
X126992142Y-68159380D01*
X127230238Y-68159380D01*
X127373095Y-68207000D01*
X127468333Y-68302238D01*
X127515952Y-68397476D01*
X127563571Y-68587952D01*
X127563571Y-68730809D01*
X127515952Y-68921285D01*
X127468333Y-69016523D01*
X127373095Y-69111761D01*
X127230238Y-69159380D01*
X126992142Y-69159380D01*
X127849285Y-68159380D02*
X128420714Y-68159380D01*
X128135000Y-69159380D02*
X128135000Y-68159380D01*
X128515952Y-69254619D02*
X129277857Y-69254619D01*
X129420714Y-69159380D02*
X129944523Y-68492714D01*
X129420714Y-68492714D02*
X129944523Y-69159380D01*
X130277857Y-68254619D02*
X130325476Y-68207000D01*
X130420714Y-68159380D01*
X130658809Y-68159380D01*
X130754047Y-68207000D01*
X130801666Y-68254619D01*
X130849285Y-68349857D01*
X130849285Y-68445095D01*
X130801666Y-68587952D01*
X130230238Y-69159380D01*
X130849285Y-69159380D01*
X123801666Y-76476761D02*
X123944523Y-76524380D01*
X124182619Y-76524380D01*
X124277857Y-76476761D01*
X124325476Y-76429142D01*
X124373095Y-76333904D01*
X124373095Y-76238666D01*
X124325476Y-76143428D01*
X124277857Y-76095809D01*
X124182619Y-76048190D01*
X123992142Y-76000571D01*
X123896904Y-75952952D01*
X123849285Y-75905333D01*
X123801666Y-75810095D01*
X123801666Y-75714857D01*
X123849285Y-75619619D01*
X123896904Y-75572000D01*
X123992142Y-75524380D01*
X124230238Y-75524380D01*
X124373095Y-75572000D01*
X124706428Y-75524380D02*
X124944523Y-76524380D01*
X125135000Y-75810095D01*
X125325476Y-76524380D01*
X125563571Y-75524380D01*
X126468333Y-76524380D02*
X125896904Y-76524380D01*
X126182619Y-76524380D02*
X126182619Y-75524380D01*
X126087380Y-75667238D01*
X125992142Y-75762476D01*
X125896904Y-75810095D01*
M02*
