%FSLAX45Y45*%
G04 Gerber Fmt 4.5, Leading zero omitted, Abs format (unit mm)*
G04 Created by KiCad (PCBNEW (5.1.6-0-10_14)) date 2021-01-24 22:43:54*
%MOMM*%
%LPD*%
G01*
G04 APERTURE LIST*
%TA.AperFunction,Profile*%
%ADD10C,0.100000*%
%TD*%
%ADD11C,0.200000*%
%ADD12C,0.300000*%
G04 APERTURE END LIST*
D10*
X13652500Y-4318000D02*
X16002000Y-4318000D01*
X11557000Y-6159500D02*
X13398500Y-6159500D01*
X16129000Y-4445000D02*
X16129000Y-12827000D01*
X13525500Y-6032500D02*
X13525500Y-4445000D01*
X13652500Y-4318000D02*
G75*
G03*
X13525500Y-4445000I0J-127000D01*
G01*
X16129000Y-4445000D02*
G75*
G03*
X16002000Y-4318000I-127000J0D01*
G01*
X11430000Y-12827000D02*
X11430000Y-6286500D01*
X11557000Y-12954000D02*
X16002000Y-12954000D01*
X11557000Y-6159500D02*
G75*
G03*
X11430000Y-6286500I0J-127000D01*
G01*
X13398500Y-6159500D02*
G75*
G03*
X13525500Y-6032500I0J127000D01*
G01*
X16002000Y-12954000D02*
G75*
G03*
X16129000Y-12827000I0J127000D01*
G01*
X11430000Y-12827000D02*
G75*
G03*
X11557000Y-12954000I127000J0D01*
G01*
D11*
X11864952Y-6860411D02*
X11904952Y-6900411D01*
X11904952Y-6860411D02*
X11864952Y-6900411D01*
X12451400Y-9517700D02*
X12491400Y-9557700D01*
X12491400Y-9517700D02*
X12451400Y-9557700D01*
X12959401Y-6596700D02*
X12999401Y-6636700D01*
X12999401Y-6596700D02*
X12959401Y-6636700D01*
X13442000Y-10076500D02*
X13482000Y-10116500D01*
X13482000Y-10076500D02*
X13442000Y-10116500D01*
X13442000Y-10584500D02*
X13482000Y-10624500D01*
X13482000Y-10584500D02*
X13442000Y-10624500D01*
X13505500Y-7917500D02*
X13545500Y-7957500D01*
X13545500Y-7917500D02*
X13505500Y-7957500D01*
X13505500Y-11219500D02*
X13545500Y-11259500D01*
X13545500Y-11219500D02*
X13505500Y-11259500D01*
X13569000Y-10203500D02*
X13609000Y-10243500D01*
X13609000Y-10203500D02*
X13569000Y-10243500D01*
X13569000Y-10965500D02*
X13609000Y-11005500D01*
X13609000Y-10965500D02*
X13569000Y-11005500D01*
X13632500Y-8171500D02*
X13672500Y-8211500D01*
X13672500Y-8171500D02*
X13632500Y-8211500D01*
X13632500Y-10711500D02*
X13672500Y-10751500D01*
X13672500Y-10711500D02*
X13632500Y-10751500D01*
X13696000Y-8425500D02*
X13736000Y-8465500D01*
X13736000Y-8425500D02*
X13696000Y-8465500D01*
X13696000Y-10203500D02*
X13736000Y-10243500D01*
X13736000Y-10203500D02*
X13696000Y-10243500D01*
X13759500Y-9441500D02*
X13799500Y-9481500D01*
X13799500Y-9441500D02*
X13759500Y-9481500D01*
X13759500Y-10584500D02*
X13799500Y-10624500D01*
X13799500Y-10584500D02*
X13759500Y-10624500D01*
X13823000Y-8679500D02*
X13863000Y-8719500D01*
X13863000Y-8679500D02*
X13823000Y-8719500D01*
X13823000Y-9695500D02*
X13863000Y-9735500D01*
X13863000Y-9695500D02*
X13823000Y-9735500D01*
X13823000Y-9822500D02*
X13863000Y-9862500D01*
X13863000Y-9822500D02*
X13823000Y-9862500D01*
X13886500Y-9759000D02*
X13926500Y-9799000D01*
X13926500Y-9759000D02*
X13886500Y-9799000D01*
X14585000Y-5060000D02*
X14625000Y-5100000D01*
X14625000Y-5060000D02*
X14585000Y-5100000D01*
X14585000Y-5187000D02*
X14625000Y-5227000D01*
X14625000Y-5187000D02*
X14585000Y-5227000D01*
X14966000Y-7409500D02*
X15006000Y-7449500D01*
X15006000Y-7409500D02*
X14966000Y-7449500D01*
X14966000Y-7854000D02*
X15006000Y-7894000D01*
X15006000Y-7854000D02*
X14966000Y-7894000D01*
X15029500Y-7155500D02*
X15069500Y-7195500D01*
X15069500Y-7155500D02*
X15029500Y-7195500D01*
X15029500Y-8108000D02*
X15069500Y-8148000D01*
X15069500Y-8108000D02*
X15029500Y-8148000D01*
X15029500Y-10648000D02*
X15069500Y-10688000D01*
X15069500Y-10648000D02*
X15029500Y-10688000D01*
X15093000Y-6901500D02*
X15133000Y-6941500D01*
X15133000Y-6901500D02*
X15093000Y-6941500D01*
X15093000Y-8362000D02*
X15133000Y-8402000D01*
X15133000Y-8362000D02*
X15093000Y-8402000D01*
X15156500Y-7409500D02*
X15196500Y-7449500D01*
X15196500Y-7409500D02*
X15156500Y-7449500D01*
X15156500Y-7917500D02*
X15196500Y-7957500D01*
X15196500Y-7917500D02*
X15156500Y-7957500D01*
X15220000Y-7155500D02*
X15260000Y-7195500D01*
X15260000Y-7155500D02*
X15220000Y-7195500D01*
X15220000Y-8171500D02*
X15260000Y-8211500D01*
X15260000Y-8171500D02*
X15220000Y-8211500D01*
X15283500Y-6901500D02*
X15323500Y-6941500D01*
X15323500Y-6901500D02*
X15283500Y-6941500D01*
X15283500Y-8425500D02*
X15323500Y-8465500D01*
X15323500Y-8425500D02*
X15283500Y-8465500D01*
X15283500Y-10394000D02*
X15323500Y-10434000D01*
X15323500Y-10394000D02*
X15283500Y-10434000D01*
X15283500Y-10521000D02*
X15323500Y-10561000D01*
X15323500Y-10521000D02*
X15283500Y-10561000D01*
X15283500Y-11600500D02*
X15323500Y-11640500D01*
X15323500Y-11600500D02*
X15283500Y-11640500D01*
X15347000Y-6647500D02*
X15387000Y-6687500D01*
X15387000Y-6647500D02*
X15347000Y-6687500D01*
X15347000Y-8679500D02*
X15387000Y-8719500D01*
X15387000Y-8679500D02*
X15347000Y-8719500D01*
X15410500Y-6393500D02*
X15450500Y-6433500D01*
X15450500Y-6393500D02*
X15410500Y-6433500D01*
X15410500Y-9187500D02*
X15450500Y-9227500D01*
X15450500Y-9187500D02*
X15410500Y-9227500D01*
X15410500Y-10394000D02*
X15450500Y-10434000D01*
X15450500Y-10394000D02*
X15410500Y-10434000D01*
X15410500Y-10521000D02*
X15450500Y-10561000D01*
X15450500Y-10521000D02*
X15410500Y-10561000D01*
X15410500Y-11283000D02*
X15450500Y-11323000D01*
X15450500Y-11283000D02*
X15410500Y-11323000D01*
X15766100Y-5060000D02*
X15806100Y-5100000D01*
X15806100Y-5060000D02*
X15766100Y-5100000D01*
X12689200Y-9855200D02*
G75*
G03*
X12689200Y-9855200I-40000J0D01*
G01*
X12689200Y-10617200D02*
G75*
G03*
X12689200Y-10617200I-40000J0D01*
G01*
X12968600Y-8839200D02*
G75*
G03*
X12968600Y-8839200I-40000J0D01*
G01*
X12968600Y-9093200D02*
G75*
G03*
X12968600Y-9093200I-40000J0D01*
G01*
X12968600Y-9347200D02*
G75*
G03*
X12968600Y-9347200I-40000J0D01*
G01*
X12397100Y-9855200D02*
G75*
G03*
X12397100Y-9855200I-40000J0D01*
G01*
X12397100Y-10617200D02*
G75*
G03*
X12397100Y-10617200I-40000J0D01*
G01*
X12295500Y-7092200D02*
G75*
G03*
X12295500Y-7092200I-40000J0D01*
G01*
X12295500Y-7442200D02*
G75*
G03*
X12295500Y-7442200I-40000J0D01*
G01*
X12549500Y-7092200D02*
G75*
G03*
X12549500Y-7092200I-40000J0D01*
G01*
X12549500Y-7442200D02*
G75*
G03*
X12549500Y-7442200I-40000J0D01*
G01*
X12803500Y-7092200D02*
G75*
G03*
X12803500Y-7092200I-40000J0D01*
G01*
X12803500Y-7442200D02*
G75*
G03*
X12803500Y-7442200I-40000J0D01*
G01*
X12189500Y-10947400D02*
G75*
G03*
X12189500Y-10947400I-40000J0D01*
G01*
X12443500Y-10947400D02*
G75*
G03*
X12443500Y-10947400I-40000J0D01*
G01*
X12443500Y-11709400D02*
G75*
G03*
X12443500Y-11709400I-40000J0D01*
G01*
X12697500Y-10947400D02*
G75*
G03*
X12697500Y-10947400I-40000J0D01*
G01*
X12951500Y-10947400D02*
G75*
G03*
X12951500Y-10947400I-40000J0D01*
G01*
X13375000Y-6413500D02*
G75*
G03*
X13375000Y-6413500I-40000J0D01*
G01*
X13375000Y-6667500D02*
G75*
G03*
X13375000Y-6667500I-40000J0D01*
G01*
X13375000Y-6921500D02*
G75*
G03*
X13375000Y-6921500I-40000J0D01*
G01*
X13375000Y-7175500D02*
G75*
G03*
X13375000Y-7175500I-40000J0D01*
G01*
X13375000Y-7429500D02*
G75*
G03*
X13375000Y-7429500I-40000J0D01*
G01*
X13375000Y-7683500D02*
G75*
G03*
X13375000Y-7683500I-40000J0D01*
G01*
X13375000Y-7937500D02*
G75*
G03*
X13375000Y-7937500I-40000J0D01*
G01*
X13375000Y-8191500D02*
G75*
G03*
X13375000Y-8191500I-40000J0D01*
G01*
X13375000Y-8445500D02*
G75*
G03*
X13375000Y-8445500I-40000J0D01*
G01*
X13375000Y-8699500D02*
G75*
G03*
X13375000Y-8699500I-40000J0D01*
G01*
X13375000Y-8953500D02*
G75*
G03*
X13375000Y-8953500I-40000J0D01*
G01*
X13375000Y-9207500D02*
G75*
G03*
X13375000Y-9207500I-40000J0D01*
G01*
X13375000Y-9461500D02*
G75*
G03*
X13375000Y-9461500I-40000J0D01*
G01*
X13375000Y-9715500D02*
G75*
G03*
X13375000Y-9715500I-40000J0D01*
G01*
X13375000Y-9969500D02*
G75*
G03*
X13375000Y-9969500I-40000J0D01*
G01*
X13375000Y-10223500D02*
G75*
G03*
X13375000Y-10223500I-40000J0D01*
G01*
X13375000Y-10477500D02*
G75*
G03*
X13375000Y-10477500I-40000J0D01*
G01*
X13375000Y-10731500D02*
G75*
G03*
X13375000Y-10731500I-40000J0D01*
G01*
X13375000Y-10985500D02*
G75*
G03*
X13375000Y-10985500I-40000J0D01*
G01*
X13375000Y-11239500D02*
G75*
G03*
X13375000Y-11239500I-40000J0D01*
G01*
X14899000Y-6413500D02*
G75*
G03*
X14899000Y-6413500I-40000J0D01*
G01*
X14899000Y-6667500D02*
G75*
G03*
X14899000Y-6667500I-40000J0D01*
G01*
X14899000Y-6921500D02*
G75*
G03*
X14899000Y-6921500I-40000J0D01*
G01*
X14899000Y-7175500D02*
G75*
G03*
X14899000Y-7175500I-40000J0D01*
G01*
X14899000Y-7429500D02*
G75*
G03*
X14899000Y-7429500I-40000J0D01*
G01*
X14899000Y-7683500D02*
G75*
G03*
X14899000Y-7683500I-40000J0D01*
G01*
X14899000Y-7937500D02*
G75*
G03*
X14899000Y-7937500I-40000J0D01*
G01*
X14899000Y-8191500D02*
G75*
G03*
X14899000Y-8191500I-40000J0D01*
G01*
X14899000Y-8445500D02*
G75*
G03*
X14899000Y-8445500I-40000J0D01*
G01*
X14899000Y-8699500D02*
G75*
G03*
X14899000Y-8699500I-40000J0D01*
G01*
X14899000Y-8953500D02*
G75*
G03*
X14899000Y-8953500I-40000J0D01*
G01*
X14899000Y-9207500D02*
G75*
G03*
X14899000Y-9207500I-40000J0D01*
G01*
X14899000Y-9461500D02*
G75*
G03*
X14899000Y-9461500I-40000J0D01*
G01*
X14899000Y-9715500D02*
G75*
G03*
X14899000Y-9715500I-40000J0D01*
G01*
X14899000Y-9969500D02*
G75*
G03*
X14899000Y-9969500I-40000J0D01*
G01*
X14899000Y-10223500D02*
G75*
G03*
X14899000Y-10223500I-40000J0D01*
G01*
X14899000Y-10477500D02*
G75*
G03*
X14899000Y-10477500I-40000J0D01*
G01*
X14899000Y-10731500D02*
G75*
G03*
X14899000Y-10731500I-40000J0D01*
G01*
X14899000Y-10985500D02*
G75*
G03*
X14899000Y-10985500I-40000J0D01*
G01*
X14899000Y-11239500D02*
G75*
G03*
X14899000Y-11239500I-40000J0D01*
G01*
X12105000Y-9855200D02*
G75*
G03*
X12105000Y-9855200I-40000J0D01*
G01*
X12105000Y-10617200D02*
G75*
G03*
X12105000Y-10617200I-40000J0D01*
G01*
X12981300Y-9855200D02*
G75*
G03*
X12981300Y-9855200I-40000J0D01*
G01*
X12981300Y-10617200D02*
G75*
G03*
X12981300Y-10617200I-40000J0D01*
G01*
X11812900Y-9855200D02*
G75*
G03*
X11812900Y-9855200I-40000J0D01*
G01*
X11812900Y-10617200D02*
G75*
G03*
X11812900Y-10617200I-40000J0D01*
G01*
X11798300Y-9284500D02*
X11798300Y-9384500D01*
X11748300Y-9334500D02*
X11848300Y-9334500D01*
X12052300Y-9284500D02*
X12052300Y-9384500D01*
X12002300Y-9334500D02*
X12102300Y-9334500D01*
X12306300Y-9284500D02*
X12306300Y-9384500D01*
X12256300Y-9334500D02*
X12356300Y-9334500D01*
X11798300Y-9005100D02*
X11798300Y-9105100D01*
X11748300Y-9055100D02*
X11848300Y-9055100D01*
X12052300Y-9005100D02*
X12052300Y-9105100D01*
X12002300Y-9055100D02*
X12102300Y-9055100D01*
X12306300Y-9005100D02*
X12306300Y-9105100D01*
X12256300Y-9055100D02*
X12356300Y-9055100D01*
X11798300Y-8725700D02*
X11798300Y-8825700D01*
X11748300Y-8775700D02*
X11848300Y-8775700D01*
X12052300Y-8725700D02*
X12052300Y-8825700D01*
X12002300Y-8775700D02*
X12102300Y-8775700D01*
X12306300Y-8725700D02*
X12306300Y-8825700D01*
X12256300Y-8775700D02*
X12356300Y-8775700D01*
X14142962Y-5443462D02*
X14142962Y-5351538D01*
X14051038Y-5351538D01*
X14051038Y-5443462D01*
X14142962Y-5443462D01*
X14142962Y-5697462D02*
X14142962Y-5605538D01*
X14051038Y-5605538D01*
X14051038Y-5697462D01*
X14142962Y-5697462D01*
X14142962Y-5951462D02*
X14142962Y-5859538D01*
X14051038Y-5859538D01*
X14051038Y-5951462D01*
X14142962Y-5951462D01*
X14142962Y-6205462D02*
X14142962Y-6113538D01*
X14051038Y-6113538D01*
X14051038Y-6205462D01*
X14142962Y-6205462D01*
X14142962Y-6459462D02*
X14142962Y-6367538D01*
X14051038Y-6367538D01*
X14051038Y-6459462D01*
X14142962Y-6459462D01*
X14142962Y-6713462D02*
X14142962Y-6621538D01*
X14051038Y-6621538D01*
X14051038Y-6713462D01*
X14142962Y-6713462D01*
X14142962Y-6967462D02*
X14142962Y-6875538D01*
X14051038Y-6875538D01*
X14051038Y-6967462D01*
X14142962Y-6967462D01*
X14142962Y-7221462D02*
X14142962Y-7129538D01*
X14051038Y-7129538D01*
X14051038Y-7221462D01*
X14142962Y-7221462D01*
X14142962Y-7475462D02*
X14142962Y-7383538D01*
X14051038Y-7383538D01*
X14051038Y-7475462D01*
X14142962Y-7475462D01*
X14142962Y-7729462D02*
X14142962Y-7637538D01*
X14051038Y-7637538D01*
X14051038Y-7729462D01*
X14142962Y-7729462D01*
X14142962Y-7983462D02*
X14142962Y-7891538D01*
X14051038Y-7891538D01*
X14051038Y-7983462D01*
X14142962Y-7983462D01*
X14142962Y-8237462D02*
X14142962Y-8145538D01*
X14051038Y-8145538D01*
X14051038Y-8237462D01*
X14142962Y-8237462D01*
X14142962Y-8491462D02*
X14142962Y-8399538D01*
X14051038Y-8399538D01*
X14051038Y-8491462D01*
X14142962Y-8491462D01*
X14142962Y-8745462D02*
X14142962Y-8653538D01*
X14051038Y-8653538D01*
X14051038Y-8745462D01*
X14142962Y-8745462D01*
X14142962Y-8999462D02*
X14142962Y-8907538D01*
X14051038Y-8907538D01*
X14051038Y-8999462D01*
X14142962Y-8999462D01*
X14142962Y-9253462D02*
X14142962Y-9161538D01*
X14051038Y-9161538D01*
X14051038Y-9253462D01*
X14142962Y-9253462D01*
X14142962Y-9507462D02*
X14142962Y-9415538D01*
X14051038Y-9415538D01*
X14051038Y-9507462D01*
X14142962Y-9507462D01*
X14142962Y-9761462D02*
X14142962Y-9669538D01*
X14051038Y-9669538D01*
X14051038Y-9761462D01*
X14142962Y-9761462D01*
X14142962Y-10015462D02*
X14142962Y-9923538D01*
X14051038Y-9923538D01*
X14051038Y-10015462D01*
X14142962Y-10015462D01*
X14142962Y-10269462D02*
X14142962Y-10177538D01*
X14051038Y-10177538D01*
X14051038Y-10269462D01*
X14142962Y-10269462D01*
X14142962Y-10523462D02*
X14142962Y-10431538D01*
X14051038Y-10431538D01*
X14051038Y-10523462D01*
X14142962Y-10523462D01*
X14142962Y-10777462D02*
X14142962Y-10685538D01*
X14051038Y-10685538D01*
X14051038Y-10777462D01*
X14142962Y-10777462D01*
X14142962Y-11031462D02*
X14142962Y-10939538D01*
X14051038Y-10939538D01*
X14051038Y-11031462D01*
X14142962Y-11031462D01*
X14142962Y-11285462D02*
X14142962Y-11193538D01*
X14051038Y-11193538D01*
X14051038Y-11285462D01*
X14142962Y-11285462D01*
X15666962Y-5443462D02*
X15666962Y-5351538D01*
X15575038Y-5351538D01*
X15575038Y-5443462D01*
X15666962Y-5443462D01*
X15666962Y-5697462D02*
X15666962Y-5605538D01*
X15575038Y-5605538D01*
X15575038Y-5697462D01*
X15666962Y-5697462D01*
X15666962Y-5951462D02*
X15666962Y-5859538D01*
X15575038Y-5859538D01*
X15575038Y-5951462D01*
X15666962Y-5951462D01*
X15666962Y-6205462D02*
X15666962Y-6113538D01*
X15575038Y-6113538D01*
X15575038Y-6205462D01*
X15666962Y-6205462D01*
X15666962Y-6459462D02*
X15666962Y-6367538D01*
X15575038Y-6367538D01*
X15575038Y-6459462D01*
X15666962Y-6459462D01*
X15666962Y-6713462D02*
X15666962Y-6621538D01*
X15575038Y-6621538D01*
X15575038Y-6713462D01*
X15666962Y-6713462D01*
X15666962Y-6967462D02*
X15666962Y-6875538D01*
X15575038Y-6875538D01*
X15575038Y-6967462D01*
X15666962Y-6967462D01*
X15666962Y-7221462D02*
X15666962Y-7129538D01*
X15575038Y-7129538D01*
X15575038Y-7221462D01*
X15666962Y-7221462D01*
X15666962Y-7475462D02*
X15666962Y-7383538D01*
X15575038Y-7383538D01*
X15575038Y-7475462D01*
X15666962Y-7475462D01*
X15666962Y-7729462D02*
X15666962Y-7637538D01*
X15575038Y-7637538D01*
X15575038Y-7729462D01*
X15666962Y-7729462D01*
X15666962Y-7983462D02*
X15666962Y-7891538D01*
X15575038Y-7891538D01*
X15575038Y-7983462D01*
X15666962Y-7983462D01*
X15666962Y-8237462D02*
X15666962Y-8145538D01*
X15575038Y-8145538D01*
X15575038Y-8237462D01*
X15666962Y-8237462D01*
X15666962Y-8491462D02*
X15666962Y-8399538D01*
X15575038Y-8399538D01*
X15575038Y-8491462D01*
X15666962Y-8491462D01*
X15666962Y-8745462D02*
X15666962Y-8653538D01*
X15575038Y-8653538D01*
X15575038Y-8745462D01*
X15666962Y-8745462D01*
X15666962Y-8999462D02*
X15666962Y-8907538D01*
X15575038Y-8907538D01*
X15575038Y-8999462D01*
X15666962Y-8999462D01*
X15666962Y-9253462D02*
X15666962Y-9161538D01*
X15575038Y-9161538D01*
X15575038Y-9253462D01*
X15666962Y-9253462D01*
X15666962Y-9507462D02*
X15666962Y-9415538D01*
X15575038Y-9415538D01*
X15575038Y-9507462D01*
X15666962Y-9507462D01*
X15666962Y-9761462D02*
X15666962Y-9669538D01*
X15575038Y-9669538D01*
X15575038Y-9761462D01*
X15666962Y-9761462D01*
X15666962Y-10015462D02*
X15666962Y-9923538D01*
X15575038Y-9923538D01*
X15575038Y-10015462D01*
X15666962Y-10015462D01*
X15666962Y-10269462D02*
X15666962Y-10177538D01*
X15575038Y-10177538D01*
X15575038Y-10269462D01*
X15666962Y-10269462D01*
X15666962Y-10523462D02*
X15666962Y-10431538D01*
X15575038Y-10431538D01*
X15575038Y-10523462D01*
X15666962Y-10523462D01*
X15666962Y-10777462D02*
X15666962Y-10685538D01*
X15575038Y-10685538D01*
X15575038Y-10777462D01*
X15666962Y-10777462D01*
X15666962Y-11031462D02*
X15666962Y-10939538D01*
X15575038Y-10939538D01*
X15575038Y-11031462D01*
X15666962Y-11031462D01*
X15666962Y-11285462D02*
X15666962Y-11193538D01*
X15575038Y-11193538D01*
X15575038Y-11285462D01*
X15666962Y-11285462D01*
D12*
X11711428Y-13424714D02*
X11711428Y-13124714D01*
X11782857Y-13124714D01*
X11825714Y-13139000D01*
X11854286Y-13167571D01*
X11868571Y-13196143D01*
X11882857Y-13253286D01*
X11882857Y-13296143D01*
X11868571Y-13353286D01*
X11854286Y-13381857D01*
X11825714Y-13410429D01*
X11782857Y-13424714D01*
X11711428Y-13424714D01*
X12011428Y-13424714D02*
X12011428Y-13224714D01*
X12011428Y-13281857D02*
X12025714Y-13253286D01*
X12040000Y-13239000D01*
X12068571Y-13224714D01*
X12097143Y-13224714D01*
X12197143Y-13424714D02*
X12197143Y-13224714D01*
X12197143Y-13124714D02*
X12182857Y-13139000D01*
X12197143Y-13153286D01*
X12211428Y-13139000D01*
X12197143Y-13124714D01*
X12197143Y-13153286D01*
X12382857Y-13424714D02*
X12354286Y-13410429D01*
X12340000Y-13381857D01*
X12340000Y-13124714D01*
X12540000Y-13424714D02*
X12511428Y-13410429D01*
X12497143Y-13381857D01*
X12497143Y-13124714D01*
X12882857Y-13424714D02*
X12882857Y-13124714D01*
X12982857Y-13339000D01*
X13082857Y-13124714D01*
X13082857Y-13424714D01*
X13354286Y-13424714D02*
X13354286Y-13267571D01*
X13340000Y-13239000D01*
X13311428Y-13224714D01*
X13254286Y-13224714D01*
X13225714Y-13239000D01*
X13354286Y-13410429D02*
X13325714Y-13424714D01*
X13254286Y-13424714D01*
X13225714Y-13410429D01*
X13211428Y-13381857D01*
X13211428Y-13353286D01*
X13225714Y-13324714D01*
X13254286Y-13310429D01*
X13325714Y-13310429D01*
X13354286Y-13296143D01*
X13497143Y-13224714D02*
X13497143Y-13524714D01*
X13497143Y-13239000D02*
X13525714Y-13224714D01*
X13582857Y-13224714D01*
X13611428Y-13239000D01*
X13625714Y-13253286D01*
X13640000Y-13281857D01*
X13640000Y-13367571D01*
X13625714Y-13396143D01*
X13611428Y-13410429D01*
X13582857Y-13424714D01*
X13525714Y-13424714D01*
X13497143Y-13410429D01*
X13768571Y-13396143D02*
X13782857Y-13410429D01*
X13768571Y-13424714D01*
X13754286Y-13410429D01*
X13768571Y-13396143D01*
X13768571Y-13424714D01*
X13768571Y-13239000D02*
X13782857Y-13253286D01*
X13768571Y-13267571D01*
X13754286Y-13253286D01*
X13768571Y-13239000D01*
X13768571Y-13267571D01*
X11385000Y-13899000D02*
X11425000Y-13939000D01*
X11425000Y-13899000D02*
X11385000Y-13939000D01*
X11768571Y-13754714D02*
X11797143Y-13754714D01*
X11825714Y-13769000D01*
X11840000Y-13783286D01*
X11854286Y-13811857D01*
X11868571Y-13869000D01*
X11868571Y-13940429D01*
X11854286Y-13997571D01*
X11840000Y-14026143D01*
X11825714Y-14040429D01*
X11797143Y-14054714D01*
X11768571Y-14054714D01*
X11740000Y-14040429D01*
X11725714Y-14026143D01*
X11711428Y-13997571D01*
X11697143Y-13940429D01*
X11697143Y-13869000D01*
X11711428Y-13811857D01*
X11725714Y-13783286D01*
X11740000Y-13769000D01*
X11768571Y-13754714D01*
X11997143Y-14026143D02*
X12011428Y-14040429D01*
X11997143Y-14054714D01*
X11982857Y-14040429D01*
X11997143Y-14026143D01*
X11997143Y-14054714D01*
X12268571Y-13854714D02*
X12268571Y-14054714D01*
X12197143Y-13740429D02*
X12125714Y-13954714D01*
X12311428Y-13954714D01*
X12482857Y-13754714D02*
X12511428Y-13754714D01*
X12540000Y-13769000D01*
X12554286Y-13783286D01*
X12568571Y-13811857D01*
X12582857Y-13869000D01*
X12582857Y-13940429D01*
X12568571Y-13997571D01*
X12554286Y-14026143D01*
X12540000Y-14040429D01*
X12511428Y-14054714D01*
X12482857Y-14054714D01*
X12454286Y-14040429D01*
X12440000Y-14026143D01*
X12425714Y-13997571D01*
X12411428Y-13940429D01*
X12411428Y-13869000D01*
X12425714Y-13811857D01*
X12440000Y-13783286D01*
X12454286Y-13769000D01*
X12482857Y-13754714D01*
X12711428Y-14054714D02*
X12711428Y-13854714D01*
X12711428Y-13883286D02*
X12725714Y-13869000D01*
X12754286Y-13854714D01*
X12797143Y-13854714D01*
X12825714Y-13869000D01*
X12840000Y-13897571D01*
X12840000Y-14054714D01*
X12840000Y-13897571D02*
X12854286Y-13869000D01*
X12882857Y-13854714D01*
X12925714Y-13854714D01*
X12954286Y-13869000D01*
X12968571Y-13897571D01*
X12968571Y-14054714D01*
X13111428Y-14054714D02*
X13111428Y-13854714D01*
X13111428Y-13883286D02*
X13125714Y-13869000D01*
X13154286Y-13854714D01*
X13197143Y-13854714D01*
X13225714Y-13869000D01*
X13240000Y-13897571D01*
X13240000Y-14054714D01*
X13240000Y-13897571D02*
X13254286Y-13869000D01*
X13282857Y-13854714D01*
X13325714Y-13854714D01*
X13354286Y-13869000D01*
X13368571Y-13897571D01*
X13368571Y-14054714D01*
X13954286Y-13740429D02*
X13697143Y-14126143D01*
X14340000Y-13754714D02*
X14368571Y-13754714D01*
X14397143Y-13769000D01*
X14411428Y-13783286D01*
X14425714Y-13811857D01*
X14440000Y-13869000D01*
X14440000Y-13940429D01*
X14425714Y-13997571D01*
X14411428Y-14026143D01*
X14397143Y-14040429D01*
X14368571Y-14054714D01*
X14340000Y-14054714D01*
X14311428Y-14040429D01*
X14297143Y-14026143D01*
X14282857Y-13997571D01*
X14268571Y-13940429D01*
X14268571Y-13869000D01*
X14282857Y-13811857D01*
X14297143Y-13783286D01*
X14311428Y-13769000D01*
X14340000Y-13754714D01*
X14568571Y-14026143D02*
X14582857Y-14040429D01*
X14568571Y-14054714D01*
X14554286Y-14040429D01*
X14568571Y-14026143D01*
X14568571Y-14054714D01*
X14768571Y-13754714D02*
X14797143Y-13754714D01*
X14825714Y-13769000D01*
X14840000Y-13783286D01*
X14854286Y-13811857D01*
X14868571Y-13869000D01*
X14868571Y-13940429D01*
X14854286Y-13997571D01*
X14840000Y-14026143D01*
X14825714Y-14040429D01*
X14797143Y-14054714D01*
X14768571Y-14054714D01*
X14740000Y-14040429D01*
X14725714Y-14026143D01*
X14711428Y-13997571D01*
X14697143Y-13940429D01*
X14697143Y-13869000D01*
X14711428Y-13811857D01*
X14725714Y-13783286D01*
X14740000Y-13769000D01*
X14768571Y-13754714D01*
X15154286Y-14054714D02*
X14982857Y-14054714D01*
X15068571Y-14054714D02*
X15068571Y-13754714D01*
X15040000Y-13797571D01*
X15011428Y-13826143D01*
X14982857Y-13840429D01*
X15411428Y-13754714D02*
X15354286Y-13754714D01*
X15325714Y-13769000D01*
X15311428Y-13783286D01*
X15282857Y-13826143D01*
X15268571Y-13883286D01*
X15268571Y-13997571D01*
X15282857Y-14026143D01*
X15297143Y-14040429D01*
X15325714Y-14054714D01*
X15382857Y-14054714D01*
X15411428Y-14040429D01*
X15425714Y-14026143D01*
X15440000Y-13997571D01*
X15440000Y-13926143D01*
X15425714Y-13897571D01*
X15411428Y-13883286D01*
X15382857Y-13869000D01*
X15325714Y-13869000D01*
X15297143Y-13883286D01*
X15282857Y-13897571D01*
X15268571Y-13926143D01*
X15554286Y-13754714D02*
X15554286Y-13811857D01*
X15668571Y-13754714D02*
X15668571Y-13811857D01*
X16111428Y-14169000D02*
X16097143Y-14154714D01*
X16068571Y-14111857D01*
X16054286Y-14083286D01*
X16040000Y-14040429D01*
X16025714Y-13969000D01*
X16025714Y-13911857D01*
X16040000Y-13840429D01*
X16054286Y-13797571D01*
X16068571Y-13769000D01*
X16097143Y-13726143D01*
X16111428Y-13711857D01*
X16354286Y-13854714D02*
X16354286Y-14054714D01*
X16282857Y-13740429D02*
X16211428Y-13954714D01*
X16397143Y-13954714D01*
X16654286Y-13754714D02*
X16511428Y-13754714D01*
X16497143Y-13897571D01*
X16511428Y-13883286D01*
X16540000Y-13869000D01*
X16611428Y-13869000D01*
X16640000Y-13883286D01*
X16654286Y-13897571D01*
X16668571Y-13926143D01*
X16668571Y-13997571D01*
X16654286Y-14026143D01*
X16640000Y-14040429D01*
X16611428Y-14054714D01*
X16540000Y-14054714D01*
X16511428Y-14040429D01*
X16497143Y-14026143D01*
X17025714Y-14054714D02*
X17025714Y-13754714D01*
X17154286Y-14054714D02*
X17154286Y-13897571D01*
X17140000Y-13869000D01*
X17111428Y-13854714D01*
X17068571Y-13854714D01*
X17040000Y-13869000D01*
X17025714Y-13883286D01*
X17340000Y-14054714D02*
X17311428Y-14040429D01*
X17297143Y-14026143D01*
X17282857Y-13997571D01*
X17282857Y-13911857D01*
X17297143Y-13883286D01*
X17311428Y-13869000D01*
X17340000Y-13854714D01*
X17382857Y-13854714D01*
X17411428Y-13869000D01*
X17425714Y-13883286D01*
X17440000Y-13911857D01*
X17440000Y-13997571D01*
X17425714Y-14026143D01*
X17411428Y-14040429D01*
X17382857Y-14054714D01*
X17340000Y-14054714D01*
X17611428Y-14054714D02*
X17582857Y-14040429D01*
X17568571Y-14011857D01*
X17568571Y-13754714D01*
X17840000Y-14040429D02*
X17811428Y-14054714D01*
X17754286Y-14054714D01*
X17725714Y-14040429D01*
X17711428Y-14011857D01*
X17711428Y-13897571D01*
X17725714Y-13869000D01*
X17754286Y-13854714D01*
X17811428Y-13854714D01*
X17840000Y-13869000D01*
X17854286Y-13897571D01*
X17854286Y-13926143D01*
X17711428Y-13954714D01*
X17968571Y-14040429D02*
X17997143Y-14054714D01*
X18054286Y-14054714D01*
X18082857Y-14040429D01*
X18097143Y-14011857D01*
X18097143Y-13997571D01*
X18082857Y-13969000D01*
X18054286Y-13954714D01*
X18011428Y-13954714D01*
X17982857Y-13940429D01*
X17968571Y-13911857D01*
X17968571Y-13897571D01*
X17982857Y-13869000D01*
X18011428Y-13854714D01*
X18054286Y-13854714D01*
X18082857Y-13869000D01*
X18197143Y-14169000D02*
X18211428Y-14154714D01*
X18240000Y-14111857D01*
X18254286Y-14083286D01*
X18268571Y-14040429D01*
X18282857Y-13969000D01*
X18282857Y-13911857D01*
X18268571Y-13840429D01*
X18254286Y-13797571D01*
X18240000Y-13769000D01*
X18211428Y-13726143D01*
X18197143Y-13711857D01*
X11425000Y-14315000D02*
G75*
G03*
X11425000Y-14315000I-40000J0D01*
G01*
X11768571Y-14150714D02*
X11797143Y-14150714D01*
X11825714Y-14165000D01*
X11840000Y-14179286D01*
X11854286Y-14207857D01*
X11868571Y-14265000D01*
X11868571Y-14336429D01*
X11854286Y-14393571D01*
X11840000Y-14422143D01*
X11825714Y-14436429D01*
X11797143Y-14450714D01*
X11768571Y-14450714D01*
X11740000Y-14436429D01*
X11725714Y-14422143D01*
X11711428Y-14393571D01*
X11697143Y-14336429D01*
X11697143Y-14265000D01*
X11711428Y-14207857D01*
X11725714Y-14179286D01*
X11740000Y-14165000D01*
X11768571Y-14150714D01*
X11997143Y-14422143D02*
X12011428Y-14436429D01*
X11997143Y-14450714D01*
X11982857Y-14436429D01*
X11997143Y-14422143D01*
X11997143Y-14450714D01*
X12182857Y-14279286D02*
X12154286Y-14265000D01*
X12140000Y-14250714D01*
X12125714Y-14222143D01*
X12125714Y-14207857D01*
X12140000Y-14179286D01*
X12154286Y-14165000D01*
X12182857Y-14150714D01*
X12240000Y-14150714D01*
X12268571Y-14165000D01*
X12282857Y-14179286D01*
X12297143Y-14207857D01*
X12297143Y-14222143D01*
X12282857Y-14250714D01*
X12268571Y-14265000D01*
X12240000Y-14279286D01*
X12182857Y-14279286D01*
X12154286Y-14293571D01*
X12140000Y-14307857D01*
X12125714Y-14336429D01*
X12125714Y-14393571D01*
X12140000Y-14422143D01*
X12154286Y-14436429D01*
X12182857Y-14450714D01*
X12240000Y-14450714D01*
X12268571Y-14436429D01*
X12282857Y-14422143D01*
X12297143Y-14393571D01*
X12297143Y-14336429D01*
X12282857Y-14307857D01*
X12268571Y-14293571D01*
X12240000Y-14279286D01*
X12482857Y-14150714D02*
X12511428Y-14150714D01*
X12540000Y-14165000D01*
X12554286Y-14179286D01*
X12568571Y-14207857D01*
X12582857Y-14265000D01*
X12582857Y-14336429D01*
X12568571Y-14393571D01*
X12554286Y-14422143D01*
X12540000Y-14436429D01*
X12511428Y-14450714D01*
X12482857Y-14450714D01*
X12454286Y-14436429D01*
X12440000Y-14422143D01*
X12425714Y-14393571D01*
X12411428Y-14336429D01*
X12411428Y-14265000D01*
X12425714Y-14207857D01*
X12440000Y-14179286D01*
X12454286Y-14165000D01*
X12482857Y-14150714D01*
X12711428Y-14450714D02*
X12711428Y-14250714D01*
X12711428Y-14279286D02*
X12725714Y-14265000D01*
X12754286Y-14250714D01*
X12797143Y-14250714D01*
X12825714Y-14265000D01*
X12840000Y-14293571D01*
X12840000Y-14450714D01*
X12840000Y-14293571D02*
X12854286Y-14265000D01*
X12882857Y-14250714D01*
X12925714Y-14250714D01*
X12954286Y-14265000D01*
X12968571Y-14293571D01*
X12968571Y-14450714D01*
X13111428Y-14450714D02*
X13111428Y-14250714D01*
X13111428Y-14279286D02*
X13125714Y-14265000D01*
X13154286Y-14250714D01*
X13197143Y-14250714D01*
X13225714Y-14265000D01*
X13240000Y-14293571D01*
X13240000Y-14450714D01*
X13240000Y-14293571D02*
X13254286Y-14265000D01*
X13282857Y-14250714D01*
X13325714Y-14250714D01*
X13354286Y-14265000D01*
X13368571Y-14293571D01*
X13368571Y-14450714D01*
X13954286Y-14136429D02*
X13697143Y-14522143D01*
X14340000Y-14150714D02*
X14368571Y-14150714D01*
X14397143Y-14165000D01*
X14411428Y-14179286D01*
X14425714Y-14207857D01*
X14440000Y-14265000D01*
X14440000Y-14336429D01*
X14425714Y-14393571D01*
X14411428Y-14422143D01*
X14397143Y-14436429D01*
X14368571Y-14450714D01*
X14340000Y-14450714D01*
X14311428Y-14436429D01*
X14297143Y-14422143D01*
X14282857Y-14393571D01*
X14268571Y-14336429D01*
X14268571Y-14265000D01*
X14282857Y-14207857D01*
X14297143Y-14179286D01*
X14311428Y-14165000D01*
X14340000Y-14150714D01*
X14568571Y-14422143D02*
X14582857Y-14436429D01*
X14568571Y-14450714D01*
X14554286Y-14436429D01*
X14568571Y-14422143D01*
X14568571Y-14450714D01*
X14768571Y-14150714D02*
X14797143Y-14150714D01*
X14825714Y-14165000D01*
X14840000Y-14179286D01*
X14854286Y-14207857D01*
X14868571Y-14265000D01*
X14868571Y-14336429D01*
X14854286Y-14393571D01*
X14840000Y-14422143D01*
X14825714Y-14436429D01*
X14797143Y-14450714D01*
X14768571Y-14450714D01*
X14740000Y-14436429D01*
X14725714Y-14422143D01*
X14711428Y-14393571D01*
X14697143Y-14336429D01*
X14697143Y-14265000D01*
X14711428Y-14207857D01*
X14725714Y-14179286D01*
X14740000Y-14165000D01*
X14768571Y-14150714D01*
X14968571Y-14150714D02*
X15154286Y-14150714D01*
X15054286Y-14265000D01*
X15097143Y-14265000D01*
X15125714Y-14279286D01*
X15140000Y-14293571D01*
X15154286Y-14322143D01*
X15154286Y-14393571D01*
X15140000Y-14422143D01*
X15125714Y-14436429D01*
X15097143Y-14450714D01*
X15011428Y-14450714D01*
X14982857Y-14436429D01*
X14968571Y-14422143D01*
X15440000Y-14450714D02*
X15268571Y-14450714D01*
X15354286Y-14450714D02*
X15354286Y-14150714D01*
X15325714Y-14193571D01*
X15297143Y-14222143D01*
X15268571Y-14236429D01*
X15554286Y-14150714D02*
X15554286Y-14207857D01*
X15668571Y-14150714D02*
X15668571Y-14207857D01*
X16111428Y-14565000D02*
X16097143Y-14550714D01*
X16068571Y-14507857D01*
X16054286Y-14479286D01*
X16040000Y-14436429D01*
X16025714Y-14365000D01*
X16025714Y-14307857D01*
X16040000Y-14236429D01*
X16054286Y-14193571D01*
X16068571Y-14165000D01*
X16097143Y-14122143D01*
X16111428Y-14107857D01*
X16354286Y-14150714D02*
X16297143Y-14150714D01*
X16268571Y-14165000D01*
X16254286Y-14179286D01*
X16225714Y-14222143D01*
X16211428Y-14279286D01*
X16211428Y-14393571D01*
X16225714Y-14422143D01*
X16240000Y-14436429D01*
X16268571Y-14450714D01*
X16325714Y-14450714D01*
X16354286Y-14436429D01*
X16368571Y-14422143D01*
X16382857Y-14393571D01*
X16382857Y-14322143D01*
X16368571Y-14293571D01*
X16354286Y-14279286D01*
X16325714Y-14265000D01*
X16268571Y-14265000D01*
X16240000Y-14279286D01*
X16225714Y-14293571D01*
X16211428Y-14322143D01*
X16640000Y-14250714D02*
X16640000Y-14450714D01*
X16568571Y-14136429D02*
X16497143Y-14350714D01*
X16682857Y-14350714D01*
X17025714Y-14450714D02*
X17025714Y-14150714D01*
X17154286Y-14450714D02*
X17154286Y-14293571D01*
X17140000Y-14265000D01*
X17111428Y-14250714D01*
X17068571Y-14250714D01*
X17040000Y-14265000D01*
X17025714Y-14279286D01*
X17340000Y-14450714D02*
X17311428Y-14436429D01*
X17297143Y-14422143D01*
X17282857Y-14393571D01*
X17282857Y-14307857D01*
X17297143Y-14279286D01*
X17311428Y-14265000D01*
X17340000Y-14250714D01*
X17382857Y-14250714D01*
X17411428Y-14265000D01*
X17425714Y-14279286D01*
X17440000Y-14307857D01*
X17440000Y-14393571D01*
X17425714Y-14422143D01*
X17411428Y-14436429D01*
X17382857Y-14450714D01*
X17340000Y-14450714D01*
X17611428Y-14450714D02*
X17582857Y-14436429D01*
X17568571Y-14407857D01*
X17568571Y-14150714D01*
X17840000Y-14436429D02*
X17811428Y-14450714D01*
X17754286Y-14450714D01*
X17725714Y-14436429D01*
X17711428Y-14407857D01*
X17711428Y-14293571D01*
X17725714Y-14265000D01*
X17754286Y-14250714D01*
X17811428Y-14250714D01*
X17840000Y-14265000D01*
X17854286Y-14293571D01*
X17854286Y-14322143D01*
X17711428Y-14350714D01*
X17968571Y-14436429D02*
X17997143Y-14450714D01*
X18054286Y-14450714D01*
X18082857Y-14436429D01*
X18097143Y-14407857D01*
X18097143Y-14393571D01*
X18082857Y-14365000D01*
X18054286Y-14350714D01*
X18011428Y-14350714D01*
X17982857Y-14336429D01*
X17968571Y-14307857D01*
X17968571Y-14293571D01*
X17982857Y-14265000D01*
X18011428Y-14250714D01*
X18054286Y-14250714D01*
X18082857Y-14265000D01*
X18197143Y-14565000D02*
X18211428Y-14550714D01*
X18240000Y-14507857D01*
X18254286Y-14479286D01*
X18268571Y-14436429D01*
X18282857Y-14365000D01*
X18282857Y-14307857D01*
X18268571Y-14236429D01*
X18254286Y-14193571D01*
X18240000Y-14165000D01*
X18211428Y-14122143D01*
X18197143Y-14107857D01*
X11375000Y-14661000D02*
X11375000Y-14761000D01*
X11325000Y-14711000D02*
X11425000Y-14711000D01*
X11868571Y-14846714D02*
X11697143Y-14846714D01*
X11782857Y-14846714D02*
X11782857Y-14546714D01*
X11754286Y-14589571D01*
X11725714Y-14618143D01*
X11697143Y-14632429D01*
X11997143Y-14818143D02*
X12011428Y-14832429D01*
X11997143Y-14846714D01*
X11982857Y-14832429D01*
X11997143Y-14818143D01*
X11997143Y-14846714D01*
X12197143Y-14546714D02*
X12225714Y-14546714D01*
X12254286Y-14561000D01*
X12268571Y-14575286D01*
X12282857Y-14603857D01*
X12297143Y-14661000D01*
X12297143Y-14732429D01*
X12282857Y-14789571D01*
X12268571Y-14818143D01*
X12254286Y-14832429D01*
X12225714Y-14846714D01*
X12197143Y-14846714D01*
X12168571Y-14832429D01*
X12154286Y-14818143D01*
X12140000Y-14789571D01*
X12125714Y-14732429D01*
X12125714Y-14661000D01*
X12140000Y-14603857D01*
X12154286Y-14575286D01*
X12168571Y-14561000D01*
X12197143Y-14546714D01*
X12482857Y-14546714D02*
X12511428Y-14546714D01*
X12540000Y-14561000D01*
X12554286Y-14575286D01*
X12568571Y-14603857D01*
X12582857Y-14661000D01*
X12582857Y-14732429D01*
X12568571Y-14789571D01*
X12554286Y-14818143D01*
X12540000Y-14832429D01*
X12511428Y-14846714D01*
X12482857Y-14846714D01*
X12454286Y-14832429D01*
X12440000Y-14818143D01*
X12425714Y-14789571D01*
X12411428Y-14732429D01*
X12411428Y-14661000D01*
X12425714Y-14603857D01*
X12440000Y-14575286D01*
X12454286Y-14561000D01*
X12482857Y-14546714D01*
X12711428Y-14846714D02*
X12711428Y-14646714D01*
X12711428Y-14675286D02*
X12725714Y-14661000D01*
X12754286Y-14646714D01*
X12797143Y-14646714D01*
X12825714Y-14661000D01*
X12840000Y-14689571D01*
X12840000Y-14846714D01*
X12840000Y-14689571D02*
X12854286Y-14661000D01*
X12882857Y-14646714D01*
X12925714Y-14646714D01*
X12954286Y-14661000D01*
X12968571Y-14689571D01*
X12968571Y-14846714D01*
X13111428Y-14846714D02*
X13111428Y-14646714D01*
X13111428Y-14675286D02*
X13125714Y-14661000D01*
X13154286Y-14646714D01*
X13197143Y-14646714D01*
X13225714Y-14661000D01*
X13240000Y-14689571D01*
X13240000Y-14846714D01*
X13240000Y-14689571D02*
X13254286Y-14661000D01*
X13282857Y-14646714D01*
X13325714Y-14646714D01*
X13354286Y-14661000D01*
X13368571Y-14689571D01*
X13368571Y-14846714D01*
X13954286Y-14532429D02*
X13697143Y-14918143D01*
X14340000Y-14546714D02*
X14368571Y-14546714D01*
X14397143Y-14561000D01*
X14411428Y-14575286D01*
X14425714Y-14603857D01*
X14440000Y-14661000D01*
X14440000Y-14732429D01*
X14425714Y-14789571D01*
X14411428Y-14818143D01*
X14397143Y-14832429D01*
X14368571Y-14846714D01*
X14340000Y-14846714D01*
X14311428Y-14832429D01*
X14297143Y-14818143D01*
X14282857Y-14789571D01*
X14268571Y-14732429D01*
X14268571Y-14661000D01*
X14282857Y-14603857D01*
X14297143Y-14575286D01*
X14311428Y-14561000D01*
X14340000Y-14546714D01*
X14568571Y-14818143D02*
X14582857Y-14832429D01*
X14568571Y-14846714D01*
X14554286Y-14832429D01*
X14568571Y-14818143D01*
X14568571Y-14846714D01*
X14768571Y-14546714D02*
X14797143Y-14546714D01*
X14825714Y-14561000D01*
X14840000Y-14575286D01*
X14854286Y-14603857D01*
X14868571Y-14661000D01*
X14868571Y-14732429D01*
X14854286Y-14789571D01*
X14840000Y-14818143D01*
X14825714Y-14832429D01*
X14797143Y-14846714D01*
X14768571Y-14846714D01*
X14740000Y-14832429D01*
X14725714Y-14818143D01*
X14711428Y-14789571D01*
X14697143Y-14732429D01*
X14697143Y-14661000D01*
X14711428Y-14603857D01*
X14725714Y-14575286D01*
X14740000Y-14561000D01*
X14768571Y-14546714D01*
X14968571Y-14546714D02*
X15154286Y-14546714D01*
X15054286Y-14661000D01*
X15097143Y-14661000D01*
X15125714Y-14675286D01*
X15140000Y-14689571D01*
X15154286Y-14718143D01*
X15154286Y-14789571D01*
X15140000Y-14818143D01*
X15125714Y-14832429D01*
X15097143Y-14846714D01*
X15011428Y-14846714D01*
X14982857Y-14832429D01*
X14968571Y-14818143D01*
X15297143Y-14846714D02*
X15354286Y-14846714D01*
X15382857Y-14832429D01*
X15397143Y-14818143D01*
X15425714Y-14775286D01*
X15440000Y-14718143D01*
X15440000Y-14603857D01*
X15425714Y-14575286D01*
X15411428Y-14561000D01*
X15382857Y-14546714D01*
X15325714Y-14546714D01*
X15297143Y-14561000D01*
X15282857Y-14575286D01*
X15268571Y-14603857D01*
X15268571Y-14675286D01*
X15282857Y-14703857D01*
X15297143Y-14718143D01*
X15325714Y-14732429D01*
X15382857Y-14732429D01*
X15411428Y-14718143D01*
X15425714Y-14703857D01*
X15440000Y-14675286D01*
X15554286Y-14546714D02*
X15554286Y-14603857D01*
X15668571Y-14546714D02*
X15668571Y-14603857D01*
X16111428Y-14961000D02*
X16097143Y-14946714D01*
X16068571Y-14903857D01*
X16054286Y-14875286D01*
X16040000Y-14832429D01*
X16025714Y-14761000D01*
X16025714Y-14703857D01*
X16040000Y-14632429D01*
X16054286Y-14589571D01*
X16068571Y-14561000D01*
X16097143Y-14518143D01*
X16111428Y-14503857D01*
X16240000Y-14846714D02*
X16297143Y-14846714D01*
X16325714Y-14832429D01*
X16340000Y-14818143D01*
X16368571Y-14775286D01*
X16382857Y-14718143D01*
X16382857Y-14603857D01*
X16368571Y-14575286D01*
X16354286Y-14561000D01*
X16325714Y-14546714D01*
X16268571Y-14546714D01*
X16240000Y-14561000D01*
X16225714Y-14575286D01*
X16211428Y-14603857D01*
X16211428Y-14675286D01*
X16225714Y-14703857D01*
X16240000Y-14718143D01*
X16268571Y-14732429D01*
X16325714Y-14732429D01*
X16354286Y-14718143D01*
X16368571Y-14703857D01*
X16382857Y-14675286D01*
X16740000Y-14846714D02*
X16740000Y-14546714D01*
X16868571Y-14846714D02*
X16868571Y-14689571D01*
X16854286Y-14661000D01*
X16825714Y-14646714D01*
X16782857Y-14646714D01*
X16754286Y-14661000D01*
X16740000Y-14675286D01*
X17054286Y-14846714D02*
X17025714Y-14832429D01*
X17011428Y-14818143D01*
X16997143Y-14789571D01*
X16997143Y-14703857D01*
X17011428Y-14675286D01*
X17025714Y-14661000D01*
X17054286Y-14646714D01*
X17097143Y-14646714D01*
X17125714Y-14661000D01*
X17140000Y-14675286D01*
X17154286Y-14703857D01*
X17154286Y-14789571D01*
X17140000Y-14818143D01*
X17125714Y-14832429D01*
X17097143Y-14846714D01*
X17054286Y-14846714D01*
X17325714Y-14846714D02*
X17297143Y-14832429D01*
X17282857Y-14803857D01*
X17282857Y-14546714D01*
X17554286Y-14832429D02*
X17525714Y-14846714D01*
X17468571Y-14846714D01*
X17440000Y-14832429D01*
X17425714Y-14803857D01*
X17425714Y-14689571D01*
X17440000Y-14661000D01*
X17468571Y-14646714D01*
X17525714Y-14646714D01*
X17554286Y-14661000D01*
X17568571Y-14689571D01*
X17568571Y-14718143D01*
X17425714Y-14746714D01*
X17682857Y-14832429D02*
X17711428Y-14846714D01*
X17768571Y-14846714D01*
X17797143Y-14832429D01*
X17811428Y-14803857D01*
X17811428Y-14789571D01*
X17797143Y-14761000D01*
X17768571Y-14746714D01*
X17725714Y-14746714D01*
X17697143Y-14732429D01*
X17682857Y-14703857D01*
X17682857Y-14689571D01*
X17697143Y-14661000D01*
X17725714Y-14646714D01*
X17768571Y-14646714D01*
X17797143Y-14661000D01*
X17911428Y-14961000D02*
X17925714Y-14946714D01*
X17954286Y-14903857D01*
X17968571Y-14875286D01*
X17982857Y-14832429D01*
X17997143Y-14761000D01*
X17997143Y-14703857D01*
X17982857Y-14632429D01*
X17968571Y-14589571D01*
X17954286Y-14561000D01*
X17925714Y-14518143D01*
X17911428Y-14503857D01*
X11405962Y-15152962D02*
X11405962Y-15061038D01*
X11314037Y-15061038D01*
X11314037Y-15152962D01*
X11405962Y-15152962D01*
X11868571Y-15242714D02*
X11697143Y-15242714D01*
X11782857Y-15242714D02*
X11782857Y-14942714D01*
X11754286Y-14985571D01*
X11725714Y-15014143D01*
X11697143Y-15028429D01*
X11997143Y-15214143D02*
X12011428Y-15228429D01*
X11997143Y-15242714D01*
X11982857Y-15228429D01*
X11997143Y-15214143D01*
X11997143Y-15242714D01*
X12111428Y-14942714D02*
X12297143Y-14942714D01*
X12197143Y-15057000D01*
X12240000Y-15057000D01*
X12268571Y-15071286D01*
X12282857Y-15085571D01*
X12297143Y-15114143D01*
X12297143Y-15185571D01*
X12282857Y-15214143D01*
X12268571Y-15228429D01*
X12240000Y-15242714D01*
X12154286Y-15242714D01*
X12125714Y-15228429D01*
X12111428Y-15214143D01*
X12482857Y-14942714D02*
X12511428Y-14942714D01*
X12540000Y-14957000D01*
X12554286Y-14971286D01*
X12568571Y-14999857D01*
X12582857Y-15057000D01*
X12582857Y-15128429D01*
X12568571Y-15185571D01*
X12554286Y-15214143D01*
X12540000Y-15228429D01*
X12511428Y-15242714D01*
X12482857Y-15242714D01*
X12454286Y-15228429D01*
X12440000Y-15214143D01*
X12425714Y-15185571D01*
X12411428Y-15128429D01*
X12411428Y-15057000D01*
X12425714Y-14999857D01*
X12440000Y-14971286D01*
X12454286Y-14957000D01*
X12482857Y-14942714D01*
X12711428Y-15242714D02*
X12711428Y-15042714D01*
X12711428Y-15071286D02*
X12725714Y-15057000D01*
X12754286Y-15042714D01*
X12797143Y-15042714D01*
X12825714Y-15057000D01*
X12840000Y-15085571D01*
X12840000Y-15242714D01*
X12840000Y-15085571D02*
X12854286Y-15057000D01*
X12882857Y-15042714D01*
X12925714Y-15042714D01*
X12954286Y-15057000D01*
X12968571Y-15085571D01*
X12968571Y-15242714D01*
X13111428Y-15242714D02*
X13111428Y-15042714D01*
X13111428Y-15071286D02*
X13125714Y-15057000D01*
X13154286Y-15042714D01*
X13197143Y-15042714D01*
X13225714Y-15057000D01*
X13240000Y-15085571D01*
X13240000Y-15242714D01*
X13240000Y-15085571D02*
X13254286Y-15057000D01*
X13282857Y-15042714D01*
X13325714Y-15042714D01*
X13354286Y-15057000D01*
X13368571Y-15085571D01*
X13368571Y-15242714D01*
X13954286Y-14928429D02*
X13697143Y-15314143D01*
X14340000Y-14942714D02*
X14368571Y-14942714D01*
X14397143Y-14957000D01*
X14411428Y-14971286D01*
X14425714Y-14999857D01*
X14440000Y-15057000D01*
X14440000Y-15128429D01*
X14425714Y-15185571D01*
X14411428Y-15214143D01*
X14397143Y-15228429D01*
X14368571Y-15242714D01*
X14340000Y-15242714D01*
X14311428Y-15228429D01*
X14297143Y-15214143D01*
X14282857Y-15185571D01*
X14268571Y-15128429D01*
X14268571Y-15057000D01*
X14282857Y-14999857D01*
X14297143Y-14971286D01*
X14311428Y-14957000D01*
X14340000Y-14942714D01*
X14568571Y-15214143D02*
X14582857Y-15228429D01*
X14568571Y-15242714D01*
X14554286Y-15228429D01*
X14568571Y-15214143D01*
X14568571Y-15242714D01*
X14768571Y-14942714D02*
X14797143Y-14942714D01*
X14825714Y-14957000D01*
X14840000Y-14971286D01*
X14854286Y-14999857D01*
X14868571Y-15057000D01*
X14868571Y-15128429D01*
X14854286Y-15185571D01*
X14840000Y-15214143D01*
X14825714Y-15228429D01*
X14797143Y-15242714D01*
X14768571Y-15242714D01*
X14740000Y-15228429D01*
X14725714Y-15214143D01*
X14711428Y-15185571D01*
X14697143Y-15128429D01*
X14697143Y-15057000D01*
X14711428Y-14999857D01*
X14725714Y-14971286D01*
X14740000Y-14957000D01*
X14768571Y-14942714D01*
X15140000Y-14942714D02*
X14997143Y-14942714D01*
X14982857Y-15085571D01*
X14997143Y-15071286D01*
X15025714Y-15057000D01*
X15097143Y-15057000D01*
X15125714Y-15071286D01*
X15140000Y-15085571D01*
X15154286Y-15114143D01*
X15154286Y-15185571D01*
X15140000Y-15214143D01*
X15125714Y-15228429D01*
X15097143Y-15242714D01*
X15025714Y-15242714D01*
X14997143Y-15228429D01*
X14982857Y-15214143D01*
X15440000Y-15242714D02*
X15268571Y-15242714D01*
X15354286Y-15242714D02*
X15354286Y-14942714D01*
X15325714Y-14985571D01*
X15297143Y-15014143D01*
X15268571Y-15028429D01*
X15554286Y-14942714D02*
X15554286Y-14999857D01*
X15668571Y-14942714D02*
X15668571Y-14999857D01*
X16111428Y-15357000D02*
X16097143Y-15342714D01*
X16068571Y-15299857D01*
X16054286Y-15271286D01*
X16040000Y-15228429D01*
X16025714Y-15157000D01*
X16025714Y-15099857D01*
X16040000Y-15028429D01*
X16054286Y-14985571D01*
X16068571Y-14957000D01*
X16097143Y-14914143D01*
X16111428Y-14899857D01*
X16354286Y-15042714D02*
X16354286Y-15242714D01*
X16282857Y-14928429D02*
X16211428Y-15142714D01*
X16397143Y-15142714D01*
X16554286Y-15071286D02*
X16525714Y-15057000D01*
X16511428Y-15042714D01*
X16497143Y-15014143D01*
X16497143Y-14999857D01*
X16511428Y-14971286D01*
X16525714Y-14957000D01*
X16554286Y-14942714D01*
X16611428Y-14942714D01*
X16640000Y-14957000D01*
X16654286Y-14971286D01*
X16668571Y-14999857D01*
X16668571Y-15014143D01*
X16654286Y-15042714D01*
X16640000Y-15057000D01*
X16611428Y-15071286D01*
X16554286Y-15071286D01*
X16525714Y-15085571D01*
X16511428Y-15099857D01*
X16497143Y-15128429D01*
X16497143Y-15185571D01*
X16511428Y-15214143D01*
X16525714Y-15228429D01*
X16554286Y-15242714D01*
X16611428Y-15242714D01*
X16640000Y-15228429D01*
X16654286Y-15214143D01*
X16668571Y-15185571D01*
X16668571Y-15128429D01*
X16654286Y-15099857D01*
X16640000Y-15085571D01*
X16611428Y-15071286D01*
X17025714Y-15242714D02*
X17025714Y-14942714D01*
X17154286Y-15242714D02*
X17154286Y-15085571D01*
X17140000Y-15057000D01*
X17111428Y-15042714D01*
X17068571Y-15042714D01*
X17040000Y-15057000D01*
X17025714Y-15071286D01*
X17340000Y-15242714D02*
X17311428Y-15228429D01*
X17297143Y-15214143D01*
X17282857Y-15185571D01*
X17282857Y-15099857D01*
X17297143Y-15071286D01*
X17311428Y-15057000D01*
X17340000Y-15042714D01*
X17382857Y-15042714D01*
X17411428Y-15057000D01*
X17425714Y-15071286D01*
X17440000Y-15099857D01*
X17440000Y-15185571D01*
X17425714Y-15214143D01*
X17411428Y-15228429D01*
X17382857Y-15242714D01*
X17340000Y-15242714D01*
X17611428Y-15242714D02*
X17582857Y-15228429D01*
X17568571Y-15199857D01*
X17568571Y-14942714D01*
X17840000Y-15228429D02*
X17811428Y-15242714D01*
X17754286Y-15242714D01*
X17725714Y-15228429D01*
X17711428Y-15199857D01*
X17711428Y-15085571D01*
X17725714Y-15057000D01*
X17754286Y-15042714D01*
X17811428Y-15042714D01*
X17840000Y-15057000D01*
X17854286Y-15085571D01*
X17854286Y-15114143D01*
X17711428Y-15142714D01*
X17968571Y-15228429D02*
X17997143Y-15242714D01*
X18054286Y-15242714D01*
X18082857Y-15228429D01*
X18097143Y-15199857D01*
X18097143Y-15185571D01*
X18082857Y-15157000D01*
X18054286Y-15142714D01*
X18011428Y-15142714D01*
X17982857Y-15128429D01*
X17968571Y-15099857D01*
X17968571Y-15085571D01*
X17982857Y-15057000D01*
X18011428Y-15042714D01*
X18054286Y-15042714D01*
X18082857Y-15057000D01*
X18197143Y-15357000D02*
X18211428Y-15342714D01*
X18240000Y-15299857D01*
X18254286Y-15271286D01*
X18268571Y-15228429D01*
X18282857Y-15157000D01*
X18282857Y-15099857D01*
X18268571Y-15028429D01*
X18254286Y-14985571D01*
X18240000Y-14957000D01*
X18211428Y-14914143D01*
X18197143Y-14899857D01*
M02*
